<svg xmlns="http://www.w3.org/2000/svg" viewBox="0 0 232.02 69.6"><g data-name="レイヤー 2"><path d="M4.61 28.26l.43.51 1.75.57 1.28 1.24 1.58.77 1.76.24 1.65.41 1.7.49L16.4 32l1.79-.34.92-1.74L18 28.71l-1.3-.5-1.39-.77-1.54-.44-1.51-.42-1.82.24-1.5-.95-1.81-.18L6 24.26l-1.29-1.05-1.58-.86-.59-1.66-1.27-1.35L1 17.59l.39-1.76L1 14l.88-1.65-.09-1.9 1-1.54 1.35-1.23L4.86 6l1.49-1 1-1.61 2-.19 1.3-1.37 1.66-.73L14 .36l1.92.42L17.7.57 19.46.1l1.73.65L23 .22l1.62.93 1.9-.41 1.59.84 1.51.94 1.7.51 1.38.85-.14 2-1.08 1.62-1 1.69-.22 2-1.07 1.66-.57 1.83-1.61-.95-1.85-.54L23.61 12l-1.88-.45-1.93-.4-2.06 1-1.17 1.58 1.12 1.4 1.81 1h1.83l1.76.28 1.78.44 1.55 1.05 1.5 1L30 19l.92 1.74 1 1.46 1.49 1.19v1.89l.33 1.72.95 1.76-.23 1.8-.61 1.71-.85 1.52-.79 1.53-.34 1.88-1.76.8-.84 1.68-1.58.84-1.44 1.06-1.54.92-1.84.14-1.73.3-1.72.34-1.69.8-1.8-.53-1.86.09-1.9.18-1.83-.45-1.9-.09-1.79-.6L5 41.79l-1.87-.32-1.55-1.22L0 39.92l.11-1.81.57-1.74 1.18-1.51L2 33l1.38-1.42.46-1.78zM36.36 1L38 .5l1.77.55L41.5.6l1.76.28L45 .47l1.79.53 1.77-.07 1.76-.25 1.77.32 1.78.12 1.77.1L57.4.6l1.75.29 1.63.81 1.62.57 1.69.38 1.91.17 1.2 1.41 1.12 1.32 1.17 1.24 1.45 1.1.65 1.65.41 1.69.54 1.67.38 1.72-.17 1.77v1.86l-.21 1.86-.89 1.66-.8 1.63-.96 1.6-1 1.5-1.34 1.24-1.63.85-1.53 1.13-1.86.28h-1.87l-1.83.45-2-.54-2 .74-2-.29h-2l-.43 1.89L51.44 34l-.94 1.82.5 1.82-.16 1.82-.05 1.82.21 1.81-1.84.14-1.84-.29-1.85-.07-1.84.4h-1.85l-1.85-.46h-1.85l-1.74.19-.05-1.71-.23-1.83-.12-1.83.41-1.83-.06-1.84-.16-1.83-.36-1.83.56-1.84.07-1.83-.2-1.84v-1.83l.1-1.84v-1.84l.4-1.83-.48-1.83v-1.87l.25-1.84V8.24l-.61-1.84.08-1.84.43-1.84zm14.47 18.88l1.67-.51 2 .44 1.72-1 1.51-1.08v-1.85l.06-1.88-1.58-1.13-1.89-.17-1.87-.4h-1.67l-.15 2 .69 1.83-.12 1.85zM73.74.68l2 .1L77.49.5l1.78.4L81 .72l1.81-.34h1.78l1.77.1 1.77-.03 1.77.92 1.78-.72 1.77.26h1.78L97 .76l1.78.24 1.78-.48 2.12.05.08 2.23-.66 1.92.61 1.93.13 1.92-.2 1.92-.51 1.72-1.63.38-1.85.32-1.85-.23-1.8-.32-1.85.28H91.3l-1.76-.1-.33 1.93.47 1.81 1.45.09h1.68l1.69-.25 1.69.41 1.69-.18 1.69.56 1.89-.63.28 2-1 1.83.87 1.82-.19 1.83.14 1.83-.56 1.62-1.46.45-1.69-.47-1.69.47-1.68.12-1.69-.39-1.69.48-1.59-.37-.33 2-.13 2.4 2.26-.07 1.91-.14 1.91-.14 1.91.15h1.92l1.91-.22 2.13-.07.2 2.12-.55 1.92.51 1.92-.64 1.93-.14 1.92.77 2.27L101 43l-1.8-.3-1.8.28h-1.8l-1.8.6-1.8-.3-1.8.11-1.8-.47-1.8.6h-1.8L83 43.2l-1.81-.06h-1.8l-1.8-.21-1.81.43-1.48-.54-.12-1.51.19-1.83-.3-1.83-.39-1.83.27-1.84.46-1.83-.57-1.83-.06-1.84v-1.83l.3-1.84-.44-1.83.36-1.89.38-1.84-.14-1.83-.33-1.83.12-1.84-.13-1.84-.32-1.83-.13-1.84.45-1.84.1-1.84.3-1.86zM137.59 18l-1-1.39-1.55-.8-1.62-.58-1.37-1.23-1.74-.21-1.71-.17-1.94-.13-1.82.69-1.39 1.36-1.45 1.18-.81 1.69-.62 1.74-.73 1.85.17 2 1.34 1.54.46 2 1.46 1.34 1.77.87 1.82.76 2-.11 1.9-.7 2-.07 1.61-1.18 2-.55 1.48-1.63-.22 1.82-.12 1.75-.3 1.74.18 1.76.41 1.77-.24 1.75v3.52l-.24 1.8-2 .37-1.68 1-1.93-.31h-1.85l-1.82.55-1.85.39-1.81-.07-1.69-.86-1.85.21-1.77-.4-1.64-.77-1.27-1.43-2-.18-1-1.64-1.79-.62-.92-1.6-.94-1.49-1.02-1.33-.84-1.53-1.41-1.3v-1.91l-.87-1.59-.21-1.77v-1.77l-.58-1.75.61-1.81-.19-1.86v-1.89l.75-1.73.46-1.81 1.31-1.42 1.23-1.37.83-1.62 1.35-1.22.92-1.65 1.23-1.39 1.56-1 1.59-.95 1.77-.54 1.6-.93 1.86-.19 1.74-.65L125 0l1.85.4 1.78-.4 1.69.76 1.77-.08 1.76.14 1.79.12L137 2l.16 1.72v1.79l.56 1.77-.72 1.8.37 1.78-.34 1.79v1.79l.66 1.78zM140.12.65l1.94.41 1.71.07 1.7-.09 1.7-.16 1.71.46 1.7-.74 1.71.13L154 .42l1.55.6-.26 1.69.65 1.83-.25 1.83-.12 1.83-.22 1.8.23 1.83.58 1.84-.16 1.87-.32 1.84.48 1.83-.41 1.84.13 1.83v3.67l-.3 1.84.17 1.83.06 1.84.36 1.83-.41 1.84-.47 1.84.25 1.84.05 1.84.5 2.17-2-.81-1.71.27-1.7.12-1.7-.24-1.71-.11h-1.7l-1.71.42-1.71.37h-2v-2.08l.24-1.83.06-1.83.43-1.83-.26-1.84.17-1.83-.43-1.83.45-1.84-.49-1.83-.13-1.84-.1-1.83-.1-1.84.38-1.84-.27-1.83.11-1.83.27-1.84-.18-1.84-.11-1.83V8.24L140 6.4l.11-1.84.05-1.83zm32.5 42.66l-2-.17-1.8-.35-1.8.39h-1.8l-1.78-.18-1.8-.31-1.81.2-1.81.48-1.6-.4v-1.69l1-1.54 1-1.54.09-1.86.61-1.68.52-1.71.42-1.74.54-1.71.73-1.63.4-1.76 1.39-1.41.13-1.84.13-1.85 1.31-1.44.08-1.87.92-1.56.12-1.85 1.37-1.42-.09-1.93.77-1.62 1-1.56.34-1.76.3-1.79.81-1.62.44-1.9 2-.26 1.88.68 1.88-.68 1.89.38h1.88l1.88-.05 1.89.42 1.89.11 2.16-.78.63 2 .14 1.85L190 5.8l.09 1.87 1.07 1.51.57 1.7.19 1.84.27 1.8.74 1.64 1.31 1.44.66 1.66.25 1.82.15 1.85.58 1.7 1.2 1.47L197 28l1.24 1.45.68 1.67.39 1.76.84 1.61.15 1.85.45 1.75.61 1.69 1.18 1.49.37 1.8-1.81.15-1.79-.22-1.8-.07-1.8.36-1.81-.57-1.8.85-1.81-.19-1.81.17-1.92-.26-.08-2-1.11-1.58-.2-1.72-1.82.31-1.93-.05-1.94-.45-1.93.36-1.93-.21-2-.14-.39 1.79v1.82zm9.77-15.67L182.1 26l-.1-2-.83-1.77-.42-1.88-.22-1.83v-1.84l-.53-1.92-.51.28-.87 1.67.26 2-.88 1.73-.84 1.74.12 1.95-.43 1.87-.36 1.78 2-.21h2zM203 .57l2-.16 1.7.8 1.7-.39 1.7.41 1.71-.68 1.7.11 1.71.66 1.71-.14 1.6-.18.17 1.67-.49 1.79v1.79l.58 1.75v1.8l.16 1.79-.82 1.79.85 1.78v1.8l-.18 1.79.11 1.79.07 1.79v1.79l-.79 1.8-.11 1.8.23 2.06 2.1-.69 1.83.07 1.84.26 1.84-.14h1.84l1.85.27 1.64.2.69 1.47-.57 1.69.41 1.69-.31 1.69v1.7l-.05 1.69v1.7l-.34 1.35-1.43.17-1.76.57-1.76-.64-1.77.26-1.76-.4-1.76.17-1.77-.22-1.76.43-1.76.08-1.64-.15-1.77-.32-1.76.9-1.76-.75-1.77.56-1.77-.78-1.79.52-.29-1.87.31-1.83.35-1.83-.44-1.83.31-1.84-.1-1.83-.3-1.83.37-1.84-.06-1.83.07-1.84-.18-1.83.13-1.84.21-1.84v-1.83l-.77-1.83.1-1.84.54-1.84-.4-1.83.59-1.84-.53-1.84-.28-1.84.62-1.86zM10.58 60.38a5.49 5.49 0 0 0-.35.62 16.47 16.47 0 0 1-2 3.42 32.61 32.61 0 0 1 3.43 3.51l-1.07.94a25.59 25.59 0 0 0-3.17-3.5 15.45 15.45 0 0 1-4.61 3.44l-1-1a13.32 13.32 0 0 0 4.99-3.52 10 10 0 0 0 1.91-3.17h-4.4c-.47 0-1.12.06-1.31.07v-1.35c.24 0 .94.08 1.31.08h4.45a3.68 3.68 0 0 0 1-.12zm3.2 3.95c.55-.56 1.54-1.82 2.34-2.75s1.23-.88 2.14-.11a26 26 0 0 1 2.47 2.46c.81.86 2.05 2.19 2.92 3.21l-1 1.08c-.8-1-1.89-2.3-2.64-3.17a32.07 32.07 0 0 0-2.29-2.41c-.45-.38-.64-.38-1 .09-.54.66-1.48 1.92-2 2.57l-.72 1-1.11-1.12c.3-.27.54-.51.89-.85zm7.9-4.65a1.5 1.5 0 1 1-1.5 1.51 1.5 1.5 0 0 1 1.5-1.51zm0 2.34a.83.83 0 1 0-.83-.83.83.83 0 0 0 .83.81zm7.11 1.45l-.7 1.07a29.75 29.75 0 0 0-2.67-1.68l.68-1c.76.37 2.12 1.21 2.69 1.61zM30 66.29a12.36 12.36 0 0 0 4.59-4.45l.72 1.27a14 14 0 0 1-4.68 4.29 13.87 13.87 0 0 1-4 1.49l-.71-1.23A13.35 13.35 0 0 0 30 66.29zm.59-5.47l-.71 1c-.61-.44-1.9-1.29-2.64-1.71l.68-1c.75.41 2.08 1.3 2.67 1.71zm10.71 4.99a11 11 0 0 0 1.93-2.34l-3.23.66c.47 1.69 1 3.69 1.2 4.26.06.21.2.66.29.88l-1.3.33a4.84 4.84 0 0 0-.19-.95c-.17-.59-.71-2.6-1.15-4.28-1.08.21-2 .42-2.36.49l-.29-1.15a10.18 10.18 0 0 0 1-.13l1.32-.24c-.14-.57-.27-1-.35-1.27a3.25 3.25 0 0 0-.31-.77l1.29-.3c0 .24.11.52.18.82l.36 1.31c1.62-.31 3.51-.67 3.94-.77a1.91 1.91 0 0 0 .51-.16l.77.54a17.56 17.56 0 0 1-2.56 3.61zm4.11 2.27a5.72 5.72 0 0 0 2.06-2.92 20.67 20.67 0 0 0 .35-4.78 3.47 3.47 0 0 0-.1-1h1.4a7.26 7.26 0 0 0-.06 1 25.87 25.87 0 0 1-.38 5.13 6.73 6.73 0 0 1-2.13 3.35zm5.52.1a4 4 0 0 0 .08-.75v-7.1a9 9 0 0 0-.07-1h1.39a7.62 7.62 0 0 0-.06 1V67a8.47 8.47 0 0 0 3.26-2.76l.72 1a12.45 12.45 0 0 1-4.08 3.31 3.18 3.18 0 0 0-.45.3z" fill="#fff"/><path fill="none" stroke="#fff" stroke-miterlimit="10" stroke-width="2" stroke-dasharray="2 4" d="M188.41 64.99H66.16"/></g></svg>