<svg xmlns="http://www.w3.org/2000/svg" viewBox="0 0 203.62 69.16"><g data-name="レイヤー 2"><path d="M5.2 28.37l.54.43L7 30.12l1.84.37 1.59.68 1.64.48 1.6.69 1.73.37L17 32l1.38-.67.52-1.23-.22-1.28-1.31-.61-1.37-.93-1.64.22-1.57-.11-1.79-.14-1.63-.69L8 25.3l-1.36-1-1.82-.45-1.34-1.15-.33-1.86L2 19.43l-.61-1.68.09-1.75.27-1.8.68-1.69.57-1.69.68-1.61 1-1.42.5-1.9 1.46-1.16 1.74-.67 1.36-1.18L11.3 2l1.87-.1 1.6-.81 1.77-.2 1.74-.48h1.79l1.77-.14 1.75.25h1.78l1.54 1.1 1.93-.26 1.47 1.08 1.57.79 1.65.77-1.08 1.72L32 7.61l-1 1.67-.38 1.92-.32 2-.69 1.94-2.09-.95L26 13l-1.68-1-1.89-.59-2 .06-2.24.53-.85 1.88.87 1.59 2 .28 1.65.79 1.77.24 1.86.08 1.71.69 1.8.65 1.13 1.62 1.79.64.74 1.74 1 1.47.53 1.68.56 1.7.38 1.8-.65 1.72-.35 1.69-.13 1.8-.86 1.56-.54 1.79-1.87.72-.91 1.59L28.53 41l-1.81.42-1.64.58-1.67.5-1.56 1-1.71.63-1.83-.42-1.76.1-1.86-.22-1.89.19-1.8-.32-1.9-.06-1.88-.4-1.79-.6-1.65-1-1.67-.83L0 40l1.3-1.56.33-1.83.37-1.8.54-1.75.75-1.67.92-1.62zM37 .73l2.06.27 1.78-.28 1.79.22 1.79-.4 1.79.33L48 .61l1.79.76 1.8-.74 1.79.62 1.79-.11L57 .89l1.75-.25 1.79.22 1.8.32 1.79.17 1.79-.68 1.8.57 1.5.09.51 1.4v1.71l-.59 1.71.71 1.72-.36 1.71v1.72l-.38 1.7.21 1.52-1.51.5-1.67-.36-1.7.08-1.7.06-1.63-.43.08 1.76.31 1.87-.36 1.8-.36 1.81.34 1.8-.12 1.76.23 1.8v1.8l.24 1.81-.36 1.8.44 1.81-.69 1.81.66 1.8-.18 1.81-.76 1.82.42 1.76-1.63-.19-1.71.7-1.66-.54-1.7.31-1.71-.67-1.7.55-1.71-.51-1.71.49-1.93.12v-2l.66-1.8-.79-1.8.32-1.85.05-1.8.08-1.81-.18-1.8-.3-1.8.78-1.79-.55-1.8v-1.81l.49-1.81-.1-1.8-.14-1.78v-1.82l-.32-1.66-1.51.28-1.72-.51-1.68.23L39 15l-1.57-.44.17-1.56-.53-1.71.46-1.71-.16-1.72-.23-1.71.45-1.72-.43-1.71zm82.41 21.51L119 24l.39 1.85-.39 1.79-.32 1.8-.81 1.64-.76 1.65-1 1.51-.92 1.57-1.64 1-1.36 1.13-1.19 1.19-1.55.86-1.21 1.5-1.66.72-1.85.17-1.6.89-1.85-.11-1.77.13-1.72.76-1.8.1h-1.8l-1.74-.68-1.75-.31-1.7-.58-1.79-.17-1.89-.08-1.4-1.27-1.58-.83-1.58-.85-1.28-1.28-1.26-1.26-1.09-1.4-1.33-1.24-.42-1.82-1-1.46-.58-1.68-.18-1.78-.91-1.63V24l-.43-1.78.55-1.78.39-1.74.17-1.7.06-1.85.71-1.66 1.1-1.49 1.11-1.39.91-1.51.92-1.56 1.58-.92.92-1.68 1.6-.87 1.8-.43 1.29-1.44 1.89-.06 1.54-1.07 1.88.24 1.66-.92L94.14 0 96 .2l1.77.52 1.76-.18 1.77.3 1.67.68 1.73.42 1.87.16 1.58.89 1.29 1.35 1.85.49 1.19 1.39 1.2 1.35 1.46 1.12.8 1.65.9 1.55.49 1.73 1 1.52.41 1.76.43 1.74v1.81zm-31.25.22L88 24.31l1.07 1.55.81 1.53 1.31 1.12 1.35 1.06 1.66.52 1.74.27 1.74-.36h1.89l1.67-.88 1.18-1.47 1.06-1.55-.16-1.94.2-1.74.31-1.84-.9-1.62-.46-1.84-1.19-1.49-1.87-.5-1.69-.52-1.72-.07-1.85-.32-1.79.56-1.73.85-1 1.62-.37 1.84-1 1.54zm36.06-21.4L126 .7l1.84.7 1.86-.61 1.85.11 1.85.46 1.85-.81 1.86.76L139 1l1.86.4 1.86-.5 1.88-.19 1.81.69 1.9-.1 1.73.77 1.85.33 1.55 1.07 1.53 1 1.29 1.29 1.5 1.12.53 1.83.83 1.59 1 1.63-.17 1.9-.13 1.84.81 1.91-1 1.75-.38 1.82-1 1.53-1.19 1.41-1.5 1.13L154 26.3l-2.08.14.54.34.88 1.56 1.77.9.69 1.76.92 1.59.83 1.65 1 1.56 1 1.53 1.69 1.07.46 1.91 1.55 1.18.56 1.72h-1.67l-1.76.13-1.77-.19-1.77.61-1.84-.33h-1.77l-1.76.2-1.78-.27h-3.55l-.77-1.82-.94-1.64-1.15-1.54-.71-1.75-.33-1.95-1.07-1.58-.93-1.66-.44-1.94-.65.18-.05 1.71-.21 1.69.51 1.69v3.39l.14 1.69-.48 1.7.38 1.89-2.13-.42-1.87-.16-1.88.15-1.87.11-1.87-.14-1.88.57-1.88-.58-2 .43.14-2 .28-1.83-.1-1.83.29-1.83-.67-1.82v-1.83l.29-1.83-.07-1.84v-1.83l-.52-1.84v-1.83l.79-1.84-.78-1.84.57-1.83.17-1.83-.13-1.84.09-1.84v-1.83L124 8.38l.29-1.84.09-1.84-.74-1.85zm14.91 18.69l1.12-.35 1.82.6 1.53-1.07 1.23-1.07.81-1.67-1.09-1.56-.55-1.73-1.83-.24-1.77-.5-1.08.45.27 1.73-.59 1.79.4 1.8zM177 1.38l.46 1.4 1 1.41.72 1.56.82 1.53.21 1.78.86 1.5.87 1.5.72.24V9.9l1.14-1.84.47-1.88 1-1.65.91-1.7.69-1.73 1.67-.51 1.71.64 1.75.17 1.72.09h1.72l1.73-.33 1.72-.08 1.68-.08 1.73.17 1.32.11-.44 1.3-.58 1.7-1.43 1.18-.6 1.68-.83 1.55L198.6 10l-.67 1.64-.83 1.54-1.41 1.2-.63 1.62-.6 1.69-.85 1.53-1.61 1.13-.66 1.65-1 1.44-1 1.54-.25 1.89.42 1.81-.27 1.82.63 1.82-.29 1.81.07 1.83.4 1.81-.13 1.83-.16 1.82.15 2.16-2.2-.07-1.87-.51-1.84-.21-1.87.8-1.88-.34-1.87.13-1.92-.38-2.08.45.52-2-.37-1.81v-1.85l-.14-1.79.58-1.82-.17-1.82v-1.82l-.2-1.82.42-1.83-.5-1.79-1.23-1.28-.12-2-1.6-1.09-.8-1.57-.7-1.63-.95-1.53-.64-1.67-1.59-1.09-.67-1.65-.74-1.59-.92-1.5-1.05-1.43-1.17-1.37-.61-1.7-.86-1.55L159.9 1l1.68.32 1.73.08 1.74-.81 1.73.75 1.73.13 1.74-.07L172 .86h1.73l1.71.56zM11.19 60.52a4.32 4.32 0 0 0-.34.62 16.54 16.54 0 0 1-2 3.42 32.61 32.61 0 0 1 3.43 3.51l-1.04.93a25.59 25.59 0 0 0-3.17-3.5A15.45 15.45 0 0 1 3.46 69l-1-1a13.37 13.37 0 0 0 4.92-3.51 10 10 0 0 0 1.91-3.17H4.92c-.47 0-1.11.06-1.31.07V60c.24 0 .94.08 1.31.08h4.45a3.68 3.68 0 0 0 1-.12zm9.57 5.13a32.66 32.66 0 0 0-4.54-1.87v3.7a14 14 0 0 0 .1 1.54h-1.48a12.58 12.58 0 0 0 .1-1.54v-6.93a9 9 0 0 0-.11-1.34h1.48c0 .39-.09.92-.09 1.34v1.87a40.79 40.79 0 0 1 5.08 1.92zm2.38-2.41c.38 0 1.12.07 1.77.07h6.52c.58 0 1-.05 1.34-.07v1.47h-9.63zm13.77-3.74v5.88h-1.4c0-.2.06-.62.06-1V59.5zm5.54-.1c0 .31-.05.67-.05 1.1v2.14c0 2.75-.43 3.76-1.31 4.77a6.66 6.66 0 0 1-2.87 1.75l-1-1a5.6 5.6 0 0 0 2.91-1.57c.84-1 1-1.88 1-4V60.5a8.47 8.47 0 0 0-.07-1.1zm2.34 3.84c.38 0 1.12.07 1.77.07h6.51c.59 0 1.06-.05 1.35-.07v1.47h-9.63z" fill="#fff"/><path fill="none" stroke="#fff" stroke-miterlimit="10" stroke-width="2" stroke-dasharray="2 4" d="M189.02 65.13H66.77"/></g></svg>