<svg xmlns="http://www.w3.org/2000/svg" viewBox="0 0 400.79 69.88"><defs><style>.cls-1{fill:none}.cls-6{fill:#bb272d;mix-blend-mode:overlay}</style><clipPath id="clip-path"><path class="cls-1" d="M-1540.47 3.3h1280v1478.34h-1280z"/></clipPath><clipPath id="clip-path-2"><path class="cls-1" d="M-1540.47 3.3h1280v750h-1280z"/></clipPath></defs><g style="isolation:isolate"><g clip-path="url(#clip-path-2)" id="bg"><path transform="rotate(-15 -900.476 409.116)" opacity=".1" fill="#bb272d" d="M-1816.88 187.51H15.93V630.7h-1832.81z"/><path class="cls-6" transform="rotate(-15 -900.476 409.116)" d="M-1816.88 187.51H15.93V630.7h-1832.81z"/><path class="cls-6" transform="rotate(-15 -900.476 409.116)" d="M-1816.88 187.51H15.93V630.7h-1832.81z"/><path class="cls-6" transform="rotate(-15 -900.476 409.116)" d="M-1816.88 187.51H15.93V630.7h-1832.81z"/></g><g id="contents"><path d="M4.12 28.2l.59 1 1.75.59 1.37 1.11 1.51.93 1.83.07 1.59.79 1.75.22 1.72-.3 1.62-.72.59-1.64-.59-1.35-1.37-.56-1.39-.83-1.55-.21-1.68.49-1.53-1.13-1.72-.23-1.41-1-1.6-.61-1.49-.9-1.45-1.13-.55-1.74L1 19.61l.08-1.82-.66-1.71.88-1.76-.14-1.84L2.25 11V9l1-1.54 1.48-1.14 1.43-1.07 1-1.68 2-.2L10.41 2l1.89-.08 1.62-.76h1.79l1.73-.52 1.78.15L21 .14l1.77.17 1.6 1.09 1.71.25 1.71.35 1.76.33 1.53.9 1.31.87v2l-1.08 1.67-.5 1.87-.55 1.86-1.45 1.5-.26 2L27 13.69l-1.89-.55-1.7-.94-1.95-.07-1.88-.19-2 .51-1.5 1.55 1.16 1.84 2.12.11 1.76.25 1.6 1 1.79.27 1.85.18 1.69.73 1.33 1.31L30.57 21l1.54 1 .46 1.79.63 1.63 1 1.64-.34 1.94.32 1.8-.84 1.65-.18 1.79-.9 1.53-.78 1.61-1.32 1.21L29 39.88l-1.6.8-1.54.82-1.54.86-1.57.85-1.75.51-1.83-.18-1.7.79-1.79.06-1.84-.88-1.84.39-1.88-.08-1.76-.76-1.86-.25-1.89-.23L3 41.27 1.16 41l-1.27-.74.11-1.8.4-1.83 1.17-1.51.62-1.72.26-1.87L3.56 30zM36.21.89l2 .56L40 .62l1.78.73 1.8.24 1.79-.52h1.79l1.78-.18h1.79l1.79.34 1.79-.59 1.79.59 1.79.3 1.79-.76 1.8.64 1.79-.58 1.79.75 1.8-.32h1.65l-.15 1.55v1.72l.45 1.71.31 1.76-.52 1.68-.38 1.72.3 1.72.34 1.93-1.86-.7-1.7.2-1.69-.08-1.71.13-1.78-.24v3.7l.06 1.81.1 1.81.29 1.8-.57 1.81.52 1.81-.67 1.81.39 1.8.48 1.81-.35 1.81-.48 1.81.64 1.86-.8 1.81.75 1.82.07 2.14-2-.42-1.71.27-1.7-.11L53.4 43l-1.71.63-1.7.15-1.71-.58-1.71.65-1.79-.37.49-1.88v-1.82L44.82 38l.52-1.81-1-1.8.66-1.84-.38-1.81.54-1.8-.61-1.81.45-1.81-.15-1.81.48-1.81v-1.81l-.49-1.81.5-1.82-.58-1.66h-1.54l-1.71.4-1.72-.4-1.67.52-1.37-.68.09-1.36-.77-1.71.22-1.72.47-1.65-.26-1.74.31-1.72-.3-1.73zM84.3 43.07l-1.54.8-1.76-.42-1.84-.45-1.8.57-1.81-.39-1.8.6-1.81-.58-1.81-.2-1.55.24.12-1.57 1-1.56.7-1.65-.06-1.91.92-1.55.7-1.64.32-1.79.44-1.74.75-1.64 1-1.55.27-1.8.4-1.84.64-1.67.93-1.58.38-1.75 1.07-1.52.55-1.7-.22-2 1.4-1.4.47-1.74.52-1.64.69-1.66.43-1.77.28-1.81.86-1.42h1.72l1.88.15 1.88-.2 1.9-.29 1.89.53 1.88-.66 1.89.21 1.89.44 1.71-.16.93 1.37.29 1.8.87 1.6.24 1.81.64 1.68 1.25 1.46.41 1.76.49 1.73.69 1.66L106 18l.41 1.76.88 1.59.53 1.72.09 1.87 1.31 1.44L110 28l.52 1.72.51 1.73.09 1.87.62 1.69.45 1.75.8 1.62 1.21 1.48v1.94l.61 1.45-1.57.34-1.8-.44-1.8.09-1.8-.21-1.81.5-1.8.27h-1.83l-1.81-.8-1.74.34-.11-1.78-.89-1.64-.47-1.75-1.93.28-1.93.16-1.93-.82-1.93-.07h-1.93l-1.87.5-.46 1.67-.08 1.87zM95 28.35l-1.23-2v-4l-1-1.73v-1.85l-.92-1.71L92 15h-1l-.33 2 .12 1.95-.79 1.71-.52 1.81.27 2-.77 1.77-.49 1.94 2.15-.25 2.07-.15zM119.66.88l2 .41 1.76.19 1.77-.71 1.81.06 1.77.23 1.77-.35 1.76.1 1.77.42 1.76-.56 1.77.65 1.77.07 1.76-.48 1.77.51 1.77-.63 1.73.21h1.83l.25 1.79-.09 1.73.12 1.73-.64 1.75v1.73l.64 1.74-.39 1.71-1.81.33-1.83-.73-1.83.55-1.8-.33-1.83.16-1.84.59-2.18-.86.8 2.51-.6 2.35 2.06-.49h1.87l1.88.36 1.87-.2 1.88-.12 1.79.39-.25 1.74.24 1.83-.17 1.83.57 1.83-.05 1.84-.16 1.92h-2l-1.88-.18-1.87.24-1.87-.26-1.88-.08-1.84.28.1 1.8.26 1.85-.34 1.85.19 1.82.15 1.85-.57 1.85-.31 1.86.17 1.57-1.4.74-1.72-.5-1.71-.1-1.72.54-1.72-.29-1.71-.17-1.72.23-1.73-.23-1.53-.11-.32-1.66-.22-1.84.69-1.83-.23-1.86.09-1.84.33-1.83-.31-1.84-.54-1.84.26-1.84.34-1.83-.17-1.84.09-1.84v-1.84l-.51-1.84.15-1.84-.16-1.83v-1.84l.13-1.84.06-1.85-.16-1.83-.18-1.85.58-1.85zm32.48.43l1.54-.31 1.77.48 1.76-.68 1.77.63h1.77l1.76-.59 1.77.7L166 .6l1.77.79 1.76-.47 1.77.41 1.77-.39h1.77l1.77.07 1.81-.41 1.89.38-.6 1.84.53 1.73-.49 1.73.89 1.72-.75 1.73.71 1.74-.23 1.92-2-.5-1.83-.07-1.83.69-1.83.12-1.83-.45-1.84-.08-1.66.25.3 2-.46 2.17 1.86.44 1.87-.57 1.87.64 1.88-.25 1.88-.5 1.65.49v1.6l-.22 1.83.72 1.83-.56 1.83.75 1.84-.55 1.75-1.78.16-1.88-.51-1.87.68-1.88-.56-1.88.76-1.79-.36.26 1.76-.1 1.85-.48 1.85.28 1.85-.34 1.85v1.85l.18 1.86-.14 1.62-1.46.3-1.71.3-1.72-.49-1.71.42-1.72.07-1.72-.71-1.72.67-1.72-.21-2 .28v-2.18l.64-1.84-.66-1.83.08-1.84.38-1.84-.49-1.83.59-1.84-.18-1.84.08-1.84-.58-1.86.31-1.84-.19-1.84.11-1.84.62-1.84-.35-1.81V14l-.44-1.83.2-1.84-.24-1.85.57-1.83-.17-1.85V2.95zM219.79 40l-1.58 1.17-1.72.51-1.36 1.32h-1.88l-1.72.27-1.65.74-1.77.06-1.77.27-1.86-.23h-1.89l-1.89-.21-1.68-1-1.8-.5-1.6-1-1.44-1.18-1.65-.93-.81-1.73L191 36l-.64-1.67-.84-1.7.15-1.86.1-1.78.08-1.87 1.22-1.41.86-1.62 1.27-1.35 1.86-.45 1.63-.68 1.45-1.36h2.06l-1.8-1.06-.92-1.66-.75-1.69-.93-1.65.12-1.89.39-1.77-.09-1.9 1.37-1.35 1-1.41 1.26-1.2 1.32-1.17 1.55-.9 1.7-.6L206 .78l1.83-.23 1.78-.25 1.83.33h1.77l1.73.44 1.69.47 1.91-.12L220 2.69l1.89.31 1.51 1 1.39 1.23.8 1.7.25 1.83 1.41 1.47-.25 1.92-.34 1.76-.72 1.61-.77 1.55-.66 1.66-1.36 1.15-1.15 1.41-1.56.92-1.39.31 1.23 1.15 1.21 1.33 1.09 1.36 1.31-.94 1.54-1 1.2-1.4 1.37-1.3 1-1.59 1.25 1.22 1.28 1.17 1.19 1.26 1.07 1.35 1.1 1.35 1.29 1.17 1 1.63-1.39 1.21-1.46.8-1.63.58-.91 1.55-1.92.84 1.54 1.62 1.93.73 1.26 1.45 1.51 1.18 1.35 1.35 1.35 1.41 1.74 1.54-2.2.14-1.76-.18h-1.76l-1.77.22-1.76.18-1.76-.11-1.77-.21L226 43l-1.77.16-1.8.28-1.36-1.66zm-13.41-13.12l-1.73 1.57-1.15 1.87 1.12 1.54 1 1.54 1.91.47 2-.81 2-.65-1.48-1.16-1.21-1.45-1.49-1.2zm3.11-14.51l.94 1.85 1.33 1.78 1.08-1.49 1.53-.74.67-1.63-1.12-1.6-1.53-.84-1.74.95zm69.41 5.96l-1.47-1.28-1.19-1.31-1.7-.53-1.5-.88-1.73-.2-1.7-.49-1.92.19-1.55 1.24-1.87.5-1.36 1.35-.8 1.73-.46 1.79-.17 1.81.27 1.81.42 1.81 1.15 1.47 1.4 1.2 1.59.89 1.76.42 1.77.91 2-.09 1.86-.81 1.82-.8 1.61-1.17 1.08-1.19.72 1.63-.82 1.73.36 1.77.27 1.76-.29 1.76-.05 1.75v1.76l-.37 1.76-.35 1.65-1.36.56-1.7.9-1.85.27-1.86.1-1.88-.31-1.84.21-1.76-.11-1.81.14-1.62-.64-1.67-.59-1.75-.4-1.52-.94-1.57-.82-1.42-1-1.44-1.05-1.18-1.34-1-1.46-1.36-1.22-.68-1.66-1-1.49-.62-1.68-.45-1.74-.69-1.7.14-1.83.2-1.78v-1.83l.52-1.77v-1.84l.37-1.81 1.12-1.59.51-1.77.46-1.88 1.32-1.34 1.64-1 .87-1.7 1.2-1.39 2-.38 1.38-1.2 1.4-1.35 1.77-.6 1.79-.49 1.86-.13L266 0l1.87.78 1.78-.78 1.68.9 1.85-.54 1.68.64 1.76.25 1.82.81-.53 1.94.09 1.74.31 1.78-.3 1.8v1.79l.33 1.78.26 1.78.44 1.76zm19.22 25l-1.75-.22-1.8.16-1.8-.17L291 43l-1.81.21-1.8.45-1.81.15-1.81-.87-2.09.69.4-2.06 1.28-1.44.72-1.65-.08-1.94.94-1.56.28-1.8.85-1.6.41-1.75 1-1.56.22-1.82.28-1.8.78-1.62.74-1.64 1.14-1.5.25-1.81.28-1.79.95-1.57-.12-1.92 1.29-1.45v-1.9l1.4-1.45-.24-2 1.08-1.52.59-1.7.26-2.06 2.11.68 1.88.05 1.88-.45 1.88-.34 1.89.75h1.88l1.89-.66 1.89.22h2l.92 1.69-.18 2L315.77 6l-.16 2 1.09 1.5v1.89l1.21 1.48.45 1.74.2 1.83 1.19 1.49.16 1.85.62 1.68.39 1.77.84 1.6.57 1.71.86 1.6.68 1.66.69 1.66.71 1.65.39 1.77.47 1.75.94 1.57.37 1.78.49 1.74.36 1.45-1.48.64-1.81-.21-1.8-.23-1.8-.2-1.81.13-1.8.17-1.81.28-1.81-.68-1.72.21-.63-1.62-.1-1.86-1-1.37-1.71-.58h-3.86l-1.93-.16-1.93.44-2.08-.16-.7 1.84-.17 1.82zm10.25-15.2l-.24-2-.6-1.83-.29-1.9-.31-1.9-.61-1.74-.76-1.76-.31-1.58-.74-.51.38 2.14-.26 1.95-1.12 1.69-.51 1.77.25 2-.77 1.76-.13 1.71 1.87.2 2.05-.18zm27.57 0l1 .57 1.06 1.51 1.93.21 1.49.84 1.6.6 1.62.64 1.73-.07 1.61-.24 1.63-.45.47-1.53-.29-1.44-1.48-.38-1.39-.78-1.52-.42-1.63.25-1.56-.88-1.77-.08-1.65-.58-1.38-1.07-1.68-.71-.83-1.63-1.09-1.35-.81-1.58-.5-1.71.1-1.77.07-1.81.47-1.76.74-1.63.77-1.59.47-1.82 1.71-.9 1.08-1.41 1.48-1L340.75 3l1.61-.79 1.83-.21 1.65-.62 1.73-.33 1.69-1 1.82-.14 1.78.14 1.79.13 1.67.76h1.81l1.48 1.17 1.74.35 1.49 1 2 .71-1 1.78-.42 1.91-1.3 1.56-.16 2-.52 1.88-.93 1.78-1.77-1.17-1.54-1.26-1.95-.36-2 .09-1.84-.18-2 .37L348 14l1.09 1.86 2.09.23 1.68.67h1.83l1.81.29 1.68.75 1.37 1.3 1.79.49 1.47 1.09 1.43 1.22.36 1.91 1 1.56-.07 1.86L366 29v1.78l-.59 1.7-.4 1.72-.5 1.8-1.23 1.35-1.52 1L361 40l-1.4 1.15-1.84.37-1.55.82-1.71.42-1.59.92h-1.81l-1.77-.12-1.73.46-1.88.07-1.84-.38-1.88-.24-1.8-.5-1.85-.26-1.76-.63-1.87-.31-1.6-1-1.5-.55.43-1.7.24-1.87.93-1.6.64-1.72.89-1.62.71-1.7zM368.11.93l1.95.43 1.79-.36 1.79-.3h1.79l1.79.11h1.79l1.79.19h1.79l1.8.29 1.78-.29H388l1.78.48 1.8-.69 1.79.62 1.79-.32 1.8.44 1.8-.85 1.58.68.58 1.48-.37 1.72-.55 1.68.57 1.76-.26 1.72.09 1.72.19 1.72v1.74l-1.72-.07-1.67-.3-1.71.22-1.7.08-1.93-.59.05 2.05.59 1.81-.25 1.81.22 1.81-.41 1.8.09 1.81-.15 1.77.38 1.81-.06 1.8-.51 1.81.63 1.81-.38 1.81V38l-.17 1.81.41 1.82-.17 1.88-1.77.11-1.7-.63-1.7.26-1.71.34h-1.7l-1.71-.45-1.7-.12-1.71.54-1.89.07.15-2-.14-1.81.31-1.81.29-1.81-.16-1.8-.11-1.81.17-1.81-.55-1.8.23-1.81-.46-1.81.9-1.81-.17-1.85-.62-1.81v-1.81l.53-1.82v-2l-1.91-.02-1.67.49-1.72-.54-1.68.5-1.45-.1-.62-1.47.41-1.71-.27-1.72.27-1.69.08-1.72.32-1.72-.22-1.73zM10.34 60.7a3.29 3.29 0 0 0-.35.63 16.54 16.54 0 0 1-2 3.42 31.67 31.67 0 0 1 3.43 3.52l-1.06.94a25.64 25.64 0 0 0-3.14-3.51 15.4 15.4 0 0 1-4.62 3.45l-1-1a13.63 13.63 0 0 0 4.93-3.52 10 10 0 0 0 1.91-3.17H4.07c-.47 0-1.12.06-1.31.07v-1.37a11.78 11.78 0 0 0 1.31.08h4.44a3.42 3.42 0 0 0 1.05-.12zm11.66.4a6.34 6.34 0 0 0-.34.74A12.74 12.74 0 0 1 20 65.29c.44.29.85.55 1.15.77l-.84 1.1c-.29-.24-.68-.52-1.14-.84a11.35 11.35 0 0 1-4.57 3.12l-1.09-1a10.21 10.21 0 0 0 4.62-2.84c-.89-.58-1.81-1.14-2.46-1.5l.79-.91c.67.35 1.6.88 2.47 1.41a10.13 10.13 0 0 0 1.42-2.92H16.5a13.39 13.39 0 0 1-3.16 3.12l-1-.78A10.79 10.79 0 0 0 16.15 60a4.44 4.44 0 0 0 .45-1.08l1.37.43a12.22 12.22 0 0 0-.61 1.06l-.15.26h2.92a3 3 0 0 0 .9-.13zm3.34 4.02l-1.14.42a25.22 25.22 0 0 0-1.09-2.74l1.13-.41c.27.61.87 2.08 1.1 2.73zm6.07-2.58a7 7 0 0 0-.23.72 9.81 9.81 0 0 1-1.68 3.62 9.33 9.33 0 0 1-3.95 2.9l-1-1a8.1 8.1 0 0 0 3.93-2.53 8.39 8.39 0 0 0 1.6-4.11zM28 64.38l-1.13.41a20.67 20.67 0 0 0-1-2.65l1.13-.37c.24.51.83 2.08 1 2.61zm13.45-3.58a3.29 3.29 0 0 0-.22.69 11.81 11.81 0 0 1-1.78 4.41 9.32 9.32 0 0 1-4.78 3.26l-1-1.13a7.93 7.93 0 0 0 4.68-2.86 8.17 8.17 0 0 0 1.5-3.69h-5.91c-.51 0-1 0-1.29.05v-1.34a12.64 12.64 0 0 0 1.29.09h5.82a3.2 3.2 0 0 0 .77-.08zm8.85 8.14a13.27 13.27 0 0 1-1.61-1.13A3.63 3.63 0 0 1 46 68.93c-1.85 0-2.95-1-2.95-2.44 0-1.19.87-1.88 1.83-2.48a3.64 3.64 0 0 1-.77-2.01 2.07 2.07 0 0 1 2.18-2.18 1.83 1.83 0 0 1 2 1.86c0 1.18-.92 1.88-1.87 2.51a22.3 22.3 0 0 0 2.14 2 5.18 5.18 0 0 0 .86-2.19h1.24a8 8 0 0 1-1.18 2.89 11.73 11.73 0 0 0 1.46 1zm-4.2-1.09a2.56 2.56 0 0 0 1.71-.79 24.17 24.17 0 0 1-2.35-2.27c-.66.46-1.19 1-1.19 1.65 0 .92.73 1.41 1.83 1.41zm-.26-4.45c.78-.48 1.41-1 1.41-1.71a.9.9 0 0 0-.93-1 1.05 1.05 0 0 0-1.09 1.17 2.74 2.74 0 0 0 .61 1.54zm16.32 1.71c-.28 0-.71.11-1.16.18-.63.1-1.68.26-2.8.45.22 1.08.38 2 .46 2.3s.19.77.31 1.13l-1.38.24c-.06-.42-.1-.8-.17-1.16S57.19 67 57 65.93c-1.31.21-2.52.42-3.08.53s-.85.15-1.12.22l-.27-1.28c.3 0 .8-.07 1.14-.12l3.1-.48-.42-2.21-2.53.41c-.4.07-.71.14-1 .21l-.25-1.32c.34 0 .67 0 1-.08s1.44-.19 2.53-.36c-.12-.6-.2-1-.23-1.2-.08-.33-.15-.6-.24-.87l1.37-.2c0 .22.07.6.13.86s.11.6.23 1.23c1.09-.18 2.11-.35 2.58-.45a8.5 8.5 0 0 0 1-.23l.23 1.27-1 .13-2.62.4.42 2.2c1.17-.19 2.23-.37 2.81-.48s.85-.18 1.13-.26zm6.59 1.03a11.35 11.35 0 0 0 1.93-2.34l-3.26.66c.47 1.7 1 3.7 1.2 4.27.06.21.2.66.28.89l-1.29.32a6.94 6.94 0 0 0-.19-1c-.17-.59-.71-2.61-1.15-4.29l-2.37.49-.28-1.14c.34 0 .66-.07 1-.13l1.38-.2c-.14-.57-.28-1-.35-1.28a3.16 3.16 0 0 0-.31-.76l1.28-.32c0 .24.11.53.18.83l.36 1.31c1.62-.31 3.5-.67 3.93-.77a2 2 0 0 0 .52-.16l.77.54a17.61 17.61 0 0 1-2.57 3.61zM82 60.7a3.29 3.29 0 0 0-.35.63 16.54 16.54 0 0 1-2 3.42 31.67 31.67 0 0 1 3.43 3.52l-1.08.94a26.19 26.19 0 0 0-3.16-3.51 15.53 15.53 0 0 1-4.62 3.45l-1-1a13.63 13.63 0 0 0 4.93-3.52 10 10 0 0 0 1.9-3.17h-4.4c-.46 0-1.11.06-1.3.07v-1.37a11.75 11.75 0 0 0 1.3.08h4.45a3.42 3.42 0 0 0 1-.12zm9.51 5.14A32.54 32.54 0 0 0 87 64v3.71a14.06 14.06 0 0 0 .09 1.54H85.6a12.63 12.63 0 0 0 .09-1.54v-6.97a7.84 7.84 0 0 0-.11-1.35h1.48c0 .4-.08.93-.08 1.35v1.87a42.91 42.91 0 0 1 5.07 1.92zm309.12.48h-2v-2h2zm-6 0h-2v-2h2zm-6 0h-2v-2h2zm-6 0h-2v-2h2zm-6 0h-2v-2h2zm-6 0h-2v-2h2zm-6 0h-2v-2h2zm-6 0h-2v-2h2zm-6 0h-2v-2h2zm-6 0h-2v-2h2zm-6 0h-2v-2h2zm-6 0h-2v-2h2zm-6 0h-2v-2h2zm-6 0h-2v-2h2zm-6 0h-2v-2h2zm-6 0h-2v-2h2zm-6 0h-2v-2h2zm-6 0h-2v-2h2zm-6 0h-2v-2h2zm-6 0h-2v-2h2zm-6 0h-2v-2h2zm-6 0h-2v-2h2zm-6 0h-2v-2h2zm-6 0h-2v-2h2zm-6 0h-2v-2h2zm-6 0h-2v-2h2zm-6 0h-2v-2h2zm-6 0h-2v-2h2zm-6 0h-2v-2h2zm-6 0h-2v-2h2zm-6 0h-2v-2h2zm-6 0h-2v-2h2zm-6 0h-2v-2h2zm-6 0h-2v-2h2zm-6 0h-2v-2h2zm-6 0h-2v-2h2zm-6 0h-2v-2h2zm-6 0h-2v-2h2zm-6 0h-2v-2h2zm-6 0h-2v-2h2zm-6 0h-2v-2h2zm-6 0h-2v-2h2zm-6 0h-2v-2h2zm-6 0h-2v-2h2zm-6 0h-2v-2h2zm-6 0h-2v-2h2zm-6 0h-2v-2h2zm-6 0h-2v-2h2zm-6 0h-2v-2h2zm-6 0h-2v-2h2z" fill="#fff"/><path opacity=".17" fill="none" d="M0 0h400.79v69.88H0z"/></g></g></svg>