<svg xmlns="http://www.w3.org/2000/svg" viewBox="0 0 598 45"><path d="M47.29 19l.09 1.33.45 1.78-.13 1.77-1 1.67.19 1.78-.28 1.74-.27 1.77-.92 1.55-.65 1.66-1.65 1-1 1.44-1.26 1.28-1.4 1.12-1 1.71-1.89.4-1.75.52-1.51 1-1.64.88-1.92-.22-1.66 1-1.88-.48-1.78.9-1.77-.8-1.74-.34-1.83.28h-1.85l-1.52-1.18h-1.94l-1.52-1L11 40.24l-1.82-.47-1.33-1.2L7 36.93 5.61 35.8l-1.52-1.11-.39-1.85-.79-1.58-1.2-1.47L1.46 28 1 26.23l.35-1.84-.21-1.77.43-1.79.08-1.83v-1.83l.9-1.63-.18-2 1.19-1.46.87-1.59.67-1.68 1.23-1.37 1.43-1.15 1.58-.93 1.18-1.48 1.79-.53 1.75-.5 1.65-.68 1.71-.49 1.63-1 1.82-.2 1.83.11 1.81-.43 1.75.33 1.81-.23 1.61 1.06 1.64.55h1.81l1.79.26 1.36 1.29 1.85.26 1.39 1.12 1.56.88 1.11 1.42 1.48 1.06.63 1.73 1 1.53-1.67 1-1.9.37-1.73.88-1.84.55-1.78.78-1.74.78-1.85.52-1.9.38-1.28-1.12-1-1.6-1.79-.36-1.75.16-1.86-.39-1.77.62-1.22 1.45-1.22 1.2-.93 1.48-1.16 1.47.18 1.89-.09 1.76-.7 2 .56 1.92 1.35 1.49 1.3 1.35L21 31l1.66.68 1.79.77 1.83-.75 1.86-.37 1.86-.82.8-2.3-1.88-.09-1.72.88-1.74-.63-1.94.4.6-1.88v-1.67l-.8-1.66.38-1.67.48-1.67-.28-1.44 1.62-.38 1.82-.31 1.82.77 1.84-.67 1.82.37 1.82-.06 1.82.46 1.83-.52 1.82-.25 1.82.09 1.83-.13 1.85.26zm51.38 3.45v3.64l-1.16 1.6-.41 1.71v1.92l-1 1.51-1.1 1.42-1.2 1.31-.86 1.59-1.28 1.24-1.09 1.54-2 .27-1.42 1.07-1.73.45-1.53.94-1.64.74-1.8.16-1.77.13H76.9l-1.79.31-1.81.54-1.7-1-1.91.63L68.1 43l-1.75-.34-1.64-.66-1.87-.23-1.35-1.28-1.48-1-1.69-.78L57 37.46 55.85 36l-.57-1.8-.77-1.59-1.26-1.38-.42-1.76-.21-1.78-.9-1.66.53-1.85-.72-1.76.25-1.8.37-1.76.62-1.69-.17-1.9 1.1-1.5.84-1.56.31-1.9 1.39-1.23.89-1.62 1.69-.83 1.31-1.2 1.35-1.19 1.42-1.11 1.64-.77 1.87-.14L68 1.3l1.85.07 1.65-1 1.85.5 1.76-.23 1.77.2 1.8-.07 1.8.09 1.69.66L83.9 2l1.8.35 1.54 1 1.64.76 1.31 1.28 1.19 1.31L92.54 8l1.17 1.3 1.22 1.3 1 1.47.81 1.6.26 1.85.84 1.61.16 1.78.13 1.77zm-31.27.22l.22 1.77.64 1.64.17 2 1.36 1.35 1.91.38 1.61.82 1.8.41H77l1.66-.94 1.55-1 .84-1.62 1.66-1.14.3-1.87.5-1.85-.51-1.79-.76-1.69-.7-1.71L80.36 16l-1.53-1.15L77 14.4l-1.86.4-1.91-.67-1.44 1.45-1.94.42-1.15 1.44-1 1.59v1.9zm44.78-21.31l1.59-.45 1.79.53 1.79.21 1.8-.36 1.79.36h1.79l1.79-.81 1.8.61 1.79-.45 1.79.25 1.79.17 1.79-.29 1.8-.27 1.79-.16 1.79.58 1.8.13 1.8-.57 1.52.62.15 1.42.39 1.72-.4 1.71L144 8l.52 1.72v1.72l-.1 1.73.11 2-1.95-.67-1.68-.18-1.72.46-1.68-.39-1.5.31-.65 1.64.33 1.81.13 1.81-.15 1.81-.18 1.81.42 1.81-.35 1.81v1.81l.7 1.81-.39 1.81-.18 1.81v1.81l-.18 1.81-.18 1.82.16 1.82v1.6l-1.47.29h-1.71l-1.7-.2-1.7.17-1.71.44-1.7-.05-1.71.07-1.71-.63-2 .41.54-2.08-.18-1.81-.28-1.81v-1.81l.54-1.81-.4-1.82-.1-1.81v-1.8l.26-1.81-.15-1.81v-1.81l.34-1.82.11-1.81-.44-1.81.46-1.82-.48-1.7-1.58-.28-1.69-.1-1.68.37-1.67.67-1.65-.46-.47-1.65.27-1.71.18-1.73-.23-1.72.26-1.72V4.61l.06-1.72zm82.71 21.09l.31 1.8-.37 1.75-.58 1.7-.39 1.72-.11 1.87-.84 1.6-1 1.49-1.3 1.25-.65 1.82-1.78.73-1 1.61-1.63.81-1.46 1.09-1.59.89-1.74.51-1.92-.09-1.58 1.13-1.89-.47-1.76.31-1.78-.28-1.8.59-1.73-.69-1.81.08-1.78-.24-1.71-.65-1.7-.56-1.56-.9-1.36-1.18-1.46-1-1.39-1.07-1.43-1.06-1.3-1.23-1.34-1.26-.7-1.69-.42-1.78-.53-1.68-.33-1.73-.72-1.64-.25-1.78-.39-1.79-.12-1.81.38-1.8 1.06-1.62-.33-2 .78-1.65 1.42-1.31.62-1.69.6-1.79 1.28-1.3 1.41-1.15 1.78-.64 1.33-1.18 1.44-1.07 1.41-1.22 2 .1 1.7-.48 1.67-.63 1.73-.47 1.72-.2 1.79-.14 1.81.62 1.86-.66 1.74.56 1.8.1 1.58 1 1.53 1 1.78.39 1.56.9 1.5 1 1.57.95.93 1.63 1.4 1.13.91 1.56 1.07 1.44.51 1.74.56 1.69.28 1.76.78 1.66.36 1.77zm-31.27.22l.53 1.81.35 1.8.7 1.76 1.38 1.31 1.82.51 1.66.61 1.77.31 1.87.15 1.49-1.22 1.91-.35.8-1.74 1.1-1.42.29-1.77V19l-1.53-1.21-.68-1.79-1.66-.88-1.68-.93-1.91.45-1.89-.34-1.64.94-1.44 1.1-1.36 1.2-.83 1.62-.67 1.67zM303.24 1.44l1.48-.64 1.77.19 1.76.35 1.75-.17 1.76.17 1.77.31 1.77-.87 1.76.41h1.77l1.78-.47 1.77.65h1.74l1.78-.24 1.74.33 1.61.78h1.86l1.47 1.07 1.26 1.25 1.76.65 1.21 1.35.82 1.61.75 1.6.7 1.63.17 1.78.63 1.7.09 1.79-.31 1.89-.21 1.88-1.14 1.62-.13 2-.91 1.68-1.27 1.4-1.38 1.33-2 .34-1.61.85-1.68.9h-1.88l-1.86.35-1.95.31-2-.71-2 .56-1.86-.21-.34 1.7-.24 1.82.73 1.82-.03 1.8-.45 1.82.46 1.83-.2 1.78-1.81.45-1.84-.46-1.85-.14-1.85.43-1.85-.34-1.85.42-1.85.09-1.61-.65.05-1.6-.33-1.83-.21-1.8.71-1.84-.36-1.84-.56-1.84.43-1.84-.46-1.84.87-1.84-.34-1.84-.38-1.84.6-1.84-.69-1.84.59-1.85-.1-1.83v-1.85l.28-1.84-.38-1.84.19-1.84-.32-1.84.11-1.85.55-1.81zm14.2 18.9l1.82-.61 1.92.07 2-.2 1.3-1.49.58-1.9-.21-2.08-2-.56-1.7-.79-1.9-.12-1.15.32-.56 1.59.1 1.84.41 1.86zm28.21-18.98l1.48-.64 1.71.91 1.7-.42 1.71.2 1.7.24 1.71-.09 1.71-.84 1.71.21 1.52.4-.24 1.67.63 1.8-.14 1.8-.42 1.79.58 1.8-.27 1.8.49 1.79-.33 1.8.35 1.79-.56 1.8.33 1.8-.12 1.8-.32 1.79-.07 1.8-.05 1.81.43 1.7 1.73-.24h1.84l1.84.18 1.84.25 1.84.31 1.85-.34 1.64.22.26 1.47-.41 1.69.11 1.7v1.7l.26 1.7-.13 1.7.52 1.7-.57 1.56-1.63-.12-1.76-.07-1.76.46-1.77-.34-1.76.1-1.77-.26-1.76.19-1.76.29-1.77.31-1.77-.32-1.76-.54-1.77.73-1.77-.2-1.7-.19-1.78.27-1.7-.33-.05-1.78-.36-1.83.26-1.84.53-1.84-.37-1.84.25-1.84-.46-1.84-.05-1.84.31-1.84-.58-1.84.42-1.84.37-1.84-.47-1.84-.21-1.85.73-1.83-.65-1.85.56-1.84-.26-1.84.39-1.84-.44-1.84-.07-1.85V3zm51.14 42.55h-2.11l-1.8-.56-1.8.26-1.81-.13-1.8.33-1.81-.42-1.81-.18-1.81.2h-1.65v-1.73L381 40l.74-1.64.87-1.6.8-1.61.64-1.67-.05-1.94.91-1.58.45-1.74.7-1.65.86-1.6.28-1.8.77-1.63.28-1.8 1.06-1.53.7-1.65-.24-2 .82-1.62.84-1.61.36-1.77 1.11-1.52-.05-1.91.79-1.63.46-1.75.8-1.69 1.94.21 1.88.12 1.89-.13 1.88-.05 1.89-.13 1.88-.34 1.89.67L410 .94l1.71.49.5 1.52 1.28 1.45.31 1.8.59 1.7.2 1.83.57 1.7 1.3 1.44-.16 2 1.32 1.44.24 1.82.5 1.73.53 1.72.74 1.64 1.16 1.5-.07 1.93.74 1.65.39 1.77 1.23 1.47.37 1.77.39 1.77.52 1.73.65 1.68 1.14 1.51.45 1.76.18 1.66-1.61-.29-1.81.69-1.8-.31-1.8-.45H418l-1.8.17-1.81.06-1.81.65-1.71-.52-.9-1.54-.44-1.77-.1-1.93h-2l-1.98-.18-1.93.37-1.93-.31-1.94.31-1.79.07-.11 1.67-.51 1.7zm9.46-16.06l-.45-1.44.09-2-.7-1.81-.32-1.9-.72-1.7.08-1.9-.2-2-.86.17-.5 1.85.24 2-.41 1.84-.5 1.73-.69 1.79-.63 1.8-.39 2.1 2.27-.6 2.06.34zM439.94.77l.7 1.85.2 1.78L442 5.79l.23 1.77.44 1.68 1.33 1.31.78 1.44.41.53-.1-2.46 1.15-1.84.37-1.94.95-1.68 1.08-1.6.86-1.5 1.5-.75 1.72.68 1.72-.58 1.72.1 1.73.34 1.73.11 1.72-.56 1.73.19 1.73.19h1.6l-.87 1.37-.78 1.58-.64 1.67-.88 1.51-1.31 1.27-.48 1.76-1.44 1.17-.8 1.56-.94 1.49-.83 1.55-1.06 1.41-1 1.47-.89 1.51-.6 1.7-1.14 1.37-.43 1.72-.41 1.75-.11 1.82.33 1.83v1.82l-.12 1.82.08 1.83.46 1.82-.94 1.83.17 1.83v1.54l-1.59.48-1.88.1-1.87-.53h-1.88l-1.87-.16-1.88.4h-1.88l-1.8-.09-.23-1.73.53-1.82-.6-1.82-.08-1.82-.1-1.83.09-1.83.14-1.82v-1.83l.19-1.83.34-1.94-1.4-1.32-.57-1.72-.92-1.51-1-1.47-.89-1.52-.69-1.61-1.61-1.08-.51-1.76-.81-1.56-1-1.49-.87-1.54-1.22-1.33-.51-1.74-1.22-1.32-.82-1.58-1-1.39 1.65.29 1.73-.73 1.74.44 1.73.29L431 .71l1.74.67h1.73L436.2 1l1.79.55zm32.14.13l2 .73 1.7-.14 1.71-.16 1.7-.38 1.71.44 1.7.2 1.71-.77 1.71.66 1.53-.14.31 1.66.11 1.8v1.8l-.38 1.79-.28 1.8.55 1.8-.5 1.79v1.8l.69 1.79-.13 1.8-.44 1.8-.06 1.8.53 1.79-.37 1.8.25 1.81.12 1.51 1.55.51 1.84.07 1.84-.16 1.84-.19 1.84.47 1.85-.7 1.71.44.45 1.55.06 1.69.08 1.7-.28 1.7.13 1.7-.49 1.7.19 1.7.27 2-2-.33h-1.76l-1.76-.53-1.76.66-1.77-.36-1.78-.11-1.76.12-1.74.69-1.77-.21-1.76-.2-1.77-.1-1.76.16-1.77.25-1.77-.83-1.77.58-1.76-.15.37-1.83-.13-1.83-.68-1.84.17-1.84-.23-1.84.6-1.84-.6-1.84.51-1.84L472 27l-.17-1.84.34-1.84v-1.84l-.11-1.84.59-1.85-.6-1.83.63-1.85-.21-1.84-.22-1.84.29-1.84-.51-1.84.3-1.85-.12-1.9zm35.72.34l1.62-.42 1.7.44 1.71-.26 1.7.09 1.71-.09 1.7-.2 1.71.81 1.71-.44 1.55.13L523 3l.57 1.84-.23 1.83-.18 1.84.26 1.84-.81 1.84.56 1.84.21 1.84v1.84l-.18 1.84-.09 1.85-.51 1.84.8 1.84-.8 1.84v1.84l.65 1.84-.5 1.84.33 1.84-.26 1.85-.07 1.87.06 1.85.52 1.85-.33 1.71-1.59.27-1.7.12-1.7-.71-1.71.61-1.71-.59-1.7.89-1.71-.18-1.71-.65-1.41.07-.16-1.57v-1.83l-.54-1.84.67-1.84.15-1.84v-1.84l-.18-1.84-.58-1.84.1-1.84.35-1.84-.13-1.84-.11-1.84.1-1.84.38-1.85-.78-1.83.05-1.85.06-1.84-.15-1.84V8.55l.39-1.84-.41-1.85.16-1.86zm24.59 27.43l.82-.06 1.35 1.08 1.49.86 1.34 1.22 1.54 1 1.85-.09 1.74.35 1.67-.51 1.72-.49.48-1.71-.39-1.48-1.55-.18-1.37-.87-1.56-.15-1.5-.53h-1.76l-1.77-.22-1.26-1.44-1.42-.89-1.36-1-1.24-1.14-1.47-1.13V19.4l-.5-1.61-.64-1.69.49-1.78.49-1.72-.07-1.9L531 9.48l.85-1.48.64-1.79 1.27-1.3 1.58-.91 1.66-.76 1.34-1.36 1.75-.52 1.7-.67 1.87.11 1.78-.19 1.79-.5 1.77.62h3.56l1.61.88 1.83-.09 1.67.66L559 3.47l1.26.69-.52 1.77-.54 1.86-.91 1.72v2.08l-.69 1.81-1.21 1.6-1.62-.81-1.77-.72-1.68-.9-1.81-.64-1.93-.53-2.32.6-.76 2.08.85 1.65h2.11l1.67.72 1.66.71 1.81.22 1.58.93 1.9.22 1.23 1.44 1.69.79 1.4 1.25.34 1.92.44 1.7.45 1.71.48 1.77-.18 1.77-.12 1.79-.89 1.58-.43 1.75-.88 1.58-1.1 1.42-1.68.8-1.09 1.55-1.79.48-1.52 1-1.81.19L549 44l-1.8.12-1.75.48-1.79-.69h-1.86l-1.92.49-1.77-.9-1.78-.53-1.85-.27-2 .09-1.48-1.22-1.88-.32-1.45-.92.12-1.86.82-1.65 1.11-1.54v-2l1.21-1.5.89-1.59zm32.33-27.21l1.5-.15 1.79.24 1.79-.4 1.79-.38 1.79.58 1.8.12L577 1l1.79.2 1.79.09 1.79-.45 1.8.2 1.79.16 1.76-.2 1.8.15 1.79.17 1.8-.58 1.8.46 1.82-.05-.11 1.74.38 1.71v1.71L596.47 8v1.72l-.23 1.72v1.73l.33 1.65-1.57-.13-1.68-.09-1.69-.21-1.7-.05-1.58.31-.21 1.69v1.81l-.3 1.85.55 1.81.26 1.81-.08 1.81-.22 1.81v1.81l.31 1.81-.66 1.77.61 1.81-.75 1.81.39 1.81.3 1.82.25 1.82-.85 1.49-1.35.32-1.71.41-1.7-.73-1.76-.19-1.7.74-1.73-.09-1.71-.54-1.71.74-1.74-.3.39-1.84-.57-1.81-.12-1.81.08-1.81.68-1.81-.91-1.82.81-1.81.14-1.8-.05-1.81-.89-1.81 1-1.81-.27-1.82.18-1.81v-3.63l-.35-1.9-1.75.62-1.72-.6-1.67.61h-3.61l.1-1.94v-1.71l.12-1.72-.4-1.72.74-1.72-.68-1.72.52-1.71z"/><path fill="#e71c24" d="M287.5 40.51l-.44 1.77-1.07 1.69-1.99.67-1.82.31-1.82-.9-1.82.14-1.82.14-1.82.5-1.82-.22-1.82-.55-1.82.62-1.82-.4-1.82.02-1.82-.08-1.81-.06-1.82.32-1.81.03-1.82.01-1.82-.23-1.82.24-1.82.47-1.82-.42-1.81.22-1.83-.37-1.82-.1-1.82-.25-1.82.55-1.82.03-1.82.33-1.82-.39-1.82.07h-1.83l-1.82-.26h-1.82l-1.82.27-1.82-.4-1.83.57-1.82-.18-1.83-.04-1.82-.27-1.83-.24-1.83.28-2.18-.12-1.38-1.72-.18-2.05-.42-1.8.55-1.8v-1.79l-.08-1.8-.21-1.8-.51-1.8.82-1.8-.26-1.8.24-1.79-.41-1.8-.37-1.8.58-1.8.11-1.8-.51-1.8.19-1.8.09-1.8-.45-1.8.2-1.8.17-1.81-.17-1.81.69-2.01 1.56-1.33 1.93-1.09 1.82.45 1.81-.06 1.82.12 1.82-.38 1.82.04 1.82.49 1.82-.03 1.82.23 1.82-.04 1.82-.3 1.82.06 1.81.01 1.82.13 1.81-.03 1.82-.44 1.82.26 1.82-.02 1.82.33 1.82-.54 1.82-.26 1.82.07 1.82.22 1.82-.04 1.82-.31 1.82.76 1.82-.62 1.83.76 1.82-.39 1.82-.3 1.82-.25 1.82.98 1.82-.47 1.83-.41 1.82.72 1.83.16 1.82-.75 1.82.14 1.84.54L284 .16l2.02.84 1.13 1.69 1.06 1.82.11 1.8-.07 1.8-.68 1.79.91 1.8-.81 1.8-.14 1.8.05 1.79.89 1.8-.96 1.8.26 1.8-.17 1.8-.04 1.8.01 1.8.31 1.8.58 1.8-.67 1.8.52 1.8-.05 1.8.04 1.85-.8 1.77z"/><path d="M243.28 32.5a1 1 0 0 1-1.61-1v-18a1 1 0 0 1 1.61-1l18.32 9.2c.89.45.89 1.17 0 1.62z" fill="#fff"/><path fill="none" opacity=".28" d="M0 0h598v45H0z"/></svg>