<svg xmlns="http://www.w3.org/2000/svg" viewBox="0 0 682 46"><path d="M.78 1.78l1.4-.47 1.7.33 1.71-.4 1.7-.05L9 1.86l1.7-.13 1.71-.07 1.71.34 1.52-.27L16 3.3l-.12 1.79v1.8l.25 1.79v1.8l-.53 1.79.28 1.8-.38 1.79.23 1.8-.16 1.79.67 1.8-.49 1.8.47 1.8-.22 1.8.06 1.8.1 1.47 1.51.13 1.84.49 1.84-.63 1.84.64h1.84l1.85-.55 2 .14-.41 1.86.59 1.7-.2 1.69-.14 1.61.2 1.7v1.7l-.66 1.7.72 2-2-.3-1.77-.26-1.76.4-1.76.31-1.79-.35-1.76-.54-1.77.8-1.76-.53-1.76-.26-1.76.35-1.77.51-1.77-.88-1.76.09L4 43.42 2.25 44l-2 .06V42l-.13-1.83v-1.84l.65-1.84-.7-1.84.35-1.84L.21 31l.73-1.84-.42-1.86-.2-1.84v-1.85l-.24-1.84L0 19.93l.28-1.84.72-1.84-.39-1.84-.31-1.84.52-1.84-.2-1.84V7L.48 5.2l.3-1.82zm36.5.02l1.38-.25 1.7.14 1.71-.16 1.7.31 1.71-.39 1.7.47 1.71-.15 1.71-.37 1.61.2.08 1.74-.44 1.84.47 1.82v1.84l.22 1.84-.15 1.84.07 1.84.27 1.84-.73 1.85-.08 1.84.54 1.84-.33 1.84-.3 1.84.06 1.84.18 1.84.29 1.84v1.84l-.46 1.84.17 1.85-.2 1.84.69 1.85L52 42l.57 2.08-2 .06-1.7-.79-1.7 1h-1.71l-1.71-.18-1.7-.19-1.71-.22-1.71-.29-1.81.53.63-2-.28-1.83-.66-1.84.08-1.84.4-1.84v-1.84L36.67 31l.56-1.84.05-1.84-.52-1.84-.27-1.85.3-1.84-.18-1.84.63-1.84-.36-1.84v-1.84l-.44-1.84.89-1.84.07-1.84L37.29 7 37 5.2l.15-1.84zm23.36-.55l2.09.32 1.84.18L66.41 1l1.84.12 1.84.45L71.93 1l1.85.29 2-.12.81 1.83 1.21 1.43.16 2 1.59 1.17 1 1.51.45 1.83 1.37 1.3.41 1.86 1 1.53 1.37 1.29.85 1.61.6 1.75 1 1.52.69 1.71 1.47 1.14.16.37-.6-1.79-.24-1.8-.32-1.79-.38-1.79L89 16l-.7-1.79.15-1.81.43-1.81-.43-1.81V6.97l.15-1.81.38-1.82-.54-1.89 1.9.36 1.83-.08L94 1.39l1.84.18 1.9-.57 1.84.76 1.84-.27 2.14-.29-.47 2.14.07 1.84.56 1.82-.42 1.84.29 1.84-.49 1.84.48 1.84.17 1.84-.88 1.84.53 1.84.27 1.84-.61 1.84.14 1.84.54 1.84-.74 1.85.09 1.84.63 1.84-.82 1.84-.06 1.85.85 1.84-.38 1.85-.54 1.85.33 1.7-1.68.27-1.83-.5-1.83.2-1.84.33-1.83-.66-1.84.42-1.84.09-2.08.4-.82-2-1.28-1.4-.36-2-.87-1.53-1.3-1.38-.66-1.77-1.28-1.39-1-1.58-1.2-1.45-.89-1.63-1.04-1.52-.27-2-1.45-1.3-.5-2-.44.52.33 1.41.13 1.77-.5 1.78.42 1.66.67 1.7-.25 1.71.06 1.72-.63 1.72.23 1.71.39 1.71v1.73l-.21 1.72v1.73l-1.87.11-1.83-.15-1.84.15-1.83.11-1.83-.29-1.84.18-1.84.12-2-.1.6-2-.1-1.83-.68-1.84.63-1.84.14-1.84v-1.84L60.64 31l.42-1.84-.61-1.84.16-1.84v-1.85l.16-1.84.52-1.84-.62-1.84.46-1.84.16-1.84-.91-1.84v-1.86l.9-1.84L61 7l-.12-1.8-.1-1.84zm49.88.45l1.57-.25 1.77-.29 1.78.14 1.77.51 1.78-.1 1.81-.08h1.78l1.77-.44 1.77.22 1.78.31 1.73-.72 1.78.81 1.78-.2 1.77-.15 1.79.37 1.6-.2.09 1.77v1.95l.1 1.93-.2 1.93.17 1.93v1.87l-1.79.25-1.92-.38-1.85-.17-1.85.08-1.85.39-1.85.15-2-.38-.3 2.14.34 2.09 1.77-.29 1.69.34 1.68-.6 1.69.67 1.69.05 1.7.22 1.33-.13v1.5l-.09 1.84.15 1.83.43 1.83-.45 1.84.41 1.9-1.75.2-1.68.16-1.69-.11-1.69-.23-1.69.37-1.66-.57-1.7.1-.33 2.08.51 1.91 1.73.28 1.91-.33h1.92l1.91-.19h1.91l1.92.35 2.12-.14-.55 2.13.64 1.93-.67 1.92.06 1.93.11 1.93.44 2.15-2-.7-1.81.46h-1.8l-1.8-.12-1.8.47-1.81-.6-1.8.51-1.8-.71-1.8.21-1.8.24h-1.81l-1.8-.33h-1.81l-1.8.27-1.81.51-2-.16.68-2-.17-1.83-.56-1.84.42-1.84-.17-1.84.43-1.84-.28-1.91.11-1.84-.24-1.84-.3-1.84.29-1.85-.49-1.84.81-1.84-.35-1.84.41-1.84-.37-1.84-.08-1.84-.41-1.84.35-1.84-.19-1.91.31-1.84.2-1.84zm87.2-.29l.38 1.88v1.79l-.22 1.78-.16 1.79.2 1.79-.68 1.78-.05 1.78.71 1.79-.66 1.79-.05 1.79.71 1.78-.61 1.8.24 1.79.37 1.8-.16 1.79-.54 1.74-.33 1.74-.56 1.67-.76 1.57-.14 1.95-1.47 1.16-1.09 1.39-1.09 1.45-1.72.65-1.54.9-1.53 1-2-.39-1.6 1-1.83-.36-1.72.86-1.79.28-1.8-.19-1.76-.46-1.83.12-1.61-1h-1.85l-1.43-1.2-1.75-.29-1.34-1.2-1.23-1.28-1.57-1-.86-1.6-1.09-1.47-.66-1.69-.41-1.76V30.1l-.43-1.76.3-1.79-.09-1.79.3-1.79v-1.78l-.17-1.79-.22-1.79.34-1.78-.63-1.83.49-1.79-.29-1.79V8.63l.38-1.79-.48-1.79.27-1.79V1.57l1.58-.22 1.71-.32 1.7.67 1.7-.45h1.71l1.7.61 1.73-.86 1.71.39 2-.17.11 2.07-.63 1.82.16 1.81.52 1.81-.78 1.81.23 1.82v1.81l.13 1.81.23 1.82-.51 1.81-.09 1.82.53 1.82-.29 1.82.62 1.73-.59 1.86 1.21 1.4 1.24 1.31 1.83-.1 1.82.11 1.5-1.12.77-1.64.27-1.77.34-1.76-.72-1.82-.28-1.81.9-1.81-.67-1.81v-3.63l.41-1.81-.22-1.81.16-1.82.36-1.77-.08-1.82V3.36l-.59-2 1.9.06 1.71-.09 1.7.11 1.7.58 1.71-.43 1.71.31 1.7.14 1.71-.74zm7.33.17h3.45l1.76-.28 1.77.52 1.76-.34 1.77.45 1.77-.81 1.77-.07 1.77.24 1.77.12h1.77l1.73.45 1.73.09 1.74.11 1.56.87h1.85l1.68.62 1.07 1.56 1.56.82 1.35 1.16.85 1.56.53 1.67.84 1.54.16 1.76.56 1.68.07 1.77-.49 1.84-.13 1.84-.72 1.71-.61 1.72-.88 1.6-.8 1.79-1.74.85-1.71.69-1.53 1.06-1.83.28-1.77.65-1.87-.35-2 .59-2-.56-2 .73-1.96-.51.19 1.93.24 1.82-.22 1.82-.18 1.82v1.82l-.17 1.79v1.55l-1.58.74-1.84-.43-1.85-.3-1.85.45h-3.69l-1.86.21-1.5-.77-.6-1.45v-1.83l.54-1.84-.59-1.84-.16-1.84.45-1.84L205 31v-1.84l-.1-1.84-.18-1.84.59-1.85.14-1.84-.73-1.84v-1.86l.1-1.84-.27-1.84.11-1.84.49-1.84V8.89l.2-1.89-.35-1.8.07-1.85zm14.62 18.92h1.61l1.95-.12 1.78-.8 1.76-1 .11-2.05-.08-2.06-2-.6-1.75-.32-1.86-.31-1.4-.15v1.81l-.4 1.84.08 1.84zM678 25.87h-2v-2h2zm-6 0h-2v-2h2zm-6 0h-2v-2h2zm-6 0h-2v-2h2zm-6 0h-2v-2h2zm-6 0h-2v-2h2zm-6 0h-2v-2h2zm-6 0h-2v-2h2zm-6 0h-2v-2h2zm-6 0h-2v-2h2zm-6 0h-2v-2h2zm-6 0h-2v-2h2zm-6 0h-2v-2h2zm-6 0h-2v-2h2zm-6 0h-2v-2h2zm-6 0h-2v-2h2zm-6 0h-2v-2h2zm-6 0h-2v-2h2zm-6 0h-2v-2h2zm-6 0h-2v-2h2zm-6 0h-2v-2h2zm-6 0h-2v-2h2zm-6 0h-2v-2h2zm-6 0h-2v-2h2zm-6 0h-2v-2h2zm-6 0h-2v-2h2zm-6 0h-2v-2h2zm-6 0h-2v-2h2zm-6 0h-2v-2h2zm-6 0h-2v-2h2zm-6 0h-2v-2h2zm-6 0h-2v-2h2zm-6 0h-2v-2h2zm-6 0h-2v-2h2zm-6 0h-2v-2h2zm-6 0h-2v-2h2zm-6 0h-2v-2h2zm-6 0h-2v-2h2zm-6 0h-2v-2h2zm-6 0h-2v-2h2zm-6 0h-2v-2h2zm-6 0h-2v-2h2zm-6 0h-2v-2h2zm-6 0h-2v-2h2zm-6 0h-2v-2h2zm-6 0h-2v-2h2zm-6 0h-2v-2h2zm-6 0h-2v-2h2zm-6 0h-2v-2h2zm-6 0h-2v-2h2zm-6 0h-2v-2h2zm-6 0h-2v-2h2zm-6 0h-2v-2h2zm-6 0h-2v-2h2zm-6 0h-2v-2h2zm-6 0h-2v-2h2zm-6 0h-2v-2h2zm-6 0h-2v-2h2zm-6 0h-2v-2h2zm-6 0h-2v-2h2zm-6 0h-2v-2h2zm-6 0h-2v-2h2zm-6 0h-2v-2h2zm-6 0h-2v-2h2zm-6 0h-2v-2h2zm-6 0h-2v-2h2zm-6 0h-2v-2h2zm-6 0h-2v-2h2zm-6 0h-2v-2h2zm-6 0h-2v-2h2z" fill="#fff"/><path fill="none" opacity=".28" d="M0 0h682v46H0z"/></svg>