<svg xmlns="http://www.w3.org/2000/svg" viewBox="0 0 682 108"><path d="M15.77 2l.71 1.62-.06 1.89 1 1.67.15 1.82v1.87l.57 1.76.66 1.74.52 1.76v3.76l1 1.67-.12 1.91 1.09 1.66.27 1.76v.18l-.21-2.05 1.05-1.84-.27-2 .93-1.81.09-1.83.85-1.65V14l.51-1.72.16-1.81.63-1.7.7-1.63.27-1.79.4-1.76.45-1.91L29 2l1.68.19 1.68-.44 1.64.14 1.68.11 1.68.23 1.7-.39.32 1.83.19 1.85.37 1.8L41.11 9 41 10.91l.47 1.78.8 1.71.48 1.78L43 18l-.27 2 .69 1.73.89 1.69-.3 2 1.19 1.56-.2.02.64-1.75.28-1.85-.29-1.95.4-1.84.58-1.74V16l1.07-1.62.52-1.74v-1.87l.28-1.81 1.06-1.62.29-1.81V3.66l.52-1.8 1.8-.07 1.85.12 1.77.4 1.77-.82 1.77.71 1.77-.06 1.78.19 1.77-.82 2 .23-1.18 1.7.1 1.93-1.18 1.49-.73 1.63.16 1.95-.7 1.65-.82 1.61-.92 1.57L61 17l-.46 1.73-.84 1.61v1.88l-1.2 1.52-.1 1.87-.57 1.7-1.22 1.46.06 1.91-1.27 1.45-.68 1.66-.54 1.71-.18 1.85-.72 1.65-.56 1.7-.95 1.57-.34 1.73-1.82-.18-1.9.47-1.91.11-1.91-.43-1.89-.13-1.92.44H38l-.34-1.93-.5-1.73.33-1.92-1.15-1.6v-1.83l-.41-1.76v-1.83L35 30v-1.82l-.47-1.74-.21-1.81-.16-1.81-.71-1.73-.35.3-.1 1.37-.56 1.57v1.62l-.48 1.53-.45 1.65-.36 1.67-.82 1.55.11 1.79-.61 1.61-.54 1.63.09 1.79-.94 1.53-.15 1.73-.18 2h-2.14l-1.86-.35-1.86.3-1.86-.67-1.86.81-1.87-.2-1.89-.21-1-1.58-.45-1.74-.79-1.62v-1.9l-.34-1.78L11 34l-.75-1.63v-1.9l-.86-1.59-1-1.54-.21-1.82-.42-1.75-.46-1.74-.86-1.53-.57-1.7L5 17.23l-.06-1.86-.31-1.79L3.77 12l-.84-1.6-.67-1.7L1.75 7 1.5 5.17.8 3.51-.12 1.8l1.88.2 1.76-.42 1.76.25 1.77.52L8.81 2l1.77-.14 1.77.39 1.77-.59zm54.74.08l1.65.26L74 1.82l1.84.55 1.85-.49 1.84.12h1.85l1.85-.08 1.7.15-.1 1.62.58 1.77v1.78L85.14 9l.3 1.77-.85 1.78.61 1.78-.14 1.81h1.9l1.88.05 1.88.19 1.88.08 1.65-.61-.25-1.52.14-1.78-.14-1.77.77-1.78-.25-1.77.18-1.78-.5-1.78.46-1.6h1.67l1.84-.19 1.84-.1 1.85-.05 1.84.65 1.85-.45 1.85.2 1.78-.13.47 1.76-.65 1.79-.23 1.83.51 1.83-.14 1.84-.14 1.83.18 1.83-.18 1.83-.1 1.84.67 1.83-.57 1.84.33 1.83.39 1.84-.08 1.83-.5 1.83.59 1.84-.4 1.83-.42 1.84.07 1.83.45 1.84v1.84l-.43 1.84.17 1.72-1.73.5h-3.68l-1.85-.21-1.84.11-1.85-.47-1.85.62-1.66-.6.23-1.64-.61-1.83.25-1.83-.29-1.83.64-1.83-.93-1.86.35-1.83.46-2.19-2.22.24-1.87.21h-1.88L87 29.08l-2 .2.38 2-.62 1.83v1.83l.49 1.83-.25 1.8-.11 1.84-.08 1.83-.08 1.52-1.52.38-1.84.37-1.85-.73-1.84.29-1.85.15-1.83-.63-1.85.12-1.68.2-.47-1.66.09-1.83-.2-1.83.55-1.83-.19-1.84-.25-1.83.74-1.83v-1.83l-.54-1.84.61-1.83-.71-1.84.54-1.83.15-1.84-.44-1.83.36-1.83-.23-1.84-.48-1.83.69-1.84V9.25l-.49-1.84.33-1.84-.07-1.83zm59.87 42.19l-1.95-.5h-1.8l-1.8.14-1.8.48h-3.61l-1.8-.37h-1.81l-1.56-.15.36-1.49.09-1.86.65-1.66.62-1.68 1-1.52.08-1.86.65-1.66 1-1.53.38-1.76.79-1.61.5-1.72.54-1.7.46-1.74 1-1.55.22-1.81 1-1.54.38-1.75.06-1.87 1.42-1.4.34-1.78.68-1.66.45-1.72.41-1.75.27-1.81.93-1.71h2l1.88.08 1.88.2 1.88.24 1.89-.6 1.88.43 1.88.11 1.89-.34 1.76.24.5 1.57 1.13 1.5v1.91l.77 1.62.5 1.72.59 1.69.91 1.58.42 1.75.48 1.73.69 1.65.86 1.6 1 1.56.46 1.73.45 1.75.29 1.8 1.06 1.52.67 1.66-.24 2 .63 1.68.89 1.58.73 1.65.94 1.57.23 1.83.6 1.69 1 1.9-2.12-.38-1.8.14h-1.8l-1.8-.43-1.8-.06-1.81.68-1.8-.39-1.81.28-1.61-.37-.41-1.57-1.13-1.57-.2-1.67-1.78-.33-1.93.32-1.93.21-1.93-.58-1.93.53-2.07-.53v2l-.87 1.66zm9.79-15.62v-1.78l-.38-1.87-.59-1.83-.91-1.75-.41-1.81-.33-1.82v-1.92h-.63l-.67 1.78-.13 1.9.11 1.95-.46 1.82-.44 1.83-.88 1.74v1.58l1.73-.08 2.05.49zm18.12-26.6l1.64.22h1.78L163.5 2l1.79.36 1.79-.78 1.79-.14 1.79.52h3.58l1.76-.45 1.79.78 1.79-.41 1.79-.34 1.79-.1 1.79.1 1.8.5 1.79.32 2.1-.79v2l-.29 1.71.44 1.72-.61 1.71.36 1.72-.54 1.73.17 1.72.32 1.86-1.82-.32-1.67-.13h-1.69l-1.71.35-1.4-.11-.29 1.47.42 1.8-.53 1.8.52 1.81-.32 1.8.12 1.81-.41 1.8.4 1.8-.56 1.8.32 1.81-.32 1.8.51 1.81v3.61l-.09 1.81-.16 1.66-1.53.49-1.71-.33-1.7-.13h-1.7l-1.7.32-1.7-.24-1.71.3-1.71-.61-1.6.2-.57-1.7.79-1.8-.11-1.81.12-1.8-.81-1.8.69-1.81-.18-1.8-.15-1.8.51-1.81-.68-1.8v-1.8l.51-1.81-.14-1.8-.36-1.81L167 17l-.7-1.52-1.39-.44-1.69.13-1.66.65h-1.7l-1.74-.17.52-1.75-.46-1.71.11-1.72.2-1.71-.41-1.76-.23-1.72.32-1.71zm37.48 20.68l.51-1.71 1-1.6.24-1.84.16-1.87.85-1.64.47-1.77.3-1.82L200.56 9l.71-1.69-.11-2 .84-1.66.24-2.12 2.08.14 1.81-.06 1.8.11 1.82.11 1.8.55 1.81-.38 1.81-.56 1.91.4-.66 1.76-.8 1.59-1.21 1.39-.64 1.66-.24 1.86-1.3 1.35-.49 1.74-1.26 1.37-.7 1.64-.17 1.89-1.29 1.36-.43 1.78-1.13 1.18-1.66.66-1.87-.68-1.87.25-1.87-.27-1.88.45zm26.7 6.17l.87.65 1.42 1 1.68.56 1.19 1.54 1.79.26 1.68.56 1.77-.44 1.59-.24 1.45-.57 1.26-1.31-.9-1.42-1.4-.61-1.48-.37-1.62.14-1.55-.23-1.53-1.07-1.63-.46-1.66-.47-1.73-.51-.79-1.77-1.72-.73-.87-1.54-.12-1.79-.41-1.61-.92-1.66.95-1.74.13-1.75.56-1.67.08-1.94 1.67-1.07 1.1-1.35.85-1.68 1.36-1.21 1.53-1 1.78-.49 1.77-.35 1.7-.46 1.68-.87 1.84.36 1.76-.13 1.74-.46 1.74.37 1.66.69 1.67.47 1.68.41 1.67.51 1.65.61 1.77.87-.69 1.87-.67 1.8-.82 1.74-1 1.66-.49 1.88-.47 2-2-1-1.46-1.37-2.06.06-1.74-.83-1.9.2-2.13.12-1 1.71 1 1.47 2 .24 1.57 1.11 1.8.07 1.63.87 1.92-.06 1.7.7 1.17 1.52 1.28 1.17 1.18 1.27 1.14 1.36.54 1.69.87 1.68.07 1.84-.18 1.79-.09 1.82-.71 1.69-1 1.52-.83 1.58-1.24 1.28-1.58.86-1.2 1.31-1.64.67-1.52.91-1.66.57-1.66.63-1.76.29-1.75.32-1.78-.24h-1.87l-1.87-.1-1.81-.51-1.83-.35-1.78-.52-1.86-.06-1.87-.36-1.66-.93-1.72-1 .71-1.72 1.19-1.5.38-1.82.12-1.91 1.16-1.52.48-1.78zM3.69 63.84h1.87l1.86.16h1.86l1.87.4 1.85-.54h1.86l1.88.26h1.65l-.12 1.61.62 1.83-.12 1.83-.46 1.82L18.1 73l.1 1.84.53 1.84-.42 1.82v1.84l.35 1.78-.28-.12.79-1.46.55-1.68L21 77.54l1-1.45.26-1.8.71-1.56 1.24-1.28.87-1.45 1-1.43.27-1.81 1.23-1.29.42-1.91 2 .67h1.86l1.85-.57 1.86.4 1.86-.64 1.85.08 1.86.51 1.86-.39 1.56.42-.4 1.42L43 66.8 41.66 68l-.51 1.75-1.15 1.3-.39 1.81-1.69 1-.39 1.82-.87 1.51-.76 1.59-1.62 1-.94 1.48L32.7 83l-1.53 1.42 1.63 1.32.43 1.81 1.66 1 .7 1.62.72 1.62L37.5 93l.84 1.52 1.46 1.12.63 1.67.72 1.69 1.4 1.16.63 1.67 1.08 1.38 1.06 1.39 1.3 1.68-2.14-.32h-1.77l-1.78-.25-1.77.58-1.78-.14-1.78.08-1.78-.47-1.78.42-1.78.11h-1.91l-.57-1.93-.7-1.71-1.75-1.11-.26-2-.72-1.7-1.51-1.26-.35-1.91-.94-1.59-1.69-1.15-.86-1.69-.37-1.88-.63-.06v1.83l.77 1.75-.8 1.78.7 1.75-.21 1.78.17 1.81.24 1.76-.44 1.79-.12 1.77.14 1.59-1.69.54-1.86-.59-1.9.14-1.86.34-1.87-.19-1.87.27-1.87-.17-1.72-.32-.23-1.68.57-1.83-.15-1.87-.58-1.83-.11-1.84.55-1.83-.57-1.83.76-1.84-.22-1.83-.19-1.83v-1.84l.27-1.83-.63-1.84.07-1.83.23-1.83.11-1.84-.24-1.83L4 73l-.1-1.8-.5-1.83v-1.84l.4-1.84zm62.02 42.04l-1.71-.25-1.8.31-1.8.39-1.8-.27-1.8-.46-1.8.57-1.81.06h-1.8l-1.71-.23.18-1.75 1-1.55.95-1.56.45-1.73.28-1.79.7-1.64.45-1.74.31-1.8.47-1.72 1-1.54.65-1.67.88-1.58.45-1.74v-1.88l1.11-1.51.17-1.8.85-1.59.2-1.83 1.12-1.5.49-1.72.35-1.77.9-1.58.7-1.66.66-1.69.06-2.08 2.07.05 1.88.52 1.88.14 1.88-.22 1.88-.67 1.88.53 1.89.29h1.89l2-.53.54 1.84.46 1.74.74 1.64.74 1.63.37 1.77.68 1.69.67 1.66.2 1.83.5 1.72.63 1.68.79 1.62.67 1.67.48 1.73 1 1.54.45 1.74.3 1.79.94 1.57.1 1.87 1.3 1.44.33 1.78.55 1.71.23 1.82 1.49 1.38-.27 2 1.1 1.56-1.83-.14-1.81-.05-1.8.15-1.8.14-1.8-.29-1.8-.07-1.81.41h-1.8l-1.66-.41-.34-1.64-.57-1.72-.59-1.78-2 .22-1.93.11-1.92-.41-1.93.06-1.94.16-1.67.28-.79 1.37-.47 1.73zm10.41-15l-.21-2.09-.74-1.79-.83-1.77-.18-1.93.06-1.88-.89-1.71L73 78h-.24l-.67 1.72v1.93l-.82 1.75-.77 1.75-.19 1.85-.08 1.91-.5 1.91 2.13-.1 2.06-.32zm67.22-9.25l.49 1.32-.8 1.73.59 1.79-.64 1.7-.48 1.68-.24 1.7-.56 1.63v1.88l-1.42 1.21-.67 1.65-1.24 1.25-1.45 1.08-1.06 1.55-1.79.6-1.3 1.34-1.49 1.13-1.79.48-1.68.77-1.91-.1-1.9-.02-1.75.44-1.8-.19-1.78.45-1.8.09-1.76-.36-1.71-.43-1.63-.76-1.77-.34-1.48-1.05-1.69-.61-1.55-.92-1.1-1.48-1.61-.88-.71-1.73-1.29-1.23-1.08-1.43-1.06-1.5v-1.92l-.59-1.67-.22-1.76L97 87l.6-1.8-.26-1.81.57-1.74.38-1.74-.13-1.88.46-1.77.92-1.59.66-1.73 1.36-1.27 1-1.5 1.06-1.53 1.45-1.14 1.58-1 1.55-1 2 .07 1.43-1.3 1.81-.27 1.77-.33 1.75-.48 1.82.07 1.8-.53h1.79l1.76.23 1.62.94 1.85-.19 1.74.37 1.6.79 1.37 1.24 1.77.39 1.69.65 1.3 1.24 1.13 1.38 1.39 1.11 1 1.46.75 1.74-1.95.34-1.6 1.16-1.79.52-1.8.64-1.7.89-1.93.28-1.74.83-1.86.1-1.21-.75-1.43-.81-1.3-1.5-1.85.67h-1.78l-1.61.67-1.87.42-.92 1.66-1.37 1.27-.24 1.86-.27 1.75-.51 1.76.63 1.82.18 1.88.53 1.87 1 1.71 1.73 1 1.87.59 1.92.09 1.94-.08 1.83-.7 1.4-1.32.93-1.31-1.62.15-1.66-.54-1.73.51L120 91l.23-1.46-.91-1.66.6-1.66.3-1.66-.28-1.66v-1.58l1.74-.57 1.82.3 1.82-.11 1.82.47 1.81-.6h1.82l1.82.35 1.82.06 1.82.06 1.82.21 1.82-.44 1.77.68zm16.25 24.55h-3.71l-1.79-.3-1.81.17-1.8.06-1.8.36-1.8-.41-1.81-.46-1.65.33.57-1.51v-1.89l1.49-1.38.34-1.77.46-1.72.82-1.61.69-1.65.63-1.67.19-1.82.24-1.81.52-1.71.71-1.64.81-1.61.64-1.67 1-1.55.34-1.77.75-1.63.18-1.83 1-1.54.12-1.85.47-1.73.49-1.73.5-1.72.95-1.57.44-1.93 2 .07 1.88.26 1.88-.18 1.88-.11h1.88l1.88-.18 1.89.11 1.89.05 1.87.24.27 1.78.86 1.59.91 1.58.14 1.87.83 1.6.58 1.69.29 1.8.65 1.67 1 1.54.39 1.76.82 1.61.6 1.69.15 1.84.55 1.71 1.28 1.45L184 91l.62 1.68.76 1.63.46 1.74.9 1.58 1.12 1.51.17 1.84 1 1.56v1.93l1.09 1.7-2-.09-1.8-.07-1.8-.25-1.8.22-1.81.47-1.8-.19-1.8.09-1.81.09-1.93-.23-.16-2-1.1-1.59.07-2-2-.23-1.93.42-1.93.33h-1.93l-1.93-.66-1.75.51-.19 1.59-.54 1.71zm9.89-15.53L169 89l-.4-1.87-.16-1.94-.62-1.82-.45-1.79-.68-1.75.12-1.88-1-.22-.2 2-.35 1.85.21 2-1.33 1.63L164 87l-.28 1.87-.52 2.13 2.3.22 2.07.05zm25.2-27.02l2.08.23 1.86.35 1.86-.45 1.87.32 1.87-.1 1.86-.31L208 64l1.77-.09-.15 1.72.15 1.83-.16 1.82-.25 1.83v1.82l.74 1.85-.13 1.83-.57 1.82.36 1.84-.61 1.9.65-.13.24-1.75 1.27-1.29.41-1.76 1-1.39 1.13-1.34.48-1.69.84-1.49 1-1.41 1.09-1.36.65-1.6.4-1.74 1.17-1.17 1.72-.64 1.86.45 1.85.45 1.86-.53h1.86l1.85-.07 1.87-.18h1.86l2 .23-.77 1.75-1.66 1-.54 1.73-.55 1.76-1.57 1-.5 1.75-1.24 1.25-.52 1.74-1.64 1-.34 1.85-1.11 1.41-1.3 1.23-.74 1.61-.66 1.52.75 1.46 1.18 1.31 1.15 1.33.42 1.82 1.53 1.06.66 1.65 1 1.44 1 1.42.63 1.67.88 1.51 1.66 1 .85 1.52.58 1.72 1.47 1.12.52 1.6-1.66.42h-1.77l-1.78-.44-1.77-.35-1.78.14-1.78.76-1.78.06-1.78-.38-1.78-.48h-1.59l-1.32-1.13-.27-2-1.49-1.26-1-1.55-.71-1.71-1.09-1.45-.49-1.83-.78-1.68-1-1.6-1.48-1.29-.42-1.85h-.16l-.28 1.75v1.76l.39 1.76-.53 1.78.88 1.75-.2 1.83.2 1.76-.19 1.78-.43 1.78.59 2-2.14-.1-1.86.26h-1.87l-1.86-.44-1.87.35-1.87-.2-1.87-.15h-1.86l-.36-1.82v-1.83l.51-1.83.07-1.83-.08-1.84-.17-1.83.47-1.83-.74-1.84.13-1.83-.31-1.83.67-1.84.2-1.83-.65-1.84.25-1.83.12-1.83.22-1.84-.23-1.84-.56-1.88.16-1.84.31-1.83-.47-1.84.41-1.84zm86.85-.09l-.2 2.09-.24 1.78.48 1.78-.75 1.81.29 1.78.14 1.78.26 1.78.05 1.78-.09 1.78-.73 1.79.06 1.78.47 1.79.34 1.79-.29 1.78.11 1.8-.9 1.69v1.79l.1 1.89-.8 1.65-1.44 1.25-.54 1.78-1.2 1.32-1.49 1-1.61.78-1.27 1.43-1.78.41-1.77.32-1.72.48-1.8-.17-1.76.19-1.77.1-1.79.47-1.75-.54-1.81.05-1.59-1h-1.83l-1.53-.93-1.66-.62-1.71-.67-1.27-1.3-1.38-1.2-1.09-1.47-.27-1.95-1.22-1.38.06-1.88-.44-1.72.27-1.8-.29-1.75L242 87l.22-1.78.33-1.78-.08-1.78-.31-1.78.46-1.78-.78-1.78-.1-1.78.85-1.78-.68-1.76-.19-1.78v-1.79l.79-1.79-.37-1.82 1.74.4 1.7-.69 1.7.11 1.7.66 1.71-.14 1.7-.14 1.7-.21 1.71.48 1.36-.1.49 1.47v1.81l.16 1.81-.82 1.8.85 1.8v1.81l-.18 1.81.11 1.8.06 1.81v1.81l-.79 1.81-.04 1.8.12 1.82.82 1.73.16 1.67.48 1.58 1.44.78 1.66.2h1.74l1.68-.76v-1.88l.78-1.61-.37-1.75.31-1.81-.05-1.8.06-1.81v-1.77l.49-1.8-.3-1.81-.57-1.8.63-1.81-.26-1.81.41-1.81-.18-1.81.23-1.81-.44-1.81 1.7-.08 1.7.18 1.7.32 1.7-.89 1.7.74 1.7-.56 1.71.78 1.71-.52zm5.92.46l1.64.05 1.77.06 1.79-.7 1.78.83 1.78-.65 1.79-.21 1.78.39 1.79-.38 1.79.83 1.79-.22 1.77-.16 1.77.23h1.78l1.8.1 1.77.39 1.59.88 1.59.83 1.43 1.1 1.44 1.17.85 1.64.47 1.77-.09 1.81.75 1.75-.73 1.78-.26 1.79-.4 1.87L319 82l-1.49.91-1.23 1.33-.25.17 2 .39 1.31 1.55 1.51 1.12 1.21 1.53.93 1.68.29 1.89.25 1.88-.43 1.76.24 1.91-1.34 1.34-1 1.44-1 1.52-1.42 1.12-1.79.44-1.56.93-1.64.93-1.84.14-1.8.37h-3.58l-1.74-.79-1.73.88-1.74-.36h-1.74l-1.73-.14-1.69-.34-1.74.12-1.74.4-1.74.1-1.74-.5-1.59.17.11-1.68-.44-1.83.22-1.83.1-1.83-.07-1.84.22-1.83-.05-1.83-.43-1.84.24-1.83-.29-1.83.59-1.84-.78-1.83.82-1.84.1-1.83-.6-1.83.24-1.84.12-1.83-.17-1.88.2-1.84.21-1.83-.69-1.84.49-1.83zm15.46 16.29l1.66-.08 1.66-.37.69-1.52 1.13-1.37-1-1.5-1.25-.69-1.53-.62-1.7.37-1.38-.64.18 2.18.19 2-.11 2zm-1.54 15.83l1.88.06h2l1.8-1.07 2.09-.51v-2.14l-.52-1.37-.79-1.29-1.6-.15-1.54-1-1.67.2-1.47.17-.11 1.72.16 1.74.23 1.77zm66.82-32.49l.17 2-.53 1.78-.32 1.78.54 1.78-.31 1.78.26 1.78v1.78l-.48 1.78v1.78l.55 1.79-.46 1.78.28 1.79-.2 1.77.77 1.78-.78 1.77-.15 1.76-.47 1.69-.23 1.76-1 1.48-.51 1.7-.6 1.76-1.34 1.3-1.28 1.29-1.64.77-1.7.56-1.6.76-1.73.35-1.67.62-1.76.24-1.79-.07-1.77-.1-1.79.55h-1.8l-1.66-.91-1.86.22-1.72-.56-1.53-1-1.77-.46-1.15-1.47-1.44-1-.93-1.5-1.51-1.09-.92-1.55-.14-1.85-.61-1.65-.81-1.67.07-1.81-.11-1.79-.1-1.78.31-1.78-.39-1.78.74-1.78-.59-1.78-.15-1.78.55-1.78-.08-1.78v-1.78l-.13-1.86.08-1.78-.08-1.79.47-1.79-.39-1.72h1.62l1.7.31 1.7-.54h1.7l1.71.59 1.7-.21 1.7-.22 1.71-.21 1.53.36.1 1.63-.17 1.83.32 1.81.42 1.8-.77 1.8.51 1.81-.4 1.81.05 1.8v1.81l.12 1.81v1.81l.26 1.81-.63 1.82.3 1.75.53 1.68.73 1.44 1.37.72 1.6 1 1.68-.73 1.7-.61.52-1.74.13-1.73.28-1.74v-1.81l-.26-1.8v-1.81l-.24-1.81.76-1.8-.34-1.81.13-1.8-.14-1.81.22-1.81-.1-1.81-.53-1.81.44-1.81.09-1.69 1.57-.42 1.7.59 1.7-.11 1.7-.26 1.7.17 1.71-.5 1.7.78 1.68-.8zm18.07 14.98l1.85.55 1.45.07 2 .23 1.44-1.34 1.22-1.4.59-1.85-.81-2.21-2.19-.94-1.54.94-.88 1.39-.52 1.5-1.76.06-1.79.1-1.8-.08h-1.8l-1.72-.26-1.8-.21-1.8.19-1.91.62-.18-2.18.43-1.79.57-1.76 1.18-1.46.88-1.57 1.54-1 1.17-1.31 1-1.68 1.55-1 1.85-.33 1.68-.66 1.85.09 1.69-.77 1.8.19 1.85-.31 1.79.5 1.83.22 1.79.44 1.84.46 1.4 1.16 1.5 1.08.91 1.68 1.39 1.18.62 1.73 1.37 1.39.23 1.85.34 1.81-.33 1.83.55 1.83-1 1.65-.23 1.76-.84 1.55-.38 1.91-1.62 1-1.13 1.47-1.73.64-1.56.9-1.62.84-1.91-.23-1.67.78-1.79.28-1.81.23-1.57.18-1.47-.83-1.06-.24-.45-1.68.38-1.81.05-1.8-.17-1.83.2-1.87zm14.39 21.16l-.73 1.69-.6 1.62-1.46 1-1 1.39-1.61.62-1.69.22-1.67.14-1.65-.2h-1.74l-1.62-.64-1.24-1.23-1.17-1.38-.78-1.54-.15-1.72.27-1.7.86-1.47 1.18-1.15L387 94.3l1.33-1.3 1.71-.58 1.81-.09 1.8.15 1.59.89 1.61.67 1 1.45 1.15 1.15 1.33 1.36zm279.23-13.6h-2v-2h2zm-6 0h-2v-2h2zm-6 0h-2v-2h2zm-6 0h-2v-2h2zm-6 0h-2v-2h2zm-6 0h-2v-2h2zm-6 0h-2v-2h2zm-6 0h-2v-2h2zm-6 0h-2v-2h2zm-6 0h-2v-2h2zm-6 0h-2v-2h2zm-6 0h-2v-2h2zm-6 0h-2v-2h2zm-6 0h-2v-2h2zm-6 0h-2v-2h2zm-6 0h-2v-2h2zm-6 0h-2v-2h2zm-6 0h-2v-2h2zm-6 0h-2v-2h2zm-6 0h-2v-2h2zm-6 0h-2v-2h2zm-6 0h-2v-2h2zm-6 0h-2v-2h2zm-6 0h-2v-2h2zm-6 0h-2v-2h2zm-6 0h-2v-2h2zm-6 0h-2v-2h2zm-6 0h-2v-2h2zm-6 0h-2v-2h2zm-6 0h-2v-2h2zm-6 0h-2v-2h2zm-6 0h-2v-2h2zm-6 0h-2v-2h2zm-6 0h-2v-2h2zm-6 0h-2v-2h2zm-6 0h-2v-2h2zm-6 0h-2v-2h2zm-6 0h-2v-2h2zm-6 0h-2v-2h2zm-6 0h-2v-2h2zm-6 0h-2v-2h2zm-6 0h-2v-2h2zm-6 0h-2v-2h2z" fill="#fff"/><path fill="none" opacity=".28" d="M0 0h682v108H0z"/></svg>