<svg xmlns="http://www.w3.org/2000/svg" width="41.32" height="41.11" viewBox="0 0 41.32 41.11"><defs><style>.a{fill:none}.b{fill:#1da1f2}</style></defs><title>btn_twitter_1</title><path class="a" d="M0 0h41.32v41.11H0z"/><path class="b" d="M14.47 34.1c12.58 0 19.46-10.42 19.46-19.46v-.88a13.92 13.92 0 0 0 3.41-3.54 13.65 13.65 0 0 1-3.93 1.08 6.86 6.86 0 0 0 3-3.78 13.71 13.71 0 0 1-4.34 1.66 6.85 6.85 0 0 0-11.66 6.22 19.42 19.42 0 0 1-14.1-7.14 6.85 6.85 0 0 0 2.12 9.13 6.79 6.79 0 0 1-3.1-.86v.09a6.84 6.84 0 0 0 5.49 6.71 6.83 6.83 0 0 1-3.09.12 6.85 6.85 0 0 0 6.39 4.75 13.73 13.73 0 0 1-8.5 2.93A13.92 13.92 0 0 1 4 31a19.36 19.36 0 0 0 10.47 3.1"/><path class="a" d="M3.66 4.05h34v33h-34z"/></svg>