<svg xmlns="http://www.w3.org/2000/svg" viewBox="0 0 36.57 21.75"><defs><style>.cls-1{isolation:isolate}.cls-2{fill:none;stroke:#b8d200;stroke-miterlimit:10}.cls-3{fill:#b8d200}.cls-4{fill:#fff}</style></defs><title>ico_map</title><g id="レイヤー_2" data-name="レイヤー 2"><g class="cls-1" id="main_SHOP1"><path class="cls-2" d="M.5 7.91V.5h7.41m20.75 0h7.41v7.41M.5 13.84v7.41h7.41m20.75 0h7.41v-7.41"/><path class="cls-3" d="M3.46 3.46H33.1v14.82H3.46z"/><path class="cls-4" d="M10.42 15H9V7.19h2.31l.78 3.61a17.07 17.07 0 0 1 .27 1.79 17 17 0 0 1 .23-1.79l.78-3.61h2.3V15h-1.46v-2.47c0-1.55 0-3.09.13-4.64L12.76 15h-.88l-1.53-7.11h-.05c.09 1.55.12 3.09.12 4.64zm6.22 0l1.86-7.81h2L22.23 15h-1.56l-.38-2h-1.7l-.38 2zm2.17-3.11h1.25l-.39-2.21c-.07-.36-.1-.72-.14-1.08 0-.18 0-.35-.05-.52 0 .17 0 .34-.05.52 0 .36-.07.72-.14 1.08zM23.23 15V7.19h3C27.59 7.19 28 8.32 28 9.4a2.32 2.32 0 0 1-.73 1.85 2.55 2.55 0 0 1-1.63.47h-1V15zm1.45-4.4h.78c.63 0 1.06-.27 1.06-1.21s-.35-1-1.17-1h-.66z"/></g></g></svg>