<svg xmlns="http://www.w3.org/2000/svg" viewBox="0 0 73.53 14.15"><defs><style>.cls-1{isolation:isolate}.cls-2{fill:#fff}</style></defs><title>btn_top</title><g id="レイヤー_2" data-name="レイヤー 2"><g class="cls-1" id="footer"><path class="cls-2" d="M0 13.83V.32h5.15C7.56.32 8.3 2.27 8.3 4.16A4 4 0 0 1 7 7.36a4.42 4.42 0 0 1-2.83.81H2.52v5.65zm2.52-7.64h1.35c1.1 0 1.84-.47 1.84-2.11S5.1 2.3 3.67 2.3H2.52zm6.43 7.64L12.17.32h3.4l3.06 13.5h-2.7l-.67-3.42h-3l-.67 3.42zm3.76-5.4h2.16l-.68-3.83c-.13-.6-.19-1.25-.26-1.88 0-.31-.05-.61-.09-.9 0 .29-.07.59-.09.9-.07.63-.13 1.24-.25 1.87zm11.95.12v-2h4.2v7.26H27v-1.53a2.56 2.56 0 0 1-2.38 1.87c-4.14 0-4.41-2.63-4.41-6.23V6c.11-3.44.38-6 4.41-6 2.16 0 3.66.58 4.23 2.92a8.35 8.35 0 0 1 .13 1.64h-2.59c0-1.37-.13-2.45-1.84-2.52-2 0-1.82 2.36-1.82 3.4v3.74c0 1.12.09 2.93 1.82 2.93 1.44 0 1.91-1.53 1.85-3.56h-1.74m6.64 5.28V.32h7.1v2h-4.58v3.4H38v2h-4.18v4.16h4.58v2zM44 .32h8.41v2h-2.98v11.51h-2.52V2.3H44zM54.11 6c.11-3.44.38-6 4.41-6s4.3 2.56 4.41 6v1.92c0 3.6-.27 6.23-4.41 6.23s-4.41-2.63-4.41-6.23zm2.59 3.18c0 1.12.09 2.93 1.82 2.93s1.82-1.85 1.82-3.11V5.51c0-1.08.05-3.48-1.82-3.48S56.7 4.39 56.7 5.44zm8.53 4.65V.32h5.15c2.41 0 3.15 1.94 3.15 3.83a4 4 0 0 1-1.26 3.21 4.42 4.42 0 0 1-2.83.81h-1.69v5.65zm2.52-7.63h1.35c1.1 0 1.84-.47 1.84-2.11s-.61-1.78-2-1.78h-1.19z"/></g></g></svg>