<svg xmlns="http://www.w3.org/2000/svg" viewBox="0 0 28.68 38.51"><defs><style>.cls-1{fill:#323232}</style></defs><title>btn_pypage</title><g id="レイヤー_2" data-name="レイヤー 2"><path class="cls-1" d="M2 37.08H1v-5.5h1.58l.55 2.55c.09.42.15.85.2 1.27a12.77 12.77 0 0 1 .16-1.27l.55-2.55h1.64v5.5h-1v-1.73c0-1.09 0-2.19.09-3.28l-1.1 5H3l-1.08-5C2 33.16 2 34.26 2 35.35zm5.21-4.14l.42 2.2c.06.37.1.73.14 1.1a9.5 9.5 0 0 1 .15-1.07l.42-2.23h1l-1 4.2c-.24.94-.26 1.53-1.59 1.34v-.74c.16 0 .57.08.57-.19A2.36 2.36 0 0 0 7.2 37l-1-4.09zm4.55 4.14v-5.5h2.1c1 0 1.28.79 1.28 1.56a1.64 1.64 0 0 1-.51 1.31 1.76 1.76 0 0 1-1.15.33h-.69v2.3zm1-3.11h.55c.44 0 .75-.19.75-.86s-.25-.72-.83-.72h-.47zm4.61 3.11a.85.85 0 0 1-.06-.42 1.1 1.1 0 0 1-.38.39.83.83 0 0 1-.46.14c-.77 0-1.1-.38-1.1-1.24s.66-1.17 1.41-1.48c.41-.17.55-.35.47-.69 0-.18-.19-.21-.45-.21-.43 0-.5.23-.49.6h-.91c0-.79.24-1.34 1.44-1.34s1.38.69 1.37 1.23v2.44a2.25 2.25 0 0 0 .08.58zm-.13-2.18c-.23.17-.52.33-.77.53a.65.65 0 0 0-.16.5c0 .32.09.53.45.53.56 0 .46-.71.48-1.11zm2.86 2.65a.22.22 0 0 0 .11.18.67.67 0 0 0 .3.06c.4 0 .47-.32.47-.65v-.49a.88.88 0 0 1-.87.54c-.81 0-1-.72-1-1.38v-1.5c0-1.14.37-1.46 1-1.48a.79.79 0 0 1 .83.54v-.43h.95v4c0 .84-.23 1.52-1.54 1.52-.63 0-1.15-.24-1.2-.93zm.39-4c-.44 0-.4.39-.43.8v1.38c0 .39.12.71.42.71s.46-.26.46-.73v-1.22c.06-.33 0-.92-.45-.92zm2.29.82a1.29 1.29 0 0 1 1.39-1.54c1.33 0 1.47.69 1.47 1.82v.56h-1.91v.6c0 .55.21.65.5.65s.45-.26.44-.78h.95c0 .93-.34 1.51-1.32 1.51s-1.55-.52-1.52-1.74zm1.9.11v-.36c0-.42-.11-.55-.5-.55s-.45.37-.45.74v.17zm.71-21.88h-3.17a.25.25 0 0 0-.25.24v11.92a.25.25 0 0 1-.25.25H3.91a.25.25 0 0 1-.25-.25V7a.25.25 0 0 1 .25-.25h11.92a.25.25 0 0 0 .25-.25V3.28a.25.25 0 0 0-.25-.28H.25a.25.25 0 0 0-.25.28v25.14a.25.25 0 0 0 .25.25h25.14a.25.25 0 0 0 .24-.25V12.84a.24.24 0 0 0-.24-.24zm3-9.57h-2.5a.25.25 0 0 1-.24-.25V.25A.25.25 0 0 0 25.4 0h-3.2a.25.25 0 0 0-.2.25v2.53a.25.25 0 0 1-.3.22h-2.54a.25.25 0 0 0-.24.25v3.2a.25.25 0 0 0 .24.25h2.54a.25.25 0 0 1 .3.3v2.51a.25.25 0 0 0 .25.25h3.2a.25.25 0 0 0 .25-.25V7a.24.24 0 0 1 .24-.24h2.54a.25.25 0 0 0 .25-.25V3.28a.25.25 0 0 0-.3-.28z" id="SNS_menu"/></g></svg>