<svg xmlns="http://www.w3.org/2000/svg" viewBox="0 0 76.31 8.65"><defs><style>.cls-1{isolation:isolate}.cls-2{fill:#e9f1b2}</style></defs><title>gnav_privacy</title><g id="レイヤー_2" data-name="レイヤー 2"><g class="cls-1" id="gnav"><path class="cls-2" d="M0 8.45V.2h3.15c1.47 0 1.92 1.19 1.92 2.34a2.46 2.46 0 0 1-.77 2A2.69 2.69 0 0 1 2.57 5h-1v3.45zm1.54-4.67h.82c.64 0 1.13-.28 1.13-1.28s-.38-1.09-1.25-1.09h-.7zM7.63 4.9v3.55H6.09V.2H9c1.33 0 2.34.46 2.34 2 0 .9-.23 1.85-1.27 2 .91.12 1.19.7 1.19 1.5 0 .34 0 2.37.33 2.61v.15H9.91a8.32 8.32 0 0 1-.17-2.09c0-.51 0-1.2-.53-1.35a4.72 4.72 0 0 0-1.3-.12zm0-1.21h1.21c.51 0 .9-.36.9-1.19s-.38-1.08-1-1.09H7.63zm5.66 4.76V.2h1.54v8.25zM20.05.2h1.65l-1.78 8.25h-2.06L16 .2h1.65l1 5.29c.09.46.14.94.19 1.41a6.85 6.85 0 0 1 .07.68A6.85 6.85 0 0 1 19 6.9c0-.47.1-.95.19-1.41zm1.53 8.25l2-8.25h2.08l1.84 8.25h-1.65l-.41-2.09h-1.8l-.41 2.09zm2.3-3.3h1.32l-.42-2.35c-.08-.38-.11-.76-.15-1.14 0-.19 0-.37-.06-.55 0 .18 0 .36-.05.55 0 .38-.08.76-.15 1.14zm9.35.36v.47c-.08 1.51-.58 2.66-2.3 2.66-2.53 0-2.7-1.61-2.7-3.81V3.66c.07-2.1.23-3.66 2.7-3.66a2.06 2.06 0 0 1 2.26 2.13 4 4 0 0 1 0 .63h-1.52c-.07-.53 0-1.52-.77-1.52-1.21 0-1.11 1.44-1.11 2.08v2.29c0 .68.05 1.79 1.11 1.79.85 0 .75-1.36.78-1.89zm3.17-3.14a5.56 5.56 0 0 1 .36 1.26 7.06 7.06 0 0 1 .51-1.56L38 .2h1.68l-2.15 4.74v3.51H36V4.94L33.85.2h1.68zm6.93 6.08V.2h3.15C48 .2 48.4 1.39 48.4 2.54a2.46 2.46 0 0 1-.77 2A2.69 2.69 0 0 1 45.9 5h-1v3.45zm1.54-4.67h.82c.67 0 1.12-.29 1.12-1.29s-.37-1.09-1.24-1.09h-.7zm4.5-.12c.07-2.1.23-3.66 2.7-3.66s2.63 1.56 2.7 3.66v1.18c0 2.2-.17 3.81-2.7 3.81s-2.7-1.65-2.7-3.81zM51 5.61c0 .68.06 1.79 1.11 1.79s1.11-1.13 1.11-1.93v-2.1c0-.66 0-2.12-1.11-2.12S51 2.68 51 3.32zm5.17 2.84V.2h1.54v7h2.86v1.25zm5.73 0V.2h1.54v8.25zm7.93-2.94v.47c-.08 1.51-.58 2.66-2.3 2.66C65 8.65 64.8 7 64.8 4.84V3.66C64.87 1.56 65 0 67.5 0a2.06 2.06 0 0 1 2.26 2.13 4 4 0 0 1 0 .63h-1.49c-.07-.53 0-1.52-.77-1.52-1.21 0-1.11 1.44-1.11 2.08v2.29c0 .68.05 1.79 1.11 1.79.85 0 .75-1.36.78-1.89zM73 2.37a5.56 5.56 0 0 1 .36 1.26 7.06 7.06 0 0 1 .51-1.56L74.63.2h1.68l-2.18 4.74v3.51h-1.54V4.94L70.44.2h1.68z"/></g></g></svg>