<svg xmlns="http://www.w3.org/2000/svg" viewBox="0 0 65.36 78.63"><defs><style>.cls-1{fill:#fff}</style></defs><title>gnav_top</title><g id="レイヤー_2" data-name="レイヤー 2"><path class="cls-1" d="M5.41 74.81A35.32 35.32 0 0 0 1.66 73v5.62H.05V68.08l2 .1c0 .14-.11.26-.36.3v3.38l.3-.4a34.69 34.69 0 0 1 4.3 1.88zm4.48-3.55a13.39 13.39 0 0 1 .85 2.55l-1.16.32a13.89 13.89 0 0 0-.82-2.54zm7 .28a.28.28 0 0 1-.3.16c-1 3.53-2.84 5.62-5.58 6.72a5 5 0 0 0-.81-.94c2.56-1 4.36-2.87 5.17-6.43zm-4.11-.78a15 15 0 0 1 .57 2.64l-1.22.25a16.32 16.32 0 0 0-.61-2.65zm6.35-1.28h7.5l.11-.06 1.33.94a.8.8 0 0 1-.22.17c-1.07 4.49-3.11 6.66-6.78 8.1a7 7 0 0 0-1-1.26c3.25-1.21 5.28-3.3 5.91-6.43h-6.85zm9.19-2a1.3 1.3 0 1 1-1.3 1.3 1.29 1.29 0 0 1 1.3-1.31zm.84 1.3a.84.84 0 1 0-.84.84.83.83 0 0 0 .84-.85zM30 73.9c.87-.89 2.52-2.76 3.3-3.62a1.67 1.67 0 0 1 1.21-.61 2.11 2.11 0 0 1 1.28.63 58 58 0 0 1 5.57 6L40 77.55a53.71 53.71 0 0 0-5-5.85c-.26-.23-.4-.36-.54-.36s-.28.14-.5.37c-.4.48-1.85 2.24-2.61 3.1a.46.46 0 0 1-.16.42zm9-5.9a1.31 1.31 0 1 1-1.3 1.3A1.3 1.3 0 0 1 39 68zm.84 1.3a.84.84 0 0 0-.84-.9.85.85 0 1 0 0 1.7.85.85 0 0 0 .86-.85zm2.72 3.14h10V74h-9.5a.6.6 0 0 1-.41.23zm12.67-.98a16.6 16.6 0 0 1 3.07 1.11l-.65 1.31a17.88 17.88 0 0 0-3.07-1.18zm.33 5.54a12 12 0 0 0 8-6.64 14.87 14.87 0 0 0 1.31 1 13.33 13.33 0 0 1-8 6.86.32.32 0 0 1-.18.33zm1.11-8.54a19.73 19.73 0 0 1 3.09 1.19L59 71a17.57 17.57 0 0 0-3-1.27zm5.45-.38a8.92 8.92 0 0 1 1.42 1.67l-.73.55a10.42 10.42 0 0 0-1.37-1.7zm1.88-.63a10.6 10.6 0 0 1 1.41 1.64l-.72.55A11.33 11.33 0 0 0 63.28 68zM4.14 15.42A30.84 30.84 0 1 0 46.26 4.14 30.84 30.84 0 0 0 4.14 15.42zM43 9.86a24.28 24.28 0 0 1 6.6 5.64l-11.47 6.62a11.35 11.35 0 0 0-14.83.22l-11.41-6.58A24.23 24.23 0 0 1 43 9.86zm-15.62 27a7 7 0 1 1 9.57-2.56 7 7 0 0 1-9.61 2.6zM8.19 22.27l11.45 6.62a11.37 11.37 0 0 0 5.52 11.79 10.94 10.94 0 0 0 2.1 1V54.8A24.22 24.22 0 0 1 8.19 22.27zM51.82 43a24.18 24.18 0 0 1-17.07 11.8V41.51A11.35 11.35 0 0 0 42 28.43l.07.1L53.38 22a24.14 24.14 0 0 1-1.56 21z" id="gnav"/></g></svg>