<svg xmlns="http://www.w3.org/2000/svg" width="67.07" height="67.065" viewBox="0 0 67.07 67.065"><defs><style>.cls-1{fill:#abcd03}</style></defs><title>img_handle-green</title><g id="レイヤー_2"><path class="cls-1" d="M4.5 16.769A33.528 33.528 0 1 0 50.3 4.5 33.526 33.526 0 0 0 4.5 16.769zm42.2-6.045a26.258 26.258 0 0 1 7.221 6.132l-12.465 7.2a12.563 12.563 0 0 0-1.746-1.223 12.366 12.366 0 0 0-14.385 1.463l-12.401-7.164A26.344 26.344 0 0 1 46.7 10.724zm-16.975 29.4a7.61 7.61 0 1 1 10.4-2.789 7.616 7.616 0 0 1-10.396 2.789zM8.9 24.214l12.459 7.191a12.375 12.375 0 0 0 8.277 13.853v14.325A26.352 26.352 0 0 1 8.9 24.214zM56.344 46.7a26.291 26.291 0 0 1-18.562 12.824v-14.39a12.352 12.352 0 0 0 7.828-14.226l.071.113 12.359-7.133A26.289 26.289 0 0 1 56.344 46.7z" id="letter"/></g></svg>