<svg xmlns="http://www.w3.org/2000/svg" viewBox="0 0 694 432"><defs><style>.cls-1{fill:#b8d200}.cls-2{fill:#fff}</style></defs><title>アセット 7</title><g id="レイヤー_2" data-name="レイヤー 2"><g id="main_SHOP1_modal-03"><path class="cls-1" d="M0 0h694v432H0z"/><path class="cls-2" d="M174.35 183.64h-9.26v33.81c0 4.76-.33 9.52-6.35 9.52-6.28 0-6.61-4.76-6.61-9.52v-33.81h-9.26v34.6c0 11 3.57 16.2 15.81 16.2s15.68-5.22 15.68-16.2zm-28.64 61.55l-3.66 15.3h3.06l.75-3.88h3.35l.75 3.88H153l-3.47-15.3zm.61 9.18l.86-4.35c.14-.71.2-1.41.29-2.13 0-.34.06-.69.1-1 0 .33.08.67.1 1 .08.72.14 1.41.29 2.13l.78 4.35zm36.08-9.18h2.86v15.3h-2.86zm5.75 15.3h2.86v-6.93h4.91v-2.25h-4.91v-3.87h5.24v-2.25h-8.1v15.3zm-13.12-15.3h-2.86v15.3h8.17v-2.24h-5.31v-13.06zm-10.86 10.18c0-1.47-.51-2.55-2.2-2.78 1.92-.26 2.34-2 2.34-3.69 0-2.82-1.88-3.67-4.34-3.67h-5.41v15.3h2.86v-6.63h.51a8.75 8.75 0 0 1 2.43.2c1 .29 1 1.57 1 2.51a15.5 15.5 0 0 0 .3 3.88h3.14v-.29c-.71-.44-.63-4.2-.63-4.83zm-4.51-3.71h-2.24v-4.22h2.12c1.08 0 1.79.31 1.79 2 0 1.56-.73 2.15-1.67 2.22zm70.98-41.09h12.97v22.69h9.26v-49.62h-9.26v19.66h-12.97v-19.66h-9.26v49.62h9.26v-22.69zM80.49 233.26h9.26v-42.33h10.78v-7.29H69.64v7.29h10.85v42.33zm-9.15 14.18h3.34v13.05h2.86v-13.05h3.33v-2.25h-9.53v2.25zM27.86 171.5A57.71 57.71 0 0 0 0 163.74v12.43a45.33 45.33 0 0 1 21.65 6.1 45.41 45.41 0 0 1 12.49 10.61l-21.56 12.45a21.75 21.75 0 0 0-3-2.11A21.27 21.27 0 0 0 0 200.38v8.23a13.07 13.07 0 0 1 5.45 1.71 13.16 13.16 0 0 1 4.82 18A13.14 13.14 0 0 1 0 234.83v44.87a58 58 0 0 0 49.09-29 58 58 0 0 0-21.23-79.2zm10.46 73a45.47 45.47 0 0 1-32.1 22.18v-24.89a21.25 21.25 0 0 0 11.16-9.38 21.3 21.3 0 0 0 2.37-15.22l.12.2L41.25 205a45.47 45.47 0 0 1-2.93 39.49zm49.12.32c-4.57 0-4.88 2.9-5 6.79v2.18c0 4.08.3 7.06 5 7.06s5-3 5-7.06v-2.18c-.12-3.89-.44-6.79-5-6.79zm2.06 6.25V255c0 1.47 0 3.57-2.06 3.57s-2.06-2.06-2.06-3.33V251c0-1.18-.18-3.85 2.06-3.85s2.06 2.69 2.06 3.92zm47.14 7.48c-2 0-2.06-2.06-2.06-3.33V251c0-1.18-.18-3.85 2.06-3.85 1.41 0 1.3 1.83 1.43 2.81h2.82a7.06 7.06 0 0 0-.06-1.16c-.2-2.61-1.63-3.92-4.18-4-4.57 0-4.87 2.9-5 6.79v2.18c0 4.08.3 7.06 5 7.06 3.18 0 4.12-2.14 4.27-4.94 0-.29 0-.59.06-.88h-2.88c-.1.99.11 3.54-1.46 3.54zm126.54-74.91h9.26v49.62h-9.26zm-169.17 63.8h3.35v13.05h2.85v-13.05h3.33v-2.25h-9.53v2.25zm25.45-2.25h-2.86v15.3h8.16v-2.24h-5.3v-13.06zM131 209.78c-2.58-2.51-8.2-6.22-11.25-8.14s-5.29-3.31-5.29-7.08c0-3.38 2-4.63 5.09-4.63 5.09 0 5.49 4.37 5.42 8.8h8.93c-.06-4.89.33-16.28-14.42-16.28-9.79 0-14.55 4.63-14.55 13.11a13.77 13.77 0 0 0 2.38 7.6c3.77 5 9.79 7.67 14.62 11.45 2.38 1.65 3.71 3.64 3.71 6.55 0 3.77-1.85 5.82-5.76 5.82-4.56 0-6-3.5-5.82-8.33v-2.91h-9.26v3.64c0 8.86 4 15.08 15.08 15.08 9.06 0 15.28-4.89 15.28-14.29.03-4.3-.96-7.28-4.16-10.39zm-23.29 35.41l-3.65 15.3h3.06l.76-3.88h3.35l.75 3.88H115l-3.47-15.3zm.61 9.18l.86-4.35c.14-.71.2-1.41.28-2.13 0-.34.06-.69.1-1 0 .33.08.67.1 1 .08.72.14 1.41.28 2.13l.77 4.35zm89.85 6.12h8.04v-2.24h-5.18v-4.72h4.78v-2.24h-4.78v-3.85h5.18v-2.25h-8.04v15.3zM365 250.19a2.62 2.62 0 0 0-2.24 1v-1c0-.92-.1-2.73 1.51-2.86 1.17-.08 1.21.69 1.23 1.2h2.65c.08-2.43-1.53-3.45-3.78-3.45-3 0-4.43 1.31-4.43 6.18V255c0 3.59.87 5.81 4.28 5.81s4.23-2 4.23-5.81c.01-3.16-1.01-4.81-3.45-4.81zm-.74 8.37c-1.53.14-1.49-1.47-1.47-3.37 0-1.26 0-2.75 1.41-2.75s1.39 1.65 1.39 2.75c.01 1.96.17 3.34-1.32 3.36zM354 245.13c-3.31 0-4.25 2-4.25 5.82 0 3.14 1 4.79 3.47 4.79a2.62 2.62 0 0 0 2.25-1v1c0 .92.12 2.86-1.49 2.86-1.16.06-1.23-.69-1.25-1.2h-2.65c-.08 2.43 1.53 3.45 3.78 3.45 3 0 4.4-1.3 4.4-6.18V251c.03-3.65-.86-5.87-4.26-5.87zm1.41 5.61c0 1.26 0 2.76-1.41 2.76s-1.39-1.66-1.39-2.76c0-2-.17-3.35 1.33-3.37s1.48 1.47 1.46 3.37zm-14.2-2.9v2h3.45v10.61h2.86v-15.3h-2.1c-.58 2.14-2.23 2.67-4.21 2.69zm33.18-2.71c-3.3 0-4.24 2-4.24 5.82 0 3.14 1 4.79 3.47 4.79a2.62 2.62 0 0 0 2.24-1v1c0 .92.12 2.86-1.49 2.86-1.17.06-1.22-.69-1.24-1.2h-2.65c-.08 2.43 1.53 3.45 3.78 3.45 3 0 4.41-1.3 4.41-6.18V251c.03-3.65-.87-5.87-4.28-5.87zm1.41 5.61c0 1.26 0 2.76-1.41 2.76s-1.39-1.66-1.39-2.76c0-2-.16-3.35 1.33-3.37s1.49 1.47 1.47 3.37zm-49.49 9.75h8.04v-2.24h-5.18v-4.72h4.77v-2.24h-4.77v-3.85h5.18v-2.25h-8.04v15.3zm-1.41-76.85l-11.84 49.62H323l2.44-12.56h10.85l2.45 12.56h9.92l-11.26-49.62zm2 29.78l2.78-14.09c.46-2.32.66-4.57.92-6.88.07-1.13.2-2.25.33-3.31h.07c.14 1.06.27 2.19.33 3.31.27 2.32.46 4.56.93 6.88l2.51 14.09zm152.03-21.17h4.23c.2 4-1.39 5.89-4.23 6.28v3c6.15-1 8-4.17 8-10.06v-7.88h-8zm39.81 17.53c-2.58-2.51-8.2-6.22-11.25-8.14s-5.29-3.31-5.29-7.08c0-3.38 2-4.63 5.09-4.63 5.09 0 5.49 4.37 5.42 8.8h8.93c-.06-4.89.33-16.28-14.42-16.28-9.79 0-14.55 4.63-14.55 13.11a13.77 13.77 0 0 0 2.38 7.61c3.77 5 9.79 7.67 14.61 11.44 2.38 1.65 3.71 3.64 3.71 6.55 0 3.77-1.85 5.82-5.76 5.82-4.56 0-6-3.5-5.82-8.33v-2.91h-9.26v3.64c0 8.86 4 15.08 15.07 15.08 9.06 0 15.28-4.89 15.28-14.29.03-4.3-.96-7.28-4.14-10.39zM474 216.66c0-4.76-1.65-8.27-7.14-9v-.13c6.22-.86 7.61-6.55 7.61-12 0-9.14-6.09-11.91-14.09-11.91h-17.57v49.62h9.26V211.9h1.66a28.37 28.37 0 0 1 7.87.66c3.18.92 3.11 5.09 3.18 8.14.06 3.31-.13 9.39 1 12.57h10.18v-.93c-2.26-1.46-1.96-13.63-1.96-15.68zm-14.62-12h-7.27v-13.7h6.88c3.5.07 5.82 1 5.82 6.55-.04 4.93-2.42 6.92-5.47 7.11zM414 183.65l-11.84 49.62H412l2.45-12.57h10.85l2.45 12.57h9.92l-11.25-49.62zm2 29.78l2.78-14.09c.46-2.32.66-4.57.92-6.88.07-1.13.2-2.25.33-3.31h.13c.14 1.06.26 2.19.33 3.31.26 2.32.46 4.57.92 6.88l2.51 14.09zM384.6 227c-6.35 0-6.68-6.68-6.68-10.78v-13.78c0-3.84-.59-12.51 6.68-12.51 4.56 0 4.23 6 4.63 9.13h9.13a24.09 24.09 0 0 0-.2-3.77c-.66-8.48-5.29-12.71-13.56-12.84-14.82 0-15.81 9.4-16.21 22v7.08c0 13.22 1 22.88 16.21 22.88 10.32 0 13.36-6.94 13.82-16 .07-.93.13-1.92.2-2.84h-9.32c-.21 3.21.39 11.43-4.7 11.43zm-87.67 18.19h2.86v15.3h-2.86zm-58.25 0l-3.68 15.3h3.06l.76-3.88h3.35l.76 3.88H246l-3.47-15.3zm.61 9.18l.86-4.35c.14-.71.2-1.41.29-2.13 0-.34.06-.69.1-1 0 .33.08.67.1 1 .08.72.14 1.41.28 2.13l.78 4.35zm80.49 4.18c-2 0-2.06-2.06-2.06-3.33V251c0-1.18-.18-3.85 2.06-3.85 1.41 0 1.31 1.83 1.43 2.81H324a7.84 7.84 0 0 0-.06-1.16c-.2-2.61-1.63-3.92-4.19-4-4.57 0-4.88 2.9-5 6.79v2.18c0 4.08.31 7.06 5 7.06 3.19 0 4.13-2.14 4.27-4.94 0-.29 0-.59.06-.88h-2.88c-.03.99.15 3.54-1.42 3.54zM219.6 245.19h-6v15.3h5.28a4.21 4.21 0 0 0 2.12-.41c2.34-1.36 2.34-4.86 2.34-7.87 0-2.53-.19-4.22-.84-5.29a3.54 3.54 0 0 0-2.9-1.73zm-1.85 13.06h-1.25v-10.81h1.88c1.71 0 2.08 1.43 2.08 5-.01 4.46-.17 5.81-2.72 5.81zm39.95 2.24h8.05v-2.24h-5.19v-4.72h4.77v-2.24h-4.77v-3.85h5.19v-2.25h-8.05v15.3zm-31.75 0h8.04v-2.24h-5.19v-4.72h4.78v-2.24h-4.78v-3.85h5.19v-2.25h-8.04v15.3zm24.49-15.3h-2.86v15.3h8.16v-2.24h-5.3v-13.06zm58.97 3c0 1.37.06 2.84.14 4.31s.18 3 .28 4.35a51 51 0 0 0-2-6.08l-2.23-5.57h-3v15.3h2.85v-2.87c0-1.23-.06-2.76-.14-4.29s-.2-3.1-.31-4.37a51.85 51.85 0 0 0 2 6.08l2.23 5.45h3v-15.3h-2.86zm-31.85 7.18c0-1.47-.51-2.55-2.21-2.78 1.92-.26 2.35-2 2.35-3.69 0-2.82-1.88-3.67-4.35-3.67h-5.41v15.3h2.86v-6.63h.51a8.76 8.76 0 0 1 2.43.2c1 .29 1 1.57 1 2.51a15.2 15.2 0 0 0 .31 3.88h3.14v-.29c-.71-.44-.63-4.2-.63-4.83zm-4.56-3.71h-2.2v-4.22h2.12c1.08 0 1.8.31 1.8 2 0 1.56-.72 2.15-1.72 2.22zm31.26-68.02l-4.43 11.26a42.25 42.25 0 0 0-3 9.39h-.13a33.2 33.2 0 0 0-2.18-7.61l-5.23-13h-10.16L292 212.16v21.1h9.26v-21.1l13.1-28.52zM198.62 227c-6.35 0-6.68-6.68-6.68-10.78v-13.78c0-3.83-.6-12.51 6.68-12.51 4.57 0 4.24 6 4.63 9.13h9.13a24.12 24.12 0 0 0-.2-3.77c-.66-8.47-5.29-12.71-13.56-12.84-14.82 0-15.81 9.4-16.2 22v7.08c0 13.23 1 22.89 16.2 22.89 10.32 0 13.36-6.94 13.83-16 .07-.92.13-1.92.2-2.84h-9.33c-.2 3.19.4 11.42-4.7 11.42zm91.16 23.74c-.9-.57-1.63-1-1.63-2.18s.61-1.43 1.57-1.43c1.57 0 1.69 1.35 1.67 2.71h2.76c0-1.51.1-5-4.45-5-3 0-4.49 1.43-4.49 4a4.23 4.23 0 0 0 .74 2.35c1.16 1.53 3 2.37 4.51 3.53a2.32 2.32 0 0 1 1.14 2 1.58 1.58 0 0 1-1.78 1.79c-1.41 0-1.86-1.08-1.8-2.57v-.9h-2.85v1.12c0 2.74 1.22 4.65 4.65 4.65 2.8 0 4.71-1.51 4.71-4.41a4 4 0 0 0-1.28-3.2 25.93 25.93 0 0 0-3.47-2.46z"/></g></g></svg>