<svg xmlns="http://www.w3.org/2000/svg" viewBox="0 0 159.7 55.59"><defs><style>.cls-1{isolation:isolate}.cls-2{fill:#e6efa6}</style></defs><title>tit_shop</title><g id="レイヤー_2" data-name="レイヤー 2"><g class="cls-1" id="main_SHOP1"><path class="cls-2" d="M21.57 17.4c.07-4.74-.35-9.41-5.8-9.41-3.32 0-5.45 1.34-5.45 5 0 4 2.55 5.59 5.66 7.57s9.26 6 12 8.7c3.39 3.32 4.46 6.51 4.46 11.1 0 10-6.65 15.28-16.34 15.28C4.24 55.59 0 48.94 0 39.46v-3.89h9.9v3.11c-.21 5.16 1.34 8.91 6.22 8.91 4.17 0 6.15-2.19 6.15-6.22 0-3.11-1.42-5.23-4-7-5.16-4-11.6-6.93-15.63-12.24A14.73 14.73 0 0 1 .14 14C.14 5 5.23 0 15.7 0 31.47 0 31 12.16 31.12 17.4zm19.1 36.92v-53h9.9v21h13.86v-21h9.9v53h-9.9V30.06H50.57v24.26zm42.72-30.77C83.81 10 84.87 0 100.72 0s16.9 10 17.28 23.55v7.57c0 14.14-1.06 24.47-17.33 24.47S83.39 45.26 83.39 31.12zm10.18 12.52c0 4.39.35 11.53 7.14 11.53 7.07 0 7.14-7.29 7.14-12.38V21.64c0-4.24.21-13.65-7.14-13.65-7.78 0-7.14 9.26-7.14 13.37zm33.53 18.25v-53h20.23c9.48 0 12.38 7.64 12.38 15.06 0 4.53-1.2 9.62-5 12.59-3.11 2.48-7.29 3.25-11.1 3.18H137v22.17zm9.9-30h5.3c4.31 0 7.21-1.84 7.21-8.27 0-6.08-2.4-7-8-7H137z"/></g></g></svg>