<svg xmlns="http://www.w3.org/2000/svg" viewBox="0 0 164.64 25.15"><defs><style>.cls-1{fill:none}.cls-2{clip-path:url(#clip-path)}.cls-3{isolation:isolate}.cls-4{fill:#fff}</style><clipPath id="clip-path" transform="translate(0 -1.95)"><path class="cls-1" d="M0 0h317.44v27.58H0z"/></clipPath></defs><title>txt_shop_shinkoiwa</title><g id="レイヤー_2" data-name="レイヤー 2"><g class="cls-2" id="main_SHOP1"><g class="cls-3"><path class="cls-4" d="M9.76 9.82c0-2.14-.16-4.25-2.62-4.25-1.5 0-2.46.61-2.46 2.24 0 1.82 1.15 2.53 2.56 3.42a41.23 41.23 0 0 1 5.44 3.94 6.26 6.26 0 0 1 2 5c0 4.54-3 6.91-7.39 6.91-5.38 0-7.3-3-7.3-7.3V18h4.49v1.41c-.1 2.34.61 4 2.82 4a2.48 2.48 0 0 0 2.78-2.82 3.63 3.63 0 0 0-1.79-3.09C6 15.68 3 14.36 1.22 12A6.67 6.67 0 0 1 .06 8.29c0-4.1 2.3-6.34 7-6.34 7.14 0 6.94 5.5 7 7.87zm8.64 16.7v-24h4.48V12h6.27V2.53h4.48v24h-4.48v-11h-6.27v11zm19.6 0v-24h4.48v24zM57.57 2.53H62v24h-4.62L53.89 18a80.66 80.66 0 0 1-3.2-9.54h-.06c.16 2 .35 4.42.48 6.85s.22 4.8.22 6.72v4.51h-4.48v-24h4.64L55 11.26a80.45 80.45 0 0 1 3.2 9.54h.06c-.16-2.18-.32-4.51-.45-6.82s-.22-4.61-.22-6.75zm8.19 15.83v-3.68h7.62v3.68zm11.3 8.16v-24h4.48v10.66h.06a47.88 47.88 0 0 1 2.82-5.76L87 2.53h5.06l-5.92 10.3 6.21 13.7h-5.02l-4.23-9.48-1.57 2.59v6.88zM94.62 12.6c.19-6.11.67-10.66 7.84-10.66s7.65 4.54 7.84 10.66V16c0 6.4-.48 11.07-7.84 11.07S94.62 22.43 94.62 16zm4.61 5.66c0 2 .16 5.22 3.23 5.22s3.23-3.3 3.23-5.6v-6.14c0-1.92.1-6.17-3.23-6.17-3.52 0-3.23 4.19-3.23 6zm15.2 8.26v-24h4.48v24zm24.93-11.58c.45 2.4.67 5.47 1 8.54h.06c.06-.58.1-1.15.16-1.73.16-2 .35-4.1.67-6.14L143 2.53h4.64l-4.45 24h-5.38l-1.79-9.47c-.48-2.53-.64-5.09-1-7.65H135c-.32 2.56-.48 5.12-1 7.65l-1.6 9.47h-5.3l-4.58-24h4.64l2 13.09c.32 2 .51 4.1.67 6.14.06.58.1 1.15.13 1.73h.04c.35-3.07.58-6.14 1-8.54l2.18-12.42H137zm8.06 11.58l5.73-24h6l5.44 24h-4.8l-1.18-6.08h-5.25l-1.18 6.08zm6.69-9.6H158l-1.22-6.82c-.22-1.12-.32-2.21-.45-3.33 0-.54-.1-1.09-.16-1.6h-.06c-.06.51-.13 1.06-.16 1.6-.13 1.12-.22 2.21-.45 3.33z" transform="translate(0 -1.95)"/></g></g></g></svg>