<svg xmlns="http://www.w3.org/2000/svg" viewBox="0 0 115.58 25.15"><defs><style>.cls-1{fill:none}.cls-2{clip-path:url(#clip-path)}.cls-3{isolation:isolate}.cls-4{fill:#fff}</style><clipPath id="clip-path" transform="translate(-.78 -1.22)"><path class="cls-1" d="M0 0h317.44v27.58H0z"/></clipPath></defs><title>txt_shop_mobara</title><g id="レイヤー_2" data-name="レイヤー 2"><g class="cls-2" id="main_SHOP1"><g class="cls-3"><path class="cls-4" d="M5.26 25.79H.78v-24h7.14l2.4 11.13a53.73 53.73 0 0 1 .83 5.54h.06a52.35 52.35 0 0 1 .7-5.54l2.4-11.13h7.1v24h-4.47v-7.55c0-4.77.1-9.54.38-14.3h-.06l-4.8 21.85H9.74L5 3.94h-.12c.29 4.77.38 9.54.38 14.3zm19.59-13.92c.19-6.11.67-10.66 7.84-10.66s7.65 4.54 7.84 10.66v3.42c0 6.4-.48 11.07-7.84 11.07s-7.84-4.67-7.84-11.07zm4.61 5.66c0 2 .16 5.22 3.23 5.22s3.23-3.3 3.23-5.6V11c0-1.92.1-6.17-3.23-6.17-3.52 0-3.23 4.19-3.23 6zm15.07 8.26v-24h7.23c1.92 0 3.81.13 5.09 1.76A6.44 6.44 0 0 1 58 7.87c0 2.08-.45 4.13-2.88 5V13c2.53.35 3.49 2.46 3.49 5.57a11.39 11.39 0 0 1-.32 2.94c-1 3-2.69 4.32-5.89 4.32zm5.31-14.3c1.09 0 2.5.06 3.2-.83a4.58 4.58 0 0 0 .48-2.59c0-1.79-.38-2.69-2.43-2.75H49v6.18zM50 22.27a6.77 6.77 0 0 0 2.65-.27c1.22-.53 1.35-2.1 1.35-3.31 0-2.59-.51-3.68-3.3-3.68H49v7.26zm10.53 3.52l5.73-24h6l5.44 24h-4.8l-1.18-6.08h-5.21l-1.18 6.08zm6.69-9.6h3.84l-1.22-6.81c-.22-1.12-.32-2.21-.45-3.33 0-.54-.1-1.09-.16-1.6h-.06C69.1 5 69 5.5 69 6c-.13 1.12-.22 2.21-.45 3.33zm18.04-.73v10.33h-4.48v-24h8.48c3.87 0 6.82 1.34 6.82 5.76 0 2.62-.67 5.37-3.68 5.79v.06c2.66.35 3.46 2 3.46 4.35 0 1-.13 6.88 1 7.58v.45h-4.97c-.54-1.54-.45-4.48-.48-6.08s0-3.49-1.54-3.94a13.75 13.75 0 0 0-3.81-.32zm0-3.52h3.52c1.47-.1 2.62-1.06 2.62-3.46 0-2.69-1.12-3.14-2.82-3.17h-3.32zm13.89 13.85l5.73-24h6l5.44 24h-4.8l-1.18-6.08h-5.25L104 25.79zm6.69-9.6h3.84l-1.22-6.82c-.22-1.12-.32-2.21-.45-3.33 0-.54-.1-1.09-.16-1.6h-.06c-.06.51-.13 1.06-.16 1.6-.13 1.12-.22 2.21-.45 3.33z" transform="translate(-.78 -1.22)"/></g></g></g></svg>