<svg xmlns="http://www.w3.org/2000/svg" viewBox="0 0 86.51 17.19"><defs><style>.cls-1{isolation:isolate}.cls-2{fill:#323232}.cls-3{fill:none;stroke:#323232;stroke-linecap:round;stroke-linejoin:round;stroke-width:1.6px}</style></defs><title>txt_notice</title><g id="レイヤー_2" data-name="レイヤー 2"><g id="main_SHOP1"><g class="cls-1"><path class="cls-2" d="M28.38 4.73a18.3 18.3 0 0 1-3 .6v2.41a12.93 12.93 0 0 1 3.36-.58c2.88 0 5.1 1.46 5.1 4.29a4.07 4.07 0 0 1-4.45 4.42A4.17 4.17 0 0 1 26 14.3a12.54 12.54 0 0 0 1.09-1.69 2.87 2.87 0 0 0 2.22 1.2 2.12 2.12 0 0 0 2.18-2.36c0-1.41-1-2.41-2.9-2.41a12.11 12.11 0 0 0-3.31.6v3.48a2.93 2.93 0 0 1-3.2 3 3 3 0 0 1-3.27-3A4.52 4.52 0 0 1 21 9.76a11.79 11.79 0 0 1 2.23-1.25v-3c-1.16.07-2.46.09-3.89.09V3.49c1.46 0 2.76 0 3.92-.07v-3L26 .49c0 .21-.18.37-.46.41-.05.69-.09 1.5-.12 2.3a12.89 12.89 0 0 0 2.69-.65zm-5.17 5.79c-1 .62-2.36 1.41-2.36 2.59a1.19 1.19 0 1 0 2.38-.11c0-.4 0-1.44-.02-2.48zm9.91-4.08a13.66 13.66 0 0 0-4-2.34l1.07-1.83a13.42 13.42 0 0 1 4.13 2.29zm9.12-2.25v3.04h2.71v2h-2.89c-.05.35-.12.7-.19 1.06.86.88 2.62 2.8 3.06 3.31l-1.37 1.72c-.53-.81-1.5-2-2.3-3a9.43 9.43 0 0 1-3.17 4.2A7.66 7.66 0 0 0 36.68 15 8.49 8.49 0 0 0 40 9.24h-3.25v-2h3.45V4.19h-.88a12 12 0 0 1-1.23 2.6 11.32 11.32 0 0 0-1.53-1.11A16.11 16.11 0 0 0 38.38 0l2.3.54c-.05.16-.19.23-.44.23-.09.48-.21 1-.33 1.46h4.72v2zm3.33-2.67h6.88v14.3h-2.17v-1H47.6v1.28h-2zm2 11.29h2.67V3.5H47.6zM59.22 4a.49.49 0 0 1-.46.3c-.21 2.45-.4 3.85-.72 4.31a11.36 11.36 0 0 1 5.72-1.79c2.57 0 4.5 1.42 4.49 4 0 3.36-2.55 5-9.59 5.28a11.13 11.13 0 0 0-.81-2c5.86-.23 8-1.09 8-3.18 0-1.25-.9-2.09-2.45-2.09-2.18 0-4.89 1.06-5.91 2.67l-2-.92c.37-.28 1-3.69 1-6.91zM58.87.32a30.64 30.64 0 0 1 6.77 1.39l-.72 2.16a29.76 29.76 0 0 0-6.7-1.5zm27.64 5.89c-.92.07-2.2.23-3.54.42a18.45 18.45 0 0 1-.23 3.57 2.26 2.26 0 0 1-2.38 1.8 5.8 5.8 0 0 1-2.57-.7A10.17 10.17 0 0 0 78 9.54a4.54 4.54 0 0 0 1.87.6.81.81 0 0 0 .79-.65 19 19 0 0 0 .12-2.53c-1.65.26-3.29.54-4.57.77 0 1.58.05 3.13.11 3.91.14 1.62.81 2.15 2.53 2.22h1a28.75 28.75 0 0 0 4.61-.33l.05 2.06a41.81 41.81 0 0 1-4.43.21c-2.92 0-5.54-.16-5.88-4-.09-.81-.12-2.2-.16-3.66-1 .21-2.43.47-3.1.63l-.33-2.08c.81-.12 2.2-.35 3.41-.56V1.77l2.76.23c0 .21-.16.33-.49.41-.05.86 0 2.18-.05 3.36l4.5-.77c-.05-1.44-.12-3.15-.23-4.38l2.69.09c0 .18-.11.3-.39.41.07 1 .09 2.36.12 3.52 1.23-.19 2.5-.41 3.41-.53z"/></g><g class="cls-1"><path class="cls-3" d="M6.4 16.39l4.97-7.33L6.4 1.74M.8 16.39l4.97-7.33L.8 1.74"/></g></g></g></svg>