<svg xmlns="http://www.w3.org/2000/svg" viewBox="0 0 150.91 25.15"><defs><style>.cls-1{fill:none}.cls-2{clip-path:url(#clip-path)}.cls-3{isolation:isolate}.cls-4{fill:#fff}</style><clipPath id="clip-path" transform="translate(-.4 -1.57)"><path class="cls-1" d="M0 0h317.44v27.58H0z"/></clipPath></defs><title>txt_shop_chibakita</title><g id="レイヤー_2" data-name="レイヤー 2"><g class="cls-2" id="main_SHOP1"><g class="cls-3"><path class="cls-4" d="M15 17.6c0 .45-.06.93-.1 1.38-.22 4.38-1.7 7.74-6.69 7.74C.88 26.72.4 22 .4 15.65v-3.43c.19-6.11.67-10.65 7.84-10.65 4 .06 6.24 2.11 6.56 6.21a11.64 11.64 0 0 1 .1 1.82h-4.42c-.19-1.54 0-4.42-2.24-4.42C4.72 5.19 5 9.38 5 11.23v6.66c0 2 .16 5.22 3.23 5.22 2.46 0 2.18-4 2.27-5.5zm3.61 8.54v-24h4.48v9.5h6.27V2.15h4.48v24h-4.48v-11h-6.27v11zm19.58 0v-24h4.48v24zm8.81 0v-24h7.23c1.92 0 3.81.13 5.09 1.76a6.44 6.44 0 0 1 1.18 4.32c0 2.08-.45 4.13-2.88 5v.06c2.53.35 3.49 2.46 3.49 5.57a11.37 11.37 0 0 1-.32 2.94c-1 3-2.69 4.32-5.89 4.32zm5.31-14.3c1.09 0 2.5.06 3.2-.83A4.58 4.58 0 0 0 56 8.42c0-1.79-.38-2.69-2.43-2.75h-2.13v6.18zm.13 10.78a6.77 6.77 0 0 0 2.69-.26c1.22-.54 1.38-2.11 1.38-3.33 0-2.59-.51-3.68-3.3-3.68h-1.77v7.26zM63 26.14l5.73-24h6l5.44 24h-4.8l-1.18-6.08h-5.25l-1.18 6.08zm6.69-9.6h3.84l-1.26-6.81C72 8.61 72 7.52 71.82 6.4c0-.54-.1-1.09-.16-1.6h-.06c-.06.51-.13 1.06-.16 1.6-.13 1.12-.22 2.21-.45 3.33zM82 18v-3.7h7.62V18zm11.29 8.14v-24h4.48V12.8h.06a47.88 47.88 0 0 1 2.82-5.8l2.62-4.9h5.06l-5.92 10.3 6.21 13.7h-5.06l-4.22-9.47-1.57 2.59v6.88zm18.47 0v-24h4.48v24zm7.87-23.99h14.94v3.52h-5.22v20.47h-4.48V5.67h-5.25zm14.47 23.99l5.73-24h6l5.44 24h-4.8l-1.18-6.08h-5.25l-1.18 6.08zm6.69-9.6h3.84l-1.22-6.82c-.22-1.12-.32-2.21-.45-3.33 0-.54-.1-1.09-.16-1.6h-.06c-.06.51-.13 1.06-.16 1.6-.13 1.12-.22 2.21-.45 3.33z" transform="translate(-.4 -1.57)"/></g></g></g></svg>