<svg xmlns="http://www.w3.org/2000/svg" viewBox="0 0 107.84 25.15"><defs><style>.cls-1{fill:none}.cls-2{clip-path:url(#clip-path)}.cls-3{isolation:isolate}.cls-4{fill:#fff}</style><clipPath id="clip-path" transform="translate(0 -1.22)"><path class="cls-1" d="M0 0h317.44v27.58H0z"/></clipPath></defs><title>txt_shop_togane</title><g id="レイヤー_2" data-name="レイヤー 2"><g class="cls-2" id="main_SHOP1"><g class="cls-3"><path class="cls-4" d="M0 1.79h14.94v3.52H9.73v20.48H5.25V5.31H0zm17.41 10.08c.19-6.11.67-10.66 7.84-10.66s7.65 4.54 7.84 10.66v3.42c0 6.4-.48 11.07-7.84 11.07s-7.84-4.67-7.84-11.07zM22 17.53c0 2 .16 5.22 3.23 5.22s3.23-3.3 3.23-5.6V11c0-1.92.1-6.17-3.23-6.17C21.73 4.83 22 9 22 10.88zm14.77-5.66c.19-6.11.67-10.66 7.84-10.66 3.84 0 6.5 1 7.52 5.18a14.9 14.9 0 0 1 .22 2.91h-4.48c-.06-2.43-.22-4.35-3.26-4.48-3.52 0-3.23 4.19-3.23 6v6.66c0 2 .16 5.22 3.23 5.22 2.56 0 3.39-2.72 3.3-6.33H44.8v-3.48h7.46v12.9H48.9V23h-.06a4.55 4.55 0 0 1-4.22 3.33c-7.36 0-7.84-4.67-7.84-11.07zm18.72 13.92l5.73-24h6l5.44 24H67.9l-1.18-6.08h-5.25l-1.18 6.08zm6.69-9.6H66l-1.2-6.81c-.22-1.12-.32-2.21-.45-3.33 0-.54-.1-1.09-.16-1.6h-.06C64.06 5 64 5.5 64 6c-.13 1.12-.22 2.21-.45 3.33zm24.35-14.4H91v24h-4.67l-3.49-8.54a80.66 80.66 0 0 1-3.2-9.54h-.06c.16 2 .35 4.42.48 6.85s.22 4.8.22 6.72v4.51h-4.47v-24h4.64l3.49 8.74a80.45 80.45 0 0 1 3.2 9.54h.06c-.16-2.18-.32-4.51-.45-6.82s-.22-4.61-.22-6.75zm8.7 24v-24h12.61v3.52h-8.13v6h7.49v3.52h-7.49v7.39h8.13v3.52z" transform="translate(0 -1.22)"/></g></g></g></svg>