<svg xmlns="http://www.w3.org/2000/svg" viewBox="0 0 97.76 24"><defs><style>.cls-1{fill:none}.cls-2{clip-path:url(#clip-path)}.cls-3{isolation:isolate}.cls-4{fill:#fff}</style><clipPath id="clip-path" transform="translate(-.82 -1.79)"><path class="cls-1" d="M0 0h317.44v27.58H0z"/></clipPath></defs><title>txt_shop_narita</title><g id="レイヤー_2" data-name="レイヤー 2"><g class="cls-2" id="main_SHOP1"><g class="cls-3"><path class="cls-4" d="M11.53 1.79H16v24h-4.66l-3.49-8.54a80.66 80.66 0 0 1-3.2-9.54h-.06c.16 2 .35 4.42.48 6.85s.22 4.8.22 6.72v4.51H.82v-24h4.64l3.49 8.74a80.45 80.45 0 0 1 3.2 9.54h.06c-.16-2.18-.32-4.51-.45-6.82s-.22-4.61-.22-6.75zm7.59 24l5.73-24h6l5.44 24h-4.8l-1.18-6.08H25.1l-1.18 6.08zm6.69-9.6h3.84l-1.22-6.81C28.21 8.25 28.11 7.17 28 6c0-.54-.1-1.09-.16-1.6h-.06c-.09.6-.15 1.1-.18 1.6-.13 1.12-.22 2.21-.45 3.33zm18.04-.73v10.33h-4.47v-24h8.48c3.87 0 6.82 1.34 6.82 5.76 0 2.62-.67 5.37-3.68 5.79v.06c2.66.35 3.46 2 3.46 4.35 0 1-.13 6.88 1 7.58v.45h-4.98c-.54-1.54-.45-4.48-.48-6.08s0-3.49-1.54-3.94a13.75 13.75 0 0 0-3.81-.32zm0-3.52h3.52c1.47-.1 2.62-1.06 2.62-3.46 0-2.69-1.12-3.14-2.82-3.17h-3.32zM59 25.79v-24h4.5v24zm7.9-24h14.94v3.52h-5.22v20.48h-4.48V5.31H66.9zm14.46 24l5.73-24h6l5.44 24h-4.8l-1.18-6.08h-5.21l-1.18 6.08zm6.64-9.6h3.84l-1.17-6.81c-.22-1.12-.32-2.21-.45-3.33 0-.54-.1-1.09-.16-1.6H90c-.06.51-.13 1.06-.16 1.6-.13 1.12-.22 2.21-.45 3.33z" transform="translate(-.82 -1.79)"/></g></g></g></svg>