<svg xmlns="http://www.w3.org/2000/svg" viewBox="0 0 582.54 102.18"><defs><style>.cls-1{isolation:isolate}.cls-2{fill:#fff}</style></defs><title>txt_opening</title><g id="レイヤー_2" data-name="レイヤー 2"><g class="cls-1" id="Launch_Screen" data-name="Launch Screen"><path class="cls-2" d="M39.65 32C39.78 23.27 39 14.69 29 14.69c-6.11 0-10 2.47-10 9.1 0 7.41 4.68 10.27 10.4 13.91 6 3.77 17 11.05 22.1 16 6.24 6.11 8.19 12 8.19 20.41 0 18.46-12.22 28.08-30 28.08C7.8 102.18 0 90 0 72.54v-7.15h18.2v5.72c-.39 9.49 2.47 16.38 11.44 16.38 7.67 0 11.31-4 11.31-11.44 0-5.72-2.6-9.62-7.28-12.87-9.49-7.41-21.32-12.74-28.73-22.49a27.08 27.08 0 0 1-4.68-15C.26 9.1 9.62 0 28.86 0c29 0 28.21 22.36 28.34 32zm35.23 67.84V2.34h18.2v97.5zM157 2.34h18.2v97.5h-19l-14.11-34.71a327.85 327.85 0 0 1-13-38.74h-.26c.65 8.06 1.43 17.94 2 27.82s.91 19.5.91 27.3v18.33h-18.2V2.34h18.85l14.17 35.49a326.94 326.94 0 0 1 13 38.74h.26c-.65-8.84-1.3-18.33-1.82-27.69s-1-18.72-1-27.43zm93.64 62.79c-.13 1.82-.26 3.77-.39 5.59-.91 17.81-6.89 31.46-27.17 31.46-29.9 0-31.85-19-31.85-45V43.29C192 18.46 194 0 223.08 0c16.25.26 25.35 8.58 26.65 25.22a47.13 47.13 0 0 1 .39 7.41h-17.94c-.78-6.24-.13-17.94-9.1-17.94-14.3 0-13.13 17-13.13 24.57v27c0 8.06.65 21.19 13.13 21.19 10 0 8.84-16.12 9.23-22.36zm11.44 34.71V2.34h51.22v14.3h-33v24.57h30.4v14.3h-30.42v30h33v14.3zm106.47-67.6h-22v-13c12.61-.13 23.14-3.51 26.78-16.9h13.39v97.5h-18.2zm86.58 30.16c0 31.07-8.84 39.39-28.08 39.39-14.3 0-24.57-6.5-24.05-22h16.9c.13 3.25.52 8.06 7.93 7.67 10.27 0 9.23-12.35 9.49-18.2v-6.21c-3 3.12-5.85 6.5-14.3 6.5-15.47 0-22.1-10.53-22.1-30.55 0-24.44 6-37.05 27-37.05C449.67 2 455.39 16.12 455.13 39zm-27.56-46.15c-9.49.13-8.45 9-8.45 21.45 0 7-.91 17.55 8.84 17.55 9 0 9-9.49 9-17.55.1-12.09.36-22.36-9.39-21.45zm38.35 25.09c0-31.07 9-39.39 28.21-39.39 14.3 0 24.57 6.5 24.05 22h-16.9c-.13-3.25-.39-8.19-7.8-7.67-10.27.78-9.36 12.35-9.62 18.2v6.24c3-3.12 5.85-6.5 14.3-6.5 15.47 0 22 10.53 22 30.55 0 24.44-5.85 37.05-26.91 37.05-21.71 0-27.56-14.17-27.3-37.05zm27.56 46.15c9.49-.13 8.45-9 8.45-21.45 0-7 .91-17.55-8.84-17.55-9 0-9 9.49-9 17.55-.09 12.09-.36 22.36 9.39 21.45zm89.05-25.09c0 31.07-8.84 39.39-28.08 39.39-14.3 0-24.57-6.5-24.05-22h16.9c.13 3.25.52 8.06 7.93 7.67 10.27 0 9.23-12.35 9.49-18.2v-6.21c-3 3.12-5.85 6.5-14.3 6.5-15.47 0-22.1-10.53-22.1-30.55 0-24.44 6-37.05 27-37.05C577.07 2 582.79 16.12 582.53 39zM555 16.25c-9.49.13-8.45 9-8.45 21.45 0 7-.91 17.55 8.84 17.55 9 0 9-9.49 9-17.55.07-12.09.33-22.36-9.39-21.45z"/></g></g></svg>