<svg xmlns="http://www.w3.org/2000/svg" viewBox="0 0 316.8 27.58"><defs><style>.cls-1{fill:none}.cls-2{clip-path:url(#clip-path)}.cls-3{isolation:isolate}.cls-4{fill:#fff}</style><clipPath id="clip-path" transform="translate(-.64)"><path class="cls-1" d="M0 0h317.44v27.58H0z"/></clipPath></defs><title>txt_shop_ihikawa</title><g id="レイヤー_2" data-name="レイヤー 2"><g class="cls-2" id="main_SHOP1"><g class="cls-3"><path class="cls-4" d="M.64 24.57V.58h4.48v24zM24.35 16c0 .45-.06.93-.1 1.38-.22 4.38-1.7 7.74-6.69 7.74-7.36 0-7.84-4.67-7.84-11.07v-3.39C9.92 4.54 10.4 0 17.57 0c4 .06 6.24 2.11 6.56 6.21A11.64 11.64 0 0 1 24.22 8h-4.41c-.19-1.54 0-4.42-2.24-4.42-3.52 0-3.23 4.19-3.23 6v6.66c0 2 .16 5.22 3.23 5.22 2.46 0 2.18-4 2.27-5.5zm4.23 8.57V.58h4.48v9.5h6.27V.58h4.48v24h-4.48v-11h-6.27v11zm19.58 0V.58h4.48v24zm8.84 0V.58h4.5v10.65h.06a47.88 47.88 0 0 1 2.82-5.76L67 .58h5.06l-5.92 10.3 6.21 13.7H67.3l-4.23-9.48-1.57 2.59v6.88zm17.21 0l5.73-24h6l5.44 24h-4.8l-1.14-6.07h-5.25L79 24.57zM80.9 15h3.84l-1.22-6.84C83.3 7 83.2 6 83.07 4.83c0-.54-.1-1.09-.16-1.6h-.06c-.06.51-.13 1.06-.16 1.6-.13 1.17-.23 2.17-.45 3.33zm27.1-2c.45 2.4.67 5.47 1 8.54h.06c.06-.58.1-1.15.16-1.73.16-2 .35-4.1.67-6.14L111.71.58h4.64l-4.45 24h-5.38l-1.79-9.47c-.48-2.53-.64-5.09-1-7.65h-.06c-.32 2.56-.48 5.12-1 7.65l-1.6 9.47h-5.29L91.2.58h4.64l2 13.09c.32 2 .51 4.1.67 6.14.06.58.1 1.15.13 1.73h.06c.35-3.07.58-6.14 1-8.54L101.92.58h3.71zm8.74 11.57l5.73-24h6l5.44 24h-4.8L128 18.5h-5.25l-1.18 6.08zm6.69-9.6h3.84L126 8.16c-.22-1.12-.32-2.21-.45-3.33 0-.54-.1-1.09-.16-1.6h-.06c-.06.51-.13 1.06-.16 1.6-.08 1.17-.17 2.17-.4 3.33zM149.44.58h2.78l-7.55 27h-2.78zm11.9 23.99V.58h4.48v24zM185.05 16c0 .45-.06.93-.1 1.38-.22 4.38-1.7 7.74-6.69 7.74-7.36 0-7.84-4.67-7.84-11.07v-3.39c.2-6.12.68-10.66 7.85-10.66 4 .06 6.24 2.11 6.56 6.21a11.64 11.64 0 0 1 .1 1.82h-4.42c-.19-1.54 0-4.42-2.24-4.42-3.52 0-3.23 4.19-3.23 6v6.66c0 2 .16 5.22 3.23 5.22 2.46 0 2.18-4 2.27-5.5zm4.23 8.57V.58h4.48v9.5H200V.58h4.48v24H200v-11h-6.27v11zm19.58 0V.58h4.48v24zm8.87 0V.58h4.48v10.65h.06a47.88 47.88 0 0 1 2.82-5.76l2.62-4.9h5.06l-5.92 10.3 6.21 13.7H228l-4.22-9.47-1.57 2.59v6.88zm17.18 0l5.73-24h6l5.44 24h-4.8l-1.18-6.08h-5.2l-1.18 6.08zM241.6 15h3.84l-1.22-6.82C244 7 243.9 6 243.78 4.83c0-.54-.1-1.09-.16-1.6h-.06c-.06.51-.13 1.06-.16 1.6-.13 1.12-.22 2.21-.45 3.33zm27.13-2c.45 2.4.67 5.47 1 8.54h.06c.06-.58.1-1.15.16-1.73.16-2 .35-4.1.67-6.14L272.41.58h4.64l-4.45 24h-5.38l-1.79-9.47c-.48-2.53-.64-5.09-1-7.65h-.06c-.32 2.56-.48 5.12-1 7.65l-1.6 9.47h-5.37l-4.5-24h4.64l2 13.09c.32 2 .51 4.1.67 6.14.06.58.1 1.15.13 1.73h.06c.35-3.07.58-6.14 1-8.54L262.62.58h3.71zm8.71 11.57l5.73-24h6l5.44 24h-4.8l-1.18-6.08h-5.25l-1.18 6.08zm6.69-9.6H288l-1.22-6.82c-.22-1.12-.32-2.21-.45-3.33 0-.54-.1-1.09-.16-1.6h-.06c-.06.51-.13 1.06-.16 1.6-.13 1.12-.22 2.21-.45 3.33zm19.87 9.6a35 35 0 0 1 .38-4.06c.29-1.66 1.47-3.84 4.22-6.75l2.18-2.3c1.41-1.57 2.22-2.34 2.22-4.61S312.1 4 310.82 4a2 2 0 0 0-2.08 1.18 9.3 9.3 0 0 0-.35 3.39h-4.19V7.9c0-2.11-.1-7.49 6.82-7.42 3.78 0 6.43 2.37 6.43 6.21a8.87 8.87 0 0 1-2.85 6.56l-3.52 3.65c-.93 1-2.3 2.53-2.33 4.16h8.35v3.52z" transform="translate(-.64)"/></g></g></g></svg>