<svg xmlns="http://www.w3.org/2000/svg" viewBox="0 0 24 19.51"><defs><style>.cls-1{fill:#fff;}</style></defs><title>アセット 2</title><g id="レイヤー_2" data-name="レイヤー 2"><g id="hover"><path class="cls-1" d="M7.55,19.51a13.92,13.92,0,0,0,14-14c0-.22,0-.43,0-.64A10.11,10.11,0,0,0,24,2.31a9.56,9.56,0,0,1-2.83.77A4.94,4.94,0,0,0,23.34.36a10.22,10.22,0,0,1-3.13,1.2,4.92,4.92,0,0,0-8.52,3.36,5.22,5.22,0,0,0,.13,1.13A14,14,0,0,1,1.67.9,4.93,4.93,0,0,0,3.19,7.48,5,5,0,0,1,1,6.86v.06a4.93,4.93,0,0,0,4,4.83,5,5,0,0,1-1.29.17,4.73,4.73,0,0,1-.93-.09,4.92,4.92,0,0,0,4.6,3.42,9.9,9.9,0,0,1-6.12,2.11A9.18,9.18,0,0,1,0,17.29a13.93,13.93,0,0,0,7.55,2.22"/></g></g></svg>