<svg id="レイヤー_1" data-name="レイヤー 1" xmlns="http://www.w3.org/2000/svg" viewBox="0 0 540 540"><defs><style>.cls-1{fill:#f18d1e;}.cls-2{fill:#fff;}.cls-3{fill:none;opacity:0.3;}</style></defs><title>アートボード 2</title><path class="cls-1" d="M0,469.78H15.45q7,0,10,4.51t3,13.21q0,8.69-2.66,13.1T16.27,505H11.51v23.08H0Zm12.19,24.71a5,5,0,0,0,3.09-.78,3.74,3.74,0,0,0,1.3-2.24,22.18,22.18,0,0,0,.3-4.18,12.65,12.65,0,0,0-.81-5.29c-.55-1.09-1.64-1.63-3.27-1.63H11.51v14.12Z"/><path class="cls-1" d="M34,528.09V469.44H46.09v58.65Z"/><path class="cls-1" d="M55.82,524.42q-3.33-4.2-3.33-12.55v-20q0-6.86,3.95-10.46t11-3.59q14.37,0,14.37,14.05v3.6q0,5.43-.14,8.82H64.4V514a11.74,11.74,0,0,0,.55,4,2.62,2.62,0,0,0,4.25.64,3.74,3.74,0,0,0,.68-1.86c.07-.7.1-1.73.1-3.09v-4.82H81.83v2.85q0,8.68-3.37,12.8t-11.61,4.1Q59.16,528.63,55.82,524.42Zm14.16-26V492q0-5.35-2.65-5.36-3,0-3,5.36v6.38Z"/><path class="cls-1" d="M89.28,524.8q-2.13-3.84-2.14-11c0-3.89.51-6.87,1.53-9a10,10,0,0,1,4.26-4.58,51.2,51.2,0,0,1,8.3-3.22L104.5,496v-5.09a5,5,0,0,0-.78-3,2.29,2.29,0,0,0-1.87-1.05,2.08,2.08,0,0,0-1.67.88,3.64,3.64,0,0,0-.72,2.37v3H87.89v-1.63q0-7.33,3.44-10.45t11.2-3.12a15.23,15.23,0,0,1,10.07,3.22q3.89,3.23,3.88,9.13v37.88H104.64v-5.91a9.8,9.8,0,0,1-2.83,4.76,6.73,6.73,0,0,1-4.59,1.69Q91.43,528.63,89.28,524.8Zm14.57-6.52a5.89,5.89,0,0,0,.58-2.75V501.68a9.08,9.08,0,0,0-3.91,2.58,6.75,6.75,0,0,0-1.26,4.35V515q0,4.41,2.65,4.41A2,2,0,0,0,103.85,518.28Z"/><path class="cls-1" d="M122,513.7l.06-3.94H134l.07,5.84a4.4,4.4,0,0,0,.68,2.68,2.61,2.61,0,0,0,2.24.92q2.39,0,2.39-3.87a7.77,7.77,0,0,0-1.13-4.48,16,16,0,0,0-3.57-3.47l-6.33-4.88a16.69,16.69,0,0,1-4.7-5.2,16.34,16.34,0,0,1-1.43-7.56,10.51,10.51,0,0,1,2-6.49,12.43,12.43,0,0,1,5.34-4,19.65,19.65,0,0,1,7.42-1.35q14.5,0,14.5,14.39v.95H139.15v-1.9a7.07,7.07,0,0,0-.58-3,2,2,0,0,0-1.94-1.26,2.42,2.42,0,0,0-1.87.71,2.79,2.79,0,0,0-.65,1.94,4.88,4.88,0,0,0,2.11,4.21l7.36,5.36a23.14,23.14,0,0,1,6.06,6.35,16.3,16.3,0,0,1,2.11,8.65q0,6.93-3.95,10.66t-11,3.73Q122,528.63,122,513.7Z"/><path class="cls-1" d="M160.39,524.42q-3.33-4.2-3.33-12.55v-20q0-6.86,3.95-10.46t11-3.59q14.37,0,14.37,14.05v3.6q0,5.43-.14,8.82H169V514a11.74,11.74,0,0,0,.55,4,2.62,2.62,0,0,0,4.25.64,3.74,3.74,0,0,0,.68-1.86c.07-.7.1-1.73.1-3.09v-4.82H186.4v2.85q0,8.68-3.37,12.8t-11.61,4.1Q163.73,528.63,160.39,524.42Zm14.16-26V492q0-5.35-2.65-5.36-3,0-3,5.36v6.38Z"/><path class="cls-1" d="M214.52,526.66q-1.78-2-1.78-6.31v-31h-3.33v-9h3.33V469.78h11.58V480.3h3.4v9h-3.4v27.9a6.73,6.73,0,0,0,.2,1.9c.14.41.5.61,1.09.61a10.74,10.74,0,0,0,1.3-.07c.4,0,.68-.07.81-.07v8.15c-.68.18-1.67.37-3,.58a24.66,24.66,0,0,1-3.78.3C217.85,528.63,215.69,528,214.52,526.66Z"/><path class="cls-1" d="M235.45,525.31q-2.08-3.33-2.08-9.91v-37h12v37.16a4.93,4.93,0,0,0,.65,2.92,2.35,2.35,0,0,0,2,.85,2.14,2.14,0,0,0,2.31-1.52,15.39,15.39,0,0,0,.48-4.38V513l.07-34.62h11.84v49.69H250.8v-5.3a10.86,10.86,0,0,1-2.86,4.48,7.38,7.38,0,0,1-4.83,1.36C239.39,528.63,236.83,527.52,235.45,525.31Z"/><path class="cls-1" d="M269.52,478.4h11.92v5.5a8.39,8.39,0,0,1,3.09-4.52,9.17,9.17,0,0,1,5.48-1.59v9.91a24.52,24.52,0,0,0-5.54.71c-2,.48-3,1-3,1.66v38H269.52Z"/><path class="cls-1" d="M295,478.4H306.9v6.31a10.53,10.53,0,0,1,2.59-4.95,6.47,6.47,0,0,1,4.9-1.9q5,0,7.45,3.08t2.42,8.8v38.35H312.55V491a5.64,5.64,0,0,0-.65-2.79,2.16,2.16,0,0,0-2-1.15,2.32,2.32,0,0,0-2.41,1.66,13.79,13.79,0,0,0-.58,4.45v35H295Z"/><path class="cls-1" d="M349,478.4h12.12v2.65a8.69,8.69,0,0,1,7.15-3.19q5.77,0,8.06,3.86t2.28,10.73v18.4a53.73,53.73,0,0,1-.68,9.53,10.89,10.89,0,0,1-3,6c-1.55,1.51-3.88,2.27-7,2.27s-5.27-.83-6.81-2.51V538H349Zm17.09,39.51a15.13,15.13,0,0,0,.47-4.35V492.45a12.5,12.5,0,0,0-.47-3.94,2.06,2.06,0,0,0-2.18-1.35q-2.79,0-2.79,5.15v21.8a10.4,10.4,0,0,0,.58,3.9A2.22,2.22,0,0,0,364,519.4,2,2,0,0,0,366.06,517.91Z"/><path class="cls-1" d="M385.05,469.44h12.26v13.85q1.9-5.43,7.28-5.43,5,0,7.63,3.19t2.58,8.75v38.29H402.89V490.55a4.36,4.36,0,0,0-.75-2.65,2.54,2.54,0,0,0-2.18-1,2.24,2.24,0,0,0-1.94,1.06,4.38,4.38,0,0,0-.71,2.54v37.61H385.05Z"/><path class="cls-1" d="M421.06,513.22v-20q0-7.06,4-11.24c2.65-2.78,6.3-4.17,10.92-4.17s8.28,1.39,10.93,4.17,4,6.53,4,11.24v20q0,15.42-14.91,15.41T421.06,513.22Zm17,5.23a4.91,4.91,0,0,0,.69-2.78V491.36q0-4.33-2.8-4.34t-2.79,4.34v24.31a5,5,0,0,0,.68,2.78,2.69,2.69,0,0,0,4.22,0Z"/><path class="cls-1" d="M457.35,478.4h11.92v6.31a10.52,10.52,0,0,1,2.58-4.95,6.5,6.5,0,0,1,4.9-1.9q5,0,7.46,3.08t2.42,8.8v38.35H474.92V491a5.64,5.64,0,0,0-.65-2.79,2.16,2.16,0,0,0-2-1.15,2.34,2.34,0,0,0-2.42,1.66,14.11,14.11,0,0,0-.57,4.45v35H457.35Z"/><path class="cls-1" d="M496.29,524.42q-3.33-4.2-3.33-12.55v-20q0-6.86,4-10.46t11-3.59q14.37,0,14.37,14.05v3.6q0,5.43-.14,8.82H504.87V514a11.74,11.74,0,0,0,.55,4,2.62,2.62,0,0,0,4.25.64,3.74,3.74,0,0,0,.68-1.86c.07-.7.1-1.73.1-3.09v-4.82H522.3v2.85q0,8.68-3.37,12.8t-11.61,4.1Q499.63,528.63,496.29,524.42Zm14.16-26V492q0-5.35-2.65-5.36-3,0-3,5.36v6.38Z"/><path class="cls-1" d="M528.09,528.09v-9.91H540v9.91Z"/><path class="cls-1" d="M231.78,20.07,200.75,2l-.06,12.05c-19,2.65-35,10.37-46.46,22.51-12.43,13.16-19,30.83-19,51.12h12c0-33.09,20.3-56.21,53.39-61.5l0,11.66Z"/><path class="cls-1" d="M405.56,342.93h-12c0,33.65-19.84,56.26-53.4,61.47l0-11.67L309,410.55l31.06,18,0-12.06C380.61,411,405.56,383.16,405.56,342.93Z"/><path class="cls-2" d="M341.19,365.11H200a16,16,0,0,1-16-16V81.59a16,16,0,0,1,16-16H341.19a16,16,0,0,1,16,16V349.13A16,16,0,0,1,341.19,365.11ZM200,69.61a12,12,0,0,0-12,12V349.13a12,12,0,0,0,12,12H341.19a12,12,0,0,0,12-12V81.59a12,12,0,0,0-12-12Z"/><path class="cls-2" d="M270.11,351.76A11.76,11.76,0,1,1,281.9,340,11.78,11.78,0,0,1,270.11,351.76Zm0-19.51a7.76,7.76,0,1,0,7.78,7.76A7.78,7.78,0,0,0,270.11,332.25Z"/><path class="cls-2" d="M327.17,321.18H214a10,10,0,0,1-10-10V105.05a10,10,0,0,1,10-10H327.17a10,10,0,0,1,10,10V311.2A10,10,0,0,1,327.17,321.18ZM214,99.06a6,6,0,0,0-6,6V311.2a6,6,0,0,0,6,6H327.17a6,6,0,0,0,6-6V105.05a6,6,0,0,0-6-6Z"/><path class="cls-2" d="M289.63,84.59h-38a2,2,0,1,1,0-4h38a2,2,0,0,1,0,4Z"/><rect class="cls-3" width="540" height="540"/></svg>