<svg xmlns="http://www.w3.org/2000/svg" viewBox="0 0 217.96 67.52"><defs><style>.cls-1{fill:#fff;}.cls-2{fill:none;stroke:#fff;stroke-miterlimit:10;stroke-width:2px;stroke-dasharray:2 4;}</style></defs><title>アセット 4</title><g id="レイヤー_2" data-name="レイヤー 2"><g id="contents"><path class="cls-1" d="M6.67,24.38l1.78-.23,1.76.73L12,24.46l1.75-.2,1.76,0L17.22,24,19,23.94l1.76.28,1.46.58.61,1.36.75,1.62,0,1.84.64,1.65L24.6,33l.58,1.67.16,1.78,1.18,1.51,0,1.84L27,41.45,27,43.29l.94,1.58.34,1.75.68.15.35-2,.39-1.85L29.74,41l.37-1.68.72-1.58L31.24,36l.39-1.68.55-1.63.51-1.65.69-1.6.68-1.6.29-1.72v-2L36.27,24,38,24h1.74l1.73.44,1.74-.1,1.73.54,1.74-.13L48.42,24l2,0,0,2.1.37,1.75-.23,1.84.81,1.66,0,1.8.67,1.7v1.81l.44,1.73.4,1.74.58,1.71,0,1.81.31,1.75-.3,1.86L54.1,49,54,50.86l1,1.64v1.81l.34,1.75-.13,1.83.93,1.65-.39,1.88.52,1.72.18,1.79.92,2-2.16-.42-1.85.4-1.85-.39-1.86.13-1.85.24L46,66.15l-1.86.48-1.92.07-.36-1.81-.4-1.76L42,61.29l.16-1.8-.62-1.74.22-1.81-.11-1.78-.38-1.76,0-1.8-.9-1.71-.25-1.77.37-1.83.15-1.89-.65.16-.74,2-.31,2.14-.6,1.71-1,1.57-.52,1.72,0,1.89-1,1.58L35.5,58l-.74,1.66.18,2-1.24,1.5-.53,1.73-.58,1.5L31,66.53l-1.79-.39-1.79.34L25.64,67l-1.92-.21L23,65l-.29-1.86-.28-1.87-.66-1.75-.41-1.83-.79-1.71L20,54.15l-.35-1.85-.4-1.83-1.13-1.62-.52-1.74.32-1.87-.72-1.54-.12,0-.39,1.53L17,46.93l-.75,1.65V50.4l-.49,1.76L16.14,54l-.09,1.8-.72,1.75,0,1.82.32,1.85L15.18,63l-.12,1.82-.17,2-2-.25L11,67l-1.85-.74-1.86.59L5.45,67l-1.86-.54-1.86.07L0,66.53l.16-1.65.36-1.74.2-1.77.75-1.68-.06-1.81.25-1.77.59-1.7L2,52.56l.3-1.75.86-1.67.08-1.79.07-1.79.08-1.8.71-1.69.12-1.78.47-1.73,0-1.81-.12-1.83,1-1.63-.23-1.85L6,29.74,6.27,28l.27-1.77Z"/><path class="cls-1" d="M108,45.64l-.1,1.78.16,1.83-.88,1.66-.51,1.68-.13,1.85L106,56.2l-1.19,1.41-.91,1.57-1.64,1-1,1.49L99.79,62.7l-1.25,1.38-2,.1-1.62.67-1.59.77-1.6.82L90,66.69H88.17l-1.72.76-1.79-.28-1.81.35-1.8-.12-1.66-.93-1.76-.25-1.71-.44-1.56-.89-1.67-.57-1.76-.51-1.43-1.1-1.42-1.08L66.6,60.55l-1.2-1.36-.62-1.76L63.63,56l-.41-1.77-.83-1.59-.31-1.75-1-1.65.29-1.84-.53-1.79.35-1.8L61.34,42l.12-1.83.75-1.68L63.28,37l.22-1.88L65,33.92l1-1.45.74-1.73,1.36-1.2,1.67-.78,1.13-1.51,1.67-.74,1.67-.65L75.8,25l1.73-.52,1.88.24L81,23.62l1.83.23,1.79.2,1.79-.34,1.83-.14L90,24.2l1.6.94,1.94-.23L95,26.05l1.48,1,1.7.59,1.77.61.82,1.82,1.31,1.16,1.13,1.34,1.52,1.09,1.06,1.49.69,1.68.75,1.65.47,1.76-.3,1.88.92,1.7Zm-31.25.22.12,1.82.86,1.62.4,1.85,1.28,1.39,1.82.53,1.74.28,1.71.47,1.73-.35,1.91,0,1.38-1.27L91,51l.48-1.74,1.37-1.48L93,45.86,92.7,44l-.85-1.68-.78-1.67L90,39.08l-1.87-.51-1.61-.89-1.84.22-1.75.22-2,0-1.52,1.13-1.22,1.42-1.17,1.51L76.68,44Z"/><path class="cls-1" d="M156.2,24.39,156,26.28l-1,1.55-.31,1.82-1.31,1.43-.76,1.64-.28,1.83-1,1.56-.3,1.82-.63,1.7L150,41.41l-.73,1.66-.53,1.74-1.43,1.39-.13,1.89-1.21,1.47.16,2-.67,1.68-.77,1.65-1.33,1.43-.39,1.79L142.85,60,142,61.63l-.6,1.71-1.25,1.47-.38,1.72-1.78.36-1.85,0-1.85-.21-1.86,0-1.86.1-1.86-.14-1.91.12L126,65l-.38-1.79-.85-1.61L124,60l-.62-1.7,0-1.92-.75-1.66-1.29-1.44-.07-1.91-.51-1.74L120,48l-1.23-1.46-.27-1.85-1.23-1.46-.5-1.75-.6-1.7L115.65,38l-.17-1.88-1.24-1.46L114,32.78,113.52,31,112,29.67,111.34,28l.19-2-1-1.5,1.71-.05,1.78-.1,1.78.54,1.78-.38,1.78.14,1.78-.16,1.78.3,1.78-.38,1.53.38.51,1.49.86,1.64.27,1.81.63,1.71.08,1.87,1,1.61.56,1.73.73,1.68.36,1.8.57,1.73.78,1.67-.33,1.75.26,1.55.76,1.5L133,50l.89.16.09-1.81,0-1.58.06-1.61.45-1.53.95-1.62.35-1.79.69-1.69-.15-1.94,1-1.58-.12-1.93.55-1.74,1.26-1.52-.45-2,.54-1.74.79-1.85,2,.13,1.77.22,1.78.29,1.78-.6,1.78.67,1.78-.27L152.6,24l1.78.08Z"/><path class="cls-1" d="M164,24.75l1.34-.63L167,24l1.7.5,1.7-.51,1.71.59,1.7-.08,1.71-.52,1.71.08,1.68.35.08,1.81-.26,1.83.7,1.83-.58,1.84.3,1.83-.06,1.84.06,1.83.17,1.83-.8,1.84.66,1.83L179,44.59l-.43,1.83.43,1.84,0,1.84-.15,1.83-.37,1.84.56,1.83-.38,1.84.08,1.84.34,1.83L178.91,63l.55,1.85-.69,1.66-1.51.2-1.7.4-1.71-.59-1.7.07-1.7.56-1.71-.41L167,67l-1.71-.48-2,.37-.26-2L164,63l-.53-1.83-.26-1.83.6-1.83-.14-1.84-.53-1.83.75-1.84-.09-1.83-.63-1.84.82-1.83.06-1.84-.85-1.83.39-1.84.51-1.83-.27-1.84-.34-1.83.51-1.84-.2-1.84-.37-1.84.66-1.84-.42-1.83Z"/><path class="cls-1" d="M188.31,24.09l2.11.66,1.77-.2L194,24.4l1.78.37,1.77-.11,1.78-.15h1.77l1.77-.1,1.77.2,1.77-.18,1.78.07,1.78-.28,1.77.39,1.78.16,1.78-.08,1.86-.35.18,2-.44,1.92-.25,1.92.32,1.92.33,1.93L217,35.87l-1.75.56-1.85-.67-1.85,0-1.84-.23-1.85,0-1.85.09-2.21.07,0,2.34.4,2,1.61.42,1.68-.44,1.69-.17,1.69-.17,1.69.11,1.69.24,2-.23-.43,2.13.09,1.83-.33,1.83.58,1.83-.36,1.83.28,2-1.84.1-1.69.2-1.69,0L209.18,51l-1.69.23-1.69-.64-1.47.54L203.72,53l.15,2.29H206l1.91-.53,1.91.8,1.91-.47,1.91,0,1.92.12,2.13-.39L217.19,57l.5,1.93-.7,1.92.2,1.92.25,1.93,0,1.86-1.73-.36h-1.8l-1.8.27-1.81.51-1.8-.07-1.8-.76-1.8.17-1.8.56-1.8-.42-1.8.17-1.8-.44-1.81.24-1.8-.11-1.8.24-1.81.29-1.78-.26-.47-1.8L189,63l-.35-1.83.41-1.83-.37-1.83-.08-1.84-.41-1.83.35-1.84-.19-1.83.31-1.84.2-1.83-.59-1.84.41-1.83.18-1.84-.72-1.83.13-1.84.44-1.83-.58-1.84.29-1.84-.17-1.84.32-1.84-.34-1.81Z"/><path class="cls-1" d="M12,6.21A6.84,6.84,0,0,1,10.36,9a6.56,6.56,0,0,0,2.29,1,3.13,3.13,0,0,0-.66.87A6.75,6.75,0,0,1,9.61,9.69a8.38,8.38,0,0,1-2.22,1.2,3.52,3.52,0,0,0-.56-.82v.86H5.77V9.86l-3.92.42-.09-1,1.09-.1V5.36h-1V4.45H12.38v.91H6.83V10a6.84,6.84,0,0,0,2-1A7.28,7.28,0,0,1,7.64,7l.65-.18H7.21V6h3.94l.19,0ZM11,3.89H3.28V.3H11ZM3.88,5.36V6H5.77V5.36Zm0,2.17H5.77V6.82H3.88Zm1.89,1.4v-.6H3.88v.78ZM9.92,1.05H4.35v.69H9.92Zm0,1.4H4.35v.69H9.92ZM8.57,6.85a5.26,5.26,0,0,0,1,1.51,5.39,5.39,0,0,0,1.09-1.51Z"/><path class="cls-1" d="M18.24,9.26a15.67,15.67,0,0,0-1.17-1.19v2.84H16V8.11a9.11,9.11,0,0,1-1.78,2,5,5,0,0,0-.72-.8A8.37,8.37,0,0,0,15.78,6.8h-2v-1H16V4.76H13.74V3.81H15a5.31,5.31,0,0,0-.42-1.54l.82-.21H13.89V1.14H16V0h1.08V1.14h2.1v.92H17.72l.84.19c-.23.57-.46,1.16-.66,1.56h1.4v.95H17.07V5.85h2.12v1H17.07V7c.43.3,1.54,1.2,1.81,1.43Zm-2.82-7.2a5.68,5.68,0,0,1,.48,1.57l-.7.18h2.64L17,3.63a11.62,11.62,0,0,0,.54-1.57Zm9.22,2.87H23.38v5.94H22.3V4.93H20.75V5c0,1.77-.21,4.27-1.87,5.93a2.61,2.61,0,0,0-.79-.76c1.45-1.48,1.6-3.53,1.6-5.18V.88l.74.21a15.54,15.54,0,0,0,3.19-1l.9.8A18.57,18.57,0,0,1,20.75,2V3.9h3.89Z"/><path class="cls-1" d="M36.39,2.66s0,.39,0,.52c-.14,5-.24,6.65-.63,7.17a1.07,1.07,0,0,1-.85.52,10,10,0,0,1-1.47,0,3.07,3.07,0,0,0-.32-1.06c.56,0,1,0,1.26,0a.46.46,0,0,0,.43-.19c.27-.34.39-1.86.48-6H33.87c-.16,3.19-.7,5.74-2.76,7.32a3.93,3.93,0,0,0-.8-.83l.21-.17c-1.72.21-3.45.39-4.73.51l-.15-.95,2.51-.2V8.46H26V7.64h2.18V7H26V3.42h2.15V2.79H25.68V2h2.47V1.29c-.73.07-1.46.1-2.14.13a3.06,3.06,0,0,0-.26-.81A35.66,35.66,0,0,0,30.89,0l.53.84a19.29,19.29,0,0,1-2.25.34V2h2.42v.69h1.26c0-.81,0-1.66,0-2.56h1.07c0,.88,0,1.75,0,2.56ZM26.91,4.88h1.24V4.15H26.91ZM28.15,6.3V5.56H26.91V6.3Zm1,3c.74-.07,1.51-.14,2.26-.23,1-1.35,1.29-3.16,1.38-5.35H31.54v-.9H29.17v.63H31.4V7H29.17v.61h2.25v.82H29.17Zm1.28-4.39V4.15H29.17v.73Zm-1.28.68V6.3h1.28V5.56Z"/><path class="cls-1" d="M48.42.68v1H43.65V2.89H46V8.25h-5.7V2.89h2.26V1.71H37.85v-1ZM47,2.73h1.1V10.9H47v-.69H39.31v.72H38.22V2.73h1.09V9.15H47ZM41.2,5.12h1.41V3.81H41.2Zm0,2.21h1.41V6H41.2ZM45,3.81H43.58V5.12H45ZM45,6H43.58V7.33H45Z"/><line class="cls-2" x1="217.96" y1="6.54" x2="58.89" y2="6.54"/></g></g></svg>