<svg xmlns="http://www.w3.org/2000/svg" xmlns:xlink="http://www.w3.org/1999/xlink" viewBox="0 0 60 100"><defs><style>.cls-1,.cls-6{fill:none;}.cls-2{clip-path:url(#clip-path);}.cls-3{fill:#7ad6ec;}.cls-4{clip-path:url(#clip-path-2);}.cls-5{fill:url(#名称未設定グラデーション_11);}.cls-6{opacity:0.28;}</style><clipPath id="clip-path"><path class="cls-1" d="M-34,97.77a27.15,27.15,0,0,1-11.39-2.14C-55.95,90.85-61.77,82.79-61.77,73c0-15,12-22.72,13.35-23.55.59-.36,1.16-.68,1.69-1,3.29-1.88,6.13-3.51,6.13-9V6.18l-1.47-.4c-.25-.08-1.15-.41-1.06-1.2.07-.58.29-2.35,9.13-2.35S-24.94,4-24.87,4.58c.1.87-1,1.19-1.06,1.2l-1.47.4V39.47c0,5.44,2.84,7.07,6.13,8.94l1.69,1C-18.21,50.23-6.23,58-6.23,73c0,9.84-5.82,17.9-16.38,22.68A27.15,27.15,0,0,1-34,97.77Z"/></clipPath><clipPath id="clip-path-2"><path class="cls-1" d="M30,97.77a27.15,27.15,0,0,1-11.39-2.14C8.05,90.85,2.23,82.79,2.23,73c0-15,12-22.72,13.35-23.55.59-.36,1.16-.68,1.69-1,3.29-1.88,6.13-3.51,6.13-9V6.18l-1.47-.4c-.25-.08-1.15-.41-1.06-1.2.07-.58.29-2.35,9.13-2.35S39.06,4,39.13,4.58c.1.87-1,1.19-1.06,1.2l-1.47.4V39.47c0,5.44,2.84,7.07,6.13,8.94l1.69,1C45.79,50.23,57.77,58,57.77,73c0,9.84-5.82,17.9-16.38,22.68A27.15,27.15,0,0,1,30,97.77Z"/></clipPath><linearGradient id="名称未設定グラデーション_11" x1="30" y1="114.52" x2="30" y2="-14.52" gradientUnits="userSpaceOnUse"><stop offset="0" stop-color="#7ad67e"/><stop offset="0.12" stop-color="#7ad693"/><stop offset="0.39" stop-color="#7ad6b9"/><stop offset="0.63" stop-color="#7ad6d5"/><stop offset="0.84" stop-color="#7ad6e6"/><stop offset="1" stop-color="#7ad6ec"/></linearGradient></defs><title>アートボード 4</title><g id="フラスコ100_" data-name="フラスコ100%"><g class="cls-2"><rect class="cls-3" x="-92.5" y="-14.52" width="117" height="129.04"/></g></g><g id="フラスコ100_のコピー" data-name="フラスコ100%のコピー"><g class="cls-4"><rect class="cls-5" x="-28.5" y="-14.52" width="117" height="129.04"/></g><rect class="cls-6" width="60" height="100"/></g></svg>