<svg xmlns="http://www.w3.org/2000/svg" viewBox="0 0 277.64 67.48"><defs><style>.cls-1{fill:#fff;}.cls-2{fill:none;stroke:#fff;stroke-miterlimit:10;stroke-width:2px;stroke-dasharray:2 4;}</style></defs><title>アセット 3</title><g id="レイヤー_2" data-name="レイヤー 2"><g id="contents"><path class="cls-1" d="M1.18.46,3,.16H4.79L6.58.23,8.37.54,10.16.3,12,.65l1.79-.1,1.79.31h1.79L19.12.68,20.91.46,22.7.79,24.49.22l1.8.5L28.08.43l1.79,0,1.8.38L33.6.36l-.21,1.85-.08,1.71.27,1.72.32,1.71-.67,1.71.45,1.72,0,1.72L33.22,14l-1.46.66-1.67-.47-1.7.21-1.7-.07-1.85-.64.08,2,.53,1.81-.78,1.8L24.9,21l0,1.81.13,1.8.23,1.81-.51,1.8-.09,1.81.53,1.8-.29,1.81.59,1.8-.84,1.81.55,1.81-.44,1.81.33,1.85-1.73-.34-1.71.13h-1.7l-1.7,0-1.71-.3L14.8,43l-1.71.27-1.71-.89-1.87.55,0-2-.11-1.81.41-1.8-.22-1.8.16-1.81.39-1.8L10,30.09l0-1.8L9.4,26.48l.14-1.8-.09-1.8.11-1.81.58-1.81-.43-1.81L10,15.64V13.49l-2,.66L6.28,13.7l-1.67.42-1.69.36-1.84-.12.45-1.85-.1-1.72L1.35,9.08l0-1.71L.87,5.65,1.1,3.94l.31-1.72Z"/><path class="cls-1" d="M52.91.15l.23,2.12L53.71,4,54,5.85l.45,1.78.51,1.78.23,1.82.08,1.86L56,14.81l-.3,2,.68,1.74.73,1.72-.19,1.92.41,1.8.93,1.64L58,25.52l.17-1.83L59,21.81l-.24-2,.44-2,1.3-1.52.4-1.75-.08-1.88L61,10.87l.37-1.76.47-1.74,1-1.6-.07-1.88.73-1.67L64.29.8l1.43.09L67.4,1,69.08.06l1.68.62L72.44.21,74.12.9,75.53.82l1.06,1.39,0,1.89L76.57,6l.58,1.76L78,9.46l.71,1.72-.33,2,1.08,1.65.06,1.88L80,18.47l0,1.9.92,1.69.66,1.75.3,1.78-.29-.12.38-1.66.5-1.84.27-1.86.37-1.84.16-1.83.92-1.65.1-1.85.86-1.67-.36-2,.36-1.79.66-1.71L86.31,4l.42-1.78L87.44.75H89l1.77-.2L92.54,1,94.31.33,96.09.15l1.77.72L99.63.5l1.78-.22,1.81.2-.85,1.62L102,3.88l-.84,1.61-.27,1.8L100.33,9l-1,1.55-.47,1.74-.83,1.6-.49,1.73-.51,1.71L97,19.17,95.92,20.7,95,22.28l-.24,1.82L94,25.72l-.24,1.81-1,1.54,0,1.88-1.12,1.5.09,1.94-1.12,1.5-.38,1.77-.37,1.78L89,41.06l-.73,1.59H86.39l-1.91-.17-1.91-.15-1.91.86-1.92-.43-1.91-.3-2,.41L74.32,41,74,39.24l-.57-1.73.52-1.95L72.84,34l-.34-1.77.16-1.88-1-1.64-.53-1.74.07-1.85-.4-1.76-.42-1.77L70,19.82,69.8,20l-.61,1.37-.29,1.58.52,1.69-.32,1.6-.51,1.63-.17,1.72-.53,1.63L67,32.73,66.6,34.4,65.89,36l-.12,1.73-.5,1.64-.16,1.73-.28,2-2.14.1L60.83,43,59,42.81,57.1,43l-1.86-.67-1.87-.05-2,.66-.07-2-.55-1.7-1.25-1.46,0-1.88-.82-1.61L47.7,32.7,47.21,31,47,29.17l-.58-1.69-.5-1.72L45.41,24,44.08,22.6,44,20.73l-.71-1.65-1-1.55-.2-1.82-.68-1.66-1-1.56.28-2L39.56,9l0-1.89L38.27,5.67l-.82-1.62L37,2.31,36.7.49,38.48.11l1.77.65L42,.26l1.76.59L45.54.29l1.77.25,1.77.17,1.74-.5Z"/><path class="cls-1" d="M107.45.71,108.92,0l1.7.62,1.71.31L114,.55l1.7-.33,1.71.69,1.71-.72,1.71.69,2-.69-.62,2.14-.18,1.84L122.64,6l.42,1.83-.7,1.83L123,11.5l-.29,1.83-.61,1.84.63,1.83-.1,1.84-.58,1.83.28,1.84.59,1.83-.6,1.84,0,1.83.62,1.84-.23,1.83.13,1.84-.54,1.84.15,1.84L122.14,39l.1,1.84.34,1.85-1.71-.45-1.71.83-1.7-.49-1.7,0-1.71.42-1.7-.06-1.71-.19-1.71-.29L107,43l.33-2.07.28-1.83,0-1.83V35.39l-.63-1.83.08-1.84.28-1.83-.37-1.83.26-1.84-.42-1.83.77-1.84.17-1.83-.49-1.84L106.83,17l.64-1.83-.62-1.84.23-1.83-.21-1.84.34-1.84L106.84,6l.51-1.84-.19-1.85Z"/><path class="cls-1" d="M128.74.81l1.5-.27H132L133.81,0l1.79.89,1.79-.25,1.8.34L141,.65l1.79-.24,1.79.23,1.79.14,1.79.14L149.93.7l1.79-.58,1.8.86,1.79-.91L157.1.8l1.8-.17h1.67l.52,1.58-.45,1.71V5.64l.47,1.71V9.06l-.06,1.72-.59,1.72,0,1.45-1.44.37-1.67-.3-1.68-.33-1.72.49-2-.67.53,2.12-.19,1.81-.17,1.8-.29,1.8.68,1.81-.51,1.8-.08,1.81.7,1.8-.42,1.81.38,1.8L152,33.68l.09,1.8.2,1.81.28,1.81,0,1.81L152,42.53l-1.49.31-1.71-.49-1.7.76-1.7-.67-1.71.13-1.7-.14-1.71.24-1.71.2L137,42.65l-.06-1.73-.33-1.81.21-1.8-.17-1.8.3-1.81.29-1.8.14-1.81-.05-1.8-.23-1.81-.15-1.8,0-1.8.46-1.81L137,19.26l.16-1.81.06-1.81,0-2.13-2,.38-1.66.58-1.7,0-1.73-.8-1.67.52-.08-1.7-.27-1.72.25-1.71-.23-1.71.8-1.72-.19-1.71,0-1.7Z"/><path class="cls-1" d="M167.06.71l1.59-.39,1.79.25,1.79.17L174,.45l1.79-.27L177.6,0l1.79.58,1.79.12L183,.18l1.78.73,1.8-.28,1.79-.39,1.79.4,1.79.12,1.79-.52h1.8l1.8.1,2.06-.12-.57,2-.11,1.71.54,1.72-.31,1.71.43,1.71-.72,1.72L199,12.5l.14,1.7L197.43,14l-1.67-.26-1.71.35-1.68-.43-1.88,0,.64,2-.4,1.81-.18,1.8,0,1.8-.18,1.81-.18,1.8.16,1.81,0,1.8.39,1.81v1.8l-.21,1.81.17,1.8.45,1.81-.06,1.81.07,1.81-.59,1.72-1.6.49-1.7-.66-1.7.19-1.71.28-1.7,0-1.71-.53-1.7.39-1.71.11h-1.85l.21-1.93-.15-1.81,0-1.8.34-1.8.11-1.81-.44-1.8.46-1.81-.53-1.8.42-1.81.17-1.8-.29-1.8-.59-1.81.57-1.81-.51-1.81.28-1.81.15-1.84-1.7.3-1.7-.19-1.7.06-1.69,0-1.82.36-.12-1.84-.15-1.72.85-1.71-.06-1.71-.69-1.72.29-1.71.23-1.71Z"/><path class="cls-1" d="M204.27.18l2.11.29L208.15,0l1.77.87,1.77-.34,1.78-.38,1.77.61L217,.09l1.76.58,1.78-.09,1.77,0,1.78.27,1.77-.38,1.78.19,1.77-.32,1.78.11,1.44.4,0,1.6.36,1.92-.17,1.92-.26,1.92.08,1.93.47,2.1h-2l-1.84-.14-1.85-.33-1.85.7-1.85-.71-1.85.62-1.79-.26.25,2,0,1.73,1.33,0,1.69.59,1.69-.76,1.68.75,1.69-.15,1.69.34,1.83-.59-.48,2,.36,1.83.15,1.83-.19,1.83.07,1.83L231.8,27l-1.61-.39-1.68,0-1.69,0-1.69.24-1.69.18-1.69.35-1.6-.29-.35,2v2.3l2.16.25,1.91-.44,1.91-.06,1.91-.32,1.91-.15,1.92.17,1.62.61.71,1.63L233.72,35,233,37l.33,1.92.55,1.93-.21,2.13-2-.06-1.8-.6-1.8.22-1.8.19-1.8.49-1.8-.82-1.8,0-1.8.22-1.8.19-1.8,0-1.81.08-1.8-.52-1.8.84-1.81-.31-1.81.33-1.79-.46.36-1.82-.42-1.83,0-1.83,0-1.84-.27-1.83.51-1.84-.26-1.83.17-1.83-.18-1.84.29-1.83.07-1.84.2-1.83-.45-1.84L204.42,17l.46-1.83-.53-1.84.53-1.83.21-1.84-.36-1.84L205.09,6V4.19l-.82-1.82Z"/><path class="cls-1" d="M238.23.64l1.71.13,1.85.07,1.85-.46,1.85.34,1.86-.1,1.85.25,1.85-.19,1.86-.29,1.86-.31,1.86.22,1.83.6,1.92-.56,1.82.49,1.77.63,1.85.36,1.54,1.11,1.61.92,1.66.94,1.05,1.59.53,1.83,1.06,1.51.25,1.83.74,1.75.13,1.87L274,17l.23,1.95-1,1.68L272,22.05l-.94,1.63-1.45,1.25-2,.16-1.44,1.22-.44.36,1.63,1,.84,1.57,1.39,1.27L270.67,32l1,1.51.66,1.77,1.65,1.1.86,1.63.73,1.73,1.16,1.43.88,1.45L276,42.23l-1.77.87-1.76-.4-1.77-.05-1.77.47-1.77-.64-1.77.09-1.77.41-1.78,0-1.71-.33-1.33-1.39-.56-1.82-.51-1.86-1.41-1.41-.83-1.7-.63-1.8-.8-1.72-.92-1.62,0-.14.4,1.69,0,1.69-.22,1.7.07,1.69-.67,1.69.64,1.7.09,1.69-.19,1.88-2,.17-1.88-.74-1.87.15-1.88.41-1.87-.27-1.88.27L240,43.2l-1.71-.65-.49-1.66.17-1.83.39-1.83.24-1.84-.72-1.83.09-1.84.45-1.83-.46-1.83.22-1.84-.46-1.83.46-1.84.14-1.83-.43-1.84.33-1.84-.41-1.83-.09-1.84.75-1.83-.05-1.84-.33-1.84L237.85,6l.7-1.84-.36-1.84Zm14.7,18.67,1.23.16,1.81,0,1.6-.93,1.48-1,.27-1.81-.08-1.89-1.42-1.31L256,12.24l-1.75.21-1-.31-.51,1.68.73,1.79-.19,1.81Z"/><path class="cls-1" d="M204.62,57.09A14.82,14.82,0,0,1,201.34,62a6.35,6.35,0,0,0-1.07-.83,11,11,0,0,0,3.09-4.41Zm3.31,5.75a26.6,26.6,0,0,1,2.83,4l-1.14.61c-.14-.28-.32-.61-.54-1-2.93.18-6,.34-8.16.45l-.15-1.18,1.65-.06a31.29,31.29,0,0,0,2.17-5l1.32.33a47.69,47.69,0,0,1-2.21,4.6l4.72-.21c-.49-.73-1-1.49-1.55-2.13Zm-.1-6.1A17.08,17.08,0,0,0,211.1,61a5.82,5.82,0,0,0-.95,1,25.71,25.71,0,0,1-3.43-4.77Z"/><path class="cls-1" d="M219.6,59.65c.26,3.78,1.1,6.63,2.14,6.63.29,0,.44-.64.51-2.2a2.74,2.74,0,0,0,1,.63c-.19,2.16-.59,2.75-1.58,2.75-2,0-2.93-3.49-3.23-7.81h-6.08V58.56h6c0-.68,0-1.38,0-2.07h1.2c0,.69,0,1.4,0,2.07H223v1.09Zm-3.72,5.66c.79-.14,1.61-.31,2.41-.48l.08,1c-2,.46-4.13.92-5.67,1.26L212.38,66l2.38-.43V62.33h-2V61.25H218v1.08h-2.1Zm5-8.82a8.89,8.89,0,0,1,1.67,1.38l-.78.69a9.47,9.47,0,0,0-1.62-1.46Z"/><path class="cls-1" d="M227,61.38l-1.22.44a31.58,31.58,0,0,0-1.35-3.33l1.2-.43C225.92,58.77,226.67,60.58,227,61.38Zm7.36-3.2a5.92,5.92,0,0,0-.25.79,13.3,13.3,0,0,1-2,4.51A10.57,10.57,0,0,1,227.35,67l-1-1.06A9.62,9.62,0,0,0,231,62.76a11.13,11.13,0,0,0,1.9-5Zm-4.17,2.32-1.19.42a32.32,32.32,0,0,0-1.2-3.2l1.16-.39A33.26,33.26,0,0,1,230.15,60.5Z"/><path class="cls-1" d="M241.5,65.52a9,9,0,0,0,.08,1.41h-1.49a12.38,12.38,0,0,0,.08-1.41V61.25A23.13,23.13,0,0,1,235.82,63l-.68-1.16a18.83,18.83,0,0,0,5.41-2.19A13.05,13.05,0,0,0,243.68,57l1,.92a19.46,19.46,0,0,1-3.2,2.58Z"/><path class="cls-1" d="M248.16,62.83l-1.14.42a23.51,23.51,0,0,0-1.09-2.73l1.13-.41C247.33,60.66,247.93,62.18,248.16,62.83Zm6.07-2.58A7,7,0,0,0,254,61a9.61,9.61,0,0,1-1.68,3.61,9.28,9.28,0,0,1-3.94,2.9l-1-1a8.05,8.05,0,0,0,3.93-2.53,8.32,8.32,0,0,0,1.6-4.1Zm-3.42,1.84-1.13.4a20.42,20.42,0,0,0-1-2.63l1.13-.38C250.07,60,250.65,61.56,250.81,62.09Z"/><path class="cls-1" d="M264.75,58.81a5.67,5.67,0,0,0-.33.75A12.9,12.9,0,0,1,262.71,63c.45.29.85.55,1.15.77l-.84,1.1c-.28-.24-.68-.53-1.13-.84a11.41,11.41,0,0,1-4.57,3.11l-1.1-1a10.17,10.17,0,0,0,4.62-2.85c-.89-.57-1.81-1.14-2.46-1.49l.8-.9c.67.34,1.59.87,2.47,1.4a9.83,9.83,0,0,0,1.41-2.92h-3.81a12.85,12.85,0,0,1-3.16,3.12l-1-.78a10.71,10.71,0,0,0,3.84-4.09,4.28,4.28,0,0,0,.46-1.08l1.36.44c-.23.36-.49.81-.61,1l-.14.27h2.91a2.62,2.62,0,0,0,.9-.14Z"/><path class="cls-1" d="M266.28,61.14c.39,0,1.13.07,1.78.07h6.51c.59,0,1.05-.05,1.34-.07v1.47c-.26,0-.8,0-1.33,0h-6.52c-.68,0-1.38,0-1.78,0Z"/><line class="cls-2" x1="190.79" y1="62.54" y2="62.54"/></g></g></svg>