<svg xmlns="http://www.w3.org/2000/svg" viewBox="0 0 180.83 69.49"><defs><style>.cls-1{fill:#736357;}.cls-2{fill:none;stroke:#736357;stroke-miterlimit:10;stroke-width:2px;stroke-dasharray:2 4;}</style></defs><title>アセット 2</title><g id="レイヤー_2" data-name="レイヤー 2"><g id="contents"><path class="cls-1" d="M.71,1.18,2.31.49l1.83.67H6L7.82.8l1.84.55L11.5.44l1.85.1,1.76.54L16.2,2.45,17,4.07l1.2,1.39.56,1.78.76,1.65,1.09,1.45.84,1.6,1.48,1.24.9,1.56.79,1.64.66,1.71L26,19.77l.87,1.59,1.52,1.22L29,24.31l.24-.07L29,22.58V20.75L28.43,19l0-1.82-.46-1.78.44-1.82.12-1.8L27.63,10l.25-1.8.26-1.81L27.9,4.56l.55-1.81L27.88.68,30,.79,31.79.66l1.83.18,1.84.23,1.83.11,1.83-.12L41,1,42.84.9l.36,1.87L42.53,4.6,43,6.43l-.54,1.84,0,1.83.72,1.84-.32,1.83V15.6l-.42,1.84,0,1.83.75,1.84-.82,1.83.77,1.84-.38,1.84-.12,1.83-.07,1.84.14,1.83L43.3,34l-.72,1.84.15,1.83-.23,1.84.66,1.85-.27,1.93L41,43.05,39.14,43l-1.83,0-1.84.56-1.83-.16-1.83-.47L30,42.74l-2,.66-.8-1.84-.57-1.81-1-1.59-1.12-1.49-1-1.55L22,33.88,21.53,32l-1.39-1.32-.94-1.6-.61-1.8-1-1.57L16.78,24l-1.28-1.4-.73-1.78-.48.19.42,1.58.47,1.66L15.29,26l-.5,1.75.78,1.68-.9,1.71.42,1.72-.2,1.71-.25,1.71.1,1.72.84,1.71-.21,1.72L15,43l-1.66-.25-1.83.63-1.84-.13L7.81,42.8,6,43.38l-1.84-.26-1.84.49L.39,43.24,0,41.33l.57-1.84L.23,37.66l.12-1.83L.67,34l.07-1.84.05-1.83L.33,28.49.12,26.66l0-1.84L.26,23l.25-1.84.31-1.83L.47,17.48l.3-1.83L.42,13.81.82,12,.71,10.14l0-1.84L.43,6.46.56,4.62,0,2.75Z"/><path class="cls-1" d="M48.82,1,50.51.45,52.28,1,54.05.62,55.83.45,57.6.78l1.78,0,1.77-.1,1.77.58L64.69.65l1.78.63,1.77-.21L70,.85l1.77.28,1.78-.5,1.78.3,1.89-.1.35,2-.15,1.92L76.92,6.7l.47,1.92-.47,1.93-.13,1.6-1.5.57-1.85.16-1.85-.82L69.75,13l-1.85-.42L66.05,13l-1.66-.29-.33,1.83-.18,2.27,2-.66,1.68.68,1.69-.58,1.69.1,1.69.33,1.69.12,1.92-.46-.1,2L76,20.16,75.86,22l0,1.83L76,25.65l.23,2.06-1.93.13-1.69-.47L71,27.86l-1.68-.65-1.69.12-1.69,0-1.78.12-.22,2.14,0,2.33,2.18.1L68,31.62l1.91.27,1.91-.52,1.91.41,1.92.12,2-.31,0,1.95-.15,1.93.08,1.92.47,1.92-1,1.93L77.37,43l-1.59-.21-1.8.6-1.8.1-1.81-.54h-1.8l-1.8-.16-1.8.39h-1.8L61.37,43l-1.8.26-1.8-.53L56,43.38l-1.8.08-1.8.09-1.81-.09-1.93-.19V41.33l.19-1.84.36-1.83-.56-1.83L49,34V32.16L49,30.33l0-1.84.21-1.83-.81-1.84L48.88,23,49,21.15l0-1.83L49,17.48l-.35-1.83.44-1.84L48.75,12l.13-1.84L48.83,8.3l.25-1.84-.73-1.84.44-1.84Z"/><path class="cls-1" d="M96.88.83l.23,1.92V4.62l.47,1.78.93,1.68,0,1.88,1,1.67.06,1.87.06,1.86.62,1.75,0,1.88,1,1.67-.19,1.92.85,1.71.6,1.69.14.29.43-2,.16-2,0-2,.53-1.9.27-1.79.81-1.64.08-1.84.34-1.76.35-1.77,1-1.61-.15-1.89.9-1.63.21-1.8.8-1.55L109.88.6l1.68.2,1.68-.28,1.68.75,1.68-.06,1.68-.64,1.51.57.14,1.7.57,1.76,1,1.66-.16,1.93.81,1.7.08,1.88,1,1.67.25,1.83,0,1.9,1.1,1.65-.14,1.92.17,1.86.65,1.76.83,1.65.11.18-.06-1.94.32-1.86.2-1.88.17-1.9L128,17V15.15l.63-1.73.28-1.8-.12-1.91L129.44,8l.6-1.73.17-1.84,1.21-1.59-.08-2,1.82-.23,1.77-.05,1.77.18,1.77.09,1.78.51L142,.57l1.78.8,1.77,0,2-.55-1,1.73-.28,1.8-.85,1.6-.71,1.64-.54,1.71L144,11.14l-1,1.55-.3,1.79-.49,1.73L141,17.66l0,1.89-1.15,1.5.24,2-.77,1.63-1.2,1.48-.65,1.66-.35,1.77-.56,1.71-.16,1.84-1.23,1.47-.73,1.64-.6,1.69-.42,1.76-.05,1.89-.78,1.76-2-.31-1.91.13-1.91.11-1.91-.1-1.91-.38-1.92.78-2.13-.13-.44-2-.51-1.73L117.52,38V36.11l-.77-1.67-.19-1.81-.46-1.74.46-1.94-.51-1.74-.53-1.73-.73-1.69.06-1.87L114.64,20l-.65.43-.67,1.34-.09,1.6.2,1.65-.21,1.62-.41,1.66L112,29.86l-.7,1.59.12,1.79-.92,1.53-.4,1.67.25,1.83-.55,1.63L109,41.45,108.57,43l-1.72.49L105,43.08l-1.86.24-1.86.25L99.4,43l-1.87-.08-1.79.18L95,41.5l-.15-1.84L93.61,38.2l-.12-1.85-1.08-1.51-.64-1.67-.67-1.66-.32-1.78-.72-1.64-.13-1.85-.77-1.63-1-1.56L88,21.21l-.56-1.7-.22-1.82L86,16.22l-.25-1.8-.46-1.74L84.63,11,83.39,9.57,83,7.8l-.41-1.75-.5-1.73-.74-1.64-.79-2,2.08.66L84.41.8,86.17,1l1.77.36,1.77-.13L91.47.51l1.77.17L95,.45Z"/><path class="cls-1" d="M150.19,27.72l1.23.68,1.28,1.19,1.5.88,1.68.49,1.37,1.32,1.85-.21,1.69.88,1.72-.62,1.34-1,.36-1.33.27-1.72L162.8,28l-1.58.09-1.41-1-1.51-.43-1.84.36-1.62-.66-1.35-1.17-1.86-.23-1.2-1.31-.86-1.51L148.17,21l-.79-1.58-.32-1.75.55-1.75-.8-1.84,1.1-1.63.65-1.62.68-1.6.19-2,1.88-.78L152.38,5l1.5-.93,1.51-.89L157,2.43l1.54-.93,1.57-1,1.9.31L163.68,0l1.82,0,1.77,0L169,.38l1.73.31,1.69.52,1.81.15,1.36,1.33,1.88.14,1.17,1.11-.84,1.68.1,2.1-.77,1.77-.64,1.82-1.15,1.63-1,1.52-1.27-.69-1.62-1.07-1.9-.43-1.79-.79-2,.15-2.21.31-.69,1.88.66,1.69,2,.41,1.68.64h1.82l1.86.15,1.44,1.37,1.59.77,1.53.85,1.45,1,1.65,1,.25,2,.73,1.59.86,1.68-.28,1.84-.28,1.73.31,1.86-1.31,1.43-.64,1.59-.43,1.81-1.12,1.41-1.48,1-1.59.81-1.23,1.43-1.7.61-1.64.76h-1.84l-1.74.29-1.73.61-1.79-.5-1.87.13-1.9.15-1.79-.75-1.95.25L152.62,43,151,41.91l-1.7-.78-1.79-.54L145.76,40l.89-1.6,0-2,.67-1.71,1.23-1.48.43-1.8.46-1.76Z"/><path class="cls-1" d="M11.11,64.73a6.84,6.84,0,0,1-1.67,2.82,6.56,6.56,0,0,0,2.29,1,3.13,3.13,0,0,0-.66.87,6.75,6.75,0,0,1-2.38-1.24,8.38,8.38,0,0,1-2.22,1.2,3.52,3.52,0,0,0-.56-.82v.86H4.85V68.38L.93,68.8l-.09-1,1.09-.1V63.88H1V63H11.46v.91H5.91v4.63a6.84,6.84,0,0,0,2-1,7.28,7.28,0,0,1-1.21-2l.65-.18H6.29V64.5h3.94l.19,0Zm-1-2.32H2.37V58.82h7.74ZM3,63.88v.67H4.85v-.67Zm0,2.17H4.85v-.71H3Zm1.89,1.4v-.6H3v.78ZM9,59.57H3.43v.69H9ZM9,61H3.43v.69H9Zm-1.35,4.4a5.26,5.26,0,0,0,1,1.51,5.39,5.39,0,0,0,1.09-1.51Z"/><path class="cls-1" d="M17.32,67.78a15.67,15.67,0,0,0-1.17-1.19v2.84H15.07v-2.8a9.11,9.11,0,0,1-1.78,2,5,5,0,0,0-.72-.8,8.37,8.37,0,0,0,2.29-2.52h-2v-.95h2.22V63.28H12.82v-1h1.23a5.31,5.31,0,0,0-.42-1.54l.82-.21H13v-.92h2.1V58.52h1.08v1.14h2.1v.92H16.8l.84.19c-.23.57-.46,1.16-.66,1.56h1.4v1H16.15v1.09h2.12v.95H16.15v.2c.43.3,1.54,1.2,1.81,1.43Zm-2.82-7.2A5.68,5.68,0,0,1,15,62.15l-.7.18h2.64l-.83-.18a11.62,11.62,0,0,0,.54-1.57Zm9.22,2.87H22.46v5.94H21.38V63.45H19.83v.11c0,1.77-.21,4.27-1.87,5.93a2.61,2.61,0,0,0-.79-.76c1.45-1.48,1.6-3.53,1.6-5.18V59.39l.74.22a15.54,15.54,0,0,0,3.19-1l.9.8a18.57,18.57,0,0,1-3.77,1.1v1.94h3.89Z"/><path class="cls-1" d="M24.57,63.85a16.34,16.34,0,0,0,.51-3.09l.81.11a16.77,16.77,0,0,1-.48,3.25Zm3.1-1.66a15.5,15.5,0,0,0-.61-1.68v8.94H26v-11h1v2l.7-.27a11.78,11.78,0,0,1,.67,1.69Zm8,.07v.83H27.91v-.83H31.2v-.69H28.57v-.78H31.2v-.63H28.28v-.82H31.2v-.89h1.1v.89h3v.82h-3v.63H35v.78H32.3v.69Zm-.89,6.05c0,.5-.11.79-.47.94a5,5,0,0,1-1.76.17,4,4,0,0,0-.33-1c.56,0,1.13,0,1.29,0s.21-.06.21-.21v-.65h-4v1.82h-1V63.68h6.06Zm-5-3.79v.74h4v-.74Zm4,2.31v-.74h-4v.74Z"/><path class="cls-1" d="M40,61.58h2.1v1H40.94l.52.13c-.2.5-.42,1-.61,1.41h1.06v1H40v1.13h1.8v1H40v2.31h-1V67.11H37v-1h1.89V65h-2v-1h1a5.15,5.15,0,0,0-.46-1.41l.5-.13H36.72v-1h2.2v-1H37.15V59.6h1.77V58.47h1V59.6h1.66v.93H40ZM40,64a13.45,13.45,0,0,0,.51-1.43H38.41A5.54,5.54,0,0,1,38.88,64l-.4.11h1.91Zm7.45-.73a11.69,11.69,0,0,1-1.35,3.91,5.79,5.79,0,0,0,1.78,1.43,4.27,4.27,0,0,0-.74.89A6.49,6.49,0,0,1,45.47,68,7.11,7.11,0,0,1,44,69.47a3.35,3.35,0,0,0-.61-.65v.64h-1V59h4.78v2.26c0,.52-.11.81-.53,1a5.91,5.91,0,0,1-1.91.16,3.64,3.64,0,0,0-.33-1c.68,0,1.31,0,1.49,0s.23,0,.23-.18V60H43.39V63h3.18l.18-.05Zm-4,5.39a6.31,6.31,0,0,0,1.43-1.44,12.54,12.54,0,0,1-1.43-3.24Zm.94-4.68a10,10,0,0,0,1.06,2.3,9.35,9.35,0,0,0,.85-2.3Z"/><line class="cls-2" x1="180.83" y1="65.05" x2="57.97" y2="65.05"/></g></g></svg>