<svg xmlns="http://www.w3.org/2000/svg" viewBox="0 0 220.42 69.68"><g data-name="レイヤー 2"><path d="M46.42 18.68l-.3 1.54.4 1.76L46 23.7l.38 1.79-.66 1.67-.53 1.65-.23 1.73-.14 1.86-1.36 1.27-.59 1.74-1.36 1.18-1.4 1.17-1.28 1.34-1.64.83-1.57.91-1.62.74-1.56 1-1.72.63-1.74.6L27 43.3l-1.77.25-1.78.76-1.76-.31-1.75-.39-1.71-.47h-1.81l-1.7-.49-1.87-.14-1.25-1.57-1.6-.65-1.33-1.24-1.58-.83-1.45-1-1-1.49-.92-1.51L3 32.59 2 31.1.85 29.63l.37-1.94L0 26.11l.54-1.85L.3 22.5l.12-1.8L0 18.84l.76-1.72.46-1.74.17-1.88.74-1.68 1-1.57 1.51-1.16L5.9 7.82l.89-1.65 1.53-1 1.68-.8L11.23 3l1.94-.11 1.45-1.25 1.79-.34 1.8-.21H20l1.76-.85 1.82.46 1.73.15 1.81-.51 1.67.71h1.8l1.52 1.06 1.66.51 1.69.5 1.69.56 1.5 1 1.1 1.47 1.58.85.82 1.61 1.64 1 .34 1.51-1.67.75-1.84.52-1.71.88-1.72.85-1.87.42-1.77.74-1.68 1-1.9.47-1.25-1.31-1.2-1.25-1.52-.98-1.81-.35-1.89.24-1.71.81L19.06 15l-1.24 1.32-1.38 1.32-.36 1.86-.55 1.76-.2 1.85v2l.93 1.77 1.27 1.45 1.09 1.43 1 1.85 2 .31 1.9.15 1.83-.48 1.85-.41 1.35-1.29L29.92 28l-1.92.15h-3.47l-2.09.67.47-2 .31-1.66-.39-1.66-.32-1.66.69-1.67-.62-1.89 2 .61 1.86-.89 1.82.74 1.82.19 1.82-.54 1.82-.39 1.82.7 1.82-.7 1.82.29 1.82.61 1.83-.63 1.83.11zm47.78 3.65v1.8l.06 1.87-.83 1.67-.23 1.79-.78 1.54-.6 1.7-1.15 1.39-1.09 1.4-1.31 1.19-1 1.55L86 39.52l-1.73.61L83 41.47l-1.84.27-1.72.42-1.61.84H76l-1.73.26-1.71 1-1.8-.55-1.8.41-1.76-.41-1.73-.44-1.8-.1-1.81-.25-1.74-.51-1.39-1.28-1.49-1-1.8-.54-.93-1.68-1.46-1-1.47-1.09-.72-1.69-.79-1.59-1.23-1.39-.63-1.69-.38-1.77-.52-1.69.5-1.85v-1.77l-.47-1.8.51-1.74L47.8 17l1.2-1.57.32-1.77L50 12l1-1.46 1.18-1.33.82-1.62 1.52-1 1.34-1.16 1.08-1.61 1.76-.57 1.69-.61L62 2l1.75-.35 1.76-.24 1.74-.47L69 .8l1.79-.44 1.79.07 1.76.37 1.8.13L78 .91l1.72.59 1.72.6 1.35 1.35 1.83.44 1.1 1.57 1.48 1 1.48 1.06 1.15 1.38.61 1.76L91.68 12l.87 1.58.68 1.67.23 1.8.54 1.7.24 1.78zm-31.2.23l.2 1.79.72 1.65.44 1.8 1.43 1.14L67.24 30l1.77.38 1.78.46 1.85-.11 1.86-.39L75.85 29 77 27.57l1.29-1.36v-1.89l.71-1.76v-1.91L78.1 19l-.61-1.83-1.32-1.47-2-.32-1.53-1.15-1.87.28-1.77-.07-1.81.44-1.4 1.24-1 1.48-.79 1.58-1 1.54zm79.29-.23l-.67 1.77.5 1.86-.91 1.66-.38 1.74-.59 1.64-1 1.48-.57 1.72-1.2 1.34-.93 1.56-1.37 1.17-1.72.68-1.36 1.12-1.37 1.19-1.69.59-1.75.38-1.66.58-1.63.91-1.79.2h-1.8l-1.79-.28-1.81.65-1.72-.87-1.86.34-1.71-.62-1.79-.3-1.75-.5-1.59-.89-1.27-1.39-1.91-.38-.92-1.68-1.38-1.12-.9-1.55-1.56-1.03-.44-1.8-1.08-1.45-.76-1.63-.29-1.77-.4-1.75v-1.79l.29-1.78v-1.76l.15-1.75L96 17l.32-1.77.3-1.81 1-1.53 1.23-1.34L100 9.21 101.22 8l1-1.55 1.34-1.18 1.3-1.3 1.5-1 1.64-.71h1.93L111.42 1l1.8-.27 1.88.41 1.73-.49 1.78-.65 1.81.18 1.78.34 1.66.88 1.77.19 1.76.34 1.86.22 1.26 1.51 1.49.92 1.58.82 1.5 1 1.3 1.24 1.23 1.31.61 1.74 1.64 1.11.49 1.78 1 1.57v3.68l.62 1.72zm-31.29.23l-.43 1.86 1.16 1.52.38 1.84 1.34 1.27 1.57.93 1.68.84 1.87-.2h1.83l1.62-.86 1.57-.84 1.68-1 .8-1.74.18-1.87.33-1.79.08-1.89-.62-1.78-1.37-1.33-1.14-1.35-1.44-1.08-1.65-.91-1.87.51-1.88-.52-1.52 1.17-1.61.77-1 1.44-.72 1.59-.64 1.62zM144.8 1.2l1.64-.49 1.73.42 1.73.36 1.74-.49 1.74-.22 1.73.74 1.74-.62 1.74.56 1.74-.26 1.78.42 1.81-.33 1.8.12 1.78.25 1.65.8 1.93-.26 1.66.76 1.52 1 1.66.67 1.42 1.1 1.19 1.34 1.9.6.87 1.64 1 1.5 1.28 1.36.12 1.91.63 1.66.82 1.66.25 1.79-.2 1.81.64 1.8-.37 1.85-.57 1.8.27 1.94-.52 1.81-.89 1.66-.88 1.64-.9 1.64-1.32 1.32-1 1.62-1.42 1.24-1.66.89-1.6 1-1.95.13-1.53 1.21-1.78.55-1.86.21-1.85.3-1.86-.68-1.77.15-1.76.41-1.76-.27-1.77.27-1.76.31-1.77-.71-1.77.55-1.79-.15-1.77-.4-1.77-.23-1.95.64v-2l.45-1.83-.46-1.83.21-1.84-.46-1.83.46-1.84.14-1.83-.43-1.83.34-1.84-.37-1.83-.09-1.84.76-1.83-.06-1.84-.33-1.84-.21-1.83.71-1.84-.36-1.83-.56-1.84.43-1.84-.46-1.83.87-1.84-.33-1.8zm15.14 29.54l1.06-.46 1.7.32h1.77l1.47-1 1.3-1.05 1.71-.73.28-1.82 1-1.5-.12-1.75.27-1.83-.83-1.67-.81-1.58-1.14-1.32-1.26-1.35-1.92.09-1.67-.5-1.75-.44-1 .17-.16 1.82-.28 1.86.87 1.81-.43 1.77v1.82l.47 1.81-.67 1.79.1 1.82zm30.88-2.26l.36.64 1.86.42 1.07 1.62 1.91.1 1.5.95 1.69.51 1.78.22 1.72-.39 1.17-1.23 1.25-1.15-.73-1.43-1.33-.91-1.65.35-1.49-.52-1.5-.51-1.65-.45-1.65-.47-1.81-.18-1.45-1-1.06-1.44-1-1.35-1.51-1.06-.39-1.72.07-1.74-.11-1.65-.08-1.75.25-1.74-.04-1.94 1.25-1.41.53-1.79 1.18-1.4 1.59-.95L193.89 4l1.6-.79 1.44-1.11 1.78-.36 1.63-.74 1.74-.47 1.78-.43h1.83l1.74.7 1.82-.56 1.59 1.17h1.79l1.61.71 1.52.86 1.6.67 2.15.54L218.6 6l-1.14 1.62-.86 1.74-.1 2-.82 1.76-1 1.55-1.47-.6-1.59-1.07-2-.23-1.7-.77-1.89.2-2.21-.09L203 14l.94 1.43 1.86.84 1.72.46 1.72.44h1.87l1.79.4 1.7.73 1.4 1.12 1.24 1.36.92 1.54 1.19 1.36.33 1.77.7 1.68-.3 1.81v1.74l-.27 1.72-.28 1.75-.87 1.54-.53 1.79-1.64 1-1.33 1.12-1.44 1-1.3 1.27-1.74.42-1.62.68-1.76.2-1.69.49-1.72.48-1.78.37-1.88-.28-1.81-.7-1.95.46-1.82-.54-1.78-.62-1.87-.26-1.67-.94-1.76-.62-2-.8.93-1.71 1.17-1.51.33-1.84.9-1.61.25-1.87.63-1.74zM9.45 61a2.93 2.93 0 0 0 .9-.12l1 .6a3.78 3.78 0 0 0-.34.73 11.82 11.82 0 0 1-2.12 4.09 11 11 0 0 1-4.8 3.31l-1.09-1a9.5 9.5 0 0 0 4.8-3 9.14 9.14 0 0 0 1.83-3.53H5.85a12.27 12.27 0 0 1-3 2.92l-1.06-.78a10.2 10.2 0 0 0 3.77-4A5.4 5.4 0 0 0 6 59.18l1.4.46c-.24.36-.5.82-.63 1.06s-.11.2-.18.31zm1-2a18.1 18.1 0 0 1 1 1.64l-.79.34a13 13 0 0 0-.95-1.65zm1.36-.51a13.66 13.66 0 0 1 1 1.63l-.78.35a11.49 11.49 0 0 0-1-1.66zM15.15 65l-1.15.44a25 25 0 0 0-1.1-2.73l1.13-.41c.3.55.9 2.08 1.12 2.7zm6.07-2.57a6 6 0 0 0-.22.72 9.77 9.77 0 0 1-1.68 3.61 9.48 9.48 0 0 1-4 2.9l-1-1a8.27 8.27 0 0 0 3.94-2.53A8.22 8.22 0 0 0 19.9 62zm-3.42 1.85l-1.12.41a24.84 24.84 0 0 0-1-2.64l1.13-.37c.25.5.84 2.07.99 2.6zm13.06-3.42a5.27 5.27 0 0 0-.35.61 16.28 16.28 0 0 1-2 3.43A31.67 31.67 0 0 1 32 68.42l-1.06.92a26.22 26.22 0 0 0-3.17-3.49 15.21 15.21 0 0 1-4.62 3.44l-1-1a13.47 13.47 0 0 0 4.93-3.5A9.86 9.86 0 0 0 29 61.61h-4.4c-.47 0-1.12.06-1.31.07v-1.36a11.72 11.72 0 0 0 1.31.09H29a3.61 3.61 0 0 0 1-.13l.47.35a14.37 14.37 0 0 0-.87-1.48l.78-.33a16.7 16.7 0 0 1 1 1.65l-.68.3zm1-2.46a15.08 15.08 0 0 1 1 1.64l-.78.34a12.31 12.31 0 0 0-1-1.65z" fill="#fff"/><path fill="none" stroke="#fff" stroke-miterlimit="10" stroke-width="2" stroke-dasharray="2 4" d="M219.38 65.23H41.13"/></g></svg>