<svg xmlns="http://www.w3.org/2000/svg" viewBox="0 0 36 13"><defs><style>.cls-1{fill:none;opacity:0.12;}.cls-2{fill-rule:evenodd;}</style></defs><title>アートボード 105</title><g id="comon"><g id="見出し"><rect class="cls-1" width="36" height="13"/><path class="cls-2" d="M2.6,8.67H5.74l0,1.36H8V8.73H7.28V7.47l-6.15,0,0,1.25H.36c0,.44,0,.88,0,1.32H2.6Z"/><path class="cls-2" d="M7,11.78v-.07l-1.54,0v.07Z"/><path class="cls-2" d="M9.9,11.77h1.55V11.7H9.9Z"/><path class="cls-2" d="M24,10.28l-4.6,0V9.76H17.86v2l6.19,0Z"/><rect x="17.31" y="6.33" width="1.55" height="0.91" transform="translate(-0.06 0.15) rotate(-0.49)"/><rect x="21.13" y="8.05" width="1.55" height="0.05" transform="translate(-0.09 0.26) rotate(-0.67)"/><rect x="11.47" y="2.09" width="1.55" height="0.81" transform="translate(-0.01 0.04) rotate(-0.19)"/><path class="cls-2" d="M34.15,1v.73h0v0h-.74v.07h2.28V1.7a3.35,3.35,0,0,1,0-.73Z"/><rect x="23.84" y="4.08" width="3.48" height="2.28" transform="translate(20.15 30.76) rotate(-89.55)"/><path class="cls-2" d="M20.17,8.69v3.05a3.44,3.44,0,0,1,.74,0l6.19,0c0-.5,0-1,0-1.51l-4.61,0V8.69Z"/></g></g></svg>