<svg xmlns="http://www.w3.org/2000/svg" viewBox="0 0 36 13"><defs><style>.cls-1{fill:none;opacity:0.12;}.cls-2{fill-rule:evenodd;}</style></defs><title>アートボード 104</title><g id="comon"><g id="見出し"><rect class="cls-1" width="36" height="13"/><path class="cls-2" d="M17.23,4.52V1.69a2.89,2.89,0,0,1,0-.68H15.72a2.89,2.89,0,0,1,0,.68V6.51h1.55Z"/><path class="cls-2" d="M13.35,11.12l0-2.43h-.74c0-.77,0-1.54,0-2.32h-.73l0-1.15H10.27V4.94h1.52V4.05H11V3.88H7.94v.17H7.2v.89h0v.28H7.7V4.94h1v.28h-1v1H7.17v.15H6.43l0,2.32H5.66c0,.48,0,1,0,1.43h0c0,.54,0,1.09,0,1.63H7.16V10.16H7.9V8.65H11c0,.51,0,1,0,1.51h.74v1.59h1.55c0-.21,0-.42,0-.63Zm-4.68-4c0-1.06,0-2.12,0-3.18h.81v.78h.74v.19h0c0,.74,0,1.47,0,2.21Z"/><path class="cls-2" d="M21.85,11.1l0-.86v.18H15.68v1.33h6.19l0-.65Z"/><path class="cls-2" d="M30.37,11.24h-.1v-1H25.74V9.42H25V5.51h.79V2.1H23.46V5.51h.4V9.42h-.4v2.29a3.35,3.35,0,0,1,.73,0h6.19C30.38,11.58,30.37,11.41,30.37,11.24Z"/></g></g></svg>