<svg xmlns="http://www.w3.org/2000/svg" viewBox="0 0 36 13"><defs><style>.cls-1{fill:none;opacity:0.12;}.cls-2{fill-rule:evenodd;}</style></defs><title>アートボード 103</title><g id="comon"><g id="見出し"><rect class="cls-1" width="36" height="13"/><path class="cls-2" d="M13.36,11.78c0-1,0-2,0-3.06h-.74c0-.77,0-1.55,0-2.32h-.73c0-.78,0-1.55,0-2.32H11l0-2.33a2.46,2.46,0,0,1-.78,0V1H8.75v.73s0,0,0,0H8l0,2.33H7.2c0,.77,0,1.54,0,2.32H6.43l0,2.32H5.66c0,1,0,2,0,3.06H7.16V10.19H7.9V8.68H11c0,.5,0,1,0,1.51h.74v1.59ZM8.67,7.17c0-1.06,0-2.11,0-3.17h.81v.77h.74c0,.8,0,1.6,0,2.4Z"/><path class="cls-2" d="M17.23,10.27V1.71a3.35,3.35,0,0,1,0-.73H15.72a3.35,3.35,0,0,1,0,.73V11.78h6.19l0-1.51Z"/><path class="cls-2" d="M30.35,10.27H25.74V1.71a3.35,3.35,0,0,1,0-.73H24.23v.73h0v0h-.73v10a3.35,3.35,0,0,1,.73,0h6.19Z"/></g></g></svg>