<svg xmlns="http://www.w3.org/2000/svg" viewBox="0 0 83 13"><defs><style>.cls-1{fill:none;opacity:0.12;}.cls-2{fill-rule:evenodd;}</style></defs><title>アートボード 69</title><g id="comon"><g id="見出し"><rect class="cls-1" width="83" height="13"/><rect x="11.71" y="7.48" width="2.34" height="0.91" transform="translate(-0.04 0.07) rotate(-0.31)"/><polygon class="cls-2" points="19.81 7.52 20.56 7.52 20.56 8.38 22.14 8.39 22.14 7.48 19.81 7.47 19.81 7.52"/><path class="cls-2" d="M.42,10.94v.57a3.62,3.62,0,0,1,.75,0l5.54,0a3,3,0,0,1,.76-.05v-.57Z"/><path class="cls-2" d="M6.54,4.05h0L8.87,4V3.23L7,3.25c0,.26,0,.53,0,.8Z"/><rect x="6.78" y="8.24" width="0.05" height="1.96" transform="translate(-2.46 15.96) rotate(-89.62)"/><rect x="11.56" y="9.2" width="1.58" height="0.05" transform="translate(-0.01 0.02) rotate(-0.08)"/><polygon class="cls-2" points="5.46 4.05 6.54 4.05 6.53 3.25 7.04 3.25 7.04 3.24 4.71 3.24 4.71 3.56 5.46 3.56 5.46 4.05"/><path class="cls-2" d="M15.53,1.58l7.09-.06V1.24l-2.38,0V.46L15.56.5a3.55,3.55,0,0,1,0,.75Z"/><path class="cls-2" d="M23.26,3.64h-.05c0-.12,0-.25,0-.37H20.87v.3h.76c0,1,0,2.05,0,3.08h1.62Z"/><path class="cls-2" d="M16.44,7.43l-2.31,0v.06a6.92,6.92,0,0,0,0,1.58l-.79,0v.79l-4,.1,0-2.47-1.58,0,0,1.63h.38v.05H7.78l0,2.34,5.54-.09a3.59,3.59,0,0,1,.76-.05l0-.75.84,0,0-.79h.79l0-1.62.75,0Z"/><path class="cls-2" d="M23.26,3.27v.37H24a3.58,3.58,0,0,0,0,.75V5.55c0,.36,0,.73,0,1.09h.88V3.26Z"/><path class="cls-2" d="M27.87,2.85h-.76v.57h2.05v-1H27.88Z"/><path class="cls-2" d="M38.29,1.23,37,1.27l0,.87H38.3Z"/><path class="cls-2" d="M28.24,5.82H27V6h-.83v.8h-.79v.78l1.54,0a3.29,3.29,0,0,0,0-.78l1.3,0Z"/><path class="cls-2" d="M45.73,3.31h1.54c0-.43,0-.86,0-1.3a3.55,3.55,0,0,1,0-.75l-1.59-.05V.47h-.84V2h.88C45.72,2.45,45.73,2.88,45.73,3.31Z"/><path class="cls-2" d="M39.36,10h-.79V9.27L37,9.25v.67a3,3,0,0,1,0,.75,2.79,2.79,0,0,1,.79.05v.75l1.59.06v.76h.46l0-1.54h-.5Z"/><polygon class="cls-2" points="46.26 4.43 47.01 4.43 47.01 4.52 46.82 4.52 47.84 4.53 47.86 3.62 46.27 3.6 46.26 4.43"/><path class="cls-2" d="M46.26,4.43h0V3.61H44.67v.92h1.58Z"/><path class="cls-2" d="M55.32,4.63h-.6V4.54l-1.67,0v.14h0c0,.7,0,1.4,0,2.11a7.71,7.71,0,0,0-.07,1.62h-.75v.36l2.33,0,0-.44h.75Z"/><path class="cls-2" d="M60.67,10h-4v-.3l-1.58,0v.81l7.13.07V9.93H63V9.71l-2.34,0Z"/><rect x="40.31" y="4.52" width="1.58" height="4.23"/><polygon class="cls-2" points="56.94 11.52 59.31 11.53 59.31 11.51 56.94 11.5 56.94 11.52"/><path class="cls-2" d="M55.32,4.63l1.71,0,0-1.87h.75l.06-1.5H56.32l0,.79h-.75l-.06,2.38h-.75v.12h.61Z"/><path class="cls-2" d="M53.05,4.51c0-.29,0-.58,0-.87h-.75V1.27H50V2.77h.76l0,1.87H53V4.51Z"/><path class="cls-2" d="M71.15,5.63h1v-.1l-1.55,0L70.56,7.6h.58Z"/><path class="cls-2" d="M70.39,7.62h-.58l-.07,1.58H69V6h-.75V5.48l-1.57,0v2h.75c0,1,0,2,0,3l3.89.06c0-.47,0-.94,0-1.41h-1C70.36,8.61,70.38,8.11,70.39,7.62Z"/><path class="cls-2" d="M76.33,4l2.34,0V3.56a3,3,0,0,1,0-.75h-.75V2H77V1.24l-2.38,0V.47l-3.88,0v.75s0,0,0,0H70L70,4l2.3,0,0-1.94,1.66,0v.75a7.45,7.45,0,0,1,1.58,0v.75a2.89,2.89,0,0,1,.79,0Z"/><rect x="56.51" y="6.23" width="3.48" height="2.3" transform="translate(50.03 65.51) rotate(-89.17)"/><path class="cls-2" d="M70.56,7.6h-.17v0h.17Z"/><path class="cls-2" d="M72.09,8.36l-.75,0,0,.77h1.36a2.92,2.92,0,0,1,0-.75V5.64h-.56C72.14,6.54,72.12,7.45,72.09,8.36Z"/><path class="cls-2" d="M82.57,10.79l-6.26.08v.65a3.55,3.55,0,0,1,.75,0l4.76-.06a3.45,3.45,0,0,1,.75-.05Z"/></g></g></svg>