<svg xmlns="http://www.w3.org/2000/svg" viewBox="0 0 83 13"><defs><style>.cls-1{fill:none;opacity:0.12;}.cls-2{fill-rule:evenodd;}</style></defs><title>アートボード 68</title><g id="comon"><g id="見出し"><rect class="cls-1" width="83" height="13"/><polygon class="cls-2" points="9.8 6.77 10.4 6.77 10.4 5.19 9.8 5.19 9.8 2.25 7.46 2.25 7.46 6.81 9.8 6.81 9.8 6.77"/><path class="cls-2" d="M13,2.81V3h2.33V2.81a3.5,3.5,0,0,1,0-.75,1.21,1.21,0,0,1,0,.19H12.22v.52A2.86,2.86,0,0,1,13,2.81Z"/><path class="cls-2" d="M15.34,7.76H13.76V9.94l-4,0V7.76H7.46v3.73a3.06,3.06,0,0,1,.76,0h5.54a3,3,0,0,1,.75,0v-.76h.83V9.11h.76V8.4h-.76Z"/><path class="cls-2" d="M24.06,3.82V3.57l0,2.07h2.35c0,.89,0,1.79,0,2.68l0-2.77V4.4a2.55,2.55,0,0,1,0-.58Z"/><rect x="17.72" y="3.82" width="1.58" height="1.82"/><rect x="19.04" y="0.48" width="3.39" height="0.71"/><path class="cls-2" d="M36.73,5.19l1.54,0-.82,0v-1h-.72V4.4a2.2,2.2,0,0,0-.79,0,3.22,3.22,0,0,1-.84,0V4.15H33.57V3.57c0,.8,0,1.61,0,2.41h-.82v.37H36.7l0,1.22c0-.53,0-1.06,0-1.59A3.89,3.89,0,0,0,36.73,5.19Z"/><path class="cls-2" d="M51.73,2.8l-1.5,0,2.34,0v.06h2.37V2.81h-.79V2h-.79V1.23H51.73V2.8Z"/><path class="cls-2" d="M53.36,3.87h0v0Z"/><path class="cls-2" d="M53.38,5.08c0,.56,0,1.13,0,1.69a7.93,7.93,0,0,0,0,1.63h-.75c0,.51,0,1,0,1.54l-4,0V6.22H47v5.31h5.55a3,3,0,0,1,.75,0v-.76h.83V9.9h.75c0-.53,0-1.05,0-1.58h.76V6.22H53.39c0-.33,0-.67,0-1h0Z"/><path class="cls-2" d="M62.54,7.39v.7H61.31V7.61c0,.52,0,1,0,1.58h-.79c0-.37,0-.73,0-1.1H58.91l0,2.6h.76v.84h2.37v-.84h.75c0-.79,0-1.58,0-2.37h.76V7.39H62.54Z"/><path class="cls-2" d="M63.36,3.41V2.06H62.9c0,.79,0,1.59,0,2.38h-.32v1h.82Z"/><path class="cls-2" d="M56.57,2.77h.75c0,.8,0,1.59,0,2.38v-.3h.26V.48h-1Z"/><path class="cls-2" d="M73.2,4.94v.21H74V7.61H73.2c0,.28,0,.57,0,.86h2.34s0-.08,0-.11V4.94Z"/><rect x="66.86" y="4.94" width="2.3" height="3.53"/><path class="cls-2" d="M75.52,8.47c0,.19,0,.43,0,.64C75.5,8.9,75.5,8.66,75.52,8.47Z"/><polygon class="cls-2" points="12.14 0.54 12.14 0.48 8.26 0.48 8.26 0.54 10.4 0.54 12.14 0.54"/><path class="cls-2" d="M15.34,3h0c0,.73,0,1.45,0,2.18C15.32,4.42,15.33,3.7,15.34,3Z"/><path class="cls-2" d="M26.39,3.65v.17h0Z"/><path class="cls-2" d="M24.06,9.15h-.8v.79l-4,0V8.74H17.72v2.79h5.54a3.06,3.06,0,0,1,.76,0v-.76h.83V9.94h.79V8.74H24.05C24.05,8.89,24.06,9,24.06,9.15Z"/><path class="cls-2" d="M39.86,9.15a4.35,4.35,0,0,0,0-.83h.75V6.81a2.51,2.51,0,0,1-.79,0V6h-.72l0,2.38-1.58,0V7.57h-.07v3.61h3.16v1.1h0a2.84,2.84,0,0,1,0-.79h.75v-.72l-1.54,0Z"/><path class="cls-2" d="M38.31,2a3.5,3.5,0,0,1,0-.75l-1.58,0V.48H35.18v.75l-1.58,0,0,1.19h1.57V2h1.59v.44h.71V4.15h.84Z"/><path class="cls-2" d="M48.61,2.77h.12V.48H47.06a3,3,0,0,1,0,.75v4h1.59Z"/><path class="cls-2" d="M54.94,3.87H53.36c0,.4,0,.8,0,1.21v.14H55.7V4.44h-.76Z"/><path class="cls-2" d="M60.47,7.39c0-.45,0-.91,0-1.37H59.7V5.4H58.12l0,2h2.32Z"/><path class="cls-2" d="M62.1,5.4l0,2h.47v-2Z"/><path class="cls-2" d="M63.63,7.39l0-2.24,0,2.24Z"/><path class="cls-2" d="M72.41,9.94a2.71,2.71,0,0,0-.83,0H70a2.86,2.86,0,0,1-.79,0V9.87h-2.3v.21H74V9.94h.79V9.87H72.41Z"/></g></g></svg>