<svg xmlns="http://www.w3.org/2000/svg" viewBox="0 0 49 13"><defs><style>.cls-1{fill:none;opacity:0.12;}.cls-2{fill-rule:evenodd;}</style></defs><title>アートボード 73</title><g id="comon"><g id="見出し"><rect class="cls-1" width="49" height="13"/><path class="cls-2" d="M11.79,6.77a7.16,7.16,0,0,1,0-1.62h.75c0-.78,0-1.56,0-2.34a3.5,3.5,0,0,1,0-.75h-.75V1.23H9.41V.48H5.53v.75s0,0,0,0H4.74V11.49a3,3,0,0,1,.75,0H11a3,3,0,0,1,.75,0,2.92,2.92,0,0,1,0-.8h.75c0-1,0-2.08,0-3.12a3.64,3.64,0,0,1,0-.76A2.52,2.52,0,0,1,11.79,6.77ZM7.08,2H9.49v.75a2.84,2.84,0,0,1,.79,0c0,.8,0,1.59,0,2.38H7C7.05,4.13,7.06,3.08,7.08,2Zm4,7.17h-.76v.75a2.73,2.73,0,0,0-.83,0H7.83a2.84,2.84,0,0,1-.79,0V6.77h3.2v.8H11Z"/><path class="cls-2" d="M22.92,4.44V2.81h-.8V2h-.79V1.23H20.5V.48H17.41v.75l-1.58,0V2l0,0H15c0,.53,0,1.06,0,1.59h-.76c0,1.1,0,2.21,0,3.32V8.36a3,3,0,0,1,0,.75H15c0,.53,0,1.06,0,1.58a2.86,2.86,0,0,1,.79,0v.76l2.37,0v.75h1.51v-.75h1.62v-.8h.79V9.94h.8V8.32h.75V4.44ZM21.33,9.15h-.79v.79c-.18,0-.71,0-.79,0H18.12a2.86,2.86,0,0,1-.79,0V9.19h-.75c0-1.6,0-3.19,0-4.79a3.67,3.67,0,0,0,0-.83h.75a2.92,2.92,0,0,1,0-.8h.75V2h1.67v.75h.75v.84h.79Z"/><path class="cls-2" d="M34,3.65h-.75c0-.53,0-1.06,0-1.59a2.86,2.86,0,0,1-.79,0V1.27l-1.58,0V.48H28.5v.75H26.88V2h-.8v.79h-.79V5.23h-.75v2.3h.75c0,.79,0,1.58,0,2.37h.75v.83h.8v.8H28.5v.75H30v-.75l2.38,0a2.92,2.92,0,0,1,0-.8h.75c0-.52,0-1,0-1.58H34C34,8,34,6.89,34,5.78V4.4A3.58,3.58,0,0,1,34,3.65ZM31.63,9.19h-.75v.75h0v0l-3.17,0c0-.51,0-1,0-1.54h-.75V3.61h.79v-.8h.79V2h1.62v.75l1.55,0c0,1.85,0,3.7,0,5.55A3.67,3.67,0,0,0,31.63,9.19Z"/><path class="cls-2" d="M43.51,10.77c0-.52,0-1,0-1.58h-.75V8.36h-.8c0-.52,0-1,0-1.55h-.75V6h-.79V4.4h.79V3.61h.79v-.8h.8V2h.79c0-.51,0-1,0-1.54H42v.75h-.83v.83h-.75v.75c-.05,0,0,0,0,0h-.75l0,1.55h-.79v.79H38v-4h-.83V.48h-.71v.75h0v0h-.75V11.49l2.33,0v-4h.76V6.77h.83l0,1.55h.75v.83h.79l0,1.54h.75v.84l2.34,0v-.72Z"/></g></g></svg>