<svg xmlns="http://www.w3.org/2000/svg" viewBox="0 0 37 13"><defs><style>.cls-1{fill:none;opacity:0.12;}.cls-2{fill-rule:evenodd;}</style></defs><title>アートボード 63</title><g id="comon"><g id="見出し"><rect class="cls-1" width="37" height="13"/><path class="cls-2" d="M10.33,3.93v.48l.84,0V3.94Z"/><path class="cls-2" d="M26.91,9.08h1.57V8.37H26.91Z"/><polygon class="cls-2" points="4.44 4.45 3.69 4.44 3.68 4.95 6.02 4.97 6.03 3.95 4.45 3.93 4.44 4.45"/><path class="cls-2" d="M20.53,10.77v.74l1.62,0v.75h1.51v-.75l2.38,0a3.9,3.9,0,0,1,0-.69Z"/><path class="cls-2" d="M16.54,2l0-.75H14.94V.46l-3.09,0v.76H11v.79h-.79v.8H9.46l0,.84,1.58,0V3.62h.1V3.05h.63a.93.93,0,0,1,0-.25h.75V2.05l1.66,0v.75a3,3,0,0,1,.8,0v.75h.75v.09l1.56,0c0-.28,0-.56,0-.84A3.45,3.45,0,0,1,17.33,2,2.89,2.89,0,0,1,16.54,2Z"/><polygon class="cls-2" points="0.32 8.31 1.07 8.32 1.06 9.08 2.64 9.1 2.66 7.38 0.33 7.35 0.32 8.31"/><path class="cls-2" d="M19.26,2.17V2.8h.57V2.16Z"/><path class="cls-2" d="M21.42,2.82h.19v.24L24,3V2.81h-.79V2.13L21,2.15h.42Z"/><rect x="12.47" y="8.2" width="1.58" height="0.81" transform="translate(-0.12 0.19) rotate(-0.82)"/><polygon class="cls-2" points="19.85 2.14 19.85 2.16 21.01 2.15 19.85 2.14"/><path class="cls-2" d="M21.42,3.07V2.82H19.84v.24Z"/><path class="cls-2" d="M28.6,4.44l0-1.39-2.37,0c0,.44,0,.88.05,1.31H27l0,2.92,2.33,0,0-2.84Z"/><path class="cls-2" d="M35.11,8.21v.2h-.75V9l2.31,0c0-.27,0-.54,0-.81Z"/><path class="cls-2" d="M11.81,3.6h-.65v.33h.72c0,.14,0,.29,0,.43l-.71,0,0,2.9h1.58l0-4.23H11.8C11.79,3.23,11.81,3.44,11.81,3.6Z"/></g></g></svg>