<svg xmlns="http://www.w3.org/2000/svg" viewBox="0 0 37 13"><defs><style>.cls-1{fill:none;opacity:0.12;}.cls-2{fill-rule:evenodd;}</style></defs><title>アートボード 62</title><g id="comon"><g id="見出し"><rect class="cls-1" width="37" height="13"/><path class="cls-2" d="M17.3,3.72h0l0,1Z"/><rect x="11.81" y="0.85" width="3.09" height="0.22"/><rect x="8.64" y="5.12" width="2.34" height="3.52"/><path class="cls-2" d="M11.72,3.72h0a1.7,1.7,0,0,1,0,.22A1.7,1.7,0,0,0,11.72,3.72Z"/><polygon class="cls-2" points="27.61 4.81 27.61 3.19 26.9 3.19 26.9 4.22 26.9 5.76 28.36 5.76 28.36 4.81 27.61 4.81"/><path class="cls-2" d="M26,8.12v.65h-.75v.76h0v0h-.75v.3h3.1l0-1.75Z"/><rect x="20.71" y="8.12" width="0.56" height="1.75"/><path class="cls-2" d="M17.27,2.76H14.18v.39a2.92,2.92,0,0,1,.8,0v.53H17.3V3.19A1.8,1.8,0,0,1,17.27,2.76Z"/><path class="cls-2" d="M10.18,3.19H9.39v.53h2.33a2,2,0,0,1,0-.57h.75V2.76H10.18Z"/><path class="cls-2" d="M26,1.65l-2.37,0V.85H19.73a3.64,3.64,0,0,1,0,.76v.68H26Z"/><rect x="19.69" y="9.87" width="1.03" height="2.04"/><path class="cls-2" d="M27.58,9.87h0v0Z"/></g></g></svg>