<svg xmlns="http://www.w3.org/2000/svg" viewBox="0 0 37 13"><defs><style>.cls-1{fill:none;opacity:0.12;}.cls-2{fill-rule:evenodd;}</style></defs><title>アートボード 61</title><g id="comon"><g id="見出し"><rect class="cls-1" width="37" height="13"/><path class="cls-2" d="M17.27,4.36l0-1.55a3.5,3.5,0,0,1,0-.75,2.86,2.86,0,0,1-.79,0V1.27l-1.58,0V.48H11.81v.75H11V2h-.8v.79H9.39V4.44H8.64V8.32h.75V9.94h.79v.79H11v.8H12.6v.75h1.5v-.75l2.38,0a2.92,2.92,0,0,1,0-.8h.75l0-2.33H15.73v.83H15v.75l0,0-3.17,0V9.15H11V3.57h.75a2.92,2.92,0,0,1,0-.8h.75V2h1.66v.75a2.92,2.92,0,0,1,.8,0v.76h.75V4.4Z"/><path class="cls-2" d="M27.61,4.44V2.81h-.79V2H26V1.27l-2.37,0V.48H19.73a3.54,3.54,0,0,1,0,.75v10.3h5.54v-.8l1.55,0a2.52,2.52,0,0,1,0-.79h.75c0-.79,0-1.58,0-2.37h.75V4.44ZM26,8.4h-.75v.75h0v0h-.75v.75l-3.21,0V2H22.9v.75l2.33,0c0,.52,0,1,0,1.55H26Z"/></g></g></svg>