<svg xmlns="http://www.w3.org/2000/svg" viewBox="0 0 78 20"><defs><style>.cls-1{fill:none;}.cls-2{fill-rule:evenodd;}</style></defs><title>01_b</title><g id="レイヤー_1" data-name="レイヤー 1"><rect class="cls-1" width="78" height="20"/><path class="cls-2" d="M52.57,9.52V10H52V6.77h1.54V6.3h0c0-.69,0-1.38,0-2.07H52V1h.48V.53H52V.47L50.45.53V2.64a1.75,1.75,0,0,1-.63-.05V2.11h-1c0,.36,0,.71,0,1.06h-.48c0,1.41,0,2.83,0,4.24H47.8a4.52,4.52,0,0,1,0,1c0,.34,0,.67,0,1h.48v.05l1-.05c0-.71,0-1.41.05-2.12h.48V6.77h.63v4.29l-1.06,0v.48l-1.06.05v.48h0c0,.68,0,1.37,0,2.06h.43V13.7l1.06,0v-.47h.63v6.29l1.53.06V12.12h.53v-.53h1.06c0-.69,0-1.38,0-2.07ZM50.45,4.23h-.58V3.07h.58Z"/><path class="cls-2" d="M58.86,5.18h2.6V4.71h0l0-1.54H59.71a3.22,3.22,0,0,1-.9,0V.53h-.47V.47L56.8.53V3.12c-.06,0,0,0,0,0h-2.6v.48h0l0,1.53H55.9a3.19,3.19,0,0,1,.9.06V7.35H53.57l.06,2.07h5.23v1.64H54.1l0,2.06h1.06c0,.37,0,.74-.05,1.11h-.53v.53h.53c0,.34,0,.67.05,1a1.67,1.67,0,0,1,.53.05v.48h.48v.58h.53v-.53h.53v-.58h.47v-.43h-.47v-.58h-.53l-.06-1a1.55,1.55,0,0,1-.52-.06v-.58h2.69v4.34h-1c0,.69,0,1.38,0,2.07l2.06-.06a1.67,1.67,0,0,1,.05-.53h.48V15a7.48,7.48,0,0,1,.05-1.85H62c0-.69,0-1.37,0-2.06H60.4a5.88,5.88,0,0,1,.05-1.64h2.07c0-.69,0-1.38,0-2.07H58.81A10.28,10.28,0,0,1,58.86,5.18Z"/><path class="cls-2" d="M77.92,14.23V12.65H76.28V3.17H75.8v0H73.1c0-.88,0-1.76.05-2.65H71.57V3.12H69.92V.53L68.39.47V3.12H65.21v9.53H63.1v1.58h4.81c0,.36,0,.71,0,1.06h-.53v.53l-1,0v.48c-.06,0,0,0-.06,0H65.8v.48l-1.06.05v.48l-1.06.05v.95h.48c0,.36,0,.71,0,1.06h.48v.06l1-.06V19l1.06-.06v-.47h.58v-.53h.53v-.53h.53v-.53h.53v-.53h.53c0-.33,0-.67,0-1h-.48c0-.37,0-.74,0-1.11h3.28l-.06,1.11h-.47v1a1.67,1.67,0,0,1,.53.05v.48a1.43,1.43,0,0,1,.53.05v.48a1.43,1.43,0,0,1,.53.05v.48l1,.05v.53h1.06V19h1.11v.47h.42a1.65,1.65,0,0,1,.06-.53h.47v-.47h.06l-.06-1.54-1.53-.05v-.53H74.74v-.53h-.58v-.48a1.43,1.43,0,0,1-.53-.05v-.47h-.48v-.59Zm-9.53-1.58H66.75V9.47h1.64Zm0-5.24a5.86,5.86,0,0,1-1.64-.06V5.18h1.64Zm3.18,5.24H69.92V9.47h1.65Zm0-5.24a5.94,5.94,0,0,1-1.65-.06V5.18h1.65ZM73.1,5.18h1.64V7.41a5.86,5.86,0,0,1-1.64-.06Zm0,7.47V9.47h1.64v3.18Z"/><path class="cls-2" d="M14.32,8.94H10.09V5.77h3.17V5.71h.48V4.23h-.48V4.18H10.09V1H10V.53H8.55V1H8.5V3.7H8v.48H5.32V5.77H8.5V8.94H4.27c0,.69,0,1.38.05,2.07H7.49l0,1.69H7c0,.35,0,.7,0,1.06H6.43c0,.53,0,1.06,0,1.58H5.91l-.06,1H3.74c0,.51,0,1,0,1.54h.48c0,.35,0,.7.05,1.05h.42v-.47l2.65-.06v-.47l4.23-.05v-.48h.64v.48h.47l.06,1.05a1.55,1.55,0,0,1,.52.06v.47h.43V19h.58v-.59h.48v-.95h-.48l-.05-1.06h-.48c0-.35,0-.7,0-1.06h-.48v-.58h-.53l-.05-1H12.2v-.58h-.53l-.05-1H11.2v.48h-.58v.58h-.48v.42h.48l.05,1.06h.47l.06,1.11-3.28,0c0-.38,0-.77,0-1.16h.48c0-.53,0-1.06.05-1.59H9l0-1.06H9.5L9.56,11h4.71a1.64,1.64,0,0,1,.05-.53h.48V9h-.48Z"/><path class="cls-2" d="M29.14,15.82h-.58v-.48a1.4,1.4,0,0,1-.53-.05v-.47a1.61,1.61,0,0,1-.53-.06v-.47a1.65,1.65,0,0,1-.53-.06v-.47a1.65,1.65,0,0,1-.53-.06v-.47H26l-.05-1.06h-.48v-.58H24.9l0-1.54h-.48c0-.53,0-1.06-.05-1.58h-.47l-.06-7.41H22.31v.47c-.06.05,0,0,0,.06h-.48V8.41a7.33,7.33,0,0,0-.05,1.64h-.48l-.05,1.59h-.48l0,1.06h-.48c0,.33,0,.67-.05,1h-.53v.53h-.53v.59h-.47v.47H18v.53H17.5v.53l-1,0v.48h0v.05H16v.43h.48l0,1.05a1.65,1.65,0,0,1,.53.06v.47h.42v-.47H18v-.53l1-.05a1.61,1.61,0,0,1,0-.53h.48a1.64,1.64,0,0,1,.05-.53h.48l.05-1h.53v-.53h.53v-.58h.48c0-.35,0-.71.05-1.06h.48l.05-1.59h.47L22.79,11a1.72,1.72,0,0,1,.58.05v1h.48l0,1.06h.47l.06,1.06h.47v.58h.53l.06,1H26v.58h.53v.53H27v.53h.53v.53h.58v.47a1.65,1.65,0,0,1,.53.06v.47h.95l.06-1.58h.47v-1l-1,0Z"/><path class="cls-2" d="M43.63,1.53h-.05V17.41H42l0,1.53h.48V19h2.11v-.59h.48V1.06H43.63Z"/><path class="cls-2" d="M39.29,10.53v-.48H35.64V8.36h.47a1.65,1.65,0,0,1,.06-.53,4,4,0,0,1,1.11,0v.48l1.53.05V1.53H32.46V8.94l1.54,0v-1h.58v2.7H34.1c0,1.06,0,2.12-.05,3.18h-.48c0,.51,0,1,0,1.53H33v.58h-.47l-.06,1h-.53v.53H31.4l.06,1.53A1.65,1.65,0,0,1,32,19v.47h.42a1.67,1.67,0,0,1,.05-.53h.48a1.67,1.67,0,0,1,.05-.53h.48c0-.33,0-.67.05-1h.53v-.58h.48c0-.53,0-1.06,0-1.59h.48c0-.53,0-1.06,0-1.59h.48c0-.51,0-1,0-1.53h2.11v4.81h-.47v.48H35.64c0,.51,0,1,0,1.53h.48V19h2.11v-.53h.53V16.83h.48c0-2.1,0-4.2.05-6.3ZM34,6.3V3.12h3.28V6.3Z"/><path class="cls-2" d="M1.62,4.18h.53v.53h.53l0,1,1,.06V5.18h.47V4.71h.06l-.06-1a1.67,1.67,0,0,1-.53-.05V3.17a1.43,1.43,0,0,1-.53,0V2.64a1.43,1.43,0,0,1-.53-.05V2.11h-1c0,.34,0,.68,0,1H1.09v.53h.53Z"/><path class="cls-2" d="M42,3.65h-.05V3.17h-.48v0l-1,0v.48H40.4V15.29H42Z"/><path class="cls-2" d="M1.09,8.94h.53v.53h.53l.05,1h.42V10h.59V9.42h.47l.06-1H3.21V7.88H2.68V7.35H2.15V6.82H1.62V6.3H1.09v.58H.61l0,1.53h.53Z"/><path class="cls-2" d="M4.21,13.12V12.7a2,2,0,0,1-.53,0v-.48l-1-.05v.58H2.2l-.05,1.59H1.67c0,.35,0,.7,0,1.05H1.14c0,.36,0,.71,0,1.06H.61l0,1.06H.08v.95a1.61,1.61,0,0,1,.53.06v.47a1.61,1.61,0,0,1,.53.06v.47h1l0-1.58h.47l.06-1.59h.47l.06-1.59h.47l.06-1.59Z"/></g></svg>