<svg xmlns="http://www.w3.org/2000/svg" viewBox="0 0 87 20"><defs><style>.cls-1{fill:none;}.cls-2{fill-rule:evenodd;}</style></defs><title>03_b</title><g id="レイヤー_1" data-name="レイヤー 1"><rect class="cls-1" width="87" height="20"/><path class="cls-2" d="M9.58,18.93a1.4,1.4,0,0,1,.53.05v.47h1c0-.53,0-1.06,0-1.59h.47c0-.53,0-1.06.05-1.59h.47V16h-2c0,.14,0,.28,0,.41H9.58c0,.35,0,.7-.05,1.05H9.05v.95a1.67,1.67,0,0,1,.53.05Z"/><path class="cls-2" d="M12.69,13.09h.47v-.42a1.67,1.67,0,0,1-.53-.05v-.09h-1v.14h-.48c0,.25,0,.5,0,.76h1.55Z"/><path class="cls-2" d="M12.65,14.24h-2v0h2Z"/><path class="cls-2" d="M5.58,8.84c0-.15,0-.31,0-.46H5.07V7.93L2.43,8V8.4H3v.46Z"/><path class="cls-2" d="M2.94,6.28v.58H2.46V7.1H4V6.8H3.47V6.28Z"/><path class="cls-2" d="M11.32,2.94V2.62a1.61,1.61,0,0,1-.53-.06V2.09l-1,0-.06.85Z"/><path class="cls-2" d="M10.29,4.14v.53h.52c0,.34,0,.67,0,1l1,.07V5.17h.48V4.71h.05l0-.84-2.6,0v.3Z"/><path class="cls-2" d="M10.33,19.38v-.47h.59v-.58h.47v-.84l-2.54,0v.31H9.3c0,.35,0,.71.07,1.06a1.7,1.7,0,0,1,.53,0v.48Z"/><path class="cls-2" d="M10.81,16.31h-.47c0-.35-.05-.7-.07-1H9.79v-.58H9.26c0-.34,0-.67-.07-1H8.71v-.41l-2.07,0v.31h.47c0,.35,0,.7.07,1.06h.48c0,.37,0,.74.07,1.11l-3.28.1,0-1.16H5c0-.46,0-.91,0-1.37l-1.56,0c0,.14,0,.28,0,.42H2.94l0,1.58H2.44c0,.34,0,.67,0,1l-2.12,0c0,.12,0,.24,0,.37l10.53-.16C10.83,16.52,10.82,16.41,10.81,16.31Z"/><polygon class="cls-2" points="6.48 6.17 6.48 5.73 9.65 5.68 9.65 5.63 10.13 5.63 10.11 4.14 9.63 4.15 9.63 4.1 6.46 4.14 6.41 0.97 6.36 0.97 6.35 0.49 4.87 0.52 4.87 0.99 4.82 0.99 4.86 3.69 4.38 3.7 4.39 4.17 1.69 4.21 1.72 5.8 4.89 5.75 4.9 6.2 6.48 6.17"/><path class="cls-2" d="M.84,17.93.9,19h.43v-.48L4,18.42v-.48l4.23-.11v-.31l-7.85.12c0,.1,0,.2,0,.3Z"/><path class="cls-2" d="M4,11c0,.21,0,.41,0,.62L6,11.6,6,11l4.7-.07a1.67,1.67,0,0,1,0-.53h.48V9.8L.74,10c0,.36,0,.73.05,1.09Z"/><rect x="4.91" y="6.46" width="1.59" height="1.02" transform="translate(-0.1 0.08) rotate(-0.84)"/><path class="cls-2" d="M33.14,13.82v-.2h.47v-.06H31.57v.12H31v.15Z"/><path class="cls-2" d="M33.68,12h.48L34.22,11a1.7,1.7,0,0,1,.58.06v1h.48c0,.17,0,.34,0,.5h2.06l0-.39h-.47v-.59h-.53c0-.51,0-1,0-1.53h-.47c0-.52,0-1-.05-1.58h-.47c0-.29,0-.59,0-.88H33.23v.83A7.3,7.3,0,0,0,33.16,10h-.47l-.06,1.59h-.48c0,.3,0,.61,0,.92h1.56C33.67,12.37,33.68,12.2,33.68,12Z"/><path class="cls-2" d="M35.28,6.7c0-1.13,0-2.25,0-3.38h-2l0,3.38Z"/><path class="cls-2" d="M33.78,1.51c-.06,0,0,0-.05.05h-.48v0h2V1H33.79Z"/><path class="cls-2" d="M37.86,13.7v-.13h-2a2.44,2.44,0,0,0,0,.27h2.55v-.1A1.94,1.94,0,0,1,37.86,13.7Z"/><path class="cls-2" d="M42.3,16.87h-.48v.48l-1.64,0c0,.51.05,1,.08,1.53h.47V19l2.12,0V18.4h.53l0-1.64h.47c0-.68,0-1.37,0-2.06l-1.55,0Z"/><path class="cls-2" d="M38.05,14.77v.53h-.53v.59h-.47c0,.34,0,.67,0,1h-.53v.53H36c0,.51,0,1,.07,1.54a1.7,1.7,0,0,1,.53,0v.48H37A1.67,1.67,0,0,1,37,19h.47a1.64,1.64,0,0,1,.05-.53H38l0-1h.53v-.58h.48l0-1.59h.48v-.48Z"/><polygon class="cls-2" points="36.84 5.47 38.37 5.45 38.34 3.12 41.62 3.07 41.65 5.4 43.19 5.38 43.13 1.46 36.78 1.55 36.84 5.47"/><path class="cls-2" d="M36.89,8.83l1.53,0V7.88H39V8.8l1.06,0V8.33h.47a1.64,1.64,0,0,1,0-.53,4,4,0,0,1,1.11,0v.48l1.53,0,0-1.24-6.35.09Z"/><polygon class="cls-2" points="39.02 9.61 39.03 10.51 43.74 10.44 43.73 9.97 40.08 10.03 40.07 9.59 39.02 9.61"/><path class="cls-2" d="M40.58,6.93l0-3.31h-.05V3.14H40V3.09l-1,.07v.48h-.06L39,7Z"/><rect x="39.07" y="12.94" width="1.59" height="0.91" transform="translate(-0.17 0.53) rotate(-0.76)"/><rect x="39.03" y="7.85" width="1.59" height="4.23" transform="translate(-0.13 0.53) rotate(-0.76)"/><rect x="51.19" y="3.18" width="1.53" height="0.91" transform="translate(-0.01 0.15) rotate(-0.16)"/><path class="cls-2" d="M51.23,17.39H49.64l.06,1.53h.47V19h2.12v-.58h.47V16.91H51.23Z"/><path class="cls-2" d="M62.87,9.51h-.95V10h-.58V9.52l-1.54,0v.9l3.1,0C62.89,10.11,62.88,9.81,62.87,9.51Z"/><path class="cls-2" d="M62.86,5.27l-5.24.05v.81l5.27,0Z"/><path class="cls-2" d="M62.93,11.22l-4.17,0v0l4.18,0Z"/><path class="cls-2" d="M58.16,14.18V13.7l1.06-.06v-.48h.64l.06,6.29,1.54,0L61.37,13l-3.68,0c0,.4,0,.8,0,1.19Z"/><path class="cls-2" d="M82.94,17.45h-1l-.06,1.72,2.06,0a.85.85,0,0,1,0-.25h.47l0-3.23L83,15.7Z"/><path class="cls-2" d="M79.31,15.71a1.65,1.65,0,0,1,.53.06v.47h.48v.58h.53v-.53h.53v-.59h.48v-.06l-2.54,0Z"/><path class="cls-2" d="M78.36,3.67c0,.27,0,.54,0,.81l7.37.1c0-.27,0-.54,0-.81Z"/><path class="cls-2" d="M82.63.51v0L81.1.49l0,2.31,2,0,0-2.31Z"/><path class="cls-2" d="M86.69,9.45l0-.57L77.8,8.77v.57L83,9.41l0,1.64L78.26,11l0,2.07h1c0,.31,0,.61,0,.92l1.54,0v-.28a1.65,1.65,0,0,1-.53-.06v-.59l2.7,0L83,14l1.51,0a3,3,0,0,1,.09-.92l1.54,0c0-.69,0-1.38.08-2.06l-1.64,0a5.83,5.83,0,0,1,.07-1.64Z"/><rect x="74.19" y="10.26" width="0.91" height="1.53" transform="translate(62.33 85.47) rotate(-89.01)"/><rect x="71.01" y="10.2" width="0.91" height="1.53" transform="translate(59.27 82.24) rotate(-89.01)"/><path class="cls-2" d="M72.74,15.74l-1,0v.47c-.06.05,0,0,0,.06h-.48v.47l-1.06,0v.47l-1.06,0,0,.95h.48l0,1.06H70v0l1,0v-.47l1.06,0v-.47h.58v-.53h.53v-.53h.53v-.53h.52V16.3h.53c0-.2,0-.39,0-.59l-2.08,0Z"/><rect x="77.36" y="10.31" width="0.91" height="1.53" transform="translate(65.4 88.69) rotate(-89.01)"/><polygon class="cls-2" points="70.72 9.69 72.26 9.72 72.26 9.38 73.9 9.41 73.9 9.75 75.43 9.77 75.44 9.44 77.08 9.47 77.07 9.8 78.61 9.83 78.61 9.49 80.25 9.52 80.25 9.86 81.78 9.88 81.81 8.25 70.75 8.06 70.72 9.69"/><path class="cls-2" d="M77.23.5l0,2.62-1.64,0,0-2.59-.72,0-.81,0,0,2.62L70.84,3l-.06,3.33,1.54,0,0-1.26,1.64,0,0,1.27,1.53,0,0-1.27,1.64,0,0,1.27,1.53,0,0-1.26,1.64,0,0,1.27,1.54,0,.06-3.28h-.48V3.19l-2.7,0c0-.87.07-1.74.1-2.61Z"/><rect x="80.54" y="10.37" width="0.91" height="1.53" transform="translate(68.46 91.92) rotate(-89.01)"/><path class="cls-2" d="M77,15.76v.53a1.65,1.65,0,0,1,.53.06v.48a1.65,1.65,0,0,1,.53.06v.48a1.65,1.65,0,0,1,.53.06v.48l1,.07v.53h1.06v.53l1.11,0v.48h.42a1.58,1.58,0,0,1,.07-.53h.47v-.48h0c0-.51,0-1,0-1.53L81.18,17v-.53l-1.06,0v-.53h-.58V15.8Z"/></g></svg>