<svg xmlns="http://www.w3.org/2000/svg" viewBox="0 0 78 20"><defs><style>.cls-1{fill:none;}.cls-2{fill-rule:evenodd;}</style></defs><title>02_b</title><g id="レイヤー_1" data-name="レイヤー 1"><rect class="cls-1" width="78" height="20"/><path class="cls-2" d="M47.8,7.93h1.52l0,1.49c0-.71,0-1.41.05-2.12h.48V6.77h.63V7.93H52V6.77h1.54V6.3h0c0-.69,0-1.38,0-2.07H52V1h.48V.53H52V.47L50.45.53V2.64a1.75,1.75,0,0,1-.63-.05V2.11h-1c0,.36,0,.71,0,1.06h-.48c0,1.41,0,2.83,0,4.24H47.8c0,.16,0,.34,0,.52Zm2.07-4.86h.58V4.23h-.58Z"/><path class="cls-2" d="M53.56,11.17h-3v5h-.1v3.27l1.53.06V12.12h.53v-.53h1.06c0-.69,0-1.38,0-2.07Z"/><path class="cls-2" d="M47.79,8.14v0Z"/><path class="cls-2" d="M55.9,5.18a3.19,3.19,0,0,1,.9.06v.59h2a2.6,2.6,0,0,1,.08-.65h2.6V4.71h0c0-.51,0-1,0-1.54H59.71a3.22,3.22,0,0,1-.9,0V.53h-.47V.47L56.8.53V3.12c-.06,0,0,0,0,0h-2.6v.48h0c0,.51,0,1,0,1.53Z"/><path class="cls-2" d="M57.28,14.76h-.53l-.06-1c0,.21,0,.42,0,.63h-2.1v.37h.53c0,.34,0,.67.05,1a1.67,1.67,0,0,1,.53.05v.48h.48v.58h.53v-.53h.53v-.58h.47v-.43h-.47Z"/><path class="cls-2" d="M59.17,14.39h-.31v3.07h-1c0,.69,0,1.38,0,2.07l2.06-.06-.7,0Z"/><path class="cls-2" d="M58.81,7.07v0Z"/><polygon class="cls-2" points="76.28 6.26 76.28 4.56 68.09 4.56 68.09 5.18 68.39 5.18 68.39 6.26 69.92 6.26 69.92 5.18 71.56 5.18 71.56 6.26 73.1 6.26 73.1 5.18 74.74 5.18 74.74 6.26 76.28 6.26"/><path class="cls-2" d="M64.84,19.52l.85-.05v-.25h-.85Z"/><path class="cls-2" d="M76.28,12.65V8.9H65.21v3.75h-.37v1.17H77.92V12.65Zm-7.89,0H66.75V9.47h1.64Zm3.18,0H69.92V9.47h1.65Zm3.17,0H73.1V9.47h1.64Z"/><path class="cls-2" d="M11.67,13.18c0-.34,0-.68-.05-1H11.2v.48h-.58v.58h-.48v.42h.48c0,.35,0,.71.05,1.06,0-.3,0-.6-.05-.89h2.06v-.06H12.2v-.58Z"/><polygon class="cls-2" points="8.5 6.26 10.09 6.26 10.09 5.77 13.26 5.77 13.26 5.71 13.74 5.71 13.74 4.56 5.32 4.56 5.32 5.77 8.5 5.77 8.5 6.26"/><path class="cls-2" d="M14.32,8.94H10.09v0H8.5v0H4.27c0,.69,0,1.38.05,2.07H7.49c0,.56,0,1.12,0,1.69H7c0,.35,0,.7,0,1.06H6.43c0,.53,0,1.06,0,1.58,0-.5,0-1,0-1.52H8.48c0-.23,0-.47,0-.7H9c0-.35,0-.7,0-1.06H9.5L9.56,11h4.71a1.64,1.64,0,0,1,.05-.53h.48V9h-.48Z"/><path class="cls-2" d="M29.14,15.82h-.58v-.48a1.4,1.4,0,0,1-.53-.05v-.47a1.61,1.61,0,0,1-.53-.06v-.47a1.65,1.65,0,0,1-.53-.06v-.47a1.65,1.65,0,0,1-.53-.06v-.47H26c0-.35,0-.71-.05-1.06h-.48V11.9H23.37v.16h.48c0,.36,0,.71,0,1.06h.47l.06,1.06h.47v.58h.53l.06,1H26v.58h.53v.53H27v.53h.53v.51h2.1c0-.19,0-.38,0-.56h.47v-1l-1,0Z"/><path class="cls-2" d="M21.71,9.26h2.64c0,.26,0,.53,0,.79,0-.53,0-1.06-.05-1.58h-.47l-.06-7.41H22.31v.47c-.06.05,0,0,0,.06h-.48v.57h2c0,1.8,0,3.6,0,5.4H21.78v.85a7.33,7.33,0,0,0-.05,1.64C21.73,9.81,21.71,9.53,21.71,9.26Z"/><path class="cls-2" d="M20.67,12.7h-.48c0,.33,0,.67-.05,1h-.53v.53h-.53v.59h-.47v.47H18v.53H17.5v.53l-1,0v.42h3.6c0-.34,0-.67.05-1h.53v-.53h.53v-.58h.48c0-.35,0-.71.05-1.06h.48c0-.53,0-1.06.05-1.59h.47V11.9h-2C20.7,12.16,20.68,12.43,20.67,12.7Z"/><path class="cls-2" d="M43.58,17.41H42c0,.13,0,.27,0,.41h3.11V12.9H43.58Z"/><rect x="43.58" y="8.56" width="1.53" height="1.7"/><path class="cls-2" d="M34,3.12h3.28V6.3H34.66V8.77h1V8.36h.47a1.65,1.65,0,0,1,.06-.53,4,4,0,0,1,1.11,0v.48l1.53.05V1.53H32.46V5.24H34Z"/><path class="cls-2" d="M33,15.87h-.47l-.06,1h-.53v.53H31.4l.06,1.53A1.65,1.65,0,0,1,32,19v.47h.42a1.67,1.67,0,0,1,.05-.53h.48a1.67,1.67,0,0,1,.05-.53h.48c0-.33,0-.67.05-1h.53v-.58h.48c0-.39,0-.78,0-1.16H33Z"/><path class="cls-2" d="M37.75,16.93h-.47v.48H35.64c0,.51,0,1,0,1.53h.48V19h2.11v-.53h.53V16.83h.48c0-.39,0-.78,0-1.16H37.75Z"/><path class="cls-2" d="M1.62,4.18h.53v.53h.53c0,.33,0,.67,0,1l1,.06V5.18h.47V4.71h.06l-.06-1a1.67,1.67,0,0,1-.53-.05V3.17a1.43,1.43,0,0,1-.53,0V2.64a1.43,1.43,0,0,1-.53-.05V2.11h-1c0,.34,0,.68,0,1H1.09v.53h.53Z"/><rect x="40.4" y="8.9" width="1.59" height="4.92"/><rect x="40.4" y="4.56" width="1.59" height="1.7"/><path class="cls-2" d="M4.21,13.12V12.7a2,2,0,0,1-.53,0v-.48l-1-.05v.58H2.2c0,.53,0,1.06-.05,1.59H1.67c0,.35,0,.7,0,1.05H1.14c0,.36,0,.71,0,1.06H.61c0,.36,0,.71,0,1.06H.08v.95a1.61,1.61,0,0,1,.53.06v.47a1.61,1.61,0,0,1,.53.06v.47h1c0-.53,0-1.06,0-1.58h.47l.06-1.59h.47l.06-1.59h.47l.06-1.59Z"/><path class="cls-2" d="M8.48,13.82h0l0,.89Z"/><path class="cls-2" d="M12.68,13.82h0l.05.94Z"/><path class="cls-2" d="M29.65,17.92h0c0,.34,0,.68,0,1C29.63,18.6,29.64,18.26,29.65,17.92Z"/><path class="cls-2" d="M22.74,11.9c0-.3,0-.6.05-.89,0,.29,0,.59-.05.89Z"/><path class="cls-2" d="M20.71,11.9h0v0Z"/><path class="cls-2" d="M39.3,15.67c0-1.71,0-3.43,0-5.14,0,1.71,0,3.43,0,5.14Z"/><path class="cls-2" d="M34.57,15.67v0Z"/><path class="cls-2" d="M42,18.94c0-.37,0-.75,0-1.12h0C42,18.19,42,18.57,42,18.94Z"/><path class="cls-2" d="M47.79,8.19a1.24,1.24,0,0,1,0,.22A1.24,1.24,0,0,0,47.79,8.19Z"/><path class="cls-2" d="M47.8,7.93a1.48,1.48,0,0,1,0,.21A1.48,1.48,0,0,0,47.8,7.93Z"/><path class="cls-2" d="M58.81,7.07c0-.36,0-.83,0-1.24h0C58.77,6.24,58.79,6.71,58.81,7.07Z"/><path class="cls-2" d="M64.84,19.52Z"/></g></svg>