<svg xmlns="http://www.w3.org/2000/svg" viewBox="0 0 49 13"><defs><style>.cls-1{fill:none;opacity:0.12;}.cls-2{fill-rule:evenodd;}</style></defs><title>アートボード 74</title><g id="comon"><g id="見出し"><rect class="cls-1" width="49" height="13"/><path class="cls-2" d="M5.72,3.7h-.6v7.79a3,3,0,0,1,.75,0h3.4V10H8.2a2.86,2.86,0,0,1-.79,0V6.77H9.27V5.66H6.1V5.53H5.72Z"/><path class="cls-2" d="M12.16,6.77c0-.13,0-.31,0-.51C12.16,6.46,12.16,6.64,12.16,6.77Z"/><path class="cls-2" d="M5.91.48v.75s0,0,0,0H5.12v.08h1V.48Z"/><polygon class="cls-2" points="22.5 2.02 21.71 2.02 21.71 1.23 21.38 1.23 21.38 2.35 22.5 2.35 22.5 2.02"/><path class="cls-2" d="M21.72,6.7h0V9.15h-.79v.79a2.53,2.53,0,0,0-.8,0H18.5a2.86,2.86,0,0,1-.79,0V9.19H17c0-1.6,0-3.19,0-4.79l0,2.3H15.19V9.11h.18c0,.53,0,1.06,0,1.58a2.84,2.84,0,0,1,.79,0v.76l2.38,0v.75h1.5v-.75h1.63v-.8h.79V9.94h.79V8.53H21.72Z"/><polygon class="cls-2" points="27.25 3.61 27.27 3.61 27.27 1.23 27.25 1.23 27.25 2.02 26.46 2.02 26.46 2.81 25.67 2.81 25.67 5.23 24.92 5.23 24.92 7.33 27.25 7.33 27.25 3.61"/><path class="cls-2" d="M32.76,2V1.27h-.57v2h1.39v.37c0-.53,0-1.06,0-1.59A2.84,2.84,0,0,1,32.76,2Z"/><path class="cls-2" d="M43.09,9.19V8.36H42.3c0-.52,0-1,0-1.55h-.75V6.57H37v3.62h1.37V7.53h.75V6.77h.83c0,.52,0,1,0,1.55h.76v.83h.79c0,.51,0,1,0,1.54l0-.5h2.34v.58l0-1.58Z"/><path class="cls-2" d="M43.84.48l0,.94H41.51v.15h2.36Z"/><path class="cls-2" d="M40.72,4.4h.79V3.61h.79v-.8h.79V2h.79V1.61H41.51v.45h-.75v.75l0,0H40c0,.52,0,1,0,1.55h-.79V5h1.59Z"/><rect x="36.97" y="1.61" width="1.37" height="3.34"/><rect x="36" y="1.42" width="2.34" height="0.15"/><path class="cls-2" d="M12.2,2.06V1.35H6.1V5.53h6.05a1.75,1.75,0,0,1,0-.38H13c0-.78,0-1.56,0-2.34a3,3,0,0,1,0-.75ZM10.62,5.19H7.41c0-1.06,0-2.11,0-3.17H9.87v.75a2.86,2.86,0,0,1,.79,0C10.65,3.61,10.63,4.4,10.62,5.19Z"/><path class="cls-2" d="M16.92,4.7V4.35H14.61c0,.62,0,1.24,0,1.86V6.7h.61v-2Z"/><polygon class="cls-2" points="23.29 4.35 21.71 4.35 21.71 4.7 24.05 4.7 24.05 4.44 23.29 4.44 23.29 4.35"/><path class="cls-2" d="M32,8.36a4.35,4.35,0,0,0,0,.83h-.75v.75h0v0L28,9.94c0-.51,0-1,0-1.54h-.75V8.35H25.68l0,1.55h.75v.68h5.73V3.28H32Z"/><rect x="36" y="4.95" width="0.96" height="1.62"/></g></g></svg>