<svg xmlns="http://www.w3.org/2000/svg" viewBox="0 0 49 13"><defs><style>.cls-1{fill:none;opacity:0.12;}.cls-2{fill-rule:evenodd;}</style></defs><title>アートボード 75</title><g id="comon"><g id="見出し"><rect class="cls-1" width="49" height="13"/><rect x="5.14" y="6.93" width="0.05" height="2.3" transform="translate(-2.97 13.16) rotate(-89.37)"/><path class="cls-2" d="M7.18,7.12c0-.2,0-.51,0-.81l-7,.07v.9l2.29,0v-.1l3.21,0v.1L8,7.21V7.15A2.59,2.59,0,0,1,7.18,7.12Z"/><path class="cls-2" d="M23.25,10.27V9.78h-.82v.55a2.73,2.73,0,0,0-.83,0H20a3.25,3.25,0,0,1-.79,0V9.77h-2v1.31h-.09c0-.44,0-.87,0-1.31h-.15v2.09a3,3,0,0,1,.75.05h5.54a3.06,3.06,0,0,1,.76,0,2.51,2.51,0,0,1,0-.79h0v-.81Z"/><path class="cls-2" d="M19.64,8.1h1.59v0H19.64Z"/><path class="cls-2" d="M11.94,2.38V2.05l-7.08.12V3l2.33,0V2.42l2.41,0V2.9l3.1-.06c0-.15,0-.32,0-.47Z"/><path class="cls-2" d="M17.17,9.69H17v.07h.13Z"/><path class="cls-2" d="M17.2,7.29V7.18h-.92v.1Z"/><path class="cls-2" d="M15,3.14H15l0,.88h-.75l0,2h.91V4H15Z"/><path class="cls-2" d="M15.09,2.44H15v.49h.1Z"/><path class="cls-2" d="M19.89,5.59h.25V4.77a3.63,3.63,0,0,0,0-.83h.48V3.18H21a0,0,0,0,1,0,0h.48V2.94H19.71V7.18h.43c0-.4,0-.8,0-1.2h-.25Z"/><path class="cls-2" d="M28.42,1.64h-.3V2h.3Z"/><polygon class="cls-2" points="21.92 2.06 16.72 1.99 16.72 2 21.92 2.07 21.92 2.06"/><path class="cls-2" d="M14.28,2.92v.21H15V2.93Z"/><path class="cls-2" d="M17.21,6.27v.91h.92l0-2.36h-.75l0-1.62h-.8V2.94H15.08V4h.73l0,3.19h.49c0-.31,0-.61,0-.92Z"/><path class="cls-2" d="M27.79,7.26l2.33,0,0-1-2.35,0Z"/><path class="cls-2" d="M21.45,2.94h.26v.21h-.27v0H21a3.12,3.12,0,0,0,0,.76h-.27V5.59h-.5V6h2.09V4H23v-.8h.79v-.8h1.63v.75L27,3.2V6h2.36V4.79a3.58,3.58,0,0,1,0-.75h-.75l0-1.58a2.92,2.92,0,0,1-.8,0V1.66l-1.59,0V.86H23.87V1.6H22.24v.79h-.79Z"/><path class="cls-2" d="M28.8,10.32h0v0l-3.17,0c0-.2,0-.41,0-.62H23.24v.09h1.5c0,.43,0,.86,0,1.3H24v0h.8v.3h5.49a1.44,1.44,0,0,1,.05-.34h.75c0-.46,0-.92,0-1.38H28.8Z"/><rect x="32.33" y="6.26" width="2.34" height="1.02" transform="matrix(1, -0.01, 0.01, 1, -0.08, 0.4)"/><rect x="41.67" y="1.34" width="0.81" height="2.34" transform="translate(39.43 44.57) rotate(-89.81)"/><path class="cls-2" d="M42.18,9.78v1.37h.26v.71H42.2l2.34,0,0-2.13Z"/><path class="cls-2" d="M48.87,7.19h-.75V6.36h-.79v0H42.62v.91H45.7v-.1h.84v.1h2.33Z"/><path class="cls-2" d="M46.78,2.4h.79v-.3H45.19v.33h-.75V2.9h2.33Z"/><rect x="29.79" y="8.06" width="2.34" height="0.05" transform="translate(-0.09 0.37) rotate(-0.68)"/><path class="cls-2" d="M44.2,8.06H41.86v0H44.2Z"/><path class="cls-2" d="M41.7,11.15c0-.46,0-.92,0-1.38H39.32c0,.44,0,.87,0,1.3h.75v.83l2.09,0v-.71Z"/></g></g></svg>