<svg xmlns="http://www.w3.org/2000/svg" viewBox="0 0 65 18"><defs><style>.cls-1{fill:none;opacity:0.15;}.cls-2{fill:red;}</style></defs><title>アートボード 181</title><g id="STAFF_CAST" data-name="STAFF&amp;CAST"><rect class="cls-1" width="65" height="18"/><path class="cls-2" d="M13.1,7.59a11.15,11.15,0,0,1,.62-3.08h-2a12.2,12.2,0,0,0-.6,2.87h1.94C13.11,7.45,13.1,7.52,13.1,7.59Z"/><path class="cls-2" d="M13,9.3c0-.42,0-.81,0-1.19,0,.13,0,.26,0,.4h0C13,8.77,13,9,13,9.3Z"/><path class="cls-2" d="M17.29,2.6l.2.17a3.53,3.53,0,0,1,.8,1.75V2.22h-1V2.6Z"/><path class="cls-2" d="M20.24,4.45a8.6,8.6,0,0,1,.18,2A8.6,8.6,0,0,0,20.24,4.45Z"/><path class="cls-2" d="M18.44,5.4c0,.32.07.68.08,1.06C18.51,6.08,18.48,5.73,18.44,5.4Z"/><path class="cls-2" d="M19.66,2.86a5.87,5.87,0,0,1,.55,1.47A5.87,5.87,0,0,0,19.66,2.86Z"/><path class="cls-2" d="M19.64,2.82s0,0,0,0S19.65,2.84,19.64,2.82Z"/><path class="cls-2" d="M18.7,1.57a3.29,3.29,0,0,0-1.95-.9l.54.11v.79Z"/><path class="cls-2" d="M18.7,1.57h0l.06.07Z"/><path class="cls-2" d="M18.76,1.64a5.82,5.82,0,0,1,.46.53A5.82,5.82,0,0,0,18.76,1.64Z"/><path class="cls-2" d="M19.25,2.21c.14.2.27.4.39.61C19.52,2.61,19.39,2.41,19.25,2.21Z"/><path class="cls-2" d="M19.22,2.17l0,0Z"/><polygon class="cls-2" points="28.43 0.62 29.11 3.27 30.85 10.08 29.83 10.08 29.83 13.98 29.46 12.48 30.66 17.38 30.36 16.14 32.41 16.14 28.43 0.62"/><polygon class="cls-2" points="28.19 7.38 28.84 10.08 29.83 10.08 29.83 7.38 28.19 7.38"/><path class="cls-2" d="M34.28,14.77A4.54,4.54,0,0,1,33.93,13,4.54,4.54,0,0,0,34.28,14.77Z"/><path class="cls-2" d="M42.75,14.77h0v0Z"/><path class="cls-2" d="M41.25,9.54v.54h-.81v1.25A2.24,2.24,0,0,1,41.15,13a2.64,2.64,0,0,1-.78,2,2.79,2.79,0,0,1-2.06.69A2.33,2.33,0,0,1,36.59,15a1.49,1.49,0,0,1-.15-.2H34.28a4.72,4.72,0,0,0,1,1.49l-.1-.12h5.24V14.89l.1-.12h2.21a5.4,5.4,0,0,0,.37-2A3.52,3.52,0,0,0,41.25,9.54Z"/><path class="cls-2" d="M42.66,4.36a5.31,5.31,0,0,1,0,.9,5,5,0,0,0-.73-3,6.42,6.42,0,0,1,.33.64h-1V4.36Z"/><rect class="cls-2" x="49.56" y="2.88" width="0.87" height="1.48"/><rect class="cls-2" x="49.56" y="6.98" width="0.87" height="3.85"/><polygon class="cls-2" points="48.45 14.77 50.43 14.77 50.43 11.5 49.56 11.5 49.56 10.83 48.45 10.83 48.45 14.77"/><path class="cls-2" d="M17.29,1.57H13.67l-.3.25-.35.4h4.27Z"/><path class="cls-2" d="M17.49,14.89a2,2,0,0,1-1.46.68,2.1,2.1,0,0,1-1.54-.68C13.61,14,13.13,12.4,13,10.08h-2c.09,2.72.79,4.76,2.13,6.1a3.95,3.95,0,0,0,5.67,0c.91-.92,1.46-2.67,1.63-5.25H18.44C18.38,13,18.07,14.31,17.49,14.89Z"/><path class="cls-2" d="M11.16,7.38c0,.09,0,.18,0,.27l0-.27Z"/><path class="cls-2" d="M13,9.3c0-.27,0-.54,0-.79h-2c0,.31,0,.63,0,1,0,.1,0,.19,0,.29h2C13,9.61,13,9.46,13,9.3Z"/><path class="cls-2" d="M11.08,8.51q0,.47,0,1,0-.49,0-1Z"/><path class="cls-2" d="M11.09,8.28a1.69,1.69,0,0,0,0,.23h0A1.69,1.69,0,0,1,11.09,8.28Z"/><polygon class="cls-2" points="26.47 1.57 26.71 0.62 24.69 8.51 26.68 8.51 26.95 7.38 24.98 7.38 26.22 2.54 25.75 4.36 29.39 4.36 29.11 3.27 28.67 1.57 26.47 1.57"/><polygon class="cls-2" points="26.29 10.08 24.28 10.08 22.41 17.38 23.74 17.38 23.74 16.14 24.78 16.14 25.68 12.48 27.26 12.48 27.26 10.85 26.11 10.85 26.29 10.08"/><path class="cls-2" d="M40.49,17a4,4,0,0,0,.59-.29,3.76,3.76,0,0,0,.75-.56l0,0H40.44v.91Z"/><path class="cls-2" d="M41.19,16.69l-.11,0,0,0Z"/><path class="cls-2" d="M40.44,17.06l.05,0-.05,0Z"/><polygon class="cls-2" points="40.49 17.03 40.49 17.03 40.49 17.03 40.49 17.03"/><path class="cls-2" d="M40.22,17.12l.22-.07h0Z"/><path class="cls-2" d="M40.72,5.26h.53v-.9H40.7A3.34,3.34,0,0,1,40.72,5.26Z"/><path class="cls-2" d="M37.18,2.88a2,2,0,0,1,.64-.4,2.08,2.08,0,0,1,1.5,0,1.92,1.92,0,0,1,.63.4h1.3V1.57h-5.2c-.1.09-.21.16-.32.25a4.66,4.66,0,0,0-.47.54,5.69,5.69,0,0,0-.33.52Z"/><path class="cls-2" d="M37.54,6.89a2.85,2.85,0,0,1-1.21-2.14,2.34,2.34,0,0,1,0-.39H34.48a4.49,4.49,0,0,0,0,.64A4,4,0,0,0,35.9,8q1.34,1.08,2.79,2.07h1.75V9A23.53,23.53,0,0,1,37.54,6.89Z"/><rect class="cls-2" x="48.45" y="4.36" width="1.11" height="2.63"/><polygon class="cls-2" points="53.95 2.1 53.95 0.62 45.1 0.62 45.1 2.25 48.45 2.25 48.45 2.88 49.56 2.88 49.56 2.1 53.95 2.1"/></g></svg>