<svg xmlns="http://www.w3.org/2000/svg" viewBox="0 0 65 18"><defs><style>.cls-1{fill:none;opacity:0.15;}.cls-2{fill:red;}</style></defs><title>アートボード 182</title><g id="STAFF_CAST" data-name="STAFF&amp;CAST"><rect class="cls-1" width="65" height="18"/><path class="cls-2" d="M13.68,5.77l1.93,0a6.1,6.1,0,0,0-1.78-4.22,3.53,3.53,0,0,0-2.57-.9h0A3.76,3.76,0,0,0,8.51,1.87,6.42,6.42,0,0,0,7.4,3.47l0,1.44,1,0v1h.11a5.75,5.75,0,0,1,1.35-3,2,2,0,0,1,2.75-.14A5,5,0,0,1,13.68,5.77Z"/><path class="cls-2" d="M16.75,7.48h-.87v-1h-1a18.08,18.08,0,0,0-.21,3c0,.51,0,1,.07,1.45h.13v0h-.13c0,.25.05.51.09.76h2a17.17,17.17,0,0,1-.17-2.41C16.67,8.64,16.7,8,16.75,7.48Z"/><path class="cls-2" d="M6.36,5.69l.82,0V4.85H6.6C6.51,5.11,6.44,5.4,6.36,5.69Z"/><path class="cls-2" d="M12.84,10.94v0l1.94,0v0Z"/><path class="cls-2" d="M14.17,17.37a3.76,3.76,0,0,0,1.7-.43L12.45,17A3.83,3.83,0,0,0,14.17,17.37Z"/><path class="cls-2" d="M21.92,14.89a2.07,2.07,0,0,1-1.47.67,2.12,2.12,0,0,1-1.54-.71,4.54,4.54,0,0,1-1.09-2.22h-.13l0,3.53a4.69,4.69,0,0,0,.59.51l4.39,0a4.57,4.57,0,0,0,.65-.53,6.35,6.35,0,0,0,1.48-3.47l-2,0A4,4,0,0,1,21.92,14.89Z"/><polygon class="cls-2" points="32.6 6.36 30.65 6.35 31.72 10.85 28.8 10.84 29.9 6.34 27.95 6.34 26.65 11.32 33.86 11.34 32.6 6.36"/><polygon class="cls-2" points="30.91 5.17 31.09 5.17 31.16 5.49 33.1 5.52 32.29 2.13 29.8 2.09 28.89 5.46 30.83 5.49 30.91 5.17"/><polygon class="cls-2" points="32.58 12.62 32.51 12.35 32.48 12.35 32.48 12.62 32.58 12.62"/><polygon class="cls-2" points="30.5 12.35 24.77 12.35 24.7 12.62 26.71 12.62 26.75 12.47 30.5 12.47 30.5 12.35"/><path class="cls-2" d="M30,16.26a4.26,4.26,0,0,0,3.19,1.11,4.47,4.47,0,0,0,3.34-1.21,3.45,3.45,0,0,0,.42-.51H29.45A4.68,4.68,0,0,0,30,16.26Z"/><path class="cls-2" d="M30.53,12.47h0V13a4.19,4.19,0,0,0,.11.95l2,0a4.07,4.07,0,0,1-.15-1v-.27H30.57Z"/><polygon class="cls-2" points="32.48 12.12 30.5 12.14 30.5 12.35 32.48 12.35 32.48 12.12"/><path class="cls-2" d="M41.63,9.46c-.58-.33-1.16-.7-1.75-1.11H36.83a42.39,42.39,0,0,0,3.61,2.57A2.37,2.37,0,0,1,41.65,13a3.15,3.15,0,0,1-.15.95h2a6.62,6.62,0,0,0,.12-1.21A3.55,3.55,0,0,0,41.63,9.46Z"/><path class="cls-2" d="M34.44,8l.09.07h3c-.43-.32-.87-.65-1.3-1H33.61A4.14,4.14,0,0,0,34.44,8Z"/><path class="cls-2" d="M31.74.61a3.84,3.84,0,0,0-2,.57l4.4.07A4.35,4.35,0,0,0,31.74.61Z"/><rect class="cls-2" x="50.64" y="16.34" width="0.08" height="1.98" transform="translate(32.55 67.73) rotate(-89.09)"/><polygon class="cls-2" points="58.63 2.18 58.63 1.59 49.78 1.72 49.78 2.31 53.14 2.26 53.16 3.58 55.13 3.55 55.11 2.23 58.63 2.18"/><polygon class="cls-2" points="50.38 5.24 50.43 9.82 50.44 10.44 52.42 10.42 52.35 5.21 50.38 5.24"/></g></svg>