<svg xmlns="http://www.w3.org/2000/svg" viewBox="0 0 65 18"><defs><style>.cls-1{fill:none;opacity:0.15;}.cls-2{fill:red;}</style></defs><title>アートボード 180</title><g id="STAFF_CAST" data-name="STAFF&amp;CAST"><rect class="cls-1" width="65" height="18"/><path class="cls-2" d="M18.87,16.18a3.95,3.95,0,0,1-5.67,0c-1.44-1.44-2.15-3.67-2.15-6.71q0-5.33,2.32-7.65A3.79,3.79,0,0,1,16.12.62a3.49,3.49,0,0,1,2.58,1,6.37,6.37,0,0,1,1.72,4.89h-1.9c-.05-1.83-.4-3.06-1-3.69a1.86,1.86,0,0,0-1.37-.52,1.91,1.91,0,0,0-1.38.61C13.6,4,13,6.15,13,9.3q0,4.13,1.47,5.59a2.1,2.1,0,0,0,1.54.68,2,2,0,0,0,1.46-.68c.58-.58.89-1.89,1-4H20.5C20.33,13.51,19.78,15.26,18.87,16.18Z"/><path class="cls-2" d="M24.48,17.38H22.41L26.71.62h1.72l4.3,16.76H30.66l-1.2-4.9H25.68Zm3.17-12.2h-.17l-1.37,5.67H29Z"/><path class="cls-2" d="M41.15,9.47a3.57,3.57,0,0,1,2,3.27,4.65,4.65,0,0,1-1.29,3.44,4.53,4.53,0,0,1-3.35,1.2,4.3,4.3,0,0,1-3.18-1.12A4.46,4.46,0,0,1,33.93,13v-.86h2v.77A2.79,2.79,0,0,0,36.59,15a2.33,2.33,0,0,0,1.72.69A2.79,2.79,0,0,0,40.37,15a2.64,2.64,0,0,0,.78-2,2.36,2.36,0,0,0-1.21-2.07A42.11,42.11,0,0,1,35.9,8a4,4,0,0,1-1.46-3,4,4,0,0,1,1.29-3.18A4.09,4.09,0,0,1,38.57.62a3.94,3.94,0,0,1,2.92,1,4.61,4.61,0,0,1,1.2,3.61h-2A2.69,2.69,0,0,0,40,2.94a2.08,2.08,0,0,0-2.92,0,2.48,2.48,0,0,0-.78,1.81,2.85,2.85,0,0,0,1.21,2.14A22,22,0,0,0,41.15,9.47Z"/><path class="cls-2" d="M48.45,17.38V2.25H45.1V.62H54V2.25H50.43V17.38Z"/></g></svg>