<svg xmlns="http://www.w3.org/2000/svg" viewBox="0 0 17 15"><defs><style>.cls-1{fill:red;}.cls-2{fill:none;opacity:0.14;}</style></defs><title>アートボード 389</title><g id="comon"><g id="共通装飾品"><path class="cls-1" d="M14.27,8.72c-.55,3-2.4,5.43-4.44,5.42a2.13,2.13,0,0,1-.9-.17,1.07,1.07,0,0,0-.86,0,2.13,2.13,0,0,1-.9.17c-1.93,0-3.89-2.45-4.44-5.42S3.44,3.61,6.2,3.43A3.49,3.49,0,0,1,8.45,4a.09.09,0,0,0,.1,0,3.49,3.49,0,0,1,2.25-.56C13.56,3.61,14.92,5.77,14.27,8.72Z"/><ellipse class="cls-1" cx="10.55" cy="2.11" rx="2.23" ry="1" transform="translate(0.13 4.77) rotate(-25.61)"/><rect class="cls-2" width="17" height="15"/></g></g></svg>