<svg xmlns="http://www.w3.org/2000/svg" viewBox="0 0 214 31"><defs><style>.cls-1{fill:none;opacity:0.15;}.cls-2{fill:red;}</style></defs><title>アートボード 165</title><g id="comon"><g id="見出し"><rect class="cls-1" width="214" height="31"/><path class="cls-2" d="M64.73,22.68a3.95,3.95,0,0,1-5.67,0C57.63,21.24,56.91,19,56.91,16q0-5.33,2.32-7.65A3.79,3.79,0,0,1,62,7.12a3.49,3.49,0,0,1,2.58,1A6.37,6.37,0,0,1,66.28,13H64.39c-.06-1.83-.4-3.06-1-3.69a2,2,0,0,0-2.75.09q-1.72,1.71-1.72,6.44c0,2.75.48,4.61,1.46,5.59a2.12,2.12,0,0,0,1.54.68,2.05,2.05,0,0,0,1.47-.68c.57-.58.88-1.89.94-4h2.06Q66.1,21.3,64.73,22.68Z"/><path class="cls-2" d="M68.52,23.88V7.12h2v6.7h4.9V7.12h2V23.88h-2V15.46H70.5v8.42Z"/><path class="cls-2" d="M81.78,23.88H79.71L84,7.12h1.72L90,23.88H88L86.76,19H83ZM85,11.68h-.18l-1.37,5.67h2.92Z"/><path class="cls-2" d="M99.66,8.5a4.27,4.27,0,0,1,1.12,3.18,4.33,4.33,0,0,1-1.12,3.09,3.86,3.86,0,0,1-1.54,1.12l3.09,8H99.15l-2.93-7.74h-2.4v7.74h-2V7.12h4.3A4.75,4.75,0,0,1,99.66,8.5Zm-1.54,5.24a2.84,2.84,0,0,0,.68-2.06A2.79,2.79,0,0,0,98,9.61a3.15,3.15,0,0,0-2.32-.86H93.82v5.76h2.49A2.51,2.51,0,0,0,98.12,13.74Z"/><path class="cls-2" d="M105.1,23.88H103l4.3-16.76h1.72l4.3,16.76h-2.07l-1.2-4.9H106.3Zm3.18-12.2h-.17l-1.38,5.67h2.92Z"/><path class="cls-2" d="M122.37,22.68a3.95,3.95,0,0,1-5.67,0c-1.43-1.44-2.15-3.67-2.15-6.71q0-5.33,2.32-7.65a3.79,3.79,0,0,1,2.75-1.2,3.49,3.49,0,0,1,2.58,1A6.37,6.37,0,0,1,123.92,13H122c-.06-1.83-.4-3.06-1-3.69a2,2,0,0,0-2.75.09q-1.73,1.71-1.72,6.44c0,2.75.48,4.61,1.46,5.59a2.12,2.12,0,0,0,1.54.68,2.05,2.05,0,0,0,1.47-.68c.57-.58.88-1.89.94-4H124Q123.75,21.3,122.37,22.68Z"/><path class="cls-2" d="M129.07,23.88V8.75h-3.35V7.12h8.85V8.75h-3.52V23.88Z"/><path class="cls-2" d="M139,14.17h5.84V15.8H139v6.45h6.79v1.63H137V7.12h8.34V8.75H139Z"/><path class="cls-2" d="M155.54,8.5a4.27,4.27,0,0,1,1.12,3.18,4.33,4.33,0,0,1-1.12,3.09A3.86,3.86,0,0,1,154,15.89l3.09,8H155l-2.92-7.74H149.7v7.74h-2V7.12H152A4.75,4.75,0,0,1,155.54,8.5ZM154,13.74a2.84,2.84,0,0,0,.68-2.06,2.79,2.79,0,0,0-.77-2.07,3.15,3.15,0,0,0-2.32-.86H149.7v5.76h2.49A2.51,2.51,0,0,0,154,13.74Z"/></g></g></svg>