<svg xmlns="http://www.w3.org/2000/svg" viewBox="0 0 214 31"><defs><style>.cls-1{opacity:0.45;}.cls-2{fill:red;}.cls-3{opacity:0.35;}.cls-4{fill:#fff;}.cls-5{fill:none;opacity:0.15;}</style></defs><title>アートボード 132</title><g id="comon"><g id="見出し"><rect x="7.85" y="2.61" width="198.43" height="26.17"/><g class="cls-1"><path class="cls-2" d="M17.56,28.89a9.46,9.46,0,0,1-5.95-2c-3-2.29-4.48-5.89-4.48-10.7,0-5.61,1.62-9.7,4.82-12.16a9.24,9.24,0,0,1,5.78-2,8.73,8.73,0,0,1,5.45,1.56,9.09,9.09,0,0,1,3.61,8v.48H22.05l0-.48c-.11-2.65-.74-4.44-1.86-5.31a3.89,3.89,0,0,0-2.44-.69,3.92,3.92,0,0,0-2.43.82C13.16,8.1,12.07,11.3,12.07,16c0,4.05.91,6.81,2.72,8.2a4.37,4.37,0,0,0,2.77.95,4.18,4.18,0,0,0,2.61-.95c1-.78,1.58-2.7,1.69-5.7V18H27l-.05.55c-.35,4.09-1.51,6.92-3.44,8.41h0A9.51,9.51,0,0,1,17.56,28.89Zm.17-25.78a8.26,8.26,0,0,0-5.17,1.75C9.62,7.13,8.13,11,8.13,16.23c0,4.48,1.38,7.82,4.09,9.91a8.5,8.5,0,0,0,5.34,1.75,8.53,8.53,0,0,0,5.35-1.75c1.62-1.25,2.63-3.66,3-7.17H22.83c-.16,3.09-.84,5-2,6a5.2,5.2,0,0,1-3.22,1.16A5.44,5.44,0,0,1,14.17,25c-2.06-1.59-3.1-4.61-3.1-9,0-5,1.22-8.45,3.62-10.31a4.88,4.88,0,0,1,3-1,4.85,4.85,0,0,1,3.05.9c1.3,1,2,2.88,2.22,5.58h2.8a8,8,0,0,0-3.23-6.64A7.78,7.78,0,0,0,17.73,3.11Z"/><path class="cls-2" d="M48.91,28.89H44v-13H35.21v13H30.27V2.11h4.94V12.42H44V2.11h4.94Zm-3.94-1h2.94V3.11H45V13.42H34.21V3.11H31.27V27.89h2.94v-13H45Z"/><path class="cls-2" d="M73.43,28.89H68.27l-2.4-7.54h-6.8l-2.4,7.54H51.5L60.39,2.11h4.15Zm-4.43-1h3L63.82,3.11h-2.7L52.89,27.89h3l2.39-7.54H66.6Zm-2.94-9H58.88l3-9.72H63Zm-5.82-1H64.7l-2.23-7.1Z"/><path class="cls-2" d="M95.83,28.89H90.6L84.78,17h-4v11.9H75.86V2.11h9.06a11.73,11.73,0,0,1,7.33,2.22h0a6.34,6.34,0,0,1,2.42,5.29,6.41,6.41,0,0,1-2.41,5.14,8.81,8.81,0,0,1-2.69,1.64Zm-4.6-1h3L88.13,15.76l.6-.15A7.4,7.4,0,0,0,91.62,14a5.4,5.4,0,0,0,2-4.38,5.33,5.33,0,0,0-2-4.5h0a10.76,10.76,0,0,0-6.72-2H76.86V27.89H79.8V16h5.6Zm-6-13.41H79.8V4.62h4.26A7.87,7.87,0,0,1,89,6.05a4.31,4.31,0,0,1,1.74,3.57,4.27,4.27,0,0,1-1.57,3.57h0A6.26,6.26,0,0,1,85.26,14.48Zm-4.46-1h4.46a5.17,5.17,0,0,0,3.29-1.09,3.25,3.25,0,0,0,1.18-2.77,3.3,3.3,0,0,0-1.35-2.78,6.93,6.93,0,0,0-4.32-1.22H80.8Z"/><path class="cls-2" d="M119.9,28.89h-5.17l-2.39-7.54h-6.81l-2.39,7.54H98l8.89-26.78H111Zm-4.43-1h3L110.29,3.11h-2.71L99.35,27.89h3.06l2.39-7.54h8.27Zm-2.94-9h-7.19l3.06-9.72h1.07Zm-5.82-1h4.45l-2.23-7.1Z"/><path class="cls-2" d="M131.54,28.89a9.49,9.49,0,0,1-6-2c-3-2.29-4.47-5.89-4.47-10.7,0-5.61,1.62-9.7,4.81-12.16a9.27,9.27,0,0,1,5.79-2,8.68,8.68,0,0,1,5.44,1.56,9.1,9.1,0,0,1,3.62,8l0,.48H136l0-.48c-.1-2.65-.73-4.44-1.86-5.31a3.88,3.88,0,0,0-2.43-.69,3.84,3.84,0,0,0-2.43.82c-2.15,1.66-3.23,4.86-3.23,9.52,0,4.05.91,6.81,2.71,8.2a4.4,4.4,0,0,0,2.78.95,4.15,4.15,0,0,0,2.6-.95c1-.78,1.58-2.7,1.69-5.7l0-.49H141l-.05.55c-.35,4.09-1.51,6.92-3.45,8.41h0A9.48,9.48,0,0,1,131.54,28.89Zm.17-25.78a8.26,8.26,0,0,0-5.17,1.75c-2.94,2.27-4.43,6.09-4.43,11.37,0,4.48,1.37,7.82,4.08,9.91a9,9,0,0,0,10.69,0c1.62-1.25,2.64-3.66,3-7.17h-3.08c-.17,3.09-.84,5-2.05,6a5.22,5.22,0,0,1-3.22,1.16A5.44,5.44,0,0,1,128.15,25c-2.06-1.59-3.1-4.61-3.1-9,0-5,1.21-8.45,3.61-10.31a5.31,5.31,0,0,1,6.1-.13c1.31,1,2,2.84,2.22,5.58h2.8a8,8,0,0,0-3.24-6.64A7.74,7.74,0,0,0,131.71,3.11Z"/><path class="cls-2" d="M155,28.89h-4.93V5.62h-6.68V2.11H162V5.62h-7Zm-3.93-1H154V4.62h7V3.11H144.37V4.62h6.68Z"/><path class="cls-2" d="M184.27,28.89H165.8V2.11h17.61V5.62H170.74V13h11.64v3.51H170.74v8.92h13.53Zm-17.47-1h16.47V26.38H169.74V15.46h11.64V14H169.74V4.62h12.67V3.11H166.8Z"/><path class="cls-2" d="M207.18,28.89H202L196.13,17h-4v11.9H187.2V2.11h9.07a11.7,11.7,0,0,1,7.32,2.22h0A6.31,6.31,0,0,1,206,9.62a6.43,6.43,0,0,1-2.4,5.14,8.93,8.93,0,0,1-2.69,1.64Zm-4.61-1h3l-6.08-12.13.6-.15A7.3,7.3,0,0,0,203,14a5.4,5.4,0,0,0,2-4.38,5.3,5.3,0,0,0-2-4.5h0a10.75,10.75,0,0,0-6.71-2H188.2V27.89h2.94V16h5.61Zm-6-13.41h-5.47V4.62h4.27a7.89,7.89,0,0,1,4.93,1.43,4.31,4.31,0,0,1,1.74,3.57,4.27,4.27,0,0,1-1.57,3.57h0A6.26,6.26,0,0,1,196.61,14.48Zm-4.47-1h4.47a5.25,5.25,0,0,0,3.29-1.09,3.26,3.26,0,0,0,1.18-2.77,3.33,3.33,0,0,0-1.35-2.78,6.93,6.93,0,0,0-4.32-1.22h-3.27Z"/></g><g class="cls-3"><path class="cls-4" d="M17.67,19.81a22.32,22.32,0,0,1-6,.72,22.4,22.4,0,0,1-6-.72q-4.56-1.29-4.56-4,0-3.19,4.93-4.59a21.56,21.56,0,0,1,5.84-.72,20.91,20.91,0,0,1,5.48.57Q21.14,12.12,21,14h-4a2.6,2.6,0,0,0-2.19-2.22,11.35,11.35,0,0,0-2.92-.31,10.75,10.75,0,0,0-2.92.36c-2.44.69-3.65,2-3.65,3.87q0,2.47,3.1,3.35a11.9,11.9,0,0,0,3.29.41,11.16,11.16,0,0,0,3.1-.41,2.53,2.53,0,0,0,2-2.37h4.38Q20.6,19,17.67,19.81Z"/><path class="cls-4" d="M25.73,20.53V10.47h4.2v4h10.4v-4h4.2V20.53h-4.2V15.47H29.93v5.06Z"/><path class="cls-4" d="M53,20.53H48.57L57.7,10.47h3.65l9.13,10.06H66.09l-2.55-2.94h-8Zm6.75-7.32h-.36l-2.92,3.4h6.21Z"/><path class="cls-4" d="M90.94,11.3c1.59.44,2.38,1.08,2.38,1.91s-.79,1.37-2.38,1.85a15.3,15.3,0,0,1-3.28.67l6.57,4.8H89.85l-6.21-4.64H78.53v4.64h-4.2V10.47h9.13A28.09,28.09,0,0,1,90.94,11.3Zm-3.28,3.14c1-.27,1.46-.68,1.46-1.23s-.55-.93-1.64-1.24a18.54,18.54,0,0,0-4.93-.52h-4v3.46h5.29A14.16,14.16,0,0,0,87.66,14.44Z"/><path class="cls-4" d="M102.49,20.53H98.11l9.13-10.06h3.65L120,20.53h-4.38l-2.56-2.94h-8Zm6.76-7.32h-.37L106,16.61h6.21Z"/><path class="cls-4" d="M139.19,19.81a22.45,22.45,0,0,1-6,.72,22.32,22.32,0,0,1-6-.72q-4.58-1.29-4.57-4c0-2.13,1.65-3.66,4.93-4.59a21.61,21.61,0,0,1,5.84-.72,20.86,20.86,0,0,1,5.48.57c2.56.72,3.77,1.7,3.65,2.94h-4a2.63,2.63,0,0,0-2.19-2.22,11.49,11.49,0,0,0-2.93-.31,10.8,10.8,0,0,0-2.92.36q-3.64,1-3.65,3.87c0,1.65,1,2.77,3.11,3.35a11.82,11.82,0,0,0,3.28.41,11.23,11.23,0,0,0,3.11-.41,2.53,2.53,0,0,0,2-2.37h4.38C142.29,18.21,141.13,19.26,139.19,19.81Z"/><path class="cls-4" d="M153.43,20.53V11.45h-7.12v-1h18.8v1h-7.48v9.08Z"/><path class="cls-4" d="M174.42,14.7h12.42v1H174.42v3.87h14.42v1H170.22V10.47h17.71v1H174.42Z"/><path class="cls-4" d="M209.66,11.3c1.58.44,2.37,1.08,2.37,1.91s-.79,1.37-2.37,1.85a15.51,15.51,0,0,1-3.29.67l6.57,4.8h-4.38l-6.21-4.64h-5.11v4.64H193V10.47h9.13A28.23,28.23,0,0,1,209.66,11.3Zm-3.29,3.14c1-.27,1.46-.68,1.46-1.23s-.55-.93-1.64-1.24a18.54,18.54,0,0,0-4.93-.52h-4v3.46h5.3A14.13,14.13,0,0,0,206.37,14.44Z"/></g><rect class="cls-5" width="214" height="31"/></g></g></svg>