<svg xmlns="http://www.w3.org/2000/svg" viewBox="0 0 680 82"><defs><style>.cls-1{isolation:isolate;}.cls-2{opacity:0.2;}.cls-2,.cls-4{mix-blend-mode:screen;}.cls-3{fill:#fff;}.cls-4{opacity:0.45;}.cls-5{fill:red;}.cls-6{opacity:0.85;}.cls-7{fill:none;opacity:0.19;}</style></defs><title>アートボード 347</title><g class="cls-1"><g id="CHARACTER"><g class="cls-2"><path class="cls-3" d="M49.67,57.23c-4.93,0-8.81-.65-11.52-1.92-3.54-1.65-5.34-3.72-5.34-6.16v-1.4a.9.9,0,0,1,.9-.9h6.93a.9.9,0,0,1,.9.9V49c0,.72.19,1.77,1.89,2.56a13.37,13.37,0,0,0,5.64,1,17.12,17.12,0,0,0,6.85-1c2.19-1,2.19-2.07,2.19-2.42,0-1.25-2.24-2.11-3.58-2.51-5-1.49-9.78-3.11-14.21-4.8-3.55-1.34-5.47-3.25-5.7-5.68s1.46-4.54,5.05-6.11A25.6,25.6,0,0,1,50,28c4.53,0,8.11.6,10.62,1.78,3.37,1.57,5,3.85,4.74,6.79a.9.9,0,0,1-.9.83H57.5a.9.9,0,0,1-.87-1.12c.19-.78.15-1.79-1.92-2.76a11.2,11.2,0,0,0-4.74-.9,11.2,11.2,0,0,0-4.74.9C44.23,34,43,34.73,43,35.65c0,.37.36,1.37,3.65,2.68a110.6,110.6,0,0,0,12.55,4.19c5,1.33,7.59,3.42,7.59,6.21s-1.69,4.88-5,6.44C58.88,56.53,54.8,57.23,49.67,57.23ZM34.61,48.65v.5c0,1.68,1.45,3.2,4.3,4.53,2.47,1.16,6.09,1.75,10.76,1.75,4.87,0,8.69-.64,11.37-1.89s4-2.83,4-4.81-2.11-3.37-6.26-4.47h0A112.9,112.9,0,0,1,46,40c-3.21-1.29-4.78-2.71-4.78-4.36s1.09-2.76,3.23-3.76A13,13,0,0,1,50,30.82a13,13,0,0,1,5.5,1.07c2.31,1.07,3,2.48,3,3.71h5c-.17-1.74-1.39-3.12-3.69-4.19S54.24,29.8,50,29.8a23.81,23.81,0,0,0-9.58,1.9c-2.8,1.22-4.14,2.67-4,4.29S38.1,39.08,41,40.16c4.39,1.68,9.13,3.28,14.09,4.76,1.2.36,4.86,1.46,4.86,4.23,0,1.69-1.09,3.05-3.23,4.05a18.36,18.36,0,0,1-7.61,1.21,15.06,15.06,0,0,1-6.41-1.21A4.45,4.45,0,0,1,39.74,49v-.36Z"/><path class="cls-3" d="M103.88,57.23H97a.9.9,0,0,1-.9-.9V43.44H80.69V56.33a.9.9,0,0,1-.9.9H72.86a.91.91,0,0,1-.9-.9V28.9a.91.91,0,0,1,.9-.9h6.93a.9.9,0,0,1,.9.9V39H96.06V28.9A.9.9,0,0,1,97,28h6.92a.9.9,0,0,1,.9.9V56.33A.9.9,0,0,1,103.88,57.23Zm-6-1.8H103V29.8H97.86V39.87a.9.9,0,0,1-.9.9H79.79a.9.9,0,0,1-.9-.9V29.8H73.76V55.43h5.13V42.54a.9.9,0,0,1,.9-.9H97a.91.91,0,0,1,.9.9Z"/><path class="cls-3" d="M133.7,57.23H120.15a.9.9,0,0,1-.9-.9v-3.1a.9.9,0,0,1,.9-.9h2.41V32.9h-2.41a.9.9,0,0,1-.9-.9V28.9a.9.9,0,0,1,.9-.9H133.7a.9.9,0,0,1,.9.9V32a.9.9,0,0,1-.9.9h-2.41V52.33h2.41a.9.9,0,0,1,.9.9v3.1A.9.9,0,0,1,133.7,57.23Zm-12.65-1.8H132.8v-1.3h-2.41a.9.9,0,0,1-.9-.9V32a.9.9,0,0,1,.9-.9h2.41V29.8H121.05v1.3h2.41a.9.9,0,0,1,.9.9V53.23a.9.9,0,0,1-.9.9h-2.41Z"/><path class="cls-3" d="M181.58,57.23H149.36a.9.9,0,0,1-.9-.9V53.65a.89.89,0,0,1,.3-.66l22.66-20.51H151.17a.9.9,0,0,1-.9-.9V28.9a.9.9,0,0,1,.9-.9h29.51a.9.9,0,0,1,.9.9v2.68a.92.92,0,0,1-.29.66L158.62,52.75h23a.91.91,0,0,1,.91.9v2.68A.91.91,0,0,1,181.58,57.23Zm-31.32-1.8h30.42v-.88H156.29a.9.9,0,0,1-.61-1.56l24.1-21.81V29.8H152.07v.88h21.68a.9.9,0,0,1,.61,1.56l-24.1,21.81Z"/><path class="cls-3" d="M204.17,57.23h-.3c-5.21,0-8.88-.54-11.22-1.64-3.34-1.56-5-3.77-5-6.58V28.9a.9.9,0,0,1,.9-.9h6.93a.9.9,0,0,1,.9.9V49a2.44,2.44,0,0,0,1.59,2.42,14.75,14.75,0,0,0,5.94.9h.3a13.86,13.86,0,0,0,5.65-.9c1.69-.79,1.88-1.76,1.88-2.42V28.9a.91.91,0,0,1,.91-.9h6.92a.9.9,0,0,1,.9.9V49c0,2.81-1.69,5-5,6.58C213,56.69,209.37,57.23,204.17,57.23ZM189.41,29.8V49c0,2.08,1.31,3.7,4,5,2.07,1,5.59,1.47,10.46,1.47h.3c4.87,0,8.39-.5,10.46-1.47,2.69-1.25,4-2.87,4-5V29.8h-5.12V49c0,1.23-.51,2.92-2.93,4.05a15.35,15.35,0,0,1-6.41,1.07h-.3a16.25,16.25,0,0,1-6.71-1.07A4.24,4.24,0,0,1,194.54,49V29.8Z"/><path class="cls-3" d="M260.49,57.23h-7.83A.91.91,0,0,1,252,57L238.68,43.55,234.89,46V56.33a.9.9,0,0,1-.9.9h-6.93a.9.9,0,0,1-.9-.9V28.9a.9.9,0,0,1,.9-.9H234a.9.9,0,0,1,.9.9v9.85l15.76-10.59a.93.93,0,0,1,.51-.16h8.13a.9.9,0,0,1,.5,1.65l-15,10.21,16.37,15.82a.9.9,0,0,1-.63,1.55ZM253,55.43h5.23l-15.57-15a.88.88,0,0,1-.27-.73.86.86,0,0,1,.39-.66l13.54-9.19h-4.93L234.49,41.18a.87.87,0,0,1-.92,0,.89.89,0,0,1-.48-.79V29.8H228V55.43h5.13V45.5a.9.9,0,0,1,.41-.76l4.82-3.09a.91.91,0,0,1,1.13.12Z"/><path class="cls-3" d="M281.27,57.23H281c-5.21,0-8.88-.54-11.22-1.64-3.34-1.56-5-3.77-5-6.58V28.9a.9.9,0,0,1,.9-.9h6.93a.9.9,0,0,1,.9.9V49A2.44,2.44,0,0,0,275,51.43a14.75,14.75,0,0,0,5.94.9h.3a13.78,13.78,0,0,0,5.64-.9c1.7-.79,1.89-1.76,1.89-2.42V28.9a.91.91,0,0,1,.9-.9h6.93a.9.9,0,0,1,.9.9V49c0,2.81-1.69,5-5,6.58C290.14,56.69,286.47,57.23,281.27,57.23ZM266.51,29.8V49c0,2.08,1.31,3.7,4,5,2.07,1,5.59,1.47,10.46,1.47h.3c4.87,0,8.39-.5,10.46-1.47,2.69-1.25,4-2.87,4-5V29.8h-5.12V49c0,1.23-.51,2.92-2.93,4.05a15.35,15.35,0,0,1-6.41,1.07H281a16.25,16.25,0,0,1-6.71-1.07A4.24,4.24,0,0,1,271.64,49V29.8Z"/><path class="cls-3" d="M336.08,57.23h-6a.9.9,0,0,1-.9-.9v-17l-6.08,17.27a.9.9,0,0,1-.85.61h-4.82a.9.9,0,0,1-.85-.61l-6.08-17.27v17a.9.9,0,0,1-.9.9h-6a.9.9,0,0,1-.9-.9V28.9a.9.9,0,0,1,.9-.9h9.64a.88.88,0,0,1,.84.6l5.78,16.32L325.6,28.6a.91.91,0,0,1,.85-.6h9.63a.91.91,0,0,1,.91.9V56.33A.91.91,0,0,1,336.08,57.23ZM331,55.43h4.22V29.8h-8.1L321,47.06a.91.91,0,0,1-.85.6h-.6a.91.91,0,0,1-.85-.6L312.56,29.8h-8.1V55.43h4.22V35.79a.9.9,0,0,1,.9-.9h.6a.9.9,0,0,1,.85.61l7,19.93h3.54l7-19.93a.91.91,0,0,1,.85-.61h.6a.9.9,0,0,1,.9.9Z"/><path class="cls-3" d="M374.33,57.23H343.61a.91.91,0,0,1-.9-.9V28.9a.91.91,0,0,1,.9-.9h29.22a.91.91,0,0,1,.9.9v2.68a.91.91,0,0,1-.9.9H351.44v7.06H371a.9.9,0,0,1,.9.9v2.67a.9.9,0,0,1-.9.9H351.44v8.74h22.89a.9.9,0,0,1,.9.9v2.68A.9.9,0,0,1,374.33,57.23Zm-29.82-1.8h28.92v-.88H350.54a.9.9,0,0,1-.9-.9V43.11a.9.9,0,0,1,.9-.9h19.58v-.87H350.54a.9.9,0,0,1-.9-.9V31.58a.9.9,0,0,1,.9-.9h21.39V29.8H344.51Z"/><path class="cls-3" d="M435.17,57.23c-4.93,0-8.81-.65-11.52-1.92-3.55-1.65-5.34-3.72-5.34-6.16v-1.4a.9.9,0,0,1,.9-.9h6.92a.9.9,0,0,1,.91.9V49a2.66,2.66,0,0,0,1.88,2.56,13.45,13.45,0,0,0,5.65,1,17.06,17.06,0,0,0,6.84-1c2.2-1,2.2-2.07,2.2-2.42,0-1.25-2.24-2.11-3.58-2.51-5-1.49-9.78-3.11-14.22-4.8-3.54-1.34-5.46-3.25-5.69-5.68s1.46-4.54,5.05-6.11A25.6,25.6,0,0,1,435.47,28c4.53,0,8.1.6,10.62,1.78,3.37,1.57,5,3.85,4.73,6.79a.89.89,0,0,1-.89.83H443a.9.9,0,0,1-.87-1.12c.19-.78.15-1.79-1.92-2.76a12.93,12.93,0,0,0-9.48,0c-1,.46-2.19,1.21-2.19,2.13,0,.37.36,1.37,3.65,2.68a109.29,109.29,0,0,0,12.55,4.19h0c5,1.33,7.59,3.42,7.59,6.21s-1.69,4.88-5,6.44C444.38,56.53,440.3,57.23,435.17,57.23Zm-15.06-8.58v.5c0,1.68,1.44,3.2,4.3,4.53,2.47,1.16,6.09,1.75,10.76,1.75,4.86,0,8.69-.64,11.37-1.89s4-2.83,4-4.81-2.1-3.37-6.25-4.47h0A113.42,113.42,0,0,1,431.52,40c-3.22-1.29-4.78-2.71-4.78-4.36s1.09-2.76,3.23-3.76a14.67,14.67,0,0,1,11,0c2.31,1.07,3,2.48,3,3.71h5c-.17-1.74-1.39-3.12-3.69-4.19s-5.59-1.61-9.86-1.61a23.81,23.81,0,0,0-9.58,1.9c-2.8,1.22-4.14,2.67-4,4.29s1.69,3.09,4.54,4.17c4.4,1.68,9.14,3.28,14.1,4.76,1.2.36,4.86,1.46,4.86,4.23,0,1.69-1.09,3.05-3.23,4.05a18.39,18.39,0,0,1-7.61,1.21,15,15,0,0,1-6.41-1.21A4.46,4.46,0,0,1,425.23,49v-.36Z"/><path class="cls-3" d="M492.09,57.23h-7.23a.89.89,0,0,1-.79-.49l-4-7.53H467.94l-4,7.53a.92.92,0,0,1-.8.49H456a.91.91,0,0,1-.79-1.34l15.06-27.42A.9.9,0,0,1,471,28h6a.9.9,0,0,1,.79.47l15.06,27.42a.9.9,0,0,1-.79,1.34Zm-6.68-1.8h5.16L476.5,29.8h-5L457.47,55.43h5.16l4-7.54a.9.9,0,0,1,.8-.48h13.25a.9.9,0,0,1,.79.48Zm-6.27-8.89H468.9a.9.9,0,0,1-.8-1.32l4.82-9.28a.89.89,0,0,1,.8-.48h.6a.88.88,0,0,1,.8.48l4.82,9.28a.94.94,0,0,1,0,.89A.92.92,0,0,1,479.14,46.54Zm-8.76-1.8h7.28l-3.64-7Z"/><path class="cls-3" d="M529.74,57.23h-7.23a.91.91,0,0,1-.7-.34l-10-12.32h-7.1V56.33a.91.91,0,0,1-.9.9h-6.93a.9.9,0,0,1-.9-.9V28.9a.9.9,0,0,1,.9-.9H512a30.35,30.35,0,0,1,12.73,2.34h0c2.94,1.38,4.43,3.4,4.43,6,0,2.42-1.48,4.39-4.41,5.86a18.77,18.77,0,0,1-4.17,1.61l9.88,11.92a.91.91,0,0,1-.69,1.48Zm-6.8-1.8h4.88L518.2,43.82a.9.9,0,0,1,.56-1.46,16.9,16.9,0,0,0,5.14-1.74c2.31-1.16,3.43-2.56,3.43-4.26,0-1.89-1.11-3.32-3.39-4.39h0a28.56,28.56,0,0,0-12-2.17H497.81V55.43h5.13V43.67a.9.9,0,0,1,.9-.9h8.43a.9.9,0,0,1,.7.33ZM512.57,41.9h-8.73a.9.9,0,0,1-.9-.9V31.58a.9.9,0,0,1,.9-.9h6.62A20.43,20.43,0,0,1,519,32.17c2.15,1,3.23,2.41,3.23,4.19a4.46,4.46,0,0,1-2.92,4.19h0A15.88,15.88,0,0,1,512.57,41.9Zm-7.83-1.8h7.83a14,14,0,0,0,5.94-1.18h0c1.7-.79,1.89-1.84,1.89-2.56,0-.38,0-1.54-2.19-2.56a18.7,18.7,0,0,0-7.75-1.32h-5.72Zm14.16-.37h0Z"/><path class="cls-3" d="M557.75,57.23H544.19a.91.91,0,0,1-.9-.9v-3.1a.91.91,0,0,1,.9-.9h2.42V32.9h-2.42a.91.91,0,0,1-.9-.9V28.9a.91.91,0,0,1,.9-.9h13.56a.91.91,0,0,1,.9.9V32a.91.91,0,0,1-.9.9h-2.42V52.33h2.42a.91.91,0,0,1,.9.9v3.1A.91.91,0,0,1,557.75,57.23Zm-12.66-1.8h11.76v-1.3h-2.42a.9.9,0,0,1-.9-.9V32a.9.9,0,0,1,.9-.9h2.42V29.8H545.09v1.3h2.42a.9.9,0,0,1,.9.9V53.23a.9.9,0,0,1-.9.9h-2.42Z"/><path class="cls-3" d="M605,57.23H596.6a.9.9,0,0,1-.72-.36L581.54,38.06V56.33a.91.91,0,0,1-.9.9h-6.93a.9.9,0,0,1-.9-.9V28.9a.9.9,0,0,1,.9-.9h8.43a.92.92,0,0,1,.72.36L597.2,47.17V28.9a.91.91,0,0,1,.9-.9H605a.9.9,0,0,1,.9.9V56.33A.9.9,0,0,1,605,57.23Zm-8-1.8h7.09V29.8H599V49.44a.9.9,0,0,1-.9.9h-.3a.9.9,0,0,1-.71-.36L581.7,29.8h-7.09V55.43h5.13V35.79a.9.9,0,0,1,.9-.9h.3a.9.9,0,0,1,.71.36Z"/><path class="cls-3" d="M646.29,57.23h-7.23a.89.89,0,0,1-.79-.49l-4-7.53H622.14l-4,7.53a.89.89,0,0,1-.79.49h-7.23a.91.91,0,0,1-.79-1.34l15.06-27.42a.9.9,0,0,1,.79-.47h6a.9.9,0,0,1,.79.47l15.06,27.42a.91.91,0,0,1-.79,1.34Zm-6.68-1.8h5.16L630.7,29.8h-5L611.67,55.43h5.16l4-7.54a.9.9,0,0,1,.79-.48h13.26a.9.9,0,0,1,.79.48Zm-6.27-8.89H623.1a.92.92,0,0,1-.77-.43.94.94,0,0,1,0-.89l4.82-9.28a.89.89,0,0,1,.8-.48h.6a.89.89,0,0,1,.8.48l4.82,9.28a.94.94,0,0,1,0,.89A.92.92,0,0,1,633.34,46.54Zm-8.76-1.8h7.28l-3.64-7Z"/></g><g class="cls-4"><path class="cls-5" d="M118.35,43.28Q121,46.79,121,53.53a27.51,27.51,0,0,1-1.76,10.78c-1.09,2.52-2.61,3.77-4.55,3.77s-3.31-1.17-4.32-3.5a25.6,25.6,0,0,1-1.87-10.25V51.64h2.69v2.42a17.11,17.11,0,0,0,.93,6.47q.93,2.16,2.34,2.16a3,3,0,0,0,2.8-2.16,15.68,15.68,0,0,0,1-6.2,11.36,11.36,0,0,0-1.64-6.46,99.61,99.61,0,0,1-5.48-9.17,21,21,0,0,1-2-9.43,22.59,22.59,0,0,1,1.75-10c1.17-2.51,2.45-3.77,3.86-3.77q2.57,0,4,3.24,1.74,4,1.63,11.32h-2.68a16.56,16.56,0,0,0-.94-7.28c-.54-1.26-1.21-1.89-2-1.89s-1.45.63-2,1.89a14.15,14.15,0,0,0-1,5.66,14.75,14.75,0,0,0,1.63,6.74A53,53,0,0,0,118.35,43.28Z"/><path class="cls-5" d="M138.67,68.08V15.52h2.69v21H148v-21h2.68V68.08H148V41.67h-6.66V68.08Z"/><path class="cls-5" d="M175.93,62.15h1.29v5.93H172V62.15h1.28V21.45H172V15.52h5.26v5.93h-1.29Z"/><path class="cls-5" d="M198.94,15.52h11.45v5.12L200.93,63h9.81v5.12h-12.5V63l9.46-42.32h-8.76Z"/><path class="cls-5" d="M228.37,15.52h2.69V54.06a16.74,16.74,0,0,0,.82,6.2,2.63,2.63,0,0,0,2.45,1.89h.12c1,0,1.79-.63,2.33-1.89a16.16,16.16,0,0,0,.94-6.2V15.52h2.68V54.06q0,7-1.75,11.06a4.36,4.36,0,0,1-4.2,3h-.12a4.36,4.36,0,0,1-4.21-3q-1.74-4.05-1.75-11.06Z"/><path class="cls-5" d="M258.27,68.08V15.52H261v22.1l6.66-22.1h3.15l-6.19,20.76,6.66,31.8h-3L262.83,41.4,261,47.33V68.08Z"/><path class="cls-5" d="M288.17,15.52h2.69V54.06a16.74,16.74,0,0,0,.82,6.2,2.63,2.63,0,0,0,2.45,1.89h.12c1,0,1.79-.63,2.33-1.89a16,16,0,0,0,.94-6.2V15.52h2.68V54.06q0,7-1.75,11.06a4.36,4.36,0,0,1-4.2,3h-.12a4.34,4.34,0,0,1-4.2-3q-1.76-4.05-1.76-11.06Z"/><path class="cls-5" d="M320.18,28.73V68.08h-2.34V15.52h3.74L324,49.75h.23l2.46-34.23h3.73V68.08h-2.33V28.73h-.24l-2.8,39.35h-1.87l-2.8-39.35Z"/><path class="cls-5" d="M351,37.62H359v5.12H351V63h9.23v5.12H348.32V15.52h11.33v5.12H351Z"/><path class="cls-5" d="M417.35,43.28Q420,46.79,420,53.53a27.71,27.71,0,0,1-1.75,10.78c-1.1,2.52-2.61,3.77-4.56,3.77s-3.31-1.17-4.32-3.5a25.6,25.6,0,0,1-1.87-10.25V51.64h2.69v2.42a17.11,17.11,0,0,0,.93,6.47q.93,2.16,2.34,2.16a3,3,0,0,0,2.8-2.16,15.68,15.68,0,0,0,1.05-6.2,11.36,11.36,0,0,0-1.63-6.46,97.48,97.48,0,0,1-5.49-9.17,21,21,0,0,1-2-9.43,22.74,22.74,0,0,1,1.75-10q1.75-3.76,3.86-3.77,2.56,0,4,3.24,1.76,4,1.63,11.32h-2.68a16.56,16.56,0,0,0-.94-7.28c-.54-1.26-1.21-1.89-2-1.89s-1.44.63-2,1.89a14.15,14.15,0,0,0-1.05,5.66,14.64,14.64,0,0,0,1.64,6.74A53,53,0,0,0,417.35,43.28Z"/><path class="cls-5" d="M439.54,68.08h-2.8l5.84-52.56h2.34l5.84,52.56H448l-1.63-15.36h-5.14Zm4.32-38.27h-.23L441.76,47.6h4Z"/><path class="cls-5" d="M478.2,19.83c1,2.34,1.52,5.66,1.52,10a26.31,26.31,0,0,1-1.52,9.7,8.36,8.36,0,0,1-2.1,3.5l4.21,25.07H477.5l-4-24.26h-3.27V68.08h-2.69V15.52h5.84Q476.34,15.52,478.2,19.83Zm-2.1,16.45a17.15,17.15,0,0,0,.94-6.47A16.34,16.34,0,0,0,476,23.34q-1.17-2.7-3.15-2.7h-2.57V38.7h3.39C474.58,38.7,475.4,37.89,476.1,36.28Z"/><path class="cls-5" d="M504.83,62.15h1.29v5.93h-5.26V62.15h1.29V21.45h-1.29V15.52h5.26v5.93h-1.29Z"/><path class="cls-5" d="M539.4,15.52V68.08h-3.27l-6.07-39.35h-.12V68.08h-2.68V15.52h3.27l6.07,39.35h.12V15.52Z"/><path class="cls-5" d="M559.14,68.08h-2.8l5.84-52.56h2.34l5.84,52.56h-2.81l-1.63-15.36h-5.14Zm4.33-38.27h-.24L561.36,47.6h4Z"/></g><path class="cls-3" d="M179.93,52.09H147.34V46.71h73.57v5.38H186.65V79.3h-6.72Zm32.92-41H187.66v5.38h32.25V30.25h-6.72v-8.4H187.66V43h-6.72V21.85H155.07v8.4h-6.72V16.48h32.59V11.1H155.41V5.73h57.44ZM158.77,31.26V25.88h18.81v5.38Zm18.81,3v5.38H158.77V34.28ZM192,55.78a82.57,82.57,0,0,1,24.53,9.41l-3.36,5.71A96.22,96.22,0,0,0,189,61.16Zm-1-24.52V25.88h19.14v5.38Zm0,8.4V34.28h19.14v5.38Z"/><path class="cls-3" d="M275.25,49.73q-12.42,18.48-42,26.21l-2.69-7.39q25.2-5.37,36.62-19.15H231.58V43H250.4V32.94H238V26.55h58.45v6.39H282V43h21.17V49.4H282V72.91q0,5.72-5.71,5.71h-7.39l-1-6.38h6.05a1.18,1.18,0,0,0,1.34-1.34ZM250.4,17.82H231.58V11.44H250.4V2.7h6.38q2.69.34.33,2v6.72h18.48V2.7H282q2.68.34.34,2v6.72h19.48v6.38H282.31v5h-6.72v-5H257.11v5H250.4ZM275.25,43V32.94H257.11V43Z"/><path class="cls-3" d="M319.77,28.23l-2-6.71q16.46,0,26.54-.68a102.59,102.59,0,0,1-4.71-17.46H347c2,.45,2.24,1.34.68,2.68a113.58,113.58,0,0,0,4,14.11,138.69,138.69,0,0,0,20.15-3l1.68,7.39q-9.75,1.35-19.15,2,6.72,12.78,20.5,22.18l-5,6a58.54,58.54,0,0,0-24.53-5.71q-11.08,0-15.45,4.37a7.73,7.73,0,0,0-2,5.71,9,9,0,0,0,3,6.38q4.69,4.71,22.17,4.71h11.76l-1.68,7.39H350.34q-17.46,0-24.52-7.06a15.74,15.74,0,0,1-5-11.42q0-6.37,3.7-10.08,6-6,18.81-6t14.78,1.34Q350,34.28,347,27.23,333.21,28.24,319.77,28.23Z"/><path class="cls-3" d="M403.77,54.1a6.12,6.12,0,0,1-4.37-2q-2.36-2.36-2.35-20.16A203.84,203.84,0,0,1,398.4,7.41h7.39c1.79.67,1.79,1.46,0,2.35q-1.69,8.06-1.68,22.17,0,14.45,1.34,14.45A4.93,4.93,0,0,0,408.14,45q2.34-2,7.72-9.07l5,5a69.22,69.22,0,0,1-10.41,10.75A10.69,10.69,0,0,1,403.77,54.1ZM432,5.39h6.72c2.46.23,2.69,1.12.67,2.69q1,10.76,1,32.92,0,25.2-23.85,38l-5.71-5.71q22.5-10.76,22.5-32.59Q433.33,17.83,432,5.39Z"/><path class="cls-3" d="M461.31,26.55l-1-7q8.4,0,16.8-.67,1.68-6,4-16.13l6.05,2c2.23.9,2.23,1.79,0,2.69l-3,10.75a77,77,0,0,0,11.76-2.36l1.68,7.06a104.43,104.43,0,0,1-15.45,2.35A237.57,237.57,0,0,1,466.35,62.5l-6.72-3.36Q470,40.67,474.75,25.88A111.1,111.1,0,0,1,461.31,26.55ZM510.69,34c2.46.45,2.69,1.34.67,2.68V56.12a111.94,111.94,0,0,1,17.47,7.39l-4,6.38a71,71,0,0,0-13.44-6.38c-.67,4.7-2.13,8.18-4.36,10.41q-4,4-11.09,4-9.41,0-13.1-3.69a11.82,11.82,0,0,1-3.36-8.74,10.63,10.63,0,0,1,3.36-7.72q4.37-4.36,12.77-4.37a32.83,32.83,0,0,1,9.07,1V34ZM495.58,59.48q-5.38,0-7.39,2a5.48,5.48,0,0,0-1.68,4,5,5,0,0,0,1.34,3.7q2,2,7,2,4.71,0,6.72-2c2-2,3-4.81,3-8.4A28.77,28.77,0,0,0,495.58,59.48ZM507,15.8q9.4,3,22.51,8.07l-3,7.05a209.44,209.44,0,0,0-22.17-8.4Z"/><g class="cls-6"><path class="cls-5" d="M161.91,39.65c1.44.37,2.15.9,2.15,1.61s-.46,1.26-1.4,1.68a9,9,0,0,1-3.66.6,8.81,8.81,0,0,1-3.47-.55c-1-.45-1.5-1-1.5-1.61V41h2.16v.38a1.08,1.08,0,0,0,.75,1,4.47,4.47,0,0,0,1.87.34,5.64,5.64,0,0,0,2.25-.34c.57-.25.85-.57.85-1s-.44-.76-1.31-1c-1.57-.45-3-.93-4.41-1.43-1-.37-1.53-.86-1.59-1.48s.4-1.14,1.4-1.56a8,8,0,0,1,3.1-.59,8.12,8.12,0,0,1,3.18.5c.94.43,1.38,1,1.32,1.78h-2.16q.18-.72-.75-1.14a4.39,4.39,0,0,0-3.19,0c-.56.25-.84.55-.84.88s.43.72,1.31,1.06A35.25,35.25,0,0,0,161.91,39.65Z"/><path class="cls-5" d="M178.22,43.54V35.31h2.16V38.6h5.34V35.31h2.16v8.23h-2.16V39.4h-5.34v4.14Z"/><path class="cls-5" d="M208.13,42.61h1v.93h-4.22v-.93h1V36.24h-1v-.93h4.22v.93h-1Z"/><path class="cls-5" d="M226.6,35.31h9.18v.8l-7.59,6.62h7.87v.81H226v-.81l7.6-6.62h-7Z"/><path class="cls-5" d="M250.22,35.31h2.16v6a1,1,0,0,0,.65,1,5,5,0,0,0,2,.3h.1a4.64,4.64,0,0,0,1.87-.3,1.06,1.06,0,0,0,.75-1v-6h2.16v6c0,.73-.47,1.31-1.41,1.73a8.83,8.83,0,0,1-3.37.47H255a8.79,8.79,0,0,1-3.37-.47c-.94-.42-1.41-1-1.41-1.73Z"/><path class="cls-5" d="M274.22,43.54V35.31h2.16v3.46l5.34-3.46h2.53l-5,3.25,5.35,5h-2.44l-4.31-4.18-1.5.93v3.25Z"/><path class="cls-5" d="M298.22,35.31h2.16v6a1,1,0,0,0,.65,1,5,5,0,0,0,2,.3h.1a4.64,4.64,0,0,0,1.87-.3,1.06,1.06,0,0,0,.75-1v-6h2.16v6c0,.73-.47,1.31-1.41,1.73a8.83,8.83,0,0,1-3.37.47H303a8.79,8.79,0,0,1-3.37-.47c-.94-.42-1.41-1-1.41-1.73Z"/><path class="cls-5" d="M323.91,37.38v6.16H322V35.31h3l2,5.36h.19l2-5.36h3v8.23h-1.88V37.38h-.18l-2.25,6.16h-1.5l-2.25-6.16Z"/><path class="cls-5" d="M348.66,38.77H355v.8h-6.37v3.16h7.4v.81H346.5V35.31h9.1v.8h-6.94Z"/><path class="cls-5" d="M401.91,39.65c1.44.37,2.15.9,2.15,1.61s-.46,1.26-1.4,1.68a9,9,0,0,1-3.66.6,8.81,8.81,0,0,1-3.47-.55c-1-.45-1.5-1-1.5-1.61V41h2.16v.38a1.08,1.08,0,0,0,.75,1,4.47,4.47,0,0,0,1.87.34,5.64,5.64,0,0,0,2.25-.34c.57-.25.85-.57.85-1s-.44-.76-1.31-1c-1.57-.45-3-.93-4.41-1.43-1-.37-1.53-.86-1.59-1.48s.4-1.14,1.4-1.56a8,8,0,0,1,3.1-.59,8.12,8.12,0,0,1,3.18.5c.94.43,1.38,1,1.32,1.78h-2.16q.18-.72-.75-1.14a4.39,4.39,0,0,0-3.19,0c-.56.25-.84.55-.84.88s.43.72,1.31,1.06A35.25,35.25,0,0,0,401.91,39.65Z"/><path class="cls-5" d="M419.72,43.54h-2.25l4.69-8.23H424l4.69,8.23h-2.25l-1.31-2.41H421Zm3.47-6H423l-1.5,2.79h3.19Z"/><path class="cls-5" d="M450.75,36A1.73,1.73,0,0,1,452,37.54c0,.62-.41,1.13-1.22,1.52a5.51,5.51,0,0,1-1.68.55l3.37,3.93h-2.25L447,39.74h-2.62v3.8h-2.16V35.31h4.69A9.41,9.41,0,0,1,450.75,36Zm-1.68,2.58a1.1,1.1,0,0,0,.75-1c0-.42-.29-.75-.85-1a6.28,6.28,0,0,0-2.53-.42h-2.06v2.83h2.72A4.84,4.84,0,0,0,449.07,38.56Z"/><path class="cls-5" d="M472.13,42.61h1v.93h-4.22v-.93h1V36.24h-1v-.93h4.22v.93h-1Z"/><path class="cls-5" d="M499.88,35.31v8.23h-2.63l-4.87-6.16h-.1v6.16h-2.15V35.31h2.62l4.88,6.16h.09V35.31Z"/><path class="cls-5" d="M515.72,43.54h-2.25l4.69-8.23H520l4.69,8.23h-2.25l-1.31-2.41H517Zm3.47-6H519l-1.5,2.79h3.19Z"/></g><rect class="cls-7" width="680" height="82"/></g></g></svg>