<svg xmlns="http://www.w3.org/2000/svg" viewBox="0 0 17 15"><defs><style>.cls-1{fill:red;}.cls-2{fill:none;opacity:0.14;}</style></defs><title>アートボード 374</title><g id="comon"><g id="共通装飾品"><path class="cls-1" d="M7.75,10.37a2.14,2.14,0,0,1-1.93,1A2.58,2.58,0,0,1,3.18,8.49c0-1.41,1.4-3,2.33-4.08s2.28-2.6,3-3.35h0c.7.75,2,2.22,3,3.35s2.33,2.65,2.33,4.08a2.58,2.58,0,0,1-2.64,2.88,2.14,2.14,0,0,1-1.93-1h0a5.69,5.69,0,0,0,1.06,3.46v.1H6.71v-.1a5.56,5.56,0,0,0,1.06-3.46Z"/><rect class="cls-2" width="17" height="15"/></g></g></svg>