<svg xmlns="http://www.w3.org/2000/svg" viewBox="0 0 680 82"><defs><style>.cls-1{isolation:isolate;}.cls-2{opacity:0.2;}.cls-2,.cls-4{mix-blend-mode:screen;}.cls-3{fill:#fff;}.cls-4{opacity:0.45;}.cls-5{fill:red;}.cls-6{opacity:0.85;}.cls-7{fill:none;opacity:0.19;}</style></defs><title>アートボード 355</title><g class="cls-1"><g id="CHARACTER"><g class="cls-2"><path class="cls-3" d="M124.06,57.39h-8.43a.91.91,0,0,1-.72-.35L100.57,38.23V56.49a.9.9,0,0,1-.9.9H92.74a.9.9,0,0,1-.9-.9V29.07a.9.9,0,0,1,.9-.9h8.43a.9.9,0,0,1,.72.36l14.34,18.81V29.07a.91.91,0,0,1,.9-.9h6.93a.9.9,0,0,1,.9.9V56.49A.9.9,0,0,1,124.06,57.39Zm-8-1.8h7.09V30H118V49.6a.9.9,0,0,1-.91.9h-.3a.9.9,0,0,1-.71-.35L100.73,30H93.64V55.59h5.13V36a.9.9,0,0,1,.9-.9h.3a.88.88,0,0,1,.71.36Z"/><path class="cls-3" d="M165.32,57.39h-7.23a.88.88,0,0,1-.79-.48l-4-7.53H141.17l-4,7.53a.91.91,0,0,1-.8.48h-7.23a.87.87,0,0,1-.77-.44.91.91,0,0,1,0-.89l15.06-27.42a.9.9,0,0,1,.79-.47h6a.9.9,0,0,1,.79.47l15.06,27.42a.89.89,0,0,1-.79,1.33Zm-6.68-1.8h5.16L149.73,30h-5L130.7,55.59h5.17l4-7.53a.89.89,0,0,1,.8-.48h13.25a.88.88,0,0,1,.79.48Zm-6.27-8.88H142.13a.91.91,0,0,1-.8-1.32l4.82-9.28a.89.89,0,0,1,.8-.48h.6a.88.88,0,0,1,.8.48l4.82,9.28a.92.92,0,0,1,0,.88A.89.89,0,0,1,152.37,46.71Zm-8.76-1.8h7.28l-3.64-7Z"/><path class="cls-3" d="M185.8,57.39a25.32,25.32,0,0,1-10.62-1.91C170.44,53.27,168,49,168,42.71s2.4-10.41,7.14-12.62a25.34,25.34,0,0,1,10.62-1.92,24.53,24.53,0,0,1,10.32,1.92c4.74,2.21,7.15,6.46,7.15,12.62s-2.41,10.56-7.15,12.77A24.51,24.51,0,0,1,185.8,57.39Zm0-27.42a23.6,23.6,0,0,0-9.86,1.75c-4.11,1.91-6.1,5.51-6.1,11s2,9.22,6.1,11.14a23.58,23.58,0,0,0,9.86,1.74,22.72,22.72,0,0,0,9.56-1.74c4.11-1.92,6.11-5.56,6.11-11.14s-2-9.07-6.11-11A22.75,22.75,0,0,0,185.8,30Zm0,24.75a15,15,0,0,1-6.4-1.35C176.46,52,175,48.42,175,42.71s1.5-9.14,4.44-10.52a15.1,15.1,0,0,1,6.4-1.35,14.37,14.37,0,0,1,6.1,1.35c2.95,1.38,4.44,4.92,4.44,10.52S194.85,52,191.9,53.37A14.22,14.22,0,0,1,185.8,54.72Zm0-22.08a13.16,13.16,0,0,0-5.64,1.19c-2.25,1.05-3.4,4-3.4,8.88s1.15,8,3.4,9a13.3,13.3,0,0,0,5.64,1.18,12.57,12.57,0,0,0,5.34-1.18c2.26-1.05,3.4-4.09,3.4-9s-1.14-7.83-3.4-8.88A12.43,12.43,0,0,0,185.8,32.64Z"/><path class="cls-3" d="M227.36,57.39h-6.92a.9.9,0,0,1-.9-.9V32.64H208.69a.9.9,0,0,1-.9-.9V29.07a.9.9,0,0,1,.9-.9h31a.9.9,0,0,1,.9.9v2.67a.9.9,0,0,1-.9.9H228.26V56.49A.9.9,0,0,1,227.36,57.39Zm-6-1.8h5.12V31.74a.91.91,0,0,1,.9-.9h11.45V30H209.59v.87h10.85a.91.91,0,0,1,.9.9Z"/><path class="cls-3" d="M262.9,57.39a25.32,25.32,0,0,1-10.62-1.91c-4.74-2.21-7.15-6.51-7.15-12.77s2.41-10.41,7.15-12.62a25.34,25.34,0,0,1,10.62-1.92,24.53,24.53,0,0,1,10.32,1.92c4.74,2.21,7.15,6.46,7.15,12.62S278,53.27,273.22,55.48A24.51,24.51,0,0,1,262.9,57.39Zm0-27.42A23.6,23.6,0,0,0,253,31.72c-4.11,1.91-6.1,5.51-6.1,11s2,9.22,6.1,11.14a23.58,23.58,0,0,0,9.86,1.74,22.72,22.72,0,0,0,9.56-1.74c4.11-1.92,6.11-5.56,6.11-11.14s-2-9.07-6.11-11A22.75,22.75,0,0,0,262.9,30Zm0,24.75a15,15,0,0,1-6.4-1.35c-2.95-1.37-4.44-4.95-4.44-10.66s1.49-9.14,4.44-10.52a15.1,15.1,0,0,1,6.4-1.35,14.37,14.37,0,0,1,6.1,1.35c2.95,1.38,4.44,4.92,4.44,10.52S272,52,269,53.37A14.22,14.22,0,0,1,262.9,54.72Zm0-22.08a13.13,13.13,0,0,0-5.64,1.19c-2.25,1.05-3.4,4-3.4,8.88s1.14,8,3.4,9a13.27,13.27,0,0,0,5.64,1.18,12.57,12.57,0,0,0,5.34-1.18c2.26-1.05,3.4-4.09,3.4-9s-1.14-7.83-3.4-8.88A12.43,12.43,0,0,0,262.9,32.64Z"/><path class="cls-3" d="M357.77,57.39h-7.83a.9.9,0,0,1-.64-.26L336,43.72l-3.79,2.44V56.49a.9.9,0,0,1-.9.9h-6.93a.9.9,0,0,1-.9-.9V29.07a.9.9,0,0,1,.9-.9h6.93a.91.91,0,0,1,.9.9v9.85l15.76-10.59a.93.93,0,0,1,.5-.16h8.14a.9.9,0,0,1,.5,1.65L342,40,358.4,55.85a.89.89,0,0,1,.2,1A.88.88,0,0,1,357.77,57.39Zm-7.46-1.8h5.23L340,40.55a.88.88,0,0,1-.27-.73.86.86,0,0,1,.39-.66L353.64,30h-4.93L331.77,41.35a.89.89,0,0,1-1.4-.75V30h-5.13V55.59h5.13V45.67a.88.88,0,0,1,.41-.76l4.82-3.1a.91.91,0,0,1,1.12.13Z"/><path class="cls-3" d="M394.51,57.39H363.79a.9.9,0,0,1-.9-.9V29.07a.91.91,0,0,1,.9-.9H393a.91.91,0,0,1,.9.9v2.67a.9.9,0,0,1-.9.9H371.62V39.7H391.2a.9.9,0,0,1,.9.9v2.68a.9.9,0,0,1-.9.9H371.62v8.74h22.89a.9.9,0,0,1,.9.9v2.67A.9.9,0,0,1,394.51,57.39Zm-29.82-1.8h28.92v-.87H370.72a.9.9,0,0,1-.9-.9V43.28a.9.9,0,0,1,.9-.9H390.3V41.5H370.72a.9.9,0,0,1-.9-.9V31.74a.9.9,0,0,1,.9-.9h21.39V30H364.69Z"/><path class="cls-3" d="M423.73,57.39H410.17a.9.9,0,0,1-.9-.9V53.4a.9.9,0,0,1,.9-.9h2.42V33.07h-2.42a.91.91,0,0,1-.9-.9v-3.1a.91.91,0,0,1,.9-.9h13.56a.91.91,0,0,1,.9.9v3.1a.91.91,0,0,1-.9.9h-2.42V52.5h2.42a.9.9,0,0,1,.9.9v3.09A.9.9,0,0,1,423.73,57.39Zm-12.66-1.8h11.76V54.3h-2.42a.9.9,0,0,1-.9-.9V32.17a.9.9,0,0,1,.9-.9h2.42V30H411.07v1.3h2.42a.9.9,0,0,1,.9.9V53.4a.9.9,0,0,1-.9.9h-2.42Z"/><path class="cls-3" d="M455.35,57.39c-4.93,0-8.81-.64-11.53-1.91-3.54-1.65-5.33-3.72-5.33-6.16v-1.4a.9.9,0,0,1,.9-.9h6.92a.9.9,0,0,1,.9.9v1.26a2.68,2.68,0,0,0,1.89,2.56,13.42,13.42,0,0,0,5.65,1,17.06,17.06,0,0,0,6.84-1c2.19-1,2.19-2.07,2.19-2.42,0-1.25-2.24-2.11-3.57-2.51-5-1.49-9.79-3.11-14.22-4.8-3.54-1.34-5.46-3.26-5.69-5.68s1.45-4.54,5.05-6.11a25.6,25.6,0,0,1,10.3-2c4.53,0,8.1.6,10.62,1.77,3.37,1.58,5,3.86,4.73,6.8a.89.89,0,0,1-.89.83h-6.93a.9.9,0,0,1-.87-1.12c.19-.78.15-1.8-1.92-2.77a13.07,13.07,0,0,0-9.48,0c-1,.47-2.19,1.22-2.19,2.14,0,.37.36,1.36,3.65,2.68a109.8,109.8,0,0,0,12.54,4.19h0c5,1.33,7.6,3.42,7.6,6.21s-1.69,4.88-5,6.44C464.56,56.7,460.48,57.39,455.35,57.39Zm-15.06-8.57v.5c0,1.68,1.44,3.2,4.29,4.53,2.48,1.16,6.1,1.74,10.77,1.74,4.86,0,8.69-.63,11.36-1.88s4-2.83,4-4.81-2.1-3.38-6.25-4.47h0a111.51,111.51,0,0,1-12.75-4.26c-3.22-1.28-4.78-2.71-4.78-4.35s1.09-2.77,3.23-3.77a14.67,14.67,0,0,1,11,0c2.3,1.08,3,2.48,3,3.72h5c-.17-1.74-1.39-3.12-3.69-4.19S459.91,30,455.65,30a23.81,23.81,0,0,0-9.58,1.9c-2.8,1.22-4.14,2.67-4,4.29s1.69,3.08,4.54,4.16c4.4,1.68,9.14,3.29,14.1,4.77,1.2.36,4.85,1.45,4.85,4.23,0,1.69-1.08,3-3.22,4a18.42,18.42,0,0,1-7.61,1.21,15.18,15.18,0,0,1-6.41-1.21,4.46,4.46,0,0,1-2.93-4.19v-.36Z"/><path class="cls-3" d="M494.2,57.39h-.3c-5.21,0-8.88-.53-11.23-1.63-3.34-1.56-5-3.77-5-6.58V29.07a.9.9,0,0,1,.9-.9h6.93a.91.91,0,0,1,.9.9V49.18A2.45,2.45,0,0,0,488,51.6a14.84,14.84,0,0,0,5.95.9h.3a13.81,13.81,0,0,0,5.64-.9c1.7-.79,1.89-1.76,1.89-2.42V29.07a.91.91,0,0,1,.9-.9h6.93a.9.9,0,0,1,.9.9V49.18c0,2.81-1.7,5-5,6.58C503.07,56.86,499.4,57.39,494.2,57.39ZM479.44,30V49.18c0,2.08,1.31,3.7,4,5,2.07,1,5.59,1.46,10.46,1.46h.3c4.86,0,8.38-.49,10.46-1.46,2.69-1.25,4-2.87,4-5V30h-5.13V49.18c0,1.23-.51,2.92-2.93,4a15.3,15.3,0,0,1-6.4,1.07h-.3a16.25,16.25,0,0,1-6.71-1.07,4.23,4.23,0,0,1-2.62-4V30Z"/><path class="cls-3" d="M550.52,57.39h-7.83a.9.9,0,0,1-.64-.26L528.71,43.72l-3.79,2.44V56.49a.9.9,0,0,1-.9.9h-6.93a.9.9,0,0,1-.9-.9V29.07a.9.9,0,0,1,.9-.9H524a.91.91,0,0,1,.9.9v9.85l15.76-10.59a.9.9,0,0,1,.5-.16h8.13a.91.91,0,0,1,.51,1.65L534.77,40l16.37,15.83a.89.89,0,0,1-.62,1.54Zm-7.46-1.8h5.23l-15.56-15a.88.88,0,0,1-.27-.73.86.86,0,0,1,.39-.66L546.38,30h-4.92L524.52,41.35a.89.89,0,0,1-1.4-.75V30H518V55.59h5.13V45.67a.88.88,0,0,1,.41-.76l4.82-3.1a.91.91,0,0,1,1.12.13Z"/><path class="cls-3" d="M587.26,57.39H556.54a.9.9,0,0,1-.9-.9V29.07a.9.9,0,0,1,.9-.9h29.21a.91.91,0,0,1,.91.9v2.67a.9.9,0,0,1-.91.9H564.37V39.7H584a.9.9,0,0,1,.9.9v2.68a.9.9,0,0,1-.9.9H564.37v8.74h22.89a.9.9,0,0,1,.9.9v2.67A.9.9,0,0,1,587.26,57.39Zm-29.82-1.8h28.92v-.87H563.47a.9.9,0,0,1-.9-.9V43.28a.9.9,0,0,1,.9-.9h19.58V41.5H563.47a.9.9,0,0,1-.9-.9V31.74a.9.9,0,0,1,.9-.9h21.38V30H557.44Z"/></g><g class="cls-4"><path class="cls-5" d="M166.56,15.69V68.25h-3.27L157.21,28.9h-.11V68.25h-2.69V15.69h3.27L163.75,55h.12V15.69Z"/><path class="cls-5" d="M186.3,68.25h-2.81l5.84-52.56h2.34l5.84,52.56h-2.8l-1.64-15.37h-5.14ZM190.62,30h-.24l-1.87,17.79h4Z"/><path class="cls-5" d="M226.82,41.83q0,17-2.57,22.91-1.51,3.51-3.85,3.51c-1.63,0-3-1.17-4-3.51q-2.56-5.92-2.57-22.91,0-16.69,2.57-22.64c1-2.33,2.34-3.5,4-3.5s2.84,1.17,3.85,3.5Q226.83,25.13,226.82,41.83Zm-10.27,0q0,15.38,1.51,18.87c.71,1.62,1.48,2.43,2.34,2.43s1.52-.81,2.22-2.43q1.51-3.5,1.52-18.87,0-15.09-1.52-18.59-1.05-2.43-2.22-2.43c-.86,0-1.63.81-2.34,2.43Q216.55,26.74,216.55,41.83Z"/><path class="cls-5" d="M248.78,68.25V20.81h-4.55V15.69h12v5.12h-4.79V68.25Z"/><path class="cls-5" d="M286.62,41.83q0,17-2.57,22.91-1.51,3.51-3.85,3.51c-1.63,0-3-1.17-4-3.51q-2.57-5.92-2.57-22.91,0-16.69,2.57-22.64c1-2.33,2.34-3.5,4-3.5s2.84,1.17,3.85,3.5Q286.63,25.13,286.62,41.83Zm-10.27,0q0,15.38,1.51,18.87c.71,1.62,1.48,2.43,2.34,2.43s1.52-.81,2.22-2.43q1.51-3.5,1.52-18.87,0-15.09-1.52-18.59-1.05-2.43-2.22-2.43c-.86,0-1.63.81-2.34,2.43Q276.35,26.74,276.35,41.83Z"/><path class="cls-5" d="M333.93,68.25V15.69h2.68v22.1l6.66-22.1h3.16l-6.2,20.75,6.66,31.81h-3l-5.37-26.69-1.87,5.93V68.25Z"/><path class="cls-5" d="M366.86,37.79h7.95v5.12h-7.95V63.13h9.23v5.12H364.18V15.69h11.33v5.12h-8.65Z"/><path class="cls-5" d="M401.09,62.32h1.28v5.93h-5.26V62.32h1.29V21.62h-1.29V15.69h5.26v5.93h-1.28Z"/><path class="cls-5" d="M433.21,43.45q2.69,3.51,2.68,10.24a27.46,27.46,0,0,1-1.75,10.78q-1.63,3.78-4.56,3.78c-1.86,0-3.31-1.17-4.32-3.51a25.69,25.69,0,0,1-1.87-10.24V51.81h2.69v2.42A16.88,16.88,0,0,0,427,60.7c.62,1.44,1.4,2.16,2.33,2.16a3,3,0,0,0,2.8-2.16,15.7,15.7,0,0,0,1.06-6.2A11.42,11.42,0,0,0,431.57,48a97.3,97.3,0,0,1-5.49-9.16,20.86,20.86,0,0,1-2-9.43,22.59,22.59,0,0,1,1.75-10q1.75-3.77,3.85-3.77c1.71,0,3,1.08,4,3.23q1.75,4,1.64,11.32h-2.69a16.55,16.55,0,0,0-.93-7.27c-.55-1.26-1.21-1.89-2-1.89s-1.44.63-2,1.89a14.11,14.11,0,0,0-1.06,5.66,14.8,14.8,0,0,0,1.64,6.74A53.45,53.45,0,0,0,433.21,43.45Z"/><path class="cls-5" d="M453.53,15.69h2.68V54.23a17,17,0,0,0,.82,6.2,2.64,2.64,0,0,0,2.45,1.89h.12q1.51,0,2.34-1.89a16.18,16.18,0,0,0,.93-6.2V15.69h2.69V54.23q0,7-1.75,11.05a4.36,4.36,0,0,1-4.21,3h-.12a4.35,4.35,0,0,1-4.2-3q-1.75-4-1.75-11.05Z"/><path class="cls-5" d="M483.43,68.25V15.69h2.68v22.1l6.66-22.1h3.16l-6.19,20.75,6.65,31.81h-3L488,41.56l-1.87,5.93V68.25Z"/><path class="cls-5" d="M516.37,37.79h7.94v5.12h-7.94V63.13h9.22v5.12H513.68V15.69H525v5.12h-8.64Z"/></g><path class="cls-3" d="M187.82,2.2h6.38c1.79.22,1.9.9.34,2v6.72h30.57v6.39H194.54V24H214.7V65.69H208V63H180.77v3.36h-6.72V24h13.77V17.32H152.55V10.93h35.27ZM157.92,24h6.39q2.69.33.33,2v44h62.82v6.38H164.64V79.8h-6.72ZM208,29.41H180.77v5.71H208Zm0,11.09H180.77v5.37H208Zm0,10.75H180.77v6.38H208Z"/><path class="cls-3" d="M296.33,52.59v-4h-40v3A41.13,41.13,0,0,1,245.6,79.8l-6.38-6a34.61,34.61,0,0,0,9.41-24.52V23h55.43V52.59ZM241.23,6.9h68.2v7.39h-68.2Zm15.12,22.51V42.18h40V29.41Z"/><path class="cls-3" d="M407.86,42.18v7h25.53v6.38H407.86V69.39h32.92v6.38H368.22V69.39h32.92V55.61H376.28V49.23h24.86V40.16h6.38Q410.21,40.51,407.86,42.18Zm-6.72-10.75V20.68H378.3V14.29h22.84V3.88h6.38c1.79.22,1.9.9.34,2v8.4H430.7v6.39H407.86V31.43h31.58v6.38H370.23V31.43Z"/><path class="cls-3" d="M525.77,40.5q-23.85-7.72-35.61-28.22a77.5,77.5,0,0,1-34.6,29.9l-3.69-8.07q24.86-9.39,35.61-31.24l7.72,1.68c.68.23.45.9-.67,2q9.41,17.81,33.93,25.53Zm-51.39-7.39h7.39c2.23.45,2.35,1.34.33,2.68V49.57q0,13.77-4.7,19.82T461.61,79.8l-4.37-7.39Q466,69.73,470.34,65q4-4.36,4-15.79Zm24.52-.68h7.39q3.36.68.34,2.69v44H498.9Z"/><g class="cls-6"><path class="cls-5" d="M188.78,35.48V43.7h-2.62l-4.88-6.16h-.09V43.7H179V35.48h2.63l4.87,6.16h.09V35.48Z"/><path class="cls-5" d="M204.62,43.7h-2.24l4.68-8.22h1.88l4.68,8.22h-2.24l-1.32-2.4h-4.12Zm3.47-6h-.18l-1.5,2.79h3.18Z"/><path class="cls-5" d="M237.16,39.57a3.54,3.54,0,0,1-2.07,3.58,7.47,7.47,0,0,1-3.09.55,7.78,7.78,0,0,1-3.19-.55,3.54,3.54,0,0,1-2.06-3.58A3.53,3.53,0,0,1,228.81,36a8,8,0,0,1,3.19-.54,7.64,7.64,0,0,1,3.09.54A3.52,3.52,0,0,1,237.16,39.57Zm-8.25,0c0,1.6.4,2.59,1.21,3a4.61,4.61,0,0,0,1.88.38,4.34,4.34,0,0,0,1.78-.38c.81-.36,1.22-1.35,1.22-3s-.41-2.55-1.22-2.91a4.19,4.19,0,0,0-1.78-.38,4.45,4.45,0,0,0-1.88.38C229.31,37,228.91,38,228.91,39.57Z"/><path class="cls-5" d="M254.78,43.7V36.28h-3.66v-.8h9.66v.8h-3.84V43.7Z"/><path class="cls-5" d="M285.16,39.57a3.54,3.54,0,0,1-2.07,3.58,7.47,7.47,0,0,1-3.09.55,7.78,7.78,0,0,1-3.19-.55,3.54,3.54,0,0,1-2.06-3.58A3.53,3.53,0,0,1,276.81,36a8,8,0,0,1,3.19-.54,7.64,7.64,0,0,1,3.09.54A3.52,3.52,0,0,1,285.16,39.57Zm-8.25,0c0,1.6.4,2.59,1.21,3a4.61,4.61,0,0,0,1.88.38,4.34,4.34,0,0,0,1.78-.38c.81-.36,1.22-1.35,1.22-3s-.41-2.55-1.22-2.91a4.19,4.19,0,0,0-1.78-.38,4.45,4.45,0,0,0-1.88.38C277.31,37,276.91,38,276.91,39.57Z"/><path class="cls-5" d="M347.12,43.7V35.48h2.16v3.46l5.34-3.46h2.54l-5,3.24,5.34,5h-2.44l-4.31-4.17-1.5.92V43.7Z"/><path class="cls-5" d="M373.56,38.94h6.38v.8h-6.38V42.9H381v.8h-9.56V35.48h9.09v.8h-6.94Z"/><path class="cls-5" d="M401,42.77h1v.93h-4.22v-.93h1V36.4h-1v-.92h4.22v.92h-1Z"/><path class="cls-5" d="M426.81,39.82c1.44.37,2.16.9,2.16,1.6s-.47,1.27-1.41,1.69a9,9,0,0,1-3.65.59,8.63,8.63,0,0,1-3.47-.55c-1-.44-1.5-1-1.5-1.6v-.42h2.15v.38a1.08,1.08,0,0,0,.75,1,4.51,4.51,0,0,0,1.88.34,5.64,5.64,0,0,0,2.25-.34c.56-.25.84-.57.84-1s-.44-.76-1.31-1q-2.34-.67-4.41-1.44-1.5-.54-1.59-1.47t1.41-1.56a7.74,7.74,0,0,1,3.09-.59,8,8,0,0,1,3.19.5c.93.42,1.37,1,1.31,1.77h-2.16c.13-.47-.12-.85-.75-1.13a4.36,4.36,0,0,0-3.18,0c-.57.25-.85.54-.85.88s.44.72,1.31,1.06A38.21,38.21,0,0,0,426.81,39.82Z"/><path class="cls-5" d="M443.12,35.48h2.16v6a1,1,0,0,0,.66,1,5,5,0,0,0,2,.29H448a4.71,4.71,0,0,0,1.88-.29,1.07,1.07,0,0,0,.75-1v-6h2.15v6c0,.73-.47,1.31-1.4,1.73a8.92,8.92,0,0,1-3.38.46h-.09a8.89,8.89,0,0,1-3.38-.46c-.94-.42-1.41-1-1.41-1.73Z"/><path class="cls-5" d="M467.13,43.7V35.48h2.15v3.46l5.35-3.46h2.53l-5,3.24,5.34,5h-2.44l-4.31-4.17-1.5.92V43.7Z"/><path class="cls-5" d="M493.56,38.94h6.38v.8h-6.38V42.9H501v.8h-9.56V35.48h9.09v.8h-6.94Z"/></g><rect class="cls-7" width="680" height="82"/></g></g></svg>