<svg xmlns="http://www.w3.org/2000/svg" viewBox="0 0 214 31"><defs><style>.cls-1{fill:none;opacity:0.15;}.cls-2{fill:red;}</style></defs><title>アートボード 167</title><g id="comon"><g id="見出し"><rect class="cls-1" width="214" height="31"/><path class="cls-2" d="M67.84,9.21l.12.1c.63.62,1,1.85,1.07,3.68l1.89,0A6.93,6.93,0,0,0,70,9.19Z"/><path class="cls-2" d="M65.81,9.23l-2.28,0a10.2,10.2,0,0,0-1.62,5l2,0c.21-2.26.78-3.86,1.72-4.78A1.63,1.63,0,0,1,65.81,9.23Z"/><path class="cls-2" d="M68.1,8.08l0,0a3.49,3.49,0,0,0-2.58-.92,3.76,3.76,0,0,0-2.73,1.23l5.34-.06Z"/><path class="cls-2" d="M50.53,15.47h2V15.2h-2Z"/><path class="cls-2" d="M68.11,8.31v.77l2,0,0-1.93-2,0v.93a2.29,2.29,0,0,1,.21.23Z"/><polygon class="cls-2" points="73.53 18.37 72.27 18.38 72.99 18.39 72.91 23.89 73.61 23.89 73.53 18.37"/><polygon class="cls-2" points="71.63 23.91 72.26 23.9 71.63 23.89 71.63 23.91"/><polygon class="cls-2" points="83.64 7.44 83.64 7.14 81.66 7.14 81.66 8.51 81.95 7.42 83.64 7.44"/><polygon class="cls-2" points="72.27 18.38 71.01 18.36 71 19.67 70.94 23.88 71.63 23.89 71.56 18.39 72.27 18.38"/><polygon class="cls-2" points="72.91 23.91 72.91 23.89 72.26 23.9 72.91 23.91"/><rect class="cls-2" x="79.91" y="10.62" width="1.64" height="1.98" transform="matrix(0.01, -1, 1, 0.01, 68.66, 92.27)"/><rect class="cls-2" x="77.49" y="10.79" width="1.98" height="1.64" transform="translate(-0.05 0.34) rotate(-0.25)"/><polygon class="cls-2" points="71.89 13.23 71.89 13.84 66.99 13.85 66.99 13.24 65.01 13.24 65.01 14.15 73.86 14.13 73.86 13.23 71.89 13.23"/><polygon class="cls-2" points="83.64 7.44 83.63 9.07 81.66 9.07 81.66 8.51 81.5 9.07 84.22 9.11 83.82 7.44 83.64 7.44"/><polygon class="cls-2" points="89.55 22.87 91.6 22.88 92.24 20.31 90.22 20.3 89.55 22.87"/><polygon class="cls-2" points="80.17 20.32 80.83 22.88 82.88 22.86 82.19 20.3 80.17 20.32"/><polygon class="cls-2" points="107.92 23.71 106.29 23.68 106.23 23.89 107.99 23.91 107.92 23.71"/><path class="cls-2" d="M110.07,11.69l-.34,1.37h-1.55a1,1,0,0,1-.06.16l2.06,0a5,5,0,0,0,.2-1l-.14-.56Z"/><path class="cls-2" d="M108.28,10.6a2.61,2.61,0,0,1,.06.27l.2-.74A4.31,4.31,0,0,0,108.28,10.6Z"/><path class="cls-2" d="M108.86,9.68h1.19a3.37,3.37,0,0,0-.38-.7,2.13,2.13,0,0,0-.54.38A4.15,4.15,0,0,0,108.86,9.68Z"/><path class="cls-2" d="M107.05,9.18a6,6,0,0,1,.71-.86l.12-.1-6.34-.09-.08,5,2,0,.06-4.4,1.89,0A3.43,3.43,0,0,1,107.05,9.18Z"/><rect class="cls-2" x="99.63" y="23.69" width="1.98" height="0.21" transform="translate(-0.17 0.74) rotate(-0.42)"/><path class="cls-2" d="M92.86,14.46l3.06,0a2.69,2.69,0,0,0,.2-.27l-2.58,0A2.48,2.48,0,0,1,92.86,14.46Z"/><rect class="cls-2" x="90.47" y="14.2" width="1.98" height="0.27"/><path class="cls-2" d="M83.67,7.14v.2h5.72A5.49,5.49,0,0,0,88,7.14Z"/><polygon class="cls-2" points="105.86 23.68 106.29 23.68 107.19 20.21 105.17 20.19 104.17 23.88 106.23 23.91 106.23 23.89 105.93 23.88 105.86 23.68"/><path class="cls-2" d="M118.28,20.22l.3,1.14a2.85,2.85,0,0,0,.56-1.16Z"/><path class="cls-2" d="M118.82,22.28l.43,1.63,2.06,0-.63-2.32a4.23,4.23,0,0,1-.42.73Z"/><path class="cls-2" d="M106.28,18.92,106,20h2l.22-.93,3.78,0,.23.92h.35c-.1-.32-.18-.66-.26-1Z"/><path class="cls-2" d="M110.38,12.26l.19.8h2l-.85-3.38h-1.63a5.12,5.12,0,0,1,.37,2.08C110.42,11.94,110.39,12.09,110.38,12.26Z"/><path class="cls-2" d="M108.34,10.87l-.57,2.18h.41a3.4,3.4,0,0,0,.26-1.32A3,3,0,0,0,108.34,10.87Z"/><path class="cls-2" d="M109.35,8.57a3.22,3.22,0,0,1,.32.41,1.74,1.74,0,0,1,.84-.2,1.86,1.86,0,0,1,1.37.52,4.23,4.23,0,0,1,.91,2.51l1.94,0a6,6,0,0,0-1.63-3.72,3.53,3.53,0,0,0-2.57-1,3.75,3.75,0,0,0-2.65,1.08l1.08,0A4,4,0,0,1,109.35,8.57Z"/><path class="cls-2" d="M107.05,9.18a8.51,8.51,0,0,0-1.16,2.56l1.94,0a7.79,7.79,0,0,1,.45-1.16,2.61,2.61,0,0,0-.58-.94A2.55,2.55,0,0,0,107.05,9.18Z"/><path class="cls-2" d="M108.66,9.67l-.12.46a3.65,3.65,0,0,1,.32-.45Z"/><path class="cls-2" d="M118.54,21.41a2.07,2.07,0,0,1-1.46.68,2.14,2.14,0,0,1-1.55-.68c-.81-.82-1.28-2.27-1.42-4.33h-2a13.68,13.68,0,0,0,.24,1.81H114l.26,1h-1.67a7.13,7.13,0,0,0,1.25,2.37h4.94l-.24-.92Z"/><path class="cls-2" d="M119.48,17.45a11.18,11.18,0,0,1-.34,2.75h1.16l.38,1.36a11.76,11.76,0,0,0,.87-4.1Z"/><path class="cls-2" d="M122.72,13.5h-2a18.91,18.91,0,0,0-.13,1.91h2C122.62,14.73,122.66,14.09,122.72,13.5Z"/><polygon class="cls-2" points="137.29 13.11 138.5 13.13 138.51 12.11 137.3 12.09 137.29 13.11"/><polygon class="cls-2" points="133.97 15.53 133.98 16.34 133.98 17.25 135.96 17.24 135.95 15.52 133.97 15.53"/><polygon class="cls-2" points="127.91 8.52 127.92 7.13 125.03 7.11 125.02 8.74 128.38 8.77 128.36 11.82 130.33 11.83 130.35 8.78 133.88 8.8 133.88 8.6 127.91 8.52"/><rect class="cls-2" x="122.44" y="18.96" width="1.98" height="3.38" transform="translate(-0.05 0.3) rotate(-0.14)"/><rect class="cls-2" x="122.88" y="23.2" width="1.98" height="0.7"/><polygon class="cls-2" points="133.88 8.6 136.24 8.64 136.26 7.2 127.92 7.08 127.92 7.13 133.89 7.17 133.88 8.6"/><rect class="cls-2" x="159.1" y="11.13" width="0.91" height="7.82" transform="translate(143.23 174.47) rotate(-89.54)"/><polygon class="cls-2" points="136.54 12.08 137.3 12.09 137.31 9.49 135.33 9.49 135.32 13.72 137.29 13.73 137.29 13.11 136.52 13.1 136.54 12.08"/><path class="cls-2" d="M151.11,13.56a5,5,0,0,0,.34-1.9,4.31,4.31,0,0,0-1.14-3.17,4.76,4.76,0,0,0-3.53-1.35l-4.3,0,.05,6.44h2l0-4.82h1.89a3.14,3.14,0,0,1,2.33.84,2.8,2.8,0,0,1,.79,2.06,3,3,0,0,1-.54,1.89Z"/><rect class="cls-2" x="139.87" y="17.29" width="0.91" height="1.98" transform="translate(121.33 158.51) rotate(-89.7)"/><polygon class="cls-2" points="150.45 17.81 150.78 18.72 152.8 18.75 152.46 17.83 150.45 17.81"/></g></g></svg>