<svg xmlns="http://www.w3.org/2000/svg" viewBox="0 0 680 82"><defs><style>.cls-1{isolation:isolate;}.cls-2{opacity:0.2;}.cls-2,.cls-4{mix-blend-mode:screen;}.cls-3{fill:#fff;}.cls-4{opacity:0.45;}.cls-5{fill:red;}.cls-6{opacity:0.85;}.cls-7{fill:none;opacity:0.19;}</style></defs><title>アートボード 352</title><g class="cls-1"><g id="CHARACTER"><g class="cls-2"><path class="cls-3" d="M77.68,57.39H70.75a.9.9,0,0,1-.9-.9V32.64H59a.9.9,0,0,1-.9-.9V29.07a.9.9,0,0,1,.9-.9H90a.9.9,0,0,1,.9.9v2.67a.9.9,0,0,1-.9.9H78.58V56.49A.9.9,0,0,1,77.68,57.39Zm-6-1.8h5.13V31.74a.9.9,0,0,1,.9-.9H89.13V30H59.91v.87H70.75a.9.9,0,0,1,.9.9Z"/><path class="cls-3" d="M131.29,57.39h-7.23a.91.91,0,0,1-.8-.48l-4-7.53H107.14l-4,7.53a.88.88,0,0,1-.79.48H95.15a.89.89,0,0,1-.79-1.33l15.06-27.42a.9.9,0,0,1,.79-.47h6a.9.9,0,0,1,.79.47l15.06,27.42a.89.89,0,0,1,0,.89A.87.87,0,0,1,131.29,57.39Zm-6.69-1.8h5.17L115.7,30h-5L96.67,55.59h5.16l4-7.53a.88.88,0,0,1,.79-.48h13.25a.88.88,0,0,1,.8.48Zm-6.26-8.88H108.1a.89.89,0,0,1-.77-.44.92.92,0,0,1,0-.88l4.82-9.28a.88.88,0,0,1,.8-.48h.6a.89.89,0,0,1,.8.48l4.82,9.28a.91.91,0,0,1-.8,1.32Zm-8.76-1.8h7.28l-3.64-7Z"/><path class="cls-3" d="M169.54,57.39h-7.83a.9.9,0,0,1-.64-.26L147.73,43.72l-3.79,2.44V56.49a.9.9,0,0,1-.9.9h-6.93a.9.9,0,0,1-.9-.9V29.07a.9.9,0,0,1,.9-.9H143a.91.91,0,0,1,.9.9v9.84L159.7,28.33a.9.9,0,0,1,.5-.16h8.13a.91.91,0,0,1,.51,1.65L153.79,40l16.37,15.83a.89.89,0,0,1-.62,1.54Zm-7.46-1.8h5.23l-15.56-15a.91.91,0,0,1-.28-.73.89.89,0,0,1,.4-.66L165.4,30h-4.92L143.54,41.35a.9.9,0,0,1-1.41-.75V30H137V55.59h5.12V45.67a.89.89,0,0,1,.42-.76l4.82-3.09a.89.89,0,0,1,1.12.12Z"/><path class="cls-3" d="M196.94,57.39H183.39a.9.9,0,0,1-.9-.9V53.4a.9.9,0,0,1,.9-.9h2.41V33.07h-2.41a.9.9,0,0,1-.9-.9v-3.1a.9.9,0,0,1,.9-.9h13.55a.9.9,0,0,1,.9.9v3.1a.9.9,0,0,1-.9.9h-2.41V52.5h2.41a.9.9,0,0,1,.9.9v3.09A.9.9,0,0,1,196.94,57.39Zm-12.65-1.8H196V54.3h-2.41a.9.9,0,0,1-.9-.9V32.17a.9.9,0,0,1,.9-.9H196V30H184.29v1.3h2.41a.9.9,0,0,1,.9.9V53.4a.9.9,0,0,1-.9.9h-2.41Z"/><path class="cls-3" d="M244.23,57.39h-5.12a.9.9,0,0,1-.85-.59l-.55-1.53a20.35,20.35,0,0,1-9.44,2.12,21.47,21.47,0,0,1-9.12-1.77c-4.94-2.3-7.44-6.41-7.44-12.2,0-6.17,2.7-10.56,8-13a24.15,24.15,0,0,1,10.32-2.2,22.74,22.74,0,0,1,9.42,1.63c3.74,1.75,5.64,4.39,5.64,7.85a.9.9,0,0,1-.9.9H237.9a.89.89,0,0,1-.89-.83c-.18-2.11-1-3.47-2.5-4.18a10.57,10.57,0,0,0-4.44-.9,8.5,8.5,0,0,0-3.53.62c-4.11,1.92-6.11,5.24-6.11,10.16,0,4.25,1.41,7,4.3,8.32a10.47,10.47,0,0,0,4.44,1,11.83,11.83,0,0,0,5-1,4.9,4.9,0,0,0,3.09-4.81V45.16h-8.43a.9.9,0,0,1-.9-.9V41.59a.9.9,0,0,1,.9-.9h15.36a.9.9,0,0,1,.9.9v14.9A.9.9,0,0,1,244.23,57.39Zm-4.49-1.8h3.59V42.49H229.77v.87h8.43a.9.9,0,0,1,.9.9v2.67A6.65,6.65,0,0,1,235,53.37a13.65,13.65,0,0,1-5.8,1.21,12.23,12.23,0,0,1-5.2-1.21c-3.54-1.65-5.34-5-5.34-9.95,0-5.61,2.41-9.57,7.15-11.79a10.24,10.24,0,0,1,4.29-.79,12.2,12.2,0,0,1,5.2,1.07h0a6,6,0,0,1,3.43,4.84h4.57c-.3-2.29-1.8-4-4.54-5.32A21.05,21.05,0,0,0,230.07,30a22.28,22.28,0,0,0-9.55,2c-4.72,2.2-7,5.94-7,11.42,0,5.1,2.09,8.56,6.4,10.57a19.82,19.82,0,0,0,8.36,1.6,18.11,18.11,0,0,0,9.47-2.4.87.87,0,0,1,.77-.07.9.9,0,0,1,.54.54Z"/><path class="cls-3" d="M267.42,57.39h-.3c-5.21,0-8.88-.53-11.23-1.63-3.34-1.56-5-3.77-5-6.58V29.07a.9.9,0,0,1,.9-.9h6.92a.9.9,0,0,1,.9.9V49.18a2.45,2.45,0,0,0,1.59,2.42,14.84,14.84,0,0,0,5.95.9h.3a13.84,13.84,0,0,0,5.64-.9c1.69-.79,1.89-1.76,1.89-2.42V29.07a.9.9,0,0,1,.9-.9h6.93a.91.91,0,0,1,.9.9V49.18c0,2.81-1.7,5-5,6.58C276.29,56.86,272.62,57.39,267.42,57.39ZM252.66,30V49.18c0,2.08,1.31,3.7,4,5,2.07,1,5.59,1.46,10.46,1.46h.3c4.86,0,8.38-.49,10.46-1.46,2.69-1.25,4-2.87,4-5V30h-5.13V49.18c0,1.23-.51,2.92-2.93,4a15.3,15.3,0,0,1-6.4,1.07h-.3a16.25,16.25,0,0,1-6.71-1.07,4.24,4.24,0,0,1-2.63-4V30Z"/><path class="cls-3" d="M307.17,57.39a24.3,24.3,0,0,1-10.32-2c-5.34-2.49-8.05-6.45-8.05-11.78,0-6.17,2.92-10.65,8.66-13.33a23.35,23.35,0,0,1,10-2.06,22.74,22.74,0,0,1,9.42,1.63c4.56,2.13,6.76,5.12,6.54,8.89a.9.9,0,0,1-.9.84h-6.62a.89.89,0,0,1-.9-.83c-.18-2.67-1.19-4.41-3.1-5.3a10.78,10.78,0,0,0-4.44-.76,10.52,10.52,0,0,0-4.43.9c-3.71,1.73-5.51,4.92-5.51,9.74,0,4.15,1.51,6.88,4.6,8.32a11.83,11.83,0,0,0,5,1,11.12,11.12,0,0,0,4.74-1c1.68-.78,2.62-2.7,2.8-5.71a.9.9,0,0,1,.9-.84h7.22a.89.89,0,0,1,.68.31.88.88,0,0,1,.21.71c-.64,4.52-2.74,7.64-6.23,9.27h0A24.3,24.3,0,0,1,307.17,57.39Zm.3-27.42a21.74,21.74,0,0,0-9.25,1.89c-5.13,2.39-7.61,6.22-7.61,11.7,0,4.63,2.29,7.95,7,10.15a25.22,25.22,0,0,0,19.11,0h0c2.68-1.25,4.34-3.5,5-6.86h-5.33c-.36,3.24-1.62,5.38-3.76,6.38a12.88,12.88,0,0,1-5.5,1.21,13.62,13.62,0,0,1-5.8-1.21c-3.74-1.74-5.64-5.09-5.64-9.95,0-5.52,2.2-9.34,6.54-11.37a12.2,12.2,0,0,1,5.2-1.07,12.54,12.54,0,0,1,5.2.93,7.15,7.15,0,0,1,4.05,6h4.91c-.19-2.59-2-4.66-5.5-6.3A21.05,21.05,0,0,0,307.47,30Z"/><path class="cls-3" d="M359.88,57.39H353a.9.9,0,0,1-.9-.9V43.61H336.68V56.49a.9.9,0,0,1-.9.9h-6.92a.9.9,0,0,1-.9-.9V29.07a.9.9,0,0,1,.9-.9h6.92a.9.9,0,0,1,.9.9V39.14h15.37V29.07a.9.9,0,0,1,.9-.9h6.93a.91.91,0,0,1,.9.9V56.49A.9.9,0,0,1,359.88,57.39Zm-6-1.8H359V30h-5.13V40a.9.9,0,0,1-.9.9H335.78a.9.9,0,0,1-.9-.9V30h-5.12V55.59h5.12V42.71a.91.91,0,0,1,.9-.9H353a.9.9,0,0,1,.9.9Z"/><path class="cls-3" d="M389.69,57.39H376.14a.9.9,0,0,1-.9-.9V53.4a.9.9,0,0,1,.9-.9h2.41V33.07h-2.41a.9.9,0,0,1-.9-.9v-3.1a.9.9,0,0,1,.9-.9h13.55a.9.9,0,0,1,.9.9v3.1a.9.9,0,0,1-.9.9h-2.41V52.5h2.41a.9.9,0,0,1,.9.9v3.09A.9.9,0,0,1,389.69,57.39ZM377,55.59h11.75V54.3h-2.41a.9.9,0,0,1-.9-.9V32.17a.9.9,0,0,1,.9-.9h2.41V30H377v1.3h2.41a.9.9,0,0,1,.9.9V53.4a.9.9,0,0,1-.9.9H377Z"/><path class="cls-3" d="M478.24,57.39H471a.91.91,0,0,1-.8-.48l-4-7.53H454.09l-4,7.53a.88.88,0,0,1-.79.48H442.1a.89.89,0,0,1-.79-1.33l15.06-27.42a.89.89,0,0,1,.79-.47h6a.9.9,0,0,1,.79.47L479,56.06a.91.91,0,0,1,0,.89A.87.87,0,0,1,478.24,57.39Zm-6.69-1.8h5.17L462.65,30h-5L443.62,55.59h5.16l4-7.53a.88.88,0,0,1,.79-.48h13.25a.89.89,0,0,1,.8.48Zm-6.26-8.88H455.05a.91.91,0,0,1-.8-1.32l4.82-9.28a.88.88,0,0,1,.8-.48h.6a.91.91,0,0,1,.8.48l4.82,9.28a.91.91,0,0,1-.8,1.32Zm-8.76-1.8h7.28l-3.64-7Z"/><path class="cls-3" d="M498.42,57.39c-4.94,0-8.82-.64-11.53-1.91-3.54-1.65-5.34-3.72-5.34-6.16v-1.4a.9.9,0,0,1,.9-.9h6.93a.9.9,0,0,1,.9.9v1.26a2.68,2.68,0,0,0,1.89,2.56,13.37,13.37,0,0,0,5.64,1,17.12,17.12,0,0,0,6.85-1c2.19-1,2.19-2.07,2.19-2.42,0-1.25-2.24-2.11-3.57-2.51-5-1.49-9.79-3.11-14.22-4.8-3.55-1.35-5.46-3.26-5.69-5.68s1.45-4.54,5.05-6.11a25.56,25.56,0,0,1,10.3-2c4.53,0,8.1.6,10.62,1.77,3.37,1.58,5,3.86,4.73,6.8a.91.91,0,0,1-.9.83h-6.92a.9.9,0,0,1-.71-.35.92.92,0,0,1-.17-.77c.2-.78.16-1.8-1.91-2.77a12.93,12.93,0,0,0-9.48,0c-1,.47-2.19,1.22-2.19,2.14,0,.37.35,1.37,3.65,2.68A109.8,109.8,0,0,0,508,42.69h0c5,1.33,7.6,3.42,7.6,6.21s-1.7,4.88-5,6.44C507.63,56.7,503.55,57.39,498.42,57.39Zm-15.07-8.57v.5c0,1.68,1.45,3.2,4.3,4.53,2.48,1.16,6.1,1.74,10.77,1.74,4.86,0,8.68-.63,11.36-1.88s4-2.83,4-4.81-2.11-3.38-6.26-4.47h0a111.51,111.51,0,0,1-12.75-4.26c-3.22-1.28-4.78-2.71-4.78-4.35s1.08-2.77,3.23-3.77a14.67,14.67,0,0,1,11,0c2.3,1.08,3,2.48,3,3.72h5c-.18-1.74-1.39-3.12-3.69-4.19S503,30,498.72,30a23.78,23.78,0,0,0-9.58,1.9c-2.8,1.22-4.14,2.67-4,4.29s1.69,3.08,4.54,4.16c4.39,1.68,9.13,3.29,14.09,4.77,1.21.36,4.86,1.45,4.86,4.23,0,1.69-1.08,3-3.23,4a18.36,18.36,0,0,1-7.61,1.21,15.16,15.16,0,0,1-6.4-1.21,4.46,4.46,0,0,1-2.93-4.19v-.36Z"/><path class="cls-3" d="M555.34,57.39h-7.23a.91.91,0,0,1-.8-.48l-4-7.53H531.19l-4,7.53a.88.88,0,0,1-.8.48H519.2a.89.89,0,0,1-.79-1.33l15.06-27.42a.89.89,0,0,1,.78-.47h6a.9.9,0,0,1,.79.47l15.06,27.42a.91.91,0,0,1,0,.89A.87.87,0,0,1,555.34,57.39Zm-6.69-1.8h5.17L539.75,30h-5L520.72,55.59h5.16l4-7.53a.91.91,0,0,1,.8-.48h13.25a.89.89,0,0,1,.8.48Zm-6.26-8.88H532.15a.89.89,0,0,1-.77-.44.87.87,0,0,1,0-.88l4.82-9.28a.88.88,0,0,1,.8-.48h.6a.91.91,0,0,1,.8.48l4.82,9.28a.91.91,0,0,1-.8,1.32Zm-8.76-1.8h7.28l-3.64-7Z"/><path class="cls-3" d="M591.18,57.39h-6.93a.9.9,0,0,1-.9-.9V43.61H568V56.49a.9.9,0,0,1-.9.9h-6.92a.9.9,0,0,1-.9-.9V29.07a.9.9,0,0,1,.9-.9h6.92a.9.9,0,0,1,.9.9V39.14h15.37V29.07a.9.9,0,0,1,.9-.9h6.93a.91.91,0,0,1,.9.9V56.49A.9.9,0,0,1,591.18,57.39Zm-6-1.8h5.13V30h-5.13V40a.9.9,0,0,1-.9.9H567.08a.9.9,0,0,1-.9-.9V30h-5.12V55.59h5.12V42.71a.91.91,0,0,1,.9-.9h17.17a.9.9,0,0,1,.9.9Z"/><path class="cls-3" d="M621,57.39H607.44a.9.9,0,0,1-.9-.9V53.4a.9.9,0,0,1,.9-.9h2.41V33.07h-2.41a.9.9,0,0,1-.9-.9v-3.1a.9.9,0,0,1,.9-.9H621a.9.9,0,0,1,.9.9v3.1a.9.9,0,0,1-.9.9h-2.41V52.5H621a.9.9,0,0,1,.9.9v3.09A.9.9,0,0,1,621,57.39Zm-12.65-1.8h11.75V54.3h-2.41a.9.9,0,0,1-.9-.9V32.17a.9.9,0,0,1,.9-.9h2.41V30H608.34v1.3h2.41a.9.9,0,0,1,.9.9V53.4a.9.9,0,0,1-.9.9h-2.41Z"/></g><g class="cls-4"><path class="cls-5" d="M133.7,68.25V20.81h-4.56V15.69h12v5.12h-4.79V68.25Z"/><path class="cls-5" d="M160.91,68.25h-2.8L164,15.69h2.34l5.83,52.56h-2.8l-1.63-15.37h-5.14ZM165.23,30H165l-1.87,17.79h4Z"/><path class="cls-5" d="M188.94,68.25V15.69h2.69v22.1l6.66-22.1h3.15l-6.19,20.75,6.66,31.81h-3L193.5,41.56l-1.87,5.93V68.25Z"/><path class="cls-5" d="M226.2,62.32h1.29v5.93h-5.26V62.32h1.29V21.62h-1.29V15.69h5.26v5.93H226.2Z"/><path class="cls-5" d="M257.15,22.7c-.54-1.26-1.16-1.89-1.87-1.89s-1.13.45-1.51,1.35q-2.58,5.93-2.57,21,0,13.22,1.87,17.52.93,2.16,1.86,2.16c.78,0,1.48-.72,2.11-2.16q1.4-3.24,1.4-10.78V44.8h-3.62V39.68h5.95V68.25h-2l-.35-4.85q-1.63,4.84-3.86,4.85-2,0-3.38-3.24-2.7-6.2-2.69-21.83,0-16.71,2.92-23.45,1.75-4,3.85-4t3.51,3q2,4.59,2,13.48h-2.45C258.24,27.46,257.85,24.31,257.15,22.7Z"/><path class="cls-5" d="M278.64,15.69h2.69V54.23a16.74,16.74,0,0,0,.82,6.2,2.63,2.63,0,0,0,2.45,1.89h.12c1,0,1.79-.63,2.33-1.89a16,16,0,0,0,.94-6.2V15.69h2.68V54.23q0,7-1.75,11.05a4.35,4.35,0,0,1-4.2,3h-.12a4.34,4.34,0,0,1-4.2-3q-1.75-4-1.76-11.05Z"/><path class="cls-5" d="M318.94,64.47c-1.09,2.52-2.38,3.78-3.85,3.78s-2.77-1.26-3.86-3.78q-2.93-6.72-2.92-21,0-16.71,3.15-24,1.64-3.77,3.74-3.77t3.51,3Q321.15,24.32,321,34h-2.57q-.12-8.63-1.4-11.59c-.47-1.08-1.09-1.62-1.87-1.62s-1.32.63-1.87,1.89Q311,28.09,311,42.91q0,12.95,2,17.52c.62,1.44,1.33,2.16,2.11,2.16s1.36-.72,2-2.16q1.17-2.68,1.29-12.4h2.8Q320.82,60.16,318.94,64.47Z"/><path class="cls-5" d="M338.44,68.25V15.69h2.69v21h6.66v-21h2.68V68.25h-2.68V41.83h-6.66V68.25Z"/><path class="cls-5" d="M375.7,62.32H377v5.93h-5.26V62.32H373V21.62h-1.29V15.69H377v5.93H375.7Z"/><path class="cls-5" d="M430,68.25h-2.8l5.84-52.56h2.34l5.84,52.56h-2.81l-1.63-15.37h-5.14ZM434.34,30h-.24l-1.87,17.79h4Z"/><path class="cls-5" d="M467.62,43.45q2.69,3.51,2.69,10.24a27.46,27.46,0,0,1-1.75,10.78q-1.63,3.78-4.56,3.78t-4.32-3.51a25.51,25.51,0,0,1-1.87-10.24V51.81h2.69v2.42a17.11,17.11,0,0,0,.93,6.47c.63,1.44,1.4,2.16,2.34,2.16a3,3,0,0,0,2.8-2.16,15.71,15.71,0,0,0,1.05-6.2A11.42,11.42,0,0,0,466,48a97.3,97.3,0,0,1-5.49-9.16,21,21,0,0,1-2-9.43,22.59,22.59,0,0,1,1.76-10c1.16-2.51,2.45-3.77,3.85-3.77,1.71,0,3,1.08,4,3.23q1.76,4,1.64,11.32H467A16.54,16.54,0,0,0,466.1,23q-.81-1.89-2-1.89c-.78,0-1.44.63-2,1.89a14.12,14.12,0,0,0-1.05,5.66,14.8,14.8,0,0,0,1.64,6.74A53.47,53.47,0,0,0,467.62,43.45Z"/><path class="cls-5" d="M489.81,68.25H487l5.84-52.56h2.34L501,68.25h-2.81l-1.63-15.37h-5.14ZM494.14,30h-.24L492,47.76h4Z"/><path class="cls-5" d="M517.85,68.25V15.69h2.68v21h6.66v-21h2.69V68.25h-2.69V41.83h-6.66V68.25Z"/><path class="cls-5" d="M555.1,62.32h1.29v5.93h-5.26V62.32h1.29V21.62h-1.29V15.69h5.26v5.93H555.1Z"/></g><path class="cls-3" d="M146.65,48.56l6,4a174.21,174.21,0,0,1-11.09,24.19c.45,1.56.11,2.12-1,1.68l-6.38-6A90.3,90.3,0,0,0,146.65,48.56Zm-7.39-21.84a99,99,0,0,1,12.09,7.73l-4.7,7a103.45,103.45,0,0,0-11.76-8.39Zm4-20.83a77.55,77.55,0,0,1,11.42,8.74L150,21.35a81.47,81.47,0,0,0-11.42-9.07Zm61.48,5.72V17h-9.41l-4.7,10.75h19.48v5.38H152.7V27.73h17.47L165.46,17h-7.72V11.61h19.14V2.2h6.39c1.79.22,1.9.9.33,2v7.4ZM204.1,66l6.38,1.68q-1,10.41-8.4,10.41H183.27q-6,0-6.05-5.71V66H164.79v3.36h-5.71V37.81h43.34V66H183.94v3c0,1.8.78,2.69,2.35,2.69h13.44c2.23,0,3.47-.78,3.69-2.35ZM164.79,49.57h12.43V43.18H164.79Zm0,11.08h12.43V54.94H164.79ZM172.52,17l4,10.75h7.72L188.64,17Zm11.42,32.59H196.7V43.18H183.94Zm0,11.08H196.7V54.94H183.94Z"/><path class="cls-3" d="M279,65.69H237v6.38h-7.73V12.28h57.45V70.73H279Zm-42-46V58.3h42V19.67Z"/><path class="cls-3" d="M369.38,66.36q3.69-3.69,3.69-10.41,0-7.38-3.69-11.09-4.38-4.35-12.1-5-5.37,17.48-12.09,24.53l2,4.36-6.38,4.71-1.68-3.7q-8.73,7.4-14.78,7.39A10.27,10.27,0,0,1,317,73.75q-3.71-3.69-3.7-10.07A26,26,0,0,1,321,44.53a41.4,41.4,0,0,1,9.74-7.39l.68-12.77L317.31,25,316,17.65l15.79-.33q.33-7.73,1-14.78h6.38q3.36.68.67,2.68-.68,6-1,11.76a252.22,252.22,0,0,0,27.54-3l1.35,7.39Q353.59,23,338.47,23.7l-.67,10.75q4.69-1.68,13.1-2l1-5.37,6.38,1q3,.67.67,2.68l-.33,2.36q10.41,1,16.12,6.71,6.38,6.39,6.38,16.47,0,9.41-5.71,15.11-6,6-20.15,8.4l-4.37-7.39Q364.67,71.07,369.38,66.36ZM325.7,48.89q-6,6.06-6,15.79a6.47,6.47,0,0,0,2,4.71,3.9,3.9,0,0,0,2.69.67q5,0,11.42-6.38a79.69,79.69,0,0,1-4-19.49A25.09,25.09,0,0,0,325.7,48.89Zm16.13,8.74a48,48,0,0,0,7.73-18.48,34.87,34.87,0,0,0-11.09,1.68A53.14,53.14,0,0,0,341.83,57.63Z"/><path class="cls-3" d="M404.31,28.4l-2-6.72q16.45,0,26.54-.67a102.69,102.69,0,0,1-4.71-17.47h7.39c2,.45,2.24,1.35.68,2.69a113.58,113.58,0,0,0,4,14.11,138.69,138.69,0,0,0,20.15-3l1.68,7.39q-9.74,1.34-19.14,2,6.7,12.78,20.49,22.17l-5,6a58.53,58.53,0,0,0-24.52-5.71q-11.1,0-15.46,4.37a7.73,7.73,0,0,0-2,5.71,9,9,0,0,0,3,6.38q4.69,4.71,22.17,4.7h11.76l-1.68,7.4H434.88q-17.46,0-24.52-7.06a15.74,15.74,0,0,1-5-11.42q0-6.37,3.7-10.08,6-6,18.81-6t14.78,1.35q-8.06-10.08-11.09-17.14Q417.75,28.41,404.31,28.4Z"/><path class="cls-3" d="M507.45,19.67Q495,38.15,495,51.58q0,9.08,5,14.11,3.69,3.7,11.75,3.7,7.4,0,11.43-4,6.38-6.39,6.38-25.2,0-16.12-2.35-26.2l8.4-1A55.34,55.34,0,0,0,539,29.41q4,10.76,15.46,23.52l-6.05,6q-5.71-7-12.43-20.49a59,59,0,0,1,.34,6.38q0,18.48-7.39,25.87-6.39,6.38-17.81,6.38-10.75,0-16.79-6-6.74-6.72-6.72-17.47,0-15.12,11.42-33.26-7.74,2-15.12,3.7L482.25,16q15.79-1.34,24.86-5.71L511.48,17A6.47,6.47,0,0,0,507.45,19.67Z"/><g class="cls-6"><path class="cls-5" d="M163.3,43.7V36.28h-3.66v-.8h9.66v.8h-3.85V43.7Z"/><path class="cls-5" d="M185.14,43.7h-2.25l4.69-8.22h1.87l4.69,8.22h-2.25l-1.31-2.4h-4.13Zm3.47-6h-.19l-1.5,2.79h3.19Z"/><path class="cls-5" d="M207.64,43.7V35.48h2.16v3.46l5.34-3.46h2.53l-5,3.24,5.35,5h-2.44l-4.31-4.17-1.5.92V43.7Z"/><path class="cls-5" d="M237.55,42.77h1v.93h-4.22v-.93h1V36.4h-1v-.92h4.22v.92h-1Z"/><path class="cls-5" d="M262.39,36.57a3.75,3.75,0,0,0-1.5-.29,3,3,0,0,0-1.22.21,3.33,3.33,0,0,0-2.06,3.29,2.69,2.69,0,0,0,1.5,2.74,3.56,3.56,0,0,0,1.5.34,4,4,0,0,0,1.69-.34,1.73,1.73,0,0,0,1.12-1.69V40h-2.9v-.8h4.78V43.7h-1.6l-.28-.76a6,6,0,0,1-3.09.76,6.74,6.74,0,0,1-2.72-.5,3.46,3.46,0,0,1-2.16-3.42,3.71,3.71,0,0,1,2.35-3.67,7.49,7.49,0,0,1,3.09-.63,6.94,6.94,0,0,1,2.81.46,2.28,2.28,0,0,1,1.6,2.11h-2A1.64,1.64,0,0,0,262.39,36.57Z"/><path class="cls-5" d="M279.64,35.48h2.16v6a1,1,0,0,0,.65,1,5,5,0,0,0,2,.29h.1a4.66,4.66,0,0,0,1.87-.29,1.07,1.07,0,0,0,.75-1v-6h2.16v6c0,.73-.47,1.31-1.41,1.73a8.87,8.87,0,0,1-3.37.46h-.1a8.83,8.83,0,0,1-3.37-.46c-.94-.42-1.41-1-1.41-1.73Z"/><path class="cls-5" d="M312,43.11a7.42,7.42,0,0,1-3.1.59,7.35,7.35,0,0,1-3.09-.59,3.46,3.46,0,0,1-2.35-3.29A3.87,3.87,0,0,1,306,36.07a7.11,7.11,0,0,1,3-.59,7,7,0,0,1,2.81.46c1.31.59,1.93,1.39,1.87,2.4h-2.06a2,2,0,0,0-1.12-1.81,3.72,3.72,0,0,0-1.5-.25,3.68,3.68,0,0,0-1.5.29,3.15,3.15,0,0,0-1.88,3.17,2.72,2.72,0,0,0,1.59,2.74,4,4,0,0,0,1.69.34,3.83,3.83,0,0,0,1.6-.34,2.07,2.07,0,0,0,1-1.94h2.25A3.12,3.12,0,0,1,312,43.11Z"/><path class="cls-5" d="M327.64,43.7V35.48h2.16v3.29h5.34V35.48h2.16V43.7h-2.16V39.57H329.8V43.7Z"/><path class="cls-5" d="M357.55,42.77h1v.93h-4.22v-.93h1V36.4h-1v-.92h4.22v.92h-1Z"/><path class="cls-5" d="M425.14,43.7h-2.25l4.69-8.22h1.87l4.69,8.22h-2.25l-1.31-2.4h-4.13Zm3.47-6h-.19l-1.5,2.79h3.19Z"/><path class="cls-5" d="M455.33,39.82c1.44.37,2.16.9,2.16,1.6s-.47,1.27-1.41,1.69a9.07,9.07,0,0,1-3.66.59,8.66,8.66,0,0,1-3.47-.55c-1-.44-1.5-1-1.5-1.6v-.42h2.16v.38a1.08,1.08,0,0,0,.75,1,4.47,4.47,0,0,0,1.87.34,5.73,5.73,0,0,0,2.26-.34c.56-.25.84-.57.84-1s-.44-.76-1.31-1q-2.36-.67-4.41-1.44-1.5-.54-1.59-1.47c-.07-.62.4-1.14,1.4-1.56a7.82,7.82,0,0,1,3.1-.59,7.94,7.94,0,0,1,3.18.5c.94.42,1.38,1,1.32,1.77h-2.16c.13-.47-.13-.85-.75-1.13a4.39,4.39,0,0,0-3.19,0c-.56.25-.84.54-.84.88s.44.72,1.31,1.06A37.45,37.45,0,0,0,455.33,39.82Z"/><path class="cls-5" d="M473.14,43.7h-2.25l4.69-8.22h1.87l4.69,8.22h-2.25l-1.31-2.4h-4.13Zm3.47-6h-.19l-1.5,2.79h3.19Z"/><path class="cls-5" d="M495.64,43.7V35.48h2.16v3.29h5.34V35.48h2.16V43.7h-2.16V39.57H497.8V43.7Z"/><path class="cls-5" d="M525.55,42.77h1v.93h-4.22v-.93h1V36.4h-1v-.92h4.22v.92h-1Z"/></g><rect class="cls-7" width="680" height="82"/></g></g></svg>