<svg xmlns="http://www.w3.org/2000/svg" viewBox="0 0 99 13"><defs><style>.cls-1{fill:none;opacity:0.12;}.cls-2{fill-rule:evenodd;}</style></defs><title>アートボード 51</title><g id="comon"><g id="見出し"><rect class="cls-1" width="99" height="13"/><path class="cls-2" d="M24,3.33c0-.34,0-.68,0-1H20.94v.48l1.54.05v.5Z"/><path class="cls-2" d="M7.66,1.33,6.08,1.27V.51L3.8.48v.75l-1.63,0V2l5.5.09Z"/><path class="cls-2" d="M5.31,2.32l-2.38,0v.57H2.17v.46l2.33,0,0-.49H5.3Z"/><path class="cls-2" d="M12.09,9.16H11.6V10l-1.54,0v.75H9.19V10L7.64,10l0-.79H5.29v.76h.76v.84h.83v.76l2.38,0v.76H10v-.75l2.38,0a2.53,2.53,0,0,1,0-.79h.76l0-1.31H12.09Z"/><rect x="0.71" y="5.42" width="1.72" height="2.34" transform="translate(-5.05 8.08) rotate(-89.28)"/><rect x="26.75" y="9.75" width="0.27" height="1.58" transform="translate(16.29 37.41) rotate(-89.89)"/><path class="cls-2" d="M29.48.5,28,.48a4.4,4.4,0,0,1-.05.76l0,2.3,1.59,0,0-2.3A3.68,3.68,0,0,1,29.48.5Z"/><path class="cls-2" d="M16.4,5.41V5.19l-2.76,0v-.8H12.05l0,4.74h1.08V9.4h.5V6.79h2.75Z"/><rect x="23.31" y="10.18" width="0.81" height="1.58" transform="translate(12.44 34.55) rotate(-89.29)"/><polygon class="cls-2" points="19.6 4.51 19.61 5.21 18.61 5.21 18.61 5.43 21.19 5.42 21.19 4.51 19.6 4.51"/><polygon class="cls-2" points="26.41 9.66 26.42 5.43 23.84 5.42 23.84 6.79 24.83 6.79 24.83 9.66 26.41 9.66"/><path class="cls-2" d="M44,9.69l-2.32,0v.24l.75,0v.82h.44v.81h1.87v-.72H44Z"/><path class="cls-2" d="M41.61,9.69l-2.31,0-.06,1.87,1.58,0,0-1.62h.75Z"/><path class="cls-2" d="M32.36,5.38h1.55c0-.27,0-.54,0-.81H32.37C32.37,4.84,32.36,5.11,32.36,5.38Z"/><path class="cls-2" d="M34.35,4.58c0,.27,0,.54,0,.81l1.55,0c0-.27,0-.54,0-.81Z"/><path class="cls-2" d="M40.74,2.88H40V1.25h-.84V.5H37.66v.75h0v0h-.75c0,.79,0,1.58,0,2.37h1.54V3.58h.83v.08h1.55Z"/><path class="cls-2" d="M55.24,11.55h.66l-.66,0Z"/><path class="cls-2" d="M56.82,10.75v0h0Z"/><path class="cls-2" d="M52.22,2.06l1.66,0v.75l1.55,0v1l2.34,0V3.6H57L57,2h-.79l0-.79-2.41,0V.49L49.9.56a4,4,0,0,1,0,.71H50L50,3.65h.75v.28l.71,0V2.83h.75Z"/><path class="cls-2" d="M46.08,5.54H39.85V9h1.58V6.79h2.38c0,.52,0,1,0,1.54h.75c0,.23,0,.46,0,.68h1.57c0-.46,0-.93,0-1.39h-.75V6.75h.75a2.86,2.86,0,0,1,0-.79h.75V5.78h-.86Z"/><path class="cls-2" d="M42.46,10.73H41.32v.81l1.58,0h-.47Z"/><path class="cls-2" d="M49.87,1.31v0a2.31,2.31,0,0,1-.71,0V.56l-1.51,0v.67l0,0h-.75c0,.79,0,1.59,0,2.38H46.1l0,1.86H47v.25h.69V3.59h.83v.79h.75l0,1.39,1.36,0V5.57h.2c0-.55,0-1.1,0-1.65h-.87Z"/><path class="cls-2" d="M56.07,10.74v-.07H53v.08h.83v.75l1.46,0v-.78Z"/><path class="cls-2" d="M57,10.75h-.13v0h.75v.71l-1.68,0h.25v.75h.71v-.76l2.38,0v-.75h.83v-.07H57Z"/><rect x="73.03" y="-0.64" width="0.02" height="2.3" transform="translate(71.75 73.53) rotate(-89.38)"/><path class="cls-2" d="M76.59,2.08h-.8V1.28l-1.31,0v.1l-4.23,0V2h-.79v.83H68.7a4.4,4.4,0,0,1,0,.76v1l1.58,0V4.35H71l0-1.54,1.55,0V2l1.62,0v.79H75L75,4.4l1.54,0a3.62,3.62,0,0,1,.75,0V3.71h-.75Z"/><path class="cls-2" d="M50.63,5.74v.64h1.58V5.57H50.82v.17Z"/><rect x="71.97" y="3.8" width="1.72" height="1.58" transform="translate(67.3 77.36) rotate(-89.26)"/><path class="cls-2" d="M71.88,1.23V.51l-5.27,0,0,.83,3.67,0v-.1Z"/><path class="cls-2" d="M74.49,1.26a2.85,2.85,0,0,1,0-.73h-.27v.73Z"/><rect x="70.47" y="8.06" width="3.38" height="1.58" transform="translate(62.71 80.95) rotate(-89.53)"/><rect x="73.8" y="10.68" width="0.14" height="1.58" transform="translate(62.16 85.31) rotate(-89.82)"/><path class="cls-2" d="M85.78,5.18l-3.16,0V4.52l-2.34,0v.91l5.57,0V5.19Z"/><path class="cls-2" d="M97.82,10.77v-.18l-7,0v.8l7.84.05v-.59A2.86,2.86,0,0,1,97.82,10.77Z"/><polygon class="cls-2" points="85.85 5.46 84.82 5.48 84.89 9.71 87.23 9.67 87.21 8.77 85.87 8.78 85.85 5.46"/><path class="cls-2" d="M92.16,7.61h-.75V6.74h.76a2.53,2.53,0,0,1,0-.79h.75l0-1.23H91.39V5.2l-4,.06V4.74H85.85v.44a3.81,3.81,0,0,0,.69,0v.17h-.69v.06l5.23-.08,0,1.32a3.45,3.45,0,0,0-.75,0l-3.17,0,0,2h.24v-2h2.38c0,.51,0,1,.05,1.54h.75v.42h1.56Z"/><path class="cls-2" d="M92.5,9.2V9l-1.57,0c0,.34,0,.68,0,1l1.63,0V9.2Z"/><path class="cls-2" d="M94.18,10.05V9H92.6V9.2h.65l0,.84h.9Z"/><path class="cls-2" d="M83.41,3.07,85,3V2.82h.75V2.06l1.66,0,0,.75L89,2.8V3l1.59,0,0-1h-.79V1.21l-2.42,0V.49L83.41.55a3,3,0,0,1,0,.75Z"/></g></g></svg>