<svg xmlns="http://www.w3.org/2000/svg" viewBox="0 0 99 13"><defs><style>.cls-1{fill:none;opacity:0.12;}.cls-2{fill-rule:evenodd;}</style></defs><title>アートボード 49</title><g id="comon"><g id="見出し"><rect class="cls-1" width="99" height="13"/><path class="cls-2" d="M14.65,4.4l0-2.34a2.86,2.86,0,0,1-.79,0V1.27l-1.58,0V.48H9.94v.75H8.32V2h-.8v.83H6.77c0,.8,0,1.59,0,2.38H6v2.3h.75c0,.79,0,1.58,0,2.37h.75v.83h.84v.76l2.37,0v.75h.71v-.75l2.38,0a2.92,2.92,0,0,1,0-.8h.75l0-2.33H13.07V9.94l-1.55,0v.75h-.87V10l-1.54,0c0-.51,0-1,0-1.54H8.32v-4h.75c0-.52,0-1,0-1.55H9.9V2h1.62v.75l1.55,0V4.4Z"/><path class="cls-2" d="M24.91.48H23.4a3,3,0,0,1,0,.75v4H18.61v-4a3.54,3.54,0,0,1,0-.75h-1.5a3.54,3.54,0,0,1,0,.75v10.3h1.58V6.77h4.75v4.76H25V1.23A3.54,3.54,0,0,1,24.91.48Z"/><path class="cls-2" d="M35.24,10.77l0-2.37h-.75c0-.79,0-1.59,0-2.38h-.75l0-3.17h-.75V1.23H32V.48H30.53v.75h0v0h-.75c0,.79,0,1.58,0,2.38H29l0,2.37h-.75c0,1.06,0,2.11,0,3.17h-.76c0,.78,0,1.56,0,2.34h1.59V9.9h.75c0-.51,0-1,0-1.54h3.17c0,.51,0,1,0,1.54h.75v1.63l2.34,0v-.72Zm-4.79-4c0-.81,0-1.63,0-2.45h.75V3.57h.84c0,1.08,0,2.16,0,3.24Z"/><path class="cls-2" d="M44.71,5.94c0-.53,0-1.05,0-1.58h.75V3.65h-.75V2H44V1.23H41.54V.48H37.66a3.54,3.54,0,0,1,0,.75v10.3H39.2V6.77h2.38c0,.52,0,1,0,1.55h.75l0,2.37h.75v.84l2.34,0v-.72h-.75c0-.52,0-1,0-1.58H44c0-.53,0-1.06,0-1.58h-.76V6.73h.76a2.52,2.52,0,0,1,0-.79Zm-1.55-.75-4,0V2.77H40V2h1.66v.75l1.54,0Z"/><path class="cls-2" d="M55,10.77c0-.79,0-1.58,0-2.37h-.75c0-.79,0-1.59,0-2.38h-.75c0-.79,0-1.58,0-2.37h-.75c0-.8,0-1.59,0-2.38a2.84,2.84,0,0,1-.79,0V.48H50.33v.75s0,0,0,0h-.75c0,.79,0,1.58,0,2.38h-.75c0,.79,0,1.58,0,2.37H48c0,.79,0,1.59,0,2.38h-.76c0,1,0,2.08,0,3.13h1.59V9.9h.75c0-.51,0-1,0-1.54h3.17c0,.51,0,1,0,1.54h.75v1.63l2.34,0v-.72Zm-4.79-4c0-1.08,0-2.16,0-3.24h.83v.79h.76c0,.82,0,1.64,0,2.45Z"/><path class="cls-2" d="M64.55,2h-.79V1.23H62.13V.48H59.84v.75H58.21V2h-.79v.83h-.75a3.64,3.64,0,0,1,0,.76V9.15a3.54,3.54,0,0,1,0,.75h.75v.83h.83v.76l2.38,0v.75h.71v-.75l2.38,0v-.76h.83V9.9h.75V8.4l-1.54,0a3.64,3.64,0,0,1-.76,0l0,1.54-1.54,0v.75h-.87V10L59,9.94c0-.51,0-1,0-1.54h-.75v-4H59c0-.52,0-1,0-1.55l1.55,0V2h1.62v.79H63l0,1.55,1.55,0a3.5,3.5,0,0,1,.75,0V3.65h-.75Z"/><path class="cls-2" d="M74,.48H66.17c0,.51,0,1,0,1.54a3.58,3.58,0,0,1,0,.75H69.3v8.76h1.58V2.77H74l0-1.54A3.54,3.54,0,0,1,74,.48Z"/><path class="cls-2" d="M82.72,1.23V.48H76.47v.75s0,0,0,0h-.75V11.49a3,3,0,0,1,.75,0h6.33v0h.76v-.72a2.57,2.57,0,0,1-.8,0V10H78V6.77h3.17a3.54,3.54,0,0,1,.75,0V5.23a3.54,3.54,0,0,1-.75,0H78V2.77h4.71a2.86,2.86,0,0,1,0-.79h.76V1.27A2.92,2.92,0,0,1,82.72,1.23Z"/><path class="cls-2" d="M92.23,5.94c0-.53,0-1.05,0-1.58H93V3.65h-.75V2h-.79V1.23H89.06V.48H85.18a3.54,3.54,0,0,1,0,.75v10.3h1.58V6.77H89.1c0,.52,0,1,0,1.55h.75c0,.79,0,1.58,0,2.37h.75v.84l2.34,0v-.72h-.75c0-.52,0-1,0-1.58h-.75c0-.53,0-1.06,0-1.58h-.76V6.73h.76a2.52,2.52,0,0,1,0-.79Zm-1.55-.75-4,0V2.77h.76V2h1.66v.75l1.54,0Z"/></g></g></svg>