<svg xmlns="http://www.w3.org/2000/svg" viewBox="0 0 214 31"><defs><style>.cls-1{fill:none;opacity:0.15;}.cls-2{fill:red;}</style></defs><title>アートボード 166</title><g id="comon"><g id="見出し"><rect class="cls-1" width="214" height="31"/><path class="cls-2" d="M59.42,11.81a12.12,12.12,0,0,0-.36,2.12h0A12.12,12.12,0,0,1,59.42,11.81Z"/><path class="cls-2" d="M57,14.9l0-.32h0C57.05,14.68,57,14.78,57,14.9Z"/><path class="cls-2" d="M57.1,14.05v0h0Z"/><path class="cls-2" d="M58,10.23a10.55,10.55,0,0,0-.42,1.08A10.55,10.55,0,0,1,58,10.23Z"/><path class="cls-2" d="M58,10.23a.59.59,0,0,0,0-.08h0Z"/><path class="cls-2" d="M62.07,8.75h0V8.52h2.94a4.38,4.38,0,0,0-.41-.45,3.49,3.49,0,0,0-2.58-1,3.79,3.79,0,0,0-2.75,1.2,6.55,6.55,0,0,0-1.24,1.83h2a3.77,3.77,0,0,1,.61-.79A1.9,1.9,0,0,1,62.07,8.75Z"/><path class="cls-2" d="M65.88,20h.22a17,17,0,0,0,.36-2.56h-.58Z"/><path class="cls-2" d="M63.45,21.39l-.36.3H65.5l.07-.13H63.24Z"/><path class="cls-2" d="M60.9,21.74a1.44,1.44,0,0,1-.25-.18H58.3a.57.57,0,0,0,.08.13H60.8Z"/><path class="cls-2" d="M58.37,21.69l.05.07a.25.25,0,0,1,0-.07Z"/><path class="cls-2" d="M65.57,21.56v0Z"/><path class="cls-2" d="M58.29,21.56h0a6.83,6.83,0,0,1-.55-1.08A6.05,6.05,0,0,0,58.29,21.56Z"/><path class="cls-2" d="M66,10.29s0,0,0,.06h0A.64.64,0,0,1,66,10.29Z"/><polygon class="cls-2" points="66.36 12.48 66.36 12.47 66.36 12.48 66.36 12.48"/><rect class="cls-2" x="68.61" y="7.12" width="1.98" height="1.4"/><rect class="cls-2" x="68.61" y="12.48" width="1.98" height="1.12"/><rect class="cls-2" x="75.49" y="13.44" width="1.98" height="0.16"/><polygon class="cls-2" points="75.49 21.69 75.77 21.69 75.77 23.14 77.47 23.14 77.47 19.98 75.49 19.98 75.49 21.69"/><rect class="cls-2" x="68.61" y="19.99" width="1.98" height="1.71"/><polygon class="cls-2" points="87.48 13.6 86.67 10.43 86.18 8.52 83.75 8.52 83.25 10.43 82.44 13.6 84.41 13.6 83.5 17.35 84.68 12.48 84.45 13.44 82.48 13.44 82.73 12.48 84.68 12.48 84.88 11.68 85.05 11.68 85.25 12.48 87.2 12.48 87.44 13.44 85.48 13.44 85.25 12.48 86.42 17.35 85.52 13.6 87.48 13.6"/><polygon class="cls-2" points="89.12 19.98 87.1 19.98 86.85 18.98 88.06 23.88 90.12 23.88 88.71 18.39 89.12 19.98"/><polygon class="cls-2" points="80.81 19.98 81.22 18.39 79.81 23.88 81.87 23.88 83.07 18.98 82.83 19.98 80.81 19.98"/><path class="cls-2" d="M100.6,9.87a3.64,3.64,0,0,0-.73-1.22h0A3.54,3.54,0,0,1,100.6,9.87Z"/><path class="cls-2" d="M99.05,7.92a4.94,4.94,0,0,0-2.82-.8h-4.3v1.4h2.42v-.6Z"/><rect class="cls-2" x="91.93" y="19.99" width="1.98" height="3.89"/><rect class="cls-2" x="91.93" y="13.44" width="1.98" height="0.16"/><path class="cls-2" d="M100.56,13.44a4.83,4.83,0,0,0,.25-1h-2a2.38,2.38,0,0,1-.61,1.26,1.7,1.7,0,0,0,.23-.3Z"/><path class="cls-2" d="M100.35,13.9l.12-.26h0Z"/><polygon class="cls-2" points="97.77 19.98 99.24 23.88 101.3 23.88 99.79 19.98 97.77 19.98"/><polygon class="cls-2" points="107.42 7.12 107.12 8.3 107.22 7.92 108.93 7.92 108.93 7.12 107.42 7.12"/><polygon class="cls-2" points="109.42 8.2 109.42 8.2 109.53 8.65 109.42 8.2"/><polygon class="cls-2" points="111.87 17.77 107.37 17.77 107.37 17.35 106.82 17.35 108.2 11.68 107.37 15.11 107.37 14.87 105.44 14.87 105.8 13.44 107.37 13.44 107.37 10.75 109.42 10.75 109.42 9.79 108.93 9.79 108.93 8.65 107.03 8.65 103.13 23.88 104.77 23.88 104.77 21.24 105.84 21.24 106.39 18.98 110.17 18.98 110.73 21.24 112.76 21.24 110.67 13.09 111.87 17.77"/><path class="cls-2" d="M115.79,10c0-.07.07-.15.11-.22h0C115.85,9.86,115.83,9.94,115.79,10Z"/><path class="cls-2" d="M117.43,10.75a5.54,5.54,0,0,1,.39-.73,5.54,5.54,0,0,0-.39.73Z"/><path class="cls-2" d="M118,9.79a.86.86,0,0,0-.1.16,3.48,3.48,0,0,1,.47-.59,4,4,0,0,0-.37.43Z"/><path class="cls-2" d="M115.46,10.75a.88.88,0,0,0,0,.15.88.88,0,0,0,0-.15Z"/><polygon class="cls-2" points="115.4 10.91 115.41 10.9 115.41 10.9 115.4 10.91"/><path class="cls-2" d="M115.51,10.63s0,.08-.05.12h0S115.49,10.66,115.51,10.63Z"/><path class="cls-2" d="M115.12,11.8l0-.09h0Z"/><path class="cls-2" d="M123.46,9.79h0l.09.22C123.5,9.94,123.49,9.86,123.46,9.79Z"/><path class="cls-2" d="M121.83,10.75h2c0-.16-.11-.3-.16-.45h-1.94A3,3,0,0,1,121.83,10.75Z"/><path class="cls-2" d="M122,11.75c0,.37.08.77.09,1.21C122.11,12.52,122.07,12.12,122,11.75Z"/><path class="cls-2" d="M121.21,21.24h2.14a12.19,12.19,0,0,0,.71-3.47h-2A6.63,6.63,0,0,1,121.21,21.24Z"/><path class="cls-2" d="M124.07,17.77l0-.34c0,.12,0,.22,0,.34Z"/><path class="cls-2" d="M123.36,21.24h0A4.64,4.64,0,0,1,123,22,4.66,4.66,0,0,0,123.36,21.24Z"/><path class="cls-2" d="M116.2,22a7.66,7.66,0,0,1-.45-.74h0C115.88,21.5,116,21.74,116.2,22Z"/><path class="cls-2" d="M116.72,17.77h-2a9.57,9.57,0,0,0,1,3.47H118A6.36,6.36,0,0,1,116.72,17.77Z"/><rect class="cls-2" x="129.17" y="10.3" width="1.98" height="0.45"/><polygon class="cls-2" points="129.17 16.32 129.17 17.62 131.14 17.62 131.14 14.87 129.17 14.87 129.17 16.32"/><rect class="cls-2" x="129.17" y="12.02" width="1.98" height="2.42"/><rect class="cls-2" x="132.34" y="8.59" width="2.32" height="0.17"/><rect class="cls-2" x="129.17" y="17.77" width="1.98" height="3.47"/><polygon class="cls-2" points="139.05 15.8 144.7 15.8 144.7 14.17 139.05 14.17 139.05 12.02 137.07 12.02 137.07 17.62 139.05 17.62 139.05 15.8"/><rect class="cls-2" x="137.07" y="17.77" width="1.98" height="1.17"/><rect class="cls-2" x="137.07" y="20.61" width="1.98" height="0.47"/><polygon class="cls-2" points="137.07 23.88 137.38 23.88 137.38 23.42 141.6 23.42 141.6 23.35 137.07 23.35 137.07 23.88"/><rect class="cls-2" x="141.6" y="22.25" width="4.24" height="1.1"/><rect class="cls-2" x="137.07" y="7.12" width="6.35" height="1.32"/><rect class="cls-2" x="137.07" y="9.87" width="1.98" height="0.88"/><rect class="cls-2" x="147.81" y="18.33" width="1.98" height="2.66"/><path class="cls-2" d="M154,9.61a2.58,2.58,0,0,0-.6-.44h0A2.58,2.58,0,0,1,154,9.61Z"/><path class="cls-2" d="M153.4,14.24h0a2.56,2.56,0,0,0,.35-.22Z"/><polygon class="cls-2" points="155.03 18.33 153.02 18.33 155.12 23.88 153.68 20.07 155.71 20.07 156.06 20.99 154.09 15.89 155.03 18.33"/><polygon class="cls-2" points="147.81 16.21 149.79 16.21 149.79 16.14 149.97 16.14 149.97 14.78 147.81 14.78 147.81 16.21"/><rect class="cls-2" x="147.81" y="23.4" width="1.98" height="0.44"/><path class="cls-2" d="M62.12,8.76a2.17,2.17,0,0,1,.74.13A2.17,2.17,0,0,0,62.12,8.76Z"/><path class="cls-2" d="M121.83,10.75a8,8,0,0,1,.2,1A8,8,0,0,0,121.83,10.75Z"/><path class="cls-2" d="M117.09,11.72a7.31,7.31,0,0,1,.34-1,7.16,7.16,0,0,0-.34,1Z"/><path class="cls-2" d="M59,15.8c0-.67,0-1.29.08-1.87h-2c0-.41.09-.81.16-1.18-.07.37-.11.78-.16,1.18h0a.38.38,0,0,0,0,.1s0,0,0-.07,0,0,0,.07c0,.18,0,.36,0,.55C57,15,57,15.48,57,16c0,.32,0,.62,0,.92h2C59,16.54,59,16.18,59,15.8Z"/><path class="cls-2" d="M60.09,10.15a6.32,6.32,0,0,0-.67,1.66,6.68,6.68,0,0,1,.68-1.66Z"/><path class="cls-2" d="M66.3,11.6c0,.13,0,.27,0,.4s0,.31,0,.47A6.15,6.15,0,0,0,66.3,11.6Z"/><path class="cls-2" d="M66.37,13c0-.16,0-.32,0-.48h0C66.35,12.65,66.37,12.8,66.37,13Z"/><path class="cls-2" d="M64,10.15a8,8,0,0,1,.5,2.81h1.4v-.48h.47l0-.48a5.25,5.25,0,0,0,0-.57A7.38,7.38,0,0,0,66,10.35c0-.07,0-.14-.06-.2Z"/><path class="cls-2" d="M66.26,11.34a.28.28,0,0,1,0,.09l0,.11C66.29,11.47,66.27,11.41,66.26,11.34Z"/><path class="cls-2" d="M65.51,21.69h0l0,.06Z"/><path class="cls-2" d="M59.15,22.68a6.56,6.56,0,0,1-.73-.92A6.56,6.56,0,0,0,59.15,22.68Z"/><path class="cls-2" d="M62,23.88a3.81,3.81,0,0,0,2.28-.74H59.71A3.77,3.77,0,0,0,62,23.88Z"/><rect class="cls-2" x="75.49" y="23.14" width="0.28" height="0.74"/><rect class="cls-2" x="75.49" y="8.52" width="1.98" height="3.96"/><rect class="cls-2" x="68.61" y="23.14" width="1.98" height="0.74"/><path class="cls-2" d="M100.18,14.21l.17-.31-.07.11A1.24,1.24,0,0,1,100.18,14.21Z"/><path class="cls-2" d="M99.75,14.77a3.58,3.58,0,0,0,.53-.76,2.58,2.58,0,0,0,.19-.37l0,0,0,0,0,0h0l0,0,0,0H98.32s-.07.1-.11.14a2.51,2.51,0,0,1-1.81.77H94.35v.36h5.31Z"/><path class="cls-2" d="M100.57,13.44h0a.49.49,0,0,0,0,.11S100.56,13.48,100.57,13.44Z"/><polygon class="cls-2" points="94.35 8.65 91.93 8.65 91.93 12.48 93.91 12.48 93.91 8.75 94.35 8.75 94.35 8.65"/><path class="cls-2" d="M99.78,8.53l.09.12h0a.88.88,0,0,0-.12-.15,0,0,0,0,1,0,0h0Z"/><path class="cls-2" d="M99.78,8.53H94.35v.13h5.52Z"/><polygon class="cls-2" points="109.42 8.2 109.39 8.06 109.41 8.16 109.14 7.12 109.35 7.92 108.93 7.92 108.93 8.65 109.42 8.65 109.42 8.2"/><polygon class="cls-2" points="109.42 9.79 109.83 9.79 109.53 8.65 109.42 8.65 109.42 9.79"/><polygon class="cls-2" points="109.42 10.75 109.42 13.44 108.8 13.44 109.14 14.87 111.13 14.87 109.53 8.65 110.07 10.75 109.42 10.75"/><polygon class="cls-2" points="107.42 14.87 107.77 13.44 107.37 13.44 107.37 14.87 107.42 14.87"/><path class="cls-2" d="M119.71,7.12a3.67,3.67,0,0,0-2.27.8h4.67A3.56,3.56,0,0,0,119.71,7.12Z"/><path class="cls-2" d="M116.64,14.87a15.24,15.24,0,0,1,.21-2,.25.25,0,0,0,0,.07.64.64,0,0,0,0-.07h0a10,10,0,0,1,.23-1.07v0l0-.06a7.16,7.16,0,0,1,.34-1h-2c0,.05,0,.1,0,.15-.1.26-.18.53-.26.81a15.11,15.11,0,0,0-.48,3.16Z"/><path class="cls-2" d="M123.65,10.3c0-.1-.08-.19-.12-.29a2.47,2.47,0,0,1,.1.29Z"/><path class="cls-2" d="M121.68,10.3h0a2.39,2.39,0,0,0-.23-.51h0l0,0a0,0,0,0,1,0,0h2a5.53,5.53,0,0,0-.65-1.14h-6.11a6.73,6.73,0,0,0-.78,1.14H118a3.09,3.09,0,0,1,.37-.43,2,2,0,0,1,2.75-.09,2.44,2.44,0,0,1,.33.47A3.24,3.24,0,0,1,121.68,10.3Z"/><polygon class="cls-2" points="127.34 7.12 127.34 7.92 131.86 7.92 131.86 8.59 132.34 8.59 132.34 7.12 127.34 7.12"/><polygon class="cls-2" points="127.34 7.92 126.44 7.92 126.44 8.65 125.81 8.65 125.81 8.75 129.17 8.75 129.17 9.79 131.14 9.79 131.14 8.75 131.86 8.75 131.86 8.59 127.34 8.59 127.34 7.92"/><rect class="cls-2" x="125.81" y="7.12" width="0.63" height="0.8"/><rect class="cls-2" x="129.86" y="22.46" width="1.29" height="1.41"/><rect class="cls-2" x="141.6" y="23.42" width="4.24" height="0.46"/><polygon class="cls-2" points="154.94 23.4 157 23.4 156.06 20.99 154.03 20.99 154.94 23.4"/><path class="cls-2" d="M153.4,14.24a2.47,2.47,0,0,1-1.12.27h-2.49V11.35h-2v3.4H150v0h3.43Z"/><path class="cls-2" d="M153.4,7.28,153,7.2l.41.09Z"/><path class="cls-2" d="M153.55,7.32l-.15,0h0Z"/><path class="cls-2" d="M152.22,8.8h0l.34.06a3.32,3.32,0,0,1,.85.32V7.29a4.18,4.18,0,0,0-.51-.1h.1a6.12,6.12,0,0,0-.88-.08h-1.45V8.75h1A3.1,3.1,0,0,1,152.22,8.8Z"/></g></g></svg>