<svg xmlns="http://www.w3.org/2000/svg" viewBox="0 0 680 82"><defs><style>.cls-1{isolation:isolate;}.cls-2{opacity:0.2;}.cls-2,.cls-4{mix-blend-mode:screen;}.cls-3{fill:#fff;}.cls-4{opacity:0.45;}.cls-5{fill:red;}.cls-6{opacity:0.85;}.cls-7{fill:none;opacity:0.19;}</style></defs><title>アートボード 350</title><g class="cls-1"><g id="CHARACTER"><g class="cls-2"><path class="cls-3" d="M19.1,55.61H5.55a.9.9,0,0,1-.9-.9V51.62a.9.9,0,0,1,.9-.9H8V31.28H5.55a.9.9,0,0,1-.9-.9V27.29a.9.9,0,0,1,.9-.9H19.1a.9.9,0,0,1,.9.9v3.09a.9.9,0,0,1-.9.9H16.69V50.72H19.1a.9.9,0,0,1,.9.9v3.09A.9.9,0,0,1,19.1,55.61ZM6.45,53.81H18.2V52.52H15.79a.9.9,0,0,1-.9-.9V30.38a.9.9,0,0,1,.9-.9H18.2V28.19H6.45v1.29H8.86a.9.9,0,0,1,.9.9V51.62a.9.9,0,0,1-.9.9H6.45Z"/><path class="cls-3" d="M67,55.61H34.76a.9.9,0,0,1-.9-.9V52a.89.89,0,0,1,.3-.67L56.82,30.86H36.57a.9.9,0,0,1-.9-.9V27.29a.9.9,0,0,1,.9-.9H66.09a.9.9,0,0,1,.9.9V30a.89.89,0,0,1-.3.67L44,51.14H67a.9.9,0,0,1,.9.9v2.67A.9.9,0,0,1,67,55.61Zm-31.32-1.8H66.09v-.87H41.69a.9.9,0,0,1-.6-1.57l24.1-21.81V28.19H37.47v.87H59.16a.9.9,0,0,1,.6,1.57L35.67,52.44Z"/><path class="cls-3" d="M89.58,55.61h-.3c-5.21,0-8.88-.53-11.23-1.63-3.34-1.56-5-3.78-5-6.58V27.29a.9.9,0,0,1,.9-.9h6.92a.9.9,0,0,1,.9.9V47.4a2.47,2.47,0,0,0,1.59,2.42,15,15,0,0,0,6,.9h.3a14,14,0,0,0,5.64-.9c1.69-.79,1.89-1.76,1.89-2.42V27.29a.9.9,0,0,1,.9-.9h6.93a.9.9,0,0,1,.9.9V47.4c0,2.8-1.7,5-5,6.58C98.45,55.08,94.78,55.61,89.58,55.61ZM74.82,28.19V47.4c0,2.07,1.3,3.69,4,5,2.08,1,5.6,1.46,10.47,1.46h.3c4.86,0,8.38-.49,10.46-1.46,2.69-1.26,4-2.88,4-5V28.19H98.91V47.4c0,1.22-.51,2.92-2.93,4.05a15.3,15.3,0,0,1-6.4,1.07h-.3a16.22,16.22,0,0,1-6.71-1.07,4.24,4.24,0,0,1-2.63-4.05V28.19Z"/><path class="cls-3" d="M144.39,55.61h-6a.9.9,0,0,1-.9-.9v-17L131.38,55a.88.88,0,0,1-.84.6h-4.82a.91.91,0,0,1-.85-.6l-6.08-17.27v17a.9.9,0,0,1-.9.9h-6a.9.9,0,0,1-.9-.9V27.29a.9.9,0,0,1,.9-.9h9.64a.91.91,0,0,1,.85.6l5.78,16.31L133.9,27a.91.91,0,0,1,.85-.6h9.64a.9.9,0,0,1,.9.9V54.71A.9.9,0,0,1,144.39,55.61Zm-5.12-1.8h4.22V28.19h-8.1l-6.11,17.26a.91.91,0,0,1-.85.6h-.6a.91.91,0,0,1-.85-.6l-6.11-17.26h-8.11V53.81H117V34.18a.9.9,0,0,1,.9-.9h.6a.91.91,0,0,1,.85.6l7,19.93h3.54l7-19.93a.88.88,0,0,1,.84-.6h.61a.9.9,0,0,1,.9.9Z"/><path class="cls-3" d="M173.3,55.61H159.75a.9.9,0,0,1-.9-.9V51.62a.9.9,0,0,1,.9-.9h2.41V31.28h-2.41a.9.9,0,0,1-.9-.9V27.29a.9.9,0,0,1,.9-.9H173.3a.9.9,0,0,1,.9.9v3.09a.9.9,0,0,1-.9.9h-2.41V50.72h2.41a.9.9,0,0,1,.9.9v3.09A.9.9,0,0,1,173.3,55.61Zm-12.65-1.8H172.4V52.52H170a.9.9,0,0,1-.9-.9V30.38a.9.9,0,0,1,.9-.9h2.41V28.19H160.65v1.29h2.41a.9.9,0,0,1,.9.9V51.62a.9.9,0,0,1-.9.9h-2.41Z"/><path class="cls-3" d="M220.59,55.61h-5.12a.91.91,0,0,1-.85-.6l-.55-1.53a20.27,20.27,0,0,1-9.45,2.13,21.58,21.58,0,0,1-9.11-1.77c-4.94-2.31-7.45-6.41-7.45-12.21,0-6.16,2.71-10.55,8.05-13.05a24.29,24.29,0,0,1,10.32-2.19A22.77,22.77,0,0,1,215.85,28c3.74,1.75,5.64,4.39,5.64,7.85a.91.91,0,0,1-.9.9h-6.33a.89.89,0,0,1-.89-.83c-.18-2.11-1-3.48-2.5-4.18a10.42,10.42,0,0,0-4.44-.9,8.5,8.5,0,0,0-3.53.62c-4.11,1.92-6.11,5.24-6.11,10.15,0,4.26,1.41,7,4.3,8.33a10.44,10.44,0,0,0,4.44,1,11.83,11.83,0,0,0,5-1,4.91,4.91,0,0,0,3.09-4.81V43.38h-8.43a.9.9,0,0,1-.9-.9V39.8a.9.9,0,0,1,.9-.9h15.36a.91.91,0,0,1,.9.9V54.71A.9.9,0,0,1,220.59,55.61Zm-4.49-1.8h3.59V40.7H206.13v.88h8.43a.9.9,0,0,1,.9.9v2.67a6.65,6.65,0,0,1-4.13,6.44,13.65,13.65,0,0,1-5.8,1.21,12.23,12.23,0,0,1-5.2-1.21c-3.54-1.65-5.34-5-5.34-10,0-5.6,2.4-9.57,7.15-11.78a10.21,10.21,0,0,1,4.29-.79,12.24,12.24,0,0,1,5.2,1.07h0A6,6,0,0,1,215.06,35h4.57c-.3-2.29-1.8-4-4.54-5.32a21.05,21.05,0,0,0-8.66-1.46,22.5,22.5,0,0,0-9.56,2c-4.71,2.21-7,5.94-7,11.42,0,5.11,2.1,8.57,6.41,10.58a19.8,19.8,0,0,0,8.35,1.6,18.22,18.22,0,0,0,9.48-2.4.9.9,0,0,1,.77-.08.89.89,0,0,1,.54.55Z"/><path class="cls-3" d="M261.85,55.61h-7.23a.89.89,0,0,1-.8-.48l-4-7.53H237.69l-4,7.53a.88.88,0,0,1-.8.48h-7.22a.91.91,0,0,1-.78-.44.88.88,0,0,1,0-.89L240,26.86a.89.89,0,0,1,.78-.47h6a.9.9,0,0,1,.79.47l15.06,27.42a.91.91,0,0,1,0,.89A.89.89,0,0,1,261.85,55.61Zm-6.69-1.8h5.17L246.26,28.19h-5L227.23,53.81h5.16l4-7.53a.91.91,0,0,1,.8-.48H250.4a.89.89,0,0,1,.8.48Zm-6.26-8.89H238.66a.89.89,0,0,1-.77-.43.87.87,0,0,1,0-.88l4.82-9.28a.89.89,0,0,1,.8-.49h.6a.92.92,0,0,1,.8.49l4.82,9.28a.9.9,0,0,1-.8,1.31Zm-8.76-1.8h7.28l-3.64-7Z"/><path class="cls-3" d="M298.59,55.61h-6a.9.9,0,0,1-.9-.9v-17L285.58,55a.88.88,0,0,1-.84.6h-4.82a.91.91,0,0,1-.85-.6L273,37.74v17a.9.9,0,0,1-.9.9h-6a.9.9,0,0,1-.9-.9V27.29a.9.9,0,0,1,.9-.9h9.64a.91.91,0,0,1,.85.6l5.78,16.31L288.1,27a.91.91,0,0,1,.85-.6h9.64a.9.9,0,0,1,.9.9V54.71A.9.9,0,0,1,298.59,55.61Zm-5.12-1.8h4.22V28.19h-8.1l-6.11,17.26a.91.91,0,0,1-.85.6H282a.89.89,0,0,1-.85-.6l-6.12-17.26H267V53.81h4.23V34.18a.9.9,0,0,1,.9-.9h.6a.91.91,0,0,1,.85.6l7,19.93h3.55l7-19.93a.88.88,0,0,1,.84-.6h.61a.9.9,0,0,1,.9.9Z"/><path class="cls-3" d="M327.5,55.61H314a.9.9,0,0,1-.9-.9V51.62a.9.9,0,0,1,.9-.9h2.41V31.28H314a.9.9,0,0,1-.9-.9V27.29a.9.9,0,0,1,.9-.9H327.5a.9.9,0,0,1,.9.9v3.09a.9.9,0,0,1-.9.9h-2.41V50.72h2.41a.9.9,0,0,1,.9.9v3.09A.9.9,0,0,1,327.5,55.61Zm-12.65-1.8H326.6V52.52h-2.41a.9.9,0,0,1-.9-.9V30.38a.9.9,0,0,1,.9-.9h2.41V28.19H314.85v1.29h2.41a.9.9,0,0,1,.9.9V51.62a.9.9,0,0,1-.9.9h-2.41Z"/><path class="cls-3" d="M374.79,55.61h-8.44a.9.9,0,0,1-.71-.35L351.29,36.45V54.71a.9.9,0,0,1-.9.9h-6.93a.9.9,0,0,1-.9-.9V27.29a.9.9,0,0,1,.9-.9h8.44a.9.9,0,0,1,.71.35L367,45.55V27.29a.9.9,0,0,1,.9-.9h6.93a.9.9,0,0,1,.9.9V54.71A.9.9,0,0,1,374.79,55.61Zm-8-1.8h7.08V28.19h-5.12V47.82a.9.9,0,0,1-.9.9h-.3a.91.91,0,0,1-.72-.35L351.45,28.19h-7.09V53.81h5.13V34.18a.9.9,0,0,1,.9-.9h.3a.91.91,0,0,1,.72.35Z"/><path class="cls-3" d="M413.94,55.61H383.22a.9.9,0,0,1-.9-.9V27.29a.9.9,0,0,1,.9-.9h29.21a.9.9,0,0,1,.9.9V30a.9.9,0,0,1-.9.9H391v7.06h19.58a.9.9,0,0,1,.9.9v2.67a.9.9,0,0,1-.9.9H391v8.75h22.9a.9.9,0,0,1,.9.9v2.67A.9.9,0,0,1,413.94,55.61Zm-29.82-1.8H413v-.87h-22.9a.9.9,0,0,1-.9-.9V41.49a.91.91,0,0,1,.9-.9h19.58v-.87H390.14a.9.9,0,0,1-.9-.9V30a.9.9,0,0,1,.9-.9h21.39v-.87H384.12Z"/><path class="cls-3" d="M491.34,55.61h-6a.9.9,0,0,1-.9-.9v-17L478.33,55a.89.89,0,0,1-.85.6h-4.81a.89.89,0,0,1-.85-.6l-6.08-17.27v17a.9.9,0,0,1-.91.9h-6a.9.9,0,0,1-.9-.9V27.29a.9.9,0,0,1,.9-.9h9.64a.91.91,0,0,1,.85.6l5.78,16.31L480.85,27a.91.91,0,0,1,.85-.6h9.64a.9.9,0,0,1,.9.9V54.71A.9.9,0,0,1,491.34,55.61Zm-5.13-1.8h4.23V28.19h-8.1l-6.12,17.26a.88.88,0,0,1-.84.6h-.61a.91.91,0,0,1-.85-.6l-6.11-17.26h-8.1V53.81h4.22V34.18a.9.9,0,0,1,.9-.9h.61a.91.91,0,0,1,.85.6l7,19.93h3.55l7-19.93a.91.91,0,0,1,.85-.6h.6a.9.9,0,0,1,.9.9Z"/><path class="cls-3" d="M520.25,55.61H506.7a.9.9,0,0,1-.9-.9V51.62a.9.9,0,0,1,.9-.9h2.41V31.28H506.7a.9.9,0,0,1-.9-.9V27.29a.9.9,0,0,1,.9-.9h13.55a.9.9,0,0,1,.9.9v3.09a.9.9,0,0,1-.9.9h-2.41V50.72h2.41a.9.9,0,0,1,.9.9v3.09A.9.9,0,0,1,520.25,55.61Zm-12.65-1.8h11.75V52.52h-2.41a.9.9,0,0,1-.9-.9V30.38a.9.9,0,0,1,.9-.9h2.41V28.19H507.6v1.29H510a.9.9,0,0,1,.9.9V51.62a.9.9,0,0,1-.9.9H507.6Z"/><path class="cls-3" d="M569.94,55.61h-7.83a.86.86,0,0,1-.63-.26L548.13,41.94l-3.79,2.43V54.71a.9.9,0,0,1-.9.9h-6.93a.9.9,0,0,1-.9-.9V27.29a.9.9,0,0,1,.9-.9h6.93a.9.9,0,0,1,.9.9v9.84l15.77-10.59a.87.87,0,0,1,.5-.15h8.13a.91.91,0,0,1,.86.64.9.9,0,0,1-.36,1l-15,10.21,16.37,15.82a.9.9,0,0,1-.63,1.55Zm-7.45-1.8h5.23L552.15,38.76a.9.9,0,0,1,.12-1.39l13.54-9.18h-4.93L543.94,39.57a.89.89,0,0,1-.92,0,.88.88,0,0,1-.48-.79V28.19h-5.13V53.81h5.13V43.88a.9.9,0,0,1,.41-.75l4.82-3.1a.91.91,0,0,1,1.13.12Z"/><path class="cls-3" d="M608.79,55.61h-7.22a.89.89,0,0,1-.8-.48l-4-7.53H584.64l-4,7.53a.89.89,0,0,1-.8.48h-7.23a.91.91,0,0,1-.77-.44.88.88,0,0,1,0-.89l15-27.42a.9.9,0,0,1,.79-.47h6a.89.89,0,0,1,.78.47l15.06,27.42a.88.88,0,0,1,0,.89A.91.91,0,0,1,608.79,55.61Zm-6.68-1.8h5.16L593.2,28.19h-5L574.17,53.81h5.17l4-7.53a.89.89,0,0,1,.8-.48h13.25a.91.91,0,0,1,.8.48Zm-6.27-8.89H585.6a.91.91,0,0,1-.77-.43.89.89,0,0,1,0-.88l4.81-9.28a.92.92,0,0,1,.8-.49H591a.89.89,0,0,1,.79.49l4.82,9.28a.87.87,0,0,1,0,.88A.89.89,0,0,1,595.84,44.92Zm-8.75-1.8h7.27l-3.64-7Z"/><path class="cls-3" d="M646.44,55.61h-7.23a.9.9,0,0,1-.7-.33L628.54,43h-7.1V54.71a.9.9,0,0,1-.9.9h-6.93a.9.9,0,0,1-.9-.9V27.29a.9.9,0,0,1,.9-.9h15.06a30.32,30.32,0,0,1,12.73,2.33h0c2.94,1.38,4.43,3.41,4.43,6,0,2.42-1.48,4.4-4.41,5.87a19.23,19.23,0,0,1-4.17,1.6l9.88,11.93a.9.9,0,0,1-.69,1.47Zm-6.8-1.8h4.89l-9.62-11.6a.9.9,0,0,1,.55-1.47A16.69,16.69,0,0,0,640.6,39c2.32-1.17,3.43-2.56,3.43-4.27,0-1.88-1.11-3.32-3.39-4.39a28.7,28.7,0,0,0-12-2.16H614.51V53.81h5.13V42.05a.9.9,0,0,1,.9-.9H629a.91.91,0,0,1,.7.34ZM629.27,40.28h-8.73a.9.9,0,0,1-.9-.9V30a.9.9,0,0,1,.9-.9h6.63a20.49,20.49,0,0,1,8.51,1.49c2.14,1,3.23,2.41,3.23,4.19A4.47,4.47,0,0,1,636,38.93h0A15.73,15.73,0,0,1,629.27,40.28Zm-7.83-1.8h7.83a13.92,13.92,0,0,0,6-1.18h0a2.68,2.68,0,0,0,1.89-2.56c0-.38,0-1.53-2.19-2.56a18.9,18.9,0,0,0-7.75-1.32h-5.73Zm14.16-.36h0Z"/><path class="cls-3" d="M674.45,55.61H660.9a.9.9,0,0,1-.9-.9V51.62a.9.9,0,0,1,.9-.9h2.41V31.28H660.9a.9.9,0,0,1-.9-.9V27.29a.9.9,0,0,1,.9-.9h13.55a.9.9,0,0,1,.9.9v3.09a.9.9,0,0,1-.9.9H672V50.72h2.41a.9.9,0,0,1,.9.9v3.09A.9.9,0,0,1,674.45,55.61Zm-12.65-1.8h11.75V52.52h-2.41a.9.9,0,0,1-.9-.9V30.38a.9.9,0,0,1,.9-.9h2.41V28.19H661.8v1.29h2.41a.9.9,0,0,1,.9.9V51.62a.9.9,0,0,1-.9.9H661.8Z"/></g><g class="cls-4"><path class="cls-5" d="M87.19,61.35h1.29v5.93H83.22V61.35H84.5V20.65H83.22V14.72h5.26v5.93H87.19Z"/><path class="cls-5" d="M110.2,14.72h11.45v5.12l-9.46,42.32H122v5.12H109.5V62.16L119,19.84H110.2Z"/><path class="cls-5" d="M139.63,14.72h2.69V53.26a16.74,16.74,0,0,0,.82,6.2,2.63,2.63,0,0,0,2.45,1.89h.12c1,0,1.79-.63,2.33-1.89a16,16,0,0,0,.94-6.2V14.72h2.68V53.26q0,7-1.75,11.05a4.35,4.35,0,0,1-4.2,3h-.12a4.34,4.34,0,0,1-4.2-3q-1.75-4-1.76-11.05Z"/><path class="cls-5" d="M171.64,27.93V67.28H169.3V14.72H173L175.49,49h.23l2.46-34.23h3.73V67.28h-2.33V27.93h-.24l-2.8,39.35h-1.87l-2.8-39.35Z"/><path class="cls-5" d="M206.79,61.35h1.29v5.93h-5.26V61.35h1.29V20.65h-1.29V14.72h5.26v5.93h-1.29Z"/><path class="cls-5" d="M237.74,21.73q-.81-1.89-1.86-1.89c-.63,0-1.13.45-1.52,1.35q-2.58,5.93-2.57,21,0,13.22,1.87,17.52.93,2.16,1.86,2.16c.78,0,1.48-.72,2.11-2.16Q239,56.51,239,49V43.83h-3.62V38.71h6V67.28h-2L239,62.43q-1.64,4.84-3.86,4.85-2,0-3.38-3.24-2.7-6.2-2.69-21.83,0-16.71,2.92-23.45c1.17-2.69,2.45-4,3.86-4s2.64,1,3.5,3q2,4.57,2,13.47h-2.45Q238.79,24.15,237.74,21.73Z"/><path class="cls-5" d="M261.1,67.28h-2.8l5.84-52.56h2.34l5.84,52.56h-2.81l-1.63-15.36h-5.14ZM265.42,29h-.23l-1.87,17.78h4Z"/><path class="cls-5" d="M291.24,27.93V67.28H288.9V14.72h3.74L295.09,49h.23l2.46-34.23h3.74V67.28h-2.34V27.93H299l-2.81,39.35h-1.87l-2.8-39.35Z"/><path class="cls-5" d="M326.39,61.35h1.29v5.93h-5.26V61.35h1.29V20.65h-1.29V14.72h5.26v5.93h-1.29Z"/><path class="cls-5" d="M361,14.72V67.28h-3.27l-6.07-39.35h-.12V67.28h-2.68V14.72h3.27l6.07,39.35h.12V14.72Z"/><path class="cls-5" d="M381.87,36.82h7.94v5.12h-7.94V62.16h9.23v5.12H379.19V14.72h11.32v5.12h-8.64Z"/><path class="cls-5" d="M440.74,27.93V67.28H438.4V14.72h3.74L444.59,49h.24l2.45-34.23H451V67.28h-2.34V27.93h-.23l-2.81,39.35h-1.87L441,27.93Z"/><path class="cls-5" d="M475.89,61.35h1.29v5.93h-5.26V61.35h1.29V20.65h-1.29V14.72h5.26v5.93h-1.29Z"/><path class="cls-5" d="M498.44,67.28V14.72h2.68v22.1l6.66-22.1h3.15l-6.19,20.75,6.66,31.81h-3L503,40.6l-1.87,5.93V67.28Z"/><path class="cls-5" d="M530.2,67.28h-2.8l5.84-52.56h2.34l5.84,52.56h-2.81L537,51.92h-5.14ZM534.53,29h-.24l-1.87,17.78h4Z"/><path class="cls-5" d="M568.86,19c1,2.34,1.52,5.66,1.52,10a26.1,26.1,0,0,1-1.52,9.7,8.36,8.36,0,0,1-2.1,3.5L571,67.28h-2.81l-4-24.26h-3.27V67.28h-2.68V14.72h5.84C566,14.72,567.62,16.16,568.86,19Zm-2.1,16.44A17.06,17.06,0,0,0,567.7,29a16.51,16.51,0,0,0-1.05-6.47c-.78-1.8-1.84-2.7-3.16-2.7h-2.57V37.9h3.39C565.24,37.9,566.06,37.09,566.76,35.47Z"/><path class="cls-5" d="M595.49,61.35h1.29v5.93h-5.26V61.35h1.29V20.65h-1.29V14.72h5.26v5.93h-1.29Z"/></g><path class="cls-3" d="M117.94,51.08H99.12V44.7H120l2-2,5.37,4.37c1.12.89.9,1.34-.67,1.34Q117.94,70.91,97.78,78l-3-6.38Q111.55,65.53,117.94,51.08Zm52.74,17.13-3.36,8.06q-18.48-6-30.57-24.18v21.5c0,3.58-1.8,5.37-5.38,5.37h-7.05l-1.68-6.38h6A1.19,1.19,0,0,0,130,71.23V39H107.19V9.76H127L129.36,2l6.72.67q2.68.34,0,2l-2,5h24.19V39H136.41q1.35,4.71,7.39,12.43A128.07,128.07,0,0,0,157.91,40L164,45c.22,1.12-.34,1.46-1.68,1a107,107,0,0,1-14.44,9.41Q155.57,63.51,170.68,68.21ZM151.53,15.13H113.91v6.39h37.62Zm0,18.48V26.89H113.91v6.72Z"/><path class="cls-3" d="M206,74.93Q223.08,60.48,224.77,42h-20.5a107.34,107.34,0,0,1-8.73,12.76l-6.38-3.36a57.76,57.76,0,0,0,15.11-31.24l7.06,1.35c1.79.67,1.56,1.45-.67,2.35A52.83,52.83,0,0,1,207,35.62h40.65V42H231.82Q229.47,63.18,212.34,79Z"/><path class="cls-3" d="M287.59,64.52H273.48V70.9h-5.71V19.84h6q1.68,1-.33,2V59.14h4.36V5.73h5.71q2,0,0,2v51.4h4V19.5h5.71c1.11.23,1.11.9,0,2v45h-5.71Zm57.1-30.91L343,40.33Q327.23,37,319.5,30.25,311.1,37,297,42l-2.35-6.39q12.76-4,20.49-9.74a51.91,51.91,0,0,1-5.37-7.39q-6.39,7.4-11.76,10.75l-3.7-5.37A52.39,52.39,0,0,0,312.11,2l6.05,1.35q2,.33-1,1.67l-2,4h15.12l1.34-1.35,4.37,3.7c1.12.89.89,1.46-.67,1.68A62.56,62.56,0,0,1,324.2,25.88Q327.56,29.59,344.69,33.61ZM322.52,39v4H338v5.37H322.52v4.7H337v5.38H322.52v5.37h18.82v5.38H322.52V80H315.8V69.22H297V63.84H315.8V58.47H301.36V53.09H315.8v-4.7H300.35V43H315.8V37h6.39C324,37.19,324.09,37.87,322.52,39Zm-8.4-24.52a20.69,20.69,0,0,0,5.72,7.73,59.5,59.5,0,0,0,7.05-7.73Z"/><path class="cls-3" d="M400.46,77l-7-4a46.83,46.83,0,0,0,13.77-24.18,113.13,113.13,0,0,0-23.85-6q-9.07,19.49-12.1,22.51a12.86,12.86,0,0,1-9.4,4,9.08,9.08,0,0,1-6.72-2.69q-3-3-3-9.07,0-7.05,6.71-13.77,7.4-7.39,19.82-7.39,4-10.41,7.4-19.49-9.42,2.36-18.82,4.37l-3-6.72a198.47,198.47,0,0,0,21.16-3.69l4-1.68,5.72,4.36c2.23,1.35,2.12,2.35-.34,3a178.15,178.15,0,0,0-9.41,20.15A119.67,119.67,0,0,1,408.19,42a185.41,185.41,0,0,0,.33-19.82l6.39,1.34q3.69.67.67,2.69,0,11.09-.67,18.14a132.14,132.14,0,0,1,14.78,6.72l-3.36,6.72q-7.06-4-12.77-6.72A55.83,55.83,0,0,1,400.46,77ZM363.84,47.38q-5.37,5.38-5.37,10.08a4.54,4.54,0,0,0,1.34,3.36,4.12,4.12,0,0,0,3,1q3,0,5.37-3.7,2-3,8.06-15.45Q368.55,42.68,363.84,47.38Z"/><path class="cls-3" d="M456.56,32.94q-7.4,1-14.44,1.68l-.68-7.39c4,0,9.63-.34,16.8-1q3-10.41,5-21.17l7.06,2.36q4,1.68-.34,3-2,7.05-4,15.12a50.77,50.77,0,0,1,8.4-.67q4.69,0,7.05,2.35,4,4,4,18.14,0,19.49-5.71,25.19A10.63,10.63,0,0,1,472,73.92q-6.39,0-12.77-7.39l4.37-6.05q5.37,5.38,8.06,5.38a4.18,4.18,0,0,0,3-1.34q3.69-3.7,3.7-20.5,0-9.39-2-11.42c-.67-.67-2-1-4-1a72.13,72.13,0,0,0-8.4.68q-7.05,24.85-16.79,42.66l-7.73-2.69Q449.17,57.12,456.56,32.94Zm32.92-10.08,6-4.37a73.66,73.66,0,0,1,18.81,33.93l-7.39,3Q500.91,33.61,489.48,22.86Z"/><path class="cls-3" d="M548.27,54.44a6.05,6.05,0,0,1-4.36-2q-2.35-2.34-2.36-20.15A204,204,0,0,1,542.9,7.74h7.39c1.79.67,1.79,1.46,0,2.35q-1.68,8.07-1.68,22.18,0,14.44,1.34,14.44a5,5,0,0,0,2.69-1.34,71.06,71.06,0,0,0,7.73-9.07l5,5A69.22,69.22,0,0,1,555,52.09,10.65,10.65,0,0,1,548.27,54.44ZM576.49,5.73h6.72c2.46.22,2.69,1.12.67,2.68q1,10.76,1,32.93,0,25.19-23.85,38l-5.71-5.71Q577.83,62.84,577.84,41,577.84,18.16,576.49,5.73Z"/><g class="cls-6"><path class="cls-5" d="M125.08,44.18h1v.93h-4.22v-.93h1V37.81h-1v-.92h4.22v.92h-1Z"/><path class="cls-5" d="M143.55,36.89h9.18v.8l-7.59,6.62H153v.8H143v-.8l7.6-6.62h-7Z"/><path class="cls-5" d="M167.17,36.89h2.16v6a1,1,0,0,0,.65,1,5,5,0,0,0,2,.29h.1a4.66,4.66,0,0,0,1.87-.29,1.07,1.07,0,0,0,.75-1v-6h2.16v6c0,.73-.47,1.31-1.41,1.73a8.87,8.87,0,0,1-3.37.46H172a8.83,8.83,0,0,1-3.37-.46c-.94-.42-1.41-1-1.41-1.73Z"/><path class="cls-5" d="M192.86,39v6.16H191V36.89h3l2,5.35h.19l2-5.35h3v8.22h-1.88V39h-.18l-2.25,6.16h-1.5L193.05,39Z"/><path class="cls-5" d="M221.08,44.18h1v.93h-4.22v-.93h1V37.81h-1v-.92h4.22v.92h-1Z"/><path class="cls-5" d="M245.92,38a3.75,3.75,0,0,0-1.5-.29,3,3,0,0,0-1.22.21,3.33,3.33,0,0,0-2.06,3.29,2.69,2.69,0,0,0,1.5,2.74,3.56,3.56,0,0,0,1.5.34,4,4,0,0,0,1.69-.34A1.73,1.73,0,0,0,247,42.24v-.8h-2.9v-.8h4.78v4.47h-1.6l-.28-.76a6,6,0,0,1-3.09.76,6.74,6.74,0,0,1-2.72-.5A3.46,3.46,0,0,1,239,41.19a3.71,3.71,0,0,1,2.35-3.67,7.49,7.49,0,0,1,3.09-.63,6.94,6.94,0,0,1,2.81.46,2.28,2.28,0,0,1,1.6,2.11h-2A1.64,1.64,0,0,0,245.92,38Z"/><path class="cls-5" d="M264.67,45.11h-2.25l4.69-8.22H269l4.69,8.22h-2.25l-1.31-2.4H266Zm3.47-6H268l-1.5,2.79h3.19Z"/><path class="cls-5" d="M288.86,39v6.16H287V36.89h3l2,5.35h.19l2-5.35h3v8.22h-1.88V39h-.18l-2.25,6.16h-1.5L289.05,39Z"/><path class="cls-5" d="M317.08,44.18h1v.93h-4.22v-.93h1V37.81h-1v-.92h4.22v.92h-1Z"/><path class="cls-5" d="M344.83,36.89v8.22H342.2L337.33,39h-.1v6.16h-2.15V36.89h2.62l4.88,6.16h.09V36.89Z"/><path class="cls-5" d="M361.61,40.35H368v.8h-6.37v3.16H369v.8h-9.56V36.89h9.1v.8h-6.94Z"/><path class="cls-5" d="M432.86,39v6.16H431V36.89h3l2,5.35h.19l2-5.35h3v8.22h-1.88V39h-.18l-2.25,6.16h-1.5L433.05,39Z"/><path class="cls-5" d="M461.08,44.18h1v.93h-4.22v-.93h1V37.81h-1v-.92h4.22v.92h-1Z"/><path class="cls-5" d="M479.17,45.11V36.89h2.16v3.46l5.34-3.46h2.53l-5,3.24,5.35,5h-2.44l-4.31-4.17-1.5.92v3.25Z"/><path class="cls-5" d="M504.67,45.11h-2.25l4.69-8.22H509l4.69,8.22h-2.25l-1.31-2.4H506Zm3.47-6H508l-1.5,2.79h3.19Z"/><path class="cls-5" d="M535.7,37.56a1.73,1.73,0,0,1,1.22,1.56c0,.62-.41,1.13-1.22,1.52a5.51,5.51,0,0,1-1.68.55l3.37,3.92h-2.25L532,41.32h-2.62v3.79h-2.16V36.89h4.69A9.41,9.41,0,0,1,535.7,37.56ZM534,40.13a1.08,1.08,0,0,0,.75-1c0-.42-.29-.76-.85-1a6.28,6.28,0,0,0-2.53-.42h-2.06v2.82h2.72A4.68,4.68,0,0,0,534,40.13Z"/><path class="cls-5" d="M557.08,44.18h1v.93h-4.22v-.93h1V37.81h-1v-.92h4.22v.92h-1Z"/></g><rect class="cls-7" width="680" height="82"/></g></g></svg>