<svg xmlns="http://www.w3.org/2000/svg" viewBox="0 0 680 82"><defs><style>.cls-1{isolation:isolate;}.cls-2{opacity:0.2;}.cls-2,.cls-4{mix-blend-mode:screen;}.cls-3{fill:#fff;}.cls-4{opacity:0.45;}.cls-5{fill:red;}.cls-6{opacity:0.85;}.cls-7{fill:none;opacity:0.19;}</style></defs><title>アートボード 349</title><g class="cls-1"><g id="CHARACTER"><g class="cls-2"><path class="cls-3" d="M149.66,57.06h-7.23a.88.88,0,0,1-.7-.34l-10-12.32h-7.1V56.16a.9.9,0,0,1-.9.9h-6.93a.9.9,0,0,1-.9-.9V28.74a.9.9,0,0,1,.9-.9h15.06a30.32,30.32,0,0,1,12.73,2.33h0c2.94,1.38,4.43,3.4,4.43,6,0,2.42-1.48,4.39-4.41,5.87a19.23,19.23,0,0,1-4.17,1.6l9.88,11.92a.89.89,0,0,1,.12,1A.88.88,0,0,1,149.66,57.06Zm-6.8-1.8h4.89l-9.63-11.61a.9.9,0,0,1,.56-1.46,16.55,16.55,0,0,0,5.14-1.74c2.32-1.16,3.43-2.55,3.43-4.26,0-1.88-1.11-3.32-3.39-4.39h0a28.54,28.54,0,0,0-12-2.16H117.73V55.26h5.13V43.5a.9.9,0,0,1,.9-.9h8.43a.88.88,0,0,1,.7.34ZM132.49,41.73h-8.73a.9.9,0,0,1-.9-.9V31.41a.9.9,0,0,1,.9-.9h6.63A20.49,20.49,0,0,1,138.9,32c2.14,1,3.23,2.41,3.23,4.19a4.47,4.47,0,0,1-2.93,4.19h0A15.7,15.7,0,0,1,132.49,41.73Zm-7.83-1.8h7.83a14.07,14.07,0,0,0,5.95-1.18h0a2.68,2.68,0,0,0,1.89-2.56c0-.38,0-1.54-2.19-2.56a18.77,18.77,0,0,0-7.75-1.32h-5.73Z"/><path class="cls-3" d="M177.67,57.06H164.12a.9.9,0,0,1-.9-.9v-3.1a.9.9,0,0,1,.9-.9h2.41V32.73h-2.41a.9.9,0,0,1-.9-.9V28.74a.9.9,0,0,1,.9-.9h13.55a.9.9,0,0,1,.9.9v3.09a.9.9,0,0,1-.9.9h-2.41V52.16h2.41a.9.9,0,0,1,.9.9v3.1A.9.9,0,0,1,177.67,57.06ZM165,55.26h11.75V54h-2.41a.9.9,0,0,1-.9-.9V31.83a.9.9,0,0,1,.9-.9h2.41V29.64H165v1.29h2.41a.9.9,0,0,1,.9.9V53.06a.9.9,0,0,1-.9.9H165Z"/><path class="cls-3" d="M225,57.06h-8.43a.91.91,0,0,1-.72-.36L201.46,37.9V56.16a.9.9,0,0,1-.9.9h-6.93a.9.9,0,0,1-.9-.9V28.74a.9.9,0,0,1,.9-.9h8.43a.91.91,0,0,1,.72.35L217.13,47V28.74a.9.9,0,0,1,.9-.9H225a.9.9,0,0,1,.9.9V56.16A.9.9,0,0,1,225,57.06Zm-8-1.8h7.08V29.64h-5.12V49.27a.91.91,0,0,1-.9.9h-.31a.88.88,0,0,1-.71-.36L201.62,29.64h-7.09V55.26h5.13V35.63a.9.9,0,0,1,.9-.9h.3a.93.93,0,0,1,.72.35Z"/><path class="cls-3" d="M263.5,57.06h-5.12a.88.88,0,0,1-.84-.6L257,54.93a20.43,20.43,0,0,1-9.45,2.13,21.58,21.58,0,0,1-9.11-1.77C233.49,53,231,48.88,231,43.08c0-6.16,2.71-10.56,8.05-13a24.14,24.14,0,0,1,10.32-2.19,22.72,22.72,0,0,1,9.41,1.63c3.75,1.75,5.64,4.39,5.64,7.84a.9.9,0,0,1-.9.9h-6.32a.9.9,0,0,1-.9-.82c-.17-2.11-1-3.48-2.49-4.18a10.45,10.45,0,0,0-4.44-.9,8.52,8.52,0,0,0-3.54.62c-4.11,1.92-6.1,5.24-6.1,10.15,0,4.25,1.4,7,4.3,8.32a10.26,10.26,0,0,0,4.43,1.05,11.79,11.79,0,0,0,5-1,4.91,4.91,0,0,0,3.1-4.81V44.82h-8.44a.9.9,0,0,1-.9-.9V41.25a.9.9,0,0,1,.9-.9H263.5a.9.9,0,0,1,.9.9V56.16A.9.9,0,0,1,263.5,57.06ZM259,55.26h3.58V42.15H249V43h8.44a.9.9,0,0,1,.9.9V46.6A6.65,6.65,0,0,1,254.25,53a13.66,13.66,0,0,1-5.81,1.21,12.3,12.3,0,0,1-5.2-1.21c-3.54-1.65-5.33-5-5.33-10,0-5.61,2.4-9.57,7.14-11.78a10.13,10.13,0,0,1,4.3-.79,12.27,12.27,0,0,1,5.2,1.07h0A6,6,0,0,1,258,36.41h4.57c-.3-2.28-1.79-4-4.54-5.31a21,21,0,0,0-8.65-1.46,22.47,22.47,0,0,0-9.56,2c-4.72,2.2-7,5.94-7,11.42,0,5.11,2.1,8.56,6.41,10.58a19.8,19.8,0,0,0,8.35,1.6,18.22,18.22,0,0,0,9.48-2.4.9.9,0,0,1,1.31.46Z"/><path class="cls-3" d="M304.76,57.06h-7.22a.9.9,0,0,1-.8-.48l-4-7.54H280.61l-4,7.54a.93.93,0,0,1-.8.48h-7.23a.89.89,0,0,1-.77-.44.91.91,0,0,1,0-.89L282.89,28.3a.91.91,0,0,1,.79-.46h6a.9.9,0,0,1,.78.46l15.06,27.43a.89.89,0,0,1,0,.89A.92.92,0,0,1,304.76,57.06Zm-6.68-1.8h5.16L289.17,29.64h-5L270.14,55.26h5.17l4-7.54a.91.91,0,0,1,.8-.48h13.25a.93.93,0,0,1,.8.48Zm-6.27-8.89H281.57a.9.9,0,0,1-.8-1.31l4.82-9.29a.93.93,0,0,1,.8-.48h.6a.9.9,0,0,1,.8.48l4.82,9.29a.87.87,0,0,1,0,.88A.89.89,0,0,1,291.81,46.37Zm-8.76-1.8h7.28l-3.64-7Z"/><path class="cls-3" d="M363.49,57.06c-4.93,0-8.81-.65-11.52-1.91-3.54-1.66-5.34-3.73-5.34-6.16V47.58a.9.9,0,0,1,.9-.9h6.93a.9.9,0,0,1,.9.9v1.27c0,.72.19,1.77,1.89,2.55a13.21,13.21,0,0,0,5.64,1.05,17.12,17.12,0,0,0,6.85-1c2.19-1,2.19-2.08,2.19-2.42,0-1.26-2.24-2.12-3.58-2.52-5-1.49-9.78-3.1-14.22-4.8-3.54-1.34-5.46-3.25-5.69-5.68s1.46-4.54,5.05-6.11a25.59,25.59,0,0,1,10.3-2c4.53,0,8.1.59,10.62,1.77,3.37,1.57,5,3.86,4.74,6.79a.9.9,0,0,1-.9.83h-6.93a.9.9,0,0,1-.87-1.12c.19-.78.15-1.79-1.92-2.76a12.93,12.93,0,0,0-9.48,0c-1,.47-2.19,1.22-2.19,2.14,0,.36.36,1.36,3.65,2.68a111.19,111.19,0,0,0,12.55,4.18h0c5,1.33,7.59,3.42,7.59,6.21s-1.69,4.88-5,6.44C372.7,56.37,368.62,57.06,363.49,57.06Zm-15.06-8.58V49c0,1.67,1.45,3.2,4.3,4.52,2.47,1.16,6.09,1.75,10.76,1.75,4.87,0,8.69-.64,11.37-1.89s4-2.83,4-4.81-2.1-3.37-6.25-4.47h0a113.42,113.42,0,0,1-12.75-4.25c-3.21-1.29-4.78-2.71-4.78-4.35s1.09-2.77,3.23-3.77a14.67,14.67,0,0,1,11,0c2.31,1.08,3,2.48,3,3.71h5c-.17-1.74-1.39-3.12-3.69-4.19s-5.59-1.6-9.86-1.6a23.81,23.81,0,0,0-9.58,1.89c-2.8,1.23-4.14,2.67-4,4.29s1.69,3.09,4.54,4.17c4.4,1.68,9.14,3.28,14.1,4.76,1.2.36,4.86,1.46,4.86,4.24,0,1.68-1.09,3-3.23,4a18.53,18.53,0,0,1-7.61,1.21A15.21,15.21,0,0,1,356.48,53a4.46,4.46,0,0,1-2.92-4.19v-.37Z"/><path class="cls-3" d="M420.41,57.06h-7.23a.9.9,0,0,1-.79-.48l-4-7.54H396.26l-4,7.54a.93.93,0,0,1-.8.48h-7.23a.89.89,0,0,1-.77-.44.91.91,0,0,1,0-.89L398.54,28.3a.91.91,0,0,1,.79-.46h6a.91.91,0,0,1,.79.46L421.2,55.73a.91.91,0,0,1,0,.89A.92.92,0,0,1,420.41,57.06Zm-6.68-1.8h5.16L404.82,29.64h-5L385.79,55.26H391l4-7.54a.91.91,0,0,1,.8-.48H409a.9.9,0,0,1,.79.48Zm-6.27-8.89H397.22a.9.9,0,0,1-.8-1.31l4.82-9.29a.93.93,0,0,1,.8-.48h.6a.9.9,0,0,1,.8.48l4.82,9.29a.9.9,0,0,1-.8,1.31Zm-8.76-1.8H406l-3.64-7Z"/><path class="cls-3" d="M444.21,57.06h-6.93a.9.9,0,0,1-.9-.9V44L422.47,29.36a.9.9,0,0,1,.65-1.52h6.93a.88.88,0,0,1,.65.28l10,10.58,10-10.58a.9.9,0,0,1,.65-.28h6.93a.9.9,0,0,1,.65,1.52L445.11,44V56.16A.9.9,0,0,1,444.21,57.06Zm-6-1.8h5.12V43.64a.9.9,0,0,1,.25-.62l12.71-13.38h-4.44L441.54,40.47a.92.92,0,0,1-.65.28h-.3a.92.92,0,0,1-.65-.28L429.66,29.64h-4.44L437.93,43a.9.9,0,0,1,.25.62Z"/><path class="cls-3" d="M479.44,57.06h-.3c-5.21,0-8.88-.54-11.22-1.63-3.34-1.56-5-3.78-5-6.58V28.74a.9.9,0,0,1,.9-.9h6.93a.9.9,0,0,1,.9.9V48.85a2.44,2.44,0,0,0,1.59,2.41,14.75,14.75,0,0,0,5.94.9h.3a13.78,13.78,0,0,0,5.64-.9c1.7-.79,1.89-1.75,1.89-2.41V28.74a.9.9,0,0,1,.9-.9h6.93a.9.9,0,0,1,.9.9V48.85c0,2.8-1.69,5-5,6.58C488.31,56.52,484.64,57.06,479.44,57.06ZM464.68,29.64V48.85c0,2.07,1.31,3.69,4,4.95,2.07,1,5.59,1.46,10.46,1.46h.3c4.87,0,8.39-.49,10.46-1.46,2.69-1.26,4-2.88,4-4.95V29.64h-5.12V48.85c0,1.22-.51,2.92-2.93,4A15.54,15.54,0,0,1,479.44,54h-.3a16.44,16.44,0,0,1-6.71-1.06,4.24,4.24,0,0,1-2.62-4V29.64Z"/><path class="cls-3" d="M535.76,57.06h-7.83a.91.91,0,0,1-.64-.27L514,43.39l-3.79,2.43V56.16a.9.9,0,0,1-.9.9h-6.93a.9.9,0,0,1-.9-.9V28.74a.9.9,0,0,1,.9-.9h6.93a.9.9,0,0,1,.9.9v9.84L525.92,28a.91.91,0,0,1,.5-.15h8.14a.89.89,0,0,1,.5,1.64L520,39.69l16.37,15.82a.91.91,0,0,1,.2,1A.88.88,0,0,1,535.76,57.06Zm-7.46-1.8h5.24L518,40.21a.86.86,0,0,1-.27-.72.87.87,0,0,1,.39-.67l13.54-9.18H526.7L509.76,41a.89.89,0,0,1-1.4-.74V29.64h-5.13V55.26h5.13V45.33a.9.9,0,0,1,.41-.76l4.82-3.09a.89.89,0,0,1,1.12.12Z"/><path class="cls-3" d="M563.17,57.06H549.61a.9.9,0,0,1-.9-.9v-3.1a.91.91,0,0,1,.9-.9H552V32.73h-2.42a.9.9,0,0,1-.9-.9V28.74a.9.9,0,0,1,.9-.9h13.56a.9.9,0,0,1,.9.9v3.09a.9.9,0,0,1-.9.9h-2.42V52.16h2.42a.91.91,0,0,1,.9.9v3.1A.9.9,0,0,1,563.17,57.06Zm-12.66-1.8h11.76V54h-2.42a.9.9,0,0,1-.9-.9V31.83a.9.9,0,0,1,.9-.9h2.42V29.64H550.51v1.29h2.42a.9.9,0,0,1,.9.9V53.06a.9.9,0,0,1-.9.9h-2.42Z"/></g><g class="cls-4"><path class="cls-5" d="M184.62,19.67c1,2.33,1.52,5.66,1.52,10a26.31,26.31,0,0,1-1.52,9.7,8.41,8.41,0,0,1-2.1,3.51l4.2,25.06h-2.8l-4-24.26h-3.27V67.91H174V15.35h5.84Q182.76,15.35,184.62,19.67Zm-2.1,16.44a17.15,17.15,0,0,0,.93-6.47,16.54,16.54,0,0,0-1-6.47c-.78-1.79-1.83-2.7-3.15-2.7h-2.57V38.53h3.39C181,38.53,181.82,37.72,182.52,36.11Z"/><path class="cls-5" d="M211.25,62h1.29v5.93h-5.26V62h1.29V21.28h-1.29V15.35h5.26v5.93h-1.29Z"/><path class="cls-5" d="M245.82,15.35V67.91h-3.27l-6.07-39.35h-.12V67.91h-2.68V15.35H237L243,54.71h.12V15.35Z"/><path class="cls-5" d="M272.1,22.36c-.54-1.25-1.16-1.89-1.86-1.89s-1.13.46-1.52,1.35q-2.58,5.94-2.57,21,0,13.2,1.87,17.52c.62,1.44,1.24,2.15,1.86,2.15.78,0,1.48-.71,2.11-2.15q1.39-3.24,1.4-10.79V44.46h-3.62V39.34h6V67.91h-2l-.35-4.85q-1.63,4.84-3.86,4.85-2,0-3.38-3.23-2.7-6.2-2.69-21.83,0-16.71,2.92-23.45c1.17-2.7,2.45-4,3.86-4s2.64,1,3.5,3q2,4.59,2,13.47h-2.45Q273.15,24.79,272.1,22.36Z"/><path class="cls-5" d="M295.46,67.91h-2.8l5.84-52.56h2.34l5.84,52.56h-2.81l-1.63-15.36H297.1Zm4.32-38.27h-.23l-1.87,17.79h4Z"/><path class="cls-5" d="M363,43.12q2.68,3.5,2.69,10.24a27.71,27.71,0,0,1-1.75,10.78c-1.09,2.52-2.61,3.77-4.56,3.77S356,66.75,355,64.41a25.55,25.55,0,0,1-1.87-10.24v-2.7h2.69V53.9a17.19,17.19,0,0,0,.93,6.47c.62,1.44,1.4,2.15,2.34,2.15a3,3,0,0,0,2.8-2.15,15.74,15.74,0,0,0,1.05-6.2,11.38,11.38,0,0,0-1.63-6.47,96.21,96.21,0,0,1-5.49-9.17,21,21,0,0,1-2-9.43,22.66,22.66,0,0,1,1.75-10q1.75-3.78,3.86-3.78,2.56,0,4,3.24,1.76,4,1.63,11.32h-2.68a16.58,16.58,0,0,0-.94-7.28c-.54-1.25-1.2-1.89-2-1.89s-1.44.64-2,1.89a14.15,14.15,0,0,0-1.05,5.66A14.76,14.76,0,0,0,358.07,35,53.62,53.62,0,0,0,363,43.12Z"/><path class="cls-5" d="M385.16,67.91h-2.8l5.84-52.56h2.34l5.84,52.56h-2.81l-1.63-15.36H386.8Zm4.33-38.27h-.24l-1.87,17.79h4Z"/><path class="cls-5" d="M415.06,15.35l4.09,21.3h.12l4.09-21.3H426l-5.49,28.57v24h-2.68v-24l-5.49-28.57Z"/><path class="cls-5" d="M443.09,15.35h2.69V53.9a16.81,16.81,0,0,0,.82,6.2A2.62,2.62,0,0,0,449.05,62h.12c1,0,1.79-.62,2.33-1.88a16,16,0,0,0,.94-6.2V15.35h2.68V53.9q0,7-1.75,11.05a4.33,4.33,0,0,1-4.2,3h-.12a4.33,4.33,0,0,1-4.2-3q-1.75-4.05-1.76-11.05Z"/><path class="cls-5" d="M473,67.91V15.35h2.68V37.46l6.66-22.11h3.15L479.3,36.11,486,67.91h-3l-5.37-26.68-1.87,5.93V67.91Z"/><path class="cls-5" d="M510.25,62h1.29v5.93h-5.26V62h1.29V21.28h-1.29V15.35h5.26v5.93h-1.29Z"/></g><path class="cls-3" d="M164.12,22q3.36,1,.34,2-.69,10.76-2.36,22.17l-6-2.69a152,152,0,0,0,2-23.52ZM157.4,73.75q9.73-9.39,9.74-27.21V3.21h5.38q2.68.33.33,2V25A42.39,42.39,0,0,0,179.57,17l3.7,5.38c1.12,1.56.67,2.24-1.35,2q-5.37,4.71-9.07,7.73V49.57Q181.25,58,184.28,65l-5,5A43.39,43.39,0,0,0,172.18,58Q170.83,69.39,162.1,79.8Zm66.18-27.21h7v5.38h-7v8.73H233V66h-9.41V79.46h-5.71V66H203.09V60.65h5V51.92h-3.7q-4.71,21.17-21.16,28.22l-3-6A34.5,34.5,0,0,0,193.35,63l-6-5.37-2.35,3-3.7-5A48.82,48.82,0,0,0,190,37.14a33,33,0,0,1-7.39,2.68l-2.36-6q14.12-4,22.51-11.09H184.28V17.32h19.14V2.54h5.38q2.69.33.33,2V17.32H230v5.37H210.14q8.73,6.39,21.84,9.74l-2.35,6.39q-10.08-2-20.5-10.75V40.83h-5.71V28.74A45.68,45.68,0,0,1,191,36.8l5,1.34c.9.9.56,1.46-1,1.68l-1,3.36h11.76l-.68,3.36h12.77V39.15h5.37q2.69.35.34,2ZM192,4.89a28,28,0,0,1,7.06,7.72l-6.05,4a23.75,23.75,0,0,0-6.38-8.06Zm-2,48.37,6,4.37a36.08,36.08,0,0,0,3-9.07h-6.72Zm22.84,7.39h5V51.92h-5Zm2-46.69q3.35-5.37,5.71-9.75l6.38,2.69c.89.9.56,1.46-1,1.68a76.36,76.36,0,0,1-5.37,8.4Z"/><path class="cls-3" d="M264.23,8.92h15.12l-.68,14.78c-.22,3.81-2.13,5.71-5.71,5.71h-7.72V24h6A1.48,1.48,0,0,0,273,22.36l.34-8.07h-9.41q0,13.11-18.47,19.49l-2.36-6.05q14.44-4,14.79-13.44h-12.1V8.92h12.77V1.86h5.37q2.69.34.34,2Zm39.3,57.78H293.12A72.52,72.52,0,0,0,315,72.41l-1.68,6.72q-17.47-2.7-26.21-8.4l3-4H269.6l2.69,3.69q1.68,2.35-1,2a65.43,65.43,0,0,1-24.52,6.72l-1.68-6.72a48,48,0,0,0,22.17-5.71H256.5V32.1h47Zm-5.71-24.86V37.47H262.21v4.37Zm0,5.37H262.21v4.37h35.61Zm0,9.75H262.21v4.36h35.61ZM285.06,7.57h27.88V28.74h-5.71V27.39H290.77v2h-5.71ZM307.23,13H290.77V22h16.46Z"/><path class="cls-3" d="M382.14,51.92c1.79.67,1.68,1.46-.33,2.35a105.58,105.58,0,0,1-5,17.8l-6-2.68a65.1,65.1,0,0,0,5-18.82Zm3-13.44,12.09-1.34a29.25,29.25,0,0,0-2-5l5-2A120.84,120.84,0,0,1,406,44.19l-6,2-1.35-4c-1.57.22-3.47.56-5.71,1V78.46h-6.72V43.86L374.75,45.2q-1.35,2.69-2.35,0l-1.34-6.05q3.35-.33,6.72-.33,3.35-4,6.71-7.73A141.32,141.32,0,0,0,371.73,21l3.69-5a29.75,29.75,0,0,0,3.36,2.35A99.78,99.78,0,0,0,389.2,1.86l6,3c.9.89.56,1.46-1,1.68a119.88,119.88,0,0,1-10.75,15.11,58.62,58.62,0,0,1,5.37,4,115.56,115.56,0,0,0,9.41-13.43L404,15.64c.89.89.56,1.46-1,1.68A229.32,229.32,0,0,1,385.17,38.48Zm17.46,10.41A51.41,51.41,0,0,1,408,63.34l-6.38,3a64.16,64.16,0,0,0-4.71-14.78Zm1,29.23-2-6.72q26.21-3.34,35.61-26.87L443,46.88q2,1,0,2Q431.52,75.1,403.64,78.12ZM416.74,16c1.12.23,1,.9-.33,2a81.46,81.46,0,0,1-5,26.2l-6.05-4.7A78.53,78.53,0,0,0,410,15Zm11.09,35.61c0,3.81-1.91,5.71-5.71,5.71h-5l-1.34-6.38h4.36a.89.89,0,0,0,1-1V3.54h6.38q2.68.34.34,2ZM436.23,15q7,8.41,11.76,24.19l-6.39,3.7Q436.89,26.73,430.52,18Z"/><path class="cls-3" d="M498.38,44.86h-6.72V21H465.12V32.43H458.4V15.64h33.26V10.26H465.79V3.88h58.79v6.38h-26.2v5.38H531.3V31.76h-6.72V21h-26.2ZM525.25,79.8h-6.72V77.45H465.79V71.07h52.74V64.35H465.79V59h52.74v-5H465.79V47.55h59.46ZM488,31.09H468.81V25.71H488Zm0,10.08H468.81V35.79H488Zm33.93-10.08H501.74V25.71h20.15Zm0,10.08H501.74V35.79h20.15Z"/><g class="cls-6"><path class="cls-5" d="M210.17,35.82a1.71,1.71,0,0,1,1.22,1.56c0,.62-.41,1.12-1.22,1.51a5.25,5.25,0,0,1-1.68.55l3.37,3.93h-2.25l-3.19-3.8H203.8v3.8h-2.16V35.14h4.69A9.4,9.4,0,0,1,210.17,35.82Zm-1.68,2.57a1.09,1.09,0,0,0,.75-1c0-.43-.29-.76-.85-1a6.28,6.28,0,0,0-2.53-.42H203.8v2.83h2.72A4.84,4.84,0,0,0,208.49,38.39Z"/><path class="cls-5" d="M231.55,42.44h1v.93h-4.22v-.93h1V36.07h-1v-.93h4.22v.93h-1Z"/><path class="cls-5" d="M259.3,35.14v8.23h-2.63l-4.87-6.16h-.1v6.16h-2.15V35.14h2.62l4.88,6.16h.09V35.14Z"/><path class="cls-5" d="M280.39,36.24a3.59,3.59,0,0,0-1.5-.3,3,3,0,0,0-1.22.21,3.33,3.33,0,0,0-2.06,3.29,2.71,2.71,0,0,0,1.5,2.75,3.7,3.7,0,0,0,1.5.33,4.18,4.18,0,0,0,1.69-.33,1.73,1.73,0,0,0,1.12-1.69v-.8h-2.9v-.81h4.78v4.48h-1.6l-.28-.76a6.1,6.1,0,0,1-3.09.76,6.57,6.57,0,0,1-2.72-.51,3.46,3.46,0,0,1-2.16-3.42,3.74,3.74,0,0,1,2.35-3.67,7.49,7.49,0,0,1,3.09-.63,6.94,6.94,0,0,1,2.81.46,2.29,2.29,0,0,1,1.6,2.11h-2A1.62,1.62,0,0,0,280.39,36.24Z"/><path class="cls-5" d="M299.14,43.37h-2.25l4.69-8.23h1.87l4.69,8.23h-2.25L304.58,41h-4.13Zm3.47-6h-.19l-1.5,2.78h3.19Z"/><path class="cls-5" d="M365.33,39.49c1.44.36,2.16.9,2.16,1.6s-.47,1.26-1.41,1.69a9.24,9.24,0,0,1-3.66.59,8.84,8.84,0,0,1-3.47-.55c-1-.45-1.5-1-1.5-1.61v-.42h2.16v.38a1.1,1.1,0,0,0,.75,1,4.69,4.69,0,0,0,1.88.33,5.93,5.93,0,0,0,2.25-.33c.56-.26.84-.58.84-1s-.44-.75-1.31-1c-1.57-.45-3-.93-4.41-1.43-1-.37-1.53-.86-1.59-1.48s.4-1.14,1.4-1.56a8,8,0,0,1,3.1-.59,7.92,7.92,0,0,1,3.18.51q1.41.63,1.32,1.77h-2.16c.13-.48-.13-.86-.75-1.14a4.39,4.39,0,0,0-3.19,0c-.56.25-.84.55-.84.89s.44.71,1.31,1A35.33,35.33,0,0,0,365.33,39.49Z"/><path class="cls-5" d="M383.14,43.37h-2.25l4.69-8.23h1.87l4.69,8.23h-2.25L388.58,41h-4.13Zm3.47-6h-.19l-1.5,2.78h3.19Z"/><path class="cls-5" d="M407.14,35.14l3.28,3.33h.1l3.28-3.33H416l-4.4,4.47v3.76h-2.16V39.61L405,35.14Z"/><path class="cls-5" d="M429.64,35.14h2.16v6a1,1,0,0,0,.65,1,5,5,0,0,0,2,.3h.1a4.64,4.64,0,0,0,1.87-.3,1.06,1.06,0,0,0,.75-1v-6h2.16v6c0,.73-.47,1.31-1.41,1.73a8.83,8.83,0,0,1-3.37.47h-.1a8.83,8.83,0,0,1-3.37-.47c-.94-.42-1.41-1-1.41-1.73Z"/><path class="cls-5" d="M453.64,43.37V35.14h2.16V38.6l5.34-3.46h2.53l-5,3.25,5.34,5h-2.44l-4.31-4.18-1.5.93v3.25Z"/><path class="cls-5" d="M483.55,42.44h1v.93h-4.22v-.93h1V36.07h-1v-.93h4.22v.93h-1Z"/></g><rect class="cls-7" width="680" height="82"/></g></g></svg>