<svg xmlns="http://www.w3.org/2000/svg" viewBox="0 0 680 82"><defs><style>.cls-1{isolation:isolate;}.cls-2{opacity:0.2;}.cls-2,.cls-4{mix-blend-mode:screen;}.cls-3{fill:#fff;}.cls-4{opacity:0.45;}.cls-5{fill:red;}.cls-6{opacity:0.85;}.cls-7{fill:none;opacity:0.19;}</style></defs><title>アートボード 346</title><g class="cls-1"><g id="CHARACTER"><g class="cls-2"><path class="cls-3" d="M113.22,57.73H106a.93.93,0,0,1-.8-.48l-4-7.54H89.07l-4,7.54a.9.9,0,0,1-.79.48H77.08a.92.92,0,0,1-.78-.44.91.91,0,0,1,0-.89L91.35,29a.91.91,0,0,1,.79-.46h6A.91.91,0,0,1,99,29L114,56.4a.9.9,0,0,1-.79,1.33Zm-6.69-1.8h5.17L97.63,30.31h-5L78.6,55.93h5.16l4-7.53a.89.89,0,0,1,.79-.49h13.25a.9.9,0,0,1,.8.49ZM100.27,47H90a.9.9,0,0,1-.8-1.31l4.82-9.28a.89.89,0,0,1,.8-.49h.6a.9.9,0,0,1,.8.49l4.82,9.28a.9.9,0,0,1-.8,1.31Zm-8.76-1.8h7.28l-3.64-7Z"/><path class="cls-3" d="M149.06,57.73h-8.44a.9.9,0,0,1-.71-.35L125.56,38.57V56.83a.9.9,0,0,1-.9.9h-6.92a.9.9,0,0,1-.9-.9V29.41a.9.9,0,0,1,.9-.9h8.43a.9.9,0,0,1,.71.35l14.35,18.81V29.41a.9.9,0,0,1,.9-.9h6.93a.9.9,0,0,1,.9.9V56.83A.9.9,0,0,1,149.06,57.73Zm-8-1.8h7.09V30.31H143V49.94a.9.9,0,0,1-.9.9h-.3a.91.91,0,0,1-.72-.35L125.72,30.31h-7.08V55.93h5.12V36.3a.9.9,0,0,1,.9-.9h.3a.91.91,0,0,1,.72.35Z"/><path class="cls-3" d="M190.32,57.73h-7.23a.93.93,0,0,1-.8-.48l-4-7.54H166.17l-4,7.54a.9.9,0,0,1-.79.48h-7.23a.92.92,0,0,1-.78-.44.91.91,0,0,1,0-.89L168.45,29a.91.91,0,0,1,.79-.46h6a.91.91,0,0,1,.79.46L191.11,56.4a.91.91,0,0,1,0,.89A.89.89,0,0,1,190.32,57.73Zm-6.69-1.8h5.17L174.73,30.31h-5L155.7,55.93h5.16l4-7.53a.92.92,0,0,1,.8-.49h13.25a.9.9,0,0,1,.8.49ZM177.37,47H167.13a.9.9,0,0,1-.8-1.31l4.82-9.28A.89.89,0,0,1,172,36h.6a.9.9,0,0,1,.8.49l4.82,9.28a.9.9,0,0,1-.8,1.31Zm-8.76-1.8h7.28l-3.64-7Z"/><path class="cls-3" d="M226.76,57.73H194.53a.9.9,0,0,1-.9-.9V54.16a.89.89,0,0,1,.3-.67L216.59,33H196.34a.9.9,0,0,1-.9-.9V29.41a.9.9,0,0,1,.9-.9h29.52a.9.9,0,0,1,.9.9v2.67a.91.91,0,0,1-.3.67L203.8,53.26h23a.9.9,0,0,1,.9.9v2.67A.9.9,0,0,1,226.76,57.73Zm-31.32-1.8h30.42v-.87h-24.4a.91.91,0,0,1-.84-.58.9.9,0,0,1,.24-1L225,31.68V30.31H197.24v.87h21.69a.9.9,0,0,1,.6,1.57L195.44,54.56Z"/><path class="cls-3" d="M267.42,57.73h-7.23a.93.93,0,0,1-.8-.48l-4-7.54H243.27l-4,7.54a.9.9,0,0,1-.79.48h-7.23a.91.91,0,0,1-.78-.44.89.89,0,0,1,0-.89L245.55,29a.9.9,0,0,1,.79-.46h6a.91.91,0,0,1,.79.46L268.21,56.4a.91.91,0,0,1,0,.89A.89.89,0,0,1,267.42,57.73Zm-6.69-1.8h5.17L251.83,30.31h-5L232.8,55.93H238l4-7.53a.92.92,0,0,1,.8-.49H256a.9.9,0,0,1,.8.49ZM254.47,47H244.23a.89.89,0,0,1-.77-.43.87.87,0,0,1,0-.88l4.82-9.28a.89.89,0,0,1,.8-.49h.6a.9.9,0,0,1,.8.49l4.82,9.28a.9.9,0,0,1-.8,1.31Zm-8.76-1.8H253l-3.64-7Z"/><path class="cls-3" d="M299.34,57.73h-6a.9.9,0,0,1-.87-.67L287.6,38.68l-4.86,18.38a.9.9,0,0,1-.87.67h-6A.88.88,0,0,1,275,57l-6.63-27.42a.92.92,0,0,1,.17-.77.89.89,0,0,1,.71-.34h6a.91.91,0,0,1,.88.7l3.38,15.17,3.9-15.2a.9.9,0,0,1,.87-.67h6.63a.9.9,0,0,1,.87.67l3.91,15.2,3.38-15.17a.89.89,0,0,1,.87-.7h6a.88.88,0,0,1,.7.34.86.86,0,0,1,.17.77L300.22,57A.9.9,0,0,1,299.34,57.73ZM294,55.93h4.62l6.19-25.62h-4.15l-3.76,16.87a.91.91,0,0,1-.88.71h-.6a.92.92,0,0,1-.88-.68l-4.34-16.9H285l-4.34,16.9a.91.91,0,0,1-.87.68h-.61a.92.92,0,0,1-.88-.71l-3.75-16.87h-4.16l6.19,25.62h4.62l5.24-19.86a.91.91,0,0,1,.87-.67h.61a.9.9,0,0,1,.87.67Z"/><path class="cls-3" d="M344.52,57.73h-7.23a.91.91,0,0,1-.8-.48l-4-7.54H320.37l-4,7.54a.9.9,0,0,1-.79.48h-7.23a.91.91,0,0,1-.78-.44.89.89,0,0,1,0-.89L322.65,29a.9.9,0,0,1,.79-.46h6a.91.91,0,0,1,.79.46L345.31,56.4a.91.91,0,0,1,0,.89A.89.89,0,0,1,344.52,57.73Zm-6.69-1.8H343L328.93,30.31h-5L309.9,55.93h5.16l4-7.53a.92.92,0,0,1,.8-.49h13.25a.9.9,0,0,1,.8.49ZM331.57,47H321.33a.89.89,0,0,1-.77-.43.87.87,0,0,1,0-.88l4.82-9.28a.89.89,0,0,1,.8-.49h.6a.92.92,0,0,1,.8.49l4.82,9.28a.9.9,0,0,1-.8,1.31Zm-8.76-1.8h7.28l-3.64-7Z"/><path class="cls-3" d="M418.91,57.73h-8.44a.9.9,0,0,1-.71-.35L395.41,38.57V56.83a.9.9,0,0,1-.9.9h-6.93a.9.9,0,0,1-.9-.9V29.41a.9.9,0,0,1,.9-.9H396a.9.9,0,0,1,.71.35l14.35,18.81V29.41a.9.9,0,0,1,.9-.9h6.93a.9.9,0,0,1,.9.9V56.83A.9.9,0,0,1,418.91,57.73Zm-8-1.8H418V30.31h-5.13V49.94a.9.9,0,0,1-.9.9h-.3a.91.91,0,0,1-.72-.35L395.57,30.31h-7.08V55.93h5.12V36.3a.9.9,0,0,1,.9-.9h.3a.91.91,0,0,1,.72.35Z"/><path class="cls-3" d="M448.72,57.73H435.17a.9.9,0,0,1-.9-.9V53.74a.9.9,0,0,1,.9-.9h2.41V33.4h-2.41a.9.9,0,0,1-.9-.9V29.41a.9.9,0,0,1,.9-.9h13.55a.9.9,0,0,1,.9.9V32.5a.9.9,0,0,1-.9.9h-2.41V52.84h2.41a.9.9,0,0,1,.9.9v3.09A.9.9,0,0,1,448.72,57.73Zm-12.65-1.8h11.75V54.64h-2.41a.9.9,0,0,1-.9-.9V32.5a.9.9,0,0,1,.9-.9h2.41V30.31H436.07V31.6h2.41a.9.9,0,0,1,.9.9V53.74a.9.9,0,0,1-.9.9h-2.41Z"/><path class="cls-3" d="M480.35,57.73a25.13,25.13,0,0,1-10.63-2,8.09,8.09,0,0,1-5-7.85v-2a.9.9,0,0,1,.9-.9h6.93a.9.9,0,0,1,.9.9v2.67c0,1.82.6,2.95,1.88,3.55A11.32,11.32,0,0,0,480,53a13.1,13.1,0,0,0,5.35-.9c1.47-.69,2.19-2,2.19-4.11V29.41a.9.9,0,0,1,.9-.9h6.92a.9.9,0,0,1,.9.9V47.83a8.09,8.09,0,0,1-5,7.85A25.92,25.92,0,0,1,480.35,57.73Zm-13.86-11v1.07a6.35,6.35,0,0,0,4,6.22,23.28,23.28,0,0,0,9.86,1.88,24.16,24.16,0,0,0,10.16-1.88,6.34,6.34,0,0,0,4-6.22V30.31h-5.12V48c0,2.81-1.09,4.74-3.23,5.74A14.46,14.46,0,0,1,480,54.78a13,13,0,0,1-5.5-1.07c-1.94-.91-2.92-2.65-2.92-5.18V46.76Z"/><path class="cls-3" d="M525.82,57.73H512.27a.9.9,0,0,1-.9-.9V53.74a.9.9,0,0,1,.9-.9h2.41V33.4h-2.41a.9.9,0,0,1-.9-.9V29.41a.9.9,0,0,1,.9-.9h13.55a.9.9,0,0,1,.9.9V32.5a.9.9,0,0,1-.9.9h-2.41V52.84h2.41a.9.9,0,0,1,.9.9v3.09A.9.9,0,0,1,525.82,57.73Zm-12.65-1.8h11.75V54.64h-2.41a.9.9,0,0,1-.9-.9V32.5a.9.9,0,0,1,.9-.9h2.41V30.31H513.17V31.6h2.41a.9.9,0,0,1,.9.9V53.74a.9.9,0,0,1-.9.9h-2.41Z"/><path class="cls-3" d="M574,57.73h-6a.9.9,0,0,1-.9-.9v-17L561,57.13a.88.88,0,0,1-.84.6h-4.82a.9.9,0,0,1-.85-.6l-6.08-17.28v17a.9.9,0,0,1-.9.9h-6a.9.9,0,0,1-.9-.9V29.41a.9.9,0,0,1,.9-.9h9.64a.91.91,0,0,1,.85.6l5.78,16.31,5.77-16.31a.91.91,0,0,1,.85-.6H574a.9.9,0,0,1,.9.9V56.83A.9.9,0,0,1,574,57.73Zm-5.12-1.8h4.22V30.31H565L558.9,47.57a.91.91,0,0,1-.85.6h-.6a.89.89,0,0,1-.85-.6l-6.11-17.26h-8.11V55.93h4.23V36.3a.9.9,0,0,1,.9-.9h.6a.91.91,0,0,1,.85.6l7,19.93h3.55l7-19.93a.91.91,0,0,1,.85-.6H568a.9.9,0,0,1,.9.9Z"/><path class="cls-3" d="M602.92,57.73H589.37a.9.9,0,0,1-.9-.9V53.74a.9.9,0,0,1,.9-.9h2.41V33.4h-2.41a.9.9,0,0,1-.9-.9V29.41a.9.9,0,0,1,.9-.9h13.55a.9.9,0,0,1,.9.9V32.5a.9.9,0,0,1-.9.9h-2.41V52.84h2.41a.9.9,0,0,1,.9.9v3.09A.9.9,0,0,1,602.92,57.73Zm-12.65-1.8H602V54.64h-2.41a.9.9,0,0,1-.9-.9V32.5a.9.9,0,0,1,.9-.9H602V30.31H590.27V31.6h2.41a.9.9,0,0,1,.9.9V53.74a.9.9,0,0,1-.9.9h-2.41Z"/></g><g class="cls-4"><path class="cls-5" d="M147.17,68.58h-2.81L150.2,16h2.34l5.84,52.55h-2.8l-1.64-15.36H148.8Zm4.32-38.27h-.23L149.39,48.1h4Z"/><path class="cls-5" d="M187.23,16V68.58H184l-6.07-39.35h-.12V68.58h-2.69V16h3.27l6.08,39.35h.11V16Z"/><path class="cls-5" d="M207,68.58h-2.81L210,16h2.34l5.84,52.55h-2.8l-1.64-15.36H208.6Zm4.32-38.27h-.23L209.19,48.1h4Z"/><path class="cls-5" d="M235.47,16h11.44v5.12l-9.46,42.31h9.81v5.12H234.77V63.46l9.46-42.31h-8.76Z"/><path class="cls-5" d="M266.77,68.58H264L269.8,16h2.34L278,68.58h-2.8l-1.64-15.36H268.4Zm4.32-38.27h-.23L269,48.1h4Z"/><path class="cls-5" d="M293.63,16H296l1.52,33.69h.23L299.47,16H302l1.75,33.69H304L305.54,16h2.34l-2.57,52.55H303l-2.11-39.35h-.23l-2.1,39.35H296.2Z"/><path class="cls-5" d="M326.57,68.58h-2.8L329.61,16h2.33l5.84,52.55H335l-1.64-15.36H328.2Zm4.32-38.27h-.23L328.79,48.1h4Z"/><path class="cls-5" d="M396.53,16V68.58h-3.27l-6.07-39.35h-.12V68.58h-2.69V16h3.27l6.08,39.35h.11V16Z"/><path class="cls-5" d="M421.76,62.65H423v5.93h-5.25V62.65h1.28V22h-1.28V16H423V22h-1.28Z"/><path class="cls-5" d="M456.1,51.33q0,9.45-1.75,13.48c-1.1,2.52-2.46,3.77-4.09,3.77s-2.88-1.25-4-3.77q-1.76-4-1.76-13.48V47.56h2.69v5.12c0,4.14.31,6.92.93,8.36.55,1.26,1.21,1.88,2,1.88.93,0,1.67-.62,2.22-1.88.7-1.62,1.05-4.76,1.05-9.44V16h2.69Z"/><path class="cls-5" d="M481.56,62.65h1.28v5.93h-5.25V62.65h1.28V22h-1.28V16h5.25V22h-1.28Z"/><path class="cls-5" d="M506.2,29.23V68.58h-2.33V16h3.73l2.46,34.23h.23L512.74,16h3.74V68.58h-2.33V29.23h-.24l-2.8,39.35h-1.87l-2.8-39.35Z"/><path class="cls-5" d="M541.36,62.65h1.28v5.93h-5.25V62.65h1.28V22h-1.28V16h5.25V22h-1.28Z"/></g><path class="cls-3" d="M178.43,73.75Q198.91,57,203.62,33.44l8.73,2.69q1.35,1.68-1.34,2-5,23.52-26.2,41.66Zm41-70.54q3.36.68.34,2.68V16h31.57V35.12H243.6V22.36H189.18V35.12h-7.73V16H212V3.21Zm10.08,29.9q5,24.86,25.86,39l-5.71,7.39q-21.84-16.12-27.54-44Z"/><path class="cls-3" d="M270.47,76.11l-6-5q6.38-9.07,13.1-24.53l6,4.37a126.91,126.91,0,0,1-11.42,23.52Q273.15,78.45,270.47,76.11Zm1-51.74a53,53,0,0,1,12.43,8.4l-4.37,7a47.4,47.4,0,0,0-12.43-8.73Zm3.36-18.81A80.81,80.81,0,0,1,287.27,14l-4.7,6.72a72.68,72.68,0,0,0-12.43-9.07Zm62.82,73.9q-23.85-11.08-27.55-41.65H299.7V45.2q0,23.17-14.45,34.6l-5.37-5.37Q293,64.35,293,43.52V7.24h40.65V41.17h-6.72V37.81H316.5q3.35,25.53,24.85,33.93Zm-38-48h27.21V13.62H299.7Z"/><path class="cls-3" d="M391.41,66,385,69.39l-1-3-30.24,9.41c-.22,1.56-.78,1.9-1.68,1l-2-7.73,16.46-3.36V47.55h-6.38v5.38h-6.72V18.66h13.1V3.88h5.38c1.79.22,1.9.9.33,2V18.66H385.7V47.55H372.26V64L382,61.32a43.73,43.73,0,0,0-4.7-8.06L383,50.91A37.51,37.51,0,0,1,391.41,66ZM366.55,24h-6.38V42.18h6.38ZM379,24h-6.72V42.18H379Zm8.06,45h15.79V17.65H389.39V11.27h33.93v6.38H409.55v51.4h16.8v6.38H387Z"/><path class="cls-3" d="M435.75,72.75a81.66,81.66,0,0,0,11.76-23.86l5.71,4.37Q450.86,64,443.48,76.44q.33,3.36-1.68,1.68Zm12.43-31.92a68.62,68.62,0,0,0-12.09-8.4l4.7-6.38a47.54,47.54,0,0,1,12.1,8.06Zm3.36-20.15a83.76,83.76,0,0,0-12.43-9.07l5.38-6.39A69,69,0,0,1,457.25,14Zm52.74,5V44.53H513v6.38h-8.74l-.67,12.77h7.06v6.38h-7.39l-.68,5q-.68,4.7-5,4.7H488.5l-1.35-6.38h7.39a1.58,1.58,0,0,0,1.68-1.35l.34-2H466l-.67,5H458.6l2.68-24.19h-8.06V44.53h8.4l1-16.46a61.84,61.84,0,0,1-5.38,5.37l-5-5.71Q463.64,18,468.68,2.2l7.05,2.35q1.68.67-1,1.68l-2.35,5.71h38v6.38h-41A31.09,31.09,0,0,1,464,25.71Zm-24.85,25.2H468l-1,12.77h11.42ZM469.35,32.1l-1,12.43h11.42l.34-12.43Zm16.79,18.81-1,12.77h11.75l.68-12.77Zm.34-6.38h11.09V32.1H486.82Z"/><g class="cls-6"><path class="cls-5" d="M186.35,44H184.1l4.68-8.23h1.88L195.35,44H193.1l-1.32-2.41h-4.12Zm3.47-6h-.19l-1.5,2.78h3.19Z"/><path class="cls-5" d="M218.5,35.81V44h-2.62L211,37.88h-.09V44h-2.16V35.81h2.63L216.25,42h.1V35.81Z"/><path class="cls-5" d="M234.35,44H232.1l4.68-8.23h1.88L243.35,44H241.1l-1.32-2.41h-4.12Zm3.47-6h-.19l-1.5,2.78h3.19Z"/><path class="cls-5" d="M257.22,35.81h9.19v.8l-7.59,6.63h7.87V44h-10v-.8l7.59-6.63h-7Z"/><path class="cls-5" d="M282.35,44H280.1l4.68-8.23h1.88L291.35,44H289.1l-1.32-2.41h-4.12Zm3.47-6h-.19l-1.5,2.78h3.19Z"/><path class="cls-5" d="M303.91,35.81h1.87L307,41.09h.19l1.41-5.28h2.06l1.41,5.28h.18l1.22-5.28h1.88L313.28,44h-1.87l-1.69-6.16h-.19L307.85,44H306Z"/><path class="cls-5" d="M330.35,44H328.1l4.68-8.23h1.88L339.35,44H337.1l-1.32-2.41h-4.12Zm3.47-6h-.19l-1.5,2.78h3.19Z"/><path class="cls-5" d="M386.5,35.81V44h-2.62L379,37.88h-.09V44h-2.16V35.81h2.63L384.25,42h.1V35.81Z"/><path class="cls-5" d="M406.75,43.11h1V44h-4.22v-.93h1V36.74h-1v-.93h4.22v.93h-1Z"/><path class="cls-5" d="M434.31,41.34a2.16,2.16,0,0,1-1.4,2.11,8.08,8.08,0,0,1-3.28.59,7.8,7.8,0,0,1-3.19-.59A2.17,2.17,0,0,1,425,41.34v-.59h2.16v.8a1.3,1.3,0,0,0,.75,1.31,4,4,0,0,0,1.59.29,4.52,4.52,0,0,0,1.78-.29,1.47,1.47,0,0,0,.85-1.48V35.81h2.15Z"/><path class="cls-5" d="M454.75,43.11h1V44h-4.22v-.93h1V36.74h-1v-.93h4.22v.93h-1Z"/><path class="cls-5" d="M474.53,37.88V44h-1.87V35.81h3l2,5.36h.19l2-5.36h3V44h-1.87V37.88h-.19L478.47,44H477l-2.25-6.16Z"/><path class="cls-5" d="M502.75,43.11h1V44h-4.21v-.93h1V36.74h-1v-.93h4.21v.93h-1Z"/></g><rect class="cls-7" width="680" height="82"/></g></g></svg>