<svg xmlns="http://www.w3.org/2000/svg" viewBox="0 0 99 13"><defs><style>.cls-1{fill:none;opacity:0.12;}.cls-2{fill-rule:evenodd;}</style></defs><title>アートボード 50</title><g id="comon"><g id="見出し"><rect class="cls-1" width="99" height="13"/><path class="cls-2" d="M13.07,9.94l-1.55,0v.74h2.33s0,0,0,0h.75c0-.77,0-1.55,0-2.33H13.07Z"/><path class="cls-2" d="M9.07,8.4H8.32v-4h.75v-.3H7.56V2.37H9.9V2h1.62v.35h3.1V2.06H14.1a.75.75,0,0,1-.28,0V1.27l-1.58,0V.48H9.94v.75H8.32V2h-.8v.83H6.77l0,1.85h0v.53H6v2.3h.75c0,.79,0,1.58,0,2.37h.75v.82h3.13V10l-1.54,0C9.09,9.43,9.08,8.91,9.07,8.4Z"/><path class="cls-2" d="M35.24,10.77v-.64h0l0-1.73h-.75c0-.79,0-1.59,0-2.38h-.75l0-2.92h0V2.85h-.75V2.23H29.72c0,.47,0,.94,0,1.42H29l0,2.37h-.75c0,1.06,0,2.11,0,3.17h-.76c0,.31,0,.63,0,.94h1.56V9.9h.75c0-.51,0-1,0-1.54h3.17c0,.51,0,1,0,1.54h.75v1.63l2.34,0v-.72h-.76Zm-4.79-4c0-.81,0-1.63,0-2.45h.75V3.57h.84c0,1.08,0,2.16,0,3.24Z"/><rect x="37.62" y="10.97" width="1.58" height="0.56"/><path class="cls-2" d="M43.16,11.53l2.34,0V11H43.16Z"/><path class="cls-2" d="M63,2.89h1.58V2h-.79V1.23H62.13V.48H59.84v.75H58.21V2h-.79v.83h-.75v0h0a3.22,3.22,0,0,1,0,.72V9.15a3.54,3.54,0,0,1,0,.75h.75v.83h.83v.76l2.38,0-1.44,0V10l1.36,0L59,9.94,59,8.4h-.75v-4H59l0-.58h0L59,3V2.81l1.24,0h.31V2h1.62v.79H63c0,.52,0,1,0,1.55Z"/><path class="cls-2" d="M69.93.48V4.63H69.3v6.9h1.58V2.77H74c0-.51,0-1,0-1.54a3.54,3.54,0,0,1,0-.75Z"/><polygon class="cls-2" points="79.45 5.19 78.01 5.19 78.01 3.03 75.68 3.03 75.68 5.23 79.45 5.23 79.45 5.19"/><rect x="10.73" y="11.63" width="0.71" height="0.65"/><path class="cls-2" d="M13.07,4.06V4.4h1.58V4.06Z"/><path class="cls-2" d="M23.4.48a3,3,0,0,1,0,.75v4H18.61v-4a3.54,3.54,0,0,1,0-.75h-1.5a3.54,3.54,0,0,1,0,.75V5.37h2.21v.38H25V1.23a3.54,3.54,0,0,1,0-.75Z"/><polygon class="cls-2" points="17.03 8.1 17.03 9.71 17.03 11.53 18.61 11.53 18.61 9.71 18.61 8.1 18.61 7.06 17.03 7.06 17.03 8.1"/><polygon class="cls-2" points="23.36 8.1 23.36 9.71 23.36 11.53 24.95 11.53 24.95 9.71 24.95 8.1 24.95 7.06 23.36 7.06 23.36 8.1"/><path class="cls-2" d="M44.75,2H44V1.23H42V2.75h-.38v0l1.54,0V5.19l-4,0V2.77H40v0H37.62v6.6H39.2V6.77h2.38v.16h0c0,.46,0,.93,0,1.39h.75l0,2.37c0-.44,0-.89,0-1.34h2.32V9.19H44c0-.53,0-1.06,0-1.58h-.76V6.73h.76a2.52,2.52,0,0,1,0-.79h.75V5.82h0c0-.49,0-1,0-1.46h.75V3.65h-.75Z"/><path class="cls-2" d="M55,10.59h0c0-.73,0-1.46,0-2.19h-.75c0-.79,0-1.59,0-2.38h-.75l0-1h0c0-.46,0-.92,0-1.38h-.75l0-1.64h0V1.27a2.84,2.84,0,0,1-.79,0V.48H50.33v.75s0,0,0,0h-.75V2h0l0,1.64h-.75c0,.79,0,1.58,0,2.37H48c0,.79,0,1.59,0,2.38h-.76c0,1,0,2.08,0,3.13h1.59V9.9h.75c0-.51,0-1,0-1.54h3.17c0,.51,0,1,0,1.54h.75v1.63l2.34,0v-.72H55Zm-4.75-7h.83v.79h.76c0,.82,0,1.64,0,2.45H50.25C50.27,5.73,50.28,4.65,50.29,3.57Z"/><path class="cls-2" d="M63,8.4c0,.23,0,.47,0,.7H65.3V8.4l-1.54,0A3.64,3.64,0,0,1,63,8.4Z"/><path class="cls-2" d="M75.68,9.93H78V6.77h3.17a3.54,3.54,0,0,1,.75,0v-1H75.68Z"/><path class="cls-2" d="M92.24,9.72H89.92c0,.33,0,.65,0,1h.75v.84l2.34,0v-.72h-.75Z"/><path class="cls-2" d="M92.27,3.65V2h-.79V1.23H89.06V.48H85.18a3.54,3.54,0,0,1,0,.75V9h.44V3.7h1.14V2.77h.76V2h1.66v.75l1.54,0V3.7H93V3.65Z"/><rect x="85.14" y="9.72" width="1.58" height="1.8"/></g></g></svg>