<svg xmlns="http://www.w3.org/2000/svg" viewBox="0 0 680 82"><defs><style>.cls-1{isolation:isolate;}.cls-2{opacity:0.2;}.cls-2,.cls-4{mix-blend-mode:screen;}.cls-3{fill:#fff;}.cls-4{opacity:0.45;}.cls-5{fill:red;}.cls-6{opacity:0.85;}.cls-7{fill:none;opacity:0.19;}</style></defs><title>アートボード 343</title><g class="cls-1"><g id="CHARACTER"><g class="cls-2"><path class="cls-3" d="M126.3,57.33h-8.85a.88.88,0,0,1-.79-.48l-4.91-9.33H96.63l-4.91,9.33a.88.88,0,0,1-.79.48H82.08a.89.89,0,0,1-.77-.44.91.91,0,0,1,0-.89L99.72,22.45a.89.89,0,0,1,.78-.47h7.37a.9.9,0,0,1,.79.47L127.09,56a.91.91,0,0,1,0,.89A.89.89,0,0,1,126.3,57.33Zm-8.3-1.8h6.78L107.34,23.78H101L83.6,55.53h6.78l4.91-9.32a.88.88,0,0,1,.79-.48H112.3a.88.88,0,0,1,.79.48Zm-7.55-11.27H97.93a.89.89,0,0,1-.77-.44.87.87,0,0,1,0-.88L103,31.59a.92.92,0,0,1,.8-.49h.74a.92.92,0,0,1,.8.49l5.89,11.35a.87.87,0,0,1,0,.88A.89.89,0,0,1,110.45,44.26Zm-11-1.8H109l-4.78-9.22Z"/><path class="cls-3" d="M151,57.33c-6,0-10.72-.78-14-2.32-4.26-2-6.42-4.46-6.42-7.35V45.94a.9.9,0,0,1,.91-.9h8.47a.9.9,0,0,1,.9.9v1.55c0,1.48.77,2.54,2.43,3.31a16.53,16.53,0,0,0,7,1.29c3.77,0,6.62-.43,8.46-1.29s2.79-1.91,2.79-3.14c0-1.58-2.45-2.65-4.51-3.27-6.13-1.83-12-3.8-17.38-5.87-4.26-1.61-6.56-3.89-6.84-6.78s1.75-5.39,6.06-7.27A31.16,31.16,0,0,1,151.35,22c5.51,0,9.86.73,12.91,2.15,4,1.89,6,4.62,5.68,8.11a.9.9,0,0,1-.9.83h-8.48a.93.93,0,0,1-.71-.34.91.91,0,0,1-.16-.78c.24-.94.24-2.34-2.46-3.61a16,16,0,0,0-11.76,0c-1.86.87-2.8,1.81-2.8,2.8,0,.61.6,1.87,4.59,3.47a135.2,135.2,0,0,0,15.38,5.12c6.06,1.61,9.14,4.1,9.14,7.41s-2,5.83-6.05,7.7C162.19,56.49,157.23,57.33,151,57.33ZM132.36,46.84v.82c0,2.13,1.8,4.06,5.37,5.72,3.06,1.43,7.51,2.15,13.25,2.15,6,0,10.69-.78,14-2.32s5-3.56,5-6.07-2.63-4.3-7.8-5.67h0a138.61,138.61,0,0,1-15.57-5.19c-3.85-1.54-5.73-3.22-5.73-5.14,0-1.75,1.29-3.24,3.84-4.43a17.76,17.76,0,0,1,13.29,0c2.84,1.33,3.6,3.07,3.58,4.56h6.57c-.14-2.3-1.67-4.11-4.65-5.51-2.82-1.31-6.9-2-12.15-2a29.38,29.38,0,0,0-11.8,2.34c-3.51,1.53-5.19,3.37-5,5.45s2.12,3.92,5.69,5.27c5.36,2,11.17,4,17.25,5.83,3.91,1.17,5.81,2.8,5.81,5,0,2-1.29,3.58-3.84,4.77-2.11,1-5.12,1.46-9.22,1.46a18.29,18.29,0,0,1-7.75-1.46C139.63,51.1,139,49,139,47.49v-.65Z"/><path class="cls-3" d="M220.62,57.33h-8.84a.89.89,0,0,1-.8-.48l-4.9-9.33H191l-4.9,9.33a.91.91,0,0,1-.8.48h-8.84a.91.91,0,0,1-.78-.44.88.88,0,0,1,0-.89L194,22.45a.9.9,0,0,1,.79-.47h7.37a.9.9,0,0,1,.79.47L221.41,56a.91.91,0,0,1,0,.89A.92.92,0,0,1,220.62,57.33Zm-8.3-1.8h6.78L201.67,23.78h-6.31L177.93,55.53h6.78l4.9-9.32a.89.89,0,0,1,.8-.48h16.21a.91.91,0,0,1,.8.48Zm-7.54-11.27H192.25a.91.91,0,0,1-.77-.44.92.92,0,0,1,0-.88l5.9-11.35a.89.89,0,0,1,.8-.49h.73a.89.89,0,0,1,.8.49l5.9,11.35a.91.91,0,0,1-.8,1.32Zm-11.05-1.8h9.57l-4.79-9.22Z"/><path class="cls-3" d="M264.47,57.33H258.2a.88.88,0,0,1-.84-.6l-.75-2.09a24.54,24.54,0,0,1-11.67,2.69,26.08,26.08,0,0,1-11.07-2.15c-6-2.78-9-7.74-9-14.75,0-7.46,3.27-12.77,9.73-15.78A29.4,29.4,0,0,1,247.15,22c4.77,0,8.62.67,11.43,2,4.5,2.1,6.79,5.27,6.79,9.42a.9.9,0,0,1-.9.9h-7.74a.9.9,0,0,1-.9-.83c-.22-2.66-1.25-4.39-3.16-5.28h0a13.08,13.08,0,0,0-5.52-1.12,10.5,10.5,0,0,0-4.41.78c-5.1,2.38-7.59,6.5-7.59,12.6,0,5.29,1.76,8.68,5.38,10.37A12.93,12.93,0,0,0,246,52.09a14.66,14.66,0,0,0,6.26-1.29,6.2,6.2,0,0,0,3.9-6.07V42.36H245.68a.9.9,0,0,1-.9-.9V38.19a.9.9,0,0,1,.9-.9h18.79a.91.91,0,0,1,.9.9V56.43A.9.9,0,0,1,264.47,57.33Zm-5.63-1.8h4.73V39.09h-17v1.47H257.1a.9.9,0,0,1,.9.9v3.27a7.94,7.94,0,0,1-4.94,7.7,16.48,16.48,0,0,1-7,1.46,14.72,14.72,0,0,1-6.27-1.46c-4.26-2-6.42-6-6.42-12,0-6.77,2.91-11.56,8.63-14.23a12.24,12.24,0,0,1,5.17-.95,14.79,14.79,0,0,1,6.27,1.29h0a7.27,7.27,0,0,1,4.1,5.94h6c-.31-3-2.18-5.24-5.7-6.89-2.57-1.2-6.16-1.81-10.67-1.81a27.58,27.58,0,0,0-11.78,2.5c-5.85,2.73-8.69,7.36-8.69,14.15,0,6.33,2.6,10.62,7.95,13.12a24.31,24.31,0,0,0,10.31,2,22.43,22.43,0,0,0,11.7-3A.91.91,0,0,1,258,53Z"/><path class="cls-3" d="M300.94,57.33H284.36a.9.9,0,0,1-.9-.9V52.65a.9.9,0,0,1,.9-.9h3.16V27.57h-3.16a.9.9,0,0,1-.9-.9V22.88a.91.91,0,0,1,.9-.9h16.58a.9.9,0,0,1,.9.9v3.79a.9.9,0,0,1-.9.9h-3.15V51.75h3.15a.9.9,0,0,1,.9.9v3.78A.9.9,0,0,1,300.94,57.33Zm-15.68-1.8H300v-2h-3.15a.9.9,0,0,1-.9-.9v-26a.9.9,0,0,1,.9-.9H300v-2H285.26v2h3.16a.9.9,0,0,1,.9.9v26a.91.91,0,0,1-.9.9h-3.16Z"/><path class="cls-3" d="M361,57.33h-8.84a.9.9,0,0,1-.7-.33L339.2,41.85h-9V56.43a.9.9,0,0,1-.9.9h-8.48a.9.9,0,0,1-.9-.9V22.88a.9.9,0,0,1,.9-.9h18.42c6.24,0,11.45,1,15.49,2.84h0c3.52,1.65,5.31,4.06,5.31,7.18,0,2.88-1.78,5.23-5.29,7a23,23,0,0,1-5.37,2l12.29,14.84a.89.89,0,0,1,.13,1A.9.9,0,0,1,361,57.33Zm-8.41-1.8h6.5L347,41a.91.91,0,0,1-.14-.9.89.89,0,0,1,.7-.57A21,21,0,0,0,354,37.4c2.9-1.46,4.3-3.23,4.3-5.4,0-2.39-1.4-4.2-4.27-5.55h0c-3.8-1.77-8.75-2.67-14.73-2.67H321.74V55.53h6.68V41a.9.9,0,0,1,.9-.9h10.31a.9.9,0,0,1,.7.33ZM340,38.58H329.32a.9.9,0,0,1-.9-.9V26.15a.9.9,0,0,1,.9-.9h8.1a24.83,24.83,0,0,1,10.33,1.81c2.54,1.18,3.84,2.85,3.84,4.94,0,1.52-.61,3.61-3.47,5h0A19.14,19.14,0,0,1,340,38.58Zm-9.78-1.8H340a17.2,17.2,0,0,0,7.36-1.47h0c1.65-.77,2.43-1.82,2.43-3.31s-.92-2.43-2.8-3.31a23.07,23.07,0,0,0-9.57-1.64h-7.2Z"/><path class="cls-3" d="M395.27,57.33H378.69a.9.9,0,0,1-.9-.9V52.65a.9.9,0,0,1,.9-.9h3.15V27.57h-3.15a.9.9,0,0,1-.9-.9V22.88a.9.9,0,0,1,.9-.9h16.58a.9.9,0,0,1,.9.9v3.79a.9.9,0,0,1-.9.9h-3.15V51.75h3.15a.9.9,0,0,1,.9.9v3.78A.9.9,0,0,1,395.27,57.33Zm-15.68-1.8h14.78v-2h-3.16a.91.91,0,0,1-.9-.9v-26a.9.9,0,0,1,.9-.9h3.16v-2H379.59v2h3.15a.9.9,0,0,1,.9.9v26a.9.9,0,0,1-.9.9h-3.15Z"/><path class="cls-3" d="M503.59,57.33h-8.84a.91.91,0,0,1-.8-.48l-4.9-9.33H473.92L469,56.85a.89.89,0,0,1-.8.48h-8.84a.92.92,0,0,1-.78-.44.91.91,0,0,1,0-.89L477,22.45a.9.9,0,0,1,.79-.47h7.37a.9.9,0,0,1,.79.47L504.38,56a.88.88,0,0,1,0,.89A.91.91,0,0,1,503.59,57.33Zm-8.3-1.8h6.78L484.64,23.78h-6.31L460.9,55.53h6.78l4.9-9.32a.91.91,0,0,1,.8-.48h16.21a.89.89,0,0,1,.8.48Zm-7.54-11.27H475.22a.91.91,0,0,1-.8-1.32l5.9-11.35a.89.89,0,0,1,.8-.49h.73a.89.89,0,0,1,.8.49l5.9,11.35a.92.92,0,0,1,0,.88A.91.91,0,0,1,487.75,44.26Zm-11.05-1.8h9.57l-4.78-9.21Z"/><path class="cls-3" d="M532.7,57.33h-8.47a.9.9,0,0,1-.9-.9v-15l-17.07-18a.89.89,0,0,1-.18-1,.91.91,0,0,1,.83-.55h8.47a.91.91,0,0,1,.66.28l12.42,13.1,12.43-13.1a.9.9,0,0,1,.65-.28H550a.92.92,0,0,1,.83.55.89.89,0,0,1-.18,1l-17.07,18v15A.9.9,0,0,1,532.7,57.33Zm-7.57-1.8h6.67V41.12a.9.9,0,0,1,.25-.62l15.87-16.72h-6L529.3,37.09a.88.88,0,0,1-.65.28h-.37a.88.88,0,0,1-.65-.28L515,23.78h-6L524.88,40.5a.9.9,0,0,1,.25.62Z"/><path class="cls-3" d="M597.92,57.33h-8.84a.88.88,0,0,1-.8-.48l-4.91-9.33H568.25l-4.91,9.33a.88.88,0,0,1-.79.48H553.7a.89.89,0,0,1-.77-.44.91.91,0,0,1,0-.89l18.43-33.55a.9.9,0,0,1,.79-.47h7.37a.89.89,0,0,1,.78.47L598.71,56a.91.91,0,0,1,0,.89A.89.89,0,0,1,597.92,57.33Zm-8.3-1.8h6.78L579,23.78h-6.3L555.22,55.53H562l4.91-9.32a.88.88,0,0,1,.8-.48h16.21a.88.88,0,0,1,.79.48Zm-7.55-11.27H569.55a.89.89,0,0,1-.77-.44.87.87,0,0,1,0-.88l5.89-11.35a.92.92,0,0,1,.8-.49h.74a.92.92,0,0,1,.8.49l5.89,11.35a.87.87,0,0,1,0,.88A.89.89,0,0,1,582.07,44.26Zm-11-1.8h9.56l-4.78-9.21Z"/></g><g class="cls-4"><path class="cls-5" d="M141.45,68.25h-2.81l5.84-52.56h2.34l5.84,52.56h-2.8l-1.64-15.37h-5.14ZM145.77,30h-.23l-1.87,17.79h4Z"/><path class="cls-5" d="M188,43.45q2.68,3.51,2.68,10.24A27.46,27.46,0,0,1,189,64.47q-1.64,3.78-4.55,3.78c-1.87,0-3.32-1.17-4.33-3.51a25.69,25.69,0,0,1-1.87-10.24V51.81h2.69v2.42a16.88,16.88,0,0,0,.94,6.47c.62,1.44,1.4,2.16,2.33,2.16A3,3,0,0,0,187,60.7,15.52,15.52,0,0,0,188,54.5,11.42,11.42,0,0,0,186.39,48a97.3,97.3,0,0,1-5.49-9.16,20.86,20.86,0,0,1-2-9.43,22.59,22.59,0,0,1,1.75-10q1.76-3.77,3.85-3.77c1.71,0,3,1.08,4,3.23q1.75,4,1.64,11.32h-2.69a16.55,16.55,0,0,0-.93-7.27c-.55-1.26-1.21-1.89-2-1.89s-1.44.63-2,1.89a14.12,14.12,0,0,0-1,5.66,14.78,14.78,0,0,0,1.63,6.74A53.45,53.45,0,0,0,188,43.45Z"/><path class="cls-5" d="M219.19,68.25h-2.81l5.84-52.56h2.34l5.84,52.56h-2.8L226,52.88h-5.14ZM223.51,30h-.23l-1.87,17.79h4Z"/><path class="cls-5" d="M264.6,22.7c-.55-1.26-1.17-1.89-1.87-1.89s-1.13.45-1.52,1.35q-2.56,5.93-2.57,21,0,13.22,1.87,17.52c.62,1.44,1.24,2.16,1.87,2.16q1.17,0,2.1-2.16,1.41-3.24,1.4-10.78V44.8h-3.62V39.68h6V68.25h-2l-.35-4.85q-1.63,4.84-3.85,4.85c-1.33,0-2.45-1.08-3.39-3.24Q256,58.82,256,43.18q0-16.71,2.92-23.45,1.75-4,3.86-4t3.5,3q2,4.59,2,13.48h-2.45C265.69,27.46,265.3,24.31,264.6,22.7Z"/><path class="cls-5" d="M302.42,62.32h1.28v5.93h-5.25V62.32h1.28V21.62h-1.28V15.69h5.25v5.93h-1.28Z"/><path class="cls-5" d="M344.56,20q1.51,3.51,1.52,10a26.37,26.37,0,0,1-1.52,9.71,8.36,8.36,0,0,1-2.1,3.5l4.2,25.07h-2.8l-4-24.26h-3.27V68.25h-2.69V15.69h5.84Q342.68,15.69,344.56,20Zm-2.1,16.44a17.11,17.11,0,0,0,.93-6.47,16.49,16.49,0,0,0-1.05-6.46c-.78-1.8-1.83-2.7-3.16-2.7h-2.56V38.87H340C340.94,38.87,341.75,38.06,342.46,36.44Z"/><path class="cls-5" d="M380.16,62.32h1.28v5.93h-5.25V62.32h1.28V21.62h-1.28V15.69h5.25v5.93h-1.28Z"/><path class="cls-5" d="M452.41,68.25H449.6l5.84-52.56h2.34l5.84,52.56h-2.8l-1.64-15.37H454ZM456.73,30h-.23l-1.87,17.79h4Z"/><path class="cls-5" d="M491.28,15.69,495.37,37h.11l4.09-21.29h2.69l-5.49,28.57v24h-2.69v-24l-5.49-28.57Z"/><path class="cls-5" d="M530.15,68.25h-2.8l5.83-52.56h2.34l5.84,52.56h-2.8l-1.64-15.37h-5.14ZM534.47,30h-.23l-1.87,17.79h4Z"/></g><path class="cls-3" d="M231.83,52.59H219.06v6.72h16.47v6.38H219.06V79.46h-6.71V65.69H194.21V59.31h18.14V52.59H199.24V22.69h13.11V17H196.22V10.6h16.13V2.2h6.38c1.79.22,1.9.9.33,2V10.6h15.12V17H219.06v5.71h12.77Zm-5.71-17.8V28.07H205v6.72Zm0,12.42V40.16H205v7.05Zm19.15,5q0,18.82-12.1,27.55l-4.7-4.7q11.09-7.72,11.09-23.18V6.57h26.87V74.43c0,2.9-1.46,4.36-4.37,4.36H255l-1-6.38h5.38a1.19,1.19,0,0,0,1.34-1.34V52.25Zm15.45-26.2V13H245.27v13.1Zm0,19.82V32.43H245.27V45.87Z"/><path class="cls-3" d="M357.13,52.59l-1.34,6a59,59,0,0,1-20.49-6,69.23,69.23,0,0,1-17.81,6.72l-1-3-8.74,11.08-3.69-3.69q3.35-4,5.71-7.06h-7.06V74.43c0,3.36-1.34,5-4,5h-5.37l-1-5.37H296a.89.89,0,0,0,1-1v-9.4a62.1,62.1,0,0,1-14.78,10.75l-2.35-5.38A62.39,62.39,0,0,0,296,56.62H281.55V51.25h20.83l-15.46-6,3-3.36,8.73,2.69,5.38-4H283.9v-4h25.87l1-1,3.7,3.69c.89,1.13.56,1.46-1,1l-10.75,6.05,4,1.68-2.68,3.36h8.39l1-1,3.7,3.36q5,0,13.1-3.7a58.28,58.28,0,0,1-5.71-5,26.35,26.35,0,0,1-7.39,4.71l-2.69-4.37q6-2.69,14.78-11.42l4.37,2c1.12.67.78,1-1,1l-1.68,1.68h23.85v4h-7.39a28.12,28.12,0,0,1-7.05,6.72Q346.39,51.93,357.13,52.59Zm-9.07-26.2V17.65H320.85V34.79h-5.71V17.65H287.93v8.74h-5.71V12.28h32.92v-4H288.27v-4h59.79v4H320.85v4h32.92V26.39Zm-36.61-5.71v4H291v-4ZM291,28.07h20.5v4H291ZM346.05,65H335q-2.68,13.42-22.17,14.44l-1.34-5.37q15.78-.68,17.46-9.07H318.5V61h11.42l.34-5,5.37.34q2.69.33.34,2L335.63,61h16.46l-1,11.42q-.68,6.72-7.06,6.72h-5.71l-1-5.38h5.38a2.45,2.45,0,0,0,2.69-2.35Zm-21.5-40.31v-4H345v4ZM345,28.07v4H324.55v-4ZM335.3,47.21a21.92,21.92,0,0,0,5.71-4.7H328.58A19.49,19.49,0,0,0,335.3,47.21Z"/><path class="cls-3" d="M409.88,66.7A58,58,0,0,0,429,48.22H412.23V41.84H429.7V33.78h6.38q2.69.33.33,2v6.05h16.47v6.38H436.41v4q10.08,3.38,15.46,7.39l-3.7,7.4a115.31,115.31,0,0,0-11.76-7.73V79.46H429.7V58.3a47.23,47.23,0,0,1-16.47,15.45Zm2.35-51.06-1-6.72q22.5-1.34,37.62-6l3,6.05c.22,1.12-.34,1.34-1.68.67Q437.76,13.63,412.23,15.64Zm7,3.69a34,34,0,0,1,6.05,13.1l-7.06,2.69A54.86,54.86,0,0,0,412.56,22Zm14.45-2.69a29.76,29.76,0,0,1,4.36,12.43l-7,2.69A66.4,66.4,0,0,0,426.67,19Zm12.76,17.81-6.38-2.35a182.65,182.65,0,0,0,5.71-17.81l7.73,2.35c.89.9.55,1.46-1,1.68Q449.51,26.72,446.49,34.45Zm2.35,35.94a69,69,0,0,0,30.91-23.51l6.05,6c.22,1.12-.34,1.45-1.68,1a70.94,70.94,0,0,1-32.25,24.19ZM481.09,13Q471,23,455.23,32.1l-3-7.39A95.43,95.43,0,0,0,477.06,5.89l6.05,6.05C483.33,13.06,482.66,13.4,481.09,13Zm-23.51,40-2.69-7.73a63.66,63.66,0,0,0,22.17-18.14l6.05,6.05c.22,1.12-.45,1.45-2,1Q472.36,45.2,457.58,52.93Z"/><g class="cls-6"><path class="cls-5" d="M180.63,43.7h-2.25l4.68-8.22h1.88l4.69,8.22h-2.25l-1.32-2.4h-4.12Zm3.47-6h-.19l-1.5,2.79h3.19Z"/><path class="cls-5" d="M218,39.82c1.44.37,2.16.9,2.16,1.6s-.47,1.27-1.41,1.69a9,9,0,0,1-3.65.59,8.63,8.63,0,0,1-3.47-.55c-1-.44-1.5-1-1.5-1.6v-.42h2.16v.38a1.06,1.06,0,0,0,.75,1,4.47,4.47,0,0,0,1.87.34,5.64,5.64,0,0,0,2.25-.34c.56-.25.84-.57.84-1s-.43-.76-1.31-1c-1.56-.45-3-.93-4.4-1.44-1-.36-1.54-.85-1.6-1.47s.41-1.14,1.41-1.56a7.81,7.81,0,0,1,3.09-.59,8,8,0,0,1,3.19.5c.94.42,1.37,1,1.31,1.77h-2.15c.12-.47-.13-.85-.75-1.13a3.84,3.84,0,0,0-1.6-.3,3.79,3.79,0,0,0-1.59.3c-.56.25-.85.54-.85.88s.44.72,1.32,1.06A37.29,37.29,0,0,0,218,39.82Z"/><path class="cls-5" d="M243,43.7h-2.25l4.68-8.22h1.88L252,43.7h-2.25l-1.32-2.4h-4.12Zm3.47-6h-.19l-1.5,2.79H248Z"/><path class="cls-5" d="M279.48,36.57a3.75,3.75,0,0,0-1.5-.29,3,3,0,0,0-1.22.21,3.31,3.31,0,0,0-2.06,3.29,2.69,2.69,0,0,0,1.5,2.74,3.52,3.52,0,0,0,1.5.34,4,4,0,0,0,1.68-.34,1.74,1.74,0,0,0,1.13-1.69V40H277.6v-.8h4.78V43.7h-1.59l-.28-.76a6.06,6.06,0,0,1-3.1.76,6.69,6.69,0,0,1-2.71-.5,3.46,3.46,0,0,1-2.16-3.42,3.72,3.72,0,0,1,2.34-3.67,7.5,7.5,0,0,1,3.1-.63,7,7,0,0,1,2.81.46,2.28,2.28,0,0,1,1.59,2.11h-2A1.63,1.63,0,0,0,279.48,36.57Z"/><path class="cls-5" d="M309.83,42.77h1v.93h-4.21v-.93h1V36.4h-1v-.92h4.21v.92h-1Z"/><path class="cls-5" d="M343.66,36.15a1.73,1.73,0,0,1,1.22,1.56c0,.62-.41,1.13-1.22,1.52a5.57,5.57,0,0,1-1.69.55l3.38,3.92H343.1l-3.19-3.79h-2.63V43.7h-2.15V35.48h4.68A9.43,9.43,0,0,1,343.66,36.15ZM342,38.72a1.08,1.08,0,0,0,.75-1c0-.42-.28-.76-.84-1a6.31,6.31,0,0,0-2.53-.42h-2.07V39.1H340A4.65,4.65,0,0,0,342,38.72Z"/><path class="cls-5" d="M372.23,42.77h1v.93h-4.21v-.93h1V36.4h-1v-.92h4.21v.92h-1Z"/><path class="cls-5" d="M430.23,43.7H428l4.68-8.22h1.88l4.69,8.22H437l-1.32-2.4h-4.12Zm3.47-6h-.19L432,40.5h3.19Z"/><path class="cls-5" d="M461.43,35.48l3.28,3.33h.09l3.28-3.33h2.16L465.83,40V43.7h-2.15V40l-4.41-4.47Z"/><path class="cls-5" d="M492.63,43.7h-2.25l4.68-8.22h1.88l4.69,8.22h-2.25l-1.32-2.4h-4.12Zm3.47-6h-.19l-1.5,2.79h3.19Z"/></g><rect class="cls-7" width="680" height="82"/></g></g></svg>