<svg xmlns="http://www.w3.org/2000/svg" viewBox="0 0 680 82"><defs><style>.cls-1{isolation:isolate;}.cls-2{opacity:0.2;}.cls-2,.cls-4{mix-blend-mode:screen;}.cls-3{fill:#fff;}.cls-4{opacity:0.45;}.cls-5{fill:red;}.cls-6{opacity:0.85;}.cls-7{fill:none;opacity:0.19;}</style></defs><title>アートボード 354</title><g class="cls-1"><g id="CHARACTER"><g class="cls-2"><path class="cls-3" d="M86.26,57.39h-6a.9.9,0,0,1-.9-.9v-17L73.26,56.79a.91.91,0,0,1-.85.6H67.59a.91.91,0,0,1-.85-.6L60.66,39.52v17a.9.9,0,0,1-.9.9h-6a.9.9,0,0,1-.9-.9V29.07a.9.9,0,0,1,.9-.9h9.63a.89.89,0,0,1,.85.6L70,45.09l5.78-16.32a.91.91,0,0,1,.85-.6h9.63a.91.91,0,0,1,.91.9V56.49A.9.9,0,0,1,86.26,57.39Zm-5.12-1.8h4.22V30h-8.1L71.15,47.23a.91.91,0,0,1-.85.6h-.6a.91.91,0,0,1-.85-.6L62.74,30h-8.1V55.59h4.22V36a.9.9,0,0,1,.9-.9h.6a.9.9,0,0,1,.85.6l7,19.93h3.54l7-19.93a.91.91,0,0,1,.85-.6h.6a.9.9,0,0,1,.9.9Z"/><path class="cls-3" d="M115.18,57.39H101.62a.9.9,0,0,1-.9-.9V53.4a.9.9,0,0,1,.9-.9H104V33.07h-2.42a.91.91,0,0,1-.9-.9v-3.1a.91.91,0,0,1,.9-.9h13.56a.91.91,0,0,1,.9.9v3.1a.91.91,0,0,1-.9.9h-2.42V52.5h2.42a.9.9,0,0,1,.9.9v3.09A.9.9,0,0,1,115.18,57.39Zm-12.66-1.8h11.76V54.3h-2.42a.9.9,0,0,1-.9-.9V32.17a.9.9,0,0,1,.9-.9h2.42V30H102.52v1.3h2.42a.9.9,0,0,1,.9.9V53.4a.9.9,0,0,1-.9.9h-2.42Z"/><path class="cls-3" d="M146.8,57.39c-4.93,0-8.81-.64-11.52-1.91-3.55-1.65-5.34-3.72-5.34-6.16v-1.4a.9.9,0,0,1,.9-.9h6.92a.9.9,0,0,1,.91.9v1.26a2.66,2.66,0,0,0,1.88,2.56,13.45,13.45,0,0,0,5.65,1,17.06,17.06,0,0,0,6.84-1c2.2-1,2.2-2.07,2.2-2.42,0-1.25-2.24-2.11-3.58-2.51-5-1.49-9.78-3.11-14.22-4.8-3.54-1.35-5.46-3.26-5.69-5.68s1.46-4.54,5.05-6.11a25.6,25.6,0,0,1,10.3-2c4.53,0,8.1.6,10.62,1.77,3.37,1.58,5,3.86,4.73,6.8a.89.89,0,0,1-.89.83h-6.93a.9.9,0,0,1-.87-1.12c.19-.78.15-1.8-1.92-2.77a12.93,12.93,0,0,0-9.48,0c-1,.47-2.19,1.22-2.19,2.14,0,.37.36,1.37,3.65,2.68a109.29,109.29,0,0,0,12.55,4.19h0c5,1.33,7.59,3.42,7.59,6.21s-1.69,4.88-5,6.44C156,56.7,151.93,57.39,146.8,57.39Zm-15.06-8.57v.5c0,1.68,1.44,3.2,4.3,4.53,2.47,1.16,6.09,1.74,10.76,1.74,4.86,0,8.69-.63,11.36-1.88s4-2.83,4-4.81-2.1-3.38-6.25-4.47h0a111.51,111.51,0,0,1-12.75-4.26c-3.22-1.28-4.78-2.71-4.78-4.35s1.09-2.77,3.23-3.77a14.67,14.67,0,0,1,11,0c2.31,1.08,3,2.48,3,3.72h5c-.17-1.74-1.39-3.12-3.69-4.19S151.36,30,147.1,30a23.81,23.81,0,0,0-9.58,1.9c-2.8,1.22-4.14,2.67-4,4.29s1.69,3.08,4.54,4.16c4.4,1.68,9.14,3.29,14.1,4.77,1.2.36,4.86,1.45,4.86,4.23,0,1.69-1.09,3-3.23,4a18.39,18.39,0,0,1-7.61,1.21,15.18,15.18,0,0,1-6.41-1.21,4.46,4.46,0,0,1-2.93-4.19v-.36Z"/><path class="cls-3" d="M185.65,57.39h-.3c-5.21,0-8.88-.53-11.23-1.63-3.34-1.56-5-3.77-5-6.58V29.07a.9.9,0,0,1,.9-.9h6.93a.91.91,0,0,1,.9.9V49.18a2.45,2.45,0,0,0,1.58,2.42,14.84,14.84,0,0,0,5.95.9h.3a13.81,13.81,0,0,0,5.64-.9c1.7-.79,1.89-1.76,1.89-2.42V29.07a.91.91,0,0,1,.9-.9H201a.9.9,0,0,1,.9.9V49.18c0,2.81-1.7,5-5,6.58C194.52,56.86,190.85,57.39,185.65,57.39ZM170.89,30V49.18c0,2.08,1.31,3.7,4,5,2.07,1,5.59,1.46,10.46,1.46h.3c4.87,0,8.39-.49,10.46-1.46,2.69-1.25,4-2.87,4-5V30H195V49.18c0,1.23-.51,2.92-2.93,4a15.3,15.3,0,0,1-6.4,1.07h-.3a16.25,16.25,0,0,1-6.71-1.07,4.24,4.24,0,0,1-2.62-4V30Z"/><path class="cls-3" d="M240.46,57.39h-6a.9.9,0,0,1-.9-.9v-17l-6.08,17.27a.91.91,0,0,1-.85.6h-4.82a.91.91,0,0,1-.85-.6l-6.08-17.27v17a.9.9,0,0,1-.9.9h-6a.9.9,0,0,1-.9-.9V29.07a.9.9,0,0,1,.9-.9h9.63a.9.9,0,0,1,.85.6l5.78,16.32L230,28.77a.91.91,0,0,1,.85-.6h9.63a.9.9,0,0,1,.9.9V56.49A.9.9,0,0,1,240.46,57.39Zm-5.12-1.8h4.22V30h-8.1l-6.11,17.26a.91.91,0,0,1-.85.6h-.6a.91.91,0,0,1-.85-.6L216.94,30h-8.1V55.59h4.22V36a.9.9,0,0,1,.9-.9h.6a.91.91,0,0,1,.85.6l7,19.93H226l7-19.93a.91.91,0,0,1,.85-.6h.6a.9.9,0,0,1,.9.9Z"/><path class="cls-3" d="M269.38,57.39H255.82a.9.9,0,0,1-.9-.9V53.4a.9.9,0,0,1,.9-.9h2.42V33.07h-2.42a.91.91,0,0,1-.9-.9v-3.1a.91.91,0,0,1,.9-.9h13.56a.91.91,0,0,1,.9.9v3.1a.91.91,0,0,1-.9.9H267V52.5h2.42a.9.9,0,0,1,.9.9v3.09A.9.9,0,0,1,269.38,57.39Zm-12.66-1.8h11.76V54.3h-2.42a.9.9,0,0,1-.9-.9V32.17a.9.9,0,0,1,.9-.9h2.42V30H256.72v1.3h2.42a.9.9,0,0,1,.9.9V53.4a.9.9,0,0,1-.9.9h-2.42Z"/><path class="cls-3" d="M357.62,57.39h-7.83a.9.9,0,0,1-.64-.26L335.81,43.72,332,46.16V56.49a.9.9,0,0,1-.9.9h-6.93a.9.9,0,0,1-.9-.9V29.07a.9.9,0,0,1,.9-.9h6.93a.91.91,0,0,1,.9.9v9.84l15.76-10.58a.9.9,0,0,1,.5-.16h8.13a.91.91,0,0,1,.51,1.65L341.87,40l16.38,15.83a.89.89,0,0,1,.2,1A.88.88,0,0,1,357.62,57.39Zm-7.46-1.8h5.23l-15.56-15a.88.88,0,0,1-.27-.73.86.86,0,0,1,.39-.66L353.48,30h-4.92L331.62,41.35a.89.89,0,0,1-1.4-.75V30h-5.13V55.59h5.13V45.67a.88.88,0,0,1,.41-.76l4.82-3.09a.89.89,0,0,1,1.12.12Z"/><path class="cls-3" d="M385,57.39H371.47a.9.9,0,0,1-.9-.9V53.4a.9.9,0,0,1,.9-.9h2.42V33.07h-2.42a.91.91,0,0,1-.9-.9v-3.1a.91.91,0,0,1,.9-.9H385a.91.91,0,0,1,.9.9v3.1a.91.91,0,0,1-.9.9h-2.42V52.5H385a.9.9,0,0,1,.9.9v3.09A.9.9,0,0,1,385,57.39Zm-12.66-1.8h11.75V54.3h-2.41a.9.9,0,0,1-.9-.9V32.17a.9.9,0,0,1,.9-.9h2.41V30H372.37v1.3h2.42a.9.9,0,0,1,.9.9V53.4a.9.9,0,0,1-.9.9h-2.42Z"/><path class="cls-3" d="M423.58,57.39H410a.9.9,0,0,1-.9-.9V53.4a.9.9,0,0,1,.9-.9h2.42V33.07H410a.91.91,0,0,1-.9-.9v-3.1a.91.91,0,0,1,.9-.9h13.56a.91.91,0,0,1,.9.9v3.1a.91.91,0,0,1-.9.9h-2.42V52.5h2.42a.9.9,0,0,1,.9.9v3.09A.9.9,0,0,1,423.58,57.39Zm-12.66-1.8h11.75V54.3h-2.41a.9.9,0,0,1-.9-.9V32.17a.9.9,0,0,1,.9-.9h2.41V30H410.92v1.3h2.42a.9.9,0,0,1,.9.9V53.4a.9.9,0,0,1-.9.9h-2.42Z"/><path class="cls-3" d="M456.7,57.39a24.33,24.33,0,0,1-10.32-2c-5.34-2.49-8-6.45-8-11.78,0-6.17,2.91-10.65,8.65-13.33a23.41,23.41,0,0,1,10-2.06,22.74,22.74,0,0,1,9.42,1.63c4.56,2.13,6.76,5.12,6.54,8.89a.9.9,0,0,1-.9.84h-6.62a.89.89,0,0,1-.9-.83c-.18-2.67-1.19-4.41-3.1-5.3a10.78,10.78,0,0,0-4.44-.76,10.52,10.52,0,0,0-4.43.9c-3.71,1.73-5.51,4.92-5.51,9.74,0,4.15,1.51,6.88,4.6,8.32a11.83,11.83,0,0,0,5,1,11.08,11.08,0,0,0,4.74-1c1.68-.78,2.62-2.7,2.8-5.71a.9.9,0,0,1,.9-.84h7.23a.87.87,0,0,1,.67.31.88.88,0,0,1,.22.71c-.65,4.52-2.75,7.64-6.24,9.27h0A24.3,24.3,0,0,1,456.7,57.39ZM457,30a21.74,21.74,0,0,0-9.25,1.89c-5.12,2.39-7.61,6.22-7.61,11.7,0,4.63,2.29,7.95,7,10.15a25.22,25.22,0,0,0,19.11,0h0c2.68-1.25,4.34-3.5,5-6.86H466c-.35,3.24-1.62,5.38-3.75,6.38a13,13,0,0,1-5.51,1.21,13.62,13.62,0,0,1-5.8-1.21c-3.74-1.74-5.64-5.09-5.64-9.95,0-5.52,2.2-9.34,6.55-11.37A12.19,12.19,0,0,1,457,30.84a12.56,12.56,0,0,1,5.21.93,7.16,7.16,0,0,1,4,6h4.91c-.18-2.59-2-4.66-5.5-6.3A21,21,0,0,0,457,30Z"/><path class="cls-3" d="M509.41,57.39h-6.93a.9.9,0,0,1-.9-.9V43.61H486.22V56.49a.9.9,0,0,1-.9.9h-6.93a.9.9,0,0,1-.9-.9V29.07a.9.9,0,0,1,.9-.9h6.93a.91.91,0,0,1,.9.9V39.14h15.36V29.07a.91.91,0,0,1,.9-.9h6.93a.9.9,0,0,1,.9.9V56.49A.9.9,0,0,1,509.41,57.39Zm-6-1.8h5.13V30h-5.13V40a.9.9,0,0,1-.9.9H485.32a.9.9,0,0,1-.9-.9V30h-5.13V55.59h5.13V42.71a.9.9,0,0,1,.9-.9h17.16a.9.9,0,0,1,.9.9Z"/><path class="cls-3" d="M539.22,57.39H525.67a.9.9,0,0,1-.9-.9V53.4a.9.9,0,0,1,.9-.9h2.41V33.07h-2.41a.9.9,0,0,1-.9-.9v-3.1a.9.9,0,0,1,.9-.9h13.55a.9.9,0,0,1,.9.9v3.1a.9.9,0,0,1-.9.9h-2.41V52.5h2.41a.9.9,0,0,1,.9.9v3.09A.9.9,0,0,1,539.22,57.39Zm-12.65-1.8h11.75V54.3h-2.41a.9.9,0,0,1-.9-.9V32.17a.9.9,0,0,1,.9-.9h2.41V30H526.57v1.3H529a.9.9,0,0,1,.9.9V53.4a.9.9,0,0,1-.9.9h-2.42Z"/><path class="cls-3" d="M588.32,57.39h-7.23a.9.9,0,0,1-.7-.33l-10-12.32h-7.1V56.49a.9.9,0,0,1-.9.9h-6.93a.9.9,0,0,1-.9-.9V29.07a.9.9,0,0,1,.9-.9h15.06a30.27,30.27,0,0,1,12.72,2.34h0c2.94,1.37,4.43,3.4,4.43,6,0,2.42-1.48,4.39-4.41,5.86A19.55,19.55,0,0,1,579.12,44L589,55.92a.9.9,0,0,1-.69,1.47Zm-6.8-1.8h4.88L576.78,44a.9.9,0,0,1,.55-1.46,16.87,16.87,0,0,0,5.15-1.74c2.31-1.16,3.43-2.56,3.43-4.26,0-1.89-1.11-3.32-3.4-4.39a28.51,28.51,0,0,0-12-2.17H556.39V55.59h5.12V43.84a.9.9,0,0,1,.91-.9h8.43a.9.9,0,0,1,.7.33ZM571.15,42.07h-8.73a.91.91,0,0,1-.91-.9V31.74a.91.91,0,0,1,.91-.9H569a20.62,20.62,0,0,1,8.51,1.49c2.15,1,3.23,2.42,3.23,4.2a4.48,4.48,0,0,1-2.93,4.19h0A15.83,15.83,0,0,1,571.15,42.07Zm-7.83-1.8h7.83a14.05,14.05,0,0,0,5.94-1.18h0c1.7-.8,1.89-1.84,1.89-2.56,0-.38,0-1.54-2.19-2.56A18.69,18.69,0,0,0,569,32.64h-5.72Zm14.15-.37h0Z"/><path class="cls-3" d="M609.7,57.39a25.29,25.29,0,0,1-10.62-1.91c-4.74-2.21-7.15-6.51-7.15-12.77s2.41-10.41,7.15-12.62a25.34,25.34,0,0,1,10.62-1.92A24.73,24.73,0,0,1,620,30.08c4.74,2.22,7.14,6.47,7.14,12.63s-2.4,10.56-7.14,12.77A24.51,24.51,0,0,1,609.7,57.39Zm0-27.42a23.57,23.57,0,0,0-9.86,1.75c-4.11,1.91-6.11,5.51-6.11,11s2,9.22,6.11,11.14a23.55,23.55,0,0,0,9.86,1.74,22.76,22.76,0,0,0,9.56-1.74c4.11-1.92,6.1-5.56,6.1-11.14s-2-9.07-6.1-11A22.78,22.78,0,0,0,609.7,30Zm0,24.75a15,15,0,0,1-6.41-1.35c-2.94-1.37-4.43-5-4.43-10.66s1.49-9.14,4.43-10.52a15.14,15.14,0,0,1,6.41-1.35,14.4,14.4,0,0,1,6.1,1.35c2.94,1.38,4.44,4.92,4.44,10.52s-1.5,9.29-4.44,10.66A14.25,14.25,0,0,1,609.7,54.72Zm0-22.08a13.09,13.09,0,0,0-5.64,1.19c-2.26,1.05-3.4,4-3.4,8.88s1.14,8,3.39,9a13.32,13.32,0,0,0,5.65,1.18A12.6,12.6,0,0,0,615,51.74c2.25-1.05,3.4-4.09,3.4-9s-1.15-7.83-3.4-8.88A12.47,12.47,0,0,0,609.7,32.64Z"/></g><g class="cls-4"><path class="cls-5" d="M126.58,28.9V68.25h-2.34V15.69H128l2.45,34.23h.24l2.45-34.23h3.74V68.25h-2.34V28.9h-.23l-2.81,39.35h-1.87l-2.8-39.35Z"/><path class="cls-5" d="M161.73,62.32H163v5.93h-5.26V62.32h1.29V21.62h-1.29V15.69H163v5.93h-1.29Z"/><path class="cls-5" d="M193.85,43.45q2.68,3.51,2.69,10.24a27.46,27.46,0,0,1-1.75,10.78q-1.64,3.78-4.56,3.78t-4.32-3.51A25.51,25.51,0,0,1,184,54.5V51.81h2.69v2.42a17.11,17.11,0,0,0,.93,6.47c.63,1.44,1.4,2.16,2.34,2.16a3,3,0,0,0,2.8-2.16,15.71,15.71,0,0,0,1-6.2A11.42,11.42,0,0,0,192.22,48a97.3,97.3,0,0,1-5.49-9.16,21,21,0,0,1-2-9.43,22.74,22.74,0,0,1,1.75-10q1.75-3.77,3.86-3.77c1.71,0,3,1.08,4,3.23q1.76,4,1.64,11.32h-2.69a16.54,16.54,0,0,0-.94-7.27q-.81-1.89-2-1.89c-.78,0-1.44.63-2,1.89a14.12,14.12,0,0,0-1.05,5.66A14.8,14.8,0,0,0,189,35.37,53.47,53.47,0,0,0,193.85,43.45Z"/><path class="cls-5" d="M214.18,15.69h2.68V54.23a16.74,16.74,0,0,0,.82,6.2,2.63,2.63,0,0,0,2.45,1.89h.12q1.51,0,2.34-1.89a16.18,16.18,0,0,0,.93-6.2V15.69h2.69V54.23q0,7-1.76,11.05a4.34,4.34,0,0,1-4.2,3h-.12a4.34,4.34,0,0,1-4.2-3q-1.76-4-1.75-11.05Z"/><path class="cls-5" d="M246.18,28.9V68.25h-2.34V15.69h3.74L250,49.92h.24l2.45-34.23h3.74V68.25h-2.34V28.9h-.23l-2.81,39.35h-1.87l-2.8-39.35Z"/><path class="cls-5" d="M281.33,62.32h1.29v5.93h-5.26V62.32h1.29V21.62h-1.29V15.69h5.26v5.93h-1.29Z"/><path class="cls-5" d="M333.78,68.25V15.69h2.68v22.1l6.66-22.1h3.15l-6.19,20.75,6.66,31.81h-3l-5.37-26.69-1.87,5.93V68.25Z"/><path class="cls-5" d="M371,62.32h1.29v5.93h-5.26V62.32h1.29V21.62h-1.29V15.69h5.26v5.93H371Z"/><path class="cls-5" d="M400.94,62.32h1.28v5.93H397V62.32h1.29V21.62H397V15.69h5.26v5.93h-1.28Z"/><path class="cls-5" d="M433.87,64.47q-1.64,3.78-3.85,3.78t-3.86-3.78q-2.91-6.72-2.92-21,0-16.71,3.16-24,1.64-3.77,3.73-3.77t3.51,3Q436.09,24.32,436,34H433.4q-.11-8.63-1.4-11.59c-.46-1.08-1.09-1.62-1.87-1.62s-1.32.63-1.86,1.89q-2.34,5.39-2.34,20.21,0,12.95,2,17.52.93,2.16,2.1,2.16t2-2.16q1.17-2.68,1.29-12.4h2.8Q435.75,60.16,433.87,64.47Z"/><path class="cls-5" d="M453.38,68.25V15.69h2.68v21h6.66v-21h2.69V68.25h-2.69V41.83h-6.66V68.25Z"/><path class="cls-5" d="M490.64,62.32h1.28v5.93h-5.25V62.32H488V21.62h-1.28V15.69h5.25v5.93h-1.28Z"/><path class="cls-5" d="M523.81,20q1.52,3.51,1.51,10a26.39,26.39,0,0,1-1.51,9.71,8.46,8.46,0,0,1-2.11,3.5l4.21,25.07H523.1l-4-24.26h-3.27V68.25h-2.68V15.69H519Q521.93,15.69,523.81,20ZM521.7,36.44a16.88,16.88,0,0,0,.94-6.47,16.49,16.49,0,0,0-1-6.46c-.78-1.8-1.83-2.7-3.16-2.7h-2.57V38.87h3.39C520.19,38.87,521,38.06,521.7,36.44Z"/><path class="cls-5" d="M555.57,41.83q0,17-2.56,22.91c-1,2.34-2.3,3.51-3.86,3.51s-3-1.17-4-3.51q-2.56-5.92-2.57-22.91,0-16.69,2.57-22.64c1-2.33,2.34-3.5,4-3.5s2.84,1.17,3.86,3.5Q555.58,25.13,555.57,41.83Zm-10.27,0q0,15.38,1.51,18.87c.71,1.62,1.48,2.43,2.34,2.43s1.52-.81,2.22-2.43q1.51-3.5,1.52-18.87,0-15.09-1.52-18.59-1.05-2.43-2.22-2.43c-.86,0-1.63.81-2.34,2.43Q545.29,26.74,545.3,41.83Z"/></g><path class="cls-3" d="M168.52,60.32q-7.05,15.45-33.59,19.14l-2.69-7q23.17-2.68,29.9-14.45H133.25V51.58h30.57q.33-3,.67-6.72H130.9V38.48h33.93V32.1H140V25.71h24.86v-6h-29.9V13.29h19.48a37.2,37.2,0,0,0-4.7-7.06l6.72-3.36a43,43,0,0,1,6.38,10.42h10.41l6.05-11.76L186,3.88c.89.9.56,1.46-1,1.68l-5,7.73h21.5v6.38h-29.9v6H196.4V32.1H171.54v6.38h33.93v6.38H171.54c-.22,2.47-.45,4.71-.67,6.72h32.25V58H174.9q10.41,9.75,30.57,13.78l-2.35,7.39A58.45,58.45,0,0,1,168.52,60.32Z"/><path class="cls-3" d="M287.78,35.46H229.33V53.6a49.34,49.34,0,0,1-7.06,25.86l-5.71-5a40.61,40.61,0,0,0,6.05-21.84V29.07h65.17ZM232.35,9.93v7.72h17.8V3.21h6.39q2.68.33.33,2V17.65H275V7.57h6.39q2.69.34.33,2V24h-56.1V7.91H232Q234.7,8.26,232.35,9.93Zm0,70.54-2-6.72q23.19-5.7,23.18-24.18V37.81h6.39c1.79.22,1.9.9.33,2v5q0,21.51,30.91,25.87l-2.69,8.4q-22.84-5.38-29.9-19.82Q254.52,74.76,232.35,80.47Zm12.43-37.29q3,1,0,1.68a86.2,86.2,0,0,1-4.37,14.45L234,57a61.86,61.86,0,0,0,4.7-15.46ZM269.3,56.29a94.28,94.28,0,0,0,5.38-15.12l6.72,2.69c1.34.67,1.22,1.34-.34,2A135.25,135.25,0,0,1,275.69,59Z"/><path class="cls-3" d="M377.47,26.05v5.38H301.55V26.05h34.94V21.68H315.33V7.91h21.16V2.2h6.38c1.79.22,1.9.9.34,2v3.7H364V21.68H343.21v4.37Zm-4.36,53.41a65.21,65.21,0,0,1-25.2-9.07l3-4H328.76l3.36,5q1.68,2.35-2,1.35a74.29,74.29,0,0,1-22.51,7.72l-2-7.39q13.44-2,21.17-6.72H315.66V35.12H365V66.36H354.29a81.86,81.86,0,0,0,21.17,6ZM321,11.94v5.71h15.45V11.94Zm37.29,27.21H322.38v4.37h35.95Zm0,13.78V47.55H322.38v5.38Zm0,9.4V57H322.38v5.37ZM343.21,11.94v5.71h15.12V11.94Z"/><path class="cls-3" d="M460.45,35.12v7.39H389.57V35.12Z"/><path class="cls-3" d="M503.11,50.24a80.82,80.82,0,0,1,12.77,19.48l-6.05,4A33.64,33.64,0,0,0,506.14,67l-28.89,6c-.23,1.57-.79,1.9-1.68,1l-2-8.06,6.72-.67V14h12.09V2.87h6.39q2.69.34.33,2V14h12.43V46.88H486V64.35l17.13-2.69q-.33-1.33-5.37-8.06ZM486,19.33v8.74H505.8V19.33Zm0,14.11V41.5H505.8V33.44Zm46,3.36,6.71-22.17H525.29V80.14h-6.72V8.25h23.51l1.35-1,4.36,4.37c.9.89.56,1.45-1,1.68l-8.4,22.5q11.42,11.09,11.42,20.83,0,13.79-10.08,13.77h-6L532,64h5q6.06,0,6.05-7.39T532,36.8Z"/><g class="cls-6"><path class="cls-5" d="M168.66,37.54V43.7h-1.87V35.48h3l2,5.35h.19l2-5.35h3V43.7H175V37.54h-.19L172.6,43.7h-1.5l-2.25-6.16Z"/><path class="cls-5" d="M196.88,42.77h1v.93h-4.22v-.93h1V36.4h-1v-.92h4.22v.92h-1Z"/><path class="cls-5" d="M222.66,39.82c1.44.37,2.16.9,2.16,1.6s-.47,1.27-1.41,1.69a9,9,0,0,1-3.66.59,8.57,8.57,0,0,1-3.46-.55c-1-.44-1.5-1-1.5-1.6v-.42h2.15v.38a1.08,1.08,0,0,0,.75,1,4.51,4.51,0,0,0,1.88.34,5.64,5.64,0,0,0,2.25-.34c.56-.25.84-.57.84-1s-.44-.76-1.31-1q-2.34-.67-4.41-1.44-1.5-.54-1.59-1.47c-.06-.62.4-1.14,1.4-1.56a7.82,7.82,0,0,1,3.1-.59A8,8,0,0,1,223,36c.93.42,1.37,1,1.31,1.77h-2.16c.13-.47-.12-.85-.75-1.13a4.39,4.39,0,0,0-3.19,0c-.56.25-.84.54-.84.88s.44.72,1.31,1.06A38.21,38.21,0,0,0,222.66,39.82Z"/><path class="cls-5" d="M239,35.48h2.16v6a1,1,0,0,0,.66,1,4.92,4.92,0,0,0,2,.29h.1a4.63,4.63,0,0,0,1.87-.29,1.07,1.07,0,0,0,.75-1v-6h2.16v6c0,.73-.47,1.31-1.41,1.73a8.83,8.83,0,0,1-3.37.46h-.1a8.87,8.87,0,0,1-3.37-.46c-.94-.42-1.41-1-1.41-1.73Z"/><path class="cls-5" d="M264.66,37.54V43.7h-1.87V35.48h3l2,5.35h.19l2-5.35h3V43.7H271V37.54h-.19L268.6,43.7h-1.5l-2.25-6.16Z"/><path class="cls-5" d="M292.88,42.77h1v.93h-4.22v-.93h1V36.4h-1v-.92h4.22v.92h-1Z"/><path class="cls-5" d="M335,43.7V35.48h2.16v3.46l5.34-3.46H345l-5,3.24,5.34,5h-2.44l-4.31-4.17-1.5.92V43.7Z"/><path class="cls-5" d="M364.88,42.77h1v.93h-4.22v-.93h1V36.4h-1v-.92h4.22v.92h-1Z"/><path class="cls-5" d="M388.88,42.77h1v.93h-4.22v-.93h1V36.4h-1v-.92h4.22v.92h-1Z"/><path class="cls-5" d="M415.32,43.11a8.41,8.41,0,0,1-6.19,0,3.46,3.46,0,0,1-2.34-3.29,3.86,3.86,0,0,1,2.53-3.75,7.11,7.11,0,0,1,3-.59,7,7,0,0,1,2.81.46c1.31.59,1.94,1.39,1.87,2.4h-2.06a2,2,0,0,0-1.12-1.81,3.72,3.72,0,0,0-1.5-.25,3.68,3.68,0,0,0-1.5.29,3.17,3.17,0,0,0-1.88,3.17,2.71,2.71,0,0,0,1.6,2.74,4,4,0,0,0,1.68.34,3.77,3.77,0,0,0,1.6-.34,2.05,2.05,0,0,0,1-1.94h2.25A3.1,3.1,0,0,1,415.32,43.11Z"/><path class="cls-5" d="M431,43.7V35.48h2.16v3.29h5.34V35.48h2.16V43.7h-2.16V39.57h-5.34V43.7Z"/><path class="cls-5" d="M460.88,42.77h1v.93h-4.22v-.93h1V36.4h-1v-.92h4.22v.92h-1Z"/><path class="cls-5" d="M487.51,36.15a1.72,1.72,0,0,1,1.21,1.56c0,.62-.4,1.13-1.21,1.52a5.66,5.66,0,0,1-1.69.55l3.37,3.92h-2.25l-3.18-3.79h-2.63V43.7H479V35.48h4.69A9.46,9.46,0,0,1,487.51,36.15Zm-1.69,2.57a1.08,1.08,0,0,0,.75-1c0-.42-.28-.76-.85-1a6.25,6.25,0,0,0-2.53-.42h-2.06V39.1h2.72A4.65,4.65,0,0,0,485.82,38.72Z"/><path class="cls-5" d="M513,39.57a3.54,3.54,0,0,1-2.07,3.58,7.47,7.47,0,0,1-3.09.55,7.78,7.78,0,0,1-3.19-.55,3.54,3.54,0,0,1-2.06-3.58A3.53,3.53,0,0,1,504.66,36a8,8,0,0,1,3.19-.54,7.64,7.64,0,0,1,3.09.54A3.52,3.52,0,0,1,513,39.57Zm-8.25,0c0,1.6.4,2.59,1.21,3a4.61,4.61,0,0,0,1.88.38,4.34,4.34,0,0,0,1.78-.38c.81-.36,1.22-1.35,1.22-3s-.41-2.55-1.22-2.91a4.19,4.19,0,0,0-1.78-.38,4.45,4.45,0,0,0-1.88.38C505.16,37,504.76,38,504.76,39.57Z"/></g><rect class="cls-7" width="680" height="82"/></g></g></svg>