<svg xmlns="http://www.w3.org/2000/svg" viewBox="0 0 680 82"><defs><style>.cls-1{isolation:isolate;}.cls-2{opacity:0.2;}.cls-2,.cls-4{mix-blend-mode:screen;}.cls-3{fill:#fff;}.cls-4{opacity:0.45;}.cls-5{fill:red;}.cls-6{opacity:0.85;}.cls-7{fill:none;opacity:0.19;}</style></defs><title>アートボード 345</title><g class="cls-1"><g id="CHARACTER"><g class="cls-2"><path class="cls-3" d="M126.3,57.16c-6,0-10.72-.78-14-2.32-4.25-2-6.41-4.46-6.41-7.35V45.77a.9.9,0,0,1,.9-.9h8.47a.9.9,0,0,1,.9.9v1.55c0,1.49.77,2.54,2.43,3.31a16.53,16.53,0,0,0,7,1.29c3.78,0,6.63-.43,8.46-1.29s2.8-1.91,2.8-3.14c0-1.58-2.46-2.65-4.52-3.27-6.13-1.83-12-3.8-17.38-5.87-4.26-1.61-6.56-3.89-6.84-6.78s1.75-5.38,6.07-7.27a31.09,31.09,0,0,1,12.52-2.49c5.51,0,9.85.73,12.9,2.15,4,1.89,6,4.62,5.68,8.11a.9.9,0,0,1-.9.83h-8.47a.89.89,0,0,1-.71-.34.93.93,0,0,1-.17-.77c.24-.95.24-2.35-2.45-3.61a16,16,0,0,0-11.77,0C118.93,29,118,30,118,31c0,.61.59,1.87,4.59,3.47A136.46,136.46,0,0,0,138,39.57c6.07,1.6,9.14,4.09,9.14,7.4s-2,5.83-6,7.7C137.5,56.32,132.54,57.16,126.3,57.16ZM107.67,46.67v.82c0,2.13,1.81,4.06,5.37,5.72,3.06,1.43,7.52,2.15,13.26,2.15,6,0,10.68-.78,14-2.32s5-3.56,5-6.07-2.62-4.3-7.8-5.66h0a136.11,136.11,0,0,1-15.58-5.19c-3.85-1.54-5.73-3.22-5.73-5.14,0-1.75,1.3-3.24,3.84-4.43a17.89,17.89,0,0,1,13.29,0c2.85,1.34,3.6,3.07,3.59,4.56h6.56c-.13-2.3-1.66-4.11-4.65-5.51-2.81-1.31-6.9-2-12.14-2A29.31,29.31,0,0,0,114.87,26c-3.52,1.54-5.2,3.37-5,5.45s2.11,3.92,5.68,5.27c5.37,2,11.17,4,17.26,5.83,3.9,1.17,5.8,2.8,5.8,5,0,2-1.29,3.58-3.84,4.77-2.1,1-5.12,1.46-9.22,1.46a18.32,18.32,0,0,1-7.75-1.46c-2.87-1.33-3.47-3.42-3.47-4.94v-.65Z"/><path class="cls-3" d="M192.62,57.16h-8.48a.9.9,0,0,1-.9-.9v-16H164v16a.9.9,0,0,1-.9.9h-8.47a.9.9,0,0,1-.9-.9V22.71a.9.9,0,0,1,.9-.9h8.47a.9.9,0,0,1,.9.9V35.23h19.2V22.71a.91.91,0,0,1,.9-.9h8.48a.9.9,0,0,1,.9.9V56.26A.9.9,0,0,1,192.62,57.16ZM185,55.36h6.68V23.61H185V36.13a.9.9,0,0,1-.9.9h-21a.9.9,0,0,1-.9-.9V23.61h-6.67V55.36h6.67v-16a.9.9,0,0,1,.9-.9h21a.9.9,0,0,1,.9.9Z"/><path class="cls-3" d="M229.09,57.16H212.51a.9.9,0,0,1-.9-.9V52.48a.9.9,0,0,1,.9-.9h3.16V27.4h-3.16a.9.9,0,0,1-.9-.9V22.71a.91.91,0,0,1,.9-.9h16.58a.91.91,0,0,1,.91.9V26.5a.9.9,0,0,1-.91.9h-3.15V51.58h3.15a.9.9,0,0,1,.91.9v3.78A.9.9,0,0,1,229.09,57.16Zm-15.67-1.8h14.77v-2H225a.9.9,0,0,1-.9-.9v-26a.9.9,0,0,1,.9-.9h3.15v-2H213.42v2h3.15a.9.9,0,0,1,.9.9v26a.9.9,0,0,1-.9.9h-3.15Z"/><path class="cls-3" d="M268.15,57.16c-5.27,0-9.61-.78-12.91-2.32-5.72-2.67-8.62-7.86-8.62-15.44s2.9-12.59,8.62-15.26c3.3-1.54,7.64-2.33,12.91-2.33a29.8,29.8,0,0,1,12.54,2.33c5.72,2.67,8.63,7.81,8.63,15.26s-2.91,12.77-8.63,15.44A29.81,29.81,0,0,1,268.15,57.16Zm0-33.55c-5,0-9.09.73-12.14,2.16-5.11,2.38-7.59,6.84-7.59,13.63S250.9,50.83,256,53.21c3.05,1.43,7.13,2.15,12.14,2.15a28,28,0,0,0,11.78-2.15c5.1-2.38,7.59-6.9,7.59-13.81S285,28.15,279.93,25.77A28,28,0,0,0,268.15,23.61Zm0,30.28a18.23,18.23,0,0,1-7.75-1.63c-3.52-1.64-5.31-6-5.31-12.86s1.79-11,5.31-12.68a18.09,18.09,0,0,1,7.75-1.64,17.21,17.21,0,0,1,7.38,1.64c3.53,1.65,5.31,5.91,5.31,12.68s-1.79,11.22-5.31,12.86A17.35,17.35,0,0,1,268.15,53.89Zm0-27a16.44,16.44,0,0,0-7,1.47c-2.83,1.32-4.27,5-4.27,11s1.44,9.91,4.27,11.23a16.41,16.41,0,0,0,7,1.46,15.56,15.56,0,0,0,6.62-1.46c2.83-1.32,4.27-5.1,4.27-11.23s-1.44-9.73-4.27-11A15.56,15.56,0,0,0,268.15,26.88Z"/><path class="cls-3" d="M323.42,57.16H306.84a.9.9,0,0,1-.9-.9V52.48a.9.9,0,0,1,.9-.9H310V27.4h-3.15a.9.9,0,0,1-.9-.9V22.71a.9.9,0,0,1,.9-.9h16.58a.9.9,0,0,1,.9.9V26.5a.9.9,0,0,1-.9.9h-3.15V51.58h3.15a.9.9,0,0,1,.9.9v3.78A.9.9,0,0,1,323.42,57.16Zm-15.68-1.8h14.78v-2h-3.15a.9.9,0,0,1-.9-.9v-26a.9.9,0,0,1,.9-.9h3.15v-2H307.74v2h3.15a.9.9,0,0,1,.9.9v26a.9.9,0,0,1-.9.9h-3.15Z"/><path class="cls-3" d="M430.64,57.16H421.8a.9.9,0,0,1-.7-.33L408.84,41.68h-9V56.26a.9.9,0,0,1-.9.9h-8.47a.9.9,0,0,1-.9-.9V22.71a.9.9,0,0,1,.9-.9H408.9c6.24,0,11.45,1,15.49,2.84h0c3.52,1.65,5.31,4.07,5.31,7.18,0,2.88-1.78,5.24-5.29,7a22.91,22.91,0,0,1-5.38,2l12.3,14.84a.91.91,0,0,1,.12,1A.89.89,0,0,1,430.64,57.16Zm-8.41-1.8h6.49l-12-14.52a.94.94,0,0,1-.15-.9.92.92,0,0,1,.71-.57,20.72,20.72,0,0,0,6.35-2.14c2.9-1.46,4.31-3.22,4.31-5.4,0-2.39-1.4-4.2-4.27-5.55h0c-3.8-1.77-8.76-2.67-14.73-2.67H391.38V55.36h6.67V40.78a.9.9,0,0,1,.9-.9h10.32a.9.9,0,0,1,.7.33Zm-12.59-17H399a.9.9,0,0,1-.9-.9V26a.91.91,0,0,1,.9-.9h8.11a24.83,24.83,0,0,1,10.33,1.81c2.54,1.19,3.83,2.85,3.83,4.94,0,1.52-.6,3.61-3.46,5h0A19.17,19.17,0,0,1,409.64,38.41Zm-9.79-1.8h9.79A17.31,17.31,0,0,0,417,35.15h0c1.66-.78,2.43-1.83,2.43-3.32s-.91-2.43-2.79-3.31a23.07,23.07,0,0,0-9.57-1.64h-7.21Z"/><path class="cls-3" d="M464.91,57.16H448.33a.9.9,0,0,1-.91-.9V52.48a.9.9,0,0,1,.91-.9h3.15V27.4h-3.15a.9.9,0,0,1-.91-.9V22.71a.91.91,0,0,1,.91-.9h16.58a.91.91,0,0,1,.9.9V26.5a.9.9,0,0,1-.9.9h-3.16V51.58h3.16a.9.9,0,0,1,.9.9v3.78A.9.9,0,0,1,464.91,57.16Zm-15.68-1.8H464v-2h-3.16a.9.9,0,0,1-.9-.9v-26a.9.9,0,0,1,.9-.9H464v-2H449.23v2h3.15a.9.9,0,0,1,.9.9v26a.9.9,0,0,1-.9.9h-3.15Z"/><path class="cls-3" d="M522.75,57.16H512.44a.91.91,0,0,1-.72-.35L493.81,33.33V56.26a.9.9,0,0,1-.9.9h-8.48a.9.9,0,0,1-.9-.9V22.71a.91.91,0,0,1,.9-.9h10.32a.92.92,0,0,1,.72.36l17.91,23.48V22.71a.9.9,0,0,1,.9-.9h8.47a.9.9,0,0,1,.9.9V56.26A.9.9,0,0,1,522.75,57.16Zm-9.87-1.8h9V23.61h-6.67V47.83a.9.9,0,0,1-.9.9h-.37a.93.93,0,0,1-.72-.35L494.31,23.61h-9V55.36H492V31.15a.9.9,0,0,1,.9-.9h.37a.9.9,0,0,1,.71.35Z"/><path class="cls-3" d="M573.23,57.16h-8.84a.89.89,0,0,1-.8-.48l-4.9-9.32H543.56l-4.9,9.32a.91.91,0,0,1-.8.48H529a.89.89,0,0,1-.79-1.33l18.42-33.55a.9.9,0,0,1,.79-.47h7.37a.9.9,0,0,1,.79.47L574,55.83a.89.89,0,0,1-.79,1.33Zm-8.3-1.8h6.78L554.28,23.61H548L530.54,55.36h6.78l4.9-9.32a.89.89,0,0,1,.8-.48h16.21a.91.91,0,0,1,.8.48Zm-7.54-11.27H544.86a.9.9,0,0,1-.8-1.32L550,31.42a.89.89,0,0,1,.8-.49h.73a.89.89,0,0,1,.8.49l5.9,11.35a.9.9,0,0,1-.8,1.32Zm-11-1.8h9.57l-4.79-9.21Z"/></g><g class="cls-4"><path class="cls-5" d="M167.48,43.28q2.69,3.51,2.69,10.25a27.53,27.53,0,0,1-1.75,10.78c-1.09,2.52-2.61,3.77-4.56,3.77s-3.31-1.17-4.32-3.5a25.77,25.77,0,0,1-1.87-10.25V51.64h2.69v2.42a17.11,17.11,0,0,0,.93,6.47q.94,2.16,2.34,2.16a3,3,0,0,0,2.8-2.16,15.68,15.68,0,0,0,1-6.2,11.36,11.36,0,0,0-1.63-6.46,97.48,97.48,0,0,1-5.49-9.17,21,21,0,0,1-2-9.43,22.73,22.73,0,0,1,1.76-10c1.16-2.51,2.45-3.77,3.85-3.77,1.71,0,3,1.08,4,3.24q1.76,4,1.64,11.32H166.9A16.58,16.58,0,0,0,166,22.8c-.55-1.26-1.21-1.89-2-1.89s-1.44.63-2,1.89a14.15,14.15,0,0,0-1.05,5.66,14.76,14.76,0,0,0,1.64,6.74A53,53,0,0,0,167.48,43.28Z"/><path class="cls-5" d="M196.78,68.08V15.52h2.68v21h6.66v-21h2.69V68.08h-2.69V41.67h-6.66V68.08Z"/><path class="cls-5" d="M243,62.15h1.28v5.93H239V62.15h1.29V21.45H239V15.52h5.26v5.93H243Z"/><path class="cls-5" d="M287,41.67q0,17-2.57,22.91-1.51,3.49-3.85,3.5c-1.63,0-3-1.17-4-3.5q-2.56-5.92-2.57-22.91,0-16.71,2.57-22.64c1-2.34,2.34-3.51,4-3.51s2.84,1.17,3.85,3.51Q287,25,287,41.67Zm-10.27,0q0,15.36,1.51,18.86c.71,1.62,1.48,2.43,2.34,2.43s1.52-.81,2.22-2.43q1.51-3.49,1.52-18.86,0-15.09-1.52-18.6-1.05-2.43-2.22-2.43c-.86,0-1.63.81-2.34,2.43Q276.74,26.58,276.74,41.67Z"/><path class="cls-5" d="M320.75,62.15H322v5.93h-5.26V62.15h1.29V21.45h-1.29V15.52H322v5.93h-1.28Z"/><path class="cls-5" d="M401.76,19.83c1,2.34,1.51,5.66,1.51,10a26.33,26.33,0,0,1-1.51,9.7,8.35,8.35,0,0,1-2.11,3.5l4.21,25.07h-2.8l-4-24.26h-3.27V68.08h-2.68V15.52H397Q399.88,15.52,401.76,19.83Zm-2.11,16.45a17,17,0,0,0,.94-6.47,16.54,16.54,0,0,0-1-6.47c-.78-1.8-1.83-2.7-3.16-2.7h-2.57V38.7h3.39C398.14,38.7,399,37.89,399.65,36.28Z"/><path class="cls-5" d="M437.36,62.15h1.28v5.93h-5.25V62.15h1.28V21.45h-1.28V15.52h5.25v5.93h-1.28Z"/><path class="cls-5" d="M480.9,15.52V68.08h-3.27l-6.07-39.35h-.12V68.08h-2.69V15.52H472l6.08,39.35h.11V15.52Z"/><path class="cls-5" d="M509.61,68.08H506.8l5.84-52.56H515l5.84,52.56H518l-1.64-15.36h-5.14Zm4.32-38.27h-.23L511.83,47.6h4Z"/></g><path class="cls-3" d="M174.51,74.26a160.2,160.2,0,0,0,10.08-27.21l5.71,3.69q-2,9.75-8.06,25.2c.22,2-.22,2.68-1.34,2Zm3.36-48.71a49.14,49.14,0,0,1,12.43,8.06l-3.69,6.72q-5-4-11.76-8.4Zm2.69-19.82q7,3.36,10.42,7l-3.7,6a115.46,115.46,0,0,0-10.75-7.73Zm29.9,58.45V79h-5.71V64.18H192V58.8h12.77V52.42H194.67V23.2h10.08V16.48H192.66V11.1h12.09V2.37h5.37q2.69.33.34,2V11.1h12.43v5.38H210.46V23.2h10.41V52.42H210.46V58.8h12.77v5.38ZM215.16,35V28.57H200.38V35Zm0,12.1V40.33H200.38v6.72Zm27.21,3.36H233q0,17.81-10.75,27.88l-4.37-5q9.41-7.73,9.41-23.18V6.4h20.83V73.25q0,4.69-4.37,4.7H238l-1.35-6.38H241a1.19,1.19,0,0,0,1.34-1.34Zm0-24.86V11.77H233V25.55Zm0,19.48V30.92H233V45Z"/><path class="cls-3" d="M316.28,21.85H331.4v6.38H316.28V43.69h20.16v6.38H316.28V78.29h-6.72V50.07H290.75q0,21.51-23.18,28.89l-3-7.73Q284,67.21,284,50.07H262.19V43.69H284V28.23H266.56V21.85H284V5.73h6.38q2.68.33.34,2V21.85h18.81V5.73h6.38c1.79.22,1.91.89.34,2Zm-25.53,6.38V43.69h18.81V28.23Z"/><path class="cls-3" d="M350.21,23.2V17.82h16.13V12.11q-7.39.33-14.79.34l-1-5.72q20.82-.33,32.58-3l2.69,6.05c.67,1.34,0,1.57-2,.67q-6.72.68-11.75,1v6.38h15.79V23.2H372.05v1a44.42,44.42,0,0,1,16.46,7.73l-4,6a51.41,51.41,0,0,0-12.43-7.73V44.7h-5.71V30.59A60.73,60.73,0,0,1,350.21,41l-3.7-6q12.11-5,19.15-11.75Zm38,25.86h31.92v6.39h-29.9q11.42,11.08,32.58,14.44l-2.35,7.39a65,65,0,0,1-32.25-16.12V79.63h-6.72V61.16q-10.08,10.08-31.91,16.12l-2-7.39q20.49-4,31.58-14.44H349.87V49.06h31.58V41.67h6.39q2.69.34.33,2Zm5.38-10.75V9.76h6.38c1.79.22,1.9.9.33,2V38.31ZM410,37V5.39h6.38q2.69.35.34,2V39.32q0,5-4,5h-7.05l-1-6.38H409A.9.9,0,0,0,410,37Z"/><path class="cls-3" d="M469,27.23h31.24v7.39h-30.9v6q0,24.87-21.5,37.63l-7.06-5.38q20.83-10.74,20.83-32.25v-6H428.36V27.23h32.92V7.07H468c2.47.23,2.8,1.12,1,2.69Z"/><g class="cls-6"><path class="cls-5" d="M201.31,39.65c1.43.37,2.15.9,2.15,1.61s-.46,1.26-1.4,1.68a9,9,0,0,1-3.66.6,8.81,8.81,0,0,1-3.47-.55c-1-.45-1.5-1-1.5-1.61V41h2.16v.38a1.08,1.08,0,0,0,.75,1,4.47,4.47,0,0,0,1.87.34,5.64,5.64,0,0,0,2.25-.34c.57-.25.85-.57.85-1s-.44-.76-1.31-1c-1.57-.45-3-.93-4.41-1.43-1-.37-1.53-.86-1.59-1.48s.4-1.14,1.4-1.56a8,8,0,0,1,3.1-.59,8.12,8.12,0,0,1,3.18.5c.94.43,1.38,1,1.32,1.78h-2.16q.18-.72-.75-1.14a4.39,4.39,0,0,0-3.19,0c-.56.25-.84.55-.84.88s.43.72,1.31,1.06A35.25,35.25,0,0,0,201.31,39.65Z"/><path class="cls-5" d="M224.82,43.54V35.31H227V38.6h5.34V35.31h2.16v8.23h-2.16V39.4H227v4.14Z"/><path class="cls-5" d="M261.93,42.61h1v.93h-4.22v-.93h1V36.24h-1v-.93H263v.93h-1Z"/><path class="cls-5" d="M297.25,39.4A3.56,3.56,0,0,1,295.19,43a7.63,7.63,0,0,1-3.09.55,7.91,7.91,0,0,1-3.19-.55,3.55,3.55,0,0,1-2.06-3.59,3.51,3.51,0,0,1,2.06-3.54,7.75,7.75,0,0,1,3.19-.55,7.47,7.47,0,0,1,3.09.55A3.52,3.52,0,0,1,297.25,39.4Zm-8.25,0c0,1.6.41,2.59,1.22,3a4.42,4.42,0,0,0,1.88.38,4.22,4.22,0,0,0,1.78-.38c.81-.36,1.22-1.35,1.22-3s-.41-2.54-1.22-2.91a4.38,4.38,0,0,0-1.78-.38,4.57,4.57,0,0,0-1.88.38C289.41,36.86,289,37.83,289,39.4Z"/><path class="cls-5" d="M324.33,42.61h1v.93h-4.22v-.93h1V36.24h-1v-.93h4.22v.93h-1Z"/><path class="cls-5" d="M389.35,36a1.73,1.73,0,0,1,1.22,1.56c0,.62-.41,1.13-1.22,1.52a5.48,5.48,0,0,1-1.69.55L391,43.54h-2.25l-3.19-3.8H383v3.8h-2.16V35.31h4.69A9.41,9.41,0,0,1,389.35,36Zm-1.69,2.58a1.1,1.1,0,0,0,.75-1c0-.42-.28-.75-.84-1a6.31,6.31,0,0,0-2.53-.42H383v2.83h2.72A4.76,4.76,0,0,0,387.66,38.56Z"/><path class="cls-5" d="M417.93,42.61h1v.93h-4.22v-.93h1V36.24h-1v-.93H419v.93h-1Z"/><path class="cls-5" d="M452.88,35.31v8.23h-2.63l-4.87-6.16h-.1v6.16h-2.15V35.31h2.62l4.88,6.16h.09V35.31Z"/><path class="cls-5" d="M475.92,43.54h-2.25l4.69-8.23h1.87l4.69,8.23h-2.25l-1.31-2.41h-4.13Zm3.47-6h-.19l-1.5,2.79h3.19Z"/></g><rect class="cls-7" width="680" height="82"/></g></g></svg>