<svg xmlns="http://www.w3.org/2000/svg" viewBox="0 0 680 82"><defs><style>.cls-1{isolation:isolate;}.cls-2{opacity:0.2;}.cls-2,.cls-4{mix-blend-mode:screen;}.cls-3{fill:#fff;}.cls-4{opacity:0.45;}.cls-5{fill:red;}.cls-6{opacity:0.85;}.cls-7{fill:none;opacity:0.19;}</style></defs><title>アートボード 344</title><g class="cls-1"><g id="CHARACTER"><g class="cls-2"><path class="cls-3" d="M35.52,56.54H28.59a.9.9,0,0,1-.9-.9V43.48L13.78,28.84a.9.9,0,0,1,.66-1.52h6.92a.88.88,0,0,1,.65.28l10,10.58,10-10.58a.91.91,0,0,1,.66-.28h6.92a.9.9,0,0,1,.83.54.91.91,0,0,1-.18,1L36.42,43.48V55.64A.9.9,0,0,1,35.52,56.54Zm-6-1.8h5.13V43.13a.9.9,0,0,1,.24-.62L47.58,29.12H43.13L32.86,40a.91.91,0,0,1-.66.28h-.3a.9.9,0,0,1-.65-.28L21,29.12H16.53L29.24,42.51a.87.87,0,0,1,.25.62Z"/><path class="cls-3" d="M88.82,56.54H81.6a.88.88,0,0,1-.8-.48l-4-7.53H64.67l-4,7.53a.89.89,0,0,1-.8.48H52.68a.9.9,0,0,1-.79-1.33L67,27.79a.9.9,0,0,1,.79-.47h6a.89.89,0,0,1,.78.47L89.61,55.21a.88.88,0,0,1,0,.89A.91.91,0,0,1,88.82,56.54Zm-6.68-1.8H87.3L73.23,29.12h-5L54.2,54.74h5.17l4-7.53a.89.89,0,0,1,.8-.48H77.38a.91.91,0,0,1,.8.48Zm-6.27-8.89H65.63a.91.91,0,0,1-.77-.43.89.89,0,0,1,0-.88l4.81-9.28a.92.92,0,0,1,.8-.49h.61a.89.89,0,0,1,.79.49l4.82,9.28a.87.87,0,0,1,0,.88A.89.89,0,0,1,75.87,45.85Zm-8.75-1.8h7.27l-3.64-7Z"/><path class="cls-3" d="M112.32,56.54h-6.93a.9.9,0,0,1-.9-.9V31.79H93.64a.9.9,0,0,1-.9-.9V28.22a.9.9,0,0,1,.9-.9h31a.9.9,0,0,1,.9.9v2.67a.9.9,0,0,1-.9.9H113.22V55.64A.9.9,0,0,1,112.32,56.54Zm-6-1.8h5.13V30.89a.9.9,0,0,1,.9-.9h11.44v-.87H94.54V30h10.85a.9.9,0,0,1,.9.9Z"/><path class="cls-3" d="M147.55,56.54c-4.93,0-8.81-.64-11.52-1.91-3.54-1.65-5.34-3.72-5.34-6.16V47.06a.9.9,0,0,1,.9-.9h6.93a.91.91,0,0,1,.9.9v1.27c0,.72.19,1.77,1.89,2.56a13.37,13.37,0,0,0,5.64,1,17.12,17.12,0,0,0,6.85-1c2.19-1,2.19-2.08,2.19-2.42,0-1.25-2.24-2.11-3.58-2.51-5-1.5-9.78-3.11-14.21-4.81-3.55-1.34-5.47-3.25-5.7-5.67s1.46-4.54,5.05-6.12a25.76,25.76,0,0,1,10.3-2c4.53,0,8.11.6,10.62,1.77,3.37,1.57,5,3.86,4.74,6.79a.9.9,0,0,1-.9.83h-6.93a.93.93,0,0,1-.71-.34.91.91,0,0,1-.16-.78c.2-.77.15-1.79-1.92-2.76a12.93,12.93,0,0,0-9.48,0c-1,.47-2.19,1.22-2.19,2.14,0,.37.36,1.36,3.65,2.68a110.52,110.52,0,0,0,12.55,4.18c5,1.34,7.6,3.43,7.6,6.22s-1.7,4.88-5,6.44C156.76,55.85,152.68,56.54,147.55,56.54ZM132.49,48v.51c0,1.67,1.45,3.2,4.3,4.53,2.47,1.15,6.09,1.74,10.76,1.74,4.87,0,8.69-.63,11.37-1.88s4-2.83,4-4.81-2.11-3.38-6.26-4.48h0a112.09,112.09,0,0,1-12.75-4.25c-3.22-1.29-4.79-2.71-4.79-4.35s1.09-2.77,3.23-3.77a14.67,14.67,0,0,1,11,0c2.31,1.08,3,2.48,3,3.71h5c-.18-1.74-1.4-3.11-3.7-4.19s-5.59-1.6-9.86-1.6A24,24,0,0,0,138.27,31c-2.8,1.23-4.14,2.67-4,4.29s1.69,3.09,4.55,4.17c4.39,1.68,9.13,3.28,14.09,4.76,1.2.36,4.86,1.46,4.86,4.24,0,1.69-1.09,3.05-3.23,4.05A18.53,18.53,0,0,1,147,53.73a15.21,15.21,0,0,1-6.41-1.21,4.47,4.47,0,0,1-2.92-4.19V48Z"/><path class="cls-3" d="M186.4,56.54h-.3c-5.21,0-8.88-.53-11.22-1.63-3.34-1.56-5-3.78-5-6.58V28.22a.9.9,0,0,1,.9-.9h6.93a.9.9,0,0,1,.9.9V48.33a2.46,2.46,0,0,0,1.59,2.42,14.93,14.93,0,0,0,5.94.9h.3a14,14,0,0,0,5.65-.9c1.69-.79,1.89-1.76,1.89-2.42V28.22a.9.9,0,0,1,.9-.9h6.92a.9.9,0,0,1,.9.9V48.33c0,2.8-1.69,5-5,6.58C195.28,56,191.6,56.54,186.4,56.54ZM171.64,29.12V48.33c0,2.07,1.31,3.69,4,5,2.07,1,5.59,1.46,10.46,1.46h.3c4.87,0,8.39-.49,10.46-1.46,2.69-1.26,4-2.88,4-5V29.12h-5.12V48.33c0,1.22-.51,2.92-2.93,4.05a15.35,15.35,0,0,1-6.41,1.07h-.3a16.17,16.17,0,0,1-6.7-1.07,4.24,4.24,0,0,1-2.63-4.05V29.12Z"/><path class="cls-3" d="M241.22,56.54h-6a.9.9,0,0,1-.9-.9v-17l-6.08,17.28a.91.91,0,0,1-.85.6h-4.82a.91.91,0,0,1-.85-.6l-6.08-17.28v17a.9.9,0,0,1-.9.9h-6a.9.9,0,0,1-.9-.9V28.22a.9.9,0,0,1,.9-.9h9.64a.91.91,0,0,1,.85.6L225,44.23l5.78-16.31a.91.91,0,0,1,.85-.6h9.64a.9.9,0,0,1,.9.9V55.64A.9.9,0,0,1,241.22,56.54Zm-5.13-1.8h4.23V29.12h-8.11L226.1,46.38a.91.91,0,0,1-.85.6h-.6a.91.91,0,0,1-.85-.6l-6.11-17.26h-8.1V54.74h4.22V35.11a.9.9,0,0,1,.9-.9h.61a.88.88,0,0,1,.84.6l7,19.93h3.54l7-19.93a.91.91,0,0,1,.85-.6h.6a.9.9,0,0,1,.9.9Z"/><path class="cls-3" d="M263.5,56.54h-.3c-5.21,0-8.88-.53-11.22-1.63-3.34-1.56-5-3.78-5-6.58V28.22a.9.9,0,0,1,.9-.9h6.93a.9.9,0,0,1,.9.9V48.33a2.46,2.46,0,0,0,1.59,2.42,14.93,14.93,0,0,0,5.94.9h.3a14,14,0,0,0,5.65-.9C270.84,50,271,49,271,48.33V28.22a.9.9,0,0,1,.9-.9h6.92a.9.9,0,0,1,.9.9V48.33c0,2.8-1.69,5-5,6.58C272.38,56,268.7,56.54,263.5,56.54ZM248.74,29.12V48.33c0,2.07,1.31,3.69,4,5,2.07,1,5.59,1.46,10.46,1.46h.3c4.87,0,8.39-.49,10.46-1.46,2.69-1.26,4-2.88,4-5V29.12h-5.12V48.33c0,1.22-.51,2.92-2.93,4.05a15.35,15.35,0,0,1-6.41,1.07h-.3a16.17,16.17,0,0,1-6.7-1.07,4.24,4.24,0,0,1-2.63-4.05V29.12Z"/><path class="cls-3" d="M319.22,56.54H312a.9.9,0,0,1-.7-.33l-10-12.33h-7.1V55.64a.9.9,0,0,1-.9.9h-6.93a.9.9,0,0,1-.9-.9V28.22a.9.9,0,0,1,.9-.9h15.06a30.32,30.32,0,0,1,12.73,2.33h0c2.94,1.38,4.43,3.4,4.43,6,0,2.42-1.48,4.4-4.41,5.87a19.23,19.23,0,0,1-4.17,1.6l9.88,11.93a.9.9,0,0,1-.69,1.47Zm-6.8-1.8h4.88l-9.62-11.6a.91.91,0,0,1-.14-.9.89.89,0,0,1,.7-.57,16.87,16.87,0,0,0,5.14-1.73c2.31-1.17,3.43-2.56,3.43-4.27,0-1.88-1.11-3.32-3.39-4.39a28.73,28.73,0,0,0-12-2.16H287.29V54.74h5.13V43a.9.9,0,0,1,.9-.9h8.43a.91.91,0,0,1,.7.34ZM302.05,41.21h-8.73a.9.9,0,0,1-.9-.9V30.89a.9.9,0,0,1,.9-.9h6.62a20.51,20.51,0,0,1,8.52,1.49c2.14,1,3.23,2.41,3.23,4.19a4.47,4.47,0,0,1-2.93,4.19h0A15.73,15.73,0,0,1,302.05,41.21Zm-7.83-1.8h7.83A13.92,13.92,0,0,0,308,38.23h0a2.68,2.68,0,0,0,1.89-2.56c0-.38,0-1.53-2.19-2.56a19,19,0,0,0-7.76-1.32h-5.72Z"/><path class="cls-3" d="M358.67,56.54h-7.23a.88.88,0,0,1-.79-.48l-4-7.53H334.52l-4,7.53a.91.91,0,0,1-.8.48h-7.23a.89.89,0,0,1-.77-.44.91.91,0,0,1,0-.89L336.8,27.79a.9.9,0,0,1,.79-.47h6a.9.9,0,0,1,.79.47l15.06,27.42a.91.91,0,0,1,0,.89A.92.92,0,0,1,358.67,56.54ZM352,54.74h5.16L343.08,29.12h-5L324.05,54.74h5.17l4-7.53a.89.89,0,0,1,.8-.48h13.25a.88.88,0,0,1,.79.48Zm-6.27-8.89H335.48a.9.9,0,0,1-.8-1.31l4.82-9.28a.9.9,0,0,1,.8-.49h.6a.89.89,0,0,1,.8.49l4.82,9.28a.9.9,0,0,1-.8,1.31ZM337,44.05h7.28l-3.64-7Z"/><path class="cls-3" d="M420.71,56.54h-6.92a.9.9,0,0,1-.9-.9V31.79H402a.9.9,0,0,1-.9-.9V28.22a.9.9,0,0,1,.9-.9h31a.9.9,0,0,1,.9.9v2.67a.9.9,0,0,1-.9.9H421.61V55.64A.9.9,0,0,1,420.71,56.54Zm-6-1.8h5.12V30.89a.9.9,0,0,1,.9-.9h11.45v-.87H402.94V30h10.85a.9.9,0,0,1,.9.9Z"/><path class="cls-3" d="M456,56.54c-4.93,0-8.81-.64-11.52-1.91-3.55-1.65-5.34-3.72-5.34-6.16V47.06a.9.9,0,0,1,.9-.9h6.93a.91.91,0,0,1,.9.9v1.27a2.66,2.66,0,0,0,1.88,2.56,13.45,13.45,0,0,0,5.65,1,17.15,17.15,0,0,0,6.85-1c2.19-1,2.19-2.08,2.19-2.42,0-1.25-2.24-2.11-3.58-2.51-5-1.5-9.78-3.11-14.22-4.81-3.54-1.34-5.46-3.25-5.69-5.67s1.46-4.54,5.05-6.12a25.76,25.76,0,0,1,10.3-2c4.53,0,8.1.6,10.62,1.77,3.37,1.57,5,3.86,4.73,6.79a.89.89,0,0,1-.89.83h-6.93a.89.89,0,0,1-.87-1.12c.19-.77.15-1.79-1.92-2.76a12.93,12.93,0,0,0-9.48,0c-1,.47-2.19,1.22-2.19,2.14,0,.37.36,1.36,3.65,2.68a111.19,111.19,0,0,0,12.55,4.18h0c5,1.34,7.59,3.43,7.59,6.22s-1.69,4.88-5,6.44C465.16,55.85,461.08,56.54,456,56.54ZM440.89,48v.51c0,1.67,1.45,3.2,4.3,4.53,2.47,1.15,6.09,1.74,10.76,1.74,4.86,0,8.69-.63,11.37-1.88s4-2.83,4-4.81-2.1-3.38-6.25-4.48h0a113.42,113.42,0,0,1-12.75-4.25c-3.21-1.29-4.78-2.71-4.78-4.35s1.09-2.77,3.23-3.77a14.67,14.67,0,0,1,11,0c2.31,1.08,3,2.48,3,3.71h5c-.17-1.74-1.39-3.11-3.69-4.19s-5.59-1.6-9.86-1.6A24,24,0,0,0,446.67,31c-2.8,1.23-4.14,2.67-4,4.29s1.69,3.09,4.54,4.17c4.4,1.68,9.14,3.28,14.1,4.76,1.2.36,4.86,1.46,4.86,4.24,0,1.69-1.09,3.05-3.23,4.05a18.56,18.56,0,0,1-7.61,1.21,15.21,15.21,0,0,1-6.41-1.21A4.47,4.47,0,0,1,446,48.33V48Z"/><path class="cls-3" d="M494.8,56.54h-.3c-5.21,0-8.88-.53-11.22-1.63-3.34-1.56-5-3.78-5-6.58V28.22a.9.9,0,0,1,.9-.9h6.93a.9.9,0,0,1,.9.9V48.33a2.46,2.46,0,0,0,1.59,2.42,14.93,14.93,0,0,0,5.94.9h.3a14,14,0,0,0,5.64-.9c1.7-.79,1.89-1.76,1.89-2.42V28.22a.9.9,0,0,1,.9-.9h6.93a.9.9,0,0,1,.9.9V48.33c0,2.8-1.69,5-5,6.58C503.67,56,500,56.54,494.8,56.54ZM480,29.12V48.33c0,2.07,1.31,3.69,4,5,2.07,1,5.59,1.46,10.46,1.46h.3c4.87,0,8.39-.49,10.46-1.46,2.69-1.26,4-2.88,4-5V29.12h-5.13V48.33c0,1.22-.5,2.92-2.92,4.05a15.35,15.35,0,0,1-6.41,1.07h-.3a16.25,16.25,0,0,1-6.71-1.07,4.24,4.24,0,0,1-2.62-4.05V29.12Z"/><path class="cls-3" d="M536.66,56.54h-6.92a.9.9,0,0,1-.9-.9V43.48L514.93,28.84a.9.9,0,0,1,.65-1.52h6.93a.88.88,0,0,1,.65.28l10,10.58,10-10.58a.88.88,0,0,1,.65-.28h6.93a.9.9,0,0,1,.65,1.52L537.56,43.48V55.64A.9.9,0,0,1,536.66,56.54Zm-6-1.8h5.12V43.13a.87.87,0,0,1,.25-.62l12.71-13.39h-4.44L534,40a.88.88,0,0,1-.65.28h-.3a.88.88,0,0,1-.65-.28L522.12,29.12h-4.44l12.71,13.39a.87.87,0,0,1,.25.62Z"/><path class="cls-3" d="M571.9,56.54h-.3c-5.21,0-8.88-.53-11.22-1.63-3.34-1.56-5-3.78-5-6.58V28.22a.9.9,0,0,1,.9-.9h6.93a.9.9,0,0,1,.9.9V48.33a2.46,2.46,0,0,0,1.59,2.42,14.93,14.93,0,0,0,5.94.9h.3a14,14,0,0,0,5.64-.9c1.7-.79,1.89-1.76,1.89-2.42V28.22a.9.9,0,0,1,.9-.9h6.93a.9.9,0,0,1,.9.9V48.33c0,2.8-1.69,5-5,6.58C580.77,56,577.1,56.54,571.9,56.54ZM557.14,29.12V48.33c0,2.07,1.31,3.69,4,5,2.07,1,5.59,1.46,10.46,1.46h.3c4.86,0,8.39-.49,10.46-1.46,2.69-1.26,4-2.88,4-5V29.12h-5.13V48.33c0,1.22-.5,2.92-2.93,4.05a15.27,15.27,0,0,1-6.4,1.07h-.3a16.25,16.25,0,0,1-6.71-1.07,4.24,4.24,0,0,1-2.62-4.05V29.12Z"/><path class="cls-3" d="M625.81,56.54h-8.43a.91.91,0,0,1-.72-.35L602.32,37.38V55.64a.9.9,0,0,1-.9.9h-6.93a.9.9,0,0,1-.9-.9V28.22a.9.9,0,0,1,.9-.9h8.43a.91.91,0,0,1,.72.35L618,46.48V28.22a.9.9,0,0,1,.9-.9h6.93a.9.9,0,0,1,.9.9V55.64A.9.9,0,0,1,625.81,56.54Zm-8-1.8h7.09V29.12h-5.13V48.75a.9.9,0,0,1-.9.9h-.3a.9.9,0,0,1-.71-.35L602.48,29.12h-7.09V54.74h5.13V35.11a.9.9,0,0,1,.9-.9h.3a.9.9,0,0,1,.71.35Z"/><path class="cls-3" d="M649,56.54a25.32,25.32,0,0,1-10.62-1.91c-4.74-2.21-7.15-6.51-7.15-12.77s2.41-10.41,7.15-12.63A25.35,25.35,0,0,1,649,27.32a24.54,24.54,0,0,1,10.32,1.91c4.74,2.22,7.14,6.47,7.14,12.63s-2.4,10.55-7.14,12.77A24.51,24.51,0,0,1,649,56.54Zm0-27.42a23.77,23.77,0,0,0-9.86,1.74c-4.11,1.92-6.1,5.52-6.1,11s2,9.22,6.1,11.14A23.71,23.71,0,0,0,649,54.74,22.88,22.88,0,0,0,658.56,53c4.11-1.92,6.1-5.56,6.1-11.14s-2-9.08-6.1-11A22.91,22.91,0,0,0,649,29.12Zm0,24.75a15.1,15.1,0,0,1-6.4-1.35c-3-1.37-4.44-5-4.44-10.66s1.49-9.14,4.44-10.52A15.1,15.1,0,0,1,649,30a14.37,14.37,0,0,1,6.1,1.35c2.95,1.38,4.44,4.92,4.44,10.52s-1.49,9.29-4.44,10.66A14.37,14.37,0,0,1,649,53.87Zm0-22.08A13.27,13.27,0,0,0,643.36,33C641.1,34,640,37,640,41.86s1.14,8,3.4,9A13.27,13.27,0,0,0,649,52.07a12.57,12.57,0,0,0,5.34-1.18c2.26-1,3.4-4.09,3.4-9S656.59,34,654.34,33A12.57,12.57,0,0,0,649,31.79Z"/></g><g class="cls-4"><path class="cls-5" d="M97.2,14.84l4.09,21.29h.11l4.09-21.29h2.69l-5.49,28.57v24H100v-24L94.51,14.84Z"/><path class="cls-5" d="M127.1,67.4h-2.81l5.84-52.56h2.34l5.84,52.56h-2.8L133.87,52h-5.14Zm4.32-38.28h-.23l-1.87,17.79h4Z"/><path class="cls-5" d="M159.68,67.4V20h-4.55V14.84h12V20h-4.79V67.4Z"/><path class="cls-5" d="M194.61,42.6q2.69,3.51,2.68,10.24a27.49,27.49,0,0,1-1.75,10.78Q193.9,67.4,191,67.4t-4.33-3.51a25.72,25.72,0,0,1-1.86-10.24V51h2.68v2.43a16.92,16.92,0,0,0,.94,6.47c.62,1.44,1.4,2.15,2.33,2.15a3,3,0,0,0,2.81-2.15,15.71,15.71,0,0,0,1.05-6.2A11.4,11.4,0,0,0,193,47.18,97.3,97.3,0,0,1,187.48,38a21,21,0,0,1-2-9.44,22.55,22.55,0,0,1,1.75-10q1.75-3.76,3.85-3.77c1.71,0,3,1.07,4,3.23q1.76,4,1.64,11.32H194a16.45,16.45,0,0,0-.93-7.28c-.55-1.25-1.21-1.88-2-1.88s-1.44.63-2,1.88a14.18,14.18,0,0,0-1.05,5.66,14.72,14.72,0,0,0,1.63,6.74A53.1,53.1,0,0,0,194.61,42.6Z"/><path class="cls-5" d="M214.93,14.84h2.69V53.38a17,17,0,0,0,.81,6.2,2.64,2.64,0,0,0,2.46,1.89H221q1.51,0,2.34-1.89a16.25,16.25,0,0,0,.93-6.2V14.84H227V53.38q0,7-1.75,11.05a4.36,4.36,0,0,1-4.21,3h-.11a4.36,4.36,0,0,1-4.21-3q-1.76-4.05-1.75-11.05Z"/><path class="cls-5" d="M246.93,28V67.4H244.6V14.84h3.73l2.46,34.23H251l2.45-34.23h3.74V67.4h-2.34V28h-.23l-2.8,39.36H250L247.17,28Z"/><path class="cls-5" d="M274.73,14.84h2.69V53.38a17,17,0,0,0,.81,6.2,2.65,2.65,0,0,0,2.46,1.89h.11q1.51,0,2.34-1.89a16.25,16.25,0,0,0,.93-6.2V14.84h2.69V53.38q0,7-1.75,11.05a4.36,4.36,0,0,1-4.21,3h-.11a4.36,4.36,0,0,1-4.21-3q-1.75-4.05-1.75-11.05Z"/><path class="cls-5" d="M315.26,19.15q1.51,3.51,1.52,10a26.27,26.27,0,0,1-1.52,9.7,8.41,8.41,0,0,1-2.1,3.51l4.2,25.07h-2.8l-4-24.26h-3.27V67.4h-2.69V14.84h5.84C312.42,14.84,314,16.28,315.26,19.15Zm-2.1,16.44a17.15,17.15,0,0,0,.93-6.47,16.58,16.58,0,0,0-1-6.47c-.78-1.79-1.83-2.69-3.15-2.69h-2.57V38h3.38Q312.11,38,313.16,35.59Z"/><path class="cls-5" d="M336.4,67.4h-2.8l5.84-52.56h2.33l5.84,52.56h-2.8L343.17,52H338Zm4.32-38.28h-.23l-1.87,17.79h4Z"/><path class="cls-5" d="M398.89,67.4V20h-4.56V14.84h12V20h-4.79V67.4Z"/><path class="cls-5" d="M433.81,42.6q2.69,3.51,2.68,10.24a27.49,27.49,0,0,1-1.75,10.78q-1.64,3.78-4.55,3.78t-4.32-3.51A25.55,25.55,0,0,1,424,53.65V51h2.68v2.43a16.92,16.92,0,0,0,.94,6.47C428.24,61.29,429,62,430,62a3,3,0,0,0,2.81-2.15,15.71,15.71,0,0,0,1.05-6.2,11.4,11.4,0,0,0-1.64-6.47A101.76,101.76,0,0,1,426.68,38a21,21,0,0,1-2-9.44,22.55,22.55,0,0,1,1.75-10q1.76-3.76,3.85-3.77c1.72,0,3,1.07,4,3.23q1.75,4,1.64,11.32h-2.69a16.45,16.45,0,0,0-.93-7.28c-.55-1.25-1.21-1.88-2-1.88s-1.44.63-2,1.88a14.18,14.18,0,0,0-1.05,5.66,14.72,14.72,0,0,0,1.63,6.74A53.1,53.1,0,0,0,433.81,42.6Z"/><path class="cls-5" d="M454.13,14.84h2.69V53.38a17,17,0,0,0,.81,6.2,2.65,2.65,0,0,0,2.46,1.89h.11c1,0,1.79-.63,2.34-1.89a16.25,16.25,0,0,0,.93-6.2V14.84h2.69V53.38q0,7-1.75,11.05a4.36,4.36,0,0,1-4.21,3h-.11a4.36,4.36,0,0,1-4.21-3q-1.75-4.05-1.75-11.05Z"/><path class="cls-5" d="M485.9,14.84,490,36.13h.11l4.09-21.29h2.69l-5.49,28.57v24H488.7v-24l-5.49-28.57Z"/><path class="cls-5" d="M513.93,14.84h2.69V53.38a16.78,16.78,0,0,0,.82,6.2,2.63,2.63,0,0,0,2.45,1.89H520q1.53,0,2.34-1.89a16.25,16.25,0,0,0,.93-6.2V14.84H526V53.38q0,7-1.75,11.05a4.36,4.36,0,0,1-4.21,3h-.11a4.36,4.36,0,0,1-4.21-3q-1.74-4.05-1.75-11.05Z"/><path class="cls-5" d="M555.86,14.84V67.4h-3.27L546.52,28h-.12V67.4h-2.69V14.84H547l6.08,39.35h.11V14.84Z"/><path class="cls-5" d="M586.23,41q0,17-2.57,22.91-1.51,3.51-3.86,3.51c-1.63,0-3-1.17-4-3.51Q573.27,58,573.26,41q0-16.71,2.57-22.64c1-2.33,2.34-3.5,4-3.5s2.85,1.17,3.86,3.5Q586.23,24.28,586.23,41ZM576,41q0,15.36,1.52,18.87c.7,1.62,1.48,2.42,2.33,2.42s1.52-.8,2.22-2.42q1.51-3.49,1.52-18.87,0-15.09-1.52-18.6c-.7-1.61-1.44-2.42-2.22-2.42s-1.63.81-2.33,2.42Q576,25.89,576,41Z"/></g><path class="cls-3" d="M203.88,65.51a58.59,58.59,0,0,0-5.71-4.37A40.52,40.52,0,0,1,176.33,79L173,71.89a32.12,32.12,0,0,0,19.49-14.78,45.39,45.39,0,0,0-7.06-4l-1.34,4.37-7.06-2a184.3,184.3,0,0,0,7.39-30.9h-9.07V18.14H185.4q1-7.38,1.68-15.79l7.39,1c1.79.67,1.56,1.35-.67,2a125.25,125.25,0,0,1-2,12.76h10.75l.68-1,4.7,3.35-1,1.68q-.68,18.15-5.71,31.58l7.05,4.71Zm-12.77-41q-2,11.76-4.37,22.5c2.47.9,5.26,2,8.4,3.36a97.91,97.91,0,0,0,5-25.86Zm17.47-13.78h31.58l1-1.34,5,4.37q1.68,1.68-.67,2-4,25.2-13.77,38.63a43.76,43.76,0,0,0,19.15,12.77l-4,8.06q-10.08-3.69-19.15-14.44a70.91,70.91,0,0,1-23.52,17.8l-4-7q15.12-7.4,22.84-16.8Q215,40.32,213,17.14h-4.37Zm11.09,6.39A84.84,84.84,0,0,0,227.39,48q7.06-10.41,10.42-30.9Z"/><path class="cls-3" d="M259,51.06Q271.74,39,275.43,23.52H261.32V17.14h14.11V2h6.38c1.79.22,1.9.9.34,2V17.14h13.1v6.38h-13.1V33.6a72.85,72.85,0,0,1,13.1,13.1l-4.7,5.71a77.08,77.08,0,0,0-8.4-10.08V77.6h-6.72V41.66a63.74,63.74,0,0,1-11.76,15.45Zm44-14.78a46.91,46.91,0,0,1,9.4,13.78l-6.38,4A60.8,60.8,0,0,0,297.27,40ZM324.48,2c1.79.22,1.9.9.33,2V18.81h10.75V25.2H324.81V71.56q0,5.37-5.37,5.37h-8.06l-1-6.38h6.38a1.19,1.19,0,0,0,1.34-1.34v-44H298.27V18.81h19.82V2Z"/><path class="cls-3" d="M356.39,71.56l5.38-.67V52.74H350.34V37.63h28.22V52.74H367.48v4h10.41v5.37H367.48v7.73l13.77-2.35V72.9l-31.91,5.71q-1.69,2.36-2,.67l-1.68-6,5-.68V56.1h5.38q2.69.34.33,2ZM353.7,17.14v9.07H347V11.76h33.6v-4H353.37V2.35h59.79V7.73H386.29v4h33.93V25.2H413.5V17.14H386.29V35.28h-5.71V17.14Zm19.15,31.57V41.66H356.06v7.05Zm4-23.51H356.73v-4h20.15Zm0,4v4H356.73v-4Zm2.35,28.89a109.61,109.61,0,0,0,17.81-6,44.12,44.12,0,0,1-6.05-4.7,50,50,0,0,1-6.72,5.71l-3.69-4.7Q390,41,393.34,33.93l5.71,1.35c.9.89.56,1.45-1,1.68l-1.68,2.68h15.79l1-1L417.87,41c1.34.89,1,1.46-1,1.68a70.45,70.45,0,0,1-10.75,9.4q5.7,2.35,16.8,4l-1.35,5.71-5-1V79.28h-5.71V76.6H394V80h-5.71V61.48a47.35,47.35,0,0,1-7.4,2ZM410.14,25.2H390.32v-4h19.82Zm0,8.06H390.32v-4h19.82Zm4.7,26.88a48.4,48.4,0,0,1-13.43-4.71,70.49,70.49,0,0,1-10.75,4.71Zm-6.38-16.47H394.35l-.33.68q5,3.69,7.39,5.37A82.84,82.84,0,0,0,408.46,43.67Zm2.35,28.89V64.17H394v8.39Z"/><path class="cls-3" d="M459.19,14.78v8.07q0,36.61-21.84,52.74l-5.71-5.71q20.82-13.11,20.83-48.38V14.78H437V8.4h48.37q-2,13.79-3.36,19.49h20.49q-2,24.53-3.36,35.94-1.34,11.08-13.1,11.09A55.32,55.32,0,0,1,474,73.57v-7q8.73,1,10.75,1,6.38,0,7-4.37,1.68-12.76,3-28.89H481L479.34,41,472,40a218.77,218.77,0,0,0,5.38-25.2Z"/><g class="cls-6"><path class="cls-5" d="M145.23,34.62,148.51,38h.09l3.28-3.34H154l-4.41,4.48v3.75h-2.15V39.1l-4.41-4.48Z"/><path class="cls-5" d="M169.23,42.85H167l4.68-8.23h1.88l4.69,8.23H176l-1.32-2.41h-4.12Zm3.47-6h-.19L171,39.64h3.19Z"/><path class="cls-5" d="M195.38,42.85V35.42h-3.65v-.8h9.65v.8h-3.84v7.43Z"/><path class="cls-5" d="M223.41,39c1.44.36,2.16.9,2.16,1.6s-.47,1.27-1.41,1.69a9.15,9.15,0,0,1-3.65.59A8.63,8.63,0,0,1,217,42.3c-1-.45-1.5-1-1.5-1.6v-.42h2.16v.38a1.07,1.07,0,0,0,.75,1,4.6,4.6,0,0,0,1.87.34,5.83,5.83,0,0,0,2.25-.34c.56-.25.84-.58.84-1s-.43-.76-1.31-1c-1.56-.45-3-.93-4.4-1.44-1-.36-1.54-.86-1.6-1.48s.41-1.13,1.41-1.56a9.23,9.23,0,0,1,6.28-.08c.94.42,1.37,1,1.31,1.77H223q.18-.72-.75-1.14a4,4,0,0,0-1.6-.29,4,4,0,0,0-1.59.29c-.56.26-.85.55-.85.89s.44.72,1.32,1.05A35.18,35.18,0,0,0,223.41,39Z"/><path class="cls-5" d="M239.73,34.62h2.15v6a1,1,0,0,0,.66,1,5.17,5.17,0,0,0,2,.29h.09a4.9,4.9,0,0,0,1.88-.29,1.07,1.07,0,0,0,.75-1v-6h2.15v6c0,.73-.47,1.3-1.4,1.73a8.92,8.92,0,0,1-3.38.46h-.09a8.89,8.89,0,0,1-3.38-.46c-.93-.43-1.4-1-1.4-1.73Z"/><path class="cls-5" d="M265.41,36.69v6.16h-1.87V34.62h3l2,5.36h.19l2-5.36h3v8.23h-1.87V36.69h-.19l-2.25,6.16h-1.5l-2.25-6.16Z"/><path class="cls-5" d="M287.73,34.62h2.15v6a1,1,0,0,0,.66,1,5.17,5.17,0,0,0,2,.29h.09a4.9,4.9,0,0,0,1.88-.29,1.07,1.07,0,0,0,.75-1v-6h2.15v6c0,.73-.47,1.3-1.4,1.73a8.92,8.92,0,0,1-3.38.46h-.09a8.89,8.89,0,0,1-3.38-.46c-.93-.43-1.4-1-1.4-1.73Z"/><path class="cls-5" d="M320.26,35.3a1.71,1.71,0,0,1,1.22,1.56c0,.62-.41,1.12-1.22,1.52a5.86,5.86,0,0,1-1.69.55L322,42.85H319.7l-3.19-3.8h-2.63v3.8h-2.15V34.62h4.68A9.42,9.42,0,0,1,320.26,35.3Zm-1.69,2.57a1.08,1.08,0,0,0,.75-1c0-.42-.28-.76-.84-1a6.3,6.3,0,0,0-2.53-.43h-2.07v2.83h2.72A4.81,4.81,0,0,0,318.57,37.87Z"/><path class="cls-5" d="M337.23,42.85H335l4.68-8.23h1.88l4.69,8.23H344l-1.32-2.41h-4.12Zm3.47-6h-.19L339,39.64h3.18Z"/><path class="cls-5" d="M387.38,42.85V35.42h-3.65v-.8h9.65v.8h-3.84v7.43Z"/><path class="cls-5" d="M415.41,39c1.44.36,2.16.9,2.16,1.6s-.47,1.27-1.41,1.69a9.15,9.15,0,0,1-3.65.59A8.63,8.63,0,0,1,409,42.3c-1-.45-1.5-1-1.5-1.6v-.42h2.15v.38a1.09,1.09,0,0,0,.75,1,4.68,4.68,0,0,0,1.88.34,5.83,5.83,0,0,0,2.25-.34c.56-.25.84-.58.84-1s-.43-.76-1.31-1q-2.34-.67-4.41-1.44c-1-.36-1.53-.86-1.59-1.48s.41-1.13,1.41-1.56a9.23,9.23,0,0,1,6.28-.08c.94.42,1.37,1,1.31,1.77h-2.16q.19-.72-.75-1.14a4.5,4.5,0,0,0-3.18,0c-.57.26-.85.55-.85.89s.44.72,1.32,1.05A35.18,35.18,0,0,0,415.41,39Z"/><path class="cls-5" d="M431.73,34.62h2.15v6a1,1,0,0,0,.66,1,5.17,5.17,0,0,0,2,.29h.09a4.9,4.9,0,0,0,1.88-.29,1.07,1.07,0,0,0,.75-1v-6h2.15v6c0,.73-.47,1.3-1.4,1.73a8.92,8.92,0,0,1-3.38.46h-.09a8.89,8.89,0,0,1-3.38-.46c-.94-.43-1.4-1-1.4-1.73Z"/><path class="cls-5" d="M457.23,34.62,460.51,38h.09l3.28-3.34H466l-4.41,4.48v3.75h-2.15V39.1l-4.41-4.48Z"/><path class="cls-5" d="M479.73,34.62h2.15v6a1,1,0,0,0,.66,1,5.17,5.17,0,0,0,2,.29h.09a4.9,4.9,0,0,0,1.88-.29,1.07,1.07,0,0,0,.75-1v-6h2.15v6c0,.73-.47,1.3-1.4,1.73a8.92,8.92,0,0,1-3.38.46h-.09a8.92,8.92,0,0,1-3.38-.46c-.93-.43-1.4-1-1.4-1.73Z"/><path class="cls-5" d="M513.38,34.62v8.23h-2.62l-4.88-6.16h-.09v6.16h-2.16V34.62h2.63l4.87,6.16h.1V34.62Z"/><path class="cls-5" d="M537.76,38.72a3.55,3.55,0,0,1-2.06,3.58,7.55,7.55,0,0,1-3.1.55,7.81,7.81,0,0,1-3.19-.55,3.55,3.55,0,0,1-2.06-3.58,3.53,3.53,0,0,1,2.06-3.55,8,8,0,0,1,3.19-.55,7.72,7.72,0,0,1,3.1.55A3.53,3.53,0,0,1,537.76,38.72Zm-8.25,0c0,1.6.4,2.58,1.22,3a4.53,4.53,0,0,0,1.87.38,4.31,4.31,0,0,0,1.78-.38c.81-.37,1.22-1.35,1.22-3s-.41-2.55-1.22-2.92a4.31,4.31,0,0,0-1.78-.38,4.53,4.53,0,0,0-1.87.38C529.91,36.17,529.51,37.14,529.51,38.72Z"/></g><rect class="cls-7" width="680" height="82"/></g></g></svg>