<svg xmlns="http://www.w3.org/2000/svg" viewBox="0 0 680 82"><defs><style>.cls-1{isolation:isolate;}.cls-2{opacity:0.2;}.cls-2,.cls-4{mix-blend-mode:screen;}.cls-3{fill:#fff;}.cls-4{opacity:0.45;}.cls-5{fill:red;}.cls-6{opacity:0.85;}.cls-7{fill:none;opacity:0.19;}</style></defs><title>アートボード 348</title><g class="cls-1"><g id="CHARACTER"><g class="cls-2"><path class="cls-3" d="M127.83,56.89H120.6a.89.89,0,0,1-.8-.48l-4-7.54H103.67l-4,7.54a.89.89,0,0,1-.8.48H91.69a.91.91,0,0,1-.78-.44.89.89,0,0,1,0-.89L106,28.14a.89.89,0,0,1,.78-.47h6a.9.9,0,0,1,.79.47l15.06,27.42a.9.9,0,0,1-.79,1.33Zm-6.69-1.8h5.16L112.24,29.47h-5L93.21,55.09h5.16l4-7.53a.92.92,0,0,1,.8-.49h13.25a.9.9,0,0,1,.8.49Zm-6.26-8.89H104.64a.89.89,0,0,1-.77-.43.87.87,0,0,1,0-.88l4.82-9.28a.89.89,0,0,1,.8-.49h.6a.92.92,0,0,1,.8.49l4.81,9.28a.89.89,0,0,1,0,.88A.91.91,0,0,1,114.88,46.2Zm-8.76-1.8h7.27l-3.63-7Z"/><path class="cls-3" d="M164.57,56.89h-6a.9.9,0,0,1-.9-.9V39l-6.09,17.28a.89.89,0,0,1-.85.6H145.9a.89.89,0,0,1-.85-.6L139,39V56a.9.9,0,0,1-.9.9h-6a.9.9,0,0,1-.9-.9V28.57a.9.9,0,0,1,.9-.9h9.64a.91.91,0,0,1,.85.6l5.78,16.31,5.77-16.31a.91.91,0,0,1,.85-.6h9.64a.9.9,0,0,1,.9.9V56A.9.9,0,0,1,164.57,56.89Zm-5.12-1.8h4.22V29.47h-8.1l-6.11,17.26a.91.91,0,0,1-.85.6H148a.88.88,0,0,1-.84-.6L141,29.47h-8.1V55.09h4.23V35.46a.9.9,0,0,1,.9-.9h.6a.91.91,0,0,1,.85.6l7,19.93h3.55l7-19.93a.91.91,0,0,1,.85-.6h.61a.9.9,0,0,1,.9.9Z"/><path class="cls-3" d="M204.93,56.89H197.7a.89.89,0,0,1-.8-.48l-4-7.54H180.77l-4,7.54a.89.89,0,0,1-.8.48h-7.22a.91.91,0,0,1-.78-.44.89.89,0,0,1,0-.89l15.05-27.42a.91.91,0,0,1,.79-.47h6a.9.9,0,0,1,.79.47l15.05,27.42a.89.89,0,0,1,0,.89A.91.91,0,0,1,204.93,56.89Zm-6.69-1.8h5.16L189.33,29.47h-5L170.31,55.09h5.16l4-7.53a.92.92,0,0,1,.8-.49h13.25a.9.9,0,0,1,.8.49ZM192,46.2H181.74a.89.89,0,0,1-.77-.43.87.87,0,0,1,0-.88l4.82-9.28a.89.89,0,0,1,.79-.49h.61a.92.92,0,0,1,.8.49l4.81,9.28a.89.89,0,0,1,0,.88A.91.91,0,0,1,192,46.2Zm-8.76-1.8h7.27l-3.63-7Z"/><path class="cls-3" d="M240.76,56.89h-5.11a.91.91,0,0,1-.85-.6l-.55-1.53a20.4,20.4,0,0,1-9.45,2.13,21.58,21.58,0,0,1-9.11-1.77c-4.94-2.31-7.45-6.41-7.45-12.21,0-6.16,2.71-10.55,8-13a24.29,24.29,0,0,1,10.32-2.19A22.8,22.8,0,0,1,236,29.3c3.74,1.75,5.64,4.39,5.64,7.85a.91.91,0,0,1-.91.9h-6.32a.9.9,0,0,1-.9-.83c-.17-2.11-1-3.48-2.49-4.18a10.45,10.45,0,0,0-4.44-.9,8.46,8.46,0,0,0-3.53.62C219,34.68,217,38,217,42.91c0,4.26,1.4,7,4.3,8.33a10.44,10.44,0,0,0,4.44,1,11.86,11.86,0,0,0,5-1,4.91,4.91,0,0,0,3.09-4.81V44.66h-8.43a.91.91,0,0,1-.91-.9V41.08a.91.91,0,0,1,.91-.9h15.35a.91.91,0,0,1,.91.9V56A.9.9,0,0,1,240.76,56.89Zm-4.48-1.8h3.58V42H226.31v.88h8.43a.9.9,0,0,1,.9.9v2.67a6.65,6.65,0,0,1-4.13,6.44,13.65,13.65,0,0,1-5.8,1.21,12.23,12.23,0,0,1-5.2-1.21c-3.54-1.65-5.34-5-5.34-10,0-5.6,2.4-9.57,7.14-11.78a10.29,10.29,0,0,1,4.3-.79,12.24,12.24,0,0,1,5.2,1.07h0a6.07,6.07,0,0,1,3.43,4.84h4.57c-.31-2.29-1.8-4-4.55-5.32a21,21,0,0,0-8.65-1.46,22.5,22.5,0,0,0-9.56,2c-4.71,2.21-7,5.94-7,11.42,0,5.11,2.1,8.57,6.41,10.58a19.8,19.8,0,0,0,8.35,1.6,18.22,18.22,0,0,0,9.48-2.4.9.9,0,0,1,1.31.47Z"/><path class="cls-3" d="M282,56.89H274.8a.89.89,0,0,1-.8-.48l-4-7.54H257.87l-4,7.54a.89.89,0,0,1-.8.48h-7.23a.91.91,0,0,1-.77-.44.89.89,0,0,1,0-.89l15-27.42a.91.91,0,0,1,.79-.47h6a.91.91,0,0,1,.79.47l15.05,27.42a.89.89,0,0,1,0,.89A.91.91,0,0,1,282,56.89Zm-6.69-1.8h5.16L266.43,29.47h-4.95L247.41,55.09h5.16l4-7.53a.92.92,0,0,1,.8-.49h13.25a.9.9,0,0,1,.8.49Zm-6.26-8.89H258.83a.88.88,0,0,1-.76-.43.87.87,0,0,1,0-.88l4.82-9.28a.89.89,0,0,1,.79-.49h.61a.92.92,0,0,1,.8.49l4.81,9.28a.87.87,0,0,1,0,.88A.88.88,0,0,1,269.08,46.2Zm-8.76-1.8h7.27l-3.63-7Z"/><path class="cls-3" d="M309.13,56.89H295.58a.9.9,0,0,1-.9-.9V52.9a.9.9,0,0,1,.9-.9H298V32.56h-2.41a.9.9,0,0,1-.9-.9V28.57a.9.9,0,0,1,.9-.9h13.55a.9.9,0,0,1,.9.9v3.09a.9.9,0,0,1-.9.9h-2.41V52h2.41a.9.9,0,0,1,.9.9V56A.9.9,0,0,1,309.13,56.89Zm-12.65-1.8h11.75V53.8h-2.41a.9.9,0,0,1-.9-.9V31.66a.9.9,0,0,1,.9-.9h2.41V29.47H296.48v1.29h2.41a.9.9,0,0,1,.9.9V52.9a.9.9,0,0,1-.9.9h-2.41Z"/><path class="cls-3" d="M397.37,56.89h-7.83a.9.9,0,0,1-.63-.26L375.56,43.22l-3.79,2.43V56a.9.9,0,0,1-.9.9h-6.93a.9.9,0,0,1-.9-.9V28.57a.9.9,0,0,1,.9-.9h6.93a.9.9,0,0,1,.9.9v9.84l15.77-10.59a.87.87,0,0,1,.5-.15h8.13a.89.89,0,0,1,.5,1.64l-15,10.21L398,55.34a.93.93,0,0,1,.21,1A.9.9,0,0,1,397.37,56.89Zm-7.45-1.8h5.23L379.58,40a.9.9,0,0,1,.12-1.39l13.54-9.18h-4.93L371.37,40.85a.89.89,0,0,1-.92,0,.88.88,0,0,1-.48-.79V29.47h-5.13V55.09H370V45.16a.94.94,0,0,1,.41-.76l4.82-3.09a.91.91,0,0,1,1.13.12Z"/><path class="cls-3" d="M418.15,56.89A25.35,25.35,0,0,1,407.53,55c-4.74-2.21-7.14-6.51-7.14-12.77s2.4-10.42,7.14-12.63a25.38,25.38,0,0,1,10.62-1.91,24.51,24.51,0,0,1,10.32,1.91c4.74,2.22,7.15,6.47,7.15,12.63S433.21,52.76,428.47,55A24.48,24.48,0,0,1,418.15,56.89Zm0-27.42a23.77,23.77,0,0,0-9.86,1.74c-4.1,1.92-6.1,5.52-6.1,11s2,9.22,6.1,11.14a23.74,23.74,0,0,0,9.86,1.74,22.88,22.88,0,0,0,9.56-1.74c4.11-1.92,6.11-5.56,6.11-11.14s-2-9.08-6.11-11A22.91,22.91,0,0,0,418.15,29.47Zm0,24.75a15.1,15.1,0,0,1-6.4-1.35c-2.94-1.37-4.44-5-4.44-10.66s1.5-9.14,4.44-10.52a15,15,0,0,1,6.4-1.35,14.26,14.26,0,0,1,6.11,1.35c2.94,1.38,4.43,4.92,4.43,10.52s-1.49,9.29-4.43,10.66A14.41,14.41,0,0,1,418.15,54.22Zm0-22.08a13.3,13.3,0,0,0-5.64,1.18c-2.25,1-3.39,4-3.39,8.89s1.14,8,3.39,9a13.3,13.3,0,0,0,5.64,1.18,12.62,12.62,0,0,0,5.35-1.18c2.25-1.05,3.39-4.09,3.39-9s-1.14-7.83-3.39-8.89A12.62,12.62,0,0,0,418.15,32.14Z"/><path class="cls-3" d="M456.4,56.89c-4.93,0-8.81-.64-11.52-1.91-3.54-1.65-5.34-3.73-5.34-6.16V47.41a.9.9,0,0,1,.9-.9h6.93a.91.91,0,0,1,.9.9v1.27c0,.72.19,1.77,1.89,2.56a13.37,13.37,0,0,0,5.64,1,17.12,17.12,0,0,0,6.85-1c2.19-1,2.19-2.08,2.19-2.42,0-1.25-2.24-2.11-3.58-2.51-5-1.5-9.78-3.11-14.21-4.81-3.55-1.34-5.47-3.25-5.7-5.67s1.46-4.54,5-6.12a25.76,25.76,0,0,1,10.3-2c4.53,0,8.11.59,10.62,1.77,3.37,1.57,5,3.86,4.74,6.79a.9.9,0,0,1-.9.83h-6.93a.93.93,0,0,1-.71-.34.91.91,0,0,1-.16-.78c.19-.77.15-1.79-1.92-2.76a12.93,12.93,0,0,0-9.48,0c-1,.47-2.19,1.22-2.19,2.14,0,.37.36,1.36,3.65,2.68A111.86,111.86,0,0,0,466,42.18h0c5,1.33,7.6,3.43,7.6,6.22s-1.7,4.88-5,6.44C465.61,56.2,461.53,56.89,456.4,56.89Zm-15.06-8.58v.51c0,1.67,1.45,3.2,4.3,4.53,2.47,1.15,6.09,1.74,10.76,1.74,4.87,0,8.69-.63,11.37-1.88s4-2.83,4-4.81-2.1-3.38-6.25-4.48h0a112.09,112.09,0,0,1-12.75-4.25C449.54,38.38,448,37,448,35.32s1.09-2.77,3.23-3.77a14.67,14.67,0,0,1,11,0c2.31,1.08,3,2.48,3,3.71h5c-.17-1.74-1.39-3.11-3.69-4.19s-5.59-1.6-9.86-1.6a24,24,0,0,0-9.58,1.89c-2.8,1.23-4.14,2.67-4,4.29s1.69,3.09,4.55,4.17c4.39,1.68,9.13,3.28,14.09,4.76,1.2.36,4.86,1.46,4.86,4.24,0,1.68-1.09,3-3.23,4a18.53,18.53,0,0,1-7.61,1.21,15.21,15.21,0,0,1-6.41-1.21,4.47,4.47,0,0,1-2.92-4.19v-.37Z"/><path class="cls-3" d="M513.32,56.89H506.1a.89.89,0,0,1-.8-.48l-4-7.54H489.17l-4,7.54a.89.89,0,0,1-.8.48h-7.23a.9.9,0,0,1-.79-1.33l15.06-27.42a.9.9,0,0,1,.79-.47h6a.89.89,0,0,1,.79.47l15.06,27.42a.89.89,0,0,1,0,.89A.91.91,0,0,1,513.32,56.89Zm-6.68-1.8h5.16L497.73,29.47h-5L478.7,55.09h5.17l4-7.53a.9.9,0,0,1,.8-.49h13.25a.92.92,0,0,1,.8.49Zm-6.27-8.89H490.13a.9.9,0,0,1-.8-1.31l4.82-9.28a.92.92,0,0,1,.8-.49h.6a.89.89,0,0,1,.8.49l4.82,9.28a.87.87,0,0,1,0,.88A.89.89,0,0,1,500.37,46.2Zm-8.75-1.8h7.27l-3.64-7Z"/><path class="cls-3" d="M550.07,56.89h-6a.9.9,0,0,1-.9-.9V39l-6.08,17.28a.91.91,0,0,1-.85.6h-4.82a.91.91,0,0,1-.85-.6L524.46,39V56a.9.9,0,0,1-.9.9h-6a.9.9,0,0,1-.9-.9V28.57a.9.9,0,0,1,.9-.9h9.64a.91.91,0,0,1,.85.6l5.77,16.31,5.78-16.31a.91.91,0,0,1,.85-.6h9.64a.9.9,0,0,1,.9.9V56A.9.9,0,0,1,550.07,56.89Zm-5.13-1.8h4.23V29.47h-8.11L535,46.73a.89.89,0,0,1-.85.6h-.6a.91.91,0,0,1-.85-.6l-6.11-17.26h-8.1V55.09h4.22V35.46a.9.9,0,0,1,.9-.9h.61a.88.88,0,0,1,.84.6l7,19.93h3.55l7-19.93a.91.91,0,0,1,.85-.6h.6a.9.9,0,0,1,.9.9Z"/><path class="cls-3" d="M588.31,56.89H557.6a.9.9,0,0,1-.9-.9V28.57a.9.9,0,0,1,.9-.9h29.21a.9.9,0,0,1,.9.9v2.67a.9.9,0,0,1-.9.9H565.42V39.2H585a.9.9,0,0,1,.9.9v2.67a.9.9,0,0,1-.9.9H565.42v8.75h22.89a.9.9,0,0,1,.9.9V56A.9.9,0,0,1,588.31,56.89Zm-29.81-1.8h28.91v-.87H564.52a.9.9,0,0,1-.9-.9V42.77a.9.9,0,0,1,.9-.9H584.1V41H564.52a.9.9,0,0,1-.9-.9V31.24a.9.9,0,0,1,.9-.9h21.39v-.87H558.5Z"/></g><g class="cls-4"><path class="cls-5" d="M157.45,67.74h-2.8l5.84-52.55h2.33l5.84,52.55h-2.8l-1.64-15.36h-5.14Zm4.32-38.27h-.23l-1.87,17.79h4Z"/><path class="cls-5" d="M187.58,28.39V67.74h-2.33V15.19H189l2.46,34.23h.23l2.45-34.23h3.74V67.74h-2.33V28.39h-.24l-2.8,39.35h-1.87l-2.8-39.35Z"/><path class="cls-5" d="M217.25,67.74h-2.8l5.84-52.55h2.33l5.84,52.55h-2.8L224,52.38h-5.14Zm4.32-38.27h-.23l-1.87,17.79h4Z"/><path class="cls-5" d="M253.69,22.19c-.54-1.25-1.17-1.88-1.87-1.88s-1.13.45-1.52,1.34q-2.56,5.94-2.57,21,0,13.2,1.87,17.52c.63,1.44,1.25,2.15,1.87,2.15.78,0,1.48-.71,2.1-2.15Q255,57,255,49.42V44.29h-3.63V39.17h6V67.74h-2L255,62.89c-1.1,3.24-2.38,4.85-3.86,4.85-1.32,0-2.45-1.07-3.39-3.23q-2.68-6.2-2.68-21.83,0-16.71,2.92-23.45c1.17-2.7,2.45-4,3.85-4s2.65,1,3.51,3q2,4.59,2,13.48h-2.45Q254.74,24.63,253.69,22.19Z"/><path class="cls-5" d="M277.05,67.74h-2.8l5.84-52.55h2.33l5.84,52.55h-2.8l-1.64-15.36h-5.13Zm4.32-38.27h-.23l-1.87,17.79h4Z"/><path class="cls-5" d="M312.44,61.81h1.28v5.93h-5.25V61.81h1.28V21.12h-1.28V15.19h5.25v5.93h-1.28Z"/><path class="cls-5" d="M364.88,67.74V15.19h2.69v22.1l6.66-22.1h3.15l-6.19,20.75,6.66,31.8h-3l-5.37-26.68L367.57,47V67.74Z"/><path class="cls-5" d="M407.28,41.33q0,17-2.57,22.91c-1,2.34-2.3,3.5-3.85,3.5s-3-1.16-4-3.5q-2.56-5.92-2.56-22.91,0-16.71,2.56-22.64c1-2.33,2.34-3.5,4-3.5s2.84,1.17,3.85,3.5Q407.28,24.62,407.28,41.33Zm-10.28,0q0,15.36,1.52,18.87c.7,1.61,1.48,2.42,2.34,2.42s1.51-.81,2.22-2.42q1.51-3.51,1.51-18.87,0-15.09-1.51-18.6c-.71-1.61-1.45-2.42-2.22-2.42s-1.64.81-2.34,2.42Q397,26.24,397,41.33Z"/><path class="cls-5" d="M434.26,43q2.69,3.51,2.69,10.24A27.48,27.48,0,0,1,435.19,64c-1.09,2.52-2.61,3.77-4.55,3.77s-3.31-1.16-4.32-3.5A25.55,25.55,0,0,1,424.45,54V51.3h2.68v2.43a17.12,17.12,0,0,0,.94,6.47c.62,1.44,1.4,2.15,2.34,2.15a3,3,0,0,0,2.8-2.15,15.71,15.71,0,0,0,1.05-6.2,11.4,11.4,0,0,0-1.64-6.47,101.76,101.76,0,0,1-5.49-9.16,21.18,21.18,0,0,1-2-9.44,22.52,22.52,0,0,1,1.75-10c1.17-2.51,2.45-3.77,3.86-3.77,1.71,0,3,1.07,4,3.23q1.74,4,1.63,11.32h-2.68a16.58,16.58,0,0,0-.94-7.28c-.54-1.25-1.21-1.88-2-1.88s-1.45.63-2,1.88a14.18,14.18,0,0,0-1,5.66,14.72,14.72,0,0,0,1.63,6.74A53.1,53.1,0,0,0,434.26,43Z"/><path class="cls-5" d="M456.45,67.74h-2.8l5.84-52.55h2.33l5.84,52.55h-2.8l-1.63-15.36h-5.14Zm4.32-38.27h-.23l-1.87,17.79h4Z"/><path class="cls-5" d="M486.58,28.39V67.74h-2.33V15.19H488l2.45,34.23h.23l2.46-34.23h3.73V67.74h-2.33V28.39h-.24l-2.8,39.35h-1.87l-2.8-39.35Z"/><path class="cls-5" d="M517.42,37.29h7.94v5.12h-7.94V62.62h9.23v5.12H514.73V15.19h11.33v5.12h-8.64Z"/></g><path class="cls-3" d="M239.6,68.21V29.58H215.41v45H208.7v-45H185.18v47h-6.72V23.2H208.7V13.45H174.43V7.07h75.92v6.38H215.41V23.2h30.91V71.57c0,3.58-1.79,5.38-5.37,5.38h-9.07l-1.68-7.4h8.06A1.18,1.18,0,0,0,239.6,68.21ZM202,64.52q-3.71-3.36-13.1-9.07l4-5.72a86.51,86.51,0,0,1,13.43,8.74Zm-.34-17.81A66.45,66.45,0,0,0,189.55,39l4-5.37A67.29,67.29,0,0,1,205.67,41Zm21.16,2a86.29,86.29,0,0,1,13.78,8.39l-4,6.39a91.69,91.69,0,0,0-13.44-9.07Zm.34-15.46A63,63,0,0,1,235.91,41l-4,5.71a96.32,96.32,0,0,0-12.43-8.06Z"/><path class="cls-3" d="M259.76,48.39Q284.95,38,295.37,14.8l6.38,2c1.56.45,1.23,1.35-1,2.69A72.09,72.09,0,0,0,335,46.71l-4.37,7.06a72.79,72.79,0,0,1-11.09-6.39V77h-6.71v-3H283.61v3.7h-6.72V47.72a64.83,64.83,0,0,1-13.1,7.39Zm4.7-24.86A83.4,83.4,0,0,0,284,4.38l5.37,4c1.34,1.13.89,1.91-1.34,2.36A72.54,72.54,0,0,1,269.5,29.24ZM277.9,46.71h40.65q-14.12-9.41-21.17-22.17Q291,37,277.9,46.71Zm5.71,20.83h29.23V53.09H283.61ZM310.15,4.38a60.15,60.15,0,0,0,21.5,16.46L328,27.23q-11.08-4-22.5-18.82Z"/><path class="cls-3" d="M346.43,57.8a90.92,90.92,0,0,0,14.78-38l8.06,2c1.79.67,1.68,1.35-.33,2A120.76,120.76,0,0,1,353.82,62.5Zm33.93,9.4V6.06h7.39q3.36.67.34,2.69V71.57q0,4.37-4.37,4.37h-9.41l-2.69-7.39H379A1.19,1.19,0,0,0,380.36,67.2Zm42-13.1L414,57.8a140.63,140.63,0,0,0-16.46-34.6l6.39-3.36A127.58,127.58,0,0,1,422.35,54.1Z"/><path class="cls-3" d="M497.6,68.21V29.58H473.41v45H466.7v-45H443.18v47h-6.72V23.2H466.7V13.45H432.43V7.07h75.92v6.38H473.41V23.2h30.91V71.57c0,3.58-1.79,5.38-5.37,5.38h-9.07l-1.68-7.4h8.06A1.18,1.18,0,0,0,497.6,68.21ZM460,64.52q-3.71-3.36-13.1-9.07l4-5.72a86.51,86.51,0,0,1,13.43,8.74Zm-.34-17.81A66.45,66.45,0,0,0,447.55,39l4-5.37A67.29,67.29,0,0,1,463.67,41Zm21.16,2a86.29,86.29,0,0,1,13.78,8.39l-4,6.39a91.69,91.69,0,0,0-13.44-9.07Zm.34-15.46A63,63,0,0,1,493.91,41l-4,5.71a96.32,96.32,0,0,0-12.43-8.06Z"/><g class="cls-6"><path class="cls-5" d="M193.68,43.2h-2.25L196.12,35H198l4.69,8.23h-2.25l-1.31-2.41H195Zm3.47-6H197L195.46,40h3.19Z"/><path class="cls-5" d="M217.87,37V43.2H216V35h3l2,5.36h.19l2-5.36h3V43.2h-1.88V37h-.19L221.8,43.2h-1.5L218.05,37Z"/><path class="cls-5" d="M241.68,43.2h-2.25L244.12,35H246l4.69,8.23h-2.25l-1.31-2.41H243Zm3.47-6H245L243.46,40h3.19Z"/><path class="cls-5" d="M270.93,36.07a3.59,3.59,0,0,0-1.5-.3,3,3,0,0,0-1.22.21,3.32,3.32,0,0,0-2.06,3.3,2.7,2.7,0,0,0,1.5,2.74,3.71,3.71,0,0,0,1.5.34,4.21,4.21,0,0,0,1.69-.34A1.73,1.73,0,0,0,272,40.33v-.8h-2.91v-.8h4.79V43.2h-1.6l-.28-.76a6.05,6.05,0,0,1-3.09.76,6.54,6.54,0,0,1-2.72-.51A3.44,3.44,0,0,1,264,39.28a3.71,3.71,0,0,1,2.35-3.67,7.27,7.27,0,0,1,3.09-.64,7,7,0,0,1,2.81.47,2.29,2.29,0,0,1,1.6,2.11h-2A1.64,1.64,0,0,0,270.93,36.07Z"/><path class="cls-5" d="M289.68,43.2h-2.25L292.12,35H294l4.69,8.23h-2.25l-1.31-2.41H291Zm3.47-6H293L291.46,40h3.19Z"/><path class="cls-5" d="M318.09,42.27h1v.93H314.9v-.93h1V35.9h-1V35h4.22v.93h-1Z"/><path class="cls-5" d="M360.18,43.2V35h2.15v3.46L367.68,35h2.53l-5,3.25,5.34,5h-2.43L363.83,39l-1.5.93V43.2Z"/><path class="cls-5" d="M394.21,39.06a3.56,3.56,0,0,1-2.06,3.59,7.55,7.55,0,0,1-3.1.55,7.73,7.73,0,0,1-3.18-.55,3.55,3.55,0,0,1-2.07-3.59,3.51,3.51,0,0,1,2.07-3.54,7.9,7.9,0,0,1,3.18-.55,7.72,7.72,0,0,1,3.1.55A3.52,3.52,0,0,1,394.21,39.06Zm-8.25,0c0,1.61.41,2.59,1.22,3a4.56,4.56,0,0,0,1.87.38,4.31,4.31,0,0,0,1.78-.38c.82-.37,1.22-1.35,1.22-3s-.4-2.54-1.22-2.91a4.31,4.31,0,0,0-1.78-.38,4.56,4.56,0,0,0-1.87.38C386.37,36.52,386,37.49,386,39.06Z"/><path class="cls-5" d="M415.87,39.32c1.43.36,2.15.9,2.15,1.6s-.47,1.27-1.4,1.69a9.24,9.24,0,0,1-3.66.59,8.63,8.63,0,0,1-3.47-.55c-1-.45-1.5-1-1.5-1.6v-.43h2.16V41a1.09,1.09,0,0,0,.75,1,4.63,4.63,0,0,0,1.87.34A5.83,5.83,0,0,0,415,42c.56-.26.85-.58.85-1s-.44-.76-1.32-1c-1.56-.46-3-.93-4.4-1.44-1-.36-1.53-.86-1.6-1.48S409,36,410,35.56a9.23,9.23,0,0,1,6.28-.08c.94.42,1.38,1,1.31,1.77H415.4q.18-.72-.75-1.14a4.53,4.53,0,0,0-3.19,0c-.56.25-.84.55-.84.89s.43.71,1.31,1A34.68,34.68,0,0,0,415.87,39.32Z"/><path class="cls-5" d="M433.68,43.2h-2.25L436.12,35H438l4.69,8.23h-2.25l-1.31-2.41H435Zm3.47-6H437L435.46,40h3.19Z"/><path class="cls-5" d="M457.87,37V43.2H456V35h3l2,5.36h.19l2-5.36h3V43.2h-1.88V37h-.19L461.8,43.2h-1.5L458.05,37Z"/><path class="cls-5" d="M482.62,38.43H489v.8h-6.37V42.4H490v.8h-9.56V35h9.09v.8h-6.93Z"/></g><rect class="cls-7" width="680" height="82"/></g></g></svg>