<svg xmlns="http://www.w3.org/2000/svg" viewBox="0 0 680 82"><defs><style>.cls-1{isolation:isolate;}.cls-2{opacity:0.2;}.cls-2,.cls-4{mix-blend-mode:screen;}.cls-3{fill:#fff;}.cls-4{opacity:0.45;}.cls-5{fill:red;}.cls-6{opacity:0.85;}.cls-7{fill:none;opacity:0.19;}</style></defs><title>アートボード 353</title><g class="cls-1"><g id="CHARACTER"><g class="cls-2"><path class="cls-3" d="M108.55,57.39h-7.23a.88.88,0,0,1-.79-.48l-4-7.53H84.4l-4,7.53a.91.91,0,0,1-.8.48H72.41a.87.87,0,0,1-.77-.44.89.89,0,0,1,0-.89L86.68,28.64a.9.9,0,0,1,.79-.47h6a.9.9,0,0,1,.79.47l15.06,27.42a.89.89,0,0,1-.79,1.33Zm-6.68-1.8H107L93,30H88L73.93,55.59h5.16l4-7.53a.88.88,0,0,1,.79-.48H97.11a.88.88,0,0,1,.79.48ZM95.6,46.71H85.36a.91.91,0,0,1-.77-.44.92.92,0,0,1,0-.88l4.82-9.28a.89.89,0,0,1,.8-.48h.6a.88.88,0,0,1,.8.48l4.82,9.28a.92.92,0,0,1,0,.88A.89.89,0,0,1,95.6,46.71Zm-8.76-1.8h7.28l-3.64-7Z"/><path class="cls-3" d="M128.73,57.39c-4.93,0-8.81-.64-11.52-1.91-3.55-1.65-5.34-3.72-5.34-6.16v-1.4a.9.9,0,0,1,.9-.9h6.92a.9.9,0,0,1,.9.9v1.26a2.68,2.68,0,0,0,1.89,2.56,13.45,13.45,0,0,0,5.65,1,17.06,17.06,0,0,0,6.84-1c2.2-1,2.2-2.07,2.2-2.42,0-1.25-2.24-2.11-3.58-2.51-5-1.49-9.78-3.11-14.22-4.8-3.54-1.35-5.46-3.26-5.69-5.68s1.45-4.54,5-6.11a25.6,25.6,0,0,1,10.3-2c4.53,0,8.1.6,10.62,1.77,3.37,1.58,5,3.86,4.73,6.8a.89.89,0,0,1-.89.83h-6.93a.9.9,0,0,1-.87-1.12c.19-.78.15-1.8-1.92-2.77a12.93,12.93,0,0,0-9.48,0c-1,.47-2.19,1.22-2.19,2.14,0,.37.36,1.37,3.65,2.68a109.8,109.8,0,0,0,12.54,4.19h0c5.05,1.33,7.6,3.42,7.6,6.21s-1.69,4.88-5,6.44C137.94,56.7,133.86,57.39,128.73,57.39Zm-15.06-8.57v.5c0,1.68,1.44,3.2,4.3,4.53,2.47,1.16,6.09,1.74,10.76,1.74,4.86,0,8.69-.63,11.36-1.88s4-2.83,4-4.81-2.1-3.38-6.25-4.47h0a111.51,111.51,0,0,1-12.75-4.26c-3.22-1.28-4.78-2.71-4.78-4.35s1.09-2.77,3.23-3.77a14.67,14.67,0,0,1,11,0c2.3,1.08,3,2.48,3,3.72h5c-.17-1.74-1.39-3.12-3.69-4.19S133.29,30,129,30a23.81,23.81,0,0,0-9.58,1.9c-2.8,1.22-4.14,2.67-4,4.29s1.69,3.08,4.54,4.16c4.4,1.68,9.14,3.29,14.1,4.77,1.2.36,4.86,1.45,4.86,4.23,0,1.69-1.09,3-3.23,4a18.42,18.42,0,0,1-7.61,1.21,15.18,15.18,0,0,1-6.41-1.21,4.46,4.46,0,0,1-2.93-4.19v-.36Z"/><path class="cls-3" d="M185.65,57.39h-7.23a.91.91,0,0,1-.8-.48l-4-7.53H161.5l-4,7.53a.91.91,0,0,1-.8.48h-7.23a.87.87,0,0,1-.77-.44.89.89,0,0,1,0-.89l15.06-27.42a.9.9,0,0,1,.79-.47h6a.9.9,0,0,1,.79.47l15.06,27.42a.89.89,0,0,1,0,.89A.87.87,0,0,1,185.65,57.39ZM179,55.59h5.16L170.06,30h-5L151,55.59h5.16l4-7.53a.88.88,0,0,1,.79-.48h13.26a.88.88,0,0,1,.79.48Zm-6.27-8.88H162.46a.91.91,0,0,1-.77-.44.92.92,0,0,1,0-.88l4.82-9.28a.89.89,0,0,1,.8-.48h.6a.88.88,0,0,1,.8.48l4.82,9.28a.92.92,0,0,1,0,.88A.91.91,0,0,1,172.7,46.71Zm-8.76-1.8h7.28l-3.64-7Z"/><path class="cls-3" d="M221.49,57.39h-5.12a.9.9,0,0,1-.85-.59L215,55.27a20.42,20.42,0,0,1-9.45,2.12,21.47,21.47,0,0,1-9.12-1.77c-4.94-2.3-7.44-6.41-7.44-12.2,0-6.17,2.7-10.56,8.05-13a24.1,24.1,0,0,1,10.31-2.2,22.74,22.74,0,0,1,9.42,1.63c3.74,1.75,5.64,4.39,5.64,7.85a.9.9,0,0,1-.9.9h-6.32a.9.9,0,0,1-.9-.83c-.18-2.11-1-3.47-2.5-4.18a10.54,10.54,0,0,0-4.44-.9,8.5,8.5,0,0,0-3.53.62c-4.11,1.92-6.11,5.24-6.11,10.16,0,4.25,1.41,7,4.3,8.32a10.47,10.47,0,0,0,4.44,1,11.83,11.83,0,0,0,5-1,4.91,4.91,0,0,0,3.1-4.81V45.16h-8.44a.9.9,0,0,1-.9-.9V41.59a.9.9,0,0,1,.9-.9h15.36a.9.9,0,0,1,.9.9v14.9A.9.9,0,0,1,221.49,57.39ZM217,55.59h3.59V42.49H207v.87h8.44a.9.9,0,0,1,.9.9v2.67a6.64,6.64,0,0,1-4.14,6.44,13.62,13.62,0,0,1-5.8,1.21,12.23,12.23,0,0,1-5.2-1.21c-3.54-1.65-5.34-5-5.34-9.95,0-5.61,2.41-9.57,7.15-11.79a10.24,10.24,0,0,1,4.29-.79,12.2,12.2,0,0,1,5.2,1.07h0A6,6,0,0,1,216,36.75h4.57c-.3-2.29-1.8-4-4.54-5.32A21,21,0,0,0,207.33,30a22.31,22.31,0,0,0-9.55,2c-4.72,2.2-7,5.94-7,11.42,0,5.1,2.09,8.56,6.4,10.57a19.82,19.82,0,0,0,8.36,1.6,18.09,18.09,0,0,0,9.47-2.4.87.87,0,0,1,.77-.07.9.9,0,0,1,.54.54Z"/><path class="cls-3" d="M251.31,57.39H237.75a.9.9,0,0,1-.9-.9V53.4a.9.9,0,0,1,.9-.9h2.42V33.07h-2.42a.91.91,0,0,1-.9-.9v-3.1a.91.91,0,0,1,.9-.9h13.56a.91.91,0,0,1,.9.9v3.1a.91.91,0,0,1-.9.9h-2.42V52.5h2.42a.9.9,0,0,1,.9.9v3.09A.9.9,0,0,1,251.31,57.39Zm-12.66-1.8h11.76V54.3H248a.9.9,0,0,1-.9-.9V32.17a.9.9,0,0,1,.9-.9h2.42V30H238.65v1.3h2.42a.9.9,0,0,1,.9.9V53.4a.9.9,0,0,1-.9.9h-2.42Z"/><path class="cls-3" d="M300.4,57.39h-7.23a.9.9,0,0,1-.7-.33l-10-12.32h-7.1V56.49a.9.9,0,0,1-.9.9h-6.93a.9.9,0,0,1-.9-.9V29.07a.9.9,0,0,1,.9-.9h15.06a30.35,30.35,0,0,1,12.73,2.34h0c2.94,1.37,4.43,3.4,4.43,6,0,2.42-1.48,4.39-4.41,5.86A19.68,19.68,0,0,1,291.21,44l9.88,11.92a.9.9,0,0,1-.69,1.47Zm-6.8-1.8h4.88L288.86,44a.92.92,0,0,1-.15-.89.9.9,0,0,1,.71-.57,16.9,16.9,0,0,0,5.14-1.74c2.31-1.16,3.43-2.56,3.43-4.26,0-1.89-1.11-3.32-3.4-4.39a28.51,28.51,0,0,0-12-2.17H268.47V55.59h5.13V43.84a.9.9,0,0,1,.9-.9h8.43a.9.9,0,0,1,.7.33ZM283.23,42.07H274.5a.9.9,0,0,1-.9-.9V31.74a.9.9,0,0,1,.9-.9h6.62a20.59,20.59,0,0,1,8.51,1.49c2.15,1,3.23,2.42,3.23,4.2a4.47,4.47,0,0,1-2.92,4.19h0A15.88,15.88,0,0,1,283.23,42.07Zm-7.83-1.8h7.83a14,14,0,0,0,5.94-1.18h0c1.7-.8,1.89-1.84,1.89-2.56,0-.38,0-1.54-2.19-2.56a18.69,18.69,0,0,0-7.75-1.33H275.4Zm14.15-.37h0Z"/><path class="cls-3" d="M328.41,57.39H314.85a.9.9,0,0,1-.9-.9V53.4a.9.9,0,0,1,.9-.9h2.41V33.07h-2.41a.91.91,0,0,1-.9-.9v-3.1a.91.91,0,0,1,.9-.9h13.56a.91.91,0,0,1,.9.9v3.1a.91.91,0,0,1-.9.9H326V52.5h2.42a.9.9,0,0,1,.9.9v3.09A.9.9,0,0,1,328.41,57.39Zm-12.66-1.8H327.5V54.3h-2.41a.9.9,0,0,1-.9-.9V32.17a.9.9,0,0,1,.9-.9h2.41V30H315.75v1.3h2.42a.9.9,0,0,1,.9.9V53.4a.9.9,0,0,1-.9.9h-2.42Z"/><path class="cls-3" d="M416.65,57.39h-7.83a.9.9,0,0,1-.64-.26L394.84,43.72l-3.79,2.44V56.49a.9.9,0,0,1-.9.9h-6.93a.9.9,0,0,1-.9-.9V29.07a.9.9,0,0,1,.9-.9h6.93a.91.91,0,0,1,.9.9v9.84l15.76-10.58a.9.9,0,0,1,.5-.16h8.13a.91.91,0,0,1,.51,1.65L400.9,40l16.37,15.83a.89.89,0,0,1-.62,1.54Zm-7.46-1.8h5.23l-15.56-15a.91.91,0,0,1-.28-.73.89.89,0,0,1,.4-.66L412.51,30h-4.92L390.65,41.35a.89.89,0,0,1-1.4-.75V30h-5.13V55.59h5.13V45.67a.88.88,0,0,1,.41-.76l4.82-3.09a.89.89,0,0,1,1.12.12Z"/><path class="cls-3" d="M455.5,57.39h-7.23a.91.91,0,0,1-.8-.48l-4-7.53H431.35l-4,7.53a.88.88,0,0,1-.79.48h-7.23a.89.89,0,0,1-.79-1.33l15.06-27.42a.9.9,0,0,1,.79-.47h6a.9.9,0,0,1,.79.47l15.06,27.42a.89.89,0,0,1,0,.89A.87.87,0,0,1,455.5,57.39Zm-6.68-1.8H454L439.91,30h-5L420.88,55.59H426l4-7.53a.88.88,0,0,1,.79-.48h13.25a.88.88,0,0,1,.8.48Zm-6.27-8.88H432.31a.91.91,0,0,1-.77-.44.92.92,0,0,1,0-.88l4.82-9.28a.88.88,0,0,1,.8-.48h.6a.89.89,0,0,1,.8.48l4.82,9.28a.91.91,0,0,1-.8,1.32Zm-8.76-1.8h7.28l-3.64-7Z"/><path class="cls-3" d="M491.34,57.39h-8.43a.91.91,0,0,1-.72-.35L467.84,38.23V56.49a.9.9,0,0,1-.9.9H460a.9.9,0,0,1-.9-.9V29.07a.9.9,0,0,1,.9-.9h8.43a.91.91,0,0,1,.72.36l14.34,18.81V29.07a.91.91,0,0,1,.9-.9h6.93a.9.9,0,0,1,.9.9V56.49A.9.9,0,0,1,491.34,57.39Zm-8-1.8h7.09V30h-5.13V49.6a.9.9,0,0,1-.9.9h-.3a.93.93,0,0,1-.72-.35L468,30h-7.08V55.59H466V36a.91.91,0,0,1,.9-.9h.31a.88.88,0,0,1,.71.36Z"/><path class="cls-3" d="M532.6,57.39h-7.23a.91.91,0,0,1-.8-.48l-4-7.53H508.45l-4,7.53a.88.88,0,0,1-.79.48h-7.23a.89.89,0,0,1-.79-1.33l15.06-27.42a.9.9,0,0,1,.79-.47h6a.9.9,0,0,1,.79.47l15.06,27.42a.89.89,0,0,1,0,.89A.87.87,0,0,1,532.6,57.39Zm-6.68-1.8h5.16L517,30h-5L498,55.59h5.16l4-7.53a.88.88,0,0,1,.79-.48h13.25a.89.89,0,0,1,.8.48Zm-6.27-8.88H509.41a.89.89,0,0,1-.77-.44.92.92,0,0,1,0-.88l4.82-9.28a.88.88,0,0,1,.8-.48h.6a.89.89,0,0,1,.8.48l4.82,9.28a.91.91,0,0,1-.8,1.32Zm-8.76-1.8h7.28l-3.64-7Z"/><path class="cls-3" d="M569.34,57.39h-6a.9.9,0,0,1-.9-.9v-17l-6.08,17.27a.91.91,0,0,1-.85.6h-4.82a.91.91,0,0,1-.85-.6l-6.08-17.27v17a.9.9,0,0,1-.9.9h-6a.9.9,0,0,1-.9-.9V29.07a.9.9,0,0,1,.9-.9h9.63a.91.91,0,0,1,.85.6l5.78,16.32,5.78-16.32a.88.88,0,0,1,.84-.6h9.64a.9.9,0,0,1,.9.9V56.49A.9.9,0,0,1,569.34,57.39Zm-5.12-1.8h4.22V30h-8.1l-6.11,17.26a.91.91,0,0,1-.85.6h-.6a.91.91,0,0,1-.85-.6L545.82,30h-8.1V55.59h4.22V36a.9.9,0,0,1,.9-.9h.6a.91.91,0,0,1,.85.6l7,19.93h3.54l7-19.93a.89.89,0,0,1,.85-.6h.6a.9.9,0,0,1,.9.9Z"/><path class="cls-3" d="M607.59,57.39H576.87a.9.9,0,0,1-.9-.9V29.07a.9.9,0,0,1,.9-.9h29.21a.9.9,0,0,1,.9.9v2.67a.9.9,0,0,1-.9.9H584.7V39.7h19.58a.91.91,0,0,1,.9.9v2.68a.91.91,0,0,1-.9.9H584.7v8.74h22.89a.9.9,0,0,1,.9.9v2.67A.9.9,0,0,1,607.59,57.39Zm-29.82-1.8h28.92v-.87H583.8a.9.9,0,0,1-.9-.9V43.28a.9.9,0,0,1,.9-.9h19.58V41.5H583.8a.9.9,0,0,1-.9-.9V31.74a.9.9,0,0,1,.9-.9h21.38V30H577.77Z"/></g><g class="cls-4"><path class="cls-5" d="M142.5,68.25h-2.8l5.84-52.56h2.33l5.84,52.56h-2.8l-1.64-15.37h-5.14ZM146.82,30h-.23l-1.87,17.79h4Z"/><path class="cls-5" d="M180.11,43.45q2.69,3.51,2.68,10.24A27.46,27.46,0,0,1,181,64.47q-1.64,3.78-4.55,3.78t-4.32-3.51A25.51,25.51,0,0,1,170.3,54.5V51.81H173v2.42a16.88,16.88,0,0,0,.94,6.47c.62,1.44,1.4,2.16,2.33,2.16a3,3,0,0,0,2.81-2.16,15.71,15.71,0,0,0,1.05-6.2A11.42,11.42,0,0,0,178.47,48,101.76,101.76,0,0,1,173,38.87a21,21,0,0,1-2-9.43,22.59,22.59,0,0,1,1.75-10q1.75-3.77,3.85-3.77c1.72,0,3,1.08,4,3.23q1.74,4,1.63,11.32h-2.69a16.41,16.41,0,0,0-.93-7.27c-.55-1.26-1.21-1.89-2-1.89s-1.44.63-2,1.89a14.12,14.12,0,0,0-1.05,5.66,14.78,14.78,0,0,0,1.63,6.74A53.45,53.45,0,0,0,180.11,43.45Z"/><path class="cls-5" d="M202.3,68.25h-2.8l5.84-52.56h2.33l5.84,52.56h-2.8l-1.64-15.37h-5.14ZM206.62,30h-.23l-1.87,17.79h4Z"/><path class="cls-5" d="M238.74,22.7c-.54-1.26-1.17-1.89-1.87-1.89s-1.13.45-1.52,1.35q-2.57,5.93-2.57,21,0,13.22,1.87,17.52c.63,1.44,1.25,2.16,1.87,2.16q1.17,0,2.1-2.16Q240,57.46,240,49.92V44.8h-3.62V39.68h6V68.25h-2L240,63.4c-1.1,3.23-2.38,4.85-3.86,4.85q-2,0-3.39-3.24-2.68-6.2-2.68-21.83,0-16.71,2.92-23.45,1.75-4,3.85-4t3.51,3q2,4.59,2,13.48h-2.45C239.83,27.46,239.44,24.31,238.74,22.7Z"/><path class="cls-5" d="M267.59,62.32h1.28v5.93h-5.25V62.32h1.28V21.62h-1.28V15.69h5.25v5.93h-1.28Z"/><path class="cls-5" d="M300.76,20q1.51,3.51,1.52,10a26.37,26.37,0,0,1-1.52,9.71,8.36,8.36,0,0,1-2.1,3.5l4.2,25.07h-2.8l-4-24.26h-3.27V68.25h-2.69V15.69H296C297.92,15.69,299.51,17.13,300.76,20Zm-2.1,16.44a17.11,17.11,0,0,0,.93-6.47,16.49,16.49,0,0,0-1-6.46q-1.17-2.7-3.15-2.7h-2.57V38.87h3.39C297.14,38.87,298,38.06,298.66,36.44Z"/><path class="cls-5" d="M327.39,62.32h1.29v5.93h-5.26V62.32h1.28V21.62h-1.28V15.69h5.26v5.93h-1.29Z"/><path class="cls-5" d="M379.83,68.25V15.69h2.69v22.1l6.66-22.1h3.15l-6.19,20.75,6.66,31.81h-3l-5.37-26.69-1.87,5.93V68.25Z"/><path class="cls-5" d="M411.6,68.25h-2.8l5.84-52.56H417l5.84,52.56H420l-1.64-15.37h-5.13ZM415.92,30h-.23l-1.87,17.79h4Z"/><path class="cls-5" d="M451.66,15.69V68.25h-3.27L442.32,28.9h-.12V68.25h-2.68V15.69h3.27L448.86,55H449V15.69Z"/><path class="cls-5" d="M471.4,68.25h-2.8l5.84-52.56h2.33l5.84,52.56h-2.8l-1.63-15.37H473ZM475.72,30h-.23l-1.87,17.79h4Z"/><path class="cls-5" d="M501.54,28.9V68.25H499.2V15.69h3.74l2.45,34.23h.23l2.46-34.23h3.73V68.25h-2.33V28.9h-.24l-2.8,39.35h-1.87l-2.8-39.35Z"/><path class="cls-5" d="M532.37,37.79h7.94v5.12h-7.94V63.13h9.23v5.12H529.68V15.69H541v5.12h-8.64Z"/></g><path class="cls-3" d="M232.88,52.59H220.12v6.72h16.46v6.38H220.12V79.46H213.4V65.69H195.26V59.31H213.4V52.59H200.3V22.69h13.1V17H197.27V10.6H213.4V2.2h6.38c1.79.22,1.9.9.34,2V10.6h15.11V17H220.12v5.71h12.76Zm-5.71-17.8V28.07H206v6.72Zm0,12.42V40.16H206v7.05Zm19.15,5q0,18.82-12.09,27.55l-4.71-4.7q11.08-7.72,11.09-23.18V6.57h26.87V74.43c0,2.9-1.45,4.36-4.36,4.36h-7.06l-1-6.38h5.38a1.19,1.19,0,0,0,1.34-1.34V52.25Zm15.45-26.2V13H246.32v13.1Zm0,19.82V32.43H246.32V45.87Z"/><path class="cls-3" d="M358.19,52.59l-1.35,6a59.18,59.18,0,0,1-20.49-6,69.17,69.17,0,0,1-17.8,6.72l-1-3L308.8,67.37l-3.69-3.69q3.36-4,5.71-7.06h-7.05V74.43c0,3.36-1.35,5-4,5h-5.37l-1-5.37h3.7a.89.89,0,0,0,1-1v-9.4a61.7,61.7,0,0,1-14.78,10.75l-2.35-5.38a62.43,62.43,0,0,0,16.13-12.43H282.6V51.25h20.83L288,45.2l3-3.36,8.73,2.69,5.38-4H285v-4h25.87l1-1,3.69,3.69c.9,1.13.56,1.46-1,1l-10.75,6.05,4,1.68-2.69,3.36h8.4l1-1,3.69,3.36q5,0,13.1-3.7a59.46,59.46,0,0,1-5.71-5,26.35,26.35,0,0,1-7.39,4.71l-2.69-4.37q6-2.69,14.78-11.42l4.37,2c1.12.67.78,1-1,1L332,38.48h23.86v4h-7.39a28.32,28.32,0,0,1-7.06,6.72Q347.44,51.93,358.19,52.59Zm-9.07-26.2V17.65H321.91V34.79H316.2V17.65H289v8.74h-5.71V12.28H316.2v-4H289.32v-4h59.8v4H321.91v4h32.92V26.39ZM312.5,20.68v4H292v-4ZM292,28.07H312.5v4H292ZM347.1,65H336q-2.7,13.42-22.18,14.44l-1.34-5.37Q328.28,73.41,330,65H319.55V61H331l.33-5,5.38.34q2.69.33.33,2L336.69,61h16.46l-1,11.42q-.67,6.72-7.05,6.72h-5.72l-1-5.38h5.37a2.45,2.45,0,0,0,2.69-2.35ZM325.6,24.71v-4h20.49v4Zm20.49,3.36v4H325.6v-4Zm-9.74,19.14a21.6,21.6,0,0,0,5.71-4.7H329.63A19.68,19.68,0,0,0,336.35,47.21Z"/><path class="cls-3" d="M415.3,79.8,414,73.42q23.19-1.35,33.6-6.72-7.74-2-15.12-3.36l-2,2.35-6-3.36,9.07-10.08H410.26V46.88H437.8l5.38-7.39H425.37v2.35h-5.71V19.33h17.47V11.94H412.27V6.57H484.5v5.37H459.64v7.39h17.47V41.5H471.4v-2H446.2l3.36,1.68q1.68,1-1,1.68l-3.35,4h41.65v5.37H469.72A56.3,56.3,0,0,1,460,64.35a160,160,0,0,1,23.18,8.73l-4.37,6A156.46,156.46,0,0,0,454.6,69.05Q443.19,77.45,415.3,79.8Zm10.07-45.69h11.76v-9.4H425.37Zm16.47,18.14-5.72,6.39A152,152,0,0,1,453.26,62a29.22,29.22,0,0,0,8.4-9.75Zm1-40.31v7.39h11.09V11.94Zm0,12.77v9.4h11.09v-9.4Zm16.8,0v9.4H471.4v-9.4Z"/><g class="cls-6"><path class="cls-5" d="M181.68,43.7h-2.25l4.69-8.22H186l4.69,8.22h-2.25l-1.31-2.4H183Zm3.47-6H185l-1.5,2.79h3.19Z"/><path class="cls-5" d="M211.87,39.82c1.43.37,2.15.9,2.15,1.6s-.47,1.27-1.4,1.69a9.07,9.07,0,0,1-3.66.59,8.63,8.63,0,0,1-3.47-.55c-1-.44-1.5-1-1.5-1.6v-.42h2.16v.38a1.08,1.08,0,0,0,.75,1,4.47,4.47,0,0,0,1.87.34,5.64,5.64,0,0,0,2.25-.34c.57-.25.85-.57.85-1s-.44-.76-1.32-1c-1.56-.45-3-.93-4.4-1.44-1-.36-1.53-.85-1.6-1.47s.41-1.14,1.41-1.56a7.81,7.81,0,0,1,3.09-.59,8,8,0,0,1,3.19.5c.94.42,1.38,1,1.31,1.77H211.4c.12-.47-.13-.85-.75-1.13a4.39,4.39,0,0,0-3.19,0c-.56.25-.84.54-.84.88s.43.72,1.31,1.06A36.72,36.72,0,0,0,211.87,39.82Z"/><path class="cls-5" d="M229.68,43.7h-2.25l4.69-8.22H234l4.69,8.22h-2.25l-1.31-2.4H231Zm3.47-6H233l-1.5,2.79h3.19Z"/><path class="cls-5" d="M258.93,36.57a3.75,3.75,0,0,0-1.5-.29,3,3,0,0,0-1.22.21,3.31,3.31,0,0,0-2.06,3.29,2.69,2.69,0,0,0,1.5,2.74,3.56,3.56,0,0,0,1.5.34,4.05,4.05,0,0,0,1.69-.34A1.73,1.73,0,0,0,260,40.83V40h-2.91v-.8h4.79V43.7h-1.6l-.28-.76a6.05,6.05,0,0,1-3.09.76,6.71,6.71,0,0,1-2.72-.5A3.46,3.46,0,0,1,252,39.78a3.71,3.71,0,0,1,2.35-3.67,7.42,7.42,0,0,1,3.09-.63,7,7,0,0,1,2.81.46,2.29,2.29,0,0,1,1.6,2.11h-2A1.66,1.66,0,0,0,258.93,36.57Z"/><path class="cls-5" d="M282.09,42.77h1v.93H278.9v-.93h1V36.4h-1v-.92h4.22v.92h-1Z"/><path class="cls-5" d="M308.71,36.15a1.73,1.73,0,0,1,1.22,1.56c0,.62-.41,1.13-1.22,1.52a5.48,5.48,0,0,1-1.69.55l3.38,3.92h-2.25L305,39.91h-2.62V43.7h-2.16V35.48h4.69A9.41,9.41,0,0,1,308.71,36.15ZM307,38.72a1.08,1.08,0,0,0,.75-1c0-.42-.28-.76-.84-1a6.31,6.31,0,0,0-2.53-.42h-2.06V39.1h2.71A4.65,4.65,0,0,0,307,38.72Z"/><path class="cls-5" d="M330.09,42.77h1v.93H326.9v-.93h1V36.4h-1v-.92h4.22v.92h-1Z"/><path class="cls-5" d="M372.18,43.7V35.48h2.15v3.46l5.35-3.46h2.53l-5,3.24,5.34,5h-2.43l-4.32-4.17-1.5.92V43.7Z"/><path class="cls-5" d="M397.68,43.7h-2.25l4.69-8.22H402l4.69,8.22h-2.25l-1.31-2.4H399Zm3.47-6H401l-1.5,2.79h3.19Z"/><path class="cls-5" d="M429.83,35.48V43.7h-2.62l-4.88-6.16h-.09V43.7h-2.16V35.48h2.63l4.87,6.16h.1V35.48Z"/><path class="cls-5" d="M445.68,43.7h-2.25l4.69-8.22H450l4.69,8.22h-2.25l-1.31-2.4H447Zm3.47-6H449l-1.5,2.79h3.19Z"/><path class="cls-5" d="M469.87,37.54V43.7H468V35.48h3l2,5.35h.19l2-5.35h3V43.7h-1.88V37.54h-.19L473.8,43.7h-1.5l-2.25-6.16Z"/><path class="cls-5" d="M494.62,38.94H501v.8h-6.37V42.9H502v.8h-9.56V35.48h9.09v.8h-6.93Z"/></g><rect class="cls-7" width="680" height="82"/></g></g></svg>