<svg xmlns="http://www.w3.org/2000/svg" viewBox="0 0 680 82"><defs><style>.cls-1{isolation:isolate;}.cls-2{opacity:0.2;}.cls-2,.cls-4{mix-blend-mode:screen;}.cls-3{fill:#fff;}.cls-4{opacity:0.45;}.cls-5{fill:red;}.cls-6{opacity:0.85;}.cls-7{fill:none;opacity:0.19;}</style></defs><title>アートボード 351</title><g class="cls-1"><g id="CHARACTER"><g class="cls-2"><path class="cls-3" d="M31.75,57.56c-4.93,0-8.81-.64-11.52-1.91-3.54-1.65-5.34-3.72-5.34-6.16V48.08a.9.9,0,0,1,.9-.9h6.93a.91.91,0,0,1,.9.9v1.27c0,.72.19,1.77,1.89,2.56a13.37,13.37,0,0,0,5.64,1,17.12,17.12,0,0,0,6.85-1c2.19-1,2.19-2.07,2.19-2.42,0-1.25-2.24-2.11-3.58-2.51-5-1.49-9.78-3.11-14.21-4.81-3.55-1.34-5.47-3.25-5.7-5.67s1.46-4.54,5.05-6.12a25.76,25.76,0,0,1,10.3-2c4.53,0,8.11.6,10.62,1.77,3.37,1.58,5,3.86,4.74,6.79a.9.9,0,0,1-.9.83H39.58a.89.89,0,0,1-.87-1.11c.2-.78.15-1.8-1.92-2.77a11.35,11.35,0,0,0-4.74-.9,11.35,11.35,0,0,0-4.74.9c-1,.47-2.19,1.22-2.19,2.14,0,.37.36,1.36,3.65,2.68a112.62,112.62,0,0,0,12.55,4.19c5,1.33,7.6,3.42,7.6,6.21s-1.7,4.88-5,6.44C41,56.87,36.88,57.56,31.75,57.56ZM16.69,49v.51c0,1.68,1.45,3.2,4.3,4.53,2.47,1.16,6.09,1.74,10.76,1.74,4.87,0,8.69-.63,11.37-1.88s4-2.83,4-4.81S45,45.69,40.86,44.59h0a112.09,112.09,0,0,1-12.75-4.25c-3.22-1.28-4.79-2.71-4.79-4.35s1.09-2.77,3.23-3.77a13,13,0,0,1,5.5-1.07,13,13,0,0,1,5.5,1.07c2.31,1.08,3,2.48,3,3.71h5c-.18-1.74-1.4-3.11-3.7-4.19s-5.59-1.6-9.86-1.6A24,24,0,0,0,22.47,32c-2.8,1.23-4.14,2.67-4,4.29s1.69,3.09,4.55,4.17c4.39,1.68,9.13,3.28,14.09,4.76,1.2.36,4.86,1.46,4.86,4.24,0,1.69-1.09,3-3.23,4a18.53,18.53,0,0,1-7.61,1.21,15.13,15.13,0,0,1-6.4-1.21,4.47,4.47,0,0,1-2.93-4.19V49Z"/><path class="cls-3" d="M70.6,57.56h-.3c-5.21,0-8.88-.53-11.22-1.63-3.34-1.56-5-3.77-5-6.58V29.24a.9.9,0,0,1,.9-.9h6.93a.9.9,0,0,1,.9.9V49.35a2.45,2.45,0,0,0,1.59,2.42,14.75,14.75,0,0,0,5.94.9h.3a13.86,13.86,0,0,0,5.65-.9c1.69-.79,1.89-1.76,1.89-2.42V29.24a.9.9,0,0,1,.9-.9H86a.9.9,0,0,1,.9.9V49.35c0,2.81-1.69,5-5,6.58C79.48,57,75.8,57.56,70.6,57.56ZM55.84,30.14V49.35c0,2.07,1.31,3.69,4,4.95,2.07,1,5.59,1.46,10.46,1.46h.3c4.87,0,8.39-.49,10.46-1.46,2.69-1.26,4-2.88,4-4.95V30.14H79.94V49.35c0,1.22-.51,2.92-2.93,4a15.35,15.35,0,0,1-6.41,1.07h-.3a16.17,16.17,0,0,1-6.7-1.07,4.24,4.24,0,0,1-2.63-4V30.14Z"/><path class="cls-3" d="M115.78,57.56H102.23a.9.9,0,0,1-.9-.9V53.57a.9.9,0,0,1,.9-.9h2.41V33.23h-2.41a.9.9,0,0,1-.9-.9V29.24a.9.9,0,0,1,.9-.9h13.55a.9.9,0,0,1,.9.9v3.09a.9.9,0,0,1-.9.9h-2.41V52.67h2.41a.9.9,0,0,1,.9.9v3.09A.9.9,0,0,1,115.78,57.56Zm-12.65-1.8h11.75V54.47h-2.41a.9.9,0,0,1-.9-.9V32.33a.9.9,0,0,1,.9-.9h2.41V30.14H103.13v1.29h2.41a.9.9,0,0,1,.9.9V53.57a.9.9,0,0,1-.9.9h-2.41Z"/><path class="cls-3" d="M164.87,57.56h-7.23a.9.9,0,0,1-.7-.33L147,44.91h-7.1V56.66a.9.9,0,0,1-.9.9H132a.9.9,0,0,1-.9-.9V29.24a.9.9,0,0,1,.9-.9H147.1a30.48,30.48,0,0,1,12.73,2.33h0c2.94,1.38,4.43,3.41,4.43,6,0,2.42-1.48,4.4-4.41,5.87a19.8,19.8,0,0,1-4.17,1.61l9.88,11.92a.89.89,0,0,1,.12.95A.88.88,0,0,1,164.87,57.56Zm-6.8-1.8H163l-9.62-11.6a.9.9,0,0,1-.14-.89.89.89,0,0,1,.7-.58A16.78,16.78,0,0,0,159,41c2.31-1.17,3.43-2.56,3.43-4.27,0-1.88-1.11-3.31-3.39-4.38h0a28.53,28.53,0,0,0-12-2.17H132.94V55.76h5.13V44a.9.9,0,0,1,.9-.9h8.43a.9.9,0,0,1,.7.33ZM147.7,42.23H139a.9.9,0,0,1-.9-.9V31.91a.9.9,0,0,1,.9-.9h6.62a20.51,20.51,0,0,1,8.52,1.49c2.14,1,3.23,2.41,3.23,4.19a4.47,4.47,0,0,1-2.93,4.19h0A15.73,15.73,0,0,1,147.7,42.23Zm-7.83-1.8h7.83a13.92,13.92,0,0,0,6-1.18h0a2.68,2.68,0,0,0,1.89-2.56c0-.38,0-1.53-2.19-2.56a19,19,0,0,0-7.76-1.32h-5.72Z"/><path class="cls-3" d="M202.21,57.56H171.5a.9.9,0,0,1-.91-.9V29.24a.9.9,0,0,1,.91-.9h29.21a.9.9,0,0,1,.9.9v2.67a.9.9,0,0,1-.9.9H179.32v7.06H198.9a.9.9,0,0,1,.9.9v2.67a.9.9,0,0,1-.9.9H179.32v8.75h22.89a.9.9,0,0,1,.91.9v2.67A.9.9,0,0,1,202.21,57.56Zm-29.81-1.8h28.91v-.87H178.42a.9.9,0,0,1-.9-.9V43.44a.9.9,0,0,1,.9-.9H198v-.87H178.42a.9.9,0,0,1-.9-.9V31.91a.9.9,0,0,1,.9-.9h21.39v-.87H172.4Z"/><path class="cls-3" d="M240.16,57.56h-8.43a.91.91,0,0,1-.72-.35L216.67,38.4V56.66a.9.9,0,0,1-.9.9h-6.93a.9.9,0,0,1-.9-.9V29.24a.9.9,0,0,1,.9-.9h8.43a.91.91,0,0,1,.72.35L232.33,47.5V29.24a.9.9,0,0,1,.91-.9h6.92a.9.9,0,0,1,.9.9V56.66A.9.9,0,0,1,240.16,57.56Zm-8-1.8h7.09V30.14h-5.12V49.77a.9.9,0,0,1-.9.9h-.31a.9.9,0,0,1-.71-.35L216.83,30.14h-7.09V55.76h5.13V36.13a.9.9,0,0,1,.9-.9h.3a.88.88,0,0,1,.71.36Z"/><path class="cls-3" d="M263.05,57.56a25.08,25.08,0,0,1-10.62-2.05,8.1,8.1,0,0,1-5-7.85v-2a.91.91,0,0,1,.9-.9h6.93a.9.9,0,0,1,.9.9v2.68c0,1.81.6,2.94,1.89,3.54a11.17,11.17,0,0,0,4.74.9,12.88,12.88,0,0,0,5.34-.9c1.48-.69,2.19-2,2.19-4.11V29.24a.9.9,0,0,1,.9-.9h6.93a.9.9,0,0,1,.9.9V47.66a8.1,8.1,0,0,1-5,7.85A25.89,25.89,0,0,1,263.05,57.56Zm-13.86-11v1.07a6.35,6.35,0,0,0,4,6.22,23.31,23.31,0,0,0,9.86,1.88,24.1,24.1,0,0,0,10.16-1.88,6.35,6.35,0,0,0,4-6.22V30.14h-5.13V47.8c0,2.81-1.08,4.74-3.23,5.74a14.41,14.41,0,0,1-6.1,1.07,12.91,12.91,0,0,1-5.5-1.07c-1.94-.9-2.93-2.65-2.93-5.17V46.59Z"/><path class="cls-3" d="M308.53,57.56H295a.9.9,0,0,1-.9-.9V53.57a.9.9,0,0,1,.9-.9h2.41V33.23H295a.9.9,0,0,1-.9-.9V29.24a.9.9,0,0,1,.9-.9h13.55a.9.9,0,0,1,.9.9v3.09a.9.9,0,0,1-.9.9h-2.41V52.67h2.41a.9.9,0,0,1,.9.9v3.09A.9.9,0,0,1,308.53,57.56Zm-12.65-1.8h11.75V54.47h-2.42a.9.9,0,0,1-.9-.9V32.33a.91.91,0,0,1,.9-.9h2.42V30.14H295.88v1.29h2.41a.9.9,0,0,1,.9.9V53.57a.9.9,0,0,1-.9.9h-2.41Z"/><path class="cls-3" d="M396.77,57.56h-7.83a.9.9,0,0,1-.64-.26L375,43.89l-3.79,2.44V56.66a.9.9,0,0,1-.9.9h-6.93a.9.9,0,0,1-.9-.9V29.24a.9.9,0,0,1,.9-.9h6.93a.9.9,0,0,1,.9.9v9.84l15.76-10.59a.91.91,0,0,1,.5-.15h8.14a.91.91,0,0,1,.86.64.9.9,0,0,1-.36,1L381,40.19,397.4,56a.89.89,0,0,1,.2,1A.88.88,0,0,1,396.77,57.56Zm-7.46-1.8h5.23L379,40.72a.88.88,0,0,1-.27-.73.89.89,0,0,1,.39-.67l13.54-9.18h-4.93L370.77,41.52a.94.94,0,0,1-.93,0,.92.92,0,0,1-.47-.8V30.14h-5.13V55.76h5.13V45.83a.88.88,0,0,1,.41-.75L374.6,42a.88.88,0,0,1,1.12.13Z"/><path class="cls-3" d="M424.18,57.56H410.62a.9.9,0,0,1-.9-.9V53.57a.9.9,0,0,1,.9-.9H413V33.23h-2.42a.9.9,0,0,1-.9-.9V29.24a.9.9,0,0,1,.9-.9h13.56a.9.9,0,0,1,.9.9v3.09a.9.9,0,0,1-.9.9h-2.42V52.67h2.42a.9.9,0,0,1,.9.9v3.09A.9.9,0,0,1,424.18,57.56Zm-12.66-1.8h11.76V54.47h-2.42a.9.9,0,0,1-.9-.9V32.33a.91.91,0,0,1,.9-.9h2.42V30.14H411.52v1.29h2.42a.91.91,0,0,1,.9.9V53.57a.9.9,0,0,1-.9.9h-2.42Z"/><path class="cls-3" d="M459.41,57.56h-6.92a.9.9,0,0,1-.9-.9V44.51L437.68,29.86a.89.89,0,0,1-.18-1,.9.9,0,0,1,.83-.55h6.93a.88.88,0,0,1,.65.28L456,39.2l10-10.58a.88.88,0,0,1,.65-.28h6.93a.9.9,0,0,1,.83.55.89.89,0,0,1-.18,1L460.31,44.51V56.66A.9.9,0,0,1,459.41,57.56Zm-6-1.8h5.12V44.15a.89.89,0,0,1,.25-.62l12.71-13.39H467L456.75,41a.88.88,0,0,1-.65.28h-.3a.88.88,0,0,1-.65-.28L444.87,30.14h-4.44l12.71,13.39a.89.89,0,0,1,.25.62Z"/><path class="cls-3" d="M494.65,57.56A25.32,25.32,0,0,1,484,55.65c-4.74-2.21-7.15-6.51-7.15-12.77s2.41-10.41,7.15-12.63a25.35,25.35,0,0,1,10.62-1.91A24.54,24.54,0,0,1,505,30.25c4.74,2.22,7.15,6.47,7.15,12.63S509.71,53.44,505,55.65A24.51,24.51,0,0,1,494.65,57.56Zm0-27.42a23.77,23.77,0,0,0-9.86,1.74c-4.11,1.92-6.1,5.52-6.1,11s2,9.22,6.1,11.14a23.55,23.55,0,0,0,9.86,1.74A22.72,22.72,0,0,0,504.21,54c4.11-1.92,6.1-5.56,6.1-11.14s-2-9.08-6.1-11A22.91,22.91,0,0,0,494.65,30.14Zm0,24.75a15,15,0,0,1-6.4-1.35c-2.95-1.37-4.44-5-4.44-10.66s1.49-9.14,4.44-10.52a15.1,15.1,0,0,1,6.4-1.35,14.37,14.37,0,0,1,6.1,1.35c2.95,1.38,4.44,4.92,4.44,10.52s-1.49,9.29-4.44,10.66A14.22,14.22,0,0,1,494.65,54.89Zm0-22.08A13.27,13.27,0,0,0,489,34c-2.26,1.06-3.4,4-3.4,8.89s1.14,8,3.4,9a13.27,13.27,0,0,0,5.64,1.18A12.57,12.57,0,0,0,500,51.91c2.26-1,3.4-4.09,3.4-9S502.25,35.05,500,34A12.57,12.57,0,0,0,494.65,32.81Z"/><path class="cls-3" d="M548.56,57.56h-6.93a.9.9,0,0,1-.9-.9V43.78H525.37V56.66a.9.9,0,0,1-.9.9h-6.93a.9.9,0,0,1-.9-.9V29.24a.9.9,0,0,1,.9-.9h6.93a.9.9,0,0,1,.9.9V39.31h15.36V29.24a.9.9,0,0,1,.9-.9h6.93a.9.9,0,0,1,.9.9V56.66A.9.9,0,0,1,548.56,57.56Zm-6-1.8h5.13V30.14h-5.13V40.21a.9.9,0,0,1-.9.9H524.47a.9.9,0,0,1-.9-.9V30.14h-5.13V55.76h5.13V42.88a.9.9,0,0,1,.9-.9h17.16a.9.9,0,0,1,.9.9Z"/><path class="cls-3" d="M589.82,57.56h-7.23a.88.88,0,0,1-.79-.48l-4-7.53H565.67l-4,7.53a.91.91,0,0,1-.8.48h-7.23a.89.89,0,0,1-.77-.44.89.89,0,0,1,0-.89L568,28.81a.9.9,0,0,1,.79-.47h6a.9.9,0,0,1,.79.47l15.06,27.42a.89.89,0,0,1,0,.89A.89.89,0,0,1,589.82,57.56Zm-6.68-1.8h5.16L574.23,30.14h-5L555.2,55.76h5.16l4-7.53a.88.88,0,0,1,.79-.48h13.26a.88.88,0,0,1,.79.48Zm-6.27-8.89H566.63a.9.9,0,0,1-.8-1.31l4.82-9.28a.9.9,0,0,1,.8-.49h.6a.89.89,0,0,1,.8.49l4.82,9.28a.92.92,0,0,1,0,.88A.9.9,0,0,1,576.87,46.87Zm-8.76-1.8h7.28l-3.64-7Z"/><path class="cls-3" d="M627.47,57.56h-7.23a.9.9,0,0,1-.7-.33l-10-12.32h-7.1V56.66a.9.9,0,0,1-.9.9h-6.93a.9.9,0,0,1-.9-.9V29.24a.9.9,0,0,1,.9-.9H609.7a30.51,30.51,0,0,1,12.73,2.33h0c2.94,1.37,4.43,3.4,4.43,6,0,2.42-1.48,4.4-4.41,5.87a20,20,0,0,1-4.17,1.61l9.88,11.92a.9.9,0,0,1-.69,1.47Zm-6.8-1.8h4.88l-9.62-11.6a.91.91,0,0,1,.56-1.47A16.87,16.87,0,0,0,621.63,41c2.31-1.17,3.43-2.56,3.43-4.27,0-1.88-1.11-3.31-3.39-4.38h0a28.56,28.56,0,0,0-12-2.17H595.54V55.76h5.13V44a.9.9,0,0,1,.9-.9H610a.9.9,0,0,1,.7.33ZM610.3,42.23h-8.73a.9.9,0,0,1-.9-.9V31.91a.9.9,0,0,1,.9-.9h6.62a20.43,20.43,0,0,1,8.51,1.49c2.15,1,3.23,2.41,3.23,4.19A4.46,4.46,0,0,1,617,40.88h0A15.73,15.73,0,0,1,610.3,42.23Zm-7.83-1.8h7.83a13.84,13.84,0,0,0,5.94-1.18h0c1.7-.79,1.89-1.84,1.89-2.56,0-.38,0-1.53-2.19-2.56a18.87,18.87,0,0,0-7.75-1.32h-5.72Zm14.15-.36h0Z"/><path class="cls-3" d="M648.85,57.56h-.3c-5.21,0-8.88-.53-11.22-1.63-3.35-1.56-5-3.77-5-6.58V29.24a.9.9,0,0,1,.9-.9h6.93a.9.9,0,0,1,.9.9V49.35a2.45,2.45,0,0,0,1.58,2.42,14.84,14.84,0,0,0,5.95.9h.3a13.81,13.81,0,0,0,5.64-.9c1.7-.79,1.89-1.76,1.89-2.42V29.24a.9.9,0,0,1,.9-.9h6.93a.9.9,0,0,1,.9.9V49.35c0,2.81-1.69,5-5,6.58C657.72,57,654.05,57.56,648.85,57.56ZM634.09,30.14V49.35c0,2.07,1.31,3.69,4,4.95,2.07,1,5.59,1.46,10.46,1.46h.3c4.86,0,8.38-.49,10.46-1.46,2.69-1.26,4-2.88,4-4.95V30.14h-5.13V49.35c0,1.22-.51,2.92-2.93,4a15.3,15.3,0,0,1-6.4,1.07h-.3a16.25,16.25,0,0,1-6.71-1.07,4.23,4.23,0,0,1-2.62-4V30.14Z"/></g><g class="cls-4"><path class="cls-5" d="M104.75,43.62q2.69,3.51,2.69,10.24a27.46,27.46,0,0,1-1.75,10.78q-1.64,3.78-4.56,3.78c-1.86,0-3.31-1.17-4.32-3.51a25.72,25.72,0,0,1-1.87-10.24V52h2.69V54.4a17.15,17.15,0,0,0,.93,6.47Q99.51,63,100.9,63a3,3,0,0,0,2.8-2.16,15.71,15.71,0,0,0,1-6.2,11.4,11.4,0,0,0-1.63-6.47A97.3,97.3,0,0,1,97.63,39a21,21,0,0,1-2-9.44,22.68,22.68,0,0,1,1.76-10c1.16-2.51,2.45-3.77,3.85-3.77,1.71,0,3,1.08,4,3.23q1.75,4.05,1.64,11.32h-2.69a16.6,16.6,0,0,0-.93-7.28c-.55-1.25-1.21-1.88-2-1.88s-1.44.63-2,1.88a14,14,0,0,0-1.06,5.66,14.73,14.73,0,0,0,1.64,6.74A53.12,53.12,0,0,0,104.75,43.62Z"/><path class="cls-5" d="M125.08,15.86h2.68V54.4a17,17,0,0,0,.82,6.2A2.64,2.64,0,0,0,131,62.49h.12q1.51,0,2.34-1.89a16.22,16.22,0,0,0,.93-6.2V15.86h2.69V54.4q0,7-1.75,11.05a4.36,4.36,0,0,1-4.21,3H131a4.35,4.35,0,0,1-4.2-3q-1.76-4-1.75-11.05Z"/><path class="cls-5" d="M162.34,62.49h1.28v5.93h-5.26V62.49h1.29V21.79h-1.29V15.86h5.26v5.93h-1.28Z"/><path class="cls-5" d="M195.51,20.17q1.52,3.51,1.51,10a26.39,26.39,0,0,1-1.51,9.71,8.42,8.42,0,0,1-2.11,3.5l4.21,25.07h-2.8l-4-24.26h-3.27V68.42h-2.68V15.86h5.84Q193.63,15.86,195.51,20.17ZM193.4,36.61a16.88,16.88,0,0,0,.94-6.47,16.58,16.58,0,0,0-1.05-6.47c-.78-1.79-1.83-2.69-3.16-2.69h-2.57V39H191C191.89,39,192.7,38.23,193.4,36.61Z"/><path class="cls-5" d="M217.81,38h7.95v5.12h-7.95V63.29H227v5.13H215.13V15.86h11.33V21h-8.65Z"/><path class="cls-5" d="M256.71,15.86V68.42h-3.27l-6.08-39.36h-.11V68.42h-2.69V15.86h3.27l6.08,39.35H254V15.86Z"/><path class="cls-5" d="M286.38,51.17q0,9.44-1.76,13.47-1.64,3.78-4.08,3.78t-4-3.78q-1.74-4-1.75-13.47V47.39h2.69v5.12c0,4.14.31,6.92.93,8.36.55,1.26,1.21,1.89,2,1.89s1.67-.63,2.22-1.89q1-2.43,1.05-9.43V15.86h2.69Z"/><path class="cls-5" d="M311.84,62.49h1.28v5.93h-5.25V62.49h1.28V21.79h-1.28V15.86h5.25v5.93h-1.28Z"/><path class="cls-5" d="M364.28,68.42V15.86H367V38l6.66-22.1h3.16l-6.19,20.75,6.65,31.81h-3l-5.38-26.69L367,47.66V68.42Z"/><path class="cls-5" d="M401.54,62.49h1.28v5.93h-5.25V62.49h1.28V21.79h-1.28V15.86h5.25v5.93h-1.28Z"/><path class="cls-5" d="M426,15.86,430,37.15h.11l4.09-21.29h2.69l-5.49,28.57v24h-2.69v-24l-5.49-28.57Z"/><path class="cls-5" d="M466.48,42q0,17-2.57,22.91c-1,2.34-2.3,3.51-3.86,3.51s-3-1.17-4-3.51Q453.52,59,453.51,42q0-16.71,2.57-22.64c1-2.33,2.34-3.5,4-3.5s2.84,1.17,3.86,3.5Q466.48,25.3,466.48,42ZM456.2,42q0,15.36,1.52,18.87c.7,1.62,1.48,2.42,2.33,2.42s1.52-.8,2.22-2.42q1.51-3.49,1.52-18.87,0-15.09-1.52-18.6c-.7-1.61-1.44-2.42-2.22-2.42s-1.63.81-2.33,2.42Q456.19,26.91,456.2,42Z"/><path class="cls-5" d="M483.88,68.42V15.86h2.69v21h6.65v-21h2.69V68.42h-2.69V42h-6.65V68.42Z"/><path class="cls-5" d="M515.65,68.42h-2.8l5.84-52.56H521l5.84,52.56h-2.8l-1.64-15.37h-5.14ZM520,30.14h-.23l-1.87,17.79h4Z"/><path class="cls-5" d="M554.31,20.17q1.52,3.51,1.52,10a26.37,26.37,0,0,1-1.52,9.71,8.43,8.43,0,0,1-2.1,3.5l4.2,25.07h-2.8l-4-24.26h-3.27V68.42h-2.69V15.86h5.84Q552.43,15.86,554.31,20.17Zm-2.1,16.44a17.11,17.11,0,0,0,.93-6.47,16.58,16.58,0,0,0-1-6.47c-.78-1.79-1.83-2.69-3.15-2.69h-2.57V39h3.38C550.69,39,551.5,38.23,552.21,36.61Z"/><path class="cls-5" d="M573.58,15.86h2.69V54.4a17,17,0,0,0,.81,6.2,2.65,2.65,0,0,0,2.46,1.89h.11c1,0,1.79-.63,2.34-1.89a16.22,16.22,0,0,0,.93-6.2V15.86h2.69V54.4q0,7-1.75,11.05a4.36,4.36,0,0,1-4.21,3h-.11a4.36,4.36,0,0,1-4.21-3q-1.76-4-1.75-11.05Z"/></g><path class="cls-3" d="M133.18,73.59l-3.7-7.06Q148,56.12,153.67,29.24H134.19V22.86h19.48l2-2.69,5.71,4q2.34,1.35-.34,3Q155.69,59.15,133.18,73.59Zm39.3-39V73.25q0,5.37-5.37,5.37H159l-1.34-6.38h6.72a1.18,1.18,0,0,0,1.34-1.34V3.38h6.39q2.68.33.33,2v9.74q0,7.39,5.71,17.47,7.73-5.37,17.14-16.8l6,6.05q1.68,2.7-2,2a176.67,176.67,0,0,1-18.14,14.44,78.26,78.26,0,0,0,25.86,27.55l-4,7.73Q183.24,60.15,172.48,34.62Z"/><path class="cls-3" d="M294.09,71.91l-1,6.38H252.77a26.18,26.18,0,0,1-20.83-9.41L219.85,80l-3.7-7.73,12.1-7.39V49.4H217.83V43H235V64.18a22.05,22.05,0,0,0,17.47,7.73ZM261.51,23.53V19.84h2.35v-5H244.71v5.71H238V14.8H218.17V8.41H238V2h6.38q2.69.35.34,2V8.41h19.15v-6h6.38q2.68.33.34,2v4H290.4V14.8H270.58v5h-3.36v3.69h21.83v5.38H267.22V32.6h18.14V54.1H267.22v4.37h23.85v5.37H267.22v5.71h-5.71V63.84H238V58.47h23.52V54.1H243.7V32.6h17.81V28.91H240V23.53Zm-38-1.68a43.64,43.64,0,0,1,11.76,9.07l-4.36,5.71a66.54,66.54,0,0,0-11.09-9.4Zm38,14.78h-12.1v4.71h12.1Zm0,8.74h-12.1v4.7h12.1Zm18.14-8.74H267.22v4.71h12.43Zm0,8.74H267.22v4.7h12.43Z"/><path class="cls-3" d="M306.86,46.71h42.66V37h-46V30.59h32.92V20.51H312.23V14.12h24.19V2.7h6.38q2.68.34.34,2v9.4h24.52v6.39H343.14V30.59h33.59V37H356.24v9.74h17.13v6.38H356.24v20.5q0,5.37-5.37,5.37H342.8l-1.34-6.38h6.72a1.19,1.19,0,0,0,1.34-1.35V53.09H306.86Zm21.83,23.52a95.29,95.29,0,0,0-9.4-12.1l6.38-4.36a93.87,93.87,0,0,1,9.74,11.75Z"/><path class="cls-3" d="M387.48,72.58q5.72-6.72,15.12-24.19l5.71,3.7q-7.05,14.1-12.77,24.18c.45,1.35.12,1.9-1,1.68Zm6.39-46.7A46.87,46.87,0,0,1,403.94,34l-4.7,5.71a94.56,94.56,0,0,0-10.08-8.74Zm3.35-19.15a46.08,46.08,0,0,1,10.08,8.74l-5,5.37a82.24,82.24,0,0,0-10.07-8.73Zm14.45,2.69H432.5v-7h6.38q2.69.33.34,2v5h21.16V14.8H439.22v4.7H458v5.38H439.22v4.36h25.19v5.38H407.3V29.24h25.2V24.88H414V19.5H432.5V14.8H411.67Zm38,62.15V64.18H422.76V79.3H416V39h40.31V74.59q0,4.71-4.7,4.71h-6.72l-1.35-6.39h4.71A1.19,1.19,0,0,0,449.63,71.57Zm0-27.21H422.76v4.37h26.87Zm0,9.74H422.76v4.7h26.87Z"/><path class="cls-3" d="M474.49,53.43q13.1-6.72,20.16-14.45H476.17V33.61h22.51a54.28,54.28,0,0,0,4-6.72H484.57V21.52h20.15a32.08,32.08,0,0,0,2-6H480.2V10.09h27.88c.68-2.68,1.23-5.26,1.68-7.72l6.72.67q2.68,1-.33,2l-1.35,5H544v5.38H513.46a32.08,32.08,0,0,1-2,6H540v5.37H522.19a30.53,30.53,0,0,0,4.71,6.72h21.83V39H531.6a79.08,79.08,0,0,0,19.15,12.43l-3,6.72A98.7,98.7,0,0,1,531.6,47.05V77.62h-5.71v-2H498.68V79H493V49.4a107.42,107.42,0,0,1-15.12,10.41ZM528.91,45A32.12,32.12,0,0,1,523.54,39H502.71A29.76,29.76,0,0,1,497,45Zm-30.23,5.38v7.05h27.21V50.41Zm0,19.82h27.21V62.84H498.68Zm10.75-43.34a47.87,47.87,0,0,1-3.36,6.72h13.44a33,33,0,0,1-3.7-6.72Z"/><g class="cls-6"><path class="cls-5" d="M139.26,40c1.44.37,2.16.9,2.16,1.6S141,42.86,140,43.28a9.15,9.15,0,0,1-3.65.59,8.63,8.63,0,0,1-3.47-.55c-1-.45-1.5-1-1.5-1.6V41.3h2.15v.38a1.09,1.09,0,0,0,.75,1,4.51,4.51,0,0,0,1.88.34,5.64,5.64,0,0,0,2.25-.34c.56-.25.84-.58.84-1s-.43-.76-1.31-1q-2.34-.68-4.41-1.44c-1-.36-1.53-.86-1.59-1.47s.41-1.14,1.41-1.57a9.23,9.23,0,0,1,6.28-.08c.94.42,1.37,1,1.31,1.77h-2.16q.19-.72-.75-1.14a4.5,4.5,0,0,0-3.18,0c-.57.26-.85.55-.85.89s.44.72,1.32,1A35.18,35.18,0,0,0,139.26,40Z"/><path class="cls-5" d="M155.58,35.64h2.15v6a1,1,0,0,0,.66,1,5.13,5.13,0,0,0,2,.29h.09a4.9,4.9,0,0,0,1.88-.29,1.07,1.07,0,0,0,.75-1v-6h2.15v6c0,.73-.47,1.3-1.4,1.73a8.92,8.92,0,0,1-3.38.46h-.09a8.89,8.89,0,0,1-3.38-.46c-.94-.43-1.4-1-1.4-1.73Z"/><path class="cls-5" d="M185.48,42.94h1v.93h-4.22v-.93h1V36.57h-1v-.93h4.22v.93h-1Z"/><path class="cls-5" d="M212.11,36.32a1.73,1.73,0,0,1,1.22,1.56c0,.62-.41,1.13-1.22,1.52a6,6,0,0,1-1.69.55l3.37,3.92h-2.25l-3.18-3.8h-2.63v3.8h-2.15V35.64h4.68A9.45,9.45,0,0,1,212.11,36.32Zm-1.69,2.57a1.08,1.08,0,0,0,.75-1c0-.42-.28-.76-.84-1a6.33,6.33,0,0,0-2.54-.42h-2.06v2.82h2.72A4.65,4.65,0,0,0,210.42,38.89Z"/><path class="cls-5" d="M230,39.1h6.38v.81H230v3.16h7.41v.8h-9.56V35.64H237v.81H230Z"/><path class="cls-5" d="M261.23,35.64v8.23h-2.62l-4.88-6.16h-.09v6.16h-2.16V35.64h2.63L259,41.8h.1V35.64Z"/><path class="cls-5" d="M285,41.17a2.15,2.15,0,0,1-1.4,2.11,8.08,8.08,0,0,1-3.28.59,7.8,7.8,0,0,1-3.19-.59,2.16,2.16,0,0,1-1.41-2.11v-.59h2.16v.8a1.3,1.3,0,0,0,.75,1.31,3.83,3.83,0,0,0,1.59.29,4.34,4.34,0,0,0,1.78-.29,1.46,1.46,0,0,0,.85-1.48V35.64H285Z"/><path class="cls-5" d="M305.48,42.94h1v.93h-4.22v-.93h1V36.57h-1v-.93h4.22v.93h-1Z"/><path class="cls-5" d="M371.58,43.87V35.64h2.15V39.1l5.35-3.46h2.53l-5,3.25,5.34,5h-2.44l-4.31-4.18-1.5.93v3.25Z"/><path class="cls-5" d="M401.48,42.94h1v.93h-4.22v-.93h1V36.57h-1v-.93h4.22v.93h-1Z"/><path class="cls-5" d="M421.08,35.64,424.36,39h.09l3.28-3.34h2.16l-4.41,4.48v3.75h-2.15V40.12l-4.41-4.48Z"/><path class="cls-5" d="M453.61,39.74a3.54,3.54,0,0,1-2.07,3.58,7.47,7.47,0,0,1-3.09.55,7.78,7.78,0,0,1-3.19-.55,3.55,3.55,0,0,1-2.06-3.58,3.53,3.53,0,0,1,2.06-3.55,8,8,0,0,1,3.19-.55,7.63,7.63,0,0,1,3.09.55A3.52,3.52,0,0,1,453.61,39.74Zm-8.25,0c0,1.6.4,2.58,1.22,2.95a4.53,4.53,0,0,0,1.87.38,4.34,4.34,0,0,0,1.78-.38c.81-.37,1.22-1.35,1.22-2.95s-.41-2.55-1.22-2.91a4.19,4.19,0,0,0-1.78-.38,4.37,4.37,0,0,0-1.87.38C445.76,37.19,445.36,38.16,445.36,39.74Z"/><path class="cls-5" d="M467.58,43.87V35.64h2.15v3.29h5.35V35.64h2.15v8.23h-2.15V39.74h-5.35v4.13Z"/><path class="cls-5" d="M493.08,43.87h-2.25l4.68-8.23h1.88l4.69,8.23h-2.25l-1.32-2.4h-4.12Zm3.46-6h-.18l-1.5,2.78H498Z"/><path class="cls-5" d="M524.11,36.32a1.73,1.73,0,0,1,1.22,1.56c0,.62-.41,1.13-1.22,1.52a6,6,0,0,1-1.69.55l3.37,3.92h-2.25l-3.18-3.8h-2.63v3.8h-2.15V35.64h4.68A9.42,9.42,0,0,1,524.11,36.32Zm-1.69,2.57a1.08,1.08,0,0,0,.75-1c0-.42-.28-.76-.84-1a6.33,6.33,0,0,0-2.54-.42h-2.06v2.82h2.72A4.65,4.65,0,0,0,522.42,38.89Z"/><path class="cls-5" d="M539.58,35.64h2.15v6a1,1,0,0,0,.66,1,5.17,5.17,0,0,0,2,.29h.09a4.9,4.9,0,0,0,1.88-.29,1.07,1.07,0,0,0,.75-1v-6h2.15v6c0,.73-.47,1.3-1.4,1.73a8.92,8.92,0,0,1-3.38.46h-.09a8.89,8.89,0,0,1-3.38-.46c-.94-.43-1.4-1-1.4-1.73Z"/></g><rect class="cls-7" width="680" height="82"/></g></g></svg>