<svg xmlns="http://www.w3.org/2000/svg" viewBox="0 0 131 18"><defs><style>.cls-1{fill:#8c0000;}.cls-2{fill:none;opacity:0.15;}</style></defs><title>アートボード 231</title><g id="CHARACTER"><polygon class="cls-1" points="114.54 1.22 114.54 17.57 130.61 9.4 114.54 1.22"/><polygon class="cls-1" points="16.46 1.22 16.46 17.57 0.39 9.4 16.46 1.22"/><path class="cls-1" d="M40.36,9.28a3.55,3.55,0,0,1,2,3.27A4.63,4.63,0,0,1,41.05,16a4.5,4.5,0,0,1-3.35,1.21,4.31,4.31,0,0,1-3.18-1.12,4.47,4.47,0,0,1-1.38-3.27v-.86h2v.78a2.79,2.79,0,0,0,.69,2.06,2.33,2.33,0,0,0,1.72.69,2.8,2.8,0,0,0,2.06-.69,2.7,2.7,0,0,0,.77-2,2.36,2.36,0,0,0-1.2-2.06,42.11,42.11,0,0,1-4-2.92,3.91,3.91,0,0,1-1.46-3A3.91,3.91,0,0,1,35,1.63,4.07,4.07,0,0,1,37.78.43a4,4,0,0,1,2.93,1,4.61,4.61,0,0,1,1.2,3.61h-2a2.63,2.63,0,0,0-.69-2.32,2.08,2.08,0,0,0-2.92,0,2.48,2.48,0,0,0-.77,1.8,2.89,2.89,0,0,0,1.2,2.15A24.26,24.26,0,0,0,40.36,9.28Z"/><path class="cls-1" d="M47.43,7.48h5.84V9.11H47.43v6.44h6.79v1.64H45.45V.43h8.34V2.06H47.43Z"/><path class="cls-1" d="M57.16.43h2V15.55h7v1.64H57.16Z"/><path class="cls-1" d="M70.31,7.48h5.84V9.11H70.31v6.44H77.1v1.64H68.33V.43h8.34V2.06H70.31Z"/><path class="cls-1" d="M86.72,16a3.93,3.93,0,0,1-5.67,0q-2.14-2.14-2.15-6.7c0-3.55.78-6.1,2.32-7.65A3.81,3.81,0,0,1,84,.43a3.48,3.48,0,0,1,2.58.94,6.37,6.37,0,0,1,1.72,4.9H86.38c-.06-1.83-.4-3.06-1-3.69A1.85,1.85,0,0,0,84,2.06a1.89,1.89,0,0,0-1.37.6q-1.72,1.72-1.72,6.45,0,4.13,1.46,5.58a2.13,2.13,0,0,0,1.55.69,2.06,2.06,0,0,0,1.46-.69c.57-.57.89-1.89.94-3.95h2.07C88.18,13.32,87.64,15.07,86.72,16Z"/><path class="cls-1" d="M93.87,17.19V2.06H90.52V.43h8.85V2.06H95.84V17.19Z"/><rect class="cls-2" width="131" height="18"/></g></svg>