<svg xmlns="http://www.w3.org/2000/svg" viewBox="0 0 214 31"><defs><style>.cls-1{fill:none;opacity:0.15;}.cls-2{fill:red;}</style></defs><title>アートボード 221</title><g id="comon"><g id="見出し"><rect class="cls-1" width="214" height="31"/><path class="cls-2" d="M87,9.36a1.9,1.9,0,0,0-1.37-.61,1.55,1.55,0,0,0-1.12.43q-1.89,1.89-1.89,6.71c0,2.8.46,4.67,1.37,5.58a2,2,0,0,0,1.38.69,2.15,2.15,0,0,0,1.55-.69,4.75,4.75,0,0,0,1-3.43V16.4H85.26V14.77h4.39v9.11H88.18l-.25-1.55a3.55,3.55,0,0,1-2.84,1.55,3.39,3.39,0,0,1-2.49-1q-2-2-2-7,0-5.34,2.15-7.48a4,4,0,0,1,2.84-1.29,3.48,3.48,0,0,1,2.57,1,5.78,5.78,0,0,1,1.47,4.29H87.84A4.53,4.53,0,0,0,87,9.36Z"/><path class="cls-2" d="M101,15.46q0,5.41-1.89,7.3a3.84,3.84,0,0,1-2.84,1.12,3.93,3.93,0,0,1-2.92-1.12q-1.89-1.89-1.89-7.3t1.89-7.22a3.93,3.93,0,0,1,2.92-1.12A3.84,3.84,0,0,1,99.1,8.24Q101,10.13,101,15.46Zm-7.56,0c0,3.26.37,5.27,1.11,6a2.38,2.38,0,0,0,1.72.78,2.32,2.32,0,0,0,1.64-.78c.74-.74,1.11-2.75,1.11-6s-.37-5.19-1.11-5.93a2.32,2.32,0,0,0-1.64-.78,2.38,2.38,0,0,0-1.72.78Q93.43,10.64,93.43,15.46Z"/><path class="cls-2" d="M112,15.46q0,5.41-1.89,7.3a3.84,3.84,0,0,1-2.84,1.12,3.93,3.93,0,0,1-2.92-1.12q-1.89-1.89-1.89-7.3t1.89-7.22a3.93,3.93,0,0,1,2.92-1.12,3.84,3.84,0,0,1,2.84,1.12Q112,10.13,112,15.46Zm-7.56,0c0,3.26.37,5.27,1.11,6a2.38,2.38,0,0,0,1.72.78,2.32,2.32,0,0,0,1.64-.78c.74-.74,1.11-2.75,1.11-6s-.37-5.19-1.11-5.93a2.32,2.32,0,0,0-1.64-.78,2.38,2.38,0,0,0-1.72.78Q104.43,10.64,104.43,15.46Z"/><path class="cls-2" d="M120.93,8.67q2,2,2,6.87t-1.8,6.62a5.93,5.93,0,0,1-4.38,1.72h-2.93V7.12h2.93A5.7,5.7,0,0,1,120.93,8.67Zm-4.21,13.58A3.78,3.78,0,0,0,119.47,21c.86-.86,1.28-2.69,1.28-5.5s-.45-4.75-1.37-5.67a3.66,3.66,0,0,0-2.66-1.12h-1v13.5Z"/><path class="cls-2" d="M131.4,16a3.56,3.56,0,0,1,2,3.27,4.65,4.65,0,0,1-1.29,3.44,4.53,4.53,0,0,1-3.35,1.2,4.27,4.27,0,0,1-3.18-1.12,4.43,4.43,0,0,1-1.38-3.26v-.86h2v.77a2.79,2.79,0,0,0,.69,2.06,2.31,2.31,0,0,0,1.72.69,2.8,2.8,0,0,0,2.06-.69,2.68,2.68,0,0,0,.77-2,2.37,2.37,0,0,0-1.2-2.07,42.11,42.11,0,0,1-4-2.92,3.88,3.88,0,0,1-1.46-3A3.91,3.91,0,0,1,126,8.32a4.07,4.07,0,0,1,2.83-1.2,4,4,0,0,1,2.93,1,4.68,4.68,0,0,1,1.2,3.61h-2a2.63,2.63,0,0,0-.69-2.32,2.08,2.08,0,0,0-2.92,0,2.51,2.51,0,0,0-.77,1.81,2.87,2.87,0,0,0,1.2,2.14A22.88,22.88,0,0,0,131.4,16Z"/></g></g></svg>