<svg id="GOODS" xmlns="http://www.w3.org/2000/svg" viewBox="0 0 163 18"><defs><style>.cls-1{fill:none;opacity:0.15;}.cls-2,.cls-3{fill:red;}.cls-3{fill-rule:evenodd;}</style></defs><title>アートボード 341</title><rect class="cls-1" width="163" height="18"/><polygon class="cls-2" points="1 14.5 1 3.95 9.82 9.22 1 14.5"/><polygon class="cls-2" points="162 14.5 162 3.95 153.18 9.23 162 14.5"/><path class="cls-3" d="M24.79,2.46v-1H16.63v1c-.06,0,0,0-.06,0h-1v13a5,5,0,0,1,1,0h8.27v0h1v-.9a3.76,3.76,0,0,1-1-.05v-1H18.64V9.5h5.17l-.06-2a4.34,4.34,0,0,1-1,0H18.64V4.42h6.15a3.29,3.29,0,0,1,.05-1h1v-.9A3.76,3.76,0,0,1,24.79,2.46Z"/><path class="cls-3" d="M38.22,1.5h-.93v1H36.2v1h-1l0,4h-1c0,1.34,0,2.68,0,4H32.07c0-1.35,0-2.69,0-4H31l-.05-3H30V2.46H28.92v-1H28v1h0v0H27v.9h1c0,1,0,2,0,3h1c0,1,0,2,.05,3h1l.06,4h1v2.06l4.08,0c0-1,0-2,.05-3h1l.05-4h1l.06-3h1c0-1,0-2,.05-3A4.16,4.16,0,0,1,38.22,1.5Z"/><path class="cls-3" d="M49.58,2.46v-1H41.42v1h-.05v0h-1v13a5,5,0,0,1,1,0h8.26v0h1v-.9a3.84,3.84,0,0,1-1-.05v-1H43.43V9.5H48.6v-2H43.43V4.42h6.15a3.64,3.64,0,0,1,.05-1h1v-.9A3.84,3.84,0,0,1,49.58,2.46Z"/><path class="cls-3" d="M63,1.5h-.93v1H61v9.11H60l-.05-3h-1c0-.67,0-1.35,0-2h-1c0-.67,0-1.34,0-2h-1V2.46H55.78v-1h-3a4.16,4.16,0,0,1-.05,1V15.54H54.8V5.43h1l.05,2h1V9.5h1c0,1,0,2,.05,3h1c0,.67,0,1.35,0,2h1v1h3.1V2.46A4.8,4.8,0,0,1,63,1.5Z"/><path class="cls-3" d="M75.41,1.5H66.22v1c-.06,0,0,0-.06,0h-1v.9a3.86,3.86,0,0,1,1,0v1h2.06a3.76,3.76,0,0,1,1,0v11l3,0V4.42h4.08c0-.65,0-1.31,0-2H75.41Z"/><path class="cls-3" d="M94,6.43c0-.65,0-1.31,0-2a4.16,4.16,0,0,1,0-1,3.47,3.47,0,0,1-1,0v-1l-2.06,0v-1h-3v1H85.79v1h-1v1h-1V6.53h-1l-.06,3a8.48,8.48,0,0,1,.06,2h1v2.06h1v1h1v1h2.12v1h2v-1l2.07,0v-1H93v1h1v-7H88.89v2H92v2.06H91v1c-.06,0,0,0-.05.05H90v1H88.84v-1l-2-.05v-1h-1V5.43h1a3.25,3.25,0,0,1,.06-1h1v-1H90v1a3.79,3.79,0,0,1,1,0v1h1V6.48Z"/><path class="cls-3" d="M108.47,4.52h-1V3.46h-1v-1h-2.12v-1h-3v1H99.22v1h-1V4.52h-1a4.8,4.8,0,0,1,0,1v7a4.8,4.8,0,0,1,0,1h1v1.06h1.09v1l2.06,0v1h3v-1l2.06,0v-1h1.09v-2h1v-7A4.16,4.16,0,0,1,108.47,4.52Zm-2,6h-1c0,1,0,2,0,3l-2,.05v1h-1.14v-1l-2-.05-.06-2h-1V6.43h1l.06-2,2,0v-1h1.14v1l2,0c0,1,0,2,0,3h1Z"/><path class="cls-3" d="M122,6.53V4.47h-1v-1h-1v-1h-2.12v-1h-3v1l-2.06,0v1h-.06v0h-1c0,.67,0,1.35,0,2h-1c0,1.41,0,2.82,0,4.23v1.76a4.07,4.07,0,0,1,0,1h1c0,.67,0,1.35,0,2a3.49,3.49,0,0,1,1,0v1l3.1,0v1h2v-1h2.12v-1h1v-1h1V11.47h1V6.53Zm-2.06,6h-1v1l-2,.05v1H115.7v-1a3.79,3.79,0,0,1-1-.05v-1h-1c0-1.42,0-2.85,0-4.27V6.48a5,5,0,0,0,0-1.05h1a3.62,3.62,0,0,1,0-1h1v-1h2.12v1h1v1h1Z"/><path class="cls-3" d="M136.42,5.48h-1c0-.66,0-1.31,0-2a3.41,3.41,0,0,1-1,0v-1l-4.13,0v-1h-4v1h-1.09V15.54h7.23a5,5,0,0,1,1,0v-1h1.09v-1h1V12.47h1a4,4,0,0,1,.06-1Zm-2.07,4.07h-1l-.05,3h-1v1a3.35,3.35,0,0,0-1,.05h-2.12a3.79,3.79,0,0,1-1-.05V4.42l4.24,0v1h1l.05,2h1Z"/><path class="cls-3" d="M147.78,10.56V9.5h-1v-1h-2.12v-1l-3,0a3,3,0,0,0-.05-1,9.25,9.25,0,0,1,.05-2.06h1v-1h2.12v1h1v1h2.07v-2h-1v-1h-2.12v-1h-3v1l-2.06,0v1h0v0h-1l-.05,3a4.16,4.16,0,0,1,.05,1h1V8.5h1.08v.95l3.1.05v1l2,0,.06,2a4.49,4.49,0,0,0-.06,1.06h-1v1h-2.17v-1a3.79,3.79,0,0,1-1-.05v-1a3.41,3.41,0,0,1-1-.05v-.95h-.93v.95h-1.09l.05,2a3.47,3.47,0,0,1,1,0v1l2.06,0v1h3v-1h2.12v-1h1V13.48h1V10.56Z"/></svg>