<svg xmlns="http://www.w3.org/2000/svg" viewBox="0 0 62 13"><defs><style>.cls-1{fill:none;opacity:0.12;}.cls-2{fill-rule:evenodd;}</style></defs><title>アートボード 80</title><g id="comon"><g id="見出し"><rect class="cls-1" width="62" height="13"/><rect x="10.41" y="5.98" width="2.3" height="1.58"/><path class="cls-2" d="M8,3.57h.75a2.92,2.92,0,0,1,0-.8h.76V2h1.66v.75a2.86,2.86,0,0,1,.79,0v.76h.75V4.4l1.55,0c0-.52,0-1,0-1.55a3.5,3.5,0,0,1,0-.75,2.84,2.84,0,0,1-.79,0V1.27L12,1.23V.48H10.28V1.94H8V2H7.24v.79H6.45V4.44H5.7V8.32h.75V9.94h.26V8.76H8Z"/><polygon class="cls-2" points="18.33 8.36 18.33 8.35 16.74 8.35 16.74 8.36 17.7 8.36 18.33 8.36"/><path class="cls-2" d="M21.54,10.73h-.88v-.38H17.54v.38h.83v.76l2.37,0v.75h.72v-.75l2.37,0a2.92,2.92,0,0,1,0-.8h.75v-.34H21.54Z"/><path class="cls-2" d="M18.33,4.36h.75c0-.52,0-1,0-1.55h.79V2h1.68V.48H20v.75H18.33V2h-.79v.83h-.76a3.06,3.06,0,0,1,0,.76V6.36h1.59Z"/><path class="cls-2" d="M33.34.48H30.25v.75l-1.59,0V2h0v0h-.75c0,.53,0,1.06,0,1.59l0-1.13H31V2h1.66v.5h.84V1.23h-.12Z"/><path class="cls-2" d="M30.68,10h0a1.57,1.57,0,0,1-.51-.05V9.19h-.75l0-4.79c0,.59,0,1.19,0,1.78H27.05V8.36a3.5,3.5,0,0,1,0,.75h.75c0,.53,0,1.06,0,1.58a2.84,2.84,0,0,1,.79,0v.76l2.38,0h-.36Z"/><rect x="43.82" y="2.31" width="2.19" height="0.29"/><rect x="38.13" y="6.56" width="1.17" height="2.55"/><path class="cls-2" d="M48.46,5.14H50.3v-1H48.43V4.4a3,3,0,0,1,0,.75Z"/><path class="cls-2" d="M54,7.78c0,.46,0,.91,0,1.37A3.67,3.67,0,0,0,54,10H52.42v.75h-.87V10a2.86,2.86,0,0,1-.79,0V9.19a2.86,2.86,0,0,1-.79,0V8.4h-.71v.75h-.84c0,.51,0,1,0,1.54a2.92,2.92,0,0,1,.8,0v.76l2.37,0v.75h1.51v-.75h1.62v-.8h.79V9.9h.75V7.78Z"/><path class="cls-2" d="M12.78,9.19h-.07v1.64H8v.7H9.66v.75h1.5v-.75l1.58,0v-.76h.84v.8l1.54,0V8.76H12.78Z"/><path class="cls-2" d="M24.66,2.85V2h-.07V6.36h-.72V7.61h-.75v.74h2.35V3.61a3.06,3.06,0,0,1,0-.76Z"/><path class="cls-2" d="M27.08,3.83V5.42h2.32v-1a2.46,2.46,0,0,0,0-.57Z"/><polygon class="cls-2" points="35.75 3.83 34.17 3.83 34.17 6.18 36.5 6.18 36.5 4.44 35.75 4.44 35.75 3.83"/><rect x="39.3" y="2.6" width="1.17" height="3.96"/><path class="cls-2" d="M42.13,2.77l1.58,0v.76h.11v-1H42.13Z"/><path class="cls-2" d="M54.76,6V6H53.14V5.23l-1.59,0V5.14H50.3V6Z"/><path class="cls-2" d="M50.8,2.77h.75V2h1.63v.79H54v.64h1.58V2h-.79V1.83h-5.5a1.2,1.2,0,0,1,0,.23h-.76l0,1.39h2.3A2.46,2.46,0,0,1,50.8,2.77Z"/></g></g></svg>