<svg id="GOODS" xmlns="http://www.w3.org/2000/svg" viewBox="0 0 188 18"><defs><style>.cls-1{fill:none;opacity:0.15;}.cls-2,.cls-3{fill:#fff;}.cls-2{fill-rule:evenodd;}</style></defs><title>アートボード 338</title><rect class="cls-1" width="188" height="18"/><path class="cls-2" d="M28.43,5.53h-1c0-.67,0-1.35-.05-2a3.47,3.47,0,0,1-1,0v-1l-2.07,0v-1h-3v1H19.17v1h-1v1h-1V6.53h-1v4.94h1v2.06h1v1h1v1h2.12v1h2v-1l3.1,0a3.57,3.57,0,0,1,.05-1h1c0-.67,0-1.35.05-2h1l.05-5A8.44,8.44,0,0,1,28.43,5.53Zm-3.05,7h-1v1h0v.05h-1v1H22.23v-1l-2-.05v-1h-1v-7h1v-1h1v-1h2.12v1a3.86,3.86,0,0,1,1,0v1h1c0,1.69,0,3.39.05,5.08A9.31,9.31,0,0,0,25.38,12.57Z"/><path class="cls-2" d="M69.85,6.48l0-3a3.47,3.47,0,0,1-1,0v-1l-2.07,0v-1h-3v1H61.57v1h-1V4.52h-1c0,1,0,2-.05,3h-1v2.92h1c0,1,0,2,.05,3h1v1.06h1v1h2.12v1h3v-1l2.07,0a3.57,3.57,0,0,1,0-1h1l0-3H67.78v2l-2,.05v1H64.63v-1l-2-.05c0-.65,0-1.31,0-2h-1V6.43h1c0-.65,0-1.31,0-2l2,0v-1h1.13v1l2,0v2Z"/><path class="cls-2" d="M118.45,8.5h-4.13a5.12,5.12,0,0,1-1,.05c0,.65,0,1.31,0,2h3.1v2.06h-1v1h-.05v.05h-1v1h-1.14v-1l-2-.05v-1h-1v-7h1v-1h1v-1h2.12v1a3.79,3.79,0,0,1,1,0v1h1V6.48l2-.05c0-.65,0-1.31,0-2a4.8,4.8,0,0,1,0-1,3.41,3.41,0,0,1-1,0v-1l-2.07,0v-1h-3v1h-2.12v1h-1v1h-1V6.53h-1v4.94h1v2.06h1v1h1v1h2.12v1h2v-1l2.07,0v-1h1.09v1l2,0V9.55h-1Z"/><path class="cls-2" d="M132.93,5.48a4.16,4.16,0,0,1-.05-1h-1V3.46h-1.09v-1l-2.07,0v-1h-3v1l-2.06,0v1h-1.09V4.52h-1a4.8,4.8,0,0,1,0,1v7a4.8,4.8,0,0,1,0,1h1v1.06h1.09v1l2.06,0v1h3v-1l2.07,0v-1h1.09V13.48h1a4.16,4.16,0,0,1,.05-1Zm-2.07,6.09h-1l0,2-2,.05v1h-1.14v-1l-2-.05c0-.65,0-1.31,0-2h-1V6.43h1c0-.65,0-1.31,0-2l2,0v-1h1.14v1l2,0,0,2h1Z"/><path class="cls-2" d="M146.37,6.53V4.47h-1v-1h-1v-1h-2.12v-1h-2v1l-3.1,0v1h-.05v0h-1l-.06,2h-1l-.05,5a8.44,8.44,0,0,1,.05,2h1l.06,2a3.43,3.43,0,0,1,1,0v1l3.1,0v1h2v-1h2.12v-1h1v-1h1V11.47h1V6.53Zm-2.06,6h-1v1l-2,.05v1h-1.14v-1a3.86,3.86,0,0,1-1-.05v-1h-1c0-1.69,0-3.39,0-5.08a9.31,9.31,0,0,0,0-2.06h1a3.25,3.25,0,0,1,.06-1h1v-1h2.12v1h1v1h1Z"/><path class="cls-2" d="M173.21,10.56h-1V9.5h-1v-1h-2.12v-1l-3,0a3,3,0,0,0-.05-1A9.25,9.25,0,0,1,166,4.42h1v-1h2.12v1h1v1h2.07v-2h-1v-1h-2.12v-1h-3v1l-2.07,0,0,2h-1V7.44h1V8.5H165v.95l3.1.05v1l2,0c0,.67,0,1.34.05,2a5.13,5.13,0,0,0-.05,1.06h-1v1H167v-1a3.84,3.84,0,0,1-1-.05v-1a3.43,3.43,0,0,1-1-.05v-.95H164v.95h-1.09c0,.66,0,1.31.05,2a3.49,3.49,0,0,1,1,0v1l3.1,0v1h2v-1h2.12v-1h1V13.48h1l0-2A4.8,4.8,0,0,1,173.21,10.56Z"/><path class="cls-2" d="M30.6,2.51v13l2,0a5,5,0,0,1,1,0v-5a4.61,4.61,0,0,0,0-1h4.14a5,5,0,0,1,1-.05V7.54a4.34,4.34,0,0,1-1,0H33.6V5.43a3.62,3.62,0,0,1,0-1h6.16c0-.65,0-1.31,0-2H31.58A5,5,0,0,1,30.6,2.51Z"/><path class="cls-2" d="M51.23,2.46H43v0H42v13l3.05,0v-6H50.2c0-.65,0-1.31-.05-2a4.43,4.43,0,0,1-1,0H45V4.42h6.15a3.64,3.64,0,0,1,0-1h1v-.9A5.12,5.12,0,0,1,51.23,2.46Z"/><rect class="cls-3" x="54.34" y="2.46" width="2.07" height="13.09"/><path class="cls-2" d="M73,15.54l3,0v-13l-3,0Z"/><path class="cls-2" d="M89.44,13.58h-1c0-1,0-2,0-3h-1c0-1.34,0-2.68-.05-4h-1c0-1,0-2,0-3h-1v-1h-3.1v1h-1l-.06,3h-1c0,1.35,0,2.69,0,4h-1l0,3h-1l0,2h2.07v-1h1c0-.67,0-1.35,0-2h1v-1h3.2v1h1l.06,3,3,0Zm-4.08-4h-3.1V7.44h1c0-1,0-2,.05-3h1c0,1.33,0,2.65,0,4h1Z"/><path class="cls-2" d="M96.53,13.58a8,8,0,0,1-1.91-.05v-11l-3.06,0V15.54h9.31l-.05-2Z"/><path class="cls-2" d="M160.85,5.48a4.8,4.8,0,0,1,0-1,3.76,3.76,0,0,1-1,0v-1a3.49,3.49,0,0,1-1,0v-1a5,5,0,0,1-1,0h-8.27V15.54h7.24a5,5,0,0,1,1,0v-1l2.07,0c0-.67,0-1.35,0-2h1a4.7,4.7,0,0,1,0-1Zm-2.07,5.08h-1c0,.67,0,1.34-.05,2h-1v1a3.76,3.76,0,0,0-1.09.05h-2.12a3.79,3.79,0,0,1-1-.05V5.33a3.29,3.29,0,0,1,.05-.91l4.19,0v1h1c0,.67,0,1.34.05,2h1Z"/><polygon class="cls-3" points="1 14.1 1 3.55 9.83 8.82 1 14.1"/><polygon class="cls-3" points="187 14.1 187 3.55 178.17 8.82 187 14.1"/></svg>