<svg xmlns="http://www.w3.org/2000/svg" viewBox="0 0 62 13"><defs><style>.cls-1{fill:none;opacity:0.12;}.cls-2{fill-rule:evenodd;}</style></defs><title>アートボード 81</title><g id="comon"><g id="見出し"><rect class="cls-1" width="62" height="13"/><path class="cls-2" d="M9.48,4.05H8.65V4.4l1.55,0V4.09H9.48Z"/><path class="cls-2" d="M10.65,4.09v.36H9.9V8.29h2.24V7.82h.1V5.4h-.38v-1h.38V4.05h-.41v0Z"/><polygon class="cls-2" points="0.36 3.15 2.69 3.14 2.69 3.13 0.36 3.15 0.36 3.15"/><polygon class="cls-2" points="7.31 6.01 3.35 5.96 3.33 7.54 5.7 7.57 5.7 8.29 8.03 8.32 8.05 6.85 7.3 6.84 7.31 6.01"/><polygon class="cls-2" points="21.27 3.13 18.94 3.15 18.94 3.15 21.27 3.13 21.27 3.13"/><path class="cls-2" d="M18.2,3.63a3.64,3.64,0,0,1,0-.76h-.75V2h-.79V1.25H15V.49H12.7v.75H11.08V2h-.8v.83H9.53a3.58,3.58,0,0,1,0,.75v.45h.72v0h.45v0h1.18l0-1.24h.8V2H15v.79h.79l0,1.28H18.2Z"/><path class="cls-2" d="M12.15,8.28c0,.42,0,.84,0,1.26l1.57,0V9.15h.79l0-1.35-2.24,0v.46Z"/><path class="cls-2" d="M21.15,5.15h.75v.24h1.58v-1H21.14C21.14,4.63,21.14,4.89,21.15,5.15Z"/><rect x="12.24" y="4.37" width="1.2" height="1.02" transform="translate(-0.01 0.04) rotate(-0.17)"/><path class="cls-2" d="M17.75,8.41v-.6l-1.59,0V9.15a1.71,1.71,0,0,1,0,.36l2.32,0c0-.37,0-.74,0-1.11Z"/><path class="cls-2" d="M29.82,11.21l-5.46,0v.26l2.38,0v.75h.71v-.75l2.38-.06C29.83,11.39,29.82,11.3,29.82,11.21Z"/><path class="cls-2" d="M32.71,10a2.87,2.87,0,0,1-.79,0V9.19h-.75l0-1-2.37,0v.12a3.59,3.59,0,0,1,.05.76h.75l.06,1.58a3.35,3.35,0,0,1,.79,0v.76H32.8v.09h.05l0-1.63Z"/><path class="cls-2" d="M24,1.37H21.6V2h0v0h-.75c0,.11,0,.22,0,.33h3.09V2H24Z"/><path class="cls-2" d="M38.9,2v.26l2.33,0V2h-.79v-.8h-.83V.48H38.38v.77h1.47v.34H38.37V2Z"/><path class="cls-2" d="M28.94,4.79l-2.32,0V6.53l2.34,0C29,5.94,29,5.37,28.94,4.79Z"/><rect x="28.56" y="0.48" width="0.84" height="0.62" transform="translate(0 0.19) rotate(-0.37)"/><path class="cls-2" d="M49.37,8.73l2.33,0a1.18,1.18,0,0,1,0-.27l-2.35,0Z"/><path class="cls-2" d="M47.85,6.76h.6l0-3.11a3,3,0,0,1,0-.75,2.89,2.89,0,0,1-.8-.05V2.49l-3.88-.05v.31l1.59.06v.75h.75c0,.53,0,1.06,0,1.59h.75l0,1.46h1Z"/><polygon class="cls-2" points="46.85 7.47 48.44 7.49 48.44 7.42 46.85 7.44 46.85 7.47"/><rect x="39.64" y="2.47" width="2.34" height="4.98" transform="translate(-0.03 0.24) rotate(-0.34)"/><path class="cls-2" d="M38.37,1.24h-.91V.48L33.58.5v.75h-.83v.38l5.62,0V1.24Z"/><rect x="38.54" y="8.48" width="2.34" height="0.27" transform="matrix(1, -0.01, 0.01, 1, -0.05, 0.24)"/><path class="cls-2" d="M56.14,1.54l5.5-.09V1.19l-.84,0V.55L57.71.6v.65l-1.59.07C56.13,1.39,56.14,1.46,56.14,1.54Z"/><rect x="41.99" y="11.74" width="1.5" height="0.54"/><path class="cls-2" d="M55.88,2V1.49l-5.5,0a1.66,1.66,0,0,1-.05.57h-.75l0,2.34a3.5,3.5,0,0,1,0,.75h.76v.57h3.92v-.5l-1.59,0V4.45a2.84,2.84,0,0,1-.79,0,7.18,7.18,0,0,1,0-1.62h.75V2h1.62v.8h.79v.8h1.59V2Z"/><polygon class="cls-2" points="48.45 6.75 48.44 7.42 48.65 7.41 48.64 6.75 48.45 6.75"/><path class="cls-2" d="M43.13,6.68v.09l2.37,0v.66h1.33V6.63Z"/></g></g></svg>