<svg xmlns="http://www.w3.org/2000/svg" viewBox="0 0 214 31"><defs><style>.cls-1{fill:none;opacity:0.15;}.cls-2{fill:red;}</style></defs><title>アートボード 222</title><g id="comon"><g id="見出し"><rect class="cls-1" width="214" height="31"/><path class="cls-2" d="M81.49,10.43a.93.93,0,0,0,.05-.1h0A.42.42,0,0,0,81.49,10.43Z"/><path class="cls-2" d="M82.6,15.89a12,12,0,0,1,1.05-5.56H82.27v4.15h.38l0,.43h-2c0,.31,0,.6,0,.93h2Z"/><path class="cls-2" d="M80.62,15.84v0Z"/><path class="cls-2" d="M87.93,18a4.75,4.75,0,0,1-1,3.43,2.15,2.15,0,0,1-1.55.69A2,2,0,0,1,84,21.47c-.91-.91-1.37-2.78-1.37-5.58,0,.21,0,.4,0,.6h-2c0-.2,0-.39,0-.6q0,5,2,7a3.39,3.39,0,0,0,2.49,1,3.55,3.55,0,0,0,2.84-1.55l.25,1.55h1.47V16.49H87.93Z"/><path class="cls-2" d="M87.71,7.69V8h.34A2.88,2.88,0,0,0,87.71,7.69Z"/><path class="cls-2" d="M88.61,8.62h0c.1.14.17.3.26.45h0a4.29,4.29,0,0,0-.73-1,3.78,3.78,0,0,1,.43.54Z"/><path class="cls-2" d="M81.53,10.33c0-.06.06-.11.09-.18a2.59,2.59,0,0,1,.14-.29A5.14,5.14,0,0,0,81.53,10.33Z"/><path class="cls-2" d="M81.78,9.8,82,9.49A.41.41,0,0,0,82,9.4C81.93,9.53,81.85,9.66,81.78,9.8Z"/><path class="cls-2" d="M82.22,9.07l-.08.13.06-.08,0,0Z"/><path class="cls-2" d="M87.71,8H83.3a5.5,5.5,0,0,0-.53.45c-.08.08-.14.19-.22.27h5.16Z"/><path class="cls-2" d="M88.91,9.07a2.12,2.12,0,0,1,.14.31h0A3.13,3.13,0,0,0,88.91,9.07Z"/><path class="cls-2" d="M89.08,9.44h0a6.14,6.14,0,0,1,.29.79A6.29,6.29,0,0,0,89.08,9.44Z"/><path class="cls-2" d="M101,16.49c0-.33,0-.67,0-1,0,.36,0,.7,0,1Z"/><path class="cls-2" d="M98.54,20.21s0,0,0,0h1.91a16,16,0,0,0,.5-3.68H99A15.47,15.47,0,0,1,98.54,20.21Z"/><path class="cls-2" d="M93.89,20.17a.08.08,0,0,0,0,0,15.47,15.47,0,0,1-.46-3.72h-2a16,16,0,0,0,.5,3.68Z"/><path class="cls-2" d="M91.47,16.49h0c0-.33,0-.67,0-1C91.45,15.82,91.46,16.16,91.47,16.49Z"/><path class="cls-2" d="M99.47,22.32c.08-.1.15-.22.23-.34l-.24.34Z"/><path class="cls-2" d="M95.78,22.62h3.44l-.12.14a3.13,3.13,0,0,0,.36-.44H95.78Z"/><path class="cls-2" d="M92.84,22.14a7,7,0,0,1-.86-2A7,7,0,0,0,92.84,22.14Z"/><path class="cls-2" d="M93.34,22.76a3.93,3.93,0,0,0,2.92,1.12c-.17,0-.32,0-.48,0V22.62H93.22Z"/><path class="cls-2" d="M95.14,9.07a2.23,2.23,0,0,1,1.12-.32,2.07,2.07,0,0,1,1,.32h2.41a4.49,4.49,0,0,0-.62-.83,3.84,3.84,0,0,0-2.84-1.12,3.93,3.93,0,0,0-2.92,1.12,4.52,4.52,0,0,0-.63.83Z"/><path class="cls-2" d="M99.73,9.07h0l.14.24C99.81,9.23,99.77,9.15,99.73,9.07Z"/><path class="cls-2" d="M91.8,11.53a8.11,8.11,0,0,1,.91-2.46A7.76,7.76,0,0,0,91.8,11.53Z"/><path class="cls-2" d="M104.1,13h.42c0-.26.06-.49.09-.72,0,.13,0,.24,0,.37h-1.94c-.05.41-.1.84-.12,1.3h1.6Z"/><path class="cls-2" d="M102.62,12.66h0a.11.11,0,0,1,0-.05A.09.09,0,0,0,102.62,12.66Z"/><path class="cls-2" d="M102.63,12.61c.06-.46.13-.88.22-1.28C102.76,11.73,102.69,12.15,102.63,12.61Z"/><path class="cls-2" d="M104.72,19.49a18,18,0,0,1-.23-2h-.39v-1h-1.62a17.76,17.76,0,0,0,.34,3h1.9Z"/><path class="cls-2" d="M102.81,19.48l.18.72a6.92,6.92,0,0,1-.17-.72Z"/><path class="cls-2" d="M104.1,14.68h-1.63c0,.26,0,.51,0,.78s0,.48,0,.72h1.63Z"/><path class="cls-2" d="M102.47,16.18v.31h0c0-.1,0-.21,0-.31Z"/><path class="cls-2" d="M102.47,14.68h0c0-.22,0-.45,0-.67C102.48,14.23,102.47,14.46,102.47,14.68Z"/><path class="cls-2" d="M103.39,9.67h0v0Z"/><path class="cls-2" d="M110,17.5a15.74,15.74,0,0,1-.24,2h1.91c0-.11,0-.22.07-.33V17.5Z"/><path class="cls-2" d="M108.9,21.47a2.32,2.32,0,0,1-1.64.78,2.38,2.38,0,0,1-1.72-.78,2,2,0,0,1-.38-.56h-1.93a5.12,5.12,0,0,0,1.11,1.85,3.93,3.93,0,0,0,2.92,1.12,3.84,3.84,0,0,0,2.84-1.12,5.13,5.13,0,0,0,1.12-1.85h-1.94A2,2,0,0,1,108.9,21.47Z"/><path class="cls-2" d="M103.21,20.91h0c-.07-.18-.13-.36-.19-.55C103.09,20.55,103.15,20.74,103.21,20.91Z"/><path class="cls-2" d="M103.41,9.67h0l-.08.18Z"/><path class="cls-2" d="M103.63,9.23a4.13,4.13,0,0,0-.22.42c.06-.14.14-.27.21-.4Z"/><path class="cls-2" d="M111.87,13a1.11,1.11,0,0,1,0-.19v.07s0,.08,0,.12Z"/><path class="cls-2" d="M110,14.68a1.7,1.7,0,0,0,0-.22c0,.32,0,.64,0,1s0,.48,0,.72h1.69v-1.5Z"/><path class="cls-2" d="M109.92,13c0,.32,0,.66.06,1V14h1.71V13Z"/><path class="cls-2" d="M111.94,14h-.25v.72H112C112,14.44,112,14.19,111.94,14Z"/><path class="cls-2" d="M103.84,8.88a4.18,4.18,0,0,1,.5-.64A4.18,4.18,0,0,0,103.84,8.88Z"/><path class="cls-2" d="M104.44,16.49c0-.33,0-.67,0-1,0,.25,0,.48,0,.72h-.34v.31Z"/><path class="cls-2" d="M119.85,20.53a2.94,2.94,0,0,1-.38.51,3.78,3.78,0,0,1-2.75,1.21h-1V20.91h-2v3h2.93a5.93,5.93,0,0,0,4.38-1.72,4.66,4.66,0,0,0,.85-1.25h-2.37A3.67,3.67,0,0,0,119.85,20.53Z"/><path class="cls-2" d="M122,20.91a.42.42,0,0,0,0-.1l0,.1Z"/><path class="cls-2" d="M122,20.81a6.75,6.75,0,0,0,.35-.9A6.75,6.75,0,0,1,122,20.81Z"/><path class="cls-2" d="M122.81,17.5h0c0,.34-.06.66-.11,1Q122.76,18,122.81,17.5Z"/><path class="cls-2" d="M122.88,16.18h0c0-.21,0-.41,0-.64C122.9,15.77,122.89,16,122.88,16.18Z"/><polygon class="cls-2" points="122.74 13.02 122.74 13.02 122.74 13.02 122.74 13.02"/><path class="cls-2" d="M122.65,12.48c0,.1,0,.21,0,.31l0,.17C122.71,12.8,122.68,12.64,122.65,12.48Z"/><path class="cls-2" d="M122.82,17.36v0a.45.45,0,0,0,0,.11A.61.61,0,0,0,122.82,17.36Z"/><path class="cls-2" d="M122.57,12s0,.07,0,.1v0S122.58,12.08,122.57,12Z"/><path class="cls-2" d="M122.88,14.68h0c0,.29,0,.56,0,.86C122.9,15.25,122.89,15,122.88,14.68Z"/><path class="cls-2" d="M122.76,13.19c0,.24,0,.51.07.77h0C122.82,13.69,122.79,13.44,122.76,13.19Z"/><path class="cls-2" d="M122.88,14.68c0-.24,0-.49,0-.72H120.7c0-.3-.06-.59-.09-.86a19.6,19.6,0,0,1,.14,2.44c0-.3,0-.58,0-.86Z"/><path class="cls-2" d="M120.74,16.18h0c0-.21,0-.42,0-.64C120.75,15.76,120.75,16,120.74,16.18Z"/><path class="cls-2" d="M122.74,13a.43.43,0,0,1,0,0v0Z"/><rect class="cls-2" x="113.79" y="13.96" width="1.98" height="0.72"/><path class="cls-2" d="M128.37,16.17c-.62-.44-1.23-.89-1.81-1.36h0C127.14,15.28,127.74,15.73,128.37,16.17Z"/><path class="cls-2" d="M132.67,17a3.92,3.92,0,0,0-.75-.71H128.6l1,.71Z"/><path class="cls-2" d="M132.71,17.1h-3l-.07-.05.56.38a2.37,2.37,0,0,1,1.2,2.07,3.1,3.1,0,0,1-.16,1h2a6.11,6.11,0,0,0,.14-1.24A3.52,3.52,0,0,0,132.71,17.1Z"/><path class="cls-2" d="M130.63,21.47a2.8,2.8,0,0,1-2.06.69,2.31,2.31,0,0,1-1.72-.69,2.24,2.24,0,0,1-.39-.56h-2a3.06,3.06,0,0,1-.13-.43h2a3.91,3.91,0,0,1-.14-1.07v-.77h-2v.86a4.43,4.43,0,0,0,1.38,3.26,3.23,3.23,0,0,1-.25-.29h6.95c-.06.06-.11.14-.17.21a4.08,4.08,0,0,0,1-1.77H131A2.44,2.44,0,0,1,130.63,21.47Z"/><path class="cls-2" d="M133.13,20.91l.06-.24a2.25,2.25,0,0,1-.08.24Z"/><path class="cls-2" d="M132.7,17.08v0h0Z"/><path class="cls-2" d="M125.79,14.14V14h-.15C125.69,14,125.73,14.08,125.79,14.14Z"/><rect class="cls-2" x="85.26" y="14.77" width="4.38" height="0.14"/><path class="cls-2" d="M84.66,9.07H82.24l0,0L82,9.49c-.12.21-.23.43-.34.66a1.42,1.42,0,0,0-.08.18h2.11a5,5,0,0,1,.84-1.15A1,1,0,0,1,84.66,9.07Z"/><path class="cls-2" d="M80.65,14.91h0a2.35,2.35,0,0,1,0-.27A2.28,2.28,0,0,0,80.65,14.91Z"/><path class="cls-2" d="M85.08,8.85a1.47,1.47,0,0,1,.53-.1A1.47,1.47,0,0,0,85.08,8.85Z"/><path class="cls-2" d="M87,9.36a2.42,2.42,0,0,1,.54,1h1.87a4.81,4.81,0,0,0-.31-.88l0-.07c0-.11-.12-.2-.17-.31H86.64A2.28,2.28,0,0,1,87,9.36Z"/><path class="cls-2" d="M82.55,8.68h0q-.17.2-.3.39h0Z"/><path class="cls-2" d="M93.52,13.06h-2c0,.46-.07.94-.09,1.45h2C93.45,14,93.48,13.51,93.52,13.06Z"/><path class="cls-2" d="M99,14.51h2c0-.51,0-1-.09-1.45h-2C99,13.51,99,14,99,14.51Z"/><path class="cls-2" d="M112,16.18h-.28V17.5h.21a15.12,15.12,0,0,1-.21,1.65v0a20.28,20.28,0,0,0,.3-3.72q0,1.09-.09,2C111.94,17.08,112,16.64,112,16.18Z"/><path class="cls-2" d="M112,14.68c0,.26,0,.51,0,.78,0-.27,0-.52,0-.78Z"/><path class="cls-2" d="M111.22,20.91s0-.09,0-.13a.69.69,0,0,0,0,.13Z"/><path class="cls-2" d="M109.27,20.91h0a4,4,0,0,0,.23-.62A4,4,0,0,1,109.27,20.91Z"/><path class="cls-2" d="M111.63,19.48h0l0,.15A.83.83,0,0,1,111.63,19.48Z"/><path class="cls-2" d="M104.44,14.68c0-.25,0-.49,0-.72h-.36v.72Z"/><path class="cls-2" d="M102.5,14v0Z"/><path class="cls-2" d="M111.94,14h0c0-.33,0-.64-.07-1h0C111.89,13.32,111.92,13.63,111.94,14Z"/><path class="cls-2" d="M110.64,8.92a6.63,6.63,0,0,1,.41.75h0C110.92,9.4,110.78,9.15,110.64,8.92Z"/><path class="cls-2" d="M111.85,12.89a10.59,10.59,0,0,0-.8-3.22h-2s-.07-.1-.11-.14.12.17.19.26h0a3.57,3.57,0,0,1,.25.48,2.37,2.37,0,0,1,.13.32,3.18,3.18,0,0,1,.1.33h0l.12.47.06.33h0l0,.15,0-.15c0,.29.1.6.13.94h1.81V13h.17A.49.49,0,0,0,111.85,12.89Z"/><path class="cls-2" d="M103.71,9.07h0l.12-.19C103.8,8.94,103.75,9,103.71,9.07Z"/><path class="cls-2" d="M103.71,9.07s0,.11-.08.16v0Z"/><path class="cls-2" d="M103.41,9.67h2a.56.56,0,0,1-.05.08c.06-.07.11-.16.16-.22a3.1,3.1,0,0,1,.6-.46h-2.42l-.08.14,0,0C103.54,9.38,103.48,9.53,103.41,9.67Z"/><path class="cls-2" d="M104.93,20.29a4,4,0,0,0,.23.62h0A4,4,0,0,1,104.93,20.29Z"/><path class="cls-2" d="M121.45,9.32a4.23,4.23,0,0,0-.52-.65A4.78,4.78,0,0,1,121.45,9.32Z"/><path class="cls-2" d="M121.6,9.54l-.15-.22Z"/><path class="cls-2" d="M122.74,13c0-.07,0-.15,0-.22s-.07-.44-.11-.65a10.4,10.4,0,0,0-.29-1.07l0,.09,0-.09c-.07-.22-.15-.44-.24-.65h0l0-.07h0a7.18,7.18,0,0,0-.34-.68l-.09-.13a.83.83,0,0,0,.07.13h-2.53l.24.2a3.5,3.5,0,0,1,.78,1.32h0a8.77,8.77,0,0,1,.41,1.71h0a.3.3,0,0,0,0,.1.3.3,0,0,1,0-.1l0,.19a.28.28,0,0,1,0-.09Z"/><rect class="cls-2" x="113.79" y="9.67" width="1.98" height="3.34"/><path class="cls-2" d="M122.88,16.18h-2.14q0,.78-.09,1.44a.43.43,0,0,0,0-.12h2.13s0-.07,0-.11c0-.27,0-.57.05-.86,0,.12,0,.26,0,.38,0-.12,0-.26,0-.38s0-.23,0-.35h0v0Z"/><rect class="cls-2" x="113.79" y="16.18" width="1.98" height="1.33"/><path class="cls-2" d="M129.61,9V7.18a5,5,0,0,0-.79-.06h-.11V8.85h.11A2,2,0,0,1,129.61,9Z"/><path class="cls-2" d="M128.48,14l-.69-.57a2.87,2.87,0,0,1-1.2-2.14,2.48,2.48,0,0,1,.74-1.77V7.43a4.67,4.67,0,0,0-1.34.89c-.08.08-.13.16-.2.23V14Z"/><path class="cls-2" d="M125.61,14h0a3.72,3.72,0,0,1-.61-1A3.78,3.78,0,0,0,125.61,14Z"/><path class="cls-2" d="M128.6,16.33a1.88,1.88,0,0,1-.23-.16l.21.16Z"/><path class="cls-2" d="M131.4,16a4.3,4.3,0,0,1,.52.36h0A5.81,5.81,0,0,0,131.4,16Z"/><path class="cls-2" d="M126.56,14.81h3l.31.22c-.4-.28-.8-.57-1.2-.88v.53h-2.33Z"/></g></g></svg>