<svg xmlns="http://www.w3.org/2000/svg" viewBox="0 0 62 13"><defs><style>.cls-1{fill:none;opacity:0.12;}.cls-2{fill-rule:evenodd;}</style></defs><title>アートボード 79</title><g id="comon"><g id="見出し"><rect class="cls-1" width="62" height="13"/><path class="cls-2" d="M14.37,6h-4V7.57h2.37V9.19H12v.75l0,0-3.17,0V9.15H8V3.57h.75a2.92,2.92,0,0,1,0-.8h.76V2h1.66v.75a2.86,2.86,0,0,1,.79,0v.76h.75V4.4l1.55,0,0-1.55a3.5,3.5,0,0,1,0-.75,2.84,2.84,0,0,1-.79,0V1.27L12,1.23V.48H8.86v.75H8V2H7.24v.79H6.45V4.44H5.7V8.32h.75V9.94h.79v.79H8v.8H9.66v.75h1.5v-.75l1.58,0v-.76h.84v.8l1.54,0V6.81h-.75Z"/><path class="cls-2" d="M25.42,2.85h-.76V2h-.79V1.23H22.25V.48H20v.75H18.33V2h-.79v.83h-.76a3.06,3.06,0,0,1,0,.76V9.15a3,3,0,0,1,0,.75h.76v.83h.83v.76l2.37,0v.75h.72v-.75l2.37,0a2.92,2.92,0,0,1,0-.8h.75c0-.51,0-1,0-1.54h.8V3.61A3.06,3.06,0,0,1,25.42,2.85ZM23.87,7.61h-.75c0,.77,0,1.55,0,2.33l-1.54,0v.75h-.88V10l-1.54,0c0-.51,0-1,0-1.54h-.75v-4h.75c0-.52,0-1,0-1.55h.79V2h2.38v.79h.79c0,.78,0,1.56,0,2.34h.75Z"/><path class="cls-2" d="M35.75,4.44V2.81H35V2h-.79V1.23h-.83V.48H30.25v.75l-1.59,0V2h0v0h-.75c0,.53,0,1.06,0,1.59h-.75c0,1.1,0,2.21,0,3.32V8.36a3.5,3.5,0,0,1,0,.75h.75c0,.53,0,1.06,0,1.58a2.84,2.84,0,0,1,.79,0v.76l2.38,0v.75h1.5v-.75h1.63v-.8H35V9.94h.79V8.32h.75V4.44ZM34.17,9.15h-.79v.79a2.53,2.53,0,0,0-.8,0H31a2.84,2.84,0,0,1-.79,0V9.19h-.75l0-4.79a4.35,4.35,0,0,0,0-.83h.75a2.92,2.92,0,0,1,0-.8H31V2h1.66v.75h.76v.84h.79Z"/><path class="cls-2" d="M46.8,2.85a2.52,2.52,0,0,1-.79,0V2.06a2.84,2.84,0,0,1-.79,0V1.27l-2.38,0V.48H39v.75h-.83v10.3h5.54a3,3,0,0,1,.75,0v-.76h.84V9.94h.79V9.11h.75a3.5,3.5,0,0,1,0-.75V3.61A3.64,3.64,0,0,1,46.8,2.85ZM45.26,7.61H44.5c0,.51,0,1,0,1.54h-.79v.79a2.49,2.49,0,0,0-.79,0H41.26a2.94,2.94,0,0,1-.8,0V2h1.67v.75l1.58,0v.76h.75c0,.52,0,1.05,0,1.58h.76Z"/><path class="cls-2" d="M55.55,7.61V6.77h-.79V6H53.14V5.23l-1.59,0V4.44a2.86,2.86,0,0,1-.79,0,7.87,7.87,0,0,1,0-1.63h.75V2h1.63v.79H54v.8h1.58V2h-.79V1.23h-.83V.48H50.84v.75l-1.58,0a2.86,2.86,0,0,1,0,.79h-.76c0,.78,0,1.56,0,2.34a3,3,0,0,1,0,.75h.76V6h.83v.75l2.37,0v.76l1.55,0,0,1.58A3.67,3.67,0,0,0,54,10H52.42v.75h-.87V10a2.86,2.86,0,0,1-.79,0V9.19a2.86,2.86,0,0,1-.79,0V8.4h-.71v.75h-.84c0,.51,0,1,0,1.54a2.92,2.92,0,0,1,.8,0v.76l2.37,0v.75h1.51v-.75h1.62v-.8h.79V9.9h.75V7.61Z"/></g></g></svg>