<svg xmlns="http://www.w3.org/2000/svg" viewBox="0 0 214 31"><defs><style>.cls-1{fill:none;opacity:0.15;}.cls-2{fill:red;}</style></defs><title>アートボード 223</title><g id="comon"><g id="見出し"><rect class="cls-1" width="214" height="31"/><rect class="cls-2" x="78.22" y="14.77" width="4.38" height="0.74" transform="matrix(1, -0.01, 0.01, 1, -0.14, 0.77)"/><path class="cls-2" d="M80.24,8.61a5.34,5.34,0,0,0-.41-.53,3.53,3.53,0,0,0-2.58-1A4,4,0,0,0,74.41,8.4c-.06.06-.11.13-.16.19Z"/><path class="cls-2" d="M84.85,12.36l1.81,0a7.25,7.25,0,0,0-.5-2.86l-2,0A4.83,4.83,0,0,1,84.85,12.36Z"/><path class="cls-2" d="M75.42,13.75A8,8,0,0,1,77,9.52H74.68a10.42,10.42,0,0,0-1.25,4.22Z"/><path class="cls-2" d="M76.78,15.52c0-.31,0-.62,0-.91l-2,0c0,.3,0,.61,0,.91Z"/><path class="cls-2" d="M92.11,17.42c-.11,2.11-.45,3.46-1,4a2.32,2.32,0,0,1-1.63.78,2.4,2.4,0,0,1-1.72-.76c-.59-.58-.94-1.93-1.09-4h-2c.21,2.53.82,4.31,1.84,5.31a4,4,0,0,0,2.93,1.1,3.8,3.8,0,0,0,2.83-1.13c1-1,1.59-2.81,1.78-5.34Z"/><path class="cls-2" d="M94.79,13.19a11,11,0,0,1,.43-2.63l-1.91,0a12.52,12.52,0,0,0-.47,2.63Z"/><path class="cls-2" d="M88.91,13.2l2,0a12.67,12.67,0,0,0-.52-2.61l-1.92,0A10.46,10.46,0,0,1,88.91,13.2Z"/><path class="cls-2" d="M112.45,14.49v-.27h-2v.27Z"/><path class="cls-2" d="M112.46,9.53a2.35,2.35,0,0,1,1.71-.78,2,2,0,0,1,1.21.4v-1l-4.09,0,0,0c-1,1-1.55,2.64-1.76,5h2C111.58,11.31,111.91,10.08,112.46,9.53Z"/><path class="cls-2" d="M110.74,23.71h-2.4a4.75,4.75,0,0,0,1.23.16A4.35,4.35,0,0,0,110.74,23.71Z"/><path class="cls-2" d="M101.09,7.38V7.32a4.19,4.19,0,0,0-1.2-.19,4.58,4.58,0,0,0-1.47.21Z"/><path class="cls-2" d="M114.35,9.23v1.31a11.51,11.51,0,0,1,.46,2.93l2,0a10.44,10.44,0,0,0-1-4.25Z"/><path class="cls-2" d="M103.64,8.33v.91H105a4.26,4.26,0,0,0-.66-.91Z"/><path class="cls-2" d="M102.34,14.39c0,.25,0,.53,0,.8h2c0-.28,0-.55,0-.81Z"/><path class="cls-2" d="M107.52,19.48a4,4,0,0,1-.86,2,2.81,2.81,0,0,1-.44.35l0,1.87a3.64,3.64,0,0,0,1.65-.91,6.39,6.39,0,0,0,1.58-3.26Z"/><rect class="cls-2" x="104.97" y="18.41" width="3.38" height="1.98" transform="translate(85.72 125.76) rotate(-89.17)"/><rect class="cls-2" x="118.83" y="10.36" width="1.02" height="1.98" transform="translate(107.03 130.6) rotate(-89.54)"/><path class="cls-2" d="M109.8,7.12h-2.92v3.44h2V8.75h1a3.62,3.62,0,0,1,2.66,1.12,3.49,3.49,0,0,1,.5.7h2.25a5.62,5.62,0,0,0-1.2-1.9A5.71,5.71,0,0,0,109.8,7.12Z"/><path class="cls-2" d="M130.13,10.86a6,6,0,0,1,.37,1l2.15,0c-.09-.36-.2-.7-.31-1Z"/><path class="cls-2" d="M117.18,17.71A5.58,5.58,0,0,1,116,21.06l0,0h2.46a9.49,9.49,0,0,0,.89-3.39Z"/><path class="cls-2" d="M133.57,22.47c.09.11.17.23.27.33A4.27,4.27,0,0,0,137,23.88a4.49,4.49,0,0,0,3.34-1.23c.08-.08.13-.17.2-.25Z"/><path class="cls-2" d="M129,17.43a2.75,2.75,0,0,1,.78.78l2.26,0A3.64,3.64,0,0,0,130.2,16l-.66-.41-3.2-.05C127.19,16.19,128.06,16.83,129,17.43Z"/></g></g></svg>