<svg xmlns="http://www.w3.org/2000/svg" viewBox="0 0 214 31"><defs><style>.cls-1{opacity:0.45;}.cls-2{fill:red;}.cls-3{opacity:0.35;}.cls-4{fill:#fff;}.cls-5{fill:none;opacity:0.15;}</style></defs><title>アートボード 220</title><g id="comon"><g id="見出し"><rect x="8.02" y="2.61" width="198.43" height="26.17"/><g class="cls-1"><path class="cls-2" d="M42,29H35.21L34.35,27A24.41,24.41,0,0,1,24,29a26.21,26.21,0,0,1-9.73-1.63c-5.29-2.13-8-5.94-8-11.32,0-5.73,2.9-9.81,8.62-12.11A29.45,29.45,0,0,1,26,2,27.8,27.8,0,0,1,36,3.46c4,1.61,6,4.05,6,7.26v.78H33.72l-.06-.7a4.31,4.31,0,0,0-2.78-3.94A13.17,13.17,0,0,0,26,6,10.74,10.74,0,0,0,22,6.6c-4.49,1.81-6.67,4.91-6.67,9.49,0,4,1.54,6.51,4.72,7.79a13.25,13.25,0,0,0,4.92,1,15.06,15.06,0,0,0,5.57-1C32.86,23,34,21.47,34,19.36V17.65H23.89v-4H42Zm-5.79-1.56h4.24V15.16h-15v.94H35.53v3.26c0,2.78-1.48,4.78-4.39,5.95A16.27,16.27,0,0,1,25,26.42a14.52,14.52,0,0,1-5.5-1.11c-3.78-1.51-5.69-4.62-5.69-9.22,0-5.21,2.57-8.89,7.64-10.93A12.35,12.35,0,0,1,26,4.45a14.86,14.86,0,0,1,5.5,1h0A5.67,5.67,0,0,1,35.1,10h5.33c-.3-2.17-2-3.83-5-5A26.28,26.28,0,0,0,26,3.52a28,28,0,0,0-10.45,1.9C10.36,7.49,7.86,11,7.86,16.09c0,4.76,2.29,8,7,9.88A24.58,24.58,0,0,0,24,27.48,22.55,22.55,0,0,0,34.4,25.22l.75-.39Z"/><path class="cls-2" d="M66.33,29A31.13,31.13,0,0,1,55,27.28c-5.07-2-7.65-6-7.65-11.85S49.9,5.76,55,3.72A31.13,31.13,0,0,1,66.33,2a30.13,30.13,0,0,1,11,1.76c5.07,2,7.65,6,7.65,11.71s-2.58,9.81-7.65,11.85A30.05,30.05,0,0,1,66.33,29Zm0-25.52A29.58,29.58,0,0,0,55.55,5.16C51.06,7,48.87,10.33,48.87,15.43s2.19,8.6,6.68,10.41a29.55,29.55,0,0,0,10.78,1.64,28.45,28.45,0,0,0,10.45-1.64c4.49-1.81,6.68-5.21,6.68-10.41S81.27,7,76.78,5.16A28.52,28.52,0,0,0,66.33,3.52Zm0,23a18.13,18.13,0,0,1-6.8-1.24c-3.13-1.25-4.72-4.58-4.72-9.88s1.59-8.49,4.72-9.74a18.13,18.13,0,0,1,6.8-1.24A17.2,17.2,0,0,1,72.8,5.69c3.13,1.26,4.72,4.54,4.72,9.74s-1.59,8.63-4.72,9.88A17.2,17.2,0,0,1,66.33,26.55ZM66.33,6a16.68,16.68,0,0,0-6.22,1.12c-2.52,1-3.75,3.74-3.75,8.31s1.26,7.45,3.75,8.45A16.68,16.68,0,0,0,66.33,25a15.78,15.78,0,0,0,5.89-1.12C74.71,22.88,76,20,76,15.43s-1.26-7.31-3.75-8.31A15.78,15.78,0,0,0,66.33,6Z"/><path class="cls-2" d="M108,29a31.13,31.13,0,0,1-11.36-1.76c-5.08-2-7.65-6-7.65-11.85s2.57-9.67,7.65-11.71A31.13,31.13,0,0,1,108,2a30.13,30.13,0,0,1,11,1.76c5.07,2,7.64,6,7.64,11.71S124.1,25.24,119,27.28A30.09,30.09,0,0,1,108,29Zm0-25.52A29.55,29.55,0,0,0,97.22,5.16c-4.5,1.81-6.68,5.17-6.68,10.27s2.18,8.6,6.68,10.41A29.55,29.55,0,0,0,108,27.48a28.52,28.52,0,0,0,10.45-1.64c4.49-1.81,6.67-5.21,6.67-10.41S122.94,7,118.45,5.16A28.52,28.52,0,0,0,108,3.52Zm0,23a18.09,18.09,0,0,1-6.8-1.24c-3.13-1.25-4.72-4.58-4.72-9.88s1.59-8.49,4.72-9.74A18.09,18.09,0,0,1,108,4.45a17.28,17.28,0,0,1,6.47,1.24c3.13,1.26,4.72,4.54,4.72,9.74s-1.59,8.63-4.72,9.88A17.28,17.28,0,0,1,108,26.55ZM108,6a16.77,16.77,0,0,0-6.23,1.12c-2.52,1-3.74,3.74-3.74,8.31s1.26,7.45,3.74,8.45A16.77,16.77,0,0,0,108,25a15.78,15.78,0,0,0,5.89-1.12c2.49-1,3.75-3.84,3.75-8.45s-1.26-7.31-3.75-8.31A15.78,15.78,0,0,0,108,6Z"/><path class="cls-2" d="M143.8,29H132V2H143.8c6.8,0,12.26.82,16.24,2.42h0c5.29,2.12,8,5.89,8,11.19s-2.47,8.84-7.33,10.79C156.28,28.14,150.6,29,143.8,29Zm-10.29-1.56H143.8c6.6,0,12.09-.86,16.31-2.56s6.35-4.78,6.35-9.35-2.29-7.86-7-9.75c-3.79-1.53-9.06-2.3-15.66-2.3H133.51Zm10.29-.93h-4.35V4.45h4.35a27.8,27.8,0,0,1,10.38,1.76c3.78,1.52,5.7,4.67,5.7,9.36s-1.81,7.66-5.37,9.09A28.73,28.73,0,0,1,143.8,26.55ZM141,25h2.8a27.08,27.08,0,0,0,10.13-1.78c3-1.19,4.4-3.69,4.4-7.65s-1.55-6.64-4.73-7.92A26.37,26.37,0,0,0,143.8,6H141Z"/><path class="cls-2" d="M189.34,29c-5.29,0-9.44-.6-12.34-1.76-3.77-1.52-5.69-3.43-5.69-5.69V19.5h9v1.95c0,.68.22,1.66,2.12,2.43a17,17,0,0,0,6.22,1,21.67,21.67,0,0,0,7.52-1c1.62-.66,2.44-1.43,2.44-2.29s-1.41-1.73-4-2.39c-5.41-1.4-10.58-2.9-15.35-4.47-3.77-1.23-5.81-3-6.06-5.23s1.55-4.21,5.38-5.65a31.22,31.22,0,0,1,11-1.89c4.85,0,8.68.55,11.36,1.63,3.59,1.45,5.29,3.56,5,6.29l-.06.7h-9.23l.29-1c.12-.42.45-1.55-2.15-2.6a16.42,16.42,0,0,0-10.49,0c-1.58.64-2.44,1.36-2.44,2,0,.27.29,1.25,4,2.54a133.4,133.4,0,0,0,13.59,3.9c5.45,1.24,8.09,3.12,8.09,5.73s-1.81,4.52-5.37,6C199.21,28.4,194.84,29,189.34,29Zm-16.48-8v.54c0,1.56,1.59,3,4.72,4.25,2.72,1.09,6.67,1.64,11.76,1.64,5.3,0,9.47-.59,12.4-1.77s4.4-2.67,4.4-4.52c0-2.19-3.74-3.5-6.88-4.21h0a135.1,135.1,0,0,1-13.75-4c-3.47-1.2-5.09-2.47-5.09-4s1.12-2.54,3.42-3.47a18,18,0,0,1,11.65,0c2.47,1,3.18,2.32,3.2,3.48h5.83c-.17-1.65-1.51-3-4.08-4s-6.12-1.51-10.78-1.51A29.61,29.61,0,0,0,179.19,5.3c-3.08,1.16-4.55,2.51-4.38,4s1.86,2.9,5,3.93c4.74,1.56,9.87,3,15.26,4.43,3.45.9,5.13,2.17,5.13,3.9,0,1.56-1.14,2.81-3.41,3.72a22.4,22.4,0,0,1-8.1,1.11,18.15,18.15,0,0,1-6.8-1.11c-2.56-1-3.09-2.66-3.09-3.86v-.4Z"/></g><g class="cls-3"><path class="cls-4" d="M27,11.81a37.58,37.58,0,0,0-5.5-.36,31.58,31.58,0,0,0-4.47.26q-7.56,1.14-7.56,4c0,1.69,1.84,2.8,5.5,3.35a36.38,36.38,0,0,0,5.5.42,41.36,41.36,0,0,0,6.19-.42c2.74-.41,4.12-1.1,4.12-2.06V16H20.09v-1H37.61v5.47H31.77l-1-.93a60.51,60.51,0,0,1-11.34.93,68.81,68.81,0,0,1-10-.62q-7.9-1.18-7.9-4.18,0-3.19,8.59-4.48a76.14,76.14,0,0,1,11.34-.78A72.79,72.79,0,0,1,31.77,11q5.83.87,5.84,2.58H30.39C30.16,12.72,29,12.12,27,11.81Z"/><path class="cls-4" d="M83,15.47c0,2.17-2.53,3.63-7.56,4.39a79.85,79.85,0,0,1-11.34.67,82.74,82.74,0,0,1-11.68-.67c-5-.76-7.56-2.22-7.56-4.39s2.51-3.57,7.56-4.33a82.74,82.74,0,0,1,11.68-.67,79.85,79.85,0,0,1,11.34.67C80.44,11.9,83,13.34,83,15.47Zm-30.24,0c0,2,1.49,3.17,4.47,3.61a46.35,46.35,0,0,0,6.87.47,43.9,43.9,0,0,0,6.53-.47c3-.44,4.46-1.65,4.46-3.61s-1.49-3.11-4.46-3.55a43.9,43.9,0,0,0-6.53-.47,46.35,46.35,0,0,0-6.87.47C54.22,12.36,52.73,13.55,52.73,15.47Z"/><path class="cls-4" d="M127,15.47q0,3.26-7.56,4.39a79.85,79.85,0,0,1-11.34.67,82.74,82.74,0,0,1-11.68-.67q-7.56-1.14-7.56-4.39t7.56-4.33a82.74,82.74,0,0,1,11.68-.67,79.85,79.85,0,0,1,11.34.67Q127,12.28,127,15.47Zm-30.24,0c0,2,1.49,3.17,4.47,3.61a46.35,46.35,0,0,0,6.87.47,43.9,43.9,0,0,0,6.53-.47c3-.44,4.47-1.65,4.47-3.61s-1.5-3.11-4.47-3.55a43.9,43.9,0,0,0-6.53-.47,46.35,46.35,0,0,0-6.87.47C98.2,12.36,96.71,13.55,96.71,15.47Z"/><path class="cls-4" d="M162.68,11.4q7.9,1.18,7.91,4.13t-7.22,4a123,123,0,0,1-17.52,1H134.16V10.47h11.69A119,119,0,0,1,162.68,11.4Zm-16.83,8.15a74.92,74.92,0,0,0,11-.72Q162,18,162,15.53c0-1.72-1.84-2.86-5.5-3.41a74,74,0,0,0-10.65-.67h-3.78v8.1Z"/><path class="cls-4" d="M204.57,15.78c5.26.45,7.9,1.1,7.9,2s-1.72,1.55-5.16,2.07a95.91,95.91,0,0,1-13.4.72,92.57,92.57,0,0,1-12.71-.67c-3.67-.55-5.5-1.21-5.5-2v-.52h7.91v.47c0,.55.91,1,2.74,1.23a46.9,46.9,0,0,0,6.88.42,59.29,59.29,0,0,0,8.24-.42c2.06-.31,3.1-.7,3.1-1.18S203,17,199.75,16.66c-5.72-.55-11.11-1.13-16.14-1.75q-5.51-.67-5.85-1.81t5.16-1.91a82.17,82.17,0,0,1,11.34-.72,84.3,84.3,0,0,1,11.68.62q5.16.78,4.81,2.17h-7.9c.45-.59-.46-1-2.75-1.4a47.55,47.55,0,0,0-11.68,0c-2.07.31-3.1.68-3.1,1.09s1.6.87,4.81,1.29Q197.35,15.17,204.57,15.78Z"/></g><rect class="cls-5" width="214" height="31"/></g></g></svg>