<svg xmlns="http://www.w3.org/2000/svg" viewBox="0 0 50 50"><defs><style>.cls-1{fill-rule:evenodd;}.cls-2{fill:none;opacity:0.12;}</style></defs><title>アートボード 225</title><g id="comon"><g id="nav_footer" data-name="nav&amp;footer"><path class="cls-1" d="M25.12,11.57H22.66v.81h-.9v1.75H21l0,3.4H20.1c0,1.13,0,2.27,0,3.4h-.85c0-.85,0-1.7,0-2.55h-.81c0-1.13,0-2.27,0-3.4h-.81l0-2.55a2.86,2.86,0,0,1-.85,0v-.81H14.15a4.1,4.1,0,0,1,0,.81V23.44l1.66,0V15.74h.89l0,3.41h.81c0,1.13,0,2.26,0,3.4h.81v.89h2.55V20.85h.81l0-2.56h.81c0-1.13,0-2.26,0-3.4h.85v8.55h1.71V12.38A3.42,3.42,0,0,1,25.12,11.57Zm10.21,11v-.81H31.8a6.22,6.22,0,0,1-1.57,0v-3.4h3.44a3.42,3.42,0,0,1,.81-.05V16.68a4.1,4.1,0,0,1-.81,0H30.23V14.89a2.93,2.93,0,0,1,0-.85h5.06c0-.55,0-1.1,0-1.66a4.1,4.1,0,0,1,0-.81H28.61v.81h0v0h-.81v11a4.1,4.1,0,0,1,.81,0h6.8v0h.81v-.77A2.91,2.91,0,0,1,35.33,22.59Zm-12,4v-.81h-.76v.81H22.5v0h-.81v6.81H20.8V31.66H20l0-2.51H19.1c0-.56,0-1.13,0-1.7h-.81v-.89h-.89v-.81H14.89a4.1,4.1,0,0,1,0,.81V37.62h1.7V29.07h.85c0,.57,0,1.13,0,1.7h.81c0,.57,0,1.13,0,1.7h.81l0,1.7H20c0,.57,0,1.14,0,1.7h.81c0,.57,0,1.14,0,1.71l2.51,0a3.49,3.49,0,0,1,.81,0v-11A2.91,2.91,0,0,1,23.31,26.56Zm12.88,1,0-1.83H34.53a4.1,4.1,0,0,1,0,.81v8.55h-.81v.81s0,0,0,0H32v.81H31V36a3.3,3.3,0,0,1-.85,0v-.81h-.81V26.56a4.1,4.1,0,0,1,0-.81H27.72a3.46,3.46,0,0,1,0,.81v8c0,.71,0,1.42,0,2.12a3,3,0,0,1,.86.05v.81l2.55,0v.81h1.61v-.81h1.75v-.85h.85v-.9h.81a3.37,3.37,0,0,1,0-.8Z"/><polygon points="0 4.89 4.89 0 6.43 6.43 0 4.89"/><polygon points="45.11 50 50 45.11 43.57 43.57 45.11 50"/><polygon points="50 4.89 45.11 0 43.57 6.43 50 4.89"/><polygon points="4.89 50 0 45.11 6.43 43.57 4.89 50"/><rect class="cls-2" width="50" height="50"/></g></g></svg>