<svg xmlns="http://www.w3.org/2000/svg" viewBox="0 0 214 31"><defs><style>.cls-1{fill:none;opacity:0.15;}.cls-2{fill:red;}</style></defs><title>アートボード 171</title><g id="comon"><g id="見出し"><rect class="cls-1" width="214" height="31"/><path class="cls-2" d="M82.12,11.33V23.88H80.4V7.12h2.75L85,18h.17l1.8-10.92h2.75V23.88H88V11.33h-.17L85.73,23.88H84.36L82.29,11.33Z"/><path class="cls-2" d="M102.09,15.46q0,5.41-1.89,7.3a3.84,3.84,0,0,1-2.84,1.12,3.94,3.94,0,0,1-2.92-1.12q-1.89-1.89-1.89-7.3c0-3.56.63-6,1.89-7.22a3.94,3.94,0,0,1,2.92-1.12,3.84,3.84,0,0,1,2.84,1.12C101.46,9.5,102.09,11.9,102.09,15.46Zm-7.56,0c0,3.26.37,5.27,1.11,6a2.38,2.38,0,0,0,1.72.78A2.3,2.3,0,0,0,99,21.47c.74-.74,1.11-2.75,1.11-6S99.74,10.27,99,9.53a2.3,2.3,0,0,0-1.64-.78,2.38,2.38,0,0,0-1.72.78Q94.53,10.64,94.53,15.46Z"/><path class="cls-2" d="M105.27,7.12l2.92,12.72h.17l2.93-12.72h2l-4,16.76h-1.89l-4-16.76Z"/><path class="cls-2" d="M119.43,22h.94v1.89h-3.86V22h.94V9h-.94V7.12h3.86V9h-.94Z"/><path class="cls-2" d="M126.81,14.17h5.84V15.8h-5.84v6.45h6.79v1.63h-8.77V7.12h8.34V8.75h-6.36Z"/></g></g></svg>