<svg xmlns="http://www.w3.org/2000/svg" viewBox="0 0 64 13"><defs><style>.cls-1{fill:none;opacity:0.12;}.cls-2{fill-rule:evenodd;}</style></defs><title>アートボード 85</title><g id="comon"><g id="見出し"><rect class="cls-1" width="64" height="13"/><path class="cls-2" d="M18.91,1.23V.48H16.62v.75c-.05,0,0,0,0,0h-.76c0,1.06,0,2.11,0,3.17H15l0,3.17h-.75l0,1.58h-.79l0-4h-.75c0-1.06,0-2.11,0-3.17h-.76l0-1.58H8.7a3.54,3.54,0,0,1,0,.75v10.3h1.58v-8H11c0,.79,0,1.58,0,2.37h.75c0,1.06,0,2.11,0,3.17h.76v2.42H15v-.84h.75l0-3.16h.76c0-1.06,0-2.12,0-3.17h.83v7.13l1.54,0a3,3,0,0,1,.75,0V1.27A2.86,2.86,0,0,1,18.91,1.23Z"/><path class="cls-2" d="M30.79,3.65H30c0-.53,0-1.06,0-1.59a2.86,2.86,0,0,1-.79,0V1.27l-1.59,0V.48H24.54v.75H23.7V2h-.79v.79h-.79V4.44h-.75V8.32h.75V9.94h.79v.79h.79v.8h1.63v.75h1.5v-.75l2.38,0a2.92,2.92,0,0,1,0-.8H30c0-.52,0-1,0-1.58h.75l0-3.33V4.4A3.58,3.58,0,0,1,30.79,3.65ZM28.5,8.36a3.67,3.67,0,0,0,0,.83H27.7v.75h0v0l-3.16,0c0-.51,0-1,0-1.54H23.7V3.61h.8v-.8h.79V2h1.62v.75a2.84,2.84,0,0,1,.79,0v.76h.76c0,1.12,0,2.24,0,3.36Z"/><path class="cls-2" d="M40.3,1.23V.48h-.72v.75h-.83V3.65H38l0,3.16h-.75c0,.8,0,1.59,0,2.38h-.79c0-.53,0-1.06,0-1.58h-.76l0-3.17h-.75c0-1.06,0-2.11,0-3.17a2.86,2.86,0,0,1-.79,0V.48h-1.5l0,2.33a3.64,3.64,0,0,1,0,.76h.75c0,.79,0,1.58,0,2.37H34l0,2.38h.75l0,3.17,3.13,0V9.9h.75c0-.79,0-1.58,0-2.37h.75l0-3.17h.76c0-.79,0-1.59,0-2.38h.75V1.27A2.84,2.84,0,0,1,40.3,1.23Z"/><path class="cls-2" d="M45.05.48H43.54v.75s0,0,0,0h-.75V11.49l2.34,0V1.23A3.54,3.54,0,0,1,45.05.48Z"/><path class="cls-2" d="M55.34,2V1.27a2.86,2.86,0,0,1-.79,0V.48H48.3v.75s0,0,0,0H47.5V11.49a3.06,3.06,0,0,1,.76,0h6.33v0h.75V10h-5.5V6.77h4V5.19h-4V2.77h4.71a2.86,2.86,0,0,1,0-.79Z"/></g></g></svg>