<svg xmlns="http://www.w3.org/2000/svg" viewBox="0 0 214 31"><defs><style>.cls-1{fill:none;opacity:0.15;}.cls-2{fill:red;}</style></defs><title>アートボード 173</title><g id="comon"><g id="見出し"><rect class="cls-1" width="214" height="31"/><path class="cls-2" d="M96.06,16.43l0-.27h0a2.44,2.44,0,0,1,0,.27Z"/><polygon class="cls-2" points="90.6 16.44 91.6 16.43 90.6 16.44 90.6 16.44"/><polygon class="cls-2" points="92.05 16.43 92.16 16.43 92.2 16.16 91.59 16.16 92.05 16.16 92.05 16.43"/><polygon class="cls-2" points="78.05 9.28 81.16 9.33 81.19 7.14 78.44 7.1 78.05 9.28"/><polygon class="cls-2" points="70.72 10.15 70.69 15.13 72.41 15.14 72.43 11.33 72.61 11.33 73.21 15.15 74.77 15.16 73.97 10.17 70.72 10.15"/><polygon class="cls-2" points="73.33 7.12 73.33 9.3 76.44 9.3 76.08 7.12 73.33 7.12"/><polygon class="cls-2" points="92.05 16.43 92.05 16.43 91.6 16.43 92.05 16.43"/><polygon class="cls-2" points="90.6 16.44 90.64 16.17 91.59 16.16 90.33 16.17 90.33 16.44 90.6 16.44"/><polygon class="cls-2" points="82.55 10.17 81.75 15.15 83.31 15.15 83.92 11.33 84.09 11.33 84.11 15.14 85.83 15.13 85.8 10.15 82.55 10.17"/><path class="cls-2" d="M93.46,16.16v.27H94a2.35,2.35,0,0,0,0-.27Z"/><path class="cls-2" d="M96,16.16c0-.23,0-.45,0-.7,0-.67,0-1.29-.08-1.88H94c0,.58.05,1.2.05,1.89,0,.25,0,.47,0,.7h2Z"/><path class="cls-2" d="M94.11,22.76c1.15-1.14,1.77-3.25,1.88-6.33H94c-.07,2.69-.44,4.38-1.11,5a2.27,2.27,0,0,1-1.63.77,2.41,2.41,0,0,1-1.72-.77c-.74-.75-1.11-2.75-1.11-6,0-.69,0-1.31.06-1.88h-2c0,.59-.08,1.21-.08,1.89q0,5.41,1.88,7.3l0,0h5.67Z"/><polygon class="cls-2" points="94.78 16.17 94.46 16.17 94.5 16.44 94.78 16.44 95.18 16.44 95.18 16.17 94.78 16.17"/><path class="cls-2" d="M113.1,10.15l-2,0a4.41,4.41,0,0,1,.3.91l1.92,0C113.28,10.74,113.2,10.43,113.1,10.15Z"/><path class="cls-2" d="M95.14,10.12l-2,0a7.5,7.5,0,0,0-.26.91l1.91,0A5.07,5.07,0,0,1,95.14,10.12Z"/><path class="cls-2" d="M94.64,23.88a3.88,3.88,0,0,0,2.46-.82h-5A4.06,4.06,0,0,0,94.64,23.88Z"/><path class="cls-2" d="M88.54,11.86H86.61s0,0,0,.05h1.93Z"/><path class="cls-2" d="M102.51,11.87v0l1.93,0s0,0,0-.05Z"/><polygon class="cls-2" points="101.51 12.43 100.4 12.44 101.52 12.44 101.51 12.43"/><polygon class="cls-2" points="100.59 16.48 100.87 17.63 102.73 17.62 101.56 12.61 100.59 16.48"/><polygon class="cls-2" points="99.6 12.44 99.64 12.6 99.68 12.44 99.6 12.44"/><polygon class="cls-2" points="100.54 8.13 100.72 7.33 101.42 7.33 101.42 7.31 99.44 7.35 99.65 8.15 100.54 8.13"/><polygon class="cls-2" points="100.54 8.13 100.54 8.14 102.51 8.13 102.7 7.33 101.42 7.33 101.62 8.12 100.54 8.13"/><polygon class="cls-2" points="114.57 19.29 114.73 19.93 114.72 19.29 114.57 19.29"/><polygon class="cls-2" points="116.71 19.84 116.7 19.84 116.73 21.97 117.67 21.96 117.68 22.77 117.83 22.77 118.67 19.3 116.83 19.29 116.71 19.84"/><polygon class="cls-2" points="98.44 17.61 100.3 17.63 100.59 16.48 99.64 12.6 98.44 17.61"/><polygon class="cls-2" points="101.59 12.44 101.52 12.44 101.56 12.61 101.59 12.44"/><polygon class="cls-2" points="99.68 12.43 99.68 12.44 100.4 12.44 99.68 12.43"/><rect class="cls-2" x="112.06" y="12.74" width="0.81" height="1.98" transform="translate(97.45 126.04) rotate(-89.35)"/><rect class="cls-2" x="109.41" y="7.27" width="3.87" height="0.91" transform="translate(-0.09 1.36) rotate(-0.7)"/><polygon class="cls-2" points="116.54 19.84 116.7 19.84 116.69 18.42 114.71 18.44 114.72 19.29 116.41 19.29 116.54 19.84"/><polygon class="cls-2" points="114.73 19.93 114.75 22 113.81 22.01 113.82 23.65 117.69 23.6 117.68 22.77 115.4 22.77 114.73 19.93"/><polygon class="cls-2" points="128.47 8.98 129.42 8.99 129.37 12.4 131.34 12.43 131.4 9.03 132.34 9.04 132.34 8.77 128.48 8.73 128.47 8.98"/><polygon class="cls-2" points="124.7 19.32 122.73 19.3 122.68 23.83 131.44 23.92 131.46 22.29 124.67 22.22 124.7 19.32"/><polygon class="cls-2" points="126.12 9.99 128.1 10.01 128.11 8.73 128.48 8.73 128.49 8.15 132.35 8.21 132.34 8.77 134.47 8.79 134.48 7.16 126.15 7.08 126.12 9.99"/><rect class="cls-2" x="136.81" y="11.58" width="1.64" height="1.98" transform="translate(123.85 150.09) rotate(-89.5)"/><rect class="cls-2" x="135.49" y="14.2" width="7.82" height="0.91" transform="translate(-0.06 0.58) rotate(-0.24)"/></g></g></svg>