<svg xmlns="http://www.w3.org/2000/svg" viewBox="0 0 214 31"><defs><style>.cls-1{fill:none;opacity:0.15;}.cls-2{fill:red;}</style></defs><title>アートボード 172</title><g id="comon"><g id="見出し"><rect class="cls-1" width="214" height="31"/><rect class="cls-2" x="88.18" y="22.46" width="1.72" height="1.42"/><rect class="cls-2" x="88.18" y="13.45" width="1.3" height="3.98"/><polygon class="cls-2" points="88.18 17.86 88.18 21.01 89.9 21.01 89.9 17.43 89.47 17.43 89.47 17.86 88.18 17.86"/><rect class="cls-2" x="80.62" y="17.86" width="1.72" height="4.7"/><rect class="cls-2" x="80.62" y="13.45" width="1.72" height="3.98"/><polygon class="cls-2" points="84.41 13.45 82.86 13.45 82.83 13.29 83.51 17.43 85.07 17.43 84.41 13.45"/><polygon class="cls-2" points="85.37 17.86 85.34 18.04 85.17 18.04 85.14 17.86 83.58 17.86 83.56 17.76 84.57 23.88 84.34 22.46 84.95 22.46 84.95 21.01 86.42 21.01 86.18 22.46 84.95 22.46 84.95 23.88 85.94 23.88 86.95 17.76 86.94 17.86 85.37 17.86"/><polygon class="cls-2" points="86.1 13.45 85.44 17.43 87.01 17.43 87.69 13.29 87.66 13.45 86.1 13.45"/><path class="cls-2" d="M100.24,13.13l0,.32h1.84v-.16h-1.85C100.25,13.23,100.25,13.19,100.24,13.13Z"/><path class="cls-2" d="M94.66,22.76a3.93,3.93,0,0,0,2.92,1.12,3.81,3.81,0,0,0,2.83-1.12,2.43,2.43,0,0,0,.26-.3H94.4A2.43,2.43,0,0,0,94.66,22.76Z"/><path class="cls-2" d="M93.12,11.57h0c-.06.31-.12.62-.17.95C93,12.19,93.05,11.88,93.12,11.57Z"/><path class="cls-2" d="M93.37,10.58h0a.83.83,0,0,0,0-.15A.83.83,0,0,1,93.37,10.58Z"/><path class="cls-2" d="M92.85,13.45c0,.08,0,.17,0,.25,0-.08,0-.17,0-.25Z"/><path class="cls-2" d="M95.13,19.87a.24.24,0,0,0,0,.08,13.51,13.51,0,0,1-.35-2.52h-2A12.25,12.25,0,0,0,93.58,21h1.55Z"/><path class="cls-2" d="M101.49,21c.07-.16.12-.36.18-.55-.06.19-.12.38-.19.55Z"/><path class="cls-2" d="M99.53,21h0a4.16,4.16,0,0,0,.34-.86A4.16,4.16,0,0,1,99.53,21Z"/><path class="cls-2" d="M102.28,14.46h-2c0,.32,0,.65,0,1,0,.72,0,1.37-.06,2h2c0-.62.08-1.26.08-2C102.3,15.11,102.29,14.78,102.28,14.46Z"/><path class="cls-2" d="M97.58,8.75a2,2,0,0,1,1.12.37h2.37a6.73,6.73,0,0,1,.41.85h0l0,.08a.3.3,0,0,1,0-.08h-2a.05.05,0,0,0,0,0,5,5,0,0,1,.48,1.34h1.91s0,0,0-.07a.25.25,0,0,1,0,.07h0c0,.1,0,.21,0,.3h0q.09.43.15.9h0c0,.21.06.43.08.65h0c-.23-2.3-.82-3.93-1.79-4.89a3.81,3.81,0,0,0-2.83-1.12,4.11,4.11,0,0,0-2.41.7,4.4,4.4,0,0,1,.56-.31V9.12h.65A2.17,2.17,0,0,1,97.58,8.75Z"/><polygon class="cls-2" points="107.2 22.46 107.11 22.06 107.55 23.88 109.44 23.88 109.88 22.06 109.78 22.46 107.2 22.46"/><polygon class="cls-2" points="106.51 11.57 105.48 7.12 106.14 9.96 106.44 11.27 104.51 11.27 104.16 9.82 104.96 13.13 104.58 11.57 106.51 11.57"/><polygon class="cls-2" points="107.85 17.43 108.41 19.84 107.17 14.46 105.28 14.46 106.86 21.01 105.99 17.43 107.85 17.43"/><polygon class="cls-2" points="108.58 19.84 109.13 17.43 110.99 17.43 110.13 21.01 111.71 14.46 109.81 14.46 108.58 19.84"/><polygon class="cls-2" points="111.5 7.12 110.48 11.57 112.4 11.57 112.03 13.13 112.83 9.82 112.48 11.27 110.55 11.27 110.85 9.96 111.5 7.12"/><rect class="cls-2" x="119.56" y="22.46" width="1.02" height="1.42"/><rect class="cls-2" x="117.67" y="14.46" width="1.98" height="2.97"/><rect class="cls-2" x="116.72" y="22.06" width="2.84" height="0.4"/><rect class="cls-2" x="117.67" y="9.97" width="1.98" height="1.31"/><rect class="cls-2" x="131.83" y="7.12" width="1.56" height="1.21"/><polygon class="cls-2" points="125.05 17.89 127.02 17.89 127.02 15.8 127.81 15.8 127.81 14.46 125.05 14.46 125.05 17.89"/><rect class="cls-2" x="125.05" y="9.97" width="1.98" height="3.16"/><rect class="cls-2" x="88.18" y="11.57" width="1.3" height="1.71"/><rect class="cls-2" x="89.48" y="13.29" width="0.42" height="0.16"/><polygon class="cls-2" points="86.52 10.91 89.47 10.91 89.47 11.57 89.9 11.57 89.9 9.12 86.82 9.12 86.52 10.91"/><polygon class="cls-2" points="87.97 11.57 86.41 11.57 86.13 13.29 87.69 13.29 87.82 12.48 88.01 11.33 87.89 12.06 87.97 11.57"/><polygon class="cls-2" points="84.06 11.3 84.06 11.63 82.56 11.63 82.83 13.29 84.39 13.29 84.06 11.3"/><rect class="cls-2" x="80.62" y="11.63" width="1.72" height="1.65"/><polygon class="cls-2" points="83.7 9.12 82.67 9.12 82.67 7.12 80.62 7.12 80.62 10.91 83.99 10.91 83.7 9.12"/><path class="cls-2" d="M96.69,22.06a2.82,2.82,0,0,1-.83-.59,2.2,2.2,0,0,1-.34-.49l0,0h-.41v1Z"/><path class="cls-2" d="M102.11,13.29h.1a1,1,0,0,1,0-.16h-.08Z"/><path class="cls-2" d="M102.11,13.13v-.65h0c0-.32-.11-.6-.17-.9h-1.89a15.15,15.15,0,0,1,.19,1.56h1.87Z"/><path class="cls-2" d="M93.12,11.57H95a7.8,7.8,0,0,1,.24-.93h0v0a3.15,3.15,0,0,1,.46-.92,1,1,0,0,1,.13-.16,1,1,0,0,0-.13.16h0V9.12H94a6.76,6.76,0,0,0-.63,1.46c-.07.22-.13.46-.19.7h0l0,.15s0,0,0,.05h0A.44.44,0,0,0,93.12,11.57Z"/><path class="cls-2" d="M93.11,11.57h0s0-.06,0-.09A.29.29,0,0,1,93.11,11.57Z"/><path class="cls-2" d="M94.74,15.46c0,.72,0,1.37.06,2h0C94.76,16.83,94.74,16.18,94.74,15.46Z"/><path class="cls-2" d="M94.8,13.44v0a1,1,0,0,0,0-.17h-2a.92.92,0,0,1,0,.16h2Z"/><path class="cls-2" d="M92.85,17.43h0s0,0,0-.06Z"/><path class="cls-2" d="M102.22,17.43h0c0,.06,0,.11,0,.16S102.22,17.49,102.22,17.43Z"/><path class="cls-2" d="M100.08,19.18a15.63,15.63,0,0,0,.19-1.75h0A15.63,15.63,0,0,1,100.08,19.18Z"/><path class="cls-2" d="M99.21,21.47a2.88,2.88,0,0,1-.81.59H101a5.71,5.71,0,0,0,.52-1h-2A1.86,1.86,0,0,1,99.21,21.47Z"/><polygon class="cls-2" points="107.11 22.06 109.88 22.06 110.13 21.01 106.86 21.01 107.11 22.06"/><polygon class="cls-2" points="113 9.12 111.04 9.12 110.85 9.96 112.79 9.96 113 9.12"/><polygon class="cls-2" points="110.08 13.29 111.99 13.29 112.03 13.13 110.12 13.13 110.08 13.29"/><polygon class="cls-2" points="103.99 9.12 104.19 9.96 106.14 9.96 105.94 9.12 103.99 9.12"/><polygon class="cls-2" points="106.86 13.13 104.96 13.13 104.99 13.29 106.9 13.29 106.86 13.13"/><rect class="cls-2" x="117.67" y="13.13" width="1.98" height="0.16"/><polygon class="cls-2" points="119.56 7.12 116.72 7.12 116.72 9.01 117.67 9.01 117.67 9.12 119.64 9.12 119.64 9.01 120.59 9.01 120.59 8.33 119.56 8.33 119.56 7.12"/><polygon class="cls-2" points="119.64 17.89 119.56 17.89 119.56 22.06 120.59 22.06 120.59 21.99 119.64 21.99 119.64 17.89"/><rect class="cls-2" x="127.81" y="8.33" width="4.02" height="0.42"/><rect class="cls-2" x="127.81" y="14.17" width="5.06" height="0.29"/><rect class="cls-2" x="125.05" y="7.12" width="2.76" height="1.21"/></g></g></svg>