<svg xmlns="http://www.w3.org/2000/svg" viewBox="0 0 64 13"><defs><style>.cls-1{fill:none;opacity:0.12;}.cls-2{fill-rule:evenodd;}</style></defs><title>アートボード 87</title><g id="comon"><g id="見出し"><rect class="cls-1" width="64" height="13"/><path class="cls-2" d="M17.82,10.26H14.69v0h3.13Z"/><path class="cls-2" d="M18,9.19h-.79V8.54l-1.54,0v.56h.75v.35l3.15,0c0-.31,0-.61,0-.91L18,8.55Z"/><path class="cls-2" d="M19.29,5.13V4.32l-1.56,0c0,.27,0,.54,0,.81Z"/><rect x="0.43" y="8.21" width="0.91" height="1.58" transform="translate(-8.12 9.85) rotate(-89.76)"/><rect x="20.24" y="3.92" width="0.81" height="1.58" transform="translate(15.75 25.31) rotate(-89.49)"/><rect x="7.63" y="9.49" width="0.05" height="1.58" transform="translate(-2.75 17.78) rotate(-89.11)"/><path class="cls-2" d="M11.43,5.15V4.34l-3.92,0v.13H6.76v.68l1.54,0,0-.76h.83v.76Z"/><rect x="10.93" y="7.85" width="0.91" height="2.3" transform="translate(2.24 20.27) rotate(-89.26)"/><rect x="26.09" y="4.97" width="0.91" height="2.34" transform="translate(20.21 32.64) rotate(-89.56)"/><rect x="17.38" y="11.25" width="0.54" height="1.5" transform="translate(5.47 29.54) rotate(-89.44)"/><path class="cls-2" d="M32.65,6.57c0-.27,0-.54,0-.81v-.1l-2.35,0,0,.91Z"/><path class="cls-2" d="M29.4,7.61h.75c0,.52,0,1,0,1.58h.65v0H31c0-.61,0-1.22,0-1.83h.63V6.65l-2.33,0v.72h.07Z"/><path class="cls-2" d="M28.62,9.21H28.5V10h0v0l-3.16-.08,0-1.54h-.75l0-1.81-2.33,0,0,1.72h.75l0,1.62h.79v.8h.79v.1l5.52.06a.5.5,0,0,1,0-.13h.75v0H28.65Zm-1.29,1.11-2.3,0v-.05l2.3,0Z"/><path class="cls-2" d="M35.26,5.63l1.56,0V4.35h.75V3.88l-2.31,0Z"/><path class="cls-2" d="M31.59,9.16H31v0h-.15l-.06,1.52h1V9.9h.75l0-2.37h.76V7.32H31.64C31.62,7.94,31.61,8.55,31.59,9.16Z"/><path class="cls-2" d="M29.3,8.39l0-1.05H27.83c0,.33,0,.66,0,1h.76v.88h.63A4.25,4.25,0,0,1,29.3,8.39Z"/><path class="cls-2" d="M36.06,1.29a2.79,2.79,0,0,1-.79-.06V.48h-.71l0,.75h-.83v.26l2.34,0Z"/><path class="cls-2" d="M41.94,4.44V3.9H40.37c0,.57,0,1.15,0,1.72H42.7c0-.39,0-.78,0-1.18Z"/><path class="cls-2" d="M26.71,1.26a2.54,2.54,0,0,1-.79,0V.47H24.41c0,.34,0,.68,0,1l2.32,0Z"/><rect x="49.98" y="8.74" width="2.34" height="0.81" transform="translate(-0.1 0.57) rotate(-0.64)"/><rect x="44.77" y="1.97" width="0.91" height="2.34" transform="translate(41.6 48.32) rotate(-89.37)"/><polygon class="cls-2" points="53.25 5.21 55.03 5.24 55 6.83 53.24 6.8 53.23 7.82 55.57 7.83 55.6 3.6 53.27 3.58 53.25 5.21"/><polygon class="cls-2" points="51.07 5.17 51.11 2.83 48.77 2.79 48.69 7.98 51.02 8.02 51.04 6.76 53.24 6.8 53.25 5.21 51.07 5.17"/><path class="cls-2" d="M63.91,11.47V10l-5.5,0V9.71H56.06V11.5a3,3,0,0,1,.75,0l6.34,0v0Z"/></g></g></svg>