<svg xmlns="http://www.w3.org/2000/svg" viewBox="0 0 214 31"><defs><style>.cls-1{opacity:0.45;}.cls-2{fill:red;}.cls-3{opacity:0.35;}.cls-4{fill:#fff;}.cls-5{fill:none;opacity:0.15;}</style></defs><title>アートボード 134</title><g id="comon"><g id="見出し"><rect x="8.02" y="2.6" width="198.43" height="26.17"/><g class="cls-1"><path class="cls-2" d="M43,28.75H35.54V10.13L28.05,28.75h-5.8L14.76,10.13V28.75H7.35V2.23H18.44l6.71,16.58L31.86,2.23H43Zm-6.41-1H42V3.23H32.53L25.81,19.85H24.49L17.77,3.23H8.35V27.75h5.41V8.64h1.48l7.69,19.11h4.44L35.06,8.64h1.48Z"/><path class="cls-2" d="M71.08,28.75A29.88,29.88,0,0,1,60,27c-4.89-2-7.36-5.89-7.36-11.59S55.11,6,60,4A29.68,29.68,0,0,1,71.08,2.23,28.71,28.71,0,0,1,81.84,4c4.88,2,7.36,5.85,7.36,11.45S86.72,25,81.84,27A28.91,28.91,0,0,1,71.08,28.75Zm0-25.52A29,29,0,0,0,60.37,4.89c-4.53,1.85-6.73,5.3-6.73,10.53s2.2,8.81,6.73,10.67a29,29,0,0,0,10.71,1.66,28,28,0,0,0,10.38-1.66C86,24.23,88.2,20.75,88.2,15.42S86,6.75,81.46,4.89A28,28,0,0,0,71.08,3.23Zm0,23a17.47,17.47,0,0,1-6.6-1.21c-3-1.21-4.47-4.45-4.47-9.63s1.5-8.28,4.47-9.49a17.28,17.28,0,0,1,6.6-1.21,16.4,16.4,0,0,1,6.27,1.21c3,1.21,4.48,4.41,4.48,9.49s-1.51,8.41-4.48,9.63A16.59,16.59,0,0,1,71.08,26.26Zm0-20.54a16.29,16.29,0,0,0-6.22,1.14C62.3,7.9,61,10.78,61,15.42s1.29,7.66,3.85,8.7a16.29,16.29,0,0,0,6.22,1.14A15.41,15.41,0,0,0,77,24.12c2.56-1,3.86-4,3.86-8.7S79.53,7.9,77,6.86A15.41,15.41,0,0,0,71.08,5.72Z"/><path class="cls-2" d="M115.57,28.75H108L92.31,2.23h8.53l11,19.37L122.68,2.23h8.54Zm-7-1H115L129.47,3.23h-6.2L112.37,22.6h-1.22L100.26,3.23h-6.2Z"/><path class="cls-2" d="M157.35,28.75H141.94V24.87h3.52V6.11h-3.52V2.23h15.41V6.11h-3.52V24.87h3.52Zm-14.41-1h13.41V25.87h-3.52V5.11h3.52V3.23H142.94V5.11h3.52V25.87h-3.52Z"/><path class="cls-2" d="M206.65,28.75H173V2.23h32.08V5.72H181.34V13h21.79v3.49H181.34v8.81h25.31Zm-32.68-1h31.68V26.26H180.34V15.45h21.79V14H180.34V4.72h23.71V3.23H174Z"/></g><g class="cls-3"><path class="cls-4" d="M8.59,13v7.53H1.79V10.46H12.67L19.81,17h.68l7.14-6.55H38.51V20.52h-6.8V13H31l-8.16,7.53H17.43L9.27,13Z"/><path class="cls-4" d="M87.58,15.46c0,2.17-2.5,3.63-7.48,4.39a78.21,78.21,0,0,1-11.22.67,80.92,80.92,0,0,1-11.55-.67q-7.48-1.14-7.48-4.39t7.48-4.33a80.92,80.92,0,0,1,11.55-.67,78.21,78.21,0,0,1,11.22.67C85.08,11.89,87.58,13.33,87.58,15.46Zm-29.91,0c0,2,1.47,3.17,4.41,3.61a45.47,45.47,0,0,0,6.8.47,43,43,0,0,0,6.46-.47c2.94-.44,4.42-1.65,4.42-3.61s-1.48-3.11-4.42-3.55a43,43,0,0,0-6.46-.47,45.47,45.47,0,0,0-6.8.47C59.14,12.35,57.67,13.54,57.67,15.46Z"/><path class="cls-4" d="M100.16,10.46l11.55,7.63h.68L124,10.46h7.82l-16,10.06h-7.48l-16-10.06Z"/><path class="cls-4" d="M156.16,19.38h3.74v1.14H144.6V19.38h3.74V11.6H144.6V10.46h15.3V11.6h-3.74Z"/><path class="cls-4" d="M185.35,14.69h23.12v1H185.35v3.87h26.86v1H177.53V10.46h33v1H185.35Z"/></g><rect class="cls-5" width="214" height="31"/></g></g></svg>