<svg xmlns="http://www.w3.org/2000/svg" viewBox="0 0 64 13"><defs><style>.cls-1{fill:none;opacity:0.12;}.cls-2{fill-rule:evenodd;}</style></defs><title>アートボード 86</title><g id="comon"><g id="見出し"><rect class="cls-1" width="64" height="13"/><path class="cls-2" d="M14.24,8c0,.53,0,1.06,0,1.59h-.79c0-.36,0-.72,0-1.08H11.85v1h.76V11.9H15v-.83h.75c0-.86,0-1.72,0-2.58H14.23Z"/><path class="cls-2" d="M11,3.94c0,.79,0,1.59,0,2.38l0-2Z"/><path class="cls-2" d="M17.41,11.86l1.54,0a3.58,3.58,0,0,1,.75,0V8.49H17.41Z"/><path class="cls-2" d="M30,4c0-.53,0-1,0-1.58a2.86,2.86,0,0,1-.79,0V1.65l-1.59,0,1.11,0V6.24h2.1V4.77a3.5,3.5,0,0,1,0-.75Z"/><polygon class="cls-2" points="23.7 2.4 22.91 2.4 22.91 3.19 22.12 3.19 22.12 4.81 21.37 4.81 21.37 5.29 23.7 5.29 23.7 3.98 23.81 3.98 23.81 1.61 23.7 1.61 23.7 2.4"/><path class="cls-2" d="M34.79,4.81c0-1,0-2.11,0-3.16v.28h-.84V3.62h.86C34.78,4,34.79,4.42,34.79,4.81Z"/><path class="cls-2" d="M37.21,7.19c0,.79,0,1.58,0,2.38h-.79c0-.53,0-1.06,0-1.59h-.76V7.66H34c0-.45,0-.89,0-1.34,0,.79,0,1.58,0,2.37h.75c0,1.06,0,2.12,0,3.17v-.68H38v-.9h.75c0-.79,0-1.59,0-2.38h.75V7.66H37.2Z"/><path class="cls-2" d="M41,1.65v.28H38.75V3.62h1.56V4.73c0-.79,0-1.58,0-2.37h.75V1.65Z"/><path class="cls-2" d="M45,.85V2.93H42.75v8.93l2.34,0V7.26h-.82V4.62h.82v-3a3.64,3.64,0,0,1,0-.76Z"/><polygon class="cls-2" points="49.84 10.36 49.84 7.15 53.8 7.15 53.8 5.57 52.61 5.57 52.61 6.06 47.5 6.06 47.5 10.41 55.34 10.41 55.34 10.36 49.84 10.36"/><path class="cls-2" d="M54.55,3.15V2.83H52.61v.32Z"/><path class="cls-2" d="M12.6,4.66c0-.74,0-1.48,0-2.22,0,.62,0,1.24,0,1.87H11v.35Z"/><rect x="8.66" y="4.31" width="1.58" height="4.18"/><path class="cls-2" d="M16.92.85h-.25V4.31h-.88l0-2.66,0,3H19.7V2.31H16.92Z"/><path class="cls-2" d="M28.5,7.31V8.53h.23V6.24h-.25C28.49,6.6,28.49,7,28.5,7.31Z"/><rect x="21.37" y="6.24" width="2.34" height="2.29"/><path class="cls-2" d="M38,5.31v1h1.55l0-1H38Z"/><path class="cls-2" d="M33.92.85H32.46c0,.36,0,.72,0,1.08h1.48V.85Z"/><path class="cls-2" d="M35.55,5.31H33.92V3.62H32.46v.32h.75c0,.78,0,1.55,0,2.32h2.31Z"/><path class="cls-2" d="M52.61,1.06V.85H48.3v.76s0,0,0,0H47.5V2.83h5.11Z"/></g></g></svg>