<svg xmlns="http://www.w3.org/2000/svg" viewBox="0 0 214 31"><defs><style>.cls-1{opacity:0.45;}.cls-2{fill:red;}.cls-3{opacity:0.35;}.cls-4{fill:#fff;}.cls-5{fill:none;opacity:0.15;}</style></defs><title>アートボード 129</title><g id="comon"><g id="見出し"><rect x="7.97" y="2.61" width="198.43" height="26.17"/><g class="cls-1"><path class="cls-2" d="M48.2,29.59H36.69L17,9.57v20H7.1V1.41H18.6l19.73,20v-20H48.2Zm-11.09-1H47.2V2.41H39.33V22.76h-1.1l-20-20.35H8.1V28.59H16V8.24h1.09Z"/><path class="cls-2" d="M102.27,29.59H61.94V1.41h38.4V5.06H71.81v7.78H98v3.65H71.81v9.45h30.46Zm-39.33-1h38.33V26.94H70.81V15.49H97V13.84H70.81V4.06H99.34V2.41H62.94Z"/><path class="cls-2" d="M149.66,29.59h-8.44L134.28,9.24h-.06l-6.94,20.35h-8.43l-8.8-28.18h8.77l5.05,17.42,5.78-17.42h9.2l5.82,17.42,5-17.42h8.77Zm-7.73-1h7l8.17-26.18h-6.65l-5,17.42h-1.5L138.13,2.41h-7.76l-5.78,17.42h-1.51l-5-17.42h-6.66l8.17,26.18h7l6.94-20.35H135Z"/><path class="cls-2" d="M185.58,29.59c-6.2,0-11.06-.62-14.44-1.84-4.37-1.58-6.49-3.47-6.49-5.77V20.09h9.86v1.75c0,1.27.9,2.21,2.76,2.87a22.48,22.48,0,0,0,7.54,1.09,28.51,28.51,0,0,0,9.08-1.09C196,24,197,23,197,22s-1.73-2.1-5-2.86c-6.39-1.48-12.5-3.07-18.15-4.74-4.36-1.28-6.62-3-6.91-5.3s1.77-4.22,6.12-5.69a40.38,40.38,0,0,1,12.89-2c5.68,0,10.15.58,13.28,1.71,4.07,1.47,6,3.61,5.72,6.37l0,.45h-10l.21-.66c.15-.47.62-1.9-2.78-3.13a21.93,21.93,0,0,0-12.77,0c-1.43.51-3.14,1.36-3.14,2.45,0,.54.66,1.65,5.05,3,5.36,1.66,10.79,3.06,16.14,4.17,6.24,1.27,9.27,3.16,9.27,5.78s-2.06,4.58-6.11,6.05C197.15,28.92,192,29.59,185.58,29.59Zm-19.93-8.5V22c0,1.8,2,3.43,5.83,4.82,3.27,1.19,8,1.79,14.1,1.79,6.34,0,11.34-.65,14.87-1.92s5.45-3,5.45-5.11-2.93-3.67-8.47-4.8h0c-5.38-1.12-10.85-2.53-16.24-4.2-3.92-1.21-5.75-2.47-5.75-4s1.24-2.47,3.8-3.39a22.89,22.89,0,0,1,13.45,0c3,1.08,3.65,2.53,3.53,3.73H204c0-2.06-1.7-3.66-5.09-4.88-3-1.09-7.37-1.65-12.94-1.65A39.27,39.27,0,0,0,173.4,4.34C169.56,5.64,167.73,7.19,168,9s2.32,3.32,6.2,4.46c5.64,1.66,11.72,3.25,18.1,4.73,3.89.9,5.78,2.16,5.78,3.83s-1.27,2.76-3.8,3.67a29.43,29.43,0,0,1-9.42,1.15,23.47,23.47,0,0,1-7.88-1.15c-2.27-.81-3.42-2.1-3.42-3.81v-.75Z"/></g><g class="cls-3"><path class="cls-4" d="M43.72,11.73v7.54H32.2L10.8,13.62h-.41v5.65H.93V11.73H12.45l21.4,5.65h.41V11.73Z"/><path class="cls-4" d="M68.92,14.9h28v.74h-28v2.9h32.5v.73h-42V11.73H99.36v.73H68.92Z"/><path class="cls-4" d="M111,11.73h8.23l5.35,4.83h.82l6.17-4.83h9l6.18,4.83h.82L153,11.73h8.23l-9.05,7.54H143.9l-7.41-5.65h-.82l-7.41,5.65H120Z"/><path class="cls-4" d="M203.61,15.71c6.3.34,9.46.83,9.46,1.47s-2.06,1.16-6.17,1.55q-5.76.54-16.05.54-9.87,0-15.22-.5-6.58-.61-6.58-1.47v-.39h9.46v.35c0,.41,1.09.72,3.29.93s4.94.31,8.23.31c4.39,0,7.68-.11,9.87-.31,2.47-.23,3.71-.53,3.71-.89s-1.92-.7-5.76-.93q-10.29-.62-19.34-1.31-6.58-.51-7-1.36c-.27-.57,1.79-1,6.18-1.43q6.17-.54,13.57-.54,9.06,0,14,.46c4.12.39,6,.93,5.76,1.63h-9.46c.55-.44-.55-.79-3.29-1.05-1.92-.18-4.26-.27-7-.27s-5.07.09-7,.27c-2.47.24-3.7.51-3.7.82s1.91.65,5.76,1Q195,15.26,203.61,15.71Z"/></g><rect class="cls-5" width="214" height="31"/></g></g></svg>