<svg xmlns="http://www.w3.org/2000/svg" viewBox="0 0 50 13"><defs><style>.cls-1{fill:none;opacity:0.12;}.cls-2{fill-rule:evenodd;}</style></defs><title>アートボード 18</title><g id="comon"><g id="見出し"><rect class="cls-1" width="50" height="13"/><path class="cls-2" d="M13.23,2.6H13V1.35h-.23V.6H12a3.5,3.5,0,0,1,0,.75V8.52h-.79c0-.53,0-1.06,0-1.58h-.75V5.31h-.8V3.73H8.83c0-.78,0-1.56,0-2.34a4.36,4.36,0,0,1-.73,0V2.6H4.91V4.29H8.06v1.1l0,.67h.75c0,.53,0,1.06,0,1.59h.75V9.27h.8v1.59h.79v.79h2.37V6.93H13V4.29h.6V1.35h-.35Z"/><path class="cls-2" d="M16.79.6v.75H16v.5h7.11l0,1c0-.52,0-1,0-1.55a3.5,3.5,0,0,1,0-.75Z"/><path class="cls-2" d="M31.8,8.44c0,1.06,0,2.11,0,3.17l2.34,0a3.5,3.5,0,0,1,.75,0l0-3.88H31l0-4c0,1.58,0,3.17,0,4.75Z"/><path class="cls-2" d="M44.47,2.94c0-.52,0-1,0-1.55l-1.58,0V.6h-2.3v.75H39.48V6.1h.24v.8h1.62v.75l1.59,0v.18h2.33V7.69a2.42,2.42,0,0,1,0-.57h0V6.94a2.86,2.86,0,0,1-.79,0V6.14l-1.58,0V5.35l-2,0h-.38V4.56h-.75V2.94h.79v-.8h1.63V2.9a2.52,2.52,0,0,1,.79,0v.75l2.33,0V2.94Z"/><path class="cls-2" d="M44.12,10.8V8H42.93v.43h.75v1.62l-1.54,0v.76h-.88V10.1l-1.54,0V9.27h-.83V8.52h-.71v.75l0,0h-.76V10h.76v.84h.79v.79h1.62v.75h1.51v-.75l2.37,0h-.31Z"/><path class="cls-2" d="M4.91,6.93v4.68l1.55,0a3.5,3.5,0,0,1,.75,0V6H4.91Z"/><path class="cls-2" d="M16.73,4.52V2.87h6.32l0-1H16v9.73h.77V9.46H18.3V7.26H16.73Z"/><path class="cls-2" d="M34.18,6.94H32.59c0-1.32,0-2.64,0-4H28.67c0,.72,0,1.45,0,2.18h0c0-.73,0-1.46,0-2.18,0,1.58,0,3.16,0,4.75H27.8V6.94h-.75c0-.54,0-1.08,0-1.61h0V5.07c0-1.23,0-2.45,0-3.68L27,4.9c0-.64,0-1.28,0-1.93H24.7v.72h.75V6.9a3,3,0,0,1,0,.75h.76v3.21a3.5,3.5,0,0,1,0,.75l2.33,0a3.58,3.58,0,0,1,.75,0,3.5,3.5,0,0,1,0-.75V7.65h.13V5.33h.65c0-.55,0-1.09,0-1.64H31c0,.55,0,1.09,0,1.64h.49V7.16h4.21c0-1.16,0-2.31,0-3.47h.75V3H34.21Z"/></g></g></svg>