<svg xmlns="http://www.w3.org/2000/svg" viewBox="0 0 50 13"><defs><style>.cls-1{fill:none;opacity:0.12;}.cls-2{fill-rule:evenodd;}</style></defs><title>アートボード 19</title><g id="comon"><g id="見出し"><rect class="cls-1" width="50" height="13"/><path class="cls-2" d="M6.76.59v.75s0,0,0,0H6l0,1.75,3.91,0c0-.58,0-1.16,0-1.75a2.51,2.51,0,0,1-.79,0V.61Z"/><rect x="11.55" y="4" width="1.58" height="0.91" transform="translate(-0.02 0.04) rotate(-0.2)"/><path class="cls-2" d="M2.75,4.91V4.48h.84V4.9l1.58,0,0-.91L.44,4,.46,5Z"/><path class="cls-2" d="M11.8.6a3.64,3.64,0,0,1,0,.76V3.15h1.58V1.35h-.83V.6Z"/><polygon class="cls-2" points="12.33 3.55 12.34 2.91 13.34 2.92 13.35 2.54 10.01 2.49 9.99 3.51 12.33 3.55"/><path class="cls-2" d="M21.22,2.89c0-.51,0-1,0-1.54a3.58,3.58,0,0,1,0-.75H18.47V2.9Z"/><polygon class="cls-2" points="20.43 2.25 20.43 0.6 17.92 0.6 17.92 1.35 17.09 1.35 17.09 2.24 20.43 2.25"/><polygon class="cls-2" points="5.32 7.67 5.33 6.9 6.33 6.91 6.34 5.96 3 5.93 2.98 7.65 5.32 7.67"/><path class="cls-2" d="M14,10.12a3.06,3.06,0,0,1-1-.06V9.38H10.66v2.27H14Z"/><path class="cls-2" d="M28.46,8.61v.27l3.15,0V8.63Z"/><path class="cls-2" d="M18,7h-.75c0-1.44,0-2.88,0-4.32L15,2.59c0,.36,0,.72,0,1.07l.75,0-.05,3.2a3.25,3.25,0,0,1,0,.71l2.3,0Z"/><path class="cls-2" d="M22.48,7.61c0-1.3,0-2.61,0-3.91h.79c0,1.3,0,2.6.05,3.91l4.68,0,0-3.92h.75c0-.36,0-.71,0-1.07H26.49c0,1.44,0,2.88,0,4.32H24.89c0-1.32,0-2.64-.05-4h-.76V2.62H21.71V3H21c0,1.54,0,3.09,0,4.63Z"/><path class="cls-2" d="M16.31,1.38a2.54,2.54,0,0,1-.79,0V.6H14a3.62,3.62,0,0,1,0,.75v.4h2.33Z"/><rect x="26.97" y="7.17" width="0.27" height="3.17" transform="translate(18.24 35.82) rotate(-89.77)"/><path class="cls-2" d="M30.87.6c0,.38,0,.77,0,1.16h2.34c0-.39,0-.77,0-1.16Z"/><path class="cls-2" d="M41.79.59c0,.39,0,.77,0,1.16l1.57,0V1.36a3,3,0,0,1,0-.75Z"/><path class="cls-2" d="M43.48,5.68V6L45,6.08v.53l4.72.07V6.19l-1.58-.06V5.75Z"/><path class="cls-2" d="M40.73,10.78c0-1,0-2.09,0-3.13a2.92,2.92,0,0,1-.05-.75,2.89,2.89,0,0,1-.79,0V6.61l-4.72,0v.26h1.62v.75l1.58,0v.76h.75l0,1.62-1.55.06v.75h-.87V10.1l-1.54,0V9.29h-.83V8.54h-.71V9.3l0,0h-.75v.71h.75v.83h.79L40,10.84a.11.11,0,0,0,0-.05Z"/><rect x="46.49" y="11.34" width="0.62" height="1.5" transform="translate(33.91 58.68) rotate(-89.02)"/></g></g></svg>