<svg xmlns="http://www.w3.org/2000/svg" viewBox="0 0 214 31"><defs><style>.cls-1{fill:none;opacity:0.15;}.cls-2{fill:red;}</style></defs><title>アートボード 150</title><g id="comon"><g id="見出し"><rect class="cls-1" width="214" height="31"/><path class="cls-2" d="M93.78,7.12V23.88h-2.4L86.91,11.33h-.09V23.88h-2V7.12h2.4l4.47,12.55h.09V7.12Z"/><path class="cls-2" d="M99.05,14.17h5.84V15.8H99.05v6.45h6.78v1.63H97.07V7.12h8.33V8.75H99.05Z"/><path class="cls-2" d="M107.83,7.12h1.72l1.12,10.74h.17l1.29-10.74H114l1.29,10.74h.17L116.6,7.12h1.72l-1.89,16.76h-1.72l-1.55-12.55H113l-1.55,12.55h-1.72Z"/><path class="cls-2" d="M127.18,16a3.56,3.56,0,0,1,2,3.27,4.65,4.65,0,0,1-1.28,3.44,4.56,4.56,0,0,1-3.36,1.2,4.3,4.3,0,0,1-3.18-1.12A4.46,4.46,0,0,1,120,19.5v-.86h2v.77a2.78,2.78,0,0,0,.68,2.06,2.33,2.33,0,0,0,1.72.69,2.77,2.77,0,0,0,2.06-.69,2.64,2.64,0,0,0,.78-2,2.37,2.37,0,0,0-1.2-2.07,40.9,40.9,0,0,1-4-2.92,3.88,3.88,0,0,1-1.46-3,3.93,3.93,0,0,1,1.28-3.18,4.09,4.09,0,0,1,2.84-1.2,3.94,3.94,0,0,1,2.92,1,4.65,4.65,0,0,1,1.21,3.61h-2a2.69,2.69,0,0,0-.69-2.32,2.08,2.08,0,0,0-2.92,0,2.47,2.47,0,0,0-.77,1.81,2.87,2.87,0,0,0,1.2,2.14A22.43,22.43,0,0,0,127.18,16Z"/></g></g></svg>