<svg xmlns="http://www.w3.org/2000/svg" viewBox="0 0 214 31"><defs><style>.cls-1{fill:none;opacity:0.15;}.cls-2{fill:red;}</style></defs><title>アートボード 152</title><g id="comon"><g id="見出し"><rect class="cls-1" width="214" height="31"/><polygon class="cls-2" points="98.24 15.25 98.26 19.64 98.17 19.64 96.59 15.26 94.75 15.27 96.62 20.45 100.24 20.44 100.22 15.25 98.24 15.25"/><rect class="cls-2" x="84.18" y="13.03" width="0.86" height="1.98" transform="matrix(0.01, -1, 1, 0.01, 70.17, 98.55)"/><polygon class="cls-2" points="78.57 13.58 78.87 14.44 80.71 14.45 80.42 13.59 78.57 13.58"/><rect class="cls-2" x="92.23" y="13.03" width="0.86" height="1.98" transform="translate(77.97 106.57) rotate(-89.59)"/><rect class="cls-2" x="79.74" y="16.86" width="5.19" height="1.98" transform="translate(63.92 100.06) rotate(-89.61)"/><rect class="cls-2" x="102.32" y="13.07" width="1.98" height="0.91" transform="translate(-0.22 1.8) rotate(-1)"/><polygon class="cls-2" points="91.86 16.48 89.88 16.46 89.82 23.82 98.58 23.89 98.6 22.26 91.81 22.2 91.86 16.48"/><rect class="cls-2" x="102.54" y="14.78" width="7.82" height="0.05" transform="translate(-0.22 1.7) rotate(-0.91)"/><rect class="cls-2" x="100.88" y="8.24" width="0.81" height="1.98" transform="translate(90.45 110.36) rotate(-89.09)"/><polygon class="cls-2" points="107.53 8.14 107.62 7.38 106.48 7.38 107.44 7.39 107.53 8.14"/><polygon class="cls-2" points="106.37 11.31 106.33 11.62 105.47 11.62 105.47 11.62 106.58 11.62 106.54 11.31 106.37 11.31"/><polygon class="cls-2" points="114.92 22.82 114.42 22.82 114.92 22.83 114.92 22.82"/><polygon class="cls-2" points="113.64 22.83 112.96 22.84 113.06 23.64 114.41 23.63 113.72 23.62 113.64 22.83"/><polygon class="cls-2" points="105.9 7.38 106.48 7.38 105.49 7.38 104.97 11.62 105.47 11.62 105.9 7.38"/><polygon class="cls-2" points="106.58 11.62 106.58 11.62 107.94 11.62 107.53 8.14 107.14 11.62 106.58 11.62"/><polygon class="cls-2" points="114.83 23.63 114.41 23.63 115.49 23.65 115.6 22.84 114.92 22.83 114.83 23.63"/><polygon class="cls-2" points="113.64 22.81 113.64 22.83 114.42 22.82 113.64 22.81"/><polygon class="cls-2" points="100.37 12.48 100.48 13.39 102.14 13.38 102.05 12.47 100.37 12.48"/><polygon class="cls-2" points="113.95 11.61 113.48 7.38 111.77 7.39 112.27 11.62 113.95 11.61"/><polygon class="cls-2" points="107.75 13.39 109.11 13.39 109 12.48 107.64 12.47 107.75 13.39"/><polygon class="cls-2" points="118.44 12.48 118.33 13.39 119.69 13.38 119.77 12.66 119.77 12.47 118.44 12.48"/><polygon class="cls-2" points="106.67 12.48 105 12.47 104.89 13.38 106.56 13.39 106.67 12.48"/><path class="cls-2" d="M128.85,22.62l.06.07a4.28,4.28,0,0,0,3.16,1.17,4.51,4.51,0,0,0,3.36-1.15Z"/><path class="cls-2" d="M124.9,18.62v.86a4.37,4.37,0,0,0,.63,2.28H126V18.61Z"/><polygon class="cls-2" points="113.73 21.77 111.77 21.75 111.77 21.75 113.73 21.77 113.73 21.77"/><polygon class="cls-2" points="123.37 21.74 125.89 21.78 125.89 21.77 123.37 21.74 123.37 21.74"/><path class="cls-2" d="M123.24,7.11a4,4,0,0,0-2.81,1.25,4.1,4.1,0,0,0-.71.93V9.7l0,2.77h0l0,.19,0,.83a3.81,3.81,0,0,0,.92,1c.55.44,1.13.86,1.72,1.28l3.29-.05a24.68,24.68,0,0,1-3.4-2.37,2.91,2.91,0,0,1-1.24-2.13,2.51,2.51,0,0,1,.74-1.82,2.06,2.06,0,0,1,2.92,0,2.63,2.63,0,0,1,.73,2.31l2,0a4.6,4.6,0,0,0-1.27-3.59A3.9,3.9,0,0,0,123.24,7.11Z"/></g></g></svg>