<svg xmlns="http://www.w3.org/2000/svg" viewBox="0 0 50 13"><defs><style>.cls-1{fill:none;opacity:0.12;}.cls-2{fill-rule:evenodd;}</style></defs><title>アートボード 17</title><g id="comon"><g id="見出し"><rect class="cls-1" width="50" height="13"/><path class="cls-2" d="M12.75.6H12a3.5,3.5,0,0,1,0,.75V8.52h-.79c0-.53,0-1.06,0-1.58h-.75V5.31h-.8V3.73H8.83l0-2.34a2.86,2.86,0,0,1-.79,0V.6H5.7v.75l0,0H4.91V11.61l1.55,0a3.5,3.5,0,0,1,.75,0V4.48H8c0,.53,0,1.06,0,1.58h.75c0,.53,0,1.06,0,1.59h.75V9.27h.8v1.59h.79v.79h2.37V1.35h-.83Z"/><path class="cls-2" d="M23.05,2.9c0-.52,0-1,0-1.55a3.5,3.5,0,0,1,0-.75H16.79v.75H16v10.3h7.13c0-.52,0-1,0-1.55H19.76a5.82,5.82,0,0,1-1.46,0V6.9h3.2a3.06,3.06,0,0,1,.76,0V5.35a3.64,3.64,0,0,1-.76,0H18.3V2.9Z"/><path class="cls-2" d="M36.51.6H35c0,.53,0,1.06,0,1.58h-.75c0,1.59,0,3.17,0,4.76H32.59l0-4H31.8c0-.8,0-1.59,0-2.38h-2.3l0,2.38h-.75c0,1.58,0,3.16,0,4.75H27.8V6.94h-.75c0-1.85,0-3.7,0-5.55a2.84,2.84,0,0,1-.79,0V.6H24.71a3.5,3.5,0,0,1,0,.75c0,.78,0,1.56,0,2.34h.75V6.9a3,3,0,0,1,0,.75h.76v3.21a3.5,3.5,0,0,1,0,.75l2.33,0a3.58,3.58,0,0,1,.75,0,3.5,3.5,0,0,1,0-.75V7.65h.76c0-1.32,0-2.64,0-4H31c0,1.58,0,3.17,0,4.75h.75c0,1.06,0,2.11,0,3.17l2.34,0a3.5,3.5,0,0,1,.75,0c0-1.32,0-2.64,0-4h.75c0-1.32,0-2.64,0-4h.75l0-2.34A3.5,3.5,0,0,1,36.51.6Z"/><path class="cls-2" d="M45.26,3.73V2.94h-.79l0-1.55-1.58,0V.6h-2.3v.75H38.93v.79h-.79V5.31a3.58,3.58,0,0,1,0,.75l1.54,0v.8h1.62v.75l1.59,0v.75h.75v1.62l-1.54,0v.76h-.88V10.1l-1.54,0V9.27h-.83V8.52h-.71v.75l0,0h-.76V10h.76v.84h.79v.79h1.62v.75h1.51v-.75l2.37,0a2.84,2.84,0,0,1,0-.79h.75c0-1.05,0-2.09,0-3.13a3.58,3.58,0,0,1,0-.75,2.86,2.86,0,0,1-.79,0V6.14l-1.58,0V5.35l-2.38,0V4.56h-.75V2.94h.79v-.8h1.63V2.9a2.52,2.52,0,0,1,.79,0v.75Z"/></g></g></svg>