<svg xmlns="http://www.w3.org/2000/svg" viewBox="0 0 214 31"><defs><style>.cls-1{fill:none;opacity:0.15;}.cls-2{fill:red;}</style></defs><title>アートボード 153</title><g id="comon"><g id="見出し"><rect class="cls-1" width="214" height="31"/><path class="cls-2" d="M89.24,15.46q0,5.41-1.89,7.3a3.81,3.81,0,0,1-2.83,1.12,3.91,3.91,0,0,1-2.92-1.12q-1.91-1.89-1.9-7.3t1.9-7.22a3.91,3.91,0,0,1,2.92-1.12,3.81,3.81,0,0,1,2.83,1.12Q89.24,10.13,89.24,15.46Zm-7.56,0c0,3.26.37,5.27,1.12,6a2.37,2.37,0,0,0,1.72.78,2.3,2.3,0,0,0,1.63-.78c.74-.74,1.12-2.75,1.12-6s-.38-5.19-1.12-5.93a2.3,2.3,0,0,0-1.63-.78,2.37,2.37,0,0,0-1.72.78Q81.68,10.64,81.68,15.46Z"/><path class="cls-2" d="M100.78,7.12V23.88H98.37L93.9,11.33h-.08V23.88h-2V7.12h2.41l4.47,12.55h.08V7.12Z"/><path class="cls-2" d="M106.06,23.88H104l4.3-16.76H110l4.29,16.76h-2.06l-1.2-4.9h-3.78Zm3.18-12.2h-.17l-1.37,5.67h2.92Z"/><path class="cls-2" d="M119.78,22h1v1.89h-3.87V22h1V9h-1V7.12h3.87V9h-1Z"/><path class="cls-2" d="M132.75,8.5a4.31,4.31,0,0,1,1.12,3.18,4.38,4.38,0,0,1-1.12,3.09,3.89,3.89,0,0,1-1.55,1.12l3.1,8h-2.07l-2.92-7.74H126.9v7.74h-2V7.12h4.3A4.76,4.76,0,0,1,132.75,8.5Zm-1.55,5.24a2.8,2.8,0,0,0,.69-2.06,2.83,2.83,0,0,0-.77-2.07,3.16,3.16,0,0,0-2.32-.86h-1.9v5.76h2.5A2.48,2.48,0,0,0,131.2,13.74Z"/></g></g></svg>