<svg xmlns="http://www.w3.org/2000/svg" viewBox="0 0 59 13"><defs><style>.cls-1{fill:none;opacity:0.12;}.cls-2{fill-rule:evenodd;}</style></defs><title>アートボード 24</title><g id="comon"><g id="見出し"><rect class="cls-1" width="59" height="13"/><path class="cls-2" d="M14.09,6.79l0-2.64h2.33V4h-.75V3.43H13.3v.51h.76c0,1.12,0,2.25,0,3.37V8.73a3.72,3.72,0,0,0,0,.84H13.3v.75l0,0h-.75v.75h-.87v-.75l-1.2,0v1.39h4.37a1.91,1.91,0,0,1,0-.65h.75l0-1.58h.75c0-1.11,0-2.22,0-3.33v.63Z"/><path class="cls-2" d="M22.77,5.57l0-1.55H18.06v.35h4.69C22.75,4.77,22.76,5.17,22.77,5.57Z"/><path class="cls-2" d="M25.14,8.77h-.79c0-.52,0-1,0-1.58h-.75V6.36H22c0,.52,0,1,0,1.54h.75c0,.53,0,1.06,0,1.59h.75c0,.52,0,1,0,1.58h.75v.83h2.38V6.36H25.14Z"/><path class="cls-2" d="M19.37,11.51H18.06v.35l1.54,0a3.54,3.54,0,0,1,.75,0V6.36h-1Z"/><rect x="25.14" y="4.02" width="1.58" height="0.35"/><path class="cls-2" d="M34.65,4.81V4.57H33.08c0-.46,0-.92,0-1.38l0,3.13h.76v.87H31.48V5.53h.75l0-2.34c0,.46,0,.92,0,1.38H31V2.44h-.28c0,1.05,0,2.11,0,3.17h-.75c0,.79,0,1.58,0,2.37h-.76v1h2.31V8.73H33.9v.21h1.48V4.81Z"/><path class="cls-2" d="M30.69,9.49c0,.67,0,1.35,0,2h0C30.67,10.84,30.68,10.16,30.69,9.49Z"/><path class="cls-2" d="M29.11,9.81v0Z"/><rect x="40.23" y="2.35" width="0.75" height="3.81"/><polygon class="cls-2" points="40.23 10.84 40.98 10.84 40.98 8.79 40.23 8.79 40.23 9.3 40.23 10.84"/><rect x="44.98" y="0.85" width="3.09" height="0.35"/><path class="cls-2" d="M15.6,2.44l0,1h0Z"/><path class="cls-2" d="M10.1,10.32h0Z"/><path class="cls-2" d="M14.81,2.4V1.65l-1.59,0V.85H10.93v.76H9.3V2.4H8.51v.83H7.76c0,.53,0,1.06,0,1.58H7v2H9.3V4h.25V2.46h1.3V2.4h1.66v.06H15.6v0A2.86,2.86,0,0,1,14.81,2.4Z"/><rect x="9.3" y="11.72" width="1.14" height="0.19"/><path class="cls-2" d="M22.73,3.23V4h0Z"/><path class="cls-2" d="M29.11,9.7c0-.25,0-.51,0-.76h0Z"/><path class="cls-2" d="M28.35,10.36c0,.51,0,1,0,1.54l2.34,0v-.35H29.21V9.81h-.1v.55Z"/><path class="cls-2" d="M36.23,10.36l0-1.42h-.83v.87h-.73c0,.69,0,1.37,0,2l2.33,0c0-.51,0-1,0-1.54Z"/><rect x="32.31" y="0.85" width="0.71" height="0.51"/><polygon class="cls-2" points="40.23 0.85 40.23 1.61 39.4 1.61 39.4 2.35 40.23 2.35 40.23 0.85 40.23 0.85"/><polygon class="cls-2" points="39.4 8.79 40.23 8.79 40.23 6.57 40.23 6.15 39.4 6.15 39.4 8.79"/><path class="cls-2" d="M51.28,11.15l0-.71H49.7V11.9l2.33,0v-.71Z"/><path class="cls-2" d="M44.57,9.38V6.91h5.87a1.41,1.41,0,0,1,0,.2c0-.15,0-.33,0-.5h-6.3V11.9h1.59V10.44H44.57Z"/></g></g></svg>