<svg xmlns="http://www.w3.org/2000/svg" viewBox="0 0 570 430"><defs><style>.cls-1{fill:#fff;}.cls-2{fill:none;opacity:0.12;}</style></defs><title>アートボード 303</title><g id="ONAIR"><path class="cls-1" d="M210.59,188.47l5.81-.52v-56.5h.52v-3.17l9-.53v-5.28h-2.64V122h-19v.52h-2.64v5.28l9,.53V180H191.53v2.4h19.06Z"/><path class="cls-1" d="M410.17,188.47v-3.16h3.17v-3.7H416V179h.53V163.13H416v-2.64a8.07,8.07,0,0,1-3.17-.53v-2.64a8.07,8.07,0,0,1-3.17-.53v-2.64a8.19,8.19,0,0,1-3.16-.52V151h-2.64v-3.7h-3.17q-.27-6.33-.53-12.67h.53v-3.7h2.64v-2.64H407v3.17h3.17V141l5.81-.52V132h-2.64v-6.87h-3.7v-2.64H407V122l-5.8.52v2.64h-3.7v3.7h-2.64v2.64h-.53v15.84h.53v2.64h2.64v3.7h3.17v3.16h3.17V160H407v3.17h3.17q.27,6.33.53,12.67h-.53v3.7h-2.64v2.64h-6.86V179H397.5q-.27-6.08-.53-12.14h-2.11v2.64c-.59.45-.08-.07-.53.52h-2.64v8.45h2.64c.18,2.11.35,4.23.53,6.34h2.64v3.69Z"/><path class="cls-1" d="M458.22,188l5.81.52V130.92h2.64v-2.64h6.86V122H451.36v6.33h6.86Z"/><path class="cls-1" d="M515.24,188h2.64v.52L530,188a8.07,8.07,0,0,1,.53-3.17h2.64c.17-3.17.35-6.34.52-9.51h2.64v-8.44h-2.64v-1.64h16v-2.4h-16V160h-3.16v-3.17h-3.17v-3.16h-3.17v-3.17h-3.17c-.17-1.94-.35-3.87-.53-5.81h-2.64c-.17-2.29-.35-4.58-.52-6.86h.52v-6.34h3.17v-3.17h3.7v2.64h2.64q.25,4.76.53,9.51l5.8.52q-.26-6.06-.52-12.14h-2.64v-3.7h-3.7v-2.64h-2.64V122l-5.81.52v2.64c-.59.46-.08-.07-.53.53h-2.64c-.17,2.11-.35,4.23-.52,6.34h-2.64q-.27,4.49-.53,9h.53v5.81h2.64c.17,2.11.35,4.23.52,6.34a8.07,8.07,0,0,1,3.17.53v2.64a8.28,8.28,0,0,1,3.17.52v2.64a8.45,8.45,0,0,1,3.17.53v2.64h2.64v3.7h3.17v10h-2.64c-.18,1.94-.36,3.87-.53,5.81h-9.51q-.25-6.07-.52-12.15a8.28,8.28,0,0,1-3.17-.52v-2.64h-2.11c-.13,4.58-.55,10-.53,15.31h3.17l.27,3.05h-8.5v2.4h8.72Z"/><path class="cls-1" d="M150.4,175.27H153c.17-1.93.35-3.87.52-5.8h3.17V166.3h3.17v-3.7h2.64a8.45,8.45,0,0,1,.53-3.17h2.64c.17-1.93.35-3.87.53-5.8h3.16v-3.17h3.17v-3.7h2.64a8.45,8.45,0,0,1,.53-3.17h2.64c.07-.72.13-1.44.2-2.17h1.7V139H178.8c0-.41.07-.82.11-1.23h3.17v-3.17h3.16v-3.7h2.64v-2.11l-5.8-.53v3.17h-3.17v3.17h-3.17v3.69H173.1V139H161v2.4h11.53v.06h-2.64c-.17,1.94-.35,3.87-.53,5.81h-3.16v3.17h-3.17v3.69h-2.64v2.64h-.53v.53h-2.64c-.18,1.94-.35,3.87-.53,5.81h-3.17v3.17H150.4V170h-2.64v2.64h-.53v.53h-2.64c0,.36-.07.71-.1,1.06h-20v-7.39h-2.64V160h-3.16v-3.17h-3.17v-3.16h-3.17v-3.17h-3.17c-.17-1.94-.35-3.87-.53-5.81H106v-13.2h3.17v-2.83h3.7v2.3a8.45,8.45,0,0,1,3.17.53v5.81h2.64V141h3.16V128.28h-3.16v-3.17h-3.17V122l-9,.52v2.64H106v.53H103.4l0,.58H95.44v2.4h7.72l-.28,3.36h-2.64v14.78h2.64v3.7H106q.27,2.89.53,5.81a8.28,8.28,0,0,1,3.17.52v2.64a8.45,8.45,0,0,1,3.17.53v2.64a8.45,8.45,0,0,1,3.17.53v2.64h2.64V179h-3.17v3.17h-6.87V179.5H106c-.17-3.17-.35-6.34-.52-9.51a8.28,8.28,0,0,1-3.17-.52v-2.64h-2.11v2.64h-.53q.26,6.06.53,12.14h2.64v3.7H106v3.16l12.15-.52a8.07,8.07,0,0,1,.53-3.17h2.64c.17-2.11.35-4.23.52-6.34h2.64v-1.82h19.75l-.21,2.35h-3.17v3.17h-3.17v3.69h-2.64v5.28h5.28c.18-1.93.36-3.87.53-5.8h3.17v-3.17h3.17v-3.7h2.64A8.07,8.07,0,0,1,150.4,175.27Z"/><path class="cls-1" d="M302.46,188h2.64a8.45,8.45,0,0,1,.53-3.17h2.64c.17-1.94.35-3.87.53-5.81H312V175.8h3.17v-3.69h2.64a8.45,8.45,0,0,1,.53-3.17h2.64c.18-1.94.35-3.87.53-5.81h3.17V160h3.16v-3.69h2.64a8.45,8.45,0,0,1,.53-3.17h2.64c.18-1.94.35-3.87.53-5.81h3.17v-3.17h3.17v-3.69h2.64a8.28,8.28,0,0,1,.52-3.17h2.64c.18-1.94.36-3.87.53-5.81H350v-3.17h-6.34V132H341v2.64h-.52v.53h-2.64c-.18,1.93-.36,3.87-.53,5.8h-3.17v3.17H331v3.7h-2.64v2.64h-.53V151h-2.64c-.17,1.93-.35,3.87-.52,5.8h-3.17V160H318.3V162H301.56v2.4h14.1v1.86h-.53v.53h-2.64c-.17,1.93-.35,3.87-.53,5.8H308.8v3.17h-3.17v3.7H303v2.64h-.53v.53h-2.64c-.18,3-.35,6-.53,9h3.17Z"/><path class="cls-1" d="M92.84,179h.53V160h-.53v-2.64a8,8,0,0,1-3.16-.53c.17-3.34.35-6.68.52-10h2.64v-2.64h.53Q93.12,138,92.84,132H90.2v-6.87H86.51v-2.64H83.87V122h-3.7l-11.61.52v19.75h-3.9c-.07-6.71-.18-13.33-.33-19.75H61.69V122l-5.81.52q-.26,14.26-.52,28.52H49q-.27-14.27-.53-28.52l-9-.52v52.27H15.44v2.4H39.52v11.85l5.8-.52V176.62H49v8.69h.53V188h5.28q.26-11.08.53-22.18h3.69V188l5.81.52c0-14.4,0-29.33-.17-43.85h3.87V188H71.2v.52H87v-3.16H90.2v-3.7h2.64Zm-47.52-4.75v-8.45H49v8.45Zm29-32v-11.3H77v-2.64h7.4v2.64H87v3.7h.52Q87.31,141,87,147.29l-12.68.53v-3.2h8.32v-2.4ZM90.2,173.16H87.56c-.17,2.11-.35,4.23-.52,6.34H84.4v2.64h-10V156.79l6.34-.52v.52h3.7v2.64H87c.17,2.12.35,4.23.52,6.34H90.2Z"/><path class="cls-1" d="M241.74,122l-11.62.52V188h2.64v.52H248.6v-3.16h3.17v-3.7h2.64V179h.53V160h-.53v-2.64a8.07,8.07,0,0,1-3.17-.53c.08-1.39.15-2.79.22-4.18h16.35l.33,3.66a8.28,8.28,0,0,1,3.17.52v2.64a8.45,8.45,0,0,1,3.17.53v2.64a8.36,8.36,0,0,1,3.16.53v2.64h2.64V179h-3.16v3.17h-6.87V179.5h-2.64q-.25-4.75-.53-9.51a8.19,8.19,0,0,1-3.16-.52v-2.64H261.8v2.64h-.52q.25,6.06.52,12.14h2.64v3.7h3.17v3.16l12.15-.52a8.28,8.28,0,0,1,.52-3.17h2.64c.18-2.11.36-4.23.53-6.34h2.64V166.83h-2.64V160h-3.17v-3.17h-3.16v-3.16H274v-3.17h-3.17c-.18-1.94-.35-3.87-.53-5.81h-2.64v-13.2h3.17v-3.17h3.7v2.64a8.36,8.36,0,0,1,3.16.53v5.81h2.64V141h3.17V128.28h-3.17v-3.17h-3.16V122l-9,.52v2.64h-.53v.53H265c-.17,2.11-.35,4.23-.53,6.34H261.8v14.78h2.64v3.45H251.59l.18-3.45h2.64v-2.64h.53q-.27-6.08-.53-12.14h-2.64v-6.87h-3.69v-2.64h-2.64V122Zm10,43.82v7.39h-2.64c-.17,2.11-.35,4.23-.53,6.34H246v2.64h-10V156.79l6.34-.52v.52H246v2.64h2.64q.27,3.18.53,6.34ZM246,128.28v2.64h2.64v3.7h.53q-.25,6.33-.53,12.67l-12.67.53v-16.9h2.64v-2.64Z"/><path class="cls-1" d="M384.83,178.44h2.64V175.8H388v-3.69q-.27-5.82-.53-11.62h-2.64c-.18-2.11-.35-4.22-.53-6.34h-2.64v-3.69h3.17v-6.87h2.64v-8.44h-2.64c-.18-3.17-.35-6.34-.53-9.51a8.07,8.07,0,0,1-3.17-.53v-2.64h-2.64V122H374.8l-11.62.52c-.54,21-.55,44.14-.53,66h15.84V188h2.64a8.45,8.45,0,0,1,.53-3.17h2.64C384.48,182.67,384.65,180.55,384.83,178.44ZM369,128.28h9.5v3.17h3.17v13.2H379v2.64c-.59.45-.08-.07-.53.53H369ZM381.66,179h-3.17v3.17H369V156.27l10,.52v2.64h2.64v6.87h.53Q381.92,172.63,381.66,179Z"/><path class="cls-1" d="M447.66,162.6c.18-1.93.35-3.87.53-5.81H422.84q.27,2.91.53,5.81Z"/><rect class="cls-1" x="287.44" y="158.22" width="19.24" height="2.4"/><rect class="cls-1" x="413.42" y="128.1" width="16.04" height="2.4"/><path class="cls-1" d="M469.69,138.79v2.4H480.4V188H483v.52h15.84v-3.16H502v-3.7h2.64V179h.53V160h-.53v-2.64a8,8,0,0,1-3.16-.53c.17-3.34.35-6.68.52-10h2.64v-2.64h.53Q505,138,504.68,132H502v-6.87h-3.69v-2.64h-2.64V122H492l-11.61.52v16.32Zm16.51-7.87h2.64v-2.64h7.4v2.64h2.64v3.7h.52q-.25,6.33-.52,12.67l-12.68.53Zm0,25.87,6.34-.52v.52h3.7v2.64h2.64c.17,2.12.35,4.23.52,6.34H502v7.39H499.4c-.17,2.11-.35,4.23-.52,6.34h-2.64v2.64h-10Z"/><rect class="cls-1" x="143.44" y="142.22" width="19.24" height="2.4"/><path class="cls-1" d="M198.73,77.85h1.56V75.77h3.13V72.64h2.09c.17-1.74.35-3.48.52-5.22h2.09c.17-3.48.34-7,.52-10.43h2.08v-4.7h21.39v5.23h-9.58v2.4h9.58v8.55h-4.69v2.08h-.53c.18,2.44.35,4.87.53,7.3h6.78c.17-1.73.35-3.47.52-5.21h2.09V40.48h17.8v-2.4h-17.8V5.87c-9.37-.46-20.58-.55-30.78-.52V47.6h-2.09q-.25,7.83-.52,15.65h-2.09c-.17,1.74-.34,3.48-.52,5.22h-2.08v2.08c-.59.45-.08-.07-.53.52h-2.08v1.57h2.08ZM230,42.38v2.09h-19.3v-13H230v2.09h2.09v8.86ZM211.25,12.65H229.5v.52h2.61V23.6H229.5v.53c-5.24,0-14.69,1-18.78-.53C210.7,20.12,210.27,15.27,211.25,12.65Z"/><path class="cls-1" d="M258.19,46V54.9h.52v4.7h2.09c.17,1.74.35,3.47.52,5.21h2.09v3.13H266v2.61h3.13v2.09h2.08v.52c3.49,1,9.56-.38,12.52-.52V70.55h3.13V67.42H289l.52-5.21h2.09V60.12h.52V54.55h8.65V52.81h6.15v-2.4h-7.56v1.74h-7.27c-.08-4.33-.32-8.74-.49-12.37h-2.09c-.17-1.74-.35-3.48-.52-5.22h-2.09V31.43h-3.13V29.34h-2.08v-.52c-3.24-.91-7.25.39-9.92.52v2.09h-3.12V34l-1,.1V33.08h-4.2V30.91h2.09q.25-5.22.52-10.44h2.08c.18-1.56.35-3.13.53-4.69l4.69-.52V13.17h6.26v2.09a6.54,6.54,0,0,1,2.61.52v2.09h2.08V21l7.31-.53V19.09h24.14c-.47,17.6-.17,36.29-.15,54.07h5.22V67.94h24V70h2.09v3.13l4.69-.52c.32-6.55.53-13.48.64-20.55h5.15v-2.4h-5.12c.17-14-.05-28.32-.67-41.21H316.09c-.13,2.7-.23,5.44-.32,8.21H289.49V13.17h-2.61l-.52-4.69L281.14,8V5.87h-9.39V8h-3.12v2.6H266v2.61h-2.61V16.3h-2.09c-.17,2.61-.35,5.22-.52,7.83h-2.09c-.13,2.75-.24,5.81-.33,9H245.69v2.4h12.63C258.24,39,258.19,42.61,258.19,46Zm62.6-30.25h26.08V34H320.79Zm0,26.08h26.08v7.83h-10v2.4h10v8.55H320.79Zm-52.16-2.61h2.6v-2.6h10.44v2.6h2.6c.18,1.57.35,3.13.53,4.7h2.08V58H284.8c-.18,1.74-.35,3.48-.53,5.22h-2.08v2.09c-.59.44-.08-.08-.52.52h-2.09v2.08h-6.26V65.86l-4.69-.52V62.73H266V57.51h-.52q.25-7.83.52-15.65h2.61Z"/><path class="cls-1" d="M164.3,64.52H146.82v2.4H164.3v6.24l7.3-.52V57.51l7.83-.52V50.21l-7.83-.52V39.08H183v-2.4H171.6V8.48c-3-.16-6.29-.55-9.91-.52v3.13H159.6c-.17,1.73-.34,3.47-.52,5.21H157c-.18,2.44-.35,4.87-.53,7.3h-2.6v5.22h-2.61v5.74h-2.09c-.17,1.74-.35,3.48-.52,5.22h-2.09c-.17,1.73-.34,3.47-.52,5.21H144c-.2,3.67-.55,8.15-.53,12.52H164.3ZM148.65,49.69V46.56h2.09c.17-1.74.34-3.48.52-5.22h2.08c.18-1.74.35-3.48.53-5.22H156c.18-1.74.35-3.47.52-5.21h2.09c.17-1.74.35-3.48.52-5.22h2.09c.17-1.74.35-3.48.52-5.22h2.61V49.69Z"/><path class="cls-1" d="M367.73,70v3.13h3.13v2.09h1.57V73.16h5.74V70.55h2.61V62.73H386v2.61h3.13v2.08l4.7.52v-4h13.53v-2.4H390.69v-.85l-4.7-.52V57.51h-3.13V55.42h-2.08V44h2.08V41.86l10.43-.52V37.17h-2.08v-.52l-10.43.52V23.6l-4.7.53v3.36H365.64v2.4h12.53V55.42L373,54.9v.52h-4.69v2.09c-.59.45-.08-.07-.53.52h-2.08v2.09h-.52c-.92,3.23.39,7.25.52,9.91Zm0-7.82h2.09V60.12h8.35v5.74h-2.09v2.08c-.59.45-.08-.07-.52.53-2.3-.07-7-.75-7.83,0h-.52C367.78,67,367.78,64.45,367.73,62.21Z"/><path class="cls-1" d="M407.38,57l7.3.52V54.38h2.09c.17-1.74.35-3.48.52-5.22h2.09V47.6l-4.7-.52v3.13h-3.13V32.47q.27-3.12.52-6.26h-.52V24.13H410v2.08c-.59.45-.08-.07-.52.52h-2.09q-.27,10.17-.52,20.35C407.54,49.52,407.38,53.72,407.38,57Z"/><path class="cls-1" d="M406.64,64.49v2.4H420c0,.35-.07.7-.11,1h-2.61v2.61h-2.61c.18,1.57.35,3.13.52,4.7h4.18a6.5,6.5,0,0,1,.52-2.61H422c.18-1.57.35-3.13.53-4.7h2.6V62.21h2.09c0-.76.07-1.55.1-2.32h13.05v-2.4h-13c.38-10.79.35-22.76.32-33.89h-2.61V55.42H423q-.27,3.91-.52,7.83h-2.09c-.05.41-.09.83-.14,1.24Z"/><path class="cls-1" d="M217.22,357.63h2.64v3.69h3.7V364h2.11c.17-3,.35-6,.52-9H223q-.26-2.91-.53-5.81h-2.11v2.64h-3.69C216.86,353.76,217,355.69,217.22,357.63Z"/><path class="cls-1" d="M397.81,386.59v5.8a8.45,8.45,0,0,1,3.17.53v2.64h2.11c.3-11.6.54-25,.51-37.49h-6.33V365H384.32v2.4h12.95v19.24Z"/><path class="cls-1" d="M292.73,377.13V348.62h-19v.52h-2.64l0,55.85H260.84c-.1-1.73-.2-3.45-.31-5.17a8.25,8.25,0,0,1-3.17-.53v-2.64a8.19,8.19,0,0,1-3.16-.52c0-.88,0-1.76,0-2.64A8.36,8.36,0,0,1,251,393c0-.88,0-1.76,0-2.64h-2.64v-3.7h12.68c0-.18,0-.35,0-.53h2.64v-5.28c-4.58-.13-10-.55-15.31-.52v-10h12.14v-2.64h.53c-.18-1.94-.36-3.87-.53-5.81h-9v-4.23h2.64c.17-2.11.35-4.22.52-6.33h2.64v-2.11H254.7v-3.69h-3.17q0,3.43,0,6.86H248.9c-.18,3-.35,6-.53,9l-6.86.53v-3.69H242q-.25-2.91-.53-5.81h-2.64v-3.7l-5.81.53c0,1.76,0,3.52,0,5.28h2.64q.26,3.71.53,7.39h-6.34v5.28a8.28,8.28,0,0,1,3.17.52v2.64c3.11,0,7.24-.32,9.51.53v9.5h-13.2v6.33h12.68v6.86h-2.64q-.25,2.91-.53,5.81h-3.16v3.17h-3.17v3.7h-2.64v2.11h2.64V412h3.17v-3.16h3.17v-3.16h3.17c0-1.24,0-2.47,0-3.7h2.64c.18-1.94.35-3.87.53-5.81h3.17v3.17h3.17v3.17h3.17c.17,1.94.35,3.87.53,5.81l5.81.52-.09-1.4H271.1v16.72l5.81.53q0-23.76,0-47.52Zm-15.85-22.7h9.5V355h.53a10.07,10.07,0,0,1-.52,3.69h-9.51Zm0,10h10v6.34h-10Z"/><path class="cls-1" d="M352.4,380.27l19.53-.54v3.7h3.17v-3.7h2.64v-2.11H375.1c-.15-1.82-.31-3.64-.46-5.46h3v-2.4h-5.7c0-1.79,0-3.57,0-5.35h-3.16v-3.16h-3.17c.17,2.83.33,5.67.5,8.51h-4.17v2.4h6.83v1.76H356.09c0-3.34,0-6.69,0-10h2.64q.27-6.27.52-12.53h13.59V349H360.08a7.58,7.58,0,0,1-1.36-.38V346H356.6c-.17,2.11-.35,4.22-.52,6.33h-2.64q-.26,9.49-.52,19h-2.64v2.64h-.53v.52h-3.69V365a8.28,8.28,0,0,1-3.17-.52V361.8h-2.11v2.64h-3.69V348.6H333.9v6.86h-2.64V357H320.71v-7.86h-2.64v-.52h-19l0,28.51h15.84q0,19.28,0,38.54h-2.64v2.63h-.53c.17,1.93.35,3.87.53,5.8h5.28a8.28,8.28,0,0,1,.52-3.17h2.64q0-30.76,0-61.55h10.56v5.06l-6.34.53c0,1.76,0,3.52,0,5.28l5.8.53q0,5,0,10h-2.64q-.27,7.92-.52,15.84H325v2.11c2,.12,4.64,1.08,5.81,0a9.84,9.84,0,0,1,3.69.53c-.17,3.34-.35,6.69-.52,10h-2.64V412h-.53v.53h-2.64c-.17,3-.35,6-.52,9h3.17V418.3h3.16v-3.7h2.64c.18-1.94.35-3.87.53-5.81h3.69v2.64h5.28V403a8.45,8.45,0,0,1-3.17-.53q.25-12.93.52-25.87h3.69c-.77,2.11-.09,3.74,0,6.33h5.28Zm-50.18-25.85H314.9v4.22H302.23C302.23,357.24,302.22,355.83,302.22,354.42Zm0,16.37v-3.7h2.64v-2.64h10v6.33Zm35.39,22.69a11,11,0,0,1-4.23-.53q.27-9.76.52-19.54h2.64v-2.64h3.7q0,9.76,0,19.54h-2.64Z"/><path class="cls-1" d="M235.72,415.7v-.53H232v-2.64l-5.81-.52V383.5h-.53v-2.64l-12.15-.53v6.34h6.33V412h-3.17v3.17h-3.17c.18,3,.35,6,.53,9h2.11a8.45,8.45,0,0,1,.53-3.17h2.64c.17-1.94.35-3.87.52-5.81h6.34v3.16h3.17v3.17h6.87v2.64h27.45a8.45,8.45,0,0,1,.53-3.17h2.64v-5.28Z"/><path class="cls-1" d="M207.21,412H204c-.17-1.94-.35-3.87-.53-5.81h-2.64c-.17-2.29-.35-4.57-.53-6.86h.53v-4.71h15.18v-2.4H203.51l.48-20h15.25v-2.4h-9.4v-2.18h.53c-.18-1.93-.36-3.87-.53-5.8H191.35c0-3.52,0-7,0-10.56H194V346H188.7c-.11,3.85-.55,8.15-.52,12.67h-2.64v3.17l-13.2-.52V345.51l-5.81.53q0,7.65,0,15.31l-9.5.53v5.28l6.34.53v2.64H166q0,13.2,0,26.4h-2.64c-.06,1.71-.11,3.42-.17,5.13H150.74v2.4h12.39l-.27,8.31h-2.64v2.64h-.53q.27,4.49.53,9h2.12c.17-1.93.35-3.87.52-5.81H166v-6.86h2.64l.51-25.35h6.34q0,14.79,0,29.57h-5.81c0,1.76,0,3.52,0,5.28a8.25,8.25,0,0,1,3.17.53v2.64H175v-2.64h3.69v-3.69h3.17c.18,2.11.35,4.22.53,6.33h2.11v-2.64h3.7v-3.17h3.16v-3.69H194c.18-1.93.35-3.87.53-5.8h3.17q.25,2.91.53,5.81h2.64v3.7h3.17v3.17l5.8-.53q.27-2.89.53-5.81h-3.17Zm-28.53-31.14v-3.7h-9.5v-9.51l15.84-.53c0,2.46,0,4.93,0,7.39h-2.64c-.18,2.11-.35,4.23-.53,6.34Zm12.69,28H188.2V412H185v3.17h-3.17v.53h-.53q0-13.2,0-26.4h3.17c.17-2.11.35-4.22.52-6.33h3.17c.18,3.16.35,6.33.53,9.5h2.64v6.86h.53C191.72,402.52,191.54,405.69,191.37,408.86Zm6.85-31.16q-.25,7.92-.52,15.84h-3.17c-.18-3.16-.35-6.33-.53-9.5h-2.64q0-6.85,0-13.73h9.51v7.39Z"/><path class="cls-1" d="M304.88,386.63l6.33-.53V384a8.36,8.36,0,0,1-3.16-.53c0-.88,0-1.76,0-2.64H283.76v2.64h-.53V384h-2.64v2.11l6.34.53v2.64h2.64v4.22h-2.64v2.64h-6.86q.26,2.91.53,5.81h9c0,1.41,0,2.81,0,4.22h-2.64c-.18,2.11-.35,4.23-.53,6.34h-2.64v2.64h-.53v.53H280.6c0,1.76,0,3.52,0,5.28l5.8.53v-3.17h3.17v-3.7h2.64c.11-3.86.55-8.16.52-12.67h6.34v19.54l5.8-.53c0-5.31-1-14.87.52-19h5.81c.18-1.94.35-3.87.53-5.81h-6.87Zm-9.5,9.51V393.5h-2.64v-4.23h2.64v-2.64h3.69v9.51Z"/><rect class="cls-1" x="149.12" y="353.86" width="15.71" height="2.4"/><path class="cls-1" d="M380.85,408.16h-8.91v-18.4H349.76l0,31.68h.52v2.64h2.12a8.19,8.19,0,0,1,.52-3.16h15.84v.53H372V410.57h8.9Zm-12.07,4.31L352.94,412V396.11h15.84q0,6,0,12.07h-3.64v2.4h3.64Z"/><path class="cls-1" d="M416.05,405H400.34v.64h-3v9.51h6.34v-7.74h12.43Z"/><path class="cls-1" d="M298.07,235h-2.64v-3.7h-6.34v3.17h3.17c.18,1.94.35,3.87.53,5.81a8.25,8.25,0,0,1,3.17.53v2.64h2.11V240.8h.53C298.42,238.86,298.25,236.93,298.07,235Z"/><path class="cls-1" d="M13,237.15v-5.29H10.84v5.28Z"/><path class="cls-1" d="M25.62,231.86H23.51V234h2.11Z"/><path class="cls-1" d="M356.15,234.45c-.6.45-.08-.07-.53.53H353v5.28h2.64V244h.53c-.18,2.11-.35,4.22-.53,6.33h3.17v-3.17h-.53a10.26,10.26,0,0,1,.53-3.69h2.64V231.81h-5.28Z"/><path class="cls-1" d="M365.65,243.43h2.64c0,1.23,0,2.46,0,3.69h.52v.53h-3.16c-.18,1.94-.36,3.87-.53,5.81h3.17v-3.17h-.53v-.53h3.17v-2.64h.52v-3.69q-.25-5.82-.53-11.62h-5.28v2.64h-.52C365.3,237.44,365.48,240.44,365.65,243.43Z"/><path class="cls-1" d="M283.29,240.27h2.64V244h3.16c.18,1.93.36,3.87.53,5.8h2.12c.17-3,.35-6,.52-9h-3.17c-.17-1.94-.35-3.87-.52-5.81h-5.28Z"/><path class="cls-1" d="M168.72,281.47h2.64c.17-1.93.35-3.87.52-5.81h3.17v3.17h3.17V282h3.7v2.64H184c.17-3,.35-6,.53-9h-3.17V272.5h-3.17c-.18-3.17-.35-6.34-.53-9.51h.53v-6.86h2.64c.08-3,.17-6,.25-9h15v-2.4h-14.9c.07-2.37.13-4.75.2-7.12l-5.81.53q-.25,9.49-.52,19h-2.64c-.18,1.94-.35,3.88-.53,5.81h-3.17v-3.16H165v-2.64l-5.81-.53v3.69h-2.64v2.12a8.28,8.28,0,0,1,3.17.52v2.64l5.81.53v3.17h3.16V273h-2.64q-.27,3.17-.53,6.33h-2.64c-.18,1.94-.35,3.87-.53,5.81h-3.17v3.17h-3.16v3.17h-3.17v3.17h-3.17c.18,1.93.35,3.87.53,5.8l5.81.53v-3.17h3.16v-3.17h3.17v-3.16h3.17v-3.7h2.64C168.37,285.7,168.54,283.58,168.72,281.47Z"/><path class="cls-1" d="M238.41,237.64l-5.81.53c-.18,2.11-.35,4.22-.53,6.33h-2.64v2.64c-.59.46-.08-.07-.53.53h-2.64c-.17,1.94-.35,3.87-.52,5.81h-3.17v3.7h-2.64v2.64c-.6.45-.08-.07-.53.53h-2.64V263c-.59.45-.08-.08-.53.52h-2.64v2.64c-.59.46-.08-.07-.52.53h-2.64v2.64c-.6.45-.09-.07-.53.53h-2.64v2.64h-3.7v3.17H200.4V282h6.33v-3.17l5.81-.53a8.07,8.07,0,0,1,.53-3.17h2.64a8.07,8.07,0,0,1,.53-3.17h3.69v24H204.05v2.4h15.89v8.45l5.8.53V259.82h3.17v-3.7h2.64c.18-1.94.36-3.87.53-5.81h3.17v-3.7h2.64Q238.14,242.13,238.41,237.64Z"/><path class="cls-1" d="M10.31,244c-.18-1.94-.35-3.87-.53-5.81H7.67c-.13,4.58-.55,10-.53,15.31h6.34V244Z"/><path class="cls-1" d="M79.48,241.36H52V244H35.65c0,2.11,0,4.22,0,6.33H71q-.25,3.16-.53,6.33H67.34v3.7H64.7V263c-.6.45-.08-.07-.53.53H61v-6.87H54.66q0,12.94,0,25.88H52c-.18,3.16-.35,6.33-.53,9.5H48.86v2.64c-.59.45-.08-.07-.53.53H45.69c-.12,1.37-.24,2.75-.37,4.12h-9.2v-1.6H23.28v2.4h8v1.6H42v2.46h3.17v3.16h3.17v-3.69H51a8.28,8.28,0,0,1,.52-3.17h2.64c.18-2.11.35-4.23.53-6.34h2.64c.18-3.17.35-6.33.53-9.5h2.64q.26-6.35.52-12.67h5.81a8.36,8.36,0,0,1,.53-3.16H70q.26-2.91.53-5.81h3.16v-3.7h2.64c.18-2.11.35-4.22.53-6.33h2.64v-2.64H80Q79.74,245.85,79.48,241.36Z"/><path class="cls-1" d="M266.92,284.63h2.64q.27-2.91.53-5.81h3.7v2.64h2.64v3.69h3.17c.17,1.94.35,3.87.53,5.81a8.16,8.16,0,0,1,3.16.53v2.64h2.64v3.69h3.17V301l5.81-.53v-5.28h-2.64v-3.69H289.1q-.25-2.91-.53-5.81h-2.64V282h-3.17v-3.16H279.6q-.27-2.91-.53-5.81h-2.64v-7.39h2.64l.33-4.07h4.68v-2.4h-1.84q.27-3.11.52-6.21h2.64V250.3h.53c-.18-1.93-.35-3.87-.53-5.8a8.45,8.45,0,0,1-3.17-.53v-2.64h-2.11V244H254.25c.17,3,.35,6,.53,9h11.61v-2.64H277c-.15,2.95-.31,5.91-.46,8.86h-20v2.4h17.21l-.42,5.11h-2.64c-.18,1.94-.35,3.88-.53,5.81h-3.17v2.68H237.27v2.4h26.89c-.14,1.47-.27,2.95-.4,4.43h-3.17v3.17h-3.17v3.16h-3.17V292h-2.64v2.64c-.59.45-.08-.07-.52.53h-2.64c-.18,1.93-.35,3.87-.53,5.81h3.7v2.64h2.11a8.07,8.07,0,0,1,.53-3.17h2.64c.17-1.94.35-3.87.52-5.81h3.17v-3.17h3.17v-3.7h2.64A8.19,8.19,0,0,1,266.92,284.63Z"/><path class="cls-1" d="M130.7,256.66q-.27-4.49-.53-9H96.38v8.45H99v.53Z"/><path class="cls-1" d="M355.1,250.82H353v2.11h2.12Z"/><path class="cls-1" d="M421.63,282v-9a8.45,8.45,0,0,1-3.17-.53v-2.64h-2.11q-.27,6.07-.53,12.14l-12.14.53c-.18,1.94-.35,3.88-.53,5.81h3.7v2.64h9v16.37h.53V310h2.11a8.45,8.45,0,0,1,.53-3.17h2.64V290.94h9.5a8.45,8.45,0,0,1,.53-3.17h2.64v-5.28C430.34,282.52,424.68,283.09,421.63,282Z"/><path class="cls-1" d="M92.68,285.18c.18,3,.36,6,.53,9h43.3A8.25,8.25,0,0,1,137,291h2.64V285.7C125,285.32,108.25,285.15,92.68,285.18Z"/><rect class="cls-1" x="188.04" y="247.97" width="16.04" height="2.4"/><rect class="cls-1" x="172.05" y="291.17" width="16.04" height="2.4"/><path class="cls-1" d="M359.57,281.24H345.76l-.16-1.91H343q-.27-3.16-.53-6.33h-2.64v-3.7h-3.17V273H334v2.11h2.64c.18,2.11.35,4.23.53,6.34h2.64q.25,3.42.53,6.86H320.78v.53h-3.17v-4.22h2.64c.12-3.86.55-8.16.53-12.67h2.64c.11-3.86.55-8.16.52-12.68h2.64c.12-3.86.55-8.16.53-12.67h2.64c.18-3,.35-6,.53-9h-3.7V235h-2.11c-.18,3.16-.35,6.33-.53,9.5H321.3q-.26,7.92-.52,15.84h-2.64q-.27,6.33-.53,12.67H315q-.25,6.35-.53,12.67h-2.63v2.64c-.6.45-.09-.08-.53.52h-5.81v2.64c-.59.46-.08-.07-.53.53H302.3v5.28a8.45,8.45,0,0,1,3.17.53v2.64h2.11v-2.64l25.35-.53v-2.64h13.2V301h6.33q-.25-4.49-.53-9h-2.64c-.17-2.12-.35-4.23-.52-6.34h-2.65c-.05-.68-.11-1.35-.16-2h13.61Z"/><path class="cls-1" d="M441.56,249.22H428v-4.76l-9.51-.52v-8.32H430v-2.4H418.45V231.8h-5.28q-.26,6.07-.52,12.15h-6.34v6.33h6.34v9.51h-3.17v3.69h-2.64v2.64h-.53v.53h-2.64v3.17a10.76,10.76,0,0,1-4.22-.53v-2.64h-2.64v-10h6.33v-6.33h-6.33v-19l-5.8.53v18.48h-6.86c.17,1.93.35,3.87.52,5.81l6.34.52q-.25,6.6-.53,13.2h-2.64c-.17,3.17-.35,6.34-.52,9.51h-2.64V282h-.53c.18,3,.35,6,.53,9h2.11c.18-2.11.35-4.22.53-6.33H391q0,12.66,0,25.34l5.81.53q0-17.43,0-34.85H400v3.17h3.17c.05-1.91.41-5.32-.53-6.34v-.53l6.86.53v-3.17h3.17V265.6h2.64c.18-3.17.35-6.34.53-9.51h2.64v-5.81h3.69v19h3.7v2.64h5.28a8.45,8.45,0,0,1,.53-3.17h2.64q.26-6.08.52-12.14h-3.16v3.69H428v-8.68h13.6Z"/><rect class="cls-1" x="358.26" y="286.03" width="15.71" height="2.4"/><path class="cls-1" d="M37.71,253.74v-2.4H25.62v-6.8a8.45,8.45,0,0,1-3.17-.53v-3.17H23c-.17-1.94-.35-3.87-.53-5.81H20.34c-.12,2-1.08,4.64,0,5.81v.53H17.17q-.26,6.07-.52,12.14l5-.29v.52Z"/><path class="cls-1" d="M547.21,274.67a6.5,6.5,0,0,1,.52-2.61h2.09c.17-1.57.34-3.13.52-4.7l4.69-.52v-2.08l7.83-.53v-4.17l-4.7-.52v.52h-4.69v2.09l-13,.52v2.09l-10.44.52v4.17l7.31.52v-.52H542v-2.09h3.13v3.13H543c-.18,2.61-.35,5.22-.53,7.83h-2.08v5.89H527v2.4h13.44v1.61H539v2.4h3.54l.51,7.52h2.08v3.13h3.13v2.09l7.83.52V306h1.56v-2.08h.52c-.17-1.57-.35-3.13-.52-4.7l-7.82-.52v-2.09a6.5,6.5,0,0,1-2.61-.52V294h-2.09v-3.35h9.58v-2.4H544.6q.25-6.78.52-13.55Z"/><path class="cls-1" d="M521.13,269.45v-2.09h.52l-.52-4.69H517v2.09c-4.55,0-9.21.35-13,.52v4.17H506V270Z"/><path class="cls-1" d="M511.22,294v-.52h-2.61v-2.61h-3.13v-2.09h-1.57v2.09h-.52c.17,1.56.35,3.13.52,4.69a6.72,6.72,0,0,1,2.61.52v2.09l7.83.52v2.09h9.38v-2.09h.53l-.53-4.69Z"/><path class="cls-1" d="M482.53,301.27H466.88v-24H469v-2.08h3.13c0,6.8.25,14.33.52,20.34h1.57c.34-6.84.55-15.3.52-22.95l5.74-.52v13.56h-.52v2.61h-2.61c.17,1.56.35,3.13.52,4.69H482a6.6,6.6,0,0,1,.53-2.6h2.08v-16.7q.27-3.12.52-6.26h-.52v-2.08l-4.69-.52v2.6H474.7v-13h-2.61V270l-5.21.52V259.54h-2.61V273.1h-2.09v2.09h-3.13v.52h-.52q.25-9.65.52-19.3h2.09v-1.57l-4.7-.52v8.35h-2.08c-.18,3.48-.35,6.95-.52,10.43h-2.09c-.17,1.74-.35,3.48-.52,5.22h-2.09v4.17h5.22v14.73H443.19v2.4h11.17V306h4.17v-6.34h.37v-2.4h-.37V279.88h5.74v26.61h20.86v-3.13h2.09v-6.79h-4.17C482.87,298.14,482.7,299.7,482.53,301.27Z"/><path class="cls-1" d="M503.7,283.61v-2.4h-8.13V266.84h2.08v-9.39h-4.17c-.37,7.52-.5,15.59-.54,23.77H488v2.4h4.94c0,6.8,0,13.64,0,20.26h2.61V283.62Z"/><rect class="cls-2" width="570" height="430"/></g></svg>