<svg xmlns="http://www.w3.org/2000/svg" viewBox="0 0 214 31"><defs><style>.cls-1{opacity:0.45;}.cls-2{fill:red;}.cls-3{opacity:0.35;}.cls-4{fill:#fff;}.cls-5{fill:none;opacity:0.15;}</style></defs><title>アートボード 130</title><g id="comon"><g id="見出し"><rect x="7.93" y="2.58" width="198.43" height="26.17"/><g class="cls-1"><path class="cls-2" d="M26.31,28.69A27.83,27.83,0,0,1,15.63,27c-4.71-2-7.09-5.87-7.09-11.55S10.92,6,15.63,4A27.67,27.67,0,0,1,26.31,2.25,26.72,26.72,0,0,1,36.68,4c4.71,2,7.09,5.83,7.09,11.41S41.39,25,36.68,27A26.91,26.91,0,0,1,26.31,28.69Zm0-25.44A26.88,26.88,0,0,0,16,4.91C11.66,6.75,9.54,10.19,9.54,15.4S11.66,24.19,16,26a26.81,26.81,0,0,0,10.29,1.66,25.85,25.85,0,0,0,10-1.66c4.36-1.84,6.48-5.32,6.48-10.63S40.65,6.75,36.29,4.91A25.92,25.92,0,0,0,26.31,3.25Zm0,23A16.13,16.13,0,0,1,20,25c-2.87-1.21-4.32-4.43-4.32-9.59S17.08,7.15,20,5.94a16.31,16.31,0,0,1,6.36-1.21,15.52,15.52,0,0,1,6.05,1.21c2.87,1.22,4.32,4.4,4.32,9.46S35.23,23.78,32.36,25A15.35,15.35,0,0,1,26.31,26.21Zm0-20.48a15.31,15.31,0,0,0-6,1.13c-2.46,1-3.71,3.92-3.71,8.54s1.25,7.63,3.71,8.67a15.09,15.09,0,0,0,6,1.14A14.31,14.31,0,0,0,32,24.07c2.46-1,3.71-3.95,3.71-8.67S34.43,7.91,32,6.86A14.48,14.48,0,0,0,26.31,5.73Z"/><path class="cls-2" d="M85.18,28.69H75.81L60.19,10.15V28.69H52.1V2.25h9.37L77.08,20.79V2.25h8.1Zm-8.91-1h7.91V3.25h-6.1v19H77l-16-19H53.1V27.69h6.09v-19h1Z"/><path class="cls-2" d="M134.13,28.69h-8.57l-4.32-7.44h-13l-4.32,7.44H95.35l16-26.44h6.74Zm-8-1h6.23L117.54,3.25h-5.6L97.12,27.69h6.23l4.32-7.44h14.14Zm-5.28-8.92H108.63l5.51-9.61h1.2Zm-10.49-1h8.76l-4.4-7.61Z"/><path class="cls-2" d="M156.77,28.69H141.89V24.82h3.39V6.12h-3.39V2.25h14.88V6.12h-3.4v18.7h3.4Zm-13.88-1h12.88V25.82h-3.4V5.12h3.4V3.25H142.89V5.12h3.39v20.7h-3.39Z"/><path class="cls-2" d="M206.1,28.69h-8.76L186.85,17h-7.91V28.69h-8.1V2.25h15.93a33.45,33.45,0,0,1,12.84,2.13h0c2.86,1.21,4.31,3,4.31,5.28,0,2.12-1.45,3.85-4.3,5.15a20.11,20.11,0,0,1-4.77,1.59Zm-8.32-1h6.05l-11-12,.94-.13a18.9,18.9,0,0,0,5.41-1.65c2.5-1.14,3.72-2.53,3.72-4.25,0-1.88-1.21-3.31-3.7-4.36a32.43,32.43,0,0,0-12.45-2H171.84V27.69h6.1V16h9.36Zm-10.4-13.22h-9.44V4.73h7.28a22.5,22.5,0,0,1,8.53,1.34c2,.87,3.08,2.08,3.08,3.59s-.94,2.82-2.78,3.59h0A17,17,0,0,1,187.38,14.47Zm-8.44-1h8.44a15.93,15.93,0,0,0,6.28-1.14h0c1.45-.61,2.16-1.48,2.16-2.67S195,7.7,193.36,7a21.5,21.5,0,0,0-8.14-1.26h-6.28Z"/></g><g class="cls-3"><path class="cls-4" d="M39,15.44c0,2.17-2.42,3.63-7.24,4.38a71.88,71.88,0,0,1-10.86.68,74.45,74.45,0,0,1-11.19-.68Q2.47,18.7,2.47,15.44t7.24-4.33a74.65,74.65,0,0,1,11.19-.67,72,72,0,0,1,10.86.67C36.58,11.87,39,13.31,39,15.44Zm-29,0c0,2,1.42,3.17,4.28,3.61a42.47,42.47,0,0,0,6.58.47,40.25,40.25,0,0,0,6.25-.47c2.85-.44,4.28-1.65,4.28-3.61S30,12.33,27.15,11.88a40.28,40.28,0,0,0-6.25-.46,42.54,42.54,0,0,0-6.58.46C11.46,12.33,10,13.52,10,15.44Z"/><path class="cls-4" d="M83.18,10.44V20.5H74L56.85,13h-.33V20.5H49V10.44h9.22L75.28,18h.33V10.44Z"/><path class="cls-4" d="M103.41,20.5h-7.9L112,10.44h6.58L135,20.5h-7.9l-4.61-2.94H108Zm12.18-7.33h-.66l-5.27,3.41h11.19Z"/><path class="cls-4" d="M156,19.36h3.62V20.5H144.76V19.36h3.62V11.57h-3.62V10.44h14.81v1.13H156Z"/><path class="cls-4" d="M205.61,11.27c2.85.44,4.28,1.08,4.28,1.9s-1.43,1.38-4.28,1.86a49.82,49.82,0,0,1-5.93.67l11.85,4.8h-7.9l-11.19-4.65h-9.21V20.5h-7.57V10.44h16.46A90,90,0,0,1,205.61,11.27Zm-5.93,3.14c1.76-.27,2.64-.69,2.64-1.24s-1-.92-3-1.23a59.36,59.36,0,0,0-8.89-.52h-7.24v3.45h9.54A45,45,0,0,0,199.68,14.41Z"/></g><rect class="cls-5" width="214" height="31"/></g></g></svg>