<svg xmlns="http://www.w3.org/2000/svg" viewBox="0 0 214 31"><defs><style>.cls-1{fill:none;opacity:0.15;}.cls-2{fill:red;}</style></defs><title>アートボード 154</title><g id="comon"><g id="見出し"><rect class="cls-1" width="214" height="31"/><path class="cls-2" d="M86.52,20.91a2,2,0,0,1-.37.56l-.19.17h2.2a5.25,5.25,0,0,1-.38.61,6,6,0,0,0,.7-1.34Z"/><path class="cls-2" d="M83,21.64l-.19-.17a2,2,0,0,1-.37-.56h-2a6,6,0,0,0,.7,1.34,5.25,5.25,0,0,1-.38-.61Z"/><path class="cls-2" d="M88.64,10.59h0a9.29,9.29,0,0,1,.26,1A8.73,8.73,0,0,0,88.64,10.59Z"/><path class="cls-2" d="M86.73,10.59h1.91a7.26,7.26,0,0,0-.44-1.12H86.08l.07.06A2.76,2.76,0,0,1,86.73,10.59Z"/><path class="cls-2" d="M80.3,10.59c-.09.31-.18.65-.26,1,.08-.36.17-.7.27-1Z"/><path class="cls-2" d="M82.8,9.53l.07-.06H80.74a8.46,8.46,0,0,0-.43,1.12h1.9A2.76,2.76,0,0,1,82.8,9.53Z"/><polygon class="cls-2" points="82.87 9.47 82.86 9.47 82.86 9.47 82.87 9.47"/><path class="cls-2" d="M89.12,13c0,.17,0,.34,0,.52h0C89.15,13.38,89.14,13.21,89.12,13Z"/><path class="cls-2" d="M89.18,13.7a.71.71,0,0,1,0-.14h0v.14Z"/><path class="cls-2" d="M89.21,14.32h0s0,.07,0,.11S89.21,14.36,89.21,14.32Z"/><path class="cls-2" d="M79.73,14.43a.41.41,0,0,1,0-.11h0A.41.41,0,0,0,79.73,14.43Z"/><path class="cls-2" d="M79.78,13.56a.71.71,0,0,1,0,.14v-.14Z"/><path class="cls-2" d="M79.83,13c0,.17,0,.34,0,.52h0C79.8,13.38,79.81,13.21,79.83,13Z"/><polygon class="cls-2" points="98.52 19.12 98.72 19.67 96.5 13.46 97.76 16.97 96.04 16.97 96.04 17.33 95.14 14.81 94.7 13.56 97.19 20.56 96.68 19.12 98.52 19.12"/><polygon class="cls-2" points="97.32 20.91 97.85 22.41 97.55 21.57 100.56 21.57 100.56 20.91 97.32 20.91"/><rect class="cls-2" x="98.8" y="16.97" width="1.98" height="2.15"/><polygon class="cls-2" points="91.84 9.47 91.84 10.59 95.48 10.59 95.08 9.47 91.84 9.47"/><rect class="cls-2" x="93.76" y="16.97" width="0.06" height="2.15"/><rect class="cls-2" x="91.84" y="20.91" width="1.98" height="0.72"/><rect class="cls-2" x="100.56" y="21.57" width="0.22" height="0.99"/><rect class="cls-2" x="91.84" y="23.29" width="1.98" height="0.59"/><rect class="cls-2" x="98.8" y="9.47" width="1.98" height="1.12"/><polygon class="cls-2" points="111.97 14.76 109.99 14.76 109.67 13.46 110.62 17.35 107.7 17.35 108.64 13.46 108.32 14.76 107.07 14.76 107.07 13.46 106.67 13.46 105.22 19.12 105.45 18.23 112.86 18.23 113.09 19.12 111.64 13.46 111.97 14.76"/><polygon class="cls-2" points="108.14 7.74 110.17 7.74 111.27 12.02 111.27 12.02 110.02 7.12 108.3 7.12 107.04 12.02 107.07 12.02 107.07 11.92 108.14 7.74"/><polygon class="cls-2" points="104.47 22.56 104.47 22.05 104.59 21.57 104.21 23.08 104.34 22.56 104.47 22.56"/><polygon class="cls-2" points="104.47 23.29 106.21 23.29 106.21 23.27 106.21 22.56 104.47 22.56 104.47 23.29"/><polygon class="cls-2" points="113.55 20.92 113.72 21.57 113.44 20.48 113.55 20.92"/><polygon class="cls-2" points="111.97 22.74 112.25 23.88 113.64 23.88 113.64 23.29 112.11 23.29 111.97 22.74"/><rect class="cls-2" x="117.81" y="14.76" width="1.98" height="3.47"/><polygon class="cls-2" points="133.11 20.81 131.24 20.81 131.24 21.24 131.07 20.81 132.23 23.88 132.73 23.88 132.73 21.83 133.5 21.83 134.29 23.88 133.11 20.81"/><path class="cls-2" d="M131.7,7.73h0a4.07,4.07,0,0,1,.49.31A5.66,5.66,0,0,0,131.7,7.73Z"/><path class="cls-2" d="M129.23,7.12H127v.61h4.71A5,5,0,0,0,129.23,7.12Z"/><path class="cls-2" d="M133.69,13h0s0,0,0,.06Z"/><path class="cls-2" d="M130.18,9a2.9,2.9,0,0,1,.94.6,2.6,2.6,0,0,1,.64,1.16h2A4.25,4.25,0,0,0,133.15,9Z"/><path class="cls-2" d="M131.23,18.22v.2h1l.56,1.43-1.54-4a3.89,3.89,0,0,0,1.55-1.12,3.88,3.88,0,0,0,.92-1.72h-2a.11.11,0,0,0,0-.06h2a5.45,5.45,0,0,0,.18-1.31,5.9,5.9,0,0,0-.07-.87,5.87,5.87,0,0,1,.07.86h-2a3.89,3.89,0,0,0,0-.49,3.9,3.9,0,0,1,0,.5,2.8,2.8,0,0,1-.69,2.06,2.48,2.48,0,0,1-1.8.77h-1v.1h4.49l-.11.15h-7.83v3.46h2V16.14h2.41l.86,2.28h0l-.07-.2Z"/><path class="cls-2" d="M133.8,10.77v0Z"/><path class="cls-2" d="M82.43,20.91a6.39,6.39,0,0,1-.54-2A6.39,6.39,0,0,0,82.43,20.91Z"/><path class="cls-2" d="M86.52,20.91a6.68,6.68,0,0,0,.54-2A6.68,6.68,0,0,1,86.52,20.91Z"/><path class="cls-2" d="M82.22,10.59h0a9.22,9.22,0,0,0-.37,1.86A9.3,9.3,0,0,1,82.22,10.59Z"/><path class="cls-2" d="M81.68,15.46a27.2,27.2,0,0,1,.13-2.76c0,.27,0,.56-.07.86h-2v.11c0,.21,0,.43,0,.65s0,.74,0,1.14,0,1,0,1.51h2C81.7,16.5,81.68,16,81.68,15.46Z"/><path class="cls-2" d="M82.87,9.47a2.57,2.57,0,0,1,.78-.53A2.4,2.4,0,0,0,82.87,9.47Z"/><path class="cls-2" d="M85.32,8.94a2.62,2.62,0,0,1,.76.53A2.44,2.44,0,0,0,85.32,8.94Z"/><path class="cls-2" d="M80.74,9.47h0l0-.06Z"/><path class="cls-2" d="M88.18,9.41s0,0,0,.06h0Z"/><path class="cls-2" d="M81.43,22.56h6.09a2.11,2.11,0,0,0,.19-.23H81.23C81.3,22.41,81.36,22.49,81.43,22.56Z"/><path class="cls-2" d="M89.17,13.67a.41.41,0,0,0,0-.11h-2c0-.3,0-.59-.07-.86a27.35,27.35,0,0,1,.13,2.76c0,.54,0,1,0,1.51h2c0-.48,0-1,0-1.51s0-.77,0-1.14S89.19,13.88,89.17,13.67Z"/><path class="cls-2" d="M87.11,12.45a9.15,9.15,0,0,0-.38-1.86h0A9.3,9.3,0,0,1,87.11,12.45Z"/><rect class="cls-2" x="91.84" y="22.33" width="1.98" height="0.23"/><rect class="cls-2" x="100.56" y="23.29" width="0.22" height="0.59"/><polygon class="cls-2" points="98.16 23.29 100.56 23.29 100.56 22.56 97.9 22.56 98.16 23.29"/><rect class="cls-2" x="98.8" y="12.02" width="1.98" height="1.44"/><polygon class="cls-2" points="95.48 10.59 96.04 12.15 96.04 13.46 96.5 13.46 95.48 10.59"/><rect class="cls-2" x="93.76" y="13.46" width="0.06" height="0.1"/><polygon class="cls-2" points="95.14 14.81 95.91 16.97 96.04 16.97 96.04 13.46 94.66 13.46 94.7 13.56 95.14 13.56 95.14 14.81"/><rect class="cls-2" x="91.84" y="13.56" width="1.92" height="3.41"/><polygon class="cls-2" points="104.21 23.08 104 23.88 104.47 23.88 104.47 23.29 104.15 23.29 104.21 23.08"/><polygon class="cls-2" points="111.08 19.12 111.62 21.31 111.38 20.32 111.61 21.27 113.64 21.27 113.55 20.92 113.09 19.12 111.08 19.12"/><polygon class="cls-2" points="106.21 21.57 106.21 21.27 106.7 21.27 106.94 20.32 106.69 21.31 107.23 19.12 105.22 19.12 104.59 21.57 106.21 21.57"/><polygon class="cls-2" points="111.69 21.57 111.93 22.56 113.64 22.56 113.64 23.29 114.16 23.29 114.31 23.88 113.72 21.57 111.69 21.57"/><polygon class="cls-2" points="106.39 22.56 106.63 21.57 106.21 21.57 106.21 22.56 106.39 22.56"/><polygon class="cls-2" points="109.67 13.46 111.64 13.46 111.27 12.02 109.33 12.02 109.67 13.46"/><polygon class="cls-2" points="108.99 12.02 107.07 12.02 107.07 13.46 108.64 13.46 108.99 12.02"/><rect class="cls-2" x="117.81" y="12.99" width="1.98" height="0.06"/><polygon class="cls-2" points="116.86 9.01 117.81 9.01 117.81 10.77 119.78 10.77 119.78 9.01 120.73 9.01 120.73 7.74 116.86 7.74 116.86 9.01"/><rect class="cls-2" x="117.81" y="18.42" width="1.98" height="2.39"/><polygon class="cls-2" points="131.24 18.42 130.17 18.42 131.07 20.81 131.24 20.81 131.24 18.42"/><rect class="cls-2" x="124.93" y="18.42" width="1.98" height="2.39"/><rect class="cls-2" x="124.93" y="12.99" width="1.98" height="0.06"/><polygon class="cls-2" points="126.91 8.75 126.98 8.75 126.98 7.74 124.93 7.74 124.93 10.77 126.91 10.77 126.91 8.75"/></g></g></svg>