<svg xmlns="http://www.w3.org/2000/svg" viewBox="0 0 59 13"><defs><style>.cls-1{fill:none;opacity:0.12;}.cls-2{fill-rule:evenodd;}</style></defs><title>アートボード 23</title><g id="comon"><g id="見出し"><rect class="cls-1" width="59" height="13"/><path class="cls-2" d="M16.39,3.65h-.75l0-1.59a2.86,2.86,0,0,1-.79,0V1.27l-1.59,0V.48H10.93v.75H9.3V2H8.51v.83H7.76c0,.53,0,1.06,0,1.59H7V8.32h.75c0,.53,0,1,0,1.58h.75v.83H9.3v.8h1.63v.75h1.5v-.75l2.38,0a2.92,2.92,0,0,1,0-.8h.75l0-1.58h.75c0-1.11,0-2.22,0-3.33V4.4A3.58,3.58,0,0,1,16.39,3.65ZM14.1,8.36a3.67,3.67,0,0,0,0,.83H13.3v.75l0,0h-.75v.75h-.87V10l-1.54,0V9.15H9.3V3.61h.8V2.77h.75V2h1.66v.75a2.84,2.84,0,0,1,.79,0v.76h.76c0,1.12,0,2.24,0,3.36Z"/><path class="cls-2" d="M25.9.48h-.72a3,3,0,0,1,0,.75V8.4h-.79c0-.53,0-1.06,0-1.59h-.75V5.19h-.79c0-.78,0-1.56,0-2.34H22c0-.52,0-1,0-1.58l-1.59,0V.48h-1.5v.75c-.05,0,0,0,0,0h-.75V11.49l1.54,0a3,3,0,0,1,.75,0V4.36h.83c0,.53,0,1,0,1.58H22l0,1.59h.75c0,.52,0,1,0,1.58h.75c0,.53,0,1.06,0,1.58h.75v.84h2.38V1.23H25.9Z"/><path class="cls-2" d="M37,10h-.75c0-.79,0-1.58,0-2.37h-.75c0-1.06,0-2.12,0-3.17h-.75c0-.79,0-1.59,0-2.38h-.75V1.23H33V.48h-.71v.75h-.83v.83h-.75c0,1.06,0,2.11,0,3.17h-.75c0,.79,0,1.58,0,2.38h-.76l0,2.37h-.75c0,.52,0,1,0,1.55l2.34,0c0-.8,0-1.59,0-2.38h.75V8.36H33.9v.75h.75c0,.79,0,1.58,0,2.38l2.33,0C37,11,37,10.5,37,10ZM33.86,6.81H31.48V5.15h.75l0-2.34h.79l0,3.13h.76Z"/><path class="cls-2" d="M40.94.48h-.71v.75H39.4v10.3H41V1.23A3.54,3.54,0,0,1,40.94.48Z"/><path class="cls-2" d="M51.24,5.94c0-.53,0-1.05,0-1.58H52V2.85h-.75V2h-.79V1.23H48.07V.48H45v.75h-.83v10.3h1.59V6.77h2.37c0,.52,0,1,0,1.55h.75l0,1.58h.76v1.63l2.33,0v-.72h-.75c0-.52,0-1,0-1.58h-.75c0-.53,0-1.06,0-1.58H49.7V6.73h.75a2.86,2.86,0,0,1,0-.79ZM49.7,5.19l-4,0V2.77h.75V2h1.66v.75l1.55,0Z"/></g></g></svg>