<svg xmlns="http://www.w3.org/2000/svg" viewBox="0 0 214 31"><defs><style>.cls-1{fill:none;opacity:0.15;}.cls-2{fill:red;}</style></defs><title>アートボード 155</title><g id="comon"><g id="見出し"><rect class="cls-1" width="214" height="31"/><path class="cls-2" d="M81.82,21.47a2.63,2.63,0,0,1-.38.3,2.37,2.37,0,0,0,.74.38H82l1.53,0a10.26,10.26,0,0,0,1.4-5l-2,0C82.8,19.43,82.43,20.88,81.82,21.47Z"/><path class="cls-2" d="M85.42,12.93a24.1,24.1,0,0,0-.15,2.53c0,.29,0,.57,0,.85l2,0c0-.28,0-.55,0-.85,0-1,.06-1.79.13-2.53Z"/><path class="cls-2" d="M81.44,21.77a3.12,3.12,0,0,1-.37-.29c-.61-.6-1-2-1.1-4.3H78a10.07,10.07,0,0,0,1.37,5H82l-1.24,0A2.45,2.45,0,0,0,81.44,21.77Z"/><path class="cls-2" d="M91.7,11.22l1.91,0A7.54,7.54,0,0,0,93,9.52l-2.11,0,0,0A3.51,3.51,0,0,1,91.7,11.22Z"/><path class="cls-2" d="M91,23.48l3.82-.05a3.52,3.52,0,0,0,.46-.28l-4.76.06A2.82,2.82,0,0,0,91,23.48Z"/><path class="cls-2" d="M81.66,9.56l0,0-2.11,0A8.5,8.5,0,0,0,79,11.21l1.91,0A3.56,3.56,0,0,1,81.66,9.56Z"/><path class="cls-2" d="M79.29,16.33c0-.28,0-.55,0-.85A25,25,0,0,0,79.23,13l-2,0a24.64,24.64,0,0,1,.07,2.53c0,.29,0,.57,0,.84Z"/><polygon class="cls-2" points="100.01 12.47 100.01 12.46 99.33 12.47 100.01 12.47"/><polygon class="cls-2" points="99.32 11.56 98.03 11.56 98.03 12.47 98.5 12.47 98.16 11.57 99.32 11.56"/><polygon class="cls-2" points="99.56 7.14 97.97 7.13 97.95 10.7 99.93 10.71 99.95 7.32 99.51 7.32 99.56 7.14"/><rect class="cls-2" x="74.21" y="21.91" width="1.98" height="0.81" transform="translate(-0.08 0.26) rotate(-0.19)"/><polygon class="cls-2" points="105.22 21.94 105.53 22.74 108.35 22.7 108.34 22.41 108.21 21.89 105.22 21.94"/><polygon class="cls-2" points="100.01 11.55 99.32 11.56 100 11.56 100.01 12.46 100.34 12.46 100.01 11.55"/><polygon class="cls-2" points="98.5 12.48 99.33 12.47 98.5 12.47 98.5 12.48"/><polygon class="cls-2" points="105.1 11.69 104.92 12.47 105.47 12.47 105.28 11.68 105.1 11.69"/><polygon class="cls-2" points="85.58 7.16 85.63 10.73 89.31 10.68 87.98 7.12 85.58 7.16"/><polygon class="cls-2" points="102.13 23.9 104.2 23.89 104.25 23.67 102.19 23.68 102.13 23.9"/><polygon class="cls-2" points="108.65 19.45 108.65 19.82 107.68 19.82 108.21 21.89 108.33 21.89 108.34 22.41 108.72 23.89 110.78 23.88 109.61 19.44 108.65 19.45"/><polygon class="cls-2" points="104.53 12.47 104.53 11.56 106.5 11.56 106.5 12.47 105.47 12.47 105.64 13.15 106.94 13.15 106.92 10.54 106.29 8.17 104.04 8.18 102.79 13.18 104.76 13.16 104.92 12.47 104.53 12.47"/><polygon class="cls-2" points="96.56 14.44 98.54 14.46 98.61 14.19 96.63 14.17 96.56 14.44"/><polygon class="cls-2" points="115.33 14.44 116.31 14.46 116.32 14.19 115.27 14.17 115.33 14.44"/><polygon class="cls-2" points="102.46 14.46 102.46 15.15 102.64 15.15 102.46 14.46"/><polygon class="cls-2" points="99.56 7.13 99.56 7.14 99.95 7.14 99.95 7.32 101.32 7.32 101.27 7.13 99.56 7.13"/><polygon class="cls-2" points="108.33 19.45 108.65 19.45 108.64 18.8 106.67 18.8 106.67 19.82 107.68 19.82 107.59 19.46 108.33 19.45"/><rect class="cls-2" x="114.44" y="5.45" width="0.51" height="3.87" transform="translate(105.59 121.96) rotate(-89.14)"/><rect class="cls-2" x="109.92" y="15.53" width="4.03" height="1.98" transform="translate(94.98 128.38) rotate(-89.78)"/><rect class="cls-2" x="109.8" y="9.31" width="1.98" height="3.48" transform="translate(-0.12 1.26) rotate(-0.65)"/><path class="cls-2" d="M131.73,11.78h2v-.08a4.3,4.3,0,0,0-1.1-3.19,4.78,4.78,0,0,0-3.52-1.39l-4.29,0,0,4.64h2l0-3h1.89a3.17,3.17,0,0,1,2.31.87,2.79,2.79,0,0,1,.77,2.07S131.73,11.75,131.73,11.78Z"/><path class="cls-2" d="M137.65,13.49a2.65,2.65,0,0,1-.21.26,2.43,2.43,0,0,1-1.8.77h-2.49v-1h-2V15.4h7.16a5.36,5.36,0,0,0,.66-.62,4.11,4.11,0,0,0,.8-1.29Z"/><polygon class="cls-2" points="122.39 17.07 122.42 21.43 122.74 22.22 122.43 22.23 122.43 22.27 124.4 22.25 124.36 17.05 122.39 17.07"/><polygon class="cls-2" points="120.64 17.06 118.64 17.09 120.7 22.26 122.43 22.23 122.42 21.43 120.64 17.06"/></g></g></svg>