<svg xmlns="http://www.w3.org/2000/svg" viewBox="0 0 59 13"><defs><style>.cls-1{fill:none;opacity:0.12;}.cls-2{fill-rule:evenodd;}</style></defs><title>アートボード 25</title><g id="comon"><g id="見出し"><rect class="cls-1" width="59" height="13"/><path class="cls-2" d="M19.86,6.92V8.35a4.37,4.37,0,0,0,0,.83h-.76v.75s0,0,0,0H18.3v.75h-.87v-.06h0V10l-1.55,0v-.8h-.79l0-2.64H12.73V8.35h.76c0,.52,0,1.05.05,1.58h.75v.83h.76v.78h1.66v.76h1.5v-.76l2.37,0a2.86,2.86,0,0,1,0-.79h.75l0-1.58h.75c0-.86,0-1.73,0-2.6l-2.33,0Z"/><path class="cls-2" d="M.27,4,1.84,4V3.62h.79V3.1l-2.34,0C.3,3.37.28,3.67.27,4Z"/><path class="cls-2" d="M13,4c0-.12,0-.23,0-.34h-.75V3.09l-2.32,0v.49h.75V4Z"/><rect x="3.7" y="4.8" width="2.34" height="0.05" transform="translate(-0.08 0.08) rotate(-0.99)"/><path class="cls-2" d="M13.07,1.26l-1,0V1.08H10.56v.15l0,0H9.77V2h3.3Z"/><path class="cls-2" d="M10.23,4.53l-2.3,0-.09,7,1.54.06a3.68,3.68,0,0,1,.76,0l.08-6.67,2.22,0V4.81l-2.22,0Z"/><path class="cls-2" d="M29.39,6l0,1.58h.35v-3H28.61l0,1.43Z"/><path class="cls-2" d="M19.91,3.82h.38l1.16,0,0-2.59h-.83V.48H20a2.92,2.92,0,0,1-.05.75l0,2.58h.05Z"/><rect x="16.43" y="1.17" width="0.05" height="3.3" transform="translate(13.57 19.26) rotate(-89.8)"/><path class="cls-2" d="M29.25,9.26H27.57v.49h0V10h-.66v.09h3V10h-.66V9.78h0Z"/><path class="cls-2" d="M34.83,3.21H33.27c0,.3,0,.6,0,.91h1.55C34.82,3.82,34.82,3.52,34.83,3.21Z"/><path class="cls-2" d="M40.31,3.23l0,.91,1.57,0,0-.91Z"/><path class="cls-2" d="M40.7,7.66h-.76c0-1.05,0-2.11,0-3.17H39.2V4.16l-1.56,0c0,.61,0,1.22,0,1.82h.76l0,.88L36,6.8l0-1.66h.75c0-.34,0-.69,0-1l-1.55,0,0,1.1h-.75c0,.79,0,1.58-.08,2.38l-.75,0,0,.76h1.17l0,3.22,1.58,0,0-3.17,4.33.07Z"/><rect x="24.11" y="1.5" width="1.72" height="1.58" transform="translate(22.29 27.23) rotate(-89.1)"/><rect x="29.53" y="5.77" width="3.38" height="1.58" transform="translate(24.21 37.68) rotate(-89.17)"/><path class="cls-2" d="M49.63,10.75h-.76l-.06-1.59-.75,0C48,8.66,48,8.13,48,7.6l-.75,0V7.38l-1.57,0c0,.31,0,.63,0,.94h.75l0,.77h-.21l0,2.43h1.58l1.76-.06Z"/><path class="cls-2" d="M57.78,2.29l-3.12,0v.5l1.54.06v.26l2.34,0V2.88h-.75Z"/><polygon class="cls-2" points="42.33 3.07 43.91 3.08 43.91 2.78 44.66 2.79 44.67 2.28 42.33 2.26 42.33 3.07"/><polygon class="cls-2" points="58.73 1.21 56.31 1.23 56.31 0.47 53.22 0.5 53.22 1.25 52.39 1.26 52.39 1.39 58.73 1.33 58.73 1.21"/></g></g></svg>