<svg xmlns="http://www.w3.org/2000/svg" viewBox="0 0 153 50"><defs><style>.cls-1{fill:#fff;}.cls-2{fill:none;opacity:0.17;}</style></defs><title>アートボード 342</title><g id="ONAIR"><path class="cls-1" d="M88.93,8.44c.89.26.75.08,1,1H97.5v1.65H90.91a10.34,10.34,0,0,0,0,4.29H97.5v2.31H88.6v4h21.76v-4h-9.23V15.37h5.93c.25-.9.08-.75,1-1V12.07c-.9-.25-.75-.08-1-1h-5.93V9.43H109a10.46,10.46,0,0,0,0-4.28h-7.91V.2a7,7,0,0,0-3.3,0,27.28,27.28,0,0,0-.33,5H88.93Z"/><path class="cls-1" d="M143.65,42.74c-.9-.25-.75-.07-1-1H142v-.08h3.15v-1.5h-3.4c0-.13-.05-.26-.07-.39l-1-.33.33-4.29h.66l.33-4h.66l.33-4.95h.66l.33-4.94h.66V21H144l-.33-1c-.9-.25-.75-.08-1-1h-1.32v.66h-8.57V7.78H139v5a13.05,13.05,0,0,0-2.64.33v3.3c.9.25.75.08,1,1h3.29v-.66H142V15.37h.66V15.1h7.06V13.6h-7.06V3.17H129.48c-.67,3.63-.36,8.68-.33,12.86a69.14,69.14,0,0,0-6.93-.33V11.41h4.62a25.34,25.34,0,0,0,.33-4.62h-5V1.52h.66V1.19h-.66l-.33-1h-2.3c-.26.9-.08.75-1,1v5.6a31.54,31.54,0,0,0-4.95.33v4.29h4.95V15.7a44.16,44.16,0,0,0-6.93.33v3.3c.9.25.75.08,1,1h2.64l.33,3h.66l.33,2.3a23.38,23.38,0,0,0-4,.33v4.29a34.09,34.09,0,0,0,5.94.33v4c-.37.28,0,0-.33.33h-5.61v1.56h-5.27V32.52a55.92,55.92,0,0,0-.33-8.58H91.89c-.25.9-.07.76-1,1v6.81H85.3V15.37h1.32v1.32H87c.2.66,0,.28.33.66v-.66H88.6v-1h1l-.33-2.64H88.6a15.68,15.68,0,0,0-.33-3l-1.65-.33v1h-1v.33H85.3c0-2.55.22-5.69.18-8.21h5.43V1.37H85.43c0-.43-.07-.82-.13-1.17H82c-.6,3.23-.36,7.78-.33,11.54H79.37v-.66H79v.66l-1,.33-.33,11.87h-.66V25.5H71.79v-.9H56v1.32H55.3v2.31H56v1.32H71.79V27h6.15v-.2l.11.43a4,4,0,0,0,2.31,0l.33-6.92h1v18.8c0,1.88-.06,4,0,5.94H73.43V41.67h4.51v-1.5H73.43V32.85a61.29,61.29,0,0,0-9.56-.33,61.29,61.29,0,0,0-9.56.33V39H50.69V24.93c0-2.65-.24-6.13.33-8.24l-.33-3H51v-3.3h1.32v4c3.24.59,7.76.33,11.53.33s8.3.26,11.54-.33a10.34,10.34,0,0,0,0-4.29H51.68L52,3.5h.66V2.18l-2-.33V1.19H49.37a19.8,19.8,0,0,0-.33,4h-.66l-.33,5.93h-.66l-.33,4h-.35V14.6h-6.9V4.16c-3.19-.58-9.37-.85-12.53,0l-4.94-.33h-11v-1H1.5V4.37h7a26.37,26.37,0,0,0,.32,4.07h4.95v5.28a22.39,22.39,0,0,0-4,.33c-.89,5-.33,11.62-.33,17.15v.54H3.58v1.51H9.46c0,1.71-.09,3.5-.12,5.28H9.22V40h.1a44.65,44.65,0,0,0,.49,8h2.31a11.76,11.76,0,0,0,.33-2.64h9.89A12.38,12.38,0,0,0,22.67,48H25c.89-5,.32-11.62.32-17.15s.55-12-.32-16.82a25.41,25.41,0,0,0-4.62-.33V8.44H25c.11-.33.21-.66.32-1h1.32v1a56.75,56.75,0,0,0,9.56.33V20.65a60.13,60.13,0,0,0-9.56.33V44.06h.66v2.31H28.6V47a37.28,37.28,0,0,0,11.21,0c.25-.9.08-.75,1-1a19.8,19.8,0,0,0,.33-4h.66V36.81l-2-.33v-.66H38.49l-.33,6.59a42.66,42.66,0,0,1-7.91,0V25.26h5.93v1.32H37.5v.66h1.32c.25-.89.08-.75,1-1V16.11h6.47L46.07,18h-.66l-.08.74H41.79v1.5h3.37c0,.24,0,.49-.08.73h-.66l-.33,2h-.65a6.78,6.78,0,0,0,0,3.29h.65l.33,2h1.32l.33-2h1V49.34A20.37,20.37,0,0,0,50.69,49V40.53h3.62V49a18,18,0,0,0,3.63.33v-2H69.81L70.14,49h3.29V46.56h8.25A25,25,0,0,0,82,50H85.3V33.25h5.61V49c.89.25.75.08,1,1H94.2a56.75,56.75,0,0,0,.33-9.56h9.23v4c-.37.29-.05,0-.33.33h-1.65V47h.66v2.31a28.43,28.43,0,0,0,4.62-.33V47.36h.33V37.89h5.27v1.23a35.1,35.1,0,0,0,5.94.33v1.22h-6.93v1.51h6.93V49c.89.25.75.08,1,1h2.3a42.9,42.9,0,0,0,.37-7.82h2.14V40.67h-2.16c0-.41,0-.82,0-1.22h5.94a28.34,28.34,0,0,0-.33-4.62h-5.61V30.54h5.94a28.43,28.43,0,0,0-.33-4.62,13.56,13.56,0,0,0-3-.33l.33-3.29h.66l.33-2h3v29l5.6-.33c.25-.9.08-.75,1-1l.33-1.65h1V45.05h.66l.33-2h1l.33,1H140l.33,2c.9.25.75.08,1,1,.9.25.75.08,1,1,1.13.32.62.42,1.32,1l.33-2h.66a7,7,0,0,0,0-3.3C143.74,43.48,143.89,43.66,143.65,42.74ZM16.4,8.44h1.32v5.28H16.4Zm-3.95,9.24h1.32l-.33,9.23h-1Zm9.89,23.74H12.45V40H17v-1.5H12.45V37.14h9.89Zm0-8.57H12.45V29.22h1c.08,0,.43,1.23.66,1,.62-.63-.37-.64,1-1l.33-2h.65c.09-2.86.35-6.25.33-9.56h1.32v7.58h.66a15.68,15.68,0,0,0,.33,3,17.22,17.22,0,0,0,3.63.33Zm0-15.17v7.91H21v-.66h-.66V17.68Zm35.6,24.73V37.14H69.81v3H66.29v1.5h3.52v.74Zm45.82-5.93H94.53v-2h9.23Zm0-5.94H94.53V28.23h9.23Zm18.46-5.61h-.66v.66h-1.64v-.66h-.66l-.33-4.61h3.62Zm13.85,15.84h-.66l-.33,1.64h-1v1.32h-1.32V26.25h1.32l.33,5.94h.66l.33,4h.66v1.32h.33Zm1.65-9.9h-.66l-.33-4.95h-.66V24.27a14.42,14.42,0,0,1,4.28.33L140,29.88h-.65l-.33,4h-1Z"/><path class="cls-1" d="M56.29,7.45H71.46a14.36,14.36,0,0,0,0-5.27H56.29c-.25.89-.08.75-1,1V6.46C56.2,6.72,56.05,6.54,56.29,7.45Z"/><path class="cls-1" d="M55.3,18v3.3c.9.25.75.07,1,1H71.46a14.42,14.42,0,0,0,0-5.28H56.29C56,17.92,56.21,17.77,55.3,18Z"/><rect class="cls-1" x="145.14" y="42.98" width="6.36" height="1.5"/><rect class="cls-2" width="153" height="50"/></g></svg>