<svg xmlns="http://www.w3.org/2000/svg" viewBox="0 0 93 13"><defs><style>.cls-1{fill:none;opacity:0.12;}</style></defs><title>アートボード 57</title><g id="comon"><g id="見出し"><rect class="cls-1" width="93" height="13"/><polygon points="10.93 6 9.26 6 9.26 5.33 6.93 5.33 6.92 7.04 11.64 7.04 11.64 6.79 12.31 6.79 12.32 5.33 10.93 5.33 10.93 6"/><path d="M20.32,1.21l-1.47,0V.48L15,.53a3.55,3.55,0,0,1,0,.75v.38l5.39-.07Z"/><path d="M8.38,2.88,10,2.9V2.78h.75V2l1.66,0v.75l1.39,0V1.93L8.39,1.86Z"/><rect x="6.85" y="8.76" width="1.58" height="2.78" transform="translate(-0.05 0.04) rotate(-0.3)"/><rect x="14.18" y="2.04" width="0.74" height="0.77" transform="translate(-0.03 0.21) rotate(-0.81)"/><path d="M32.46,10h-.75c0-.53,0-1.06-.05-1.58h-.75c0-.54,0-1.08-.05-1.62a2.16,2.16,0,0,0,0-.53l-6.29,0,0,5.19h2.3l0-4.67h1.66v.75h.75c0,.53,0,1,.05,1.58h.75v1.62h.79V11l1.4,0v.41h.2C32.49,11,32.48,10.46,32.46,10Z"/><path d="M7.43,1.3,4.26,1.25V1.16H1.17v.08s0,0,0,0H.38V2l7,0Z"/><path d="M32.05,3.65l0-.33-2.33,0V3.6h.75l0,1.46,2.34,0,0-1.38Z"/><path d="M22.23,6.77v.82a7.26,7.26,0,0,0,0,1.63h-.75V10L19,10a3.28,3.28,0,0,0-.79-.05V9.16h-.79V6.75H15.11V8.32h.75V9.94h.79v.18l6.34,0V10h.79V8.35h.75a3.58,3.58,0,0,1,0-.75V6.78Z"/><polygon points="30.92 11.01 27.57 10.96 27.56 11.51 29.18 11.53 29.17 12.28 30.68 12.31 30.69 11.55 32.31 11.58 32.31 11.44 30.93 11.45 30.92 11.01"/><path d="M39.61,3.58h.75a2.35,2.35,0,0,0,0-.26H38V4.45h-.75V5H39.6Z"/><rect x="19.85" y="0.49" width="3.09" height="0.42" transform="translate(0 0.16) rotate(-0.44)"/><path d="M47.05,3.26c0,.37,0,.74,0,1.11h.75l0,3.25h-.75l0,.84,2.36,0,0-4.84a1.79,1.79,0,0,1,0-.36Z"/><path d="M38.6,11.56a3.68,3.68,0,0,1,.76,0l4.75-.07a2.92,2.92,0,0,1,.75,0v-.75l1.58-.07c0-.19,0-.39,0-.58l-7.86.12Z"/><polygon points="43.84 5.47 43.78 5.47 43.75 3.27 41.55 3.26 41.53 8.46 43.83 8.46 43.84 5.47"/><path d="M43.85,3.51v2h.85V1.25a3.64,3.64,0,0,0,0-.76h.5l-1.5,0a3.58,3.58,0,0,1,0,.75l0,2h.09C43.84,3.35,43.85,3.44,43.85,3.51Z"/><path d="M45.37,5.44l-.68,0h1.59V1.25a3.62,3.62,0,0,1,0-.75h-1a3.31,3.31,0,0,0,.06.74Z"/><path d="M57.87,9.21h-.76V10s0,0,0,0H57v.6h1.68c0-.21,0-.43,0-.64h.79l0-2.83H57.89Z"/><path d="M56.31,10v0l.57,0Z"/><path d="M57,10h0Z"/><path d="M56.31,10a3.74,3.74,0,0,1-1,0V9.2h-.75V7.13H53L53,10h.79l0,.64h2.47Z"/><rect x="71.34" y="3" width="1.58" height="0.27" transform="translate(-0.02 0.51) rotate(-0.4)"/><path d="M58.72,3.27h2.33V3H58.72Z"/><polygon points="67.63 1.24 67.62 0.49 65.32 0.5 65.33 1.25 63.7 1.26 63.71 2 69.25 1.96 69.25 1.23 67.63 1.24"/><path d="M78.86,2.82c0-.14,0-.31,0-.46L71,2.29v.47l3.13,0,0,3.56,2.34,0,0-2.68a3.1,3.1,0,0,1,0-.88Z"/><polygon points="84.34 0.59 86.92 0.56 86.92 0.45 83.48 0.49 84.34 0.5 84.34 0.59"/><rect x="79.87" y="0.53" width="2.17" height="0.11" transform="translate(0 1.07) rotate(-0.75)"/><rect x="79.16" y="5.96" width="1.02" height="2.34" transform="translate(72.01 86.75) rotate(-89.62)"/><path d="M90.19,5.23l-1.59,0V4.61l-3.09,0v.54h.75v.47l3.92,0Z"/><path d="M92.62,11.51v-.06l-5.5.07v0H89.5v.75l1.5,0v-.75Z"/><polygon points="82.04 0.48 82.04 0.51 83.48 0.49 82.04 0.48"/><path d="M87.47,3.63V2.92h-.75V2.08H86v-.8H84.33V.59L82,.62v.61l-1.59,0-.06,1.58h-.75l0,1.48,2.3,0A6.5,6.5,0,0,1,82,2.77h.75V2l1.62,0v.79h.79v.79Z"/></g></g></svg>