<svg xmlns="http://www.w3.org/2000/svg" viewBox="0 0 214 31"><defs><style>.cls-1{fill:none;opacity:0.15;}.cls-2{fill:red;}</style></defs><title>アートボード 169</title><g id="comon"><g id="見出し"><rect class="cls-1" width="214" height="31"/><rect class="cls-2" x="64.29" y="16.85" width="1.98" height="3.15"/><path class="cls-2" d="M72.26,8.61h-8v1.3h2V8.75h2a3.25,3.25,0,0,1,2.4.86,1.76,1.76,0,0,1,.24.3H73A4.15,4.15,0,0,0,72.26,8.61Z"/><path class="cls-2" d="M71.24,10.63s0-.08,0-.12a3.61,3.61,0,0,1,.18.77h1.89c0,.21,0,.42,0,.65a6.62,6.62,0,0,0-.15-1.3Z"/><path class="cls-2" d="M73.09,10.27c0,.11,0,.24.08.36h0C73.16,10.5,73.12,10.39,73.09,10.27Z"/><rect class="cls-2" x="64.29" y="10.63" width="1.98" height="0.65"/><polygon class="cls-2" points="82.44 17.44 80.44 17.44 82.87 23.88 84.93 23.88 82.23 16.9 82.44 17.44"/><path class="cls-2" d="M84.4,10.63a3.88,3.88,0,0,0-.14-.61,5.45,5.45,0,0,1,.14.61Z"/><path class="cls-2" d="M84.47,11.28a1.36,1.36,0,0,0,0-.21c0,.07,0,.14,0,.21Z"/><path class="cls-2" d="M84.45,11.07c0-.11,0-.24,0-.35,0,.11,0,.23,0,.35Z"/><rect class="cls-2" x="75.56" y="11.28" width="1.15" height="4.15"/><path class="cls-2" d="M82.52,11.68a2.6,2.6,0,0,0,0-.4h0A2.6,2.6,0,0,1,82.52,11.68Z"/><rect class="cls-2" x="75.56" y="17.44" width="1.98" height="6.44"/><rect class="cls-2" x="76.71" y="9.91" width="0.83" height="0.11"/><path class="cls-2" d="M82.08,10h2.18a.54.54,0,0,0-.05-.11H82Z"/><rect class="cls-2" x="75.56" y="8.61" width="1.15" height="1.3"/><path class="cls-2" d="M86.59,11.5a1.42,1.42,0,0,1,0-.22h0A1.7,1.7,0,0,0,86.59,11.5Z"/><path class="cls-2" d="M86.25,16.79h0c0-.43,0-.87,0-1.33C86.22,15.92,86.23,16.36,86.25,16.79Z"/><path class="cls-2" d="M86.3,17.44h0l0-.38Z"/><path class="cls-2" d="M92.66,21.47a2.28,2.28,0,0,1-1.63.78,2.38,2.38,0,0,1-1.72-.78c-.58-.58-.93-1.93-1.06-4h-2c.2,2.52.8,4.31,1.81,5.32A3.93,3.93,0,0,0,91,23.88a3.84,3.84,0,0,0,2.84-1.12c1-1,1.61-2.79,1.81-5.32h-2C93.59,19.54,93.24,20.89,92.66,21.47Z"/><path class="cls-2" d="M95.68,17.44h0l0-.59h0Z"/><path class="cls-2" d="M95.73,16.52v0h0Z"/><path class="cls-2" d="M95.28,11a2,2,0,0,0-.07-.23l0,.05C95.24,10.91,95.27,11,95.28,11Z"/><path class="cls-2" d="M95.14,10.57c-.06-.19-.11-.38-.17-.55h0c.06.17.12.36.18.55Z"/><path class="cls-2" d="M95.33,11.22c0-.06,0-.13,0-.2l0,.14S95.32,11.2,95.33,11.22Z"/><path class="cls-2" d="M95.53,12.21h0a.09.09,0,0,0,0,0A.13.13,0,0,1,95.53,12.21Z"/><path class="cls-2" d="M93.72,8.11v1.8h.9V9.33a4.48,4.48,0,0,0-.76-1.09,3.59,3.59,0,0,0-.78-.58,3.58,3.58,0,0,1,.56.4h-1.3v0Z"/><path class="cls-2" d="M94.63,10H95l0-.11h-.28Z"/><path class="cls-2" d="M94.92,9.91l-.09-.2a1.67,1.67,0,0,0,.08.2Z"/><path class="cls-2" d="M93,9.91l-.06-.07A1.08,1.08,0,0,1,93,10h.73V9.91Z"/><path class="cls-2" d="M89,10c0-.07.08-.12.11-.18l0,.07h-2A1.17,1.17,0,0,0,87,10Z"/><path class="cls-2" d="M100.92,7.12H99.4v.94H98v0h6.45A6.07,6.07,0,0,0,100.92,7.12Z"/><path class="cls-2" d="M106.18,10.23l0,0h0l.14.3h0a6.56,6.56,0,0,0-.59-1.12,3.91,3.91,0,0,1,.31.57h0A2,2,0,0,1,106.18,10.23Z"/><rect class="cls-2" x="98" y="9.91" width="1.15" height="0.11"/><path class="cls-2" d="M106.82,12.28h-1.41v4.14h1.68c0-.28,0-.57,0-.88A16.66,16.66,0,0,0,106.82,12.28Z"/><path class="cls-2" d="M106.72,11.82c0,.15.07.31.1.46h0C106.8,12.12,106.76,12,106.72,11.82Z"/><path class="cls-2" d="M107.05,17.12c0-.21,0-.43,0-.66,0,.23,0,.44,0,.66Z"/><path class="cls-2" d="M107.09,16.42h0v0Z"/><path class="cls-2" d="M103.59,9.87l.12.15h0Z"/><path class="cls-2" d="M107.05,17.12h0a1,1,0,0,0,0,.17C107,17.24,107.05,17.18,107.05,17.12Z"/><path class="cls-2" d="M107,17.44h0a1.62,1.62,0,0,1,0,.22A1.5,1.5,0,0,0,107,17.44Z"/><path class="cls-2" d="M100.92,22.25H100V17.44H98v6.44h2.92a5.94,5.94,0,0,0,4.39-1.72,4.4,4.4,0,0,0,.78-1.11H104.8V18.11c0-.14,0-.29,0-.44A5.59,5.59,0,0,1,103.67,21,3.75,3.75,0,0,1,100.92,22.25Z"/><rect class="cls-2" x="109.44" y="7.12" width="1.98" height="0.99"/><path class="cls-2" d="M115.89,21.05h0a1.7,1.7,0,0,1-.26.34,2.32,2.32,0,0,1-1.72.6h-.08a2.45,2.45,0,0,1-1.81-.6,1.42,1.42,0,0,1-.25-.34h-2.1a5.66,5.66,0,0,1-.16-.76,4.4,4.4,0,0,0,1.22,2.64,4.26,4.26,0,0,0,3.1.95h.08a4.25,4.25,0,0,0,3.09-.95,4.36,4.36,0,0,0,1.23-2.64,5.65,5.65,0,0,1-.17.76Z"/><rect class="cls-2" x="109.44" y="12.28" width="1.98" height="1.68"/><rect class="cls-2" x="116.32" y="7.12" width="1.98" height="0.99"/><rect class="cls-2" x="116.32" y="10.27" width="1.98" height="0.3"/><rect class="cls-2" x="116.32" y="13.96" width="1.98" height="2.46"/><path class="cls-2" d="M129.43,10.88c0-.08,0-.17-.05-.26a1.7,1.7,0,0,0,0,.22Z"/><polygon class="cls-2" points="129.38 10.62 129.38 10.62 129.38 10.62 129.38 10.62"/><path class="cls-2" d="M129.55,11.52h0l0,.17C129.57,11.64,129.56,11.59,129.55,11.52Z"/><path class="cls-2" d="M129.38,10.62a1.12,1.12,0,0,1,0-.13l0,.13Z"/><polygon class="cls-2" points="121.13 10.62 121.13 10.62 121.13 10.62 121.13 10.62"/><path class="cls-2" d="M125.84,8.81a1.74,1.74,0,0,1,.88.46,2.91,2.91,0,0,1,.58,1v0h2A5.71,5.71,0,0,0,128,8.11h-2.12v.7Z"/><path class="cls-2" d="M125.84,7.16a3.39,3.39,0,0,1,.57.1,4.47,4.47,0,0,0-1.07-.14,3.7,3.7,0,0,0-2.5,1h3Z"/><path class="cls-2" d="M123.13,10.61c.09-.2.2-.38.3-.56,0,.07-.09.14-.13.22h-2c-.05.1-.1.2-.14.3h2S123.13,10.59,123.13,10.61Z"/><path class="cls-2" d="M127.75,13c0-.24,0-.46,0-.68h0C127.72,12.5,127.74,12.72,127.75,13Z"/><path class="cls-2" d="M120.65,12.28h0c-.05.24-.11.46-.15.71C120.54,12.74,120.6,12.52,120.65,12.28Z"/><path class="cls-2" d="M122.33,14h-2c-.06.63-.1,1.3-.1,2,0,.16,0,.3,0,.45h2a1.64,1.64,0,0,0,0,.23c0-.28,0-.55,0-.85C122.25,15.14,122.28,14.53,122.33,14Z"/><path class="cls-2" d="M127,21.05a.08.08,0,0,1,0,0,2.31,2.31,0,0,1-.27.38,2.05,2.05,0,0,1-1.47.68,2.12,2.12,0,0,1-1.54-.68,3.12,3.12,0,0,1-.32-.4s0,.05,0,.06h-2.15a6.18,6.18,0,0,0,1.14,1.63,3.95,3.95,0,0,0,5.67,0,5.22,5.22,0,0,0,1.2-2.37,7.14,7.14,0,0,1-.24.74Z"/><path class="cls-2" d="M122.44,18.45c0,.22.09.41.14.6a12.36,12.36,0,0,1-.3-2.4c0,.16,0,.33,0,.47h-2c0-.23,0-.45,0-.7,0,.25,0,.47,0,.7h0c0,.15,0,.27,0,.41h0c0,.18,0,.36.06.53h0c0,.13,0,.27,0,.39h2Z"/><polygon class="cls-2" points="134.35 16.32 134.35 17.12 136.33 17.12 136.33 13.96 134.35 13.96 134.35 16.32"/><rect class="cls-2" x="134.35" y="18.45" width="1.98" height="3.44"/><rect class="cls-2" x="131" y="7.12" width="1.95" height="0.21"/><rect class="cls-2" x="137.48" y="7.12" width="1.18" height="0.21"/><polygon class="cls-2" points="132.95 8.12 131 8.12 131 8.75 134.35 8.75 134.35 10.62 136.33 10.62 136.33 8.75 137.48 8.75 137.48 7.33 132.95 7.33 132.95 8.12"/><polygon class="cls-2" points="143.96 7.33 143.97 7.33 143.97 7.33 143.96 7.33"/><path class="cls-2" d="M144,7.33h2.57a5,5,0,0,0-1.39-.21A3.62,3.62,0,0,0,144,7.33Z"/><path class="cls-2" d="M147,7.48l.14,0h0Z"/><path class="cls-2" d="M142.89,7.87l0,0h0A.1.1,0,0,1,142.89,7.87Z"/><path class="cls-2" d="M142.49,19.41v-.77h-2v.86a4.35,4.35,0,0,0,.71,2.39h2.54a2.36,2.36,0,0,1-.59-.42A2.83,2.83,0,0,1,142.49,19.41Z"/><path class="cls-2" d="M141.42,22.21c-.08-.11-.14-.22-.2-.32h0Z"/><path class="cls-2" d="M149.62,18.45h-2.14a2.29,2.29,0,0,1,.25,1.05,2.68,2.68,0,0,1-.77,2,2.15,2.15,0,0,1-.64.42H149a4.89,4.89,0,0,0,.71-2.65A4,4,0,0,0,149.62,18.45Z"/><path class="cls-2" d="M148.88,22.11l.15-.22h0A2.39,2.39,0,0,1,148.88,22.11Z"/><path class="cls-2" d="M145.59,16.8h0l-1-.7Z"/><path class="cls-2" d="M148.51,16.55a3.2,3.2,0,0,1,.27.25h0A3.2,3.2,0,0,0,148.51,16.55Z"/><path class="cls-2" d="M93.28,10.71h0a3,3,0,0,0-.13-.36C93.2,10.47,93.24,10.59,93.28,10.71Z"/><path class="cls-2" d="M104,10.37h0a3,3,0,0,0-.25-.34A2.41,2.41,0,0,1,104,10.37Z"/><path class="cls-2" d="M70.88,9.91a2.86,2.86,0,0,1,.32.6,2.27,2.27,0,0,0-.31-.6Z"/><path class="cls-2" d="M64.29,16.79h2v0h2.49A4.38,4.38,0,0,0,72,15.54l.09-.11H64.29Z"/><path class="cls-2" d="M71,7.63v.43h.68A3.4,3.4,0,0,0,71,7.63Z"/><path class="cls-2" d="M84.23,9.91a3.69,3.69,0,0,0-.3-.67,4.48,4.48,0,0,1,.28.67Z"/><path class="cls-2" d="M79.86,7.12h-4.3v.94h7.29A4.91,4.91,0,0,0,79.86,7.12Z"/><rect class="cls-2" x="75.56" y="10.02" width="1.15" height="0.61"/><rect class="cls-2" x="76.71" y="10.63" width="0.83" height="0.65"/><path class="cls-2" d="M84.4,10.65v0h-2a2.68,2.68,0,0,1,.13.65h2c0-.07,0-.14,0-.21A2.84,2.84,0,0,0,84.4,10.65Z"/><path class="cls-2" d="M84.42,10.72a.28.28,0,0,0,0-.09h0v0A.14.14,0,0,1,84.42,10.72Z"/><polygon class="cls-2" points="81.84 15.89 82.18 16.79 80.19 16.79 80.21 16.85 82.21 16.85 81.84 15.89"/><rect class="cls-2" x="75.56" y="16.79" width="1.98" height="0.07"/><path class="cls-2" d="M94.63,9.29v0c.07.13.14.25.2.38C94.76,9.57,94.7,9.42,94.63,9.29Z"/><path class="cls-2" d="M95.72,16.85a2.71,2.71,0,0,0,0-.29,2.83,2.83,0,0,1,0,.29Z"/><path class="cls-2" d="M93.77,16.42c0,.15,0,.29,0,.43h2a2.83,2.83,0,0,0,0-.29.66.66,0,0,1,0-.14Z"/><path class="cls-2" d="M88.57,7.87l.22-.14.11-.07A1.85,1.85,0,0,0,88.57,7.87Z"/><path class="cls-2" d="M92.35,8.06V7.33A4.3,4.3,0,0,0,91,7.12a4.16,4.16,0,0,0-2.24.61,3.83,3.83,0,0,0-.46.33Z"/><path class="cls-2" d="M95.16,10.63s0,0,0-.06h-.51V10h-.9v.61h-.47s0,0,0,.08.11.37.16.59v0c0,.1,0,.22.07.33v0c0,.12.05.24.07.37l-.06-.34c0,.22.08.43.11.68h1.93s0,0,0-.06c-.06-.37-.14-.72-.22-1.06,0-.11,0-.21-.08-.32Z"/><path class="cls-2" d="M95.21,10.79a1.8,1.8,0,0,0-.06-.22h0l0,.06A1.42,1.42,0,0,1,95.21,10.79Z"/><path class="cls-2" d="M88.2,15.46c0-.93,0-1.75.09-2.47v-.71h.08c0-.25.07-.47.11-.68l-.06.34c0-.13,0-.25.07-.37v0a2.72,2.72,0,0,1,.07-.33v0a5.08,5.08,0,0,1,.16-.59,3.59,3.59,0,0,1,.12-.35l-.12.34s0,0,0-.07H86.8c-.06.2-.11.43-.16.65h1.2v5.51H86.25a.13.13,0,0,0,0,.06h2C88.21,16.41,88.2,16,88.2,15.46Z"/><rect class="cls-2" x="98" y="10.57" width="1.15" height="1.71"/><path class="cls-2" d="M106.36,10.62q.17.44.3.93-.14-.5-.3-.93h0s0,0,0,0H104.8v1.71h.61V10.62Z"/><path class="cls-2" d="M105.41,16.42H105c0,.45-.06.86-.1,1.25a1.81,1.81,0,0,0,0-.23H107l0-.32h-1.63Z"/><path class="cls-2" d="M106.14,21a.41.41,0,0,1,0,.09h0A.36.36,0,0,0,106.14,21Z"/><path class="cls-2" d="M104.8,13v-.72h-.12Q104.76,12.63,104.8,13Z"/><rect class="cls-2" x="99.15" y="12.28" width="0.83" height="4.14"/><rect class="cls-2" x="98" y="16.42" width="1.15" height="0.43"/><rect class="cls-2" x="99.15" y="10.02" width="0.83" height="0.55"/><path class="cls-2" d="M106.2,10.27l0,0a2.25,2.25,0,0,0-.12-.21h-2.35a3,3,0,0,1,.25.34.75.75,0,0,1,.07.12,4.16,4.16,0,0,1,.23.42c-.07-.15-.15-.29-.22-.42a.41.41,0,0,0,0,.09h.71v-.3Z"/><rect class="cls-2" x="109.44" y="10.02" width="1.98" height="0.25"/><rect class="cls-2" x="109.44" y="10.57" width="1.98" height="0.05"/><path class="cls-2" d="M111.77,21.05a2.3,2.3,0,0,1-.24-.64A2.3,2.3,0,0,0,111.77,21.05Z"/><path class="cls-2" d="M111.5,20.25a4.36,4.36,0,0,1-.08-.84A4.36,4.36,0,0,0,111.5,20.25Z"/><rect class="cls-2" x="109.44" y="17.44" width="1.98" height="1.01"/><rect class="cls-2" x="109.44" y="16.42" width="1.98" height="0.7"/><rect class="cls-2" x="116.32" y="17.12" width="1.98" height="1.33"/><path class="cls-2" d="M116.22,20.24a3.5,3.5,0,0,0,.1-.83A3.5,3.5,0,0,1,116.22,20.24Z"/><rect class="cls-2" x="116.32" y="10.62" width="1.98" height="1.66"/><path class="cls-2" d="M121.28,10.27h0l0,0Z"/><path class="cls-2" d="M120.63,12.28h0c0-.14,0-.29.09-.43C120.7,12,120.66,12.13,120.63,12.28Z"/><path class="cls-2" d="M120.65,12.28h1.93a7.11,7.11,0,0,1,.55-1.67h-2a9.76,9.76,0,0,0-.33,1h0l0,.11,0,.07h0C120.7,12,120.68,12.14,120.65,12.28Z"/><path class="cls-2" d="M121.15,10.57s0,0,0,0,0,0,0,0Z"/><path class="cls-2" d="M127.92,8.07l0,0h0Z"/><path class="cls-2" d="M123.39,21a5.22,5.22,0,0,1-.78-1.76A5.22,5.22,0,0,0,123.39,21Z"/><path class="cls-2" d="M127.43,10.62c0-.12-.09-.22-.13-.33a7.22,7.22,0,0,1,.39,2h0c0-.17,0-.33,0-.49,0,.16,0,.32,0,.49h1.92c0-.26,0-.5-.08-.75s-.08-.47-.13-.69l-.06-.22Z"/><path class="cls-2" d="M129.27,10.27h0a1.43,1.43,0,0,1,.08.22A1.8,1.8,0,0,0,129.27,10.27Z"/><path class="cls-2" d="M127.66,17.43c0,.38,0,.73-.06,1.06v0h2c0-.33.08-.66.1-1Z"/><path class="cls-2" d="M129.63,18.45h0c0,.07,0,.14,0,.21Z"/><rect class="cls-2" x="138.67" y="7.33" width="1.19" height="0.21"/><path class="cls-2" d="M146.54,7.33a3.26,3.26,0,0,1,.44.15c-.12-.05-.23-.11-.35-.15Z"/><path class="cls-2" d="M141.5,10.62h-.43v.07a3.64,3.64,0,0,0,0,.81,4.22,4.22,0,0,0,.47,1.81Z"/><path class="cls-2" d="M141.54,9.33c.06-.09.12-.19.19-.28a1.74,1.74,0,0,1,.11-.18A4,4,0,0,0,141.54,9.33Z"/><path class="cls-2" d="M143.69,9.44a2.08,2.08,0,0,1,2.92,0,2.69,2.69,0,0,1,.69,2.32h2a4.65,4.65,0,0,0-1.21-3.61,3.12,3.12,0,0,0-.95-.62h-3.64l.06,0s0,0-.07,0h0l-.05,0-.15.08.1,0-.43.25a4.59,4.59,0,0,0-.61.48,3.94,3.94,0,0,0-.59.73c-.08.12-.16.23-.23.35v1.22H143A2.65,2.65,0,0,1,143.69,9.44Z"/><path class="cls-2" d="M144.12,13.39a.8.8,0,0,1-.13-.13V14h.82Q144.47,13.69,144.12,13.39Z"/><path class="cls-2" d="M142.49,14.51c.48.4,1,.78,1.5,1.15V14h-2.05A3.57,3.57,0,0,0,142.49,14.51Z"/><polygon class="cls-2" points="148.78 16.8 145.59 16.8 145.6 16.8 148.79 16.8 148.78 16.8"/></g></g></svg>