<svg xmlns="http://www.w3.org/2000/svg" viewBox="0 0 214 31"><defs><style>.cls-1{opacity:0.45;}.cls-2{fill:red;}.cls-3{opacity:0.35;}.cls-4{fill:#fff;}.cls-5{fill:none;opacity:0.15;}</style></defs><title>アートボード 133</title><g id="comon"><g id="見出し"><rect x="7.85" y="2.61" width="198.43" height="26.17"/><g class="cls-1"><path class="cls-2" d="M12.75,28.84H7.16V2.16H18.05a14.19,14.19,0,0,1,7.87,1.93h0A6.77,6.77,0,0,1,29.15,10,6.76,6.76,0,0,1,25.92,16a14.19,14.19,0,0,1-7.87,1.93h-5.3Zm-4.59-1h3.59V16.91h6.3a13.21,13.21,0,0,0,7.32-1.76A5.74,5.74,0,0,0,28.15,10a5.76,5.76,0,0,0-2.78-5.12,13.32,13.32,0,0,0-7.32-1.76H8.16Zm8.69-12.43h-5.1V4.67h5.1a10.71,10.71,0,0,1,5.87,1.39,4.47,4.47,0,0,1,2,4,4.46,4.46,0,0,1-2,4A10.62,10.62,0,0,1,16.85,15.41Zm-4.1-1h4.1a9.67,9.67,0,0,0,5.32-1.24A3.46,3.46,0,0,0,23.75,10,3.48,3.48,0,0,0,22.17,6.9a9.67,9.67,0,0,0-5.32-1.23h-4.1Z"/><path class="cls-2" d="M56.53,28.84h-6L43.78,17H39V28.84h-5.6V2.16H43.86a15.23,15.23,0,0,1,8.48,2.19h0a6,6,0,0,1,2.82,5.29,6.1,6.1,0,0,1-2.81,5.15,11,11,0,0,1-3.12,1.62Zm-5.38-1h3.64L47.68,15.75l.68-.15A9.13,9.13,0,0,0,51.77,14a5.09,5.09,0,0,0,2.39-4.34,5,5,0,0,0-2.37-4.45,14.21,14.21,0,0,0-7.93-2H34.37V27.84H38V16h6.38ZM44.26,14.49H38V4.67h4.9a10.3,10.3,0,0,1,5.67,1.39,4.12,4.12,0,0,1,2,3.58,4,4,0,0,1-1.82,3.58h0A8,8,0,0,1,44.26,14.49Zm-5.29-1h5.29a7,7,0,0,0,3.93-1.11,3,3,0,0,0,1.37-2.74A3.12,3.12,0,0,0,48,6.9a9.28,9.28,0,0,0-5.12-1.23H39Z"/><path class="cls-2" d="M69.85,28.84A12.71,12.71,0,0,1,62.78,27c-3.07-2-4.62-5.92-4.62-11.61S59.71,6,62.78,4a12.71,12.71,0,0,1,7.07-1.8A12.35,12.35,0,0,1,76.73,4c3.06,2,4.62,5.88,4.62,11.47S79.79,25,76.73,27A12.32,12.32,0,0,1,69.85,28.84Zm0-25.68a11.75,11.75,0,0,0-6.52,1.63c-2.77,1.83-4.17,5.41-4.17,10.64s1.4,9,4.17,10.78a11.73,11.73,0,0,0,6.52,1.63,11.38,11.38,0,0,0,6.33-1.63c2.76-1.83,4.17-5.45,4.17-10.78S78.94,6.62,76.17,4.79A11.34,11.34,0,0,0,69.85,3.16Zm0,23.17a7.63,7.63,0,0,1-4.27-1.26c-1.9-1.25-2.82-4.4-2.82-9.64s.92-8.25,2.82-9.5a7.63,7.63,0,0,1,4.27-1.26,7.33,7.33,0,0,1,4.08,1.26c1.9,1.26,2.82,4.36,2.82,9.5s-.92,8.39-2.82,9.64A7.33,7.33,0,0,1,69.85,26.33Zm0-20.66a6.65,6.65,0,0,0-3.72,1.1c-1.58,1-2.37,4-2.37,8.66s.79,7.77,2.37,8.8a6.53,6.53,0,0,0,7.25,0c1.57-1,2.37-4,2.37-8.8S75,7.81,73.38,6.77A6.35,6.35,0,0,0,69.85,5.67Z"/><path class="cls-2" d="M92.87,28.84h-7.3V2.16h7.3c4.21,0,7.6.83,10.07,2.46h0c3.2,2.11,4.82,5.79,4.82,11s-1.49,8.62-4.42,10.55A18.79,18.79,0,0,1,92.87,28.84Zm-6.3-1h6.3a17.81,17.81,0,0,0,9.92-2.55c2.63-1.74,4-5,4-9.72s-1.47-8.21-4.37-10.12c-2.31-1.52-5.51-2.29-9.52-2.29h-6.3Zm6.3-1.51h-2.7V4.67h2.7a11.57,11.57,0,0,1,6.47,1.79c2.27,1.5,3.42,4.56,3.42,9.11s-1.08,7.43-3.22,8.84A11.9,11.9,0,0,1,92.87,26.33Zm-1.7-1h1.7A10.94,10.94,0,0,0,99,23.57c1.84-1.21,2.77-3.9,2.77-8s-1-7-3-8.28a10.61,10.61,0,0,0-5.92-1.62h-1.7Z"/><path class="cls-2" d="M123.08,28.84h-.2c-3.47,0-5.91-.5-7.48-1.53a6.67,6.67,0,0,1-3.22-5.82V2.16h5.6V21.49A2.86,2.86,0,0,0,119,24.1a7.29,7.29,0,0,0,3.93.84h.2a6.81,6.81,0,0,0,3.72-.84,2.92,2.92,0,0,0,1.37-2.61V2.16h5.6V21.49a6.65,6.65,0,0,1-3.22,5.82C129,28.34,126.54,28.84,123.08,28.84Zm-9.9-25.68V21.49a5.63,5.63,0,0,0,2.78,5c1.37.91,3.7,1.37,6.92,1.37h.2c3.21,0,5.54-.46,6.92-1.37a5.64,5.64,0,0,0,2.77-5V3.16h-3.6V21.49a3.9,3.9,0,0,1-1.82,3.45,7.82,7.82,0,0,1-4.27,1h-.2a8.17,8.17,0,0,1-4.48-1,3.86,3.86,0,0,1-1.62-3.45V3.16Z"/><path class="cls-2" d="M149.46,28.84a12.24,12.24,0,0,1-6.87-1.93c-3.46-2.28-5.22-5.88-5.22-10.69,0-5.59,1.89-9.67,5.62-12.13a11.9,11.9,0,0,1,6.67-1.93,11.42,11.42,0,0,1,6.28,1.53,8.63,8.63,0,0,1,4.22,8l0,.48h-5.35l0-.48c-.12-2.63-.85-4.4-2.17-5.27a6,6,0,0,0-5.85.13C144.24,8.15,143,11.33,143,16c0,4,1.07,6.76,3.17,8.14a5.9,5.9,0,0,0,3.32,1,5.57,5.57,0,0,0,3.13-1c1.18-.78,1.85-2.68,2-5.66l0-.48h5.83l0,.55c-.42,4.09-1.77,6.92-4,8.4A12.27,12.27,0,0,1,149.46,28.84Zm.2-25.68a11,11,0,0,0-6.12,1.76c-3.43,2.26-5.17,6.07-5.17,11.3,0,4.52,1.56,7.74,4.77,9.86a12.25,12.25,0,0,0,12.65,0c1.89-1.25,3.07-3.64,3.51-7.12h-3.76c-.2,3.09-1,5-2.4,6a6.63,6.63,0,0,1-3.68,1.13,6.93,6.93,0,0,1-3.87-1.13c-2.4-1.59-3.62-4.61-3.62-9,0-5,1.42-8.44,4.22-10.29a6.16,6.16,0,0,1,3.47-1,6.25,6.25,0,0,1,3.48.87c1.51,1,2.38,2.87,2.59,5.58h3.44a7.58,7.58,0,0,0-3.78-6.59A10.38,10.38,0,0,0,149.66,3.16Z"/><path class="cls-2" d="M175.73,28.84h-5.6V5.67h-7.8V2.16h21.59V5.67h-8.19Zm-4.6-1h3.6V4.67h8.19V3.16H163.33V4.67h7.8Z"/><path class="cls-2" d="M195.55,28.84c-3.29,0-5.87-.61-7.67-1.8-2.27-1.49-3.43-3.32-3.43-5.42V19.81h5.6v1.68a3,3,0,0,0,1.37,2.74,6.63,6.63,0,0,0,3.73,1,8.34,8.34,0,0,0,4.52-1,3,3,0,0,0,1.58-2.61c0-1.1-.82-2-2.5-2.7-3.33-1.4-6.5-2.91-9.44-4.49-2.28-1.22-3.51-2.91-3.66-5s.94-3.91,3.24-5.33a12.93,12.93,0,0,1,6.86-1.92,12.77,12.77,0,0,1,7.07,1.67,6.29,6.29,0,0,1,3,6l0,.47h-5.67l.1-.58a2.79,2.79,0,0,0-1.38-3,6.21,6.21,0,0,0-6.24,0A2.85,2.85,0,0,0,191.05,9c0,.95.86,1.91,2.55,2.86a60,60,0,0,0,8.32,3.92c3.27,1.21,4.92,3,4.92,5.47a6.53,6.53,0,0,1-3.22,5.68A14.62,14.62,0,0,1,195.55,28.84Zm-10.1-8v.81c0,1.77,1,3.27,3,4.59,1.64,1.08,4,1.63,7.12,1.63a13.73,13.73,0,0,0,7.52-1.76,5.52,5.52,0,0,0,2.77-4.85c0-2-1.39-3.47-4.27-4.54h0a62.1,62.1,0,0,1-8.47-4c-2-1.16-3-2.38-3-3.73a3.84,3.84,0,0,1,2-3.18,7.25,7.25,0,0,1,7.35,0,3.76,3.76,0,0,1,1.89,3.47h3.55a5.29,5.29,0,0,0-2.59-4.61,13.45,13.45,0,0,0-12.86.27c-2,1.22-2.88,2.67-2.76,4.41s1.15,3.14,3.14,4.2c2.91,1.57,6.05,3.07,9.35,4.46,2.06.87,3.11,2.09,3.11,3.62a4,4,0,0,1-2,3.45,9.22,9.22,0,0,1-5.07,1.13,7.65,7.65,0,0,1-4.27-1.13,4,4,0,0,1-1.83-3.58v-.68Z"/></g><g class="cls-3"><path class="cls-4" d="M20.07,11.19c2.14.52,3.21,1.24,3.21,2.17S22.21,15,20.07,15.53a36.14,36.14,0,0,1-8.11.72H5.76v4.28H.85V10.47H12A36.14,36.14,0,0,1,20.07,11.19Zm-14.31.26v3.82h4.91a26.52,26.52,0,0,0,6-.52c1.28-.31,1.92-.77,1.92-1.39s-.64-1.08-1.92-1.39a26.52,26.52,0,0,0-6-.52Z"/><path class="cls-4" d="M48.3,11.3c1.85.44,2.77,1.08,2.77,1.91s-.92,1.37-2.77,1.85a20.86,20.86,0,0,1-3.85.67l7.69,4.8H47l-7.26-4.64h-6v4.64H28.86V10.47H39.54A38.33,38.33,0,0,1,48.3,11.3Zm-3.85,3.14q1.71-.4,1.71-1.23c0-.52-.64-.93-1.92-1.24a25.27,25.27,0,0,0-5.77-.52h-4.7v3.46H40A19.2,19.2,0,0,0,44.45,14.44Z"/><path class="cls-4" d="M79.06,15.47q0,3.26-4.7,4.39a31.29,31.29,0,0,1-7,.67A32.43,32.43,0,0,1,60,19.86q-4.69-1.14-4.69-4.39T60,11.14a32.43,32.43,0,0,1,7.27-.67,31.29,31.29,0,0,1,7,.67Q79.05,12.28,79.06,15.47Zm-18.8,0A3.33,3.33,0,0,0,63,19.08a18.13,18.13,0,0,0,4.27.47,17.3,17.3,0,0,0,4.06-.47,3.33,3.33,0,0,0,2.77-3.61,3.3,3.3,0,0,0-2.77-3.55,17.3,17.3,0,0,0-4.06-.47,18.13,18.13,0,0,0-4.27.47A3.3,3.3,0,0,0,60.26,15.47Z"/><path class="cls-4" d="M102.36,11.4q4.92,1.18,4.92,4.13t-4.49,4a48.06,48.06,0,0,1-10.89,1H84.63V10.47H91.9A46.43,46.43,0,0,1,102.36,11.4ZM91.9,19.55a29.28,29.28,0,0,0,6.83-.72q3.21-.78,3.21-3.3t-3.42-3.41a28.91,28.91,0,0,0-6.62-.67H89.55v8.1Z"/><path class="cls-4" d="M113.07,10.47H118v7.38c0,.55.5.94,1.5,1.18a20.59,20.59,0,0,0,4.48.36h.22a19.36,19.36,0,0,0,4.27-.36c1.14-.27,1.71-.67,1.71-1.18V10.47h4.91v7.38c0,.89-1.07,1.59-3.2,2.11a36.42,36.42,0,0,1-7.69.57H124a36.42,36.42,0,0,1-7.69-.57c-2.13-.52-3.2-1.22-3.2-2.11Z"/><path class="cls-4" d="M159.42,19.81a30.35,30.35,0,0,1-7,.72,30.32,30.32,0,0,1-7-.72c-3.57-.86-5.34-2.2-5.34-4q0-3.19,5.76-4.59a29.43,29.43,0,0,1,6.84-.72A28.47,28.47,0,0,1,159,11q4.49,1.08,4.27,2.94h-4.7c-.14-1.1-1-1.84-2.56-2.22a15.57,15.57,0,0,0-3.42-.31,14.71,14.71,0,0,0-3.42.36q-4.28,1-4.27,3.87,0,2.47,3.63,3.35a16.15,16.15,0,0,0,3.84.41A15.21,15.21,0,0,0,156,19a2.7,2.7,0,0,0,2.35-2.37h5.12C163.06,18.21,161.7,19.26,159.42,19.81Z"/><path class="cls-4" d="M175,20.53V11.45h-8.33v-1h22v1H179.9v9.08Z"/><path class="cls-4" d="M208.24,15.78q4.9.68,4.91,2c0,.86-1.07,1.55-3.2,2.07a37.46,37.46,0,0,1-8.33.72,36.14,36.14,0,0,1-7.91-.67c-2.28-.55-3.41-1.21-3.41-2v-.52h4.91v.47q0,.82,1.71,1.23a18.25,18.25,0,0,0,4.27.42,23.18,23.18,0,0,0,5.13-.42c1.28-.31,1.92-.7,1.92-1.18s-1-.93-3-1.24q-5.34-.83-10-1.75c-2.28-.45-3.49-1.05-3.63-1.81s.92-1.39,3.2-1.91a32.23,32.23,0,0,1,7.05-.72,32.86,32.86,0,0,1,7.26.62c2.14.52,3.13,1.24,3,2.17h-4.91c.28-.59-.29-1-1.71-1.4a18.48,18.48,0,0,0-7.26,0c-1.28.31-1.92.68-1.92,1.09s1,.87,3,1.29Q203.76,15.17,208.24,15.78Z"/></g><rect class="cls-5" width="214" height="31"/></g></g></svg>