<svg xmlns="http://www.w3.org/2000/svg" viewBox="0 0 93 13"><defs><style>.cls-1{fill:none;opacity:0.12;}</style></defs><title>アートボード 56</title><g id="comon"><g id="見出し"><rect class="cls-1" width="93" height="13"/><rect x="71.47" y="5.52" width="2.34" height="2.42"/><path d="M71.47,11.53l2.33,0V9.56H71.47Z"/><path d="M12.86,5.19l-1.54,0,1.07,0V6.77h1.26V6h.79V5.15h.76V4.73H12.86Z"/><rect x="8.58" y="10.57" width="0.32" height="0.96"/><path d="M38.17,11.52Z"/><path d="M41.39,2.28h3.94V2H44.5V1.27l-3.17,0V.48H38.24v.75h0v0h-.75V2.33h1.88V2.28Z"/><rect x="37.45" y="5.57" width="1.88" height="1.77"/><path d="M18.35,5.82h4.43V4.44H22.4v.75a2.73,2.73,0,0,0-.83,0H20a2.84,2.84,0,0,1-.79,0c0-.52,0-1,0-1.57h-.83v2.2Z"/><path d="M82.56,2.81h.79v.8l2.33,0V2.85h-.75V2h-.79V1.23H82.52V.48H81.27V2h1.29Z"/><path d="M82.52,5.7V5.23l-1.59,0V4.44a2.86,2.86,0,0,1-.79,0c0-.08,0-.2,0-.31H78.92V5.7Z"/><path d="M78.92,11.49h-.28l2.37,0v.75h1.51v-.75h1.62v-.12H78.92Z"/><path d="M50.84,9.94V9.19h-.76V3.37H48.5V9.94h.79c0,.52,0,1,0,1.55l2.38,0v.75h.62V10A6,6,0,0,1,50.84,9.94Z"/><path d="M55.9.48v2H54.84v0h1.58V1.23a3.54,3.54,0,0,1,0-.75Z"/><polygon points="28.58 8.34 28.7 8.34 28.7 4.69 28.58 4.69 28.58 6.8 28.58 8.34"/><polygon points="27.91 10.73 28.7 10.73 28.7 11.53 30.32 11.53 30.32 12.28 31.83 12.28 31.83 11.53 33.45 11.53 33.45 10.73 34.24 10.73 34.24 10.69 27.91 10.69 27.91 10.73"/><path d="M35.8,4.69H33.46V3.57c0,1.33,0,2.66,0,4a3.48,3.48,0,0,0-.06.77H35v0h.75a3.5,3.5,0,0,1,0-.75c0-1.31,0-2.62,0-3.92C35.79,4,35.8,4.34,35.8,4.69Z"/><path d="M33.45,9.19c0-.25,0-.55,0-.85C33.43,8.64,33.45,8.94,33.45,9.19Z"/><path d="M30.24,2h1.67v.32H35V2.06a2.92,2.92,0,0,1-.8,0V1.27l-1.58,0V.48H29.53v.75H28.7V2h-.12v.32h1.66Z"/><path d="M61.13,4.36c0-.52,0-1,0-1.55l1.55,0V2h.87v.75l1.54,0V4.4h1.59V2h-.8V1.23H64.3V1H62v.2H60.9V3.45H58.83v.73h2.32Z"/><path d="M8.9,4.73v-2h.75V2h1.67v.75l1.07,0V1.23H11.24V.48H7.47V7.33H7.32v3.24H8.58V4.73Z"/><path d="M24.71,2.57V2.06a2.86,2.86,0,0,1-.79,0V1.27l-3.17,0V.48H17.65v.75s0,0,0,0h-.75V3.62h1.49V2.57h.84V2h2.41v.55Z"/><rect x="16.86" y="5.82" width="1.49" height="1.78"/><polygon points="28.58 4.69 28.58 4.07 28.58 2.34 27.91 2.34 27.91 2.81 27.12 2.81 27.12 4.44 26.36 4.44 26.36 4.69 26.48 4.69 28.58 4.69"/><path d="M45.33,2.85V2.33h-6V5.57h.42V3.49a2.74,2.74,0,0,1,0-.72l4,0c0,.52,0,1,0,1.55h.75V5.57h1.58v-2a3.64,3.64,0,0,1,0-.76Z"/><rect x="48.5" y="2.49" width="1.58" height="0.14"/><path d="M54.39,9.28h-.31v.66l0,0h-.75v.75h-.76v1.55h.68v-.75l2.38,0c0-.52,0-1,0-1.55h.79V9.28h-2Z"/><path d="M63.59,10.73h-.87v-.45H59.59v.45h.83v.76l2.38,0v.75h.71v-.75l2.37,0v-.76h.84v-.45H63.59Z"/><path d="M58.82,4.18c0,.62,0,1.23,0,1.84,0-.61,0-1.22,0-1.84Z"/><path d="M68.34,2.77h3.13V4.41H73.8V3.65a3.57,3.57,0,0,1,0-.88h2.34a2.86,2.86,0,0,1,0-.79H77V1.34H68.3C68.31,1.82,68.33,2.3,68.34,2.77Z"/><path d="M78.92,1.26h-.28c0,.53,0,1.06,0,1.58h-.76V4.09h1.08Z"/></g></g></svg>