<svg xmlns="http://www.w3.org/2000/svg" viewBox="0 0 93 13"><defs><style>.cls-1{fill:none;opacity:0.12;}</style></defs><title>アートボード 55</title><g id="comon"><g id="見出し"><rect class="cls-1" width="93" height="13"/><path d="M76.16,1.23V.48h-7v.75h-.83l0,1.54h3.13v8.76l2.33,0V3.65a3.57,3.57,0,0,1,0-.88h2.34a2.86,2.86,0,0,1,0-.79H77V1.27A2.86,2.86,0,0,1,76.16,1.23Z"/><path d="M14.42,2.85V2h-.79V1.23H11.22V.48H7.34a3.54,3.54,0,0,1,0,.75v10.3H8.88v-4H12V6.77h1.62V6h.79V5.15h.76V2.85ZM12.84,5.19l-1.54,0V6H9.63V5.23H8.88V2.77h.75V2H11.3v.75l1.54,0Z"/><path d="M46.06,2.85h-.75V2h-.83V1.27l-3.17,0V.48H38.22v.75h0v0h-.75V11.49a3,3,0,0,1,.75,0h4.76a3,3,0,0,1,.75,0v-.76l1.58,0c0-.51,0-1,0-1.54h.79V3.61A3.64,3.64,0,0,1,46.06,2.85ZM44.52,7.61h-.75c0,.52,0,1,0,1.58H43v.75a2.8,2.8,0,0,0-.84,0H40.52a2.84,2.84,0,0,1-.79,0V3.49a2.74,2.74,0,0,1,0-.72l4,0c0,.52,0,1,0,1.55h.75Z"/><path d="M23.93,10c0-.53,0-1.05,0-1.58h-.75c0-.54,0-1.08,0-1.63a3.89,3.89,0,0,0,0-.79h.79V5.19h.79c0-1,0-2.09,0-3.13a2.86,2.86,0,0,1-.79,0V1.27l-3.17,0V.48H17.63v.75s0,0,0,0h-.75V11.49l1.54,0a3.06,3.06,0,0,1,.76,0V6.77H20.8v.76h.75c0,.52,0,1,0,1.58h.75v1.62h.8v.8h1.58c0-.52,0-1,0-1.55ZM22.38,5.19a2.73,2.73,0,0,0-.83,0H19.93a2.84,2.84,0,0,1-.79,0c0-1.06,0-2.11,0-3.17h2.41v.75a2.84,2.84,0,0,1,.79,0v.76h.76v.87h-.76Z"/><path d="M85.66,7.61h-.75c0-.53,0-1.06,0-1.59L82.5,6V5.23l-1.59,0V4.44a2.86,2.86,0,0,1-.79,0,7.87,7.87,0,0,1,0-1.63h.75V2h1.63v.79h.79v.8l2.33,0V2.85h-.75V2h-.79V1.23H82.5V.48H80.2v.75l-1.58,0,0,1.58h-.76v2.3h.76V6h.83v.75l2.37,0v.76l1.55,0a2.23,2.23,0,0,0,0,.79,7.79,7.79,0,0,1,0,1.62h-.75v.75H80.91V10a2.86,2.86,0,0,1-.79,0V9.19a2.86,2.86,0,0,1-.79,0V8.4h-.71v.75h-.84c0,.51,0,1,0,1.54a2.92,2.92,0,0,1,.8,0v.76l2.37,0v.75H82.5v-.75h1.62v-.8h.79V9.9h.75l0-1.54A3.58,3.58,0,0,1,85.66,7.61Z"/><path d="M56.36.48h-1.5a3.54,3.54,0,0,1,0,.75v8h-.76v.75l0,0h-.75v.75H52.4V10a7.39,7.39,0,0,1-1.58,0V9.19h-.76v-8a3.54,3.54,0,0,1,0-.75h-1.5a3.54,3.54,0,0,1,0,.75V9.94h.79l0,1.55,2.38,0v.75h1.5v-.75l2.38,0,0-1.55h.79V1.23A3.54,3.54,0,0,1,56.36.48Z"/><path d="M35.77,3.65H35c0-.53,0-1.06,0-1.59a2.92,2.92,0,0,1-.8,0V1.27l-1.58,0V.48H29.51v.75h-.83V2h-.79v.79H27.1V4.44h-.76V8.32h.76V9.94h.79v.79h.79v.8H30.3v.75h1.51v-.75h1.62v-.8h.79V9.94H35V8.32h.75a3.5,3.5,0,0,1,0-.75C35.79,6.26,35.78,5,35.77,3.65ZM33.43,9.19h-.75v.75l-2.42,0a3.89,3.89,0,0,0-.79,0V9.15h-.79V3.57h.75a2.92,2.92,0,0,1,0-.8h.75V2h1.67v.75a2.86,2.86,0,0,1,.79,0v.76h.75c0,1.33,0,2.66,0,4A7.81,7.81,0,0,0,33.43,9.19Z"/><path d="M65.15,8.4l0,1.54-1.54,0v.75H62.7V10l-1.55,0c0-.51,0-1,0-1.54h-.75v-4h.75c0-.52,0-1,0-1.55l1.55,0V2h.87v.75l1.54,0V4.4H66.7V2h-.8V1.23H64.28V.48H62v.75H60.36V2h-.79v.83h-.75l0,3.17H58v.71h.76l0,3.17h.75v.83h.83v.76l2.38,0v.75h.71v-.75l2.37,0v-.76h.84V9.11h.75V8.4l-1.55,0A3.5,3.5,0,0,1,65.15,8.4Z"/></g></g></svg>