<svg xmlns="http://www.w3.org/2000/svg" viewBox="0 0 214 31"><defs><style>.cls-1{fill:none;opacity:0.15;}.cls-2{fill:red;}</style></defs><title>アートボード 168</title><g id="comon"><g id="見出し"><rect class="cls-1" width="214" height="31"/><path class="cls-2" d="M72,8.32a4.89,4.89,0,0,1,1.29,3.61A4.88,4.88,0,0,1,72,15.54a4.38,4.38,0,0,1-3.27,1.21H66.27v7.13h-2V7.12h4.47A4.42,4.42,0,0,1,72,8.32Zm-5.76.43v6.36h2a3.21,3.21,0,0,0,2.4-.86,3.13,3.13,0,0,0,.78-2.32,3.14,3.14,0,0,0-.78-2.32,3.25,3.25,0,0,0-2.4-.86Z"/><path class="cls-2" d="M83.38,8.5a4.27,4.27,0,0,1,1.12,3.18,4.33,4.33,0,0,1-1.12,3.09,3.86,3.86,0,0,1-1.54,1.12l3.09,8H82.87L80,16.14H77.54v7.74h-2V7.12h4.3A4.75,4.75,0,0,1,83.38,8.5Zm-1.54,5.24a2.84,2.84,0,0,0,.68-2.06,2.79,2.79,0,0,0-.77-2.07,3.15,3.15,0,0,0-2.32-.86H77.54v5.76H80A2.51,2.51,0,0,0,81.84,13.74Z"/><path class="cls-2" d="M95.76,15.46q0,5.41-1.89,7.3A3.84,3.84,0,0,1,91,23.88a3.93,3.93,0,0,1-2.92-1.12q-1.89-1.89-1.89-7.3t1.89-7.22A3.93,3.93,0,0,1,91,7.12a3.84,3.84,0,0,1,2.84,1.12Q95.76,10.13,95.76,15.46Zm-7.56,0c0,3.26.37,5.27,1.11,6a2.38,2.38,0,0,0,1.72.78,2.28,2.28,0,0,0,1.63-.78c.75-.74,1.12-2.75,1.12-6s-.37-5.19-1.12-5.93A2.28,2.28,0,0,0,91,8.75a2.38,2.38,0,0,0-1.72.78Q88.2,10.64,88.2,15.46Z"/><path class="cls-2" d="M105.13,8.67q2,2,2,6.87t-1.8,6.62a5.94,5.94,0,0,1-4.39,1.72H98V7.12h2.92A5.69,5.69,0,0,1,105.13,8.67Zm-4.21,13.58A3.75,3.75,0,0,0,103.67,21q1.29-1.29,1.29-5.5t-1.37-5.67a3.67,3.67,0,0,0-2.67-1.12H100v13.5Z"/><path class="cls-2" d="M109.44,7.12h2V19.41a2.73,2.73,0,0,0,.6,2,2.45,2.45,0,0,0,1.81.6h.08a2.32,2.32,0,0,0,1.72-.6,2.68,2.68,0,0,0,.69-2V7.12h2V19.41A4.75,4.75,0,0,1,117,22.93a4.25,4.25,0,0,1-3.09.95h-.08a4.26,4.26,0,0,1-3.1-.95,4.75,4.75,0,0,1-1.29-3.52Z"/><path class="cls-2" d="M128.09,22.68a3.95,3.95,0,0,1-5.67,0C121,21.24,120.27,19,120.27,16q0-5.33,2.32-7.65a3.79,3.79,0,0,1,2.75-1.2,3.49,3.49,0,0,1,2.58,1A6.37,6.37,0,0,1,129.64,13h-1.89c-.06-1.83-.4-3.06-1-3.69a2,2,0,0,0-2.75.09q-1.73,1.71-1.72,6.44c0,2.75.48,4.61,1.46,5.59a2.12,2.12,0,0,0,1.54.68,2.05,2.05,0,0,0,1.47-.68c.57-.58.88-1.89.94-4h2.06Q129.47,21.3,128.09,22.68Z"/><path class="cls-2" d="M134.35,23.88V8.75H131V7.12h8.85V8.75h-3.52V23.88Z"/><path class="cls-2" d="M147.73,16a3.56,3.56,0,0,1,2,3.27,4.65,4.65,0,0,1-1.29,3.44,4.55,4.55,0,0,1-3.35,1.2,4.27,4.27,0,0,1-3.18-1.12,4.43,4.43,0,0,1-1.38-3.26v-.86h2v.77a2.83,2.83,0,0,0,.68,2.06,2.34,2.34,0,0,0,1.72.69,2.81,2.81,0,0,0,2.07-.69,2.68,2.68,0,0,0,.77-2,2.37,2.37,0,0,0-1.2-2.07,40.9,40.9,0,0,1-4-2.92,3.88,3.88,0,0,1-1.46-3,3.91,3.91,0,0,1,1.29-3.18,4.05,4.05,0,0,1,2.83-1.2,3.93,3.93,0,0,1,2.92,1,4.65,4.65,0,0,1,1.21,3.61h-2a2.69,2.69,0,0,0-.69-2.32,2.08,2.08,0,0,0-2.92,0,2.47,2.47,0,0,0-.77,1.81,2.87,2.87,0,0,0,1.2,2.14A22.43,22.43,0,0,0,147.73,16Z"/></g></g></svg>