<svg xmlns="http://www.w3.org/2000/svg" viewBox="0 0 382 18"><defs><style>.cls-1{fill:red;}.cls-2{fill:none;}</style></defs><title>アートボード 13</title><g id="comon"><g id="共通装飾品"><g id="TOP-2" data-name="TOP"><path class="cls-1" d="M10.62,4.81a1.89,1.89,0,0,1,2.06-1.72h1.26a2,2,0,0,1,2.15,1.84,1.7,1.7,0,0,1,0,.39v9.21a1.67,1.67,0,0,1-1.49,1.83h-.34a1.67,1.67,0,0,1-1.84-1.48,2,2,0,0,1,0-.35V8.31h0l-1.85,6.92c-.23.87-.64,1.14-1.62,1.14s-1.38-.27-1.62-1.14L5.44,8.31h0v6.23A1.67,1.67,0,0,1,4,16.37H3.61a1.67,1.67,0,0,1-1.83-1.49,1.93,1.93,0,0,1,0-.34V5.33A2,2,0,0,1,3.53,3.11a2,2,0,0,1,.35,0H5A1.91,1.91,0,0,1,7.19,4.68a.59.59,0,0,1,0,.13l1.68,6.35h0Z"/><path class="cls-1" d="M60.77,11.81a1.21,1.21,0,0,1-1.21-1.21v0a1.28,1.28,0,0,1,1.13-1.4h2.87a1.82,1.82,0,0,1,1.92,1.73v3.87c0,.82-.29,1.69-1.42,1.69a1.28,1.28,0,0,1-1.36-1.2v-.42h0A4.46,4.46,0,0,1,59,16.44c-2.87,0-6.24-1.55-6.24-6.71A6.28,6.28,0,0,1,58.55,3c.22,0,.43,0,.65,0,4.13,0,5.25,2.06,5.25,3.06a1.87,1.87,0,0,1-1.93,1.8h-.07c-1.31,0-1.35-1.66-3.15-1.66-1.37,0-2.49,1-2.49,3.58,0,2.17.59,3.53,2.65,3.53a2.07,2.07,0,0,0,2.26-1.53Z"/><path class="cls-1" d="M82.75,4.88a2,2,0,0,1,2.64-1l.24.13a2,2,0,0,1,.81,2.71,1.64,1.64,0,0,1-.14.22L81.87,14.6a2,2,0,1,1-3.54-2h0Z"/><path class="cls-1" d="M206.4,4.88a2,2,0,0,1,2.65-1l.22.12a2,2,0,0,1,.81,2.71,1.64,1.64,0,0,1-.14.22l-4.42,7.67a2,2,0,1,1-3.77-1.6,1.94,1.94,0,0,1,.22-.4Z"/><path class="cls-1" d="M332.29,4.88a2,2,0,0,1,2.64-1l.24.13a2,2,0,0,1,.8,2.71,1.64,1.64,0,0,1-.14.22l-4.42,7.67a2,2,0,0,1-3.54-2Z"/><path class="cls-1" d="M103.33,3c3,0,5.29,1.76,5.29,3.61a1.79,1.79,0,0,1-1.79,1.77h-.14c-.77,0-1-.16-1.57-1.07a2,2,0,0,0-2-1.1c-1.28,0-2.31,1.25-2.31,3.5,0,2.08.82,3.51,2.53,3.51.74,0,1.12-.22,1.93-1.35a1.84,1.84,0,0,1,3.4.94c0,2.24-3.06,3.61-5.33,3.61-3.44,0-6.62-2.06-6.62-6.71a6.35,6.35,0,0,1,6-6.7Z"/><path class="cls-1" d="M153.47,12.83a1.59,1.59,0,0,1,1.75,1.41,1.93,1.93,0,0,1,0,.24,1.6,1.6,0,0,1-1.51,1.67h-6.25c-1.58,0-2.33-.73-2.33-2.44V5.31A2.05,2.05,0,0,1,149.23,5a1.41,1.41,0,0,1,0,.29v7.52Z"/><path class="cls-1" d="M184.88,11.81a1.21,1.21,0,0,1-1.21-1.21v0a1.26,1.26,0,0,1,1.13-1.39h2.83a1.82,1.82,0,0,1,1.92,1.73v3.87c0,.82-.29,1.69-1.43,1.69a1.28,1.28,0,0,1-1.35-1.19v-.43h0a4.44,4.44,0,0,1-3.66,1.62c-2.87,0-6.25-1.55-6.25-6.71A6.28,6.28,0,0,1,182.65,3c.22,0,.44,0,.66,0,4.13,0,5.25,2.06,5.25,3.06a1.87,1.87,0,0,1-1.93,1.8h-.07c-1.32,0-1.35-1.66-3.15-1.66-1.37,0-2.49,1-2.49,3.58,0,2.17.59,3.53,2.65,3.53a2.07,2.07,0,0,0,2.26-1.53Z"/><path class="cls-1" d="M223.18,5.77c0-1.71.74-2.44,2.5-2.44h4.54c3.13,0,4.53,1.68,4.53,3.63a3,3,0,0,1-2.59,3h0c1.29.09,2.18.54,2.36,1.89l.14,1.07a13.4,13.4,0,0,1,.18,1.79A1.71,1.71,0,0,1,233,16.37h0c-1.19,0-2.12-.5-2.26-1.76l-.19-1.69c-.13-1-.84-1.34-1.8-1.34h-1.6v2.65a2,2,0,0,1-4,0Zm6,3.15c1.2,0,1.68-.38,1.68-1.25s-.48-1.24-1.68-1.24h-2V8.92Z"/><path class="cls-1" d="M255.42,12.83a1.59,1.59,0,0,1,1.75,1.41,1.93,1.93,0,0,1,0,.24,1.6,1.6,0,0,1-1.51,1.67h-6.25c-1.58,0-2.33-.73-2.33-2.44V5.31A2.05,2.05,0,1,1,251.18,5a1.41,1.41,0,0,1,0,.29v7.52Z"/><path class="cls-1" d="M310.65,11.55l-2.72-.78c-2-.59-3.16-1.8-3.16-3.6,0-2.13,1.42-4.14,5-4.14,2.37,0,5.43.57,5.43,2.72a1.63,1.63,0,0,1-1.63,1.63h-.15C312,7.37,312,5.81,310,5.81c-.7,0-1.34.26-1.34.85s.5.82,1.37,1l2.12.57c2.15.58,3.62,1.58,3.62,3.8,0,3-2.61,4.36-5.31,4.36-4.3,0-5.62-1.92-5.62-3.08a1.63,1.63,0,0,1,1.59-1.67h.13c1.46,0,1.64,1.87,3.65,1.87.84,0,1.58-.29,1.58-1.07C311.77,12,311.4,11.76,310.65,11.55Z"/><path class="cls-1" d="M348.93,6.64a1.51,1.51,0,0,1-1.68-1.32,1.71,1.71,0,0,1,0-.32c0-1,.52-1.66,1.82-1.66h8.75c1.29,0,1.81.68,1.81,1.66a1.52,1.52,0,0,1-1.37,1.64,1.13,1.13,0,0,1-.26,0h-2.47v7.52a2.05,2.05,0,1,1-4.09.29,1.41,1.41,0,0,1,0-.29V6.64Z"/><path class="cls-1" d="M369.44,5.77c0-1.71.75-2.44,2.33-2.44h6.51c1.23,0,1.78.61,1.78,1.5s-.55,1.49-1.78,1.49h-4.75v1.8h3.81c1.22,0,1.78.6,1.78,1.49s-.56,1.49-1.78,1.49h-3.81v2.05h5c1.22,0,1.77.6,1.77,1.49s-.55,1.5-1.77,1.5h-6.71c-1.58,0-2.33-.73-2.33-2.44Z"/><path class="cls-1" d="M287.27,8.1a3.62,3.62,0,0,0-1.17-2.52,3.56,3.56,0,0,0-2.59-1,3.49,3.49,0,0,0-2.27.87A3.48,3.48,0,0,0,279,4.65h-.27a3.63,3.63,0,0,0-2.52,1.12,3.57,3.57,0,0,0-1,2.56c0,2.76,2.27,4.54,4.26,6.11.46.36.91.71,1.31,1.06a.7.7,0,0,0,.45.17.66.66,0,0,0,.44-.16c.36-.3.76-.61,1.19-.93,2-1.5,4.4-3.37,4.4-6.25Z"/><path class="cls-1" d="M39.61,16.14a.44.44,0,0,0,.44-.44.43.43,0,0,0-.06-.22L35.5,8a.46.46,0,0,0-.63-.16.41.41,0,0,0-.16.16l-4.49,7.48a.44.44,0,0,0,.16.6.43.43,0,0,0,.22.06Z"/><circle class="cls-1" cx="35.1" cy="4.06" r="2.5"/><path class="cls-1" d="M131.06,16.14a.44.44,0,0,0,.44-.42.48.48,0,0,0-.07-.24L127,8a.47.47,0,0,0-.65-.15.54.54,0,0,0-.15.15l-4.48,7.48a.44.44,0,0,0,.16.6.39.39,0,0,0,.21.06Z"/><circle class="cls-1" cx="126.55" cy="4.06" r="2.5"/><rect class="cls-2" width="382" height="18"/></g></g></g></svg>