<svg xmlns="http://www.w3.org/2000/svg" viewBox="0 0 76 16"><defs><style>.cls-1{fill:none;opacity:0.12;}.cls-2{fill:#fff;fill-rule:evenodd;}</style></defs><title>アートボード 107</title><g id="comon"><g id="共通装飾品"><rect class="cls-1" width="76" height="16"/><path class="cls-2" d="M17.33,4.39l0-2a3.41,3.41,0,0,1-1-.06v-1l-2.06-.05v-1h-4v1H9.08v1h-1V6.45a5,5,0,0,1,0,1l2,.05v1h2.12v1l2.06.05v1h1v2.11l-2,.06v1H12.12v-1l-2-.06,0-2h-2v1c-.06.05,0,0,0,.05h-1v.93h1v1.09h1v1h2.11v1h2v-1l3.1-.05a3.86,3.86,0,0,1,.05-1h1a5.05,5.05,0,0,1,0-1V8.52H16.25v-1l-2.06-.06v-1l-3,0v-1h-1V3.36h1v-1h2.12v1a3.41,3.41,0,0,1,1,.06v1Z"/><path class="cls-2" d="M30.7.31h-2a5,5,0,0,1,0,1V6.45h-6.2V1.29a5,5,0,0,1,0-1h-2a4.34,4.34,0,0,1-.05,1V14.71h2.06V8.52h6.2v6.19h2.06V1.29A4.34,4.34,0,0,1,30.7.31Z"/><path class="cls-2" d="M44.17,13.73l-.06-3.1h-1l-.05-3.09h-1c0-1.38,0-2.76-.05-4.13h-1V1.29H40v-1H38v1H38v.05H37l-.05,3.1H36c0,1,0,2.06-.05,3.1h-1l0,4.12h-1l0,3.05h2.06V12.59h1c0-.67,0-1.34,0-2h4.13c0,.67,0,1.34,0,2h1v2.12l3-.05v-.93ZM37.92,8.57l0-4.23h1.09v1h1c0,1.06,0,2.13.05,3.2Z"/><path class="cls-2" d="M56.55,13.68c0-1,0-2,0-3h-1c0-1.05,0-2.1-.05-3.15h1.08V6.4h1v-3h-1c0-.69,0-1.38,0-2.07l-3.1-.05v-1H47.31a4.34,4.34,0,0,1-.05,1V14.71l3.05-.05V8.52h2.11l0,2h1l.06,2.06h1c0,.69,0,1.38,0,2.07l3,.05v-1ZM54.49,6.45a3.44,3.44,0,0,0-1,0H51.34a3.79,3.79,0,0,1-1,0V2.32h3.2v1a3.41,3.41,0,0,1,1,.06C54.52,4.39,54.5,5.42,54.49,6.45Z"/><path class="cls-2" d="M64.6,12.7a7.45,7.45,0,0,1-1.91-.06V8.52h4.18a4.3,4.3,0,0,1,1-.06v-2a4.34,4.34,0,0,1-1,0H62.69V4.34a3.84,3.84,0,0,1,.05-1h6.14l.05-2a5,5,0,0,1-.05-1H60.73v1l0,.05h-1V14.66a4.34,4.34,0,0,1,1,.05h8.25l-.05-2Z"/></g></g></svg>