<svg xmlns="http://www.w3.org/2000/svg" viewBox="0 0 76 16"><defs><style>.cls-1{fill:none;opacity:0.12;}.cls-2,.cls-3{fill:#fff;}.cls-2{fill-rule:evenodd;}</style></defs><title>アートボード 109</title><g id="comon"><g id="共通装飾品"><rect class="cls-1" width="76" height="16"/><path class="cls-2" d="M1.54.79l0,1H.44v.52l7.17.1V1.92L5.55,1.83v-1Z"/><path class="cls-2" d="M7,4h-3v.81L7,4.9Z"/><path class="cls-2" d="M12.88,7.05,9.84,7v-1h-1V4L6.77,4l0,2.92a1.54,1.54,0,0,1,0,.46l6.09,0Z"/><path class="cls-2" d="M12.81,9.06l0,1,2.06,0,0,1h1l0,2.11-2,.08v0l4.06,0s0-.08,0-.11L17.92,9,16.84,9V8.25l-6.14.08v.75Z"/><path class="cls-2" d="M7.42,13.29v0l-2-.07,0-2-2,0v1c-.06.05,0,0-.05.06h-1v.92h1v.16Z"/><path class="cls-2" d="M18.91,14.6a1.12,1.12,0,0,1,0-.27l-7.19-.09v.27Z"/><path class="cls-2" d="M18.18,3.74l2.07,0,0-1.94a4.34,4.34,0,0,1-.05-1l-2,0a4.3,4.3,0,0,1-.06,1Z"/><rect class="cls-3" x="11.61" y="10.61" width="2.06" height="4.03" transform="translate(-0.15 0.15) rotate(-0.69)"/><path class="cls-2" d="M38,.82l-2,0a5.07,5.07,0,0,1,0,1l0,1.94,2.07,0L38,1.8A4.3,4.3,0,0,1,38,.82Z"/><rect class="cls-3" x="28.09" y="14.03" width="0.32" height="2.06" transform="translate(12.99 43.21) rotate(-89.6)"/><rect class="cls-3" x="29.3" y="14.91" width="2.06" height="0.32" transform="translate(-0.12 0.25) rotate(-0.48)"/><polygon class="cls-2" points="26.97 6.92 20.78 7.01 20.76 5.46 18.69 5.49 18.75 8.97 29.06 8.82 29.01 5.34 26.95 5.37 26.97 6.92"/><rect class="cls-3" x="32.97" y="10.61" width="2.06" height="4.03" transform="translate(-0.02 0.07) rotate(-0.11)"/><path class="cls-2" d="M39.63,3.67V1.81H38.55v-1h-2v1h-.05v.05h-1c0,.6,0,1.2,0,1.8Z"/><path class="cls-2" d="M34.41,4.91c0,1-.06,2.07-.1,3.1l-1,0,0,.76,3,0c0-1.31.07-2.63.11-3.95l1.08,0,0,1h1c0,1,0,1.95,0,2.93l3,0V8.11h-1V4.62L35.4,4.55v.38Z"/><path class="cls-2" d="M37,10.52l0-.91-8.2.12v.91Z"/><rect class="cls-3" x="52.48" y="13.78" width="3.04" height="0.86"/><path class="cls-2" d="M43,11.09l1,0c0,.69.05,1.38.08,2.06h1l.07,1.63,3-.05v-.55l-1,0c0-1-.07-2-.1-3h-1l0-1.59L43,9.59C43,10.09,43,10.59,43,11.09Z"/><path class="cls-2" d="M48.54,2.83h.14v-2l-3.14,0a4.34,4.34,0,0,1-.05,1V3.28l3,0Z"/><path class="cls-2" d="M51.09,1.81v-1H49.14v2h2v.7h3c0-.55,0-1.11,0-1.67Z"/><rect class="cls-3" x="40.43" y="2.9" width="0.27" height="3.04" transform="translate(35.95 44.97) rotate(-89.72)"/><path class="cls-2" d="M58,4.43c0,.27,0,.54,0,.81l3,0V4.47Z"/><path class="cls-2" d="M60.31,15.17a4.37,4.37,0,0,1,1,.05h8.25v-.45l-9.22,0Z"/><path class="cls-2" d="M59.73,3.8V3.59l-9.19.05,0,4,8.15,0V7a5.1,5.1,0,0,1-1,0L53.55,7V4.86a3.79,3.79,0,0,1,.05-1Z"/><path class="cls-2" d="M67.35.88l0,1c-.06,0,0,0-.06,0l-1,0V2l9.24-.13V1.74a4.8,4.8,0,0,1-.07-1Z"/><rect class="cls-3" x="64.26" y="7.91" width="8.15" height="1.02" transform="translate(-0.07 0.61) rotate(-0.51)"/></g></g></svg>