<svg xmlns="http://www.w3.org/2000/svg" viewBox="0 0 76 16"><defs><style>.cls-1{fill:none;opacity:0.12;}.cls-2,.cls-3{fill:#fff;}.cls-2{fill-rule:evenodd;}</style></defs><title>アートボード 108</title><g id="comon"><g id="共通装飾品"><rect class="cls-1" width="76" height="16"/><path class="cls-2" d="M10.11,3.36h1v-1h2.12v1a3.41,3.41,0,0,1,1,.06v.41h1.06V2.64h1.94V2.38a3.41,3.41,0,0,1-1-.06V1.48h-.9v.29H10.87v.44H9.08v.11h-1V3.77h2.06Z"/><path class="cls-2" d="M15.35,1.48V1.32l.9,0-2.06-.05V.61H10.87V.47h3.32V.31h-4v1H9.08v.48h1.79V1.48Z"/><path class="cls-2" d="M15.27,11.57v1.07l-2,.06v1H12.12v-1l-2-.06c0-.5,0-1,0-1.5h0v-.51h-2v1c-.06.05,0,0,0,.05h-1v.93h1v1h2.82v.73H9.08v.41h2.11v1h2v-1l1.86,0h0l1.24,0h-.9V14.3H15v-.73h.34V12.3h2v-.73h-2v-.43h-.08Z"/><path class="cls-2" d="M16.24,14.3a2.32,2.32,0,0,1,.06-.68h1v0H15.35v.73Z"/><polygon class="cls-2" points="20.43 12.36 20.43 13.68 20.43 14.71 22.49 14.71 22.49 13.68 22.49 12.36 22.49 11.58 20.43 11.58 20.43 12.36"/><path class="cls-2" d="M37.94,6.77c0-.52,0-1,0-1.56H37V4.48H38V4.34h.38V3.61H37V3.47h1.4v.87h.64v1h1l0,1.88h2l0-2h0c0-.47,0-.94,0-1.41V3.47h0V3.41h-1V1.29H40v-1H38v1H38v.05H37l0,2.13h0v.14h0l0,.83H36v0h0c0,.92,0,1.85-.05,2.77H37V6.77Z"/><path class="cls-2" d="M44.11,10.63h-1l-.05-3.09v.1h-3l0-2.27c0,1.06,0,2.13.05,3.2H37.92l0-1.32h0v0H37v.39H34.93v-.1l0,2.18h0c0,.65,0,1.3,0,1.94h-1v.08h3l0-1.16h4.13c0,.67,0,1.34,0,2h1v2.12l3-.05v-.93h-1Z"/><path class="cls-2" d="M56.5,1.34l-3.1-.05v-1h-4V2.23h7.17Z"/><polygon class="cls-2" points="49.35 5.69 49.35 4.79 47.35 4.79 47.35 2.54 49.35 2.54 49.35 2.23 47.35 2.23 47.35 1.72 47.26 1.72 47.26 2.23 47.26 2.54 47.26 4.79 47.26 5.69 47.26 6.14 47.35 6.14 47.35 5.69 49.35 5.69"/><rect class="cls-3" x="49.35" y="2.54" width="0.96" height="2.26"/><path class="cls-2" d="M53.51,3.3a3.41,3.41,0,0,1,1,.06l0,1.43h3V3.41h-1c0-.29,0-.58,0-.87h-3Z"/><rect class="cls-3" x="59.7" y="2.23" width="2.31" height="0.31"/><path class="cls-2" d="M68.93,1.29a5,5,0,0,1-.05-1H60.73V.64H62V2.23h6.9Z"/><rect class="cls-3" x="59.7" y="4.79" width="2.31" height="0.9"/><path class="cls-2" d="M62.69,4.34a3.84,3.84,0,0,1,.05-1h6.14V3.11h0V2.3H63.42v.24H62V4.79h.68Z"/><path class="cls-2" d="M16.25,7.54l-.9,0h0l-1.16,0v-1l-3,0v-1h-1V4.64H8.05V6.45a1.93,1.93,0,0,1,0,.27h0c0,.23,0,.49,0,.71l2,.05v1h2.12v1h.23V9.14h2.89v2h2V8.52H16.25Z"/><path class="cls-2" d="M30.7.31h-2c0,.2,0,.43,0,.63a2.84,2.84,0,0,1,0,.35V6.45h-6.2v-5H20.43V6.69H24V8.52h0V6.69h1.4V8.52h3.27v3.06h2.06V1.29a1.2,1.2,0,0,1,0-.35C30.69.74,30.7.51,30.7.31Z"/><rect class="cls-3" x="28.69" y="12.36" width="2.06" height="1.33"/><path class="cls-2" d="M33.86,13.66c0,.35,0,.7,0,1.05h2.06V13.66h-2c0-.67,0-1.33,0-2,0,.67,0,1.33,0,2Z"/><path class="cls-2" d="M55.47,8h0V7.48h1.08V6.4h1V5.69h-3v.45h0v.31a3.44,3.44,0,0,0-1,0H51.34a3.79,3.79,0,0,1-1,0V5.69h-1v.45h-2V8h-.09v6.76h.09l2,0h1V13.34h-1V10.18h1V9.3h-1V8.57h1V8.52h2.11v.05h3.06Z"/><path class="cls-2" d="M55.5,9.3H52.44l0,.88h3Z"/><path class="cls-2" d="M56.54,13.34h-2c0,.44,0,.88,0,1.32l3,.05v-1h-1Z"/><path class="cls-2" d="M64.9,12.77V12.7h-.3a7.45,7.45,0,0,1-1.91-.06V8.52H64.9V8.45H62V8h5.83V6.5a4.34,4.34,0,0,1-1,0H62.69V5.69H62V7.14H59.7V9.57H62v.73H59.7v.88H62v2.51H59.7v1a4.34,4.34,0,0,1,1,.05H64.9v-.37h3.93V12.77Z"/><path class="cls-2" d="M68.88,12.7h0v.07h0Z"/><path class="cls-2" d="M68.83,14.34v.37h.1v-.37Z"/></g></g></svg>