<svg xmlns="http://www.w3.org/2000/svg" viewBox="0 0 214 31"><defs><style>.cls-1{opacity:0.45;}.cls-2{fill:red;}.cls-3{opacity:0.35;}.cls-4{fill:#fff;}.cls-5{fill:none;opacity:0.15;}</style></defs><title>アートボード 200</title><g id="comon"><g id="見出し"><rect x="8.02" y="2.61" width="198.43" height="26.17"/><g class="cls-1"><path class="cls-2" d="M19.53,29.59c-3.69,0-6.6-.64-8.62-1.89C8.35,26.13,7.05,24.2,7.05,22V20.09h6.2v1.75a3.19,3.19,0,0,0,1.57,2.92,8,8,0,0,0,4.26,1,10.12,10.12,0,0,0,5.16-1A3.22,3.22,0,0,0,26,22c0-1.16-1-2.13-2.85-2.88-3.76-1.48-7.35-3.08-10.66-4.76-2.57-1.28-4-3.06-4.12-5.28s1.06-4.14,3.64-5.63a15.25,15.25,0,0,1,7.71-2c3.39,0,6.06.59,7.94,1.75a6.55,6.55,0,0,1,3.4,6.31l0,.47H24.8l.12-.6A2.93,2.93,0,0,0,23.34,6.1a6.75,6.75,0,0,0-3.58-.9,6.7,6.7,0,0,0-3.58.9c-1.21.75-1.8,1.56-1.8,2.5s1,2,2.9,3a69.54,69.54,0,0,0,9.42,4.15c3.67,1.28,5.53,3.22,5.53,5.77a6.82,6.82,0,0,1-3.62,6C26.43,28.9,23.37,29.59,19.53,29.59ZM8.05,21.09V22c0,1.88,1.11,3.47,3.38,4.87C13.3,28,16,28.59,19.53,28.59s6.53-.64,8.55-1.88a5.81,5.81,0,0,0,3.15-5.15c0-2.1-1.59-3.68-4.86-4.82h0a72.34,72.34,0,0,1-9.56-4.21C14.5,11.31,13.38,10,13.38,8.6a4,4,0,0,1,2.27-3.35,7.68,7.68,0,0,1,4.11-1,7.67,7.67,0,0,1,4.1,1A3.89,3.89,0,0,1,26,8.94h4.15A5.55,5.55,0,0,0,27.18,4a14.3,14.3,0,0,0-7.42-1.6A14.27,14.27,0,0,0,12.55,4.3C10.3,5.6,9.27,7.13,9.41,9s1.3,3.34,3.57,4.47c3.29,1.66,6.84,3.25,10.58,4.72C25.87,19.09,27,20.37,27,22a4.18,4.18,0,0,1-2.28,3.63,10.83,10.83,0,0,1-5.68,1.19,8.94,8.94,0,0,1-4.78-1.19,4.14,4.14,0,0,1-2.05-3.77v-.75Z"/><path class="cls-2" d="M44.24,29.59H38V1.41H50.29a16.78,16.78,0,0,1,8.85,2h0a7,7,0,0,1,3.63,6.28A7,7,0,0,1,59.14,16a16.86,16.86,0,0,1-8.85,2h-6Zm-5.2-1h4.2V17h7a15.84,15.84,0,0,0,8.33-1.88,6,6,0,0,0,3.15-5.42,6,6,0,0,0-3.15-5.43,16,16,0,0,0-8.33-1.88H39Zm9.9-13.22h-5.7V4.06h5.7a12.55,12.55,0,0,1,6.59,1.47A4.64,4.64,0,0,1,57.8,9.72a4.64,4.64,0,0,1-2.27,4.19A12.65,12.65,0,0,1,48.94,15.37Zm-4.7-1h4.7A11.6,11.6,0,0,0,55,13.05a3.62,3.62,0,0,0,1.8-3.33A3.64,3.64,0,0,0,55,6.38a11.7,11.7,0,0,0-6.06-1.32h-4.7Z"/><path class="cls-2" d="M91.24,29.59h-24V1.41H90.11V5.06H73.39v7.78H88.76v3.65H73.39v9.45H91.24Zm-23-1h22V26.94H72.39V15.49H87.76V13.84H72.39V4.06H89.11V2.41H68.19Z"/><path class="cls-2" d="M108.6,29.59a14.47,14.47,0,0,1-7.72-2C97,25.15,95,21.35,95,16.27,95,10.35,97.12,6,101.33,3.44a14,14,0,0,1,7.49-2,13.37,13.37,0,0,1,7,1.61c3.32,2,4.92,4.87,4.76,8.39l0,.48h-5.93l0-.48c-.14-2.78-1-4.66-2.48-5.59a6.39,6.39,0,0,0-3.35-.76,6.27,6.27,0,0,0-3.35.9c-2.84,1.75-4.28,5.13-4.28,10,0,4.25,1.21,7.16,3.6,8.63a7.14,7.14,0,0,0,3.81,1,6.76,6.76,0,0,0,3.58-1c1.34-.83,2.1-2.85,2.24-6l0-.47h6.45l-.06.55c-.46,4.32-2,7.31-4.52,8.87A14.52,14.52,0,0,1,108.6,29.59Zm.22-27.18a13.13,13.13,0,0,0-7,1.88C98,6.69,96,10.72,96,16.27c0,4.78,1.77,8.2,5.41,10.44a14.71,14.71,0,0,0,14.39,0h0c2.16-1.33,3.5-3.88,4-7.57H115.4c-.22,3.27-1.1,5.35-2.7,6.33a7.71,7.71,0,0,1-4.1,1.19,8.07,8.07,0,0,1-4.33-1.19c-2.71-1.67-4.08-4.86-4.08-9.48,0-5.27,1.6-8.93,4.75-10.88a7.26,7.26,0,0,1,3.88-1.05A7.38,7.38,0,0,1,112.7,5c1.7,1,2.68,3,2.92,5.92h4c0-2.95-1.42-5.25-4.29-7A12.45,12.45,0,0,0,108.82,2.41Z"/><path class="cls-2" d="M142.09,29.59H130.92V25.52h2.49v-20h-2.49V1.41h11.17V5.48H139.6v20h2.49Zm-10.17-1h9.17V26.52H138.6v-22h2.49V2.41h-9.17V4.48h2.49v22h-2.49Z"/><path class="cls-2" d="M177.54,29.59H171l-3.17-7.95H158.6l-3.17,8h-6.51L160.64,1.41h5.18Zm-5.84-1H176L165.16,2.41H161.3L150.42,28.59h4.34l3.16-7.95h10.62ZM167.81,19h-9.16l4-10.2h1.14Zm-7.69-1h6.22l-3.11-7.91Z"/><path class="cls-2" d="M207,29.59H182.44V1.41h6.2V25.94H207Zm-23.51-1H206V26.94H187.64V2.41h-4.2Z"/></g><g class="cls-3"><path class="cls-4" d="M21.14,15.78q5.55.68,5.55,2c0,.86-1.21,1.55-3.62,2.07a47.55,47.55,0,0,1-9.4.72,45.93,45.93,0,0,1-8.93-.67c-2.57-.55-3.85-1.21-3.85-2v-.52H6.43v.47c0,.55.64,1,1.93,1.23a23.18,23.18,0,0,0,4.82.42A29.49,29.49,0,0,0,19,19.08c1.45-.31,2.17-.7,2.17-1.18S20,17,17.77,16.66q-6-.83-11.34-1.75c-2.57-.45-3.94-1.05-4.1-1.81s1-1.39,3.62-1.91a40.8,40.8,0,0,1,8-.72,41.81,41.81,0,0,1,8.2.62q3.62.78,3.37,2.17H19.94c.32-.59-.33-1-1.93-1.4a20.07,20.07,0,0,0-4.1-.36,19.94,19.94,0,0,0-4.1.36c-1.45.31-2.17.67-2.17,1.09s1.12.87,3.37,1.29Q16.08,15.17,21.14,15.78Z"/><path class="cls-4" d="M55.65,11.19c2.41.52,3.62,1.24,3.62,2.17S58.06,15,55.65,15.53a45.89,45.89,0,0,1-9.16.72h-7v4.28H34V10.47H46.49A45.89,45.89,0,0,1,55.65,11.19Zm-16.15.26v3.82H45a33.63,33.63,0,0,0,6.76-.52C53.24,14.44,54,14,54,13.36S53.24,12.28,51.8,12A33.63,33.63,0,0,0,45,11.45Z"/><path class="cls-4" d="M70.6,14.7H87v1H70.6v3.87H89.65v1H65.06V10.47H88.45v1H70.6Z"/><path class="cls-4" d="M116.66,19.81a38.55,38.55,0,0,1-8,.72,38.52,38.52,0,0,1-8-.72q-6-1.29-6-4,0-3.19,6.51-4.59a37.17,37.17,0,0,1,7.71-.72,36.1,36.1,0,0,1,7.24.57Q121.23,12.12,121,14h-5.3c-.17-1.1-1.13-1.84-2.9-2.22a19.63,19.63,0,0,0-3.86-.31,18.53,18.53,0,0,0-3.85.36q-4.83,1-4.83,3.87,0,2.47,4.1,3.35a20.52,20.52,0,0,0,4.34.41,19.26,19.26,0,0,0,4.1-.41c1.61-.34,2.49-1.13,2.65-2.37h5.79Q120.52,19,116.66,19.81Z"/><path class="cls-4" d="M141.26,19.39h2.65v1.14H133.06V19.39h2.65V11.61h-2.65V10.47h10.85v1.14h-2.65Z"/><path class="cls-4" d="M158.32,20.53h-5.79l12.06-10.06h4.82l12.06,10.06h-5.79l-3.38-2.94H161.69Zm8.92-7.32h-.48l-3.86,3.4h8.2Z"/><path class="cls-4" d="M188,10.47h5.54v9.08h19.53v1H188Z"/></g><rect class="cls-5" width="214" height="31"/></g></g></svg>