<svg xmlns="http://www.w3.org/2000/svg" viewBox="0 0 69 13"><defs><style>.cls-1{fill:none;opacity:0.12;}.cls-2{fill-rule:evenodd;}</style></defs><title>アートボード 92</title><g id="comon"><g id="見出し"><rect class="cls-1" width="69" height="13"/><path class="cls-2" d="M6.37,3.4V2.81A3.29,3.29,0,0,0,6.4,2H8.78v.79H9.5v-1H4.86V2c-.05,0,0,0,0,0H4.07L4,4V3.4Z"/><rect x="14.36" y="0.48" width="3.88" height="0.73"/><path class="cls-2" d="M18.32,5.7V6H15.91V4.11H15.5v7.41h.41v-4h2.33V6.77l2.38,0a2.86,2.86,0,0,1,0-.79h.75l0-1.83c0,.53,0,1.06,0,1.59Z"/><path class="cls-2" d="M30.12,1.23V.48H24.29v4h1.12V2.77h4.71a2.86,2.86,0,0,1,0-.79h.76V1.27A2.92,2.92,0,0,1,30.12,1.23Z"/><path class="cls-2" d="M25.63,10h-.22V8.88H23.08v2.61a3,3,0,0,1,.75,0h6.33v0h.76V10.7H25.63Z"/><path class="cls-2" d="M31.75,7.57a3.5,3.5,0,0,1,0,.75h.75V9.94h.79v.79H34V7.59H31.75Z"/><rect x="34.12" y="10.83" width="3.06" height="0.29"/><polygon class="cls-2" points="42.84 6.27 42.84 10.4 45.17 10.4 45.17 5.48 43.98 5.48 43.98 6.27 42.84 6.27"/><path class="cls-2" d="M44.38,1.23V1.14H44v1.7h1.19V1.27A2.86,2.86,0,0,1,44.38,1.23Z"/><rect x="49.96" y="1.23" width="0.05" height="1.57"/><path class="cls-2" d="M49.17,6h-.75c0,.79,0,1.59,0,2.38h-.75c0,.79,0,1.58,0,2.37h-.75v.28h2.33V9.11h.75V8.36h0V2.85h-.71C49.2,3.91,49.19,5,49.17,6Z"/><polygon class="cls-2" points="58.17 5.11 58.17 7.35 59.47 7.35 59.47 1.78 57.88 1.78 57.88 3.82 58.17 3.82 58.17 5.11"/><rect x="63.15" y="10.01" width="1.82" height="0.36"/><rect x="9.57" y="3.4" width="1.58" height="0.21"/><rect x="4.86" y="8.4" width="0.71" height="0.41"/><path class="cls-2" d="M11.16,6.77h-.8V6H8.74V5.23l-2.34,0c0-.39,0-.79,0-1.18H4V4.4a3.5,3.5,0,0,1,0,.75h.75V6h.83v.75L8,6.77v.76l1.54,0V9.94H9.5V11H4.86v.48l2.38,0v.38h1.5v-.38h1.62v-.8h.8V9.9h.75V7.61h-.75Z"/><path class="cls-2" d="M20.66,2.06V1.52H13.57V3.88h2.34V2h2.41v.75a2.92,2.92,0,0,1,.8,0v.76h.75v.54h1.57V2.81a3.5,3.5,0,0,1,0-.75Z"/><polygon class="cls-2" points="25.41 6.77 29.37 6.77 29.37 6.52 23.07 6.52 23.07 6.88 25.41 6.88 25.41 6.77"/><path class="cls-2" d="M37.18,11.12v1.16h.07v-.75l2.38,0c0-.11,0-.24,0-.37Z"/><path class="cls-2" d="M39.63,2V1.89H33.37V2h0v0h-.75v0H34V7.59h.09c0-.54,0-1.07,0-1.61a3.48,3.48,0,0,0,0-.87V3.57h.76a2.57,2.57,0,0,1,0-.8h.75V2h1.66v.75a2.84,2.84,0,0,1,.79,0v.76h.76V4.4l1.54,0c0-.52,0-1,0-1.55a3.5,3.5,0,0,1,0-.75A2.86,2.86,0,0,1,39.63,2Z"/><polygon class="cls-2" points="43.98 0.48 43.67 0.48 43.67 1.14 43.98 1.14 43.98 0.77 43.98 0.48"/><polygon class="cls-2" points="42.84 5.48 43.98 5.48 43.98 4.15 43.98 2.84 42.84 2.84 42.84 5.48"/><path class="cls-2" d="M54.72,9.19c0-1.06,0-2.11,0-3.17h-.76c0-.79,0-1.58,0-2.37h-.75V2.8H50V5.94h.71c0-.79,0-1.58,0-2.37a2.49,2.49,0,0,1,.83,0v.75h.75V6.81H50v1h3.17v2.86h.74v.84h1.59l0-2.34Z"/><rect x="57.88" y="10.37" width="5.27" height="1.16"/></g></g></svg>