<svg xmlns="http://www.w3.org/2000/svg" viewBox="0 0 214 31"><defs><style>.cls-1{fill:none;opacity:0.15;}.cls-2{fill:red;}</style></defs><title>アートボード 203</title><g id="comon"><g id="見出し"><rect class="cls-1" width="214" height="31"/><path class="cls-2" d="M75,14.27l-3,0c.08.07.14.16.22.23l.76.59,3.09,0C75.76,14.84,75.4,14.56,75,14.27Z"/><path class="cls-2" d="M72.49,20.25s0,0,0,0l-2,0,0,.05Z"/><path class="cls-2" d="M78.57,19.4a1.36,1.36,0,0,0,0-.2,3.29,3.29,0,0,0-.08-.71l-2.13,0a2.49,2.49,0,0,1,.23.91Z"/><path class="cls-2" d="M69.53,20.23l-2,0a.07.07,0,0,1,0,.05h2A.06.06,0,0,1,69.53,20.23Z"/><path class="cls-2" d="M86.6,23.85a4.5,4.5,0,0,0,3.33-1.26,3.49,3.49,0,0,0,.56-.72l-2.83.05a3.84,3.84,0,0,1-1.26.22,2.51,2.51,0,0,1-1-.19L82.74,22a5.42,5.42,0,0,0,.66.79A4.3,4.3,0,0,0,86.6,23.85Z"/><path class="cls-2" d="M66.76,19.37V18.6l-2,0v.8l2,0Z"/><path class="cls-2" d="M79.68,8.72h2a3.35,3.35,0,0,1,2.25.74h2.31a4,4,0,0,0-.78-1.16A4.38,4.38,0,0,0,82.18,7.1H77.71V9.46h2Z"/><path class="cls-2" d="M91,16.7l2.49,0a4.45,4.45,0,0,0,3.28-1.18s0,0,0-.05l-7.77-.06L89,23.82l2,0Z"/><polygon class="cls-2" points="87.95 15.25 95.77 15.23 95.77 14.13 89.93 14.15 89.92 8.73 96.28 8.72 96.27 7.09 87.94 7.11 87.95 15.25"/><rect class="cls-2" x="95.55" y="20.2" height="1.98" transform="translate(72.72 116.36) rotate(-89.02)"/><polygon class="cls-2" points="90.99 22.02 90.96 23.78 99.72 23.93 99.75 22.3 92.96 22.18 92.96 22.06 90.99 22.02"/><path class="cls-2" d="M112.3,13.12a6.58,6.58,0,0,1,1.59-3.8,2,2,0,0,1,2.75-.06c.62.64,1,1.88,1,3.71l1.89,0a6.36,6.36,0,0,0-1.66-4.92,3.5,3.5,0,0,0-2.57-1,3.79,3.79,0,0,0-2.76,1.17,8.4,8.4,0,0,0-2.18,4.83Z"/><path class="cls-2" d="M106.32,18.56c0-.37.08-.76.1-1.17l-2.06,0c0,.43,0,.81-.06,1.17Z"/><path class="cls-2" d="M120.93,22.62a5.21,5.21,0,0,0,1.17-2.37l-2,0a2.72,2.72,0,0,1-.56,1.08,2.1,2.1,0,0,1-1.46.7,2.14,2.14,0,0,1-1.55-.68,3.74,3.74,0,0,1-.73-1.06l-2,0a6.69,6.69,0,0,0,1.48,2.35,4.07,4.07,0,0,0,1.7,1l2.3,0A4,4,0,0,0,120.93,22.62Z"/><path class="cls-2" d="M99.84,18.58a14,14,0,0,1-.18-1.72h-2a14.89,14.89,0,0,0,.18,1.72Z"/><path class="cls-2" d="M103.41,14.45q0-.54.09-1h-2c0,.33-.08.67-.1,1Z"/><rect class="cls-2" x="110.77" y="11.75" width="1.98" height="9.49" transform="translate(-0.08 0.52) rotate(-0.27)"/><rect class="cls-2" x="119.45" y="7.1" width="3.87" height="0.41" transform="translate(-0.08 1.5) rotate(-0.71)"/><polygon class="cls-2" points="122.38 22.53 120.33 22.56 120.02 23.87 122.08 23.84 122.38 22.53"/><polygon class="cls-2" points="127.23 23.86 129.29 23.84 128.94 22.54 126.9 22.56 127.23 23.86"/><polygon class="cls-2" points="121.38 7.09 120.24 11.31 124.13 11.36 123.1 7.11 121.38 7.09"/><polygon class="cls-2" points="122.54 21.65 122.32 22.56 124.37 22.53 124.58 21.62 122.54 21.65"/><polygon class="cls-2" points="127.49 21.63 127.7 22.54 129.75 22.55 129.53 21.64 127.49 21.63"/><polygon class="cls-2" points="133.57 18.91 133.63 22.94 142.57 22.82 142.56 22.16 135.6 22.25 135.55 18.89 133.57 18.91"/><rect class="cls-2" x="143.67" y="14.41" width="3.48" height="1.98" transform="translate(129.11 160.7) rotate(-89.64)"/><rect class="cls-2" x="131.93" y="8.55" width="4.89" height="1.98" transform="translate(124.19 143.87) rotate(-89.72)"/><rect class="cls-2" x="144.4" y="19.03" width="0.7" height="8.94" transform="translate(120.47 168.13) rotate(-89.69)"/></g></g></svg>