<svg xmlns="http://www.w3.org/2000/svg" viewBox="0 0 69 13"><defs><style>.cls-1{fill:none;opacity:0.12;}.cls-2{fill-rule:evenodd;}</style></defs><title>アートボード 91</title><g id="comon"><g id="見出し"><rect class="cls-1" width="69" height="13"/><path class="cls-2" d="M11.16,6.77h-.8V6H8.74V5.23l-2.34,0c0-.79,0-1.58,0-2.38A3.29,3.29,0,0,0,6.4,2H8.78v.79h.79v.8h1.59V2h-.8V1.23H8.74V.48H6.44v.75l-1.58,0V2c-.05,0,0,0,0,0H4.07L4,4.4a3.5,3.5,0,0,1,0,.75h.75V6h.83v.75L8,6.77v.76l1.54,0V9.94L8,10v.75H7.16V10a2.92,2.92,0,0,1-.8,0V9.19a2.86,2.86,0,0,1-.79,0V8.4H4.86v.75H4l0,1.54a2.86,2.86,0,0,1,.79,0v.76l2.38,0v.75h1.5v-.75h1.62v-.8h.8V9.9h.75V7.61h-.75Z"/><path class="cls-2" d="M21.41,2.06h-.75V1.23H18.24V.48H14.36v.75s0,0,0,0h-.75V11.49l2.34,0v-4h2.33V6.77l2.38,0a2.86,2.86,0,0,1,0-.79h.75c0-1,0-2.08,0-3.13A3.5,3.5,0,0,1,21.41,2.06ZM19.87,4.44h-.75v.75h0v0h-.76V6H15.91V2h2.41v.75a2.92,2.92,0,0,1,.8,0v.76h.75Z"/><path class="cls-2" d="M30.12,1.23V.48H23.87v.75h0v0h-.75V11.49a3,3,0,0,1,.75,0h6.33v0h.76V10H25.41V6.77h4V5.19h-4V2.77h4.71a2.86,2.86,0,0,1,0-.79h.76V1.27A2.92,2.92,0,0,1,30.12,1.23Z"/><path class="cls-2" d="M40.42,4.36l0-1.55a3.5,3.5,0,0,1,0-.75,2.86,2.86,0,0,1-.79,0V1.27L38,1.23V.48H35v.75l-1.59,0V2h0v0h-.75c0,.79,0,1.59,0,2.38h-.75l0,3.13a3.5,3.5,0,0,1,0,.75h.75V9.94h.79v.79h.79v.8h1.63v.75h1.5v-.75l2.38,0a2.92,2.92,0,0,1,0-.8h.75l0-2.33H38.88v.83h-.76v.75h0v0l-3.16,0V9.15h-.8c0-1.06,0-2.11,0-3.17a3.48,3.48,0,0,0,0-.87V3.57h.76a2.57,2.57,0,0,1,0-.8h.75V2h1.66v.75a2.84,2.84,0,0,1,.79,0v.76h.76V4.4Z"/><path class="cls-2" d="M44.38,1.23V.48h-.71v.75h-.83v10.3l2.33,0V1.27A2.86,2.86,0,0,1,44.38,1.23Z"/><path class="cls-2" d="M55.51,11.53l0-2.34h-.75c0-1.06,0-2.11,0-3.17h-.76c0-.79,0-1.58,0-2.37h-.75c0-.8,0-1.59,0-2.38a2.86,2.86,0,0,1-.79,0V.48H50.8v.75H50V2.85h-.75c0,1.06,0,2.12,0,3.17h-.75c0,.79,0,1.59,0,2.38h-.75c0,.79,0,1.58,0,2.37h-.75v.72l2.33,0V9.11h.75V8.36h3.21c0,.78,0,1.56,0,2.33h.75v.84ZM52.34,6.81H50V5.94h.76c0-.79,0-1.58,0-2.37a2.49,2.49,0,0,1,.83,0v.75h.75Z"/><path class="cls-2" d="M60.26,10a3.94,3.94,0,0,0-.79,0V1.23a3.54,3.54,0,0,1,0-.75H57.92a3,3,0,0,1,0,.75v10.3h6.34a3,3,0,0,1,.75,0V10Z"/></g></g></svg>