<svg xmlns="http://www.w3.org/2000/svg" viewBox="0 0 214 31"><defs><style>.cls-1{fill:none;opacity:0.15;}.cls-2{fill:red;}</style></defs><title>アートボード 202</title><g id="comon"><g id="見出し"><rect class="cls-1" width="214" height="31"/><path class="cls-2" d="M71,14.4h3c-.42-.32-.83-.65-1.25-1a2.87,2.87,0,0,1-1.2-2.14v-.07H69.78v.91A3.8,3.8,0,0,0,71,14.4Z"/><path class="cls-2" d="M69.78,11.18v-.7a4.31,4.31,0,0,0-.08,1,1.72,1.72,0,0,1,0-.32Z"/><path class="cls-2" d="M76.66,21v1.77H77l.06,0a4.38,4.38,0,0,0,1.22-2.54,6.84,6.84,0,0,1-.19.81Z"/><path class="cls-2" d="M74.19,23.85A4.59,4.59,0,0,0,76.66,23v-.28H74.19Z"/><path class="cls-2" d="M76.84,22.87c0,.05-.12.08-.18.13v0Z"/><path class="cls-2" d="M73.56,22.16a2.31,2.31,0,0,1-1.71-.69,2.14,2.14,0,0,1-.37-.52H71v1.77h3.2v-.6A4.17,4.17,0,0,1,73.56,22.16Z"/><path class="cls-2" d="M76,11.18a2.84,2.84,0,0,1,0,.58h2a6.07,6.07,0,0,0-.13-1.45,4.72,4.72,0,0,1,.1.87Z"/><path class="cls-2" d="M84.92,15.11h-2V13.44h-1.1v-.61H81v4h2v-.09h2.5a4.38,4.38,0,0,0,3.26-1.21,4.21,4.21,0,0,0,1.1-2.1h-2a2.85,2.85,0,0,0,.15-.52,2.53,2.53,0,0,1-.65,1.33A3.25,3.25,0,0,1,84.92,15.11Z"/><path class="cls-2" d="M89.92,12.83a.07.07,0,0,0,0-.05.11.11,0,0,0,0,.05Z"/><rect class="cls-2" x="80.97" y="18.31" width="1.98" height="3.63"/><rect class="cls-2" x="80.97" y="8.82" width="0.88" height="3.36"/><path class="cls-2" d="M82.94,8.75h2a4.56,4.56,0,0,1,.76.07h3.41a3.73,3.73,0,0,0-.39-.5,4.41,4.41,0,0,0-3.26-1.2h-3.6v1.7h1.1Z"/><rect class="cls-2" x="97.43" y="22.25" width="0.34" height="1.63"/><rect class="cls-2" x="98.67" y="22.25" width="2.15" height="1.63"/><polygon class="cls-2" points="94.03 15.8 99.87 15.8 99.87 14.17 94.03 14.17 94.03 13.44 92.05 13.44 92.05 16.84 94.03 16.84 94.03 15.8"/><path class="cls-2" d="M110.11,12.52H112a6.17,6.17,0,0,0-1.71-4.45,2.43,2.43,0,0,0-.58-.43,3.93,3.93,0,0,1,.42.29Z"/><path class="cls-2" d="M109.46,9.82a3.63,3.63,0,0,1,.23.56A3.63,3.63,0,0,0,109.46,9.82Z"/><path class="cls-2" d="M109.6,7.59l-.15-.09V8.82h.15Z"/><path class="cls-2" d="M109.61,20.4h2a14.92,14.92,0,0,0,.47-3H110A10.71,10.71,0,0,1,109.61,20.4Z"/><path class="cls-2" d="M104.1,21.84a5.49,5.49,0,0,0,.67.84l.08.06v-.9Z"/><path class="cls-2" d="M104.85,22.74l0,0,0,0Z"/><path class="cls-2" d="M104.88,22.76a3.81,3.81,0,0,0,1.24.83A3.91,3.91,0,0,1,104.88,22.76Z"/><path class="cls-2" d="M104.09,21.84h0a7.74,7.74,0,0,1-.42-.68C103.81,21.4,104,21.63,104.09,21.84Z"/><polygon class="cls-2" points="111.05 21.84 111.05 21.84 111.05 21.85 111.05 21.84"/><path class="cls-2" d="M107.69,7.12a4.47,4.47,0,0,1,.92.1A4.47,4.47,0,0,0,107.69,7.12Z"/><path class="cls-2" d="M103.54,10.51h0c0-.07,0-.15.08-.22Z"/><path class="cls-2" d="M104.6,15.8a18.85,18.85,0,0,1,.18-2.63c0,.1,0,.18,0,.27H102.8a18.14,18.14,0,0,0-.18,2.53,12.23,12.23,0,0,0,.72,4.43h2A10.73,10.73,0,0,1,104.6,15.8Z"/><path class="cls-2" d="M112,13v-.13h-1.88V13Z"/><rect class="cls-2" x="117.23" y="9.35" width="1.98" height="3.16"/><rect class="cls-2" x="119.61" y="21.99" width="0.55" height="1.89"/><rect class="cls-2" x="117.23" y="13.84" width="1.98" height="6.56"/><polygon class="cls-2" points="129.77 9.19 130.29 11.19 128.59 11.19 128.59 12.17 128.47 11.68 129.59 16.28 131.59 16.28 132.64 20.38 132.55 20.01 130.53 20.01 130.7 20.73 132.73 20.73 133.54 23.88 129.77 9.19 129.77 9.19"/><polygon class="cls-2" points="126.99 9.19 123.23 23.88 124.04 20.73 126.06 20.73 126.24 20.01 124.22 20.01 124.13 20.38 125.18 16.28 127.18 16.28 128.3 11.68 128.01 12.84 126.06 12.84 126.48 11.19 128.59 11.19 128.59 9.19 126.99 9.19"/><polygon class="cls-2" points="137.86 14.32 135.88 14.32 135.88 16.28 137.78 16.28 137.78 20.01 137.86 20.01 137.86 14.32"/><polygon class="cls-2" points="137.86 20.73 137.78 20.73 137.78 23.88 138.14 23.88 138.14 22.25 137.86 22.25 137.86 20.73"/><rect class="cls-2" x="138.79" y="22.25" width="2.19" height="1.63"/><rect class="cls-2" x="143.03" y="22.25" width="1.79" height="1.63"/><path class="cls-2" d="M71.59,11.18a2.43,2.43,0,0,1,.21-.93A2.43,2.43,0,0,0,71.59,11.18Z"/><path class="cls-2" d="M71.16,19.41v-.77h-2v.86a5,5,0,0,0,.1,1h2A4.19,4.19,0,0,1,71.16,19.41Z"/><path class="cls-2" d="M70.56,22.76a3.57,3.57,0,0,0,.43.34v-.38h-.46Z"/><path class="cls-2" d="M76.25,20.46A2.75,2.75,0,0,1,76,21h.64v-.49Z"/><path class="cls-2" d="M78.27,18.31a3.28,3.28,0,0,0-.78-1.47H74.32c.3.2.58.4.88.59a2.84,2.84,0,0,1,.88.88Z"/><path class="cls-2" d="M73.82,8.84a2,2,0,0,1,1.23.41h1.14V8.82H70.56a3.3,3.3,0,0,0-.3.43H72.6A2,2,0,0,1,73.82,8.84Z"/><path class="cls-2" d="M76.74,8.15a3.42,3.42,0,0,0-.55-.44V8.82h1.08A3.4,3.4,0,0,0,76.74,8.15Z"/><rect class="cls-2" x="81.84" y="12.18" width="1.1" height="0.65"/><rect class="cls-2" x="80.97" y="22.72" width="1.98" height="1.15"/><path class="cls-2" d="M88,12.92l0-.09H89.9c0-.17,0-.33.06-.51s0-.09,0-.14H88.08A3.48,3.48,0,0,1,88,12.92Z"/><path class="cls-2" d="M88.08,12.18h0a2,2,0,0,0,0-.25A2,2,0,0,1,88.08,12.18Z"/><path class="cls-2" d="M90,12.18c0-.09,0-.16,0-.25a2,2,0,0,1,0,.25Z"/><path class="cls-2" d="M90,12.31h0c0,.15,0,.32,0,.46Z"/><path class="cls-2" d="M89.87,13.12a2.93,2.93,0,0,1,0-.29h0Z"/><path class="cls-2" d="M89.82,13.39s0,0,0,0h0A.11.11,0,0,1,89.82,13.39Z"/><polygon class="cls-2" points="94.03 21.95 92.05 21.95 92.05 23.88 96.39 23.88 96.39 22.25 94.03 22.25 94.03 21.95"/><rect class="cls-2" x="92.05" y="8.82" width="1.98" height="4.02"/><path class="cls-2" d="M109.49,20.73a2.21,2.21,0,0,1-.42.66,2.73,2.73,0,0,1-.61.45h2.59a5.7,5.7,0,0,0,.47-1.11Z"/><path class="cls-2" d="M106.69,21.84a2.62,2.62,0,0,1-.63-.45,3.69,3.69,0,0,1-.5-.66h-.71v1.11Z"/><path class="cls-2" d="M109.46,9.82v0h0Z"/><path class="cls-2" d="M109.07,9.27a2.1,2.1,0,0,1,.34.47l0,.06h0l0,0,0,0v-1h-1.24A1.66,1.66,0,0,1,109.07,9.27Z"/><path class="cls-2" d="M110.09,12.83h0v-.31h0Z"/><path class="cls-2" d="M109.6,7.58h0l.09,0Z"/><path class="cls-2" d="M104.78,13.17c0-.25.08-.5.13-.74,0,.14-.07.26-.09.4S104.79,13.06,104.78,13.17Z"/><path class="cls-2" d="M104.82,12.83c0-.14.06-.27.09-.4h0c0-.16.06-.32.1-.47h0c0-.2.11-.39.17-.58s.11-.33.17-.47h0s0,0,0,0,0,0,0,0a4.33,4.33,0,0,1,1-1.55,2,2,0,0,1,.92-.54h-2.72a7,7,0,0,0-1,1.68c-.1.25-.2.5-.28.77a.14.14,0,0,1,0-.06c-.06.16-.11.33-.16.5l0-.05c-.09.31-.16.63-.23,1l0-.14,0,.14c0,.07,0,.13,0,.2h0a2.33,2.33,0,0,0,0,.28,2.33,2.33,0,0,1,0-.28Z"/><path class="cls-2" d="M102.78,13.44h0a3.31,3.31,0,0,1,0-.33A3.23,3.23,0,0,0,102.78,13.44Z"/><polygon class="cls-2" points="116.29 9.01 117.23 9.01 117.23 9.19 119.21 9.19 119.21 9.01 120.15 9.01 120.15 7.12 116.29 7.12 116.29 9.01"/><rect class="cls-2" x="117.23" y="20.73" width="1.98" height="1.12"/><polygon class="cls-2" points="128.59 8.35 128.59 9.19 129.77 9.19 129.24 7.12 127.52 7.12 126.99 9.19 127.21 8.35 128.59 8.35"/><rect class="cls-2" x="135.88" y="9.21" width="1.98" height="1.97"/><rect class="cls-2" x="135.88" y="20.01" width="1.9" height="0.71"/><rect class="cls-2" x="135.88" y="7.12" width="1.98" height="2.07"/></g></g></svg>