<svg xmlns="http://www.w3.org/2000/svg" viewBox="0 0 214 31"><defs><style>.cls-1{fill:none;opacity:0.15;}.cls-2{fill:red;}</style></defs><title>アートボード 201</title><g id="comon"><g id="見出し"><rect class="cls-1" width="214" height="31"/><path class="cls-2" d="M76.4,16a3.56,3.56,0,0,1,2,3.27,4.65,4.65,0,0,1-1.29,3.44,4.53,4.53,0,0,1-3.35,1.2,4.27,4.27,0,0,1-3.18-1.12,4.43,4.43,0,0,1-1.38-3.26v-.86h2v.77a2.79,2.79,0,0,0,.69,2.06,2.31,2.31,0,0,0,1.71.69,2.81,2.81,0,0,0,2.07-.69,2.68,2.68,0,0,0,.77-2,2.37,2.37,0,0,0-1.2-2.07,42.11,42.11,0,0,1-4-2.92,3.88,3.88,0,0,1-1.46-3A3.91,3.91,0,0,1,71,8.32a4.07,4.07,0,0,1,2.83-1.2,3.93,3.93,0,0,1,2.92,1A4.65,4.65,0,0,1,78,11.76H76a2.63,2.63,0,0,0-.69-2.32,2.08,2.08,0,0,0-2.92,0,2.51,2.51,0,0,0-.77,1.81,2.87,2.87,0,0,0,1.2,2.14A22.43,22.43,0,0,0,76.4,16Z"/><path class="cls-2" d="M88.7,8.32A4.89,4.89,0,0,1,90,11.93a4.88,4.88,0,0,1-1.29,3.61,4.38,4.38,0,0,1-3.26,1.21h-2.5v7.13H81V7.12h4.47A4.41,4.41,0,0,1,88.7,8.32Zm-5.76.43v6.36h2a3.25,3.25,0,0,0,2.41-.86,3.17,3.17,0,0,0,.77-2.32,3.18,3.18,0,0,0-.77-2.32,3.29,3.29,0,0,0-2.41-.86Z"/><path class="cls-2" d="M94,14.17h5.84V15.8H94v6.45h6.79v1.63H92.05V7.12h8.34V8.75H94Z"/><path class="cls-2" d="M110.44,22.68a3.95,3.95,0,0,1-5.67,0c-1.43-1.44-2.15-3.67-2.15-6.71,0-3.55.78-6.1,2.32-7.65a3.79,3.79,0,0,1,2.75-1.2,3.49,3.49,0,0,1,2.58,1A6.34,6.34,0,0,1,112,13H110.1c-.06-1.83-.4-3.06-1-3.69a2,2,0,0,0-2.75.09q-1.72,1.71-1.72,6.44,0,4.13,1.46,5.59a2.12,2.12,0,0,0,1.55.68,2,2,0,0,0,1.46-.68c.57-.58.89-1.89.94-4h2.07C111.9,20,111.36,21.76,110.44,22.68Z"/><path class="cls-2" d="M119.21,22h.94v1.89h-3.86V22h.94V9h-.94V7.12h3.86V9h-.94Z"/><path class="cls-2" d="M125.29,23.88h-2.06l4.29-16.76h1.72l4.3,16.76h-2.06L130.27,19h-3.78Zm3.18-12.2h-.17l-1.38,5.67h2.92Z"/><path class="cls-2" d="M135.88,7.12h2V22.25h7v1.63h-8.94Z"/></g></g></svg>