<svg xmlns="http://www.w3.org/2000/svg" viewBox="0 0 65 18"><defs><style>.cls-1{fill:none;opacity:0.15;}.cls-2{fill:red;}</style></defs><title>アートボード 179</title><g id="STAFF_CAST" data-name="STAFF&amp;CAST"><rect class="cls-1" width="65" height="18"/><path class="cls-2" d="M7.18,14a2.58,2.58,0,0,1-.55.91l2.24,0a3.67,3.67,0,0,0,.24-.73,1.21,1.21,0,0,0,0-.18Z"/><path class="cls-2" d="M9.06,14v0h.11a1.27,1.27,0,0,1-.06.18,6,6,0,0,0,.25.71h2.18a2.25,2.25,0,0,1-.47-.91Z"/><path class="cls-2" d="M5.92.65a3.68,3.68,0,0,0-.58,0l.94,0C6.16.68,6,.65,5.92.65Z"/><path class="cls-2" d="M3.77,1.27l4.54.05A3.65,3.65,0,0,0,7.76,1l-3.62.06Z"/><path class="cls-2" d="M6.06,2.31l-2,0v0H2.63a4,4,0,0,0-.74,1.41l2,0A2.49,2.49,0,0,1,4.42,3a1.94,1.94,0,0,1,1.47-.58A2,2,0,0,1,7.34,3a2.17,2.17,0,0,1,.48.78l2,0a4.39,4.39,0,0,0-.57-1.48l-3.21,0Z"/><path class="cls-2" d="M3.77,1.27l-3,0v1l1.9,0a3.64,3.64,0,0,1,.43-.45A4.94,4.94,0,0,1,3.77,1.27Z"/><path class="cls-2" d="M9.27,2.33h.31v-1H8.31a3.39,3.39,0,0,1,.51.41A3.76,3.76,0,0,1,9.27,2.33Z"/><path class="cls-2" d="M6.28.68A5,5,0,0,1,7.76,1l5-.08V.58Z"/><path class="cls-2" d="M3.89.72v.36h.24A3.91,3.91,0,0,1,5.34.7Z"/><rect class="cls-2" x="15.1" y="12.38" width="1.98" height="4.98" transform="translate(-0.21 0.23) rotate(-0.81)"/><polygon class="cls-2" points="18.05 9.84 18.03 11.52 20.01 11.54 20.04 8.16 18.06 8.14 18.05 9.84"/><rect class="cls-2" x="17.61" y="4.71" width="1.98" height="1.72"/><polygon class="cls-2" points="30.32 3.38 30.25 3.65 30.69 3.65 30.69 3.38 30.32 3.38"/><rect class="cls-2" x="32.85" y="3.2" width="0.27" height="0.65" transform="translate(29.34 36.5) rotate(-89.78)"/><polygon class="cls-2" points="31.09 2.15 30.41 2.15 30.4 1.14 30.85 1.13 30.74 0.67 29.02 0.64 28.55 2.35 31.15 2.39 31.09 2.15"/><polygon class="cls-2" points="23.67 12.87 21.66 12.89 21.44 13.75 23.47 13.73 23.67 12.87"/><polygon class="cls-2" points="35.14 11.58 34.4 8.65 33.92 8.65 32.92 8.65 32.91 10.75 32.94 10.88 32.91 10.88 32.91 12.51 33.37 12.51 33.46 12.88 33.91 12.88 33.91 13.85 35.72 13.85 35.15 11.62 35.14 11.62 35.14 11.58"/><polygon class="cls-2" points="24.72 15.52 24.97 14.57 22.94 14.54 22.17 17.39 24.23 17.42 24.52 16.29 24.33 15.53 24.72 15.52"/><polygon class="cls-2" points="24.72 15.52 24.52 16.29 24.81 17.41 26.87 17.4 26.37 15.51 24.72 15.52"/><polygon class="cls-2" points="37.09 9.68 35.11 9.71 35.14 11.58 35.15 11.62 37.12 11.59 37.09 9.68"/><rect class="cls-2" x="26.87" y="13.26" width="1.98" height="4.15" transform="translate(-0.04 0.07) rotate(-0.14)"/><polygon class="cls-2" points="39.43 2.07 39.42 1.05 30.85 1.13 31.09 2.15 39.43 2.07"/><polygon class="cls-2" points="32.65 2.41 30.67 2.43 30.69 3.38 32.66 3.39 32.65 2.41"/><polygon class="cls-2" points="32.73 7.89 32.67 3.66 30.69 3.65 30.75 8.03 38.06 7.92 38.05 7.82 32.73 7.89"/><polygon class="cls-2" points="64.27 2.27 64.27 1.68 55.24 1.71 55.25 3.61 57.23 3.61 57.22 2.29 64.27 2.27"/><rect class="cls-2" x="53.79" y="16.38" width="0.08" height="1.98" transform="translate(36.12 71.09) rotate(-89.64)"/><polygon class="cls-2" points="46.35 7.82 41.02 7.89 40.98 5.29 39.01 5.32 39.08 10.52 41.06 10.49 41.05 9.53 46.37 9.45 46.35 7.82"/></g></svg>