<svg xmlns="http://www.w3.org/2000/svg" viewBox="0 0 214 31"><defs><style>.cls-1{fill:none;opacity:0.15;}.cls-2{fill:red;}</style></defs><title>アートボード 157</title><g id="comon"><g id="見出し"><rect class="cls-1" width="214" height="31"/><path class="cls-2" d="M45.07,11.16a.29.29,0,0,1,0-.09,2.47,2.47,0,0,1,.78-1.8,2.08,2.08,0,0,1,2.92,0,2.69,2.69,0,0,1,.69,2.32c0-.15,0-.29,0-.43H51.4s0,0,0-.05H50v-3H44.5a.1.1,0,0,1,0,0,4,4,0,0,0-1.29,3.18c0-.06,0-.11,0-.17Z"/><path class="cls-2" d="M44.5,8.11a4.91,4.91,0,0,1,1.33-.87A4.91,4.91,0,0,0,44.5,8.11Z"/><path class="cls-2" d="M50.85,21h.67a5.33,5.33,0,0,0,.29-1.48h-1Z"/><path class="cls-2" d="M49.85,19.52a3,3,0,0,1-.21,1A3,3,0,0,0,49.85,19.52Z"/><rect class="cls-2" x="58.17" y="11.16" width="0.54" height="1.23"/><rect class="cls-2" x="56.73" y="19.52" width="1.98" height="1.48"/><rect class="cls-2" x="56.73" y="15.26" width="1.98" height="0.36"/><rect class="cls-2" x="56.73" y="11.11" width="1.44" height="0.05"/><rect class="cls-2" x="56.73" y="23.62" width="1.98" height="0.08"/><polygon class="cls-2" points="64.33 19.52 63.25 23.71 65.32 23.71 65.34 23.62 63.27 23.62 63.95 21 64.36 21 64.36 19.52 64.33 19.52"/><polygon class="cls-2" points="65.67 22.27 66.52 18.81 65.87 21.47 65.67 22.27"/><polygon class="cls-2" points="71.19 14.45 71.49 15.62 71.03 13.82 71.19 14.45"/><polygon class="cls-2" points="65.79 13.82 65.33 15.62 65.7 14.15 65.79 13.82"/><rect class="cls-2" x="75.16" y="15.26" width="0.07" height="0.36"/><polygon class="cls-2" points="79.42 15.62 75.23 15.62 75.23 21 75.16 21 75.16 21.47 77 21.47 77 15.8 82.33 15.8 82.33 14.17 79.42 14.17 79.42 15.62"/><polygon class="cls-2" points="75.03 23.71 77 23.71 77 22.14 75.16 22.14 75.16 21.47 75.03 21.47 75.03 23.71"/><rect class="cls-2" x="86.03" y="22.14" width="1.98" height="1.56"/><rect class="cls-2" x="86.03" y="12.74" width="1.48" height="8.73"/><rect class="cls-2" x="86.03" y="8.57" width="1.48" height="0.86"/><rect class="cls-2" x="87.51" y="9.43" width="0.49" height="3.31"/><path class="cls-2" d="M115.42,21.93v.73c.41.4.83.81,1.29,1.22-.35-.31-.66-.62-1-.93h1.33l.33-.88-.15-.14Z"/><path class="cls-2" d="M111.72,24.05a4,4,0,0,0,2.76-1.1h-5.55A3.91,3.91,0,0,0,111.72,24.05Z"/><path class="cls-2" d="M116,20.61a11.91,11.91,0,0,0,.74-4h-1.34V21h1C116.25,20.89,116.12,20.75,116,20.61Z"/><path class="cls-2" d="M109.17,9.57h0s0-.08,0-.12Z"/><path class="cls-2" d="M109.43,8.8a3.12,3.12,0,0,0-.22.63h.22Z"/><path class="cls-2" d="M109.73,8.25a2.48,2.48,0,0,1,.36-.44A3.65,3.65,0,0,0,109.73,8.25Z"/><path class="cls-2" d="M109.69,8.31l0-.06Z"/><path class="cls-2" d="M109.45,8.74a3.62,3.62,0,0,1,.24-.43A3,3,0,0,0,109.45,8.74Z"/><path class="cls-2" d="M109.43,8.79h0l0-.06S109.44,8.77,109.43,8.79Z"/><path class="cls-2" d="M131,9.62l-.06.15.08-.15Z"/><path class="cls-2" d="M133.46,9.18a1.9,1.9,0,0,1,1.38-.6,1.82,1.82,0,0,1,1.37.52,2.05,2.05,0,0,1,.38.52h2a5.81,5.81,0,0,0-1.17-1.73A3.52,3.52,0,0,0,134.84,7a3.79,3.79,0,0,0-2.75,1.2A6.43,6.43,0,0,0,131,9.62h2.06C133.21,9.47,133.33,9.32,133.46,9.18Z"/><path class="cls-2" d="M137.25,12.79c0-.25,0-.49-.05-.71h0C137.21,12.31,137.24,12.53,137.25,12.79Z"/><path class="cls-2" d="M139.11,12.08c0,.23,0,.46,0,.71,0-.25,0-.48,0-.71Z"/><path class="cls-2" d="M139.11,12c0-.1,0-.21,0-.3,0,.06,0,.13,0,.19S139.11,11.91,139.11,12Z"/><path class="cls-2" d="M139.13,12.08c0-.05,0-.09,0-.13a.62.62,0,0,0,0,.13Z"/><path class="cls-2" d="M139,10.79a7.22,7.22,0,0,1,.11.83h0A7.55,7.55,0,0,0,139,10.79Z"/><path class="cls-2" d="M130.13,12.08a2.19,2.19,0,0,0,0,.27l.06-.27Z"/><polygon class="cls-2" points="142.12 16.44 142.12 16.44 142.38 15.43 140.74 21.82 142.12 21.82 142.12 16.61 142.07 16.61 142.12 16.44"/><polygon class="cls-2" points="148.01 13.75 147.58 12.07 145.63 12.07 146.87 17.18 146.04 13.75 148.01 13.75"/><polygon class="cls-2" points="146.96 9.62 146.96 9.62 147.58 12.07 147.58 12.07 146.96 9.62"/><polygon class="cls-2" points="144.55 6.95 142.81 13.75 144.78 13.75 145.19 12.07 143.24 12.07 143.86 9.62 146.96 9.62 146.27 6.95 144.55 6.95"/><polygon class="cls-2" points="144.78 13.75 144.78 13.75 144.58 14.57 144.78 13.75"/><polygon class="cls-2" points="140.25 23.71 140.94 23.71 140.94 22.55 142.12 22.55 142.12 21.93 140.71 21.93 140.25 23.71"/><path class="cls-2" d="M159.33,8s0,.06.06.08h0S159.36,8,159.33,8Z"/><path class="cls-2" d="M157.94,7.18l-.32-.09h0Z"/><path class="cls-2" d="M157.54,7.08,157.1,7l.44.08Z"/><path class="cls-2" d="M157.62,7.09Z"/><path class="cls-2" d="M152.55,9.62h0l.06-.14S152.57,9.57,152.55,9.62Z"/><path class="cls-2" d="M154.57,9.74h0a3.26,3.26,0,0,1,.38-.47,3.27,3.27,0,0,0-.3.35h-2.08a.61.61,0,0,1,0,.12Z"/><path class="cls-2" d="M159.39,8.06l.07.09a3.14,3.14,0,0,1,.39.51A3.3,3.3,0,0,0,159.39,8.06Z"/><path class="cls-2" d="M160,8.92a.84.84,0,0,0-.06-.14.75.75,0,0,0,.06.13Z"/><path class="cls-2" d="M158.45,10.23a2.41,2.41,0,0,0-.21-.49h2.08l0-.09h-2.12A2.83,2.83,0,0,1,158.45,10.23Z"/><polygon class="cls-2" points="160.32 9.74 160.32 9.74 160.32 9.74 160.32 9.74"/><path class="cls-2" d="M160.3,9.62a.84.84,0,0,1-.06-.14v0l0,.09Z"/><path class="cls-2" d="M153.75,14.34a3.66,3.66,0,0,1-.59-.59H156l.08.06c-.24-.19-.48-.38-.72-.59a3.7,3.7,0,0,1-.94-1.14h-2.05a5.88,5.88,0,0,1-.11-.75A3.92,3.92,0,0,0,153.75,14.34Z"/><rect class="cls-2" x="165.85" y="9.65" width="1.98" height="0.09"/><path class="cls-2" d="M45.07,11.16a2.16,2.16,0,0,0,.31,1.05A2.27,2.27,0,0,1,45.07,11.16Z"/><path class="cls-2" d="M136.85,10.25a7.76,7.76,0,0,1,.34,1.83A7.76,7.76,0,0,0,136.85,10.25Z"/><path class="cls-2" d="M51.36,10.8c0,.11,0,.2,0,.31h0C51.39,11,51.37,10.91,51.36,10.8Z"/><path class="cls-2" d="M50.21,8A1.09,1.09,0,0,0,50,7.85v.26h.27A1.13,1.13,0,0,0,50.21,8Z"/><path class="cls-2" d="M50.32,8.11h0l0,0Z"/><path class="cls-2" d="M50.33,8.13a3.86,3.86,0,0,1,.77,1.3A4,4,0,0,0,50.33,8.13Z"/><path class="cls-2" d="M49.09,21.3A2.79,2.79,0,0,1,47,22a2.33,2.33,0,0,1-1.72-.69,1.76,1.76,0,0,1-.24-.3H43A4.76,4.76,0,0,0,44,22.59c0,.05.12.08.17.13h6.09a1.86,1.86,0,0,0,.27-.22,3.37,3.37,0,0,0,.3-.36V21H49.34A1.73,1.73,0,0,1,49.09,21.3Z"/><path class="cls-2" d="M44.5,14.21l.12.13c.39.31.8.61,1.2.92H49l.9.54a21,21,0,0,1-2.38-1.59Z"/><path class="cls-2" d="M49.87,15.8l-.31-.18H46.28c.77.56,1.56,1.11,2.38,1.64a2.35,2.35,0,0,1,1.21,2.06c0,.07,0,.13,0,.2h1v-3A4.45,4.45,0,0,0,49.87,15.8Z"/><path class="cls-2" d="M44.64,19.52c0-.09,0-.18,0-.28v-.78h-2v.86a1.36,1.36,0,0,0,0,.2Z"/><path class="cls-2" d="M43,21a4.53,4.53,0,0,1-.29-1.48A4.53,4.53,0,0,0,43,21Z"/><path class="cls-2" d="M45.31,21.3a2.64,2.64,0,0,1-.28-.36l0,.06h0A2.17,2.17,0,0,0,45.31,21.3Z"/><path class="cls-2" d="M49.34,21l.07-.09a2.37,2.37,0,0,1-.32.39,2.34,2.34,0,0,0,.25-.3Z"/><polygon class="cls-2" points="58.5 8.11 58.17 8.11 58.17 11.11 58.71 11.11 58.71 8.58 62.23 8.58 62.23 6.95 58.5 6.95 58.5 8.11"/><rect class="cls-2" x="53.38" y="6.95" width="4.79" height="1.16"/><polygon class="cls-2" points="69.27 6.95 67.55 6.95 67.14 8.56 69.68 8.56 69.27 6.95"/><polygon class="cls-2" points="70.33 11.11 66.48 11.11 66.47 11.16 70.35 11.16 70.33 11.11"/><polygon class="cls-2" points="71.49 15.62 69.49 15.62 69.87 17.18 66.95 17.18 67.33 15.62 65.33 15.62 64.36 19.41 64.36 19.52 66.34 19.52 66.52 18.81 70.3 18.81 70.84 21 72.87 21 72.99 21.47 70.95 21.47 71.48 23.62 73.54 23.62 73.57 23.71 72.25 18.59 71.49 15.62"/><polygon class="cls-2" points="67.41 15.26 68.11 12.39 66.15 12.39 65.7 14.15 65.42 15.26 67.41 15.26"/><polygon class="cls-2" points="68.71 12.39 69.41 15.26 71.4 15.26 71.19 14.45 70.67 12.39 68.71 12.39"/><polygon class="cls-2" points="64.36 21 64.36 21.47 65.87 21.47 65.98 21 64.36 21"/><polygon class="cls-2" points="80.43 6.95 77.32 6.95 77.32 8.56 84.05 8.56 84.05 7.91 80.43 7.91 80.43 6.95"/><rect class="cls-2" x="75.03" y="15.62" width="0.13" height="5.38"/><polygon class="cls-2" points="77 12.74 77 12.39 75.03 12.39 75.03 15.26 75.16 15.26 75.16 12.74 77 12.74"/><polygon class="cls-2" points="75.03 11.16 77 11.16 77 8.58 77.32 8.58 77.32 8.56 75.03 8.56 75.03 11.16"/><rect class="cls-2" x="90.94" y="14.17" width="2.39" height="1.63"/><rect class="cls-2" x="86.03" y="6.95" width="9.02" height="0.96"/><path class="cls-2" d="M113.12,11h1.63a5.6,5.6,0,0,0,.07-.84,4.92,4.92,0,0,0,0-.56h-1.65a3.15,3.15,0,0,1,.05.56A5.35,5.35,0,0,1,113.12,11Z"/><path class="cls-2" d="M109.09,11h1.64a4.38,4.38,0,0,1,0-.5,2.83,2.83,0,0,1,.14-.9h-1.65a4.4,4.4,0,0,0-.12,1C109.06,10.69,109.08,10.84,109.09,11Z"/><path class="cls-2" d="M109.21,9.43v0Z"/><path class="cls-2" d="M107.67,17.88a5.92,5.92,0,0,1,.48-1.27A5.92,5.92,0,0,0,107.67,17.88Z"/><path class="cls-2" d="M113.89,21a.36.36,0,0,0,.07.1,3.66,3.66,0,0,1-.68.8h2.14V21Z"/><path class="cls-2" d="M115.07,16.06c0,.19,0,.37,0,.55h.36v-.55Z"/><path class="cls-2" d="M110.69,15.89c.11.23.25.48.38.72H113a18.67,18.67,0,0,1-1-1.93,6.82,6.82,0,0,0,1-.72h-3.13l.15.38a8.32,8.32,0,0,0-1.1,1.13l0,0a7.6,7.6,0,0,0-.77,1.17h2A5.45,5.45,0,0,1,110.69,15.89Z"/><path class="cls-2" d="M108.15,16.61a6.58,6.58,0,0,1,.75-1.14A6.58,6.58,0,0,0,108.15,16.61Z"/><path class="cls-2" d="M112,18.32c.53.85,1.15,1.76,1.85,2.71C113.19,20.08,112.57,19.17,112,18.32Z"/><path class="cls-2" d="M110.09,21.82a2.23,2.23,0,0,1-.48-.79,3.68,3.68,0,0,1-.21-.73,3.68,3.68,0,0,0,.21.73h-1.84a4,4,0,0,0,.37.9h2.09Z"/><path class="cls-2" d="M132.08,12.11c0-.16.06-.33.1-.49h-1.93c0,.15-.07.3-.1.46h1.93Z"/><path class="cls-2" d="M129.79,16.61h2a1.62,1.62,0,0,1,0-.22h0v-.27h-1.88V13.73c0,.3-.06.6-.08.92s0,.75,0,1.15S129.78,16.35,129.79,16.61Z"/><path class="cls-2" d="M129.88,13.65c0,.18,0,.37,0,.55,0-.16,0-.33,0-.48Z"/><path class="cls-2" d="M129.8,14.65c0-.16,0-.3,0-.45C129.83,14.35,129.81,14.49,129.8,14.65Z"/><path class="cls-2" d="M129.91,13.43l0,.29h0Z"/><path class="cls-2" d="M129.8,14.68v0h0Z"/><path class="cls-2" d="M134.75,21.9a2,2,0,0,1-.54-.08h-2.87l-.07-.11.07.11h0a.41.41,0,0,1,.07.11h0l0,0,0,0H138l.07-.11h-2.86A1.69,1.69,0,0,1,134.75,21.9Z"/><path class="cls-2" d="M131.44,22l0,0h0Z"/><path class="cls-2" d="M139.09,11.62h0v0Z"/><path class="cls-2" d="M139.07,11.62h-1.91c0,.15,0,.3,0,.46h1.91a1.93,1.93,0,0,1,0-.24Z"/><polygon class="cls-2" points="150.08 21.82 148.01 13.75 148.01 13.75 148.62 16.12 146.61 16.12 146.87 17.18 145.29 17.18 145.29 18.81 147.3 18.81 148.04 21.82 150.08 21.82"/><polygon class="cls-2" points="142.2 16.12 142.12 16.44 142.12 16.61 144.09 16.61 144.58 14.57 144.21 16.12 142.2 16.12"/><polygon class="cls-2" points="148.22 22.55 148.5 23.71 150.57 23.71 150.27 22.55 148.22 22.55"/><polygon class="cls-2" points="142.32 23.71 142.6 22.55 142.12 22.55 142.12 23.71 142.32 23.71"/><polygon class="cls-2" points="142.75 21.93 142.78 21.82 142.12 21.82 142.12 21.93 142.75 21.93"/><path class="cls-2" d="M156.39,16.31v-.19h-.29Z"/><path class="cls-2" d="M156.39,14v2.08h3.09c-.16-.11-.32-.22-.49-.32a22.67,22.67,0,0,1-2.89-2l.29.24Z"/><path class="cls-2" d="M153.14,22.59a4.3,4.3,0,0,0,3.18,1.12,5.69,5.69,0,0,0,1.87-.29,3.89,3.89,0,0,0,1.42-.87h-6.5Z"/><path class="cls-2" d="M155.22,21.82a2.26,2.26,0,0,1-.79-.52,2.78,2.78,0,0,1-.68-2.06v-.78h-2v.86a4.42,4.42,0,0,0,.74,2.5h2.71Z"/><polygon class="cls-2" points="152.51 21.82 152.51 21.82 152.51 21.82 152.51 21.82"/><polygon class="cls-2" points="152.51 21.82 152.51 21.82 152.51 21.82 152.51 21.82"/><path class="cls-2" d="M152.52,21.82a4.49,4.49,0,0,0,.59.73A4.49,4.49,0,0,1,152.52,21.82Z"/><path class="cls-2" d="M158.15,9.62s0,0,0,0h0s0,0,0,0Z"/><path class="cls-2" d="M160.29,9.65h0a0,0,0,0,0,0,0h0Z"/><path class="cls-2" d="M159.93,8.78l-.08-.12,0,.05Z"/><path class="cls-2" d="M157.54,7.08V9a2.16,2.16,0,0,1,.33.27,3.07,3.07,0,0,1,.28.35h2.13l0-.09a4.26,4.26,0,0,0-.26-.62c0-.07-.07-.14-.11-.2a3.72,3.72,0,0,0-.42-.56l-.07-.09h-1.77v-1h-.08Z"/><path class="cls-2" d="M157.54,7.07h.06Z"/><rect class="cls-2" x="165.85" y="22.55" width="1.98" height="1.15"/><rect class="cls-2" x="165.85" y="13.75" width="1.98" height="2.36"/><polygon class="cls-2" points="162.5 8.06 162.5 8.58 165.85 8.58 165.85 9.62 167.83 9.62 167.83 8.58 171.35 8.58 171.35 8.06 162.5 8.06"/></g></g></svg>