<svg xmlns="http://www.w3.org/2000/svg" viewBox="0 0 120 13"><defs><style>.cls-1{fill:none;opacity:0.12;}.cls-2{fill-rule:evenodd;}</style></defs><title>アートボード 43</title><g id="comon"><g id="見出し"><rect class="cls-1" width="120" height="13"/><path class="cls-2" d="M16.86,6.77h-.8V6H14.44V5.23l-2.34,0a2.2,2.2,0,0,0,0-.79,7.87,7.87,0,0,1,0-1.63h.76V2h1.62v.79h.79v.8h1.59V2h-.8V1.23H14.44V.48h-2.3v.75l-1.58,0V2l0,0H9.77c0,.78,0,1.56,0,2.34a3.5,3.5,0,0,1,0,.75h.75V6h.83v.75l2.38,0v.76l1.54,0V9.94l-1.54,0v.75h-.87V10l-1.55,0c0-.51,0-1,0-1.54h-.71v.75H9.73c0,.51,0,1,0,1.54a2.86,2.86,0,0,1,.79,0v.76l2.38,0v.75h1.5v-.75h1.62v-.8h.8V9.9h.75V7.61h-.75Z"/><path class="cls-2" d="M26.32,1.23V.48H18.48l0,1.54a3.58,3.58,0,0,1,0,.75h3.13v8.76h1.58V2.77h3.13a2.86,2.86,0,0,1,0-.79h.75V1.27A2.86,2.86,0,0,1,26.32,1.23Z"/><path class="cls-2" d="M35.07,10.77c0-1,0-2.11,0-3.16h-.75l0-2.38h-.75c0-.79,0-1.58,0-2.38H32.7V1.23h-.84V.48h-1.5v.75h0v0h-.75l0,3.17h-.75c0,.79,0,1.58,0,2.37H28c0,.8,0,1.59,0,2.38h-.75c0,.78,0,1.56,0,2.34h1.59V9.9h.75c0-.51,0-1,0-1.54h3.21V9.9h.75v1.63l2.33,0v-.72Zm-4.79-4c0-.8,0-1.61,0-2.41h.75a2.84,2.84,0,0,1,0-.79h.79c0,1.08,0,2.16,0,3.24A7,7,0,0,1,30.28,6.77Z"/><path class="cls-2" d="M43.74.48H37.49a3.54,3.54,0,0,1,0,.75v10.3H39V6.77h4V5.19H39V2.77h5.51c0-.51,0-1,0-1.54h-.84Z"/><path class="cls-2" d="M52.46.48H47v.75h-.83v10.3l2.34,0V6.77h3.2V5.19H48.5V2.77h4.75l0-1.54h-.83Z"/><path class="cls-2" d="M81,2h-.79V1.23H78.59V.48H76.3v.75H74.67V2h-.79v.83h-.75a3.64,3.64,0,0,1,0,.76V9.15a3.54,3.54,0,0,1,0,.75h.75v.83h.83v.76l2.38,0v.75h.71v-.75h2.42v-.8H81V9.9h.75V8.4l-1.54,0a3.64,3.64,0,0,1-.76,0l0,1.54-1.54,0v.75H77V10l-1.55,0,0-1.54h-.75v-4h.75l0-1.55,1.55,0V2h1.62v.79h.79l0,1.55L81,4.4a3.5,3.5,0,0,1,.75,0V3.65H81Z"/><path class="cls-2" d="M91.26,9.19h-.75c0-.79,0-1.58,0-2.38h-.75l0-2.37h-.75c0-.79,0-1.59,0-2.38h-.75c0-.53,0-1,0-1.58H86.59v.75h-.83V2.85H85c0,.8,0,1.59,0,2.38h-.75c0,.79,0,1.58,0,2.38h-.76c0,.79,0,1.58,0,2.37h-.75v1.51l1.55,0a3,3,0,0,1,.75,0c0-.8,0-1.59,0-2.38h.75V8.36h2.46v.75h.75c0,.79,0,1.58,0,2.38l2.33,0C91.29,10.75,91.28,10,91.26,9.19ZM88.14,6.81H85.76V5.94h.75c0-1,0-2.08,0-3.13h.79c0,.78,0,1.56,0,2.34h.76Z"/><path class="cls-2" d="M100,6.77h-.8V6H97.6V5.23l-2.34,0a2.2,2.2,0,0,0,0-.79,7.87,7.87,0,0,1,0-1.63H96V2h1.62v.79h.79v.8H100V2h-.8V1.23H97.6V.48H95.3v.75l-1.58,0V2h0v0h-.75c0,.78,0,1.56,0,2.34a3.5,3.5,0,0,1,0,.75h.75V6h.83v.75l2.38,0v.76l1.54,0c0,.52,0,1,0,1.58a3.67,3.67,0,0,0,0,.83H96.89v.75H96V10a2.92,2.92,0,0,1-.8,0V9.19a2.86,2.86,0,0,1-.79,0V8.4h-.71v.75h-.83c0,.51,0,1,0,1.54a2.86,2.86,0,0,1,.79,0v.76l2.38,0v.75h1.5v-.75h1.62v-.8h.8V9.9h.75V7.61H100Z"/><path class="cls-2" d="M109.48,1.23V.48h-7v.75h-.83l0,1.54h3.13v8.76l2.33,0V2.77h2.38a2.86,2.86,0,0,1,0-.79h.75V1.27A2.86,2.86,0,0,1,109.48,1.23Z"/><path class="cls-2" d="M66.71,10.73V10H66V9.15h.79V6.77l-1.54,0V8.36s0,0,0,0a3.14,3.14,0,0,1-.83,0V7.61h-.76V6.77h-.79V5.94h.75V5.19h.84V4.4h.79V2h-.79V1.23H61.21a3.58,3.58,0,0,1-.75,0V2c-.05,0,0,0,0,0h-.76v2.3h.76V6L58.87,6c0,.53,0,1.06,0,1.59h-.75V9.9h.75v.83h.79v.8h1.63v.75h1.5v-.75l2.42,0a7.83,7.83,0,0,0,1.62,0v.75h.71c0-.52,0-1,0-1.55Zm-5.5-8H62V2h1.62V4.4a2.23,2.23,0,0,0-.79,0,3.17,3.17,0,0,1-.83,0V3.65h-.75Zm2.37,8H61.17V10h-.75c0-.8,0-1.61,0-2.41a4,4,0,0,0,0-.8H62c0,.52,0,1,0,1.55h.75v.83h.79Z"/></g></g></svg>