<svg xmlns="http://www.w3.org/2000/svg" viewBox="0 0 214 31"><defs><style>.cls-1{fill:none;opacity:0.15;}.cls-2{fill:red;}</style></defs><title>アートボード 158</title><g id="comon"><g id="見出し"><rect class="cls-1" width="214" height="31"/><path class="cls-2" d="M55.43,16l-.49-.29v.63h1A4.45,4.45,0,0,0,55.43,16Z"/><path class="cls-2" d="M54.1,15.16a24.79,24.79,0,0,1-2.31-1.73,4.23,4.23,0,0,1-.48-.46L49,13a3.82,3.82,0,0,0,1.17,1.57q1.15.91,2.4,1.77H53V15.17Z"/><path class="cls-2" d="M40.19,9.51l-2.2,0a4,4,0,0,0-.39,1.73l1.88,0A2.46,2.46,0,0,1,40.19,9.51Z"/><path class="cls-2" d="M43.8,11.23a5.36,5.36,0,0,0-.35-1.72l-2.27,0a2.49,2.49,0,0,1,.68,1.71Z"/><path class="cls-2" d="M51.71,21.58a2.8,2.8,0,0,1-1.8.56l3.78.06h0l-1.64,0A4,4,0,0,1,51.71,21.58Z"/><path class="cls-2" d="M53.87,21.51l.17.14a4.38,4.38,0,0,0,.23-.54h-.7A1.85,1.85,0,0,0,53.87,21.51Z"/><path class="cls-2" d="M53,17.21l-1.92,0,.39.27a2.49,2.49,0,0,1,1,1.21H53Z"/><path class="cls-2" d="M39.71,23.47h4.36a3.4,3.4,0,0,0,.54-.27h-5.4A4.82,4.82,0,0,0,39.71,23.47Z"/><path class="cls-2" d="M55.45,22.21A2.27,2.27,0,0,1,54,21.65a3.77,3.77,0,0,1-.34.54Z"/><path class="cls-2" d="M52.62,19.53a2.11,2.11,0,0,0-.17-.87l-1.21,0v.86a4.28,4.28,0,0,0,.48,2.08l.11-.08A2.68,2.68,0,0,0,52.62,19.53Z"/><path class="cls-2" d="M54.93,15.14l-.83,0,.84.52Z"/><path class="cls-2" d="M53,16.36v.85h1a3.51,3.51,0,0,1,.59,2.09,5.34,5.34,0,0,1-.33,1.8H55L55,16.31l-2,0Z"/><path class="cls-2" d="M53.57,21.12a3.22,3.22,0,0,1-.36-1.68v-.77H53l0,2.47Z"/><polygon class="cls-2" points="70.54 23.2 70.67 22.71 68.62 22.68 68.39 23.53 69.1 23.54 69.1 23.18 70.54 23.2"/><polygon class="cls-2" points="72.82 22.68 73.02 23.54 75.07 23.57 74.86 22.7 72.82 22.68"/><polygon class="cls-2" points="68.77 13.19 66.81 13.21 66.74 13.49 68.71 13.46 68.77 13.19"/><polygon class="cls-2" points="75.13 11.71 75.3 11.71 75.42 12.18 77.02 12.17 77.02 12.1 77.34 12.1 76.06 7.19 74.32 7.2 73.06 12.19 75.01 12.18 75.13 11.71"/><polygon class="cls-2" points="63.11 13.21 63.18 13.48 65.14 13.46 65.07 13.19 63.11 13.21"/><polygon class="cls-2" points="82.42 15.48 75.11 15.57 75.14 17.29 77.11 17.27 77.1 16.03 82.42 15.96 82.42 15.48"/><polygon class="cls-2" points="92.83 7.1 92.83 7.08 83.81 7.23 83.89 11.9 85.86 11.87 85.81 8.83 92.3 8.72 92.32 7.1 92.83 7.1"/><polygon class="cls-2" points="77.02 12.17 77.02 13.12 79 13.12 79 12.1 77.34 12.1 77.36 12.17 77.02 12.17"/><polygon class="cls-2" points="70.44 23.57 69.1 23.54 69.09 23.9 71.07 23.92 71.08 23.21 70.54 23.2 70.44 23.57"/><rect class="cls-2" x="74.04" y="18.96" width="1.98" height="3.38" transform="translate(-0.35 1.31) rotate(-1)"/><polygon class="cls-2" points="86.93 20.23 86.94 19.32 84.97 19.29 84.96 20.2 85.43 20.21 85.43 20.2 86.93 20.23"/><polygon class="cls-2" points="86.93 20.23 85.43 20.21 85.38 23.9 87.35 23.93 87.41 20.23 86.93 20.23 86.93 20.23"/><polygon class="cls-2" points="92.86 8.71 92.3 8.72 92.3 8.95 94.27 8.98 94.28 8.75 101.32 8.84 101.34 7.21 92.83 7.1 92.86 8.71"/><path class="cls-2" d="M111.91,7.2H111a2.86,2.86,0,0,0-1.6.81,3.72,3.72,0,0,0-1,2.74,7.35,7.35,0,0,0,.16,1.42h1.69a6.11,6.11,0,0,1-.22-1.5A2.21,2.21,0,0,1,110.58,9a1.07,1.07,0,0,1,.77-.34A.94.94,0,0,1,112,9a1.93,1.93,0,0,1,.42,1.38,3.74,3.74,0,0,1-.4,1.85h1.71a5.29,5.29,0,0,0,.32-1.84,3.26,3.26,0,0,0-.84-2.42A2.53,2.53,0,0,0,111.91,7.2Z"/><path class="cls-2" d="M125,23.55h.76l.33-.85h-2C124.41,23,124.72,23.26,125,23.55Z"/><path class="cls-2" d="M106.13,22.71l-.18,0-3.19-.05A3.17,3.17,0,0,0,103,23a3.54,3.54,0,0,0,.59.51l4.55.08a4.57,4.57,0,0,0,1-.85l-2.92,0Z"/><polygon class="cls-2" points="107.67 13.47 107.67 13.47 107.53 13.47 107.67 13.47"/><path class="cls-2" d="M107.24,13.21h-1.48a3.63,3.63,0,0,1-.37.27h1.93Z"/><path class="cls-2" d="M107.67,13.47h1.44L109,13.2h-1.12A2.65,2.65,0,0,1,107.67,13.47Z"/><polygon class="cls-2" points="107.32 13.47 107.53 13.47 107.32 13.47 107.32 13.47"/><path class="cls-2" d="M131.57,22.44a8.18,8.18,0,0,0,1.34-4.23h-1.35v0h-.68a5.23,5.23,0,0,1-.91,3.19,2.08,2.08,0,0,1-1.46.7,2.11,2.11,0,0,1-1.54-.69,5.53,5.53,0,0,1-1.31-3.19h-2a7.87,7.87,0,0,0,1.79,4.23Z"/><path class="cls-2" d="M131.71,23.91a3.84,3.84,0,0,0,2-.54h-3.94A3.72,3.72,0,0,0,131.71,23.91Z"/><path class="cls-2" d="M138.4,18.2l2,0c0-.24,0-.49.08-.75l-2.07,0C138.43,17.71,138.42,18,138.4,18.2Z"/><path class="cls-2" d="M131.56,18.21q-.06-.42-.09-.9h-2c0,.31,0,.61.08.91h2Z"/><path class="cls-2" d="M158,18.74l.87,0-.32-1.19-7.05,0-.65,2.63,2,0,.28-1.16,3.78,0,.29,1.16H158c0-.18,0-.36-.06-.55Z"/><path class="cls-2" d="M162.4,22.19a2.32,2.32,0,0,1-1.72-.66,2.75,2.75,0,0,1-.72-2.05v-.77h-1.11l.38,1.42H158a4.49,4.49,0,0,0,1.37,2.69,3.62,3.62,0,0,0,1.48.85l3.25-.05V21.73A3.09,3.09,0,0,1,162.4,22.19Z"/><path class="cls-2" d="M164.93,18.43a2.22,2.22,0,0,1,.27,1.06,2.69,2.69,0,0,1-.67,1.89h1.59v1.05a4.71,4.71,0,0,0,1-3.23,4.17,4.17,0,0,0-.09-.8Z"/><path class="cls-2" d="M158.84,8.21a3.52,3.52,0,0,0-1.67-.9h-2.26a4.18,4.18,0,0,0-1.66.9l5.61,0Z"/><path class="cls-2" d="M152.38,11.73a4.64,4.64,0,0,0-1.23-3.55l-5.61.08a2.09,2.09,0,0,0-.17.14,3.91,3.91,0,0,0-1.24,3.19,5.21,5.21,0,0,0,.14.92l2.12,0a2.28,2.28,0,0,1-.38-1.17,2.49,2.49,0,0,1,.75-1.82,2,2,0,0,1,1.45-.62,2,2,0,0,1,1.47.58,2.68,2.68,0,0,1,.72,2.31Z"/><path class="cls-2" d="M151.76,13.38a3.56,3.56,0,0,0,.6.8l2.91,0c-.3-.23-.61-.48-.91-.73l-.06-.06Z"/><polygon class="cls-2" points="176.4 8.76 176.39 7.13 167.54 7.18 167.55 8.81 170.9 8.79 170.92 12.08 172.9 12.06 172.88 8.78 176.4 8.76"/><path class="cls-2" d="M164.31,23.64h-.17v.27h2V22.43c-.07.07-.12.16-.19.23A3.86,3.86,0,0,1,164.31,23.64Z"/><path class="cls-2" d="M164.53,21.38h-.39v.35a3.92,3.92,0,0,0,.32-.25A.61.61,0,0,0,164.53,21.38Z"/><polygon class="cls-2" points="164 17.15 165.98 17.14 165.97 16.23 164 16.24 164 16.35 164 17.15"/><rect class="cls-2" x="159.01" y="13.62" width="1.64" height="1.98" transform="translate(142.65 174.18) rotate(-89.08)"/></g></g></svg>