<svg xmlns="http://www.w3.org/2000/svg" viewBox="0 0 65 18"><defs><style>.cls-1{fill:none;opacity:0.15;}.cls-2{fill:red;}</style></defs><title>アートボード 178</title><g id="STAFF_CAST" data-name="STAFF&amp;CAST"><rect class="cls-1" width="65" height="18"/><path class="cls-2" d="M14.37,2.31h0a3.69,3.69,0,0,0-.52-.66A3.47,3.47,0,0,0,12.15.76v1.5h2.19Z"/><rect class="cls-2" x="9.64" y="2.26" width="2.52" height="0.05"/><path class="cls-2" d="M7.73,2.26a.12.12,0,0,0-.05.05H8.74V2.26Z"/><path class="cls-2" d="M12.9,17h0l0,0Z"/><path class="cls-2" d="M8.87,17h0Z"/><path class="cls-2" d="M12.85,17a5.65,5.65,0,0,1-.88.25A5.36,5.36,0,0,0,12.85,17Z"/><path class="cls-2" d="M8.87,17a4.53,4.53,0,0,0,.88.26A4.53,4.53,0,0,1,8.87,17Z"/><path class="cls-2" d="M13,11.51v0A2.21,2.21,0,0,1,13.52,13a2.68,2.68,0,0,1-.77,2,2.81,2.81,0,0,1-2.07.69A2.34,2.34,0,0,1,9,15a2.78,2.78,0,0,1-.68-2.06v-.77h-2V13a4.46,4.46,0,0,0,1.37,3.26A3.45,3.45,0,0,0,8.85,17h4a3.84,3.84,0,0,0,1.32-.83,4.65,4.65,0,0,0,1.29-3.44,3.69,3.69,0,0,0-.21-1.23Z"/><path class="cls-2" d="M12.85,11.39a2.64,2.64,0,0,0-.39-.34h0A2.57,2.57,0,0,1,12.85,11.39Z"/><path class="cls-2" d="M14.84,10.62h0l.12.17A1,1,0,0,0,14.84,10.62Z"/><path class="cls-2" d="M8.73,4.53a1.5,1.5,0,0,0,0,.22,2.1,2.1,0,0,1,0-.36V4.1H6.86a5.69,5.69,0,0,0,0,.72c0-.1,0-.19,0-.29Z"/><path class="cls-2" d="M14.16,9.91a6.51,6.51,0,0,0-.64-.44l-.14-.08H12.15v1.2h2Z"/><path class="cls-2" d="M12.15,8.61c-.31-.21-.63-.44-1-.68h-3a4,4,0,0,1-.53-.56A3.74,3.74,0,0,0,8.28,8c.57.47,1.17.93,1.78,1.38h2.09V8.61Z"/><path class="cls-2" d="M7,6.16c0,.1.07.19.1.29h0C7.1,6.35,7.06,6.26,7,6.16Z"/><path class="cls-2" d="M7.16,6.53s0,0,0-.06h0S7.15,6.51,7.16,6.53Z"/><path class="cls-2" d="M7.14,6.47h0v0Z"/><path class="cls-2" d="M12.15,10.59h-.34l0,0h.3Z"/><path class="cls-2" d="M11.81,10.59h0c-.59-.39-1.18-.79-1.75-1.2C10.63,9.8,11.22,10.2,11.81,10.59Z"/><path class="cls-2" d="M11.85,10.62l.3.2c-.1-.06-.19-.14-.3-.2Z"/><path class="cls-2" d="M14.16,9.91a4.09,4.09,0,0,1,.47.46h0A4.09,4.09,0,0,0,14.16,9.91Z"/><path class="cls-2" d="M14.84,10.62a2.09,2.09,0,0,1-.14-.17h0A2.09,2.09,0,0,0,14.84,10.62Z"/><path class="cls-2" d="M9.48,2.94l.16-.13v-.5h-.9V4.1H8.8A2.53,2.53,0,0,1,9.48,2.94Z"/><path class="cls-2" d="M15.07,5.26A5.63,5.63,0,0,0,15,4.15c0,.12,0,.25,0,.38h0C15.05,4.77,15.07,5,15.07,5.26Z"/><rect class="cls-2" x="14.16" y="4.76" width="0.47" height="0.5"/><path class="cls-2" d="M13.09,5.26a2.8,2.8,0,0,0,0-.5h0A2.8,2.8,0,0,1,13.09,5.26Z"/><path class="cls-2" d="M13.1,4.53A2,2,0,0,0,13,4.1h0a2.84,2.84,0,0,1,.07.66h1.06V4.53Z"/><rect class="cls-2" x="20.38" y="4.46" width="1.58" height="0.06"/><rect class="cls-2" x="21.27" y="17.01" width="1.09" height="0.37"/><rect class="cls-2" x="20.38" y="15.25" width="0.89" height="1.77"/><polygon class="cls-2" points="17.03 0.62 17.03 2.25 20.38 2.25 20.38 2.31 21.96 2.31 21.96 0.62 17.03 0.62"/><rect class="cls-2" x="21.27" y="9.39" width="1.09" height="1.23"/><rect class="cls-2" x="20.38" y="7.93" width="0.89" height="1.46"/><polygon class="cls-2" points="26.9 17.38 27.58 14.74 28.1 12.72 26.9 17.38"/><polygon class="cls-2" points="36.67 15.24 34.63 15.24 34.14 13.24 35.15 17.38 37.22 17.38 36.02 12.72 36.67 15.24"/><polygon class="cls-2" points="35.4 10.29 35.4 10.62 35.48 10.62 35.4 10.29"/><rect class="cls-2" x="38.68" y="15.25" width="1.98" height="2.13"/><polygon class="cls-2" points="40.65 6.47 38.68 6.47 38.68 10.62 40.65 10.62 40.65 9.47 42.81 9.47 42.81 7.84 40.65 7.84 40.65 6.47"/><rect class="cls-2" x="38.68" y="4.46" width="1.98" height="0.3"/><polygon class="cls-2" points="40.65 2.25 40.85 2.25 40.85 0.62 38.68 0.62 38.68 2.31 40.65 2.31 40.65 2.25"/><rect class="cls-2" x="44.25" y="0.62" width="3.45" height="0.9"/><rect class="cls-2" x="52.49" y="0.62" width="6.21" height="0.9"/><rect class="cls-2" x="49.68" y="13.24" width="1.98" height="4.14"/><rect class="cls-2" x="49.68" y="10.95" width="1.98" height="2.23"/><polygon class="cls-2" points="49.68 2.53 51.65 2.53 51.65 2.25 52.49 2.25 52.49 1.52 49.68 1.52 49.68 2.53"/><path class="cls-2" d="M10.09.72a4,4,0,0,1,.85-.1A4,4,0,0,0,10.09.72Z"/><path class="cls-2" d="M9.28,1h0Z"/><path class="cls-2" d="M8.74,1.32h0l.16-.11Z"/><path class="cls-2" d="M9.29,1l.1,0Z"/><path class="cls-2" d="M10.06.73c-.14,0-.28.1-.42.15h0C9.78.84,9.92.77,10.06.73Z"/><path class="cls-2" d="M9.64.87,9.39,1,9.64.88Z"/><path class="cls-2" d="M8.61,1.42l.13-.08h0Z"/><path class="cls-2" d="M9.64.89A2.09,2.09,0,0,0,9.29,1a4.37,4.37,0,0,0-.55.32v.92h.9Z"/><path class="cls-2" d="M14.16,10.62h-2v.2l.17.11.14.12h1.7Z"/><path class="cls-2" d="M15.27,11.45a.14.14,0,0,1,0,.06h0Z"/><path class="cls-2" d="M14.63,10.36h0l.07.08Z"/><path class="cls-2" d="M14.82,10.62l-.12-.17-.07-.08v.22h-.47v0Z"/><path class="cls-2" d="M12.15,2.74a1.57,1.57,0,0,1,.25.2A2.32,2.32,0,0,1,13,4.1h1.13v.43h.47V2.81c-.08-.17-.17-.34-.26-.5H12.15Z"/><path class="cls-2" d="M15.05,4.76a1.79,1.79,0,0,1,0-.23h-.4v.23Z"/><path class="cls-2" d="M7.13,6.45v0H9.48a2.79,2.79,0,0,1-.71-1.28,2.53,2.53,0,0,0,.12.36,2.53,2.53,0,0,1-.12-.36,1.5,1.5,0,0,1,0-.37H6.82a1.08,1.08,0,0,0,0,.18A3.55,3.55,0,0,0,7,6C7,6.16,7.08,6.31,7.13,6.45Z"/><path class="cls-2" d="M6.92,5.78C7,5.91,7,6,7,6.16L7,6A1.55,1.55,0,0,1,6.92,5.78Z"/><rect class="cls-2" x="21.27" y="11.51" width="1.09" height="3.74"/><rect class="cls-2" x="21.96" y="2.31" width="0.4" height="2.15"/><rect class="cls-2" x="20.38" y="4.76" width="1.98" height="1.71"/><rect class="cls-2" x="20.38" y="10.62" width="0.89" height="0.89"/><polygon class="cls-2" points="27.58 14.74 27.45 15.24 29.49 15.24 29.98 13.24 27.96 13.24 27.58 14.74"/><polygon class="cls-2" points="33.35 2.31 30.77 2.31 30.21 4.46 33.9 4.46 33.35 2.31"/><polygon class="cls-2" points="35.4 10.62 33.47 10.62 33.52 10.85 30.6 10.85 30.65 10.62 28.64 10.62 28.41 11.51 35.4 11.51 35.4 10.62"/><polygon class="cls-2" points="30.14 4.76 29.7 6.47 31.66 6.47 31.97 5.18 32.15 5.18 32.46 6.47 34.42 6.47 35.4 10.29 33.98 4.76 30.14 4.76"/><polygon class="cls-2" points="36.14 13.18 34.12 13.18 34.14 13.24 36.16 13.24 36.14 13.18"/><rect class="cls-2" x="38.68" y="13.18" width="1.98" height="0.06"/><rect class="cls-2" x="52.49" y="7.84" width="4.49" height="1.63"/><rect class="cls-2" x="57.57" y="1.81" width="1.13" height="0.44"/></g></svg>