<svg xmlns="http://www.w3.org/2000/svg" viewBox="0 0 65 18"><defs><style>.cls-1{fill:none;opacity:0.15;}.cls-2{fill:red;}</style></defs><title>アートボード 177_1</title><g id="STAFF_CAST" data-name="STAFF&amp;CAST"><rect class="cls-1" width="65" height="18"/><path class="cls-2" d="M13.52,9.47a3.58,3.58,0,0,1,2,3.27,4.65,4.65,0,0,1-1.29,3.44,4.56,4.56,0,0,1-3.36,1.2,4.3,4.3,0,0,1-3.18-1.12A4.46,4.46,0,0,1,6.3,13v-.86h2v.77A2.78,2.78,0,0,0,9,15a2.34,2.34,0,0,0,1.72.69A2.81,2.81,0,0,0,12.75,15a2.68,2.68,0,0,0,.77-2,2.37,2.37,0,0,0-1.2-2.07A40.9,40.9,0,0,1,8.28,8,3.88,3.88,0,0,1,6.82,5,3.93,3.93,0,0,1,8.1,1.82,4.09,4.09,0,0,1,10.94.62a3.94,3.94,0,0,1,2.92,1,4.65,4.65,0,0,1,1.21,3.61h-2a2.69,2.69,0,0,0-.69-2.32,2.08,2.08,0,0,0-2.92,0,2.47,2.47,0,0,0-.77,1.81,2.87,2.87,0,0,0,1.2,2.14A22.43,22.43,0,0,0,13.52,9.47Z"/><path class="cls-2" d="M20.38,17.38V2.25H17V.62h8.85V2.25H22.36V17.38Z"/><path class="cls-2" d="M29,17.38H26.9L31.2.62h1.72l4.3,16.76H35.15L34,12.48H30.17Zm3.18-12.2H32L30.6,10.85h2.92Z"/><path class="cls-2" d="M38.68,17.38V.62h9V2.25H40.65V7.84H46V9.47H40.65v7.91Z"/><path class="cls-2" d="M49.68,17.38V.62h9V2.25H51.65V7.84H57V9.47H51.65v7.91Z"/></g></svg>