<svg xmlns="http://www.w3.org/2000/svg" viewBox="0 0 120 13"><defs><style>.cls-1{fill:none;opacity:0.12;}.cls-2{fill-rule:evenodd;}</style></defs><title>アートボード 45</title><g id="comon"><g id="見出し"><rect class="cls-1" width="120" height="13"/><path class="cls-2" d="M17.27,1.27V.51L9.44.46,9.39,2a3.68,3.68,0,0,1,0,.76l3.13,0-.06,8.75h1.58l0-2.21L13,9.31V9.15h.83V8.41h.25l0-5.62,3.13,0a2.84,2.84,0,0,1,0-.79h.29V1.31A1.06,1.06,0,0,1,17.27,1.27Z"/><path class="cls-2" d="M42.76,1.27l-.83,0V.62l-1.5,0v.63h0v0h-.76l0,1,3.15.05Z"/><path class="cls-2" d="M40.13,6.77v.47l-1.58,0v-.8h1.69c0-.38,0-.77,0-1.16h-.75c0-.4,0-.8,0-1.2H37.9c0,.93,0,1.85,0,2.78a7.46,7.46,0,0,1-1.66,0l.06-2.42h.75V4H35.53v.4h-.75c0,.79,0,1.58-.07,2.37H34c0,.19,0,.39,0,.59l6.3.06V6.77Z"/><path class="cls-2" d="M36.1,10.77c0-.84,0-1.68,0-2.51L29,8.3v.92h-.75l0,2.34h1.59V9.93h.75l0-1.55,3.21,0V9.91h.75v1.63l2.34-.06v-.71Z"/><path class="cls-2" d="M21.34,2h-.79V1.24H18.92V.86H17.6v.44c.16,0,.32,0,.46,0V2H17.6v0H19v.79h.79v.8h1.58Z"/><path class="cls-2" d="M2.85,4.17l-2.33,0v.23a3.5,3.5,0,0,1,0,.75h.76v0H2.9a2.8,2.8,0,0,0,0-.79C2.86,4.34,2.85,4.25,2.85,4.17Z"/><path class="cls-2" d="M24.79,1.29V2s0,0,0,0H24c0,.61,0,1.22,0,1.83l2.31,0a4.31,4.31,0,0,1,0-1.13h0l0-1.54Z"/><path class="cls-2" d="M14.57,9.34V8.42H14.1v.92Z"/><path class="cls-2" d="M20.85,11.05v.45l1.56,0V11Z"/><path class="cls-2" d="M44.09,6.81V6.47l-3.86,0v.34Z"/><path class="cls-2" d="M45.5,5.24l0-2.42,2.92,0V1.55H51V1.24l-7.12.12.07,4.24,4.46-.08V5.19Z"/><path class="cls-2" d="M58.35.5l-6.26,0a3.5,3.5,0,0,1,0,.75v.06l7.12,0V1.26h-.84Z"/><path class="cls-2" d="M42.09,8.42l0,3.13,2.34-.06,0-3.09Z"/><path class="cls-2" d="M51,2.72l-2.58,0V5.19l1.08,0V5.5l-1.09,0V6.74h5.54V5.2H50.71V2.79h4.75l0-1.23H51C51,1.94,51,2.33,51,2.72Z"/><rect x="67.93" y="11.99" width="1.5" height="0.3" transform="translate(-0.09 0.51) rotate(-0.43)"/><path class="cls-2" d="M64,12.29h.71V12h-.72Z"/><path class="cls-2" d="M69.81,4.43a2.29,2.29,0,0,0-.8,0,3.14,3.14,0,0,1-.83,0V3.66h-.75V2.77h.75v0l-2.29,0,0,1.6h.75l0,1.62-1.3,0v.12l3.67,0V6h.75V5.22h.83V4.44h.79l0-1.65-1.58,0Z"/><path class="cls-2" d="M88.09,9.13v.51h-.75V10l-1.54,0v.75h2.07l0-.73h.76V9.91l1.07,0V8.4l-.82,0v.75Z"/><path class="cls-2" d="M74.77,10c0-.51,0-1,0-1.54H74V5.55H72.38V9.17a2.92,2.92,0,0,1,0,.75h.75v.83l3.13,0V10Z"/><polygon class="cls-2" points="88.24 1.24 86.62 1.24 86.62 0.49 84.32 0.49 84.32 1.24 82.7 1.24 82.7 1.25 88.24 1.25 88.24 1.24"/><path class="cls-2" d="M94.39,9.19h-.75c0-.79,0-1.58,0-2.37h-.75c0-.41,0-.81,0-1.22H91.25V6.82H88.88V6h.75V5.61h-2.3l0,2h-.75l0,2h.82l0-1.23a3.58,3.58,0,0,0,.75,0H91.3v.75h.75c0,.17,0,.34,0,.51H94.4Z"/><path class="cls-2" d="M79.85,2.07c0-.52,0-1,0-1.58h-1.5v.75h-.83V2.87h-.75c0,.34,0,.68,0,1h1.55V2.83h.79c0,.35,0,.7,0,1.06h1.56l0-1.82Z"/><path class="cls-2" d="M93.12,10.68l0-.79h-.59v1l1.4,0v-.21A2.86,2.86,0,0,0,93.12,10.68Z"/><path class="cls-2" d="M88.92,9.91v.83H87.86v.2l2.31,0c0-.34,0-.68,0-1h-.49v0Z"/><path class="cls-2" d="M104.29,1.28l-1.63,0V.5l-2.29,0v.75l-1.59,0V2h0V2H98l0,.56,3.1,0V2l1.62,0v.6l2.37,0v-.6h-.79Z"/><path class="cls-2" d="M98.63,10l-1.55,0v.76H96.2V10a2.84,2.84,0,0,1-.79-.05V9.75H93.1v.15l1.75,0v1h-.94v.54l2.38.06v.75l1.51,0v-.76l1.63,0v-.8h.79V9.94H101V9.79H98.63Z"/><rect x="93.39" y="2.47" width="0.71" height="1.58" transform="translate(89.6 96.97) rotate(-89.46)"/><path class="cls-2" d="M98.15,2.91c0,.34,0,.68,0,1h2.31a5.44,5.44,0,0,1,0-1Z"/><path class="cls-2" d="M113.25,9.48l0,2.08,2.34-.08,0-2Z"/><path class="cls-2" d="M119.48,1.93V1.81l-8.66.12c0,.31,0,.61,0,.92L114,2.8v.72l2.33,0V2.77l2.38,0a2.54,2.54,0,0,1,0-.79Z"/><rect x="112.75" y="4.32" width="2.34" height="0.91" transform="matrix(1, -0.01, 0.01, 1, -0.04, 1.08)"/></g></g></svg>