<svg xmlns="http://www.w3.org/2000/svg" viewBox="0 0 214 31"><defs><style>.cls-1{opacity:0.45;}.cls-2{fill:red;}.cls-3{opacity:0.35;}.cls-4{fill:#fff;}.cls-5{fill:none;opacity:0.15;}</style></defs><title>アートボード 131</title><g id="comon"><g id="見出し"><rect x="8.1" y="2.4" width="198.43" height="26.17"/><g class="cls-1"><path class="cls-2" d="M14.61,28.11a7.32,7.32,0,0,1-5.26-1.8,7,7,0,0,1-2.28-5.19V19.35h4.06V21a3.58,3.58,0,0,0,.9,2.69,3.16,3.16,0,0,0,2.31.88,4,4,0,0,0,2.85-.88,3.36,3.36,0,0,0,1-2.56,3,3,0,0,0-1.62-2.63,65.23,65.23,0,0,1-6.29-4.35A6.23,6.23,0,0,1,7.87,9.31,6.2,6.2,0,0,1,10,4.21,6.93,6.93,0,0,1,14.74,2.3,6.75,6.75,0,0,1,19.6,4a7.18,7.18,0,0,1,2,5.72l0,.48H17.5l.07-.56a3.31,3.31,0,0,0-.92-3,2.6,2.6,0,0,0-1.91-.75,2.62,2.62,0,0,0-1.91.75,3.07,3.07,0,0,0-1,2.31,3.76,3.76,0,0,0,1.68,2.79A34.72,34.72,0,0,0,19,15.46a5.75,5.75,0,0,1,3.31,5.28,7.22,7.22,0,0,1-2.15,5.45A7.69,7.69,0,0,1,14.61,28.11ZM8.07,20.35v.77a6,6,0,0,0,2,4.47,6.37,6.37,0,0,0,4.57,1.52,6.71,6.71,0,0,0,4.83-1.64,6.2,6.2,0,0,0,1.84-4.73,4.74,4.74,0,0,0-2.79-4.4h0a37.27,37.27,0,0,1-5.66-3.87,4.71,4.71,0,0,1-2-3.56,4,4,0,0,1,1.35-3,3.61,3.61,0,0,1,2.6-1,3.63,3.63,0,0,1,2.61,1A4.14,4.14,0,0,1,18.6,9.17h2a5.91,5.91,0,0,0-1.71-4.48A5.82,5.82,0,0,0,14.74,3.3,5.91,5.91,0,0,0,10.69,5,5.18,5.18,0,0,0,8.87,9.27a5.22,5.22,0,0,0,2.06,4.08,67.83,67.83,0,0,0,6.2,4.29,4,4,0,0,1,2.1,3.48,4.41,4.41,0,0,1-1.35,3.29,5,5,0,0,1-3.54,1.15,4.21,4.21,0,0,1-3-1.15A4.55,4.55,0,0,1,10.13,21v-.64Z"/><path class="cls-2" d="M32.89,28.11H28.83V5.72H23.66V2.3H38.33V5.72H32.89Zm-3.06-1h2.06V4.72h5.44V3.3H24.66V4.72h5.17Z"/><path class="cls-2" d="M56,28.11H51.77l-1.86-7.25H44.84L43,28.11H38.76L45.66,2.3h3.43Zm-3.45-1h2.15L48.32,3.3H46.43L40.06,27.11h2.15l1.86-7.25h6.62Zm-2.26-8.67h-5.8L46.85,9h1Zm-4.52-1H49l-1.61-6.38Z"/><path class="cls-2" d="M61.15,28.11h-4V2.3H72V5.72H61.15V13h8.24V16.4H61.15Zm-3-1h2V15.4h8.24V14H60.15V4.72H71V3.3H58.1Z"/><path class="cls-2" d="M78.15,28.11H74.1V2.3H89V5.72H78.15V13h8.23V16.4H78.15Zm-3.05-1h2.05V15.4h8.23V14H77.15V4.72H88V3.3H75.1Z"/><path class="cls-2" d="M122.2,28.7l-.53-.46c-.74-.63-1.46-1.29-2.16-1.95a7,7,0,0,1-5.21,2.33,6.79,6.79,0,0,1-4.86-1.92A7.56,7.56,0,0,1,107.29,21,9.66,9.66,0,0,1,111,13.6a13.77,13.77,0,0,1-1.35-5.46,5.87,5.87,0,0,1,1.75-4.43A5,5,0,0,1,115,2.3a4.37,4.37,0,0,1,3.13,1.29,5.17,5.17,0,0,1,1.49,3.92,6.86,6.86,0,0,1-2,5.19,12.86,12.86,0,0,1-2.22,1.74,40.68,40.68,0,0,0,3.37,5.38,21,21,0,0,0,.26-3.53v-.5h3.68l0,.51A19.39,19.39,0,0,1,121.51,23a15.79,15.79,0,0,0,1.88,1.86l.27.23ZM115,3.3a3.92,3.92,0,0,0-2.84,1.13,4.87,4.87,0,0,0-1.44,3.71,13.4,13.4,0,0,0,1.41,5.39l.17.35-.3.25c-2.44,2-3.67,4.32-3.67,6.86a6.58,6.58,0,0,0,1.84,5,5.72,5.72,0,0,0,4.17,1.65,6,6,0,0,0,4.79-2.37l.34-.41.39.37c.64.61,1.3,1.22,2,1.81l.67-1.69a15.22,15.22,0,0,1-1.92-2l-.19-.24.13-.28a16.7,16.7,0,0,0,1.13-6H120a16.48,16.48,0,0,1-.55,4.35l-.28.95-.6-.8a42.75,42.75,0,0,1-4.3-6.83l-.2-.41.4-.23A12.65,12.65,0,0,0,116.87,12a5.93,5.93,0,0,0,1.71-4.47,4.19,4.19,0,0,0-1.18-3.2A3.36,3.36,0,0,0,115,3.3Zm-.4,23a4.32,4.32,0,0,1-3.13-1.16,5.39,5.39,0,0,1-1.35-4.05,7.52,7.52,0,0,1,2.27-5.44l.49-.5.31.63a49.74,49.74,0,0,0,5,7.68l.22.28-.19.29A4.28,4.28,0,0,1,114.56,26.33Zm-2-9.43a6.37,6.37,0,0,0-1.51,4.22,4.49,4.49,0,0,0,1,3.33,3.34,3.34,0,0,0,2.44.88,3.16,3.16,0,0,0,2.57-1.52A52.14,52.14,0,0,1,112.59,16.9Zm.93-4-.21-.47A11.18,11.18,0,0,1,112.2,8a3.68,3.68,0,0,1,1.09-2.78,2.17,2.17,0,0,1,2.95-.13,3.22,3.22,0,0,1,.81,2.4A4.73,4.73,0,0,1,116,11.05h0a9.23,9.23,0,0,1-2,1.62Zm1.31-7.3A1.19,1.19,0,0,0,114,6,2.7,2.7,0,0,0,113.2,8a9.64,9.64,0,0,0,.79,3.45,14.46,14.46,0,0,0,1.29-1.14,4,4,0,0,0,.77-2.82,2.28,2.28,0,0,0-.51-1.68A1,1,0,0,0,114.83,5.59Z"/><path class="cls-2" d="M149.88,28.11a6.65,6.65,0,0,1-4.73-1.92c-2.3-2.21-3.47-5.67-3.47-10.29,0-5.37,1.26-9.3,3.74-11.68A6.49,6.49,0,0,1,150,2.3a6,6,0,0,1,4.33,1.54,9.69,9.69,0,0,1,2.81,7.63V12h-3.89l0-.48c-.08-2.57-.57-4.29-1.44-5.13a2.66,2.66,0,0,0-3.56.13c-1.66,1.59-2.5,4.68-2.5,9.18,0,3.91.71,6.57,2.11,7.91a2.85,2.85,0,0,0,2,.88,2.74,2.74,0,0,0,1.91-.88c.54-.52,1.2-1.89,1.31-5.51v-.48h4.21l0,.53c-.27,4-1.15,6.63-2.67,8.09h0A6.65,6.65,0,0,1,149.88,28.11ZM150,3.3a5.51,5.51,0,0,0-3.9,1.64c-2.28,2.18-3.43,5.87-3.43,11,0,4.34,1.06,7.56,3.16,9.57a5.8,5.8,0,0,0,8.08,0c1.25-1.2,2-3.52,2.32-6.9h-2.16c-.13,2.94-.66,4.81-1.6,5.71a3.66,3.66,0,0,1-5.34,0c-1.62-1.55-2.41-4.37-2.41-8.63,0-4.85.92-8.09,2.81-9.9a3.48,3.48,0,0,1,2.47-1,3.41,3.41,0,0,1,2.47.9c1,1,1.59,2.73,1.73,5.33h1.95a8.6,8.6,0,0,0-2.51-6.39A5.09,5.09,0,0,0,150,3.3Z"/><path class="cls-2" d="M175,28.11h-4.22l-1.86-7.25h-5.07L162,28.11h-4.22l6.9-25.81h3.43Zm-3.45-1h2.15L167.29,3.3H165.4L159,27.11h2.15L163,19.86h6.61Zm-2.27-8.67h-5.79L165.82,9h1.05Zm-4.51-1H168l-1.62-6.38Z"/><path class="cls-2" d="M183.21,28.11a7.32,7.32,0,0,1-5.26-1.8,7,7,0,0,1-2.28-5.19V19.35h4.05V21a3.58,3.58,0,0,0,.91,2.69,3.14,3.14,0,0,0,2.31.88,4,4,0,0,0,2.84-.88,3.36,3.36,0,0,0,1-2.56,3,3,0,0,0-1.62-2.63,67.05,67.05,0,0,1-6.28-4.35,6.22,6.22,0,0,1-2.45-4.83,6.19,6.19,0,0,1,2.15-5.1,7,7,0,0,1,4.72-1.91A6.75,6.75,0,0,1,188.2,4a7.14,7.14,0,0,1,2,5.72l0,.48H186.1l.06-.56a3.33,3.33,0,0,0-.91-3,2.81,2.81,0,0,0-3.82,0,3.07,3.07,0,0,0-1,2.31,3.77,3.77,0,0,0,1.67,2.79,35.66,35.66,0,0,0,5.5,3.76h0a5.74,5.74,0,0,1,3.32,5.28,7.22,7.22,0,0,1-2.15,5.45A7.71,7.71,0,0,1,183.21,28.11Zm-6.54-7.76v.77a5.9,5.9,0,0,0,2,4.47,6.35,6.35,0,0,0,4.57,1.52A6.73,6.73,0,0,0,188,25.47a6.2,6.2,0,0,0,1.84-4.73,4.74,4.74,0,0,0-2.8-4.4h0a37.2,37.2,0,0,1-5.65-3.87,4.71,4.71,0,0,1-2-3.56,4,4,0,0,1,1.35-3,3.81,3.81,0,0,1,5.2,0,4.21,4.21,0,0,1,1.26,3.3h2a5.91,5.91,0,0,0-1.71-4.48,5.82,5.82,0,0,0-4.17-1.39A5.89,5.89,0,0,0,179.29,5a5.12,5.12,0,0,0-1.82,4.31,5.18,5.18,0,0,0,2.06,4.08,66.63,66.63,0,0,0,6.2,4.29,4,4,0,0,1,2.09,3.48,4.37,4.37,0,0,1-1.35,3.29,5,5,0,0,1-3.53,1.15,4.21,4.21,0,0,1-3-1.15A4.52,4.52,0,0,1,178.72,21v-.64Z"/><path class="cls-2" d="M201.48,28.11h-4V5.72h-5.18V2.3h14.68V5.72h-5.45Zm-3-1h2V4.72h5.45V3.3H193.25V4.72h5.18Z"/></g><g class="cls-3"><path class="cls-4" d="M14.38,15.64c2.13.45,3.2,1.1,3.2,2s-.7,1.55-2.09,2.06a16.24,16.24,0,0,1-5.43.72,15.44,15.44,0,0,1-5.16-.67c-1.48-.55-2.23-1.2-2.23-2v-.51H5.88v.46c0,.55.37,1,1.11,1.24a8.26,8.26,0,0,0,2.79.41,10.35,10.35,0,0,0,3.34-.41c.84-.31,1.26-.7,1.26-1.19s-.65-.92-2-1.23q-3.48-.82-6.54-1.76Q3.64,14.1,3.51,13c-.09-.76.6-1.39,2.09-1.91a14,14,0,0,1,4.6-.72,14,14,0,0,1,4.73.62q2.1.77,1.95,2.16h-3.2c.19-.58-.19-1-1.12-1.39a6.81,6.81,0,0,0-2.36-.36,6.87,6.87,0,0,0-2.37.36q-1.26.46-1.26,1.08t1.95,1.29A59.61,59.61,0,0,0,14.38,15.64Z"/><path class="cls-4" d="M25.51,20.38V11.31H20.07v-1H34.42v1H28.71v9.07Z"/><path class="cls-4" d="M39.42,20.38H36.08l7-10h2.79l7,10H49.45l-2-2.94H41.37Zm5.16-7.32H44.3l-2.23,3.4h4.74Z"/><path class="cls-4" d="M55.17,20.38v-10H69.79v1H58.37v3.35H67v1H58.37v4.74Z"/><path class="cls-4" d="M73,20.38v-10H87.63v1H76.2v3.35h8.64v1H76.2v4.74Z"/><path class="cls-4" d="M121.62,18.53a19.42,19.42,0,0,0,2.23.87l-1.11,1.09c-.93-.31-1.81-.62-2.65-.93a12.86,12.86,0,0,1-5.43,1,13.74,13.74,0,0,1-4.74-.72c-1.39-.52-2.09-1.24-2.09-2.17,0-1.1,1.34-2.08,4-2.94-1-.86-1.53-1.61-1.53-2.27s.55-1.23,1.67-1.65a9.74,9.74,0,0,1,3.34-.51,8.42,8.42,0,0,1,2.93.46c.93.35,1.39.83,1.39,1.45,0,.82-.65,1.48-2,2a21,21,0,0,1-2.65.77,27.52,27.52,0,0,0,4.46,2.73,3,3,0,0,0,.56-1.91h2.79A3.8,3.8,0,0,1,121.62,18.53ZM113,15.69c-1.48.59-2.23,1.27-2.23,2.06s.42,1.19,1.26,1.5a8.67,8.67,0,0,0,2.92.41,6.47,6.47,0,0,0,3.35-.82A34.1,34.1,0,0,1,113,15.69Zm3.07-2.16a1.3,1.3,0,0,0,1-1.29.88.88,0,0,0-.69-.83,3.4,3.4,0,0,0-1.12-.15,3.77,3.77,0,0,0-1.25.2c-.65.24-1,.57-1,1s.37,1.05,1.12,1.7A13.21,13.21,0,0,0,116.05,13.53Z"/><path class="cls-4" d="M156.59,19.66a15,15,0,0,1-9.19,0q-3.5-1.29-3.49-4c0-2.13,1.26-3.66,3.76-4.59a12.84,12.84,0,0,1,4.46-.72,12.32,12.32,0,0,1,4.18.57c1.95.72,2.88,1.7,2.79,2.93H156a2.41,2.41,0,0,0-1.67-2.21,7.59,7.59,0,0,0-4.46.05,3.85,3.85,0,0,0-2.78,3.87,3.31,3.31,0,0,0,2.37,3.35,7.24,7.24,0,0,0,2.5.41,6.86,6.86,0,0,0,2.37-.41,2.45,2.45,0,0,0,1.53-2.37h3.35A3.89,3.89,0,0,1,156.59,19.66Z"/><path class="cls-4" d="M164.25,20.38h-3.34l7-10h2.78l7,10h-3.34l-2-2.94H166.2Zm5.16-7.32h-.28l-2.23,3.4h4.74Z"/><path class="cls-4" d="M191.28,15.64c2.14.45,3.21,1.1,3.21,2s-.7,1.55-2.09,2.06a16.3,16.3,0,0,1-5.44.72,15.38,15.38,0,0,1-5.15-.67c-1.49-.55-2.23-1.2-2.23-2v-.51h3.2v.46c0,.55.37,1,1.12,1.24a8.22,8.22,0,0,0,2.79.41,10.39,10.39,0,0,0,3.34-.41c.83-.31,1.25-.7,1.25-1.19s-.65-.92-1.95-1.23q-3.48-.82-6.55-1.76c-1.48-.44-2.27-1-2.36-1.8s.6-1.39,2.09-1.91a16.56,16.56,0,0,1,9.33-.1q2.08.77,1.95,2.16h-3.2c.18-.58-.19-1-1.12-1.39a8,8,0,0,0-4.74,0c-.83.31-1.25.67-1.25,1.08s.65.88,2,1.29A60.18,60.18,0,0,0,191.28,15.64Z"/><path class="cls-4" d="M202.41,20.38V11.31H197v-1h14.35v1h-5.71v9.07Z"/></g><rect class="cls-5" width="214" height="31"/></g></g></svg>