<svg xmlns="http://www.w3.org/2000/svg" viewBox="0 0 214 31"><defs><style>.cls-1{fill:none;opacity:0.15;}.cls-2{fill:red;}</style></defs><title>アートボード 156</title><g id="comon"><g id="見出し"><rect class="cls-1" width="214" height="31"/><path class="cls-2" d="M49.87,15.8a3.55,3.55,0,0,1,2,3.27,4.63,4.63,0,0,1-1.29,3.43,4.5,4.5,0,0,1-3.35,1.21A4.3,4.3,0,0,1,44,22.59a4.48,4.48,0,0,1-1.37-3.27v-.86h2v.78a2.79,2.79,0,0,0,.69,2.06A2.33,2.33,0,0,0,47,22a2.79,2.79,0,0,0,2.06-.69,2.65,2.65,0,0,0,.78-2,2.35,2.35,0,0,0-1.21-2.06,42.11,42.11,0,0,1-4-2.92,4,4,0,0,1-1.46-3,4,4,0,0,1,1.29-3.18A4.09,4.09,0,0,1,47.29,7a3.94,3.94,0,0,1,2.92,1,4.61,4.61,0,0,1,1.2,3.61h-2a2.69,2.69,0,0,0-.69-2.32,2.08,2.08,0,0,0-2.92,0,2.47,2.47,0,0,0-.78,1.8,2.85,2.85,0,0,0,1.21,2.15A23.27,23.27,0,0,0,49.87,15.8Z"/><path class="cls-2" d="M56.73,23.71V8.58H53.38V7h8.85V8.58H58.71V23.71Z"/><path class="cls-2" d="M65.32,23.71H63.25L67.55,7h1.72l4.3,16.76H71.5l-1.2-4.9H66.52ZM68.5,11.5h-.18L67,17.18h2.92Z"/><path class="cls-2" d="M75,23.71V7h9V8.58H77v5.59h5.33V15.8H77v7.91Z"/><path class="cls-2" d="M86,23.71V7h9V8.58H88v5.59h5.33V15.8H88v7.91Z"/><path class="cls-2" d="M116,20.61a10,10,0,0,0,1.37,1.46l-.68,1.81c-.58-.52-1.12-1-1.64-1.55a4.13,4.13,0,0,1-3.35,1.72,4,4,0,0,1-2.92-1.2,4.88,4.88,0,0,1-1.29-3.61,6.36,6.36,0,0,1,2.49-4.9,9.57,9.57,0,0,1-.94-3.78,3.7,3.7,0,0,1,1-2.75A2.82,2.82,0,0,1,112.15,7a2.51,2.51,0,0,1,1.81.77,3.29,3.29,0,0,1,.86,2.41,4.42,4.42,0,0,1-1.21,3.26A8.1,8.1,0,0,1,112,14.68a28.56,28.56,0,0,0,2.75,4.56,11.9,11.9,0,0,0,.34-3.18h1.72A12.6,12.6,0,0,1,116,20.61Zm-5.33-4.72a4.82,4.82,0,0,0-1.37,3.43,3.42,3.42,0,0,0,.77,2.5,2.43,2.43,0,0,0,1.8.68A2.46,2.46,0,0,0,114,21.13,34.34,34.34,0,0,1,110.69,15.89Zm1.89-3.61a3,3,0,0,0,.6-2.15,1.89,1.89,0,0,0-.43-1.38.92.92,0,0,0-.68-.25,1.07,1.07,0,0,0-.78.34,2.21,2.21,0,0,0-.6,1.63,7.48,7.48,0,0,0,.69,2.84A6.1,6.1,0,0,0,112.58,12.28Z"/><path class="cls-2" d="M137.59,22.5a3.93,3.93,0,0,1-5.67,0c-1.44-1.43-2.15-3.66-2.15-6.7q0-5.33,2.32-7.65A3.79,3.79,0,0,1,134.84,7a3.52,3.52,0,0,1,2.58.94,6.41,6.41,0,0,1,1.72,4.9h-1.89c-.06-1.83-.41-3.06-1-3.69a1.82,1.82,0,0,0-1.37-.52,1.9,1.9,0,0,0-1.38.6q-1.71,1.73-1.71,6.45c0,2.75.48,4.61,1.46,5.58a2.11,2.11,0,0,0,1.54.69,2,2,0,0,0,1.46-.69c.58-.57.89-1.89.95-3.95h2.06Q139,21.13,137.59,22.5Z"/><path class="cls-2" d="M142.32,23.71h-2.07L144.55,7h1.72l4.3,16.76H148.5l-1.2-4.9h-3.78ZM145.5,11.5h-.18L144,17.18h2.92Z"/><path class="cls-2" d="M159,15.8a3.56,3.56,0,0,1,2,3.27,4.66,4.66,0,0,1-1.28,3.43,4.52,4.52,0,0,1-3.36,1.21,4.3,4.3,0,0,1-3.18-1.12,4.48,4.48,0,0,1-1.37-3.27v-.86h2v.78a2.78,2.78,0,0,0,.68,2.06,2.33,2.33,0,0,0,1.72.69,2.77,2.77,0,0,0,2.06-.69,2.65,2.65,0,0,0,.78-2,2.35,2.35,0,0,0-1.21-2.06,42,42,0,0,1-4-2.92,3.92,3.92,0,0,1-1.47-3,4,4,0,0,1,1.29-3.18A4.09,4.09,0,0,1,156.41,7a3.94,3.94,0,0,1,2.92,1,4.61,4.61,0,0,1,1.2,3.61h-2a2.69,2.69,0,0,0-.69-2.32,2.08,2.08,0,0,0-2.92,0,2.46,2.46,0,0,0-.77,1.8,2.87,2.87,0,0,0,1.2,2.15A23.27,23.27,0,0,0,159,15.8Z"/><path class="cls-2" d="M165.85,23.71V8.58H162.5V7h8.85V8.58h-3.52V23.71Z"/></g></g></svg>