<svg xmlns="http://www.w3.org/2000/svg" viewBox="0 0 120 13"><defs><style>.cls-1{fill:none;opacity:0.12;}.cls-2{fill-rule:evenodd;}</style></defs><title>アートボード 44</title><g id="comon"><g id="見出し"><rect class="cls-1" width="120" height="13"/><path class="cls-2" d="M80.71,3.63H79.15c0,.24,0,.48,0,.73l1.54,0a3.64,3.64,0,0,1,.76,0V3.65h-.76Z"/><path class="cls-2" d="M33.19,5.23c0-.79,0-1.58,0-2.38H32.4V1.23h-.83V.48H30.06v.75h0v0h-.75l0,3.17h-.75l0,1.71H30c0-.6,0-1.19,0-1.79h.76a2.84,2.84,0,0,1,0-.79h.79l0,2.58H34V5.23Z"/><path class="cls-2" d="M11.77,4.4c0-.2,0-.51,0-.81,0,.12,0,.23,0,.35h-.31v1h.37A1.46,1.46,0,0,0,11.77,4.4Z"/><path class="cls-2" d="M16.56,6.77h-.79V6H14.15V5.23l-2.34,0a2.27,2.27,0,0,1,0-.24h-.09V6.08h-.28v.66l2,0v.76l1.55,0V9.94l-1.55,0v.75h-.87V10l-1.11,0v1.56l-1.19,0,2.38,0v.75h1.51v-.75h1.62v-.8h.79V9.9h.75V7.61h-.75Z"/><rect x="21.31" y="10.85" width="1.58" height="0.67"/><path class="cls-2" d="M22.58.48h-4.4c0,.51,0,1,0,1.54a3,3,0,0,1,0,.75h3.13V9H22.9V6.63h-.32Z"/><polygon class="cls-2" points="38.74 4.86 37.15 4.86 37.15 6.23 42.7 6.23 42.7 5.19 38.74 5.19 38.74 4.86"/><path class="cls-2" d="M40.51,2.77h3.73V2.7H40.51Z"/><rect x="37.15" y="7.84" width="1.58" height="3.68"/><rect x="45.86" y="3.7" width="0.78" height="3.53"/><rect x="45.86" y="8.84" width="0.78" height="1.01"/><path class="cls-2" d="M45.86,11.53l2.34,0V9.89H45.86Z"/><path class="cls-2" d="M75.17,2.81l1.54,0V2h1.63v.79h.79v.13h1.58V2h-.79V1.23H78.3V.48H76v.75H74.38V2h-.8v.83h-.75v.09h2.34Z"/><path class="cls-2" d="M79.17,8.4c0,.51,0,1,0,1.54l-1.55,0v.75h-.87V10l-1.54,0c0-.51,0-1,0-1.54h-.75v-4h.75c0-.25,0-.49,0-.73H72.79V9.15a3.54,3.54,0,0,1,0,.75h.75v.83h.84v.76l2.37,0v.07h.72v-.07h2.41v-.8h.79V9.9h.76V8.4l-1.55,0A3.5,3.5,0,0,1,79.17,8.4Z"/><path class="cls-2" d="M83.13,7.61l0,1.69h1.38V8.38H83.12Z"/><path class="cls-2" d="M88.59,2.06v.3h-.21V7.6h.46V4.44h-.22C88.62,3.65,88.61,2.85,88.59,2.06Z"/><path class="cls-2" d="M93.38,5.15V6h.84v.75l2.37,0v.46h3.13V6.77h-.79V6H97.31V5.23L95,5.19c0-.18,0-.71,0-.79s0-.44,0-.7H92.6v.7a3.5,3.5,0,0,1,0,.75Z"/><path class="cls-2" d="M94.93,9.94V9.19a2.86,2.86,0,0,1-.79,0V8.84h-.72v.31h-.83l0,1.09h3.1V10A2.86,2.86,0,0,1,94.93,9.94Z"/><path class="cls-2" d="M98.18,9.15a3.67,3.67,0,0,0,0,.83H96.59v.26h3.13V9.9h.75V8.84h-2.3Z"/><rect x="104.47" y="6.7" width="1.17" height="3.53"/><rect x="102.14" y="0.48" width="7.05" height="0.3"/><path class="cls-2" d="M66.42,10.15H63.29v.58H60.87v-.58H58.54v.58h.79v.8H61v.75h1.51v-.75l2.41,0a7.93,7.93,0,0,0,1.63,0v.75h.71c0-.52,0-1,0-1.55h-.83Z"/><polygon class="cls-2" points="10.02 4.94 10.02 5.15 10.22 5.15 10.22 5.98 11.06 5.98 11.06 6.08 11.46 6.08 11.46 4.94 10.02 4.94"/><polygon class="cls-2" points="14.19 2.81 14.9 2.81 14.9 1.23 14.14 1.23 14.14 0.48 13.34 0.48 13.34 1.8 13.34 2.02 14.19 2.02 14.19 2.81"/><path class="cls-2" d="M40.51.48H37.19a3.54,3.54,0,0,1,0,.75V2.7h3.36V.48Z"/><polygon class="cls-2" points="46.64 8.85 48.2 8.85 48.2 7.23 46.64 7.23 46.64 7.32 46.64 8.85"/><rect x="48.3" y="5.19" width="3.11" height="1.58"/><path class="cls-2" d="M46.64,3.7H48.2V2.77H53l0-1.16H46.64Z"/><path class="cls-2" d="M60.09,8.16H57.78V9.85h2.34Z"/><path class="cls-2" d="M63.11,4.39a3.3,3.3,0,0,0-.45,0A3.3,3.3,0,0,1,63.11,4.39Z"/><rect x="62.33" y="1.23" width="0.18" height="0.79"/><path class="cls-2" d="M62.5,8.32v.83h0V6.77h0V5.94h0V4.43h-.18V8.16h-.59v.16Z"/><polygon class="cls-2" points="84.48 8.38 85.42 8.38 85.42 8.36 87.88 8.36 87.88 8.38 88.39 8.38 88.39 7.6 84.48 7.6 84.48 8.38"/><path class="cls-2" d="M87.84,2.06c0-.53,0-1,0-1.58H86.3v.75h-.84V2.36h2.93v-.3Z"/><rect x="95.01" y="0.48" width="2.3" height="0.75"/><path class="cls-2" d="M105.64,11.51l1.17,0V10.23h-1.17v1.28Z"/><path class="cls-2" d="M109.19,1.23V1h-7v.24h-.84l0,.43h4.32v5h1.17V2.77h2.38a2.54,2.54,0,0,1,0-.79H110V1.27A2.82,2.82,0,0,1,109.19,1.23Z"/></g></g></svg>