<svg xmlns="http://www.w3.org/2000/svg" viewBox="0 0 214 31"><defs><style>.cls-1{fill:none;opacity:0.15;}.cls-2{fill:red;}</style></defs><title>アートボード 334</title><g id="comon"><g id="見出し"><rect class="cls-1" width="214" height="31"/><path class="cls-2" d="M107.19,9.2h2.29a4.2,4.2,0,0,0-.71-1,3.82,3.82,0,0,0-2.84-1.12A3.94,3.94,0,0,0,103,8.24a4.46,4.46,0,0,0-.69,1h2.28a2.22,2.22,0,0,1,1.33-.45,2.3,2.3,0,0,1,1.64.78A2.8,2.8,0,0,0,107.19,9.2Z"/><path class="cls-2" d="M101.94,10a5.39,5.39,0,0,1,.38-.76h0A5.36,5.36,0,0,0,101.94,10Z"/><path class="cls-2" d="M102.38,21.91a6.56,6.56,0,0,1-.44-.88v-1.1h-.36A7.11,7.11,0,0,0,102.38,21.91Z"/><path class="cls-2" d="M101.33,18.59c-.06-.42-.11-.88-.14-1.35h0C101.22,17.72,101.27,18.17,101.33,18.59Z"/><path class="cls-2" d="M101.13,15.19c0-.48,0-.93.05-1.37,0,.52-.06,1.06-.06,1.64s0,1.22.07,1.78h.75v-2Z"/><path class="cls-2" d="M103.71,10.36h-1.77v4.83h1.16A14.68,14.68,0,0,1,103.71,10.36Z"/><path class="cls-2" d="M103.15,17.24h-1.21v2.69h1.56a14.37,14.37,0,0,1-.35-2.69Z"/><path class="cls-2" d="M101.76,10.46c-.09.27-.17.56-.24.86C101.59,11,101.67,10.73,101.76,10.46Z"/><path class="cls-2" d="M101.8,10.36h.14V10C101.89,10.09,101.85,10.22,101.8,10.36Z"/><path class="cls-2" d="M101.76,10.46l0-.1h0Z"/><path class="cls-2" d="M103,22.76a4.46,4.46,0,0,1-.55-.71A4,4,0,0,0,103,22.76Z"/><path class="cls-2" d="M110.2,19.93a8,8,0,0,1-.59,1.64A8,8,0,0,0,110.2,19.93Z"/><path class="cls-2" d="M108.07,10.36a14.41,14.41,0,0,1,.61,4.83h2a15.88,15.88,0,0,0-.66-4.83Z"/><path class="cls-2" d="M110.65,15.19h0c0,.09,0,.17,0,.27A2.35,2.35,0,0,0,110.65,15.19Z"/><path class="cls-2" d="M110.6,17.24c0-.25,0-.51,0-.78,0,.27,0,.53,0,.78Z"/><path class="cls-2" d="M108.29,19.93h1.91a14.22,14.22,0,0,0,.39-2.69h-2A15.26,15.26,0,0,1,108.29,19.93Z"/><path class="cls-2" d="M81.74,19.8h-2c0,.14,0,.28,0,.42h2C81.77,20.09,81.75,20,81.74,19.8Z"/><path class="cls-2" d="M87.1,17.1H85.26c.17.11.32.23.49.33a3.54,3.54,0,0,1,.54.44h2.39s-.05-.08-.06-.12H87.1Z"/><path class="cls-2" d="M88.26,17.1h0l0,0S88.27,17.11,88.26,17.1Z"/><path class="cls-2" d="M84.37,7.12a3.73,3.73,0,0,0-1.1.18h2.47A5.22,5.22,0,0,0,84.37,7.12Z"/><path class="cls-2" d="M85.69,15.18l-.39-.26H82.24l.34.26Z"/><path class="cls-2" d="M87.1,22.18H81.8v1.11a4.83,4.83,0,0,0,2.49.59,4.53,4.53,0,0,0,3.35-1.2,3.71,3.71,0,0,1-.54.42Z"/><path class="cls-2" d="M86.93,19.8a2.61,2.61,0,0,1-.75,1.67,2.05,2.05,0,0,1-.71.45H87.1V20.26h1.71a3.4,3.4,0,0,0,.07-.46Z"/><path class="cls-2" d="M82.4,21.47a2.24,2.24,0,0,1-.6-1.22v1.67H83A2.18,2.18,0,0,1,82.4,21.47Z"/><path class="cls-2" d="M88,22.18a6.25,6.25,0,0,1-.4.5,4.25,4.25,0,0,0,.58-.76H87.1v.26Z"/><rect class="cls-2" x="93.87" y="7.12" width="1.45" height="0.53"/><rect class="cls-2" x="91.79" y="7.65" width="2.08" height="1.11"/><polygon class="cls-2" points="95.32 10.36 96.23 10.36 96.23 8.75 99.76 8.75 99.76 7.65 95.32 7.65 95.32 10.36"/><rect class="cls-2" x="95.32" y="20.5" width="0.91" height="0.13"/><rect class="cls-2" x="95.32" y="23.32" width="0.91" height="0.22"/><rect class="cls-2" x="94.26" y="23.55" width="1.07" height="0.33"/><rect class="cls-2" x="94.26" y="13.06" width="1.07" height="0.69"/><rect class="cls-2" x="95.32" y="21.37" width="0.91" height="0.62"/><path class="cls-2" d="M121.61,8.5a4.79,4.79,0,0,0-3.53-1.38h-2.21V8.55h5.78Z"/><polygon class="cls-2" points="120.73 22.93 121.09 23.88 122.94 23.88 122.94 23.32 122.79 22.93 120.73 22.93"/><polygon class="cls-2" points="122.94 23.88 123.15 23.88 122.94 23.32 122.94 23.88"/><rect class="cls-2" x="115.87" y="14.51" width="1.45" height="1.63"/><path class="cls-2" d="M122.68,12.2h0a.57.57,0,0,1,0,.13A.59.59,0,0,0,122.68,12.2Z"/><rect class="cls-2" x="113.79" y="22.93" width="1.98" height="0.95"/><polygon class="cls-2" points="130.18 11.82 130.54 11.82 130.54 11 130.18 11.82"/><polygon class="cls-2" points="127.32 9.75 125.35 9.75 125.04 9.05 127.02 9.05 126.16 7.12 124.18 7.12 126.27 11.82 128.24 11.82 127.32 9.75"/><polygon class="cls-2" points="131.87 12.46 131.87 11.82 130.54 11.82 130.54 15.45 132.15 11.82 131.87 11.82 131.87 12.46 131.87 12.46"/><path class="cls-2" d="M87.1,16.07v1h1.15A4,4,0,0,0,87.1,16.07Z"/><path class="cls-2" d="M88.28,17.14a3.29,3.29,0,0,1,.34.61h0A3.37,3.37,0,0,0,88.28,17.14Z"/><path class="cls-2" d="M82.19,11.61a2.23,2.23,0,0,1,0-.36,2.51,2.51,0,0,1,.77-1.81,2.08,2.08,0,0,1,2.92,0,2.6,2.6,0,0,1,.7,2.17h2A4.58,4.58,0,0,0,87.3,8.15a3,3,0,0,0-.4-.31H82.14a6.3,6.3,0,0,0-.6.48,3.91,3.91,0,0,0-1.29,3.18s0,.07,0,.11Z"/><path class="cls-2" d="M81,13.68a3.94,3.94,0,0,0,.54.62h3l-.78-.62Z"/><path class="cls-2" d="M80.44,21.92l.18.26H81.8v-.26Z"/><path class="cls-2" d="M88.85,20.26h0c0,.12,0,.24,0,.34C88.78,20.49,88.83,20.38,88.85,20.26Z"/><path class="cls-2" d="M88.37,21.65l-.15.27h0C88.29,21.83,88.32,21.74,88.37,21.65Z"/><rect class="cls-2" x="90.91" y="7.12" width="0.89" height="0.53"/><rect class="cls-2" x="94.26" y="20.63" width="1.07" height="0.74"/><rect class="cls-2" x="94.26" y="21.99" width="1.07" height="1.33"/><rect class="cls-2" x="94.26" y="18.08" width="1.07" height="2.42"/><rect class="cls-2" x="94.26" y="10.36" width="1.07" height="1.76"/><rect class="cls-2" x="95.32" y="12.12" width="0.91" height="0.93"/><rect class="cls-2" x="95.32" y="13.75" width="0.91" height="4.33"/><rect class="cls-2" x="131.87" y="8" height="1.06" transform="translate(65.27 122.66) rotate(-63.43)"/><polygon class="cls-2" points="131.41 9.05 131.1 9.75 131.87 9.75 131.87 9.05 131.41 9.05"/><rect class="cls-2" x="131.87" y="9.75" height="2.07"/><polygon class="cls-2" points="131.87 9.75 133.07 9.75 133.32 9.18 133.32 9.05 131.87 9.05 131.87 9.75"/><rect class="cls-2" x="128.22" y="17.99" width="1.98" height="2.07"/><rect class="cls-2" x="128.22" y="16.5" width="1.98" height="0.86"/><polygon class="cls-2" points="133.32 7.12 133.32 9.05 133.38 9.05 134.24 7.12 133.32 7.12"/><polygon class="cls-2" points="122.94 23.32 122.94 23.32 122.94 23.32 122.94 23.32"/><rect class="cls-2" x="113.79" y="20.24" width="1.98" height="0.69"/><polygon class="cls-2" points="115.87 8.55 113.78 8.55 113.78 12.2 115.76 12.2 115.76 8.75 115.87 8.75 115.87 8.55"/><polygon class="cls-2" points="120.06 15.89 121.74 20.24 119.72 20.24 119.98 20.93 122.01 20.93 120.06 15.89"/><path class="cls-2" d="M120.74,11.82c0,.18,0,.34,0,.5a.5.5,0,0,0,0-.12h2a2.45,2.45,0,0,0,0-.38Z"/></g></g></svg>