<svg xmlns="http://www.w3.org/2000/svg" viewBox="0 0 214 31"><defs><style>.cls-1{fill:none;opacity:0.15;}.cls-2{fill:red;}</style></defs><title>アートボード 333</title><g id="comon"><g id="見出し"><rect class="cls-1" width="214" height="31"/><path class="cls-2" d="M87,16a3.57,3.57,0,0,1,2,3.27,4.65,4.65,0,0,1-1.29,3.44,4.53,4.53,0,0,1-3.35,1.2,4.3,4.3,0,0,1-3.18-1.12,4.46,4.46,0,0,1-1.37-3.26v-.86h2v.77a2.79,2.79,0,0,0,.69,2.06,2.33,2.33,0,0,0,1.72.69,2.79,2.79,0,0,0,2.06-.69,2.64,2.64,0,0,0,.78-2,2.38,2.38,0,0,0-1.21-2.07,42.11,42.11,0,0,1-4-2.92,4,4,0,0,1-1.46-3,4,4,0,0,1,1.29-3.18,4.09,4.09,0,0,1,2.84-1.2,3.94,3.94,0,0,1,2.92,1,4.61,4.61,0,0,1,1.2,3.61h-2a2.69,2.69,0,0,0-.69-2.32,2.08,2.08,0,0,0-2.92,0,2.48,2.48,0,0,0-.78,1.81,2.85,2.85,0,0,0,1.21,2.14A22,22,0,0,0,87,16Z"/><path class="cls-2" d="M94.27,23.88V8.75H90.92V7.12h8.85V8.75H96.25V23.88Z"/><path class="cls-2" d="M110.68,15.46c0,3.61-.64,6-1.9,7.3A3.81,3.81,0,0,1,106,23.88,3.93,3.93,0,0,1,103,22.76q-1.89-1.89-1.89-7.3T103,8.24A3.93,3.93,0,0,1,106,7.12a3.81,3.81,0,0,1,2.83,1.12C110,9.5,110.68,11.91,110.68,15.46Zm-7.57,0c0,3.26.37,5.27,1.12,6a2.38,2.38,0,0,0,1.72.78,2.28,2.28,0,0,0,1.63-.78c.75-.74,1.12-2.75,1.12-6s-.37-5.19-1.12-5.93A2.28,2.28,0,0,0,106,8.75a2.38,2.38,0,0,0-1.72.78Q103.11,10.64,103.11,15.46Z"/><path class="cls-2" d="M121.62,8.5a4.31,4.31,0,0,1,1.12,3.18,4.38,4.38,0,0,1-1.12,3.09,3.89,3.89,0,0,1-1.55,1.12l3.1,8H121.1l-2.92-7.74h-2.4v7.74h-2V7.12h4.3A4.76,4.76,0,0,1,121.62,8.5Zm-1.55,5.24a2.8,2.8,0,0,0,.69-2.06A2.83,2.83,0,0,0,120,9.61a3.16,3.16,0,0,0-2.32-.86h-1.89v5.76h2.49A2.47,2.47,0,0,0,120.07,13.74Z"/><path class="cls-2" d="M126.17,7.12l3,6.79h.09l3-6.79h2l-4,9.11v7.65h-2V16.23l-4-9.11Z"/></g></g></svg>