<svg xmlns="http://www.w3.org/2000/svg" viewBox="0 0 214 31"><defs><style>.cls-1{fill:none;opacity:0.15;}.cls-2{fill:red;}</style></defs><title>アートボード 335</title><g id="comon"><g id="見出し"><rect class="cls-1" width="214" height="31"/><path class="cls-2" d="M82.34,16.08c-.13-.07-.26-.16-.39-.24l-3.26,0c.78.59,1.59,1.17,2.44,1.72a2.35,2.35,0,0,1,1.18,2.07,3.57,3.57,0,0,1,0,.47l2,0a5.83,5.83,0,0,0,.06-.73A3.57,3.57,0,0,0,82.34,16.08Z"/><path class="cls-2" d="M77.5,18.74v.85a2.52,2.52,0,0,0,0,.48h2a4.75,4.75,0,0,1,0-.56v-.77Z"/><polygon class="cls-2" points="91.01 14.94 94.06 14.92 94.05 14.92 91 14.94 91.01 14.94"/><path class="cls-2" d="M76.42,7.23a4,4,0,0,0-2.84,1.19A4,4,0,0,0,73.1,9h3c.11,0,.22,0,.34,0a1.86,1.86,0,0,1,.34,0H79.9a3.68,3.68,0,0,0-3.48-1.76Z"/><rect class="cls-2" x="102.73" y="20.62" width="1.98" height="2.62" transform="matrix(1, -0.02, 0.02, 1, -0.34, 1.65)"/><rect class="cls-2" x="87.82" y="7.23" width="8.85" height="0.58" transform="translate(-0.07 0.86) rotate(-0.54)"/><path class="cls-2" d="M100.74,21.91a2.07,2.07,0,0,1-1.28.44,2.26,2.26,0,0,1-1.34-.48l-2.29,0a4.71,4.71,0,0,0,.7,1l.06.05,5.65.08a.1.1,0,0,0,.05,0,4.4,4.4,0,0,0,.73-1Z"/><path class="cls-2" d="M118.25,21.6a.1.1,0,0,1,0,0c-.58-.57-1-1.9-1.1-4l-1.95,0a11.36,11.36,0,0,0,1,4Z"/><path class="cls-2" d="M108.17,15.55a25,25,0,0,1,.12-3.17l-1.92,0a20.39,20.39,0,0,0-.18,3.17c0,.1,0,.2,0,.31l2,0C108.17,15.76,108.17,15.66,108.17,15.55Z"/><path class="cls-2" d="M112.53,7.23a3.93,3.93,0,0,0-2.92,1.12,5.66,5.66,0,0,0-1.3,2.39h1.92a2.71,2.71,0,0,1,.59-1.09,2.35,2.35,0,0,1,1.71-.78,2.29,2.29,0,0,1,1.64.77,2.71,2.71,0,0,1,.59,1.09h1.92a5.74,5.74,0,0,0-1.31-2.38A3.8,3.8,0,0,0,112.53,7.23Z"/><path class="cls-2" d="M110.47,17.59c-.13,2.08-.48,3.41-1.06,4l0,0h2.12a11.55,11.55,0,0,0,.94-4Z"/><path class="cls-2" d="M98.91,15.57v.32l2,0c0-.11,0-.21,0-.31a20.84,20.84,0,0,0-.27-3.17l-1.93,0A24.54,24.54,0,0,1,98.91,15.57Z"/><path class="cls-2" d="M130.31,7.22l-4.3,0v1l7.34-.07A4.89,4.89,0,0,0,130.31,7.22Z"/><path class="cls-2" d="M120.64,23.69l-.12-7.4,2.41,0,2.91,7.36,2.06,0L124.82,16a3.81,3.81,0,0,0,1.53-1.14,4,4,0,0,0,.49-.68l-2.5,0a2.38,2.38,0,0,1-1.35.43l-2.49,0v-.41l-2,0,.14,9.44Z"/><rect class="cls-2" x="139.45" y="22.36" width="0.91" height="1.98" transform="translate(114.52 162.9) rotate(-89.16)"/><polygon class="cls-2" points="133.95 14.02 133.86 14.02 132.68 11.47 130.71 11.5 132.95 16.35 132.99 18.67 134.97 18.64 134.93 16.32 137.02 11.4 135.04 11.43 133.95 14.02"/></g></g></svg>