<svg xmlns="http://www.w3.org/2000/svg" viewBox="0 0 62 13"><defs><style>.cls-1{fill:none;opacity:0.12;}.cls-2{fill-rule:evenodd;}</style></defs><title>アートボード 30</title><g id="comon"><g id="見出し"><rect class="cls-1" width="62" height="13"/><polygon class="cls-2" points="13.97 1.23 13.71 1.23 13.71 3.61 14.76 3.61 14.76 2.02 13.97 2.02 13.97 1.23"/><path class="cls-2" d="M7.68,4.87H8.79V1.26H8.47V2l0,0H7.68c0,.78,0,1.56,0,2.34a2.89,2.89,0,0,1,0,.62h0Z"/><path class="cls-2" d="M10,4.52a.24.24,0,0,0,0-.12A.24.24,0,0,1,10,4.52Z"/><path class="cls-2" d="M10,4.56a.91.91,0,0,1,0,.17A.91.91,0,0,0,10,4.56Z"/><path class="cls-2" d="M13.18,9.94l-1.54,0v.75h-.88V10a2.86,2.86,0,0,1-.79,0V9.19a2.86,2.86,0,0,1-.79,0V8.71H8.47v.44H7.64c0,.51,0,1,0,1.54a2.86,2.86,0,0,1,.79,0v.76l2.37,0v.75h1.51v-.75h.84V8.71h0Z"/><polygon class="cls-2" points="10.02 4.87 10.02 4.88 10.02 4.88 10.02 4.87"/><path class="cls-2" d="M24.23,1.23V.48h-7v.75H17v.12H25V1.27A2.86,2.86,0,0,1,24.23,1.23Z"/><path class="cls-2" d="M16.35,1.35h0v0Z"/><rect x="19.52" y="7.32" width="2.34" height="2.2"/><path class="cls-2" d="M34.52,2.06a2.86,2.86,0,0,1-.79,0V1.27l-1.58,0V.66H29.06v.57h-.83V2h-.79v.33h2.33V2h1.67v.33h3.09l0,1.21h0C34.55,3.06,34.54,2.56,34.52,2.06Z"/><path class="cls-2" d="M34,5.56V9.91h.52V8.32h.76a3,3,0,0,1,0-.75c0-.67,0-1.34,0-2Z"/><path class="cls-2" d="M35.33,5V5Z"/><path class="cls-2" d="M44.84,3.44H42.52v.13h.76V4h1.56c0,.41,0,.81,0,1.22,0-1,0-2.09,0-3.13Z"/><path class="cls-2" d="M37,9h.67V4h1.64V5.19c0-.58,0-1.17,0-1.75H37Z"/><rect x="49.61" y="10.11" width="1.58" height="0.53"/><path class="cls-2" d="M54.32.48h-.71v.75h-.83V1.4h1.58V1.23A3.54,3.54,0,0,1,54.32.48Z"/><path class="cls-2" d="M12.35,5.23,10,5.19c0-.07,0-.19,0-.31H8.79V5H7.68v.13h.75V6h.83v.75l2.38,0v.76l1.54,0v.69h.53V6H12.35Z"/><path class="cls-2" d="M10,4.88c0,.12,0,.24,0,.31S10,5,10,4.88Z"/><path class="cls-2" d="M10,4.73v0Z"/><path class="cls-2" d="M7.68,5V5Z"/><path class="cls-2" d="M10,4.56v0Z"/><path class="cls-2" d="M8.79,1.26h0l1.26,0Z"/><path class="cls-2" d="M16.39,2.77h3.13V4h2.33V2.77h2.38a2.86,2.86,0,0,1,0-.79H25V1.91H17V1.35h-.61Z"/><path class="cls-2" d="M19.52,11.53l2.33,0V10H19.52Z"/><path class="cls-2" d="M28.23,5V3.57H26.64v.88h-.75c0,.18,0,.37,0,.55Z"/><path class="cls-2" d="M35.33,5.16v.4h0Z"/><path class="cls-2" d="M32.23,9.94l-2.42,0a3.89,3.89,0,0,0-.79,0v0H26.64v0h.8v.77h6.33V9.94H34v0H32.23Z"/><path class="cls-2" d="M34.56,3.56h0v0Z"/><path class="cls-2" d="M34.56,3.65V3.56H33C33,4,33,4.52,33,5h2.34c0-.45,0-.9,0-1.34Z"/><rect x="36.98" y="9.98" width="2.3" height="0.95"/><path class="cls-2" d="M44.07,10H42.48v.75h.8v.2h1.56l0-.95Z"/><path class="cls-2" d="M39.3,3.44c0-.47,0-.95,0-1.42,0,.47,0,1,0,1.42Z"/><path class="cls-2" d="M54.32,2.77c0-.45,0-.91,0-1.37h0C54.35,1.86,54.34,2.32,54.32,2.77Z"/><path class="cls-2" d="M51.2,5.19h-.84V4.44h-.75v0h-.37V2.85h-.42c0-.48,0-1,0-1.45H46.46l0,.62a3,3,0,0,1,0,.75h.76c0,.53,0,1.06,0,1.59H48v.83h.79V6.77h.79v.34H51.2V6.77H52V5.19h.79V4.4H51.2Z"/></g></g></svg>