<svg xmlns="http://www.w3.org/2000/svg" viewBox="0 0 214 31"><defs><style>.cls-1{opacity:0.45;}.cls-2{fill:red;}.cls-3{opacity:0.35;}.cls-4{fill:#fff;}.cls-5{fill:none;opacity:0.15;}</style></defs><title>アートボード 332</title><g id="comon"><g id="見出し"><rect x="7.8" y="2.61" width="198.43" height="26.17"/><g class="cls-1"><path class="cls-2" d="M24.35,29.28c-5.1,0-9.12-.6-11.92-1.78C8.74,25.94,6.87,24,6.87,21.65V19.43h9v2.09c0,.65.2,1.6,2,2.34a15.18,15.18,0,0,0,5.91,1,19.46,19.46,0,0,0,7.16-1c1.5-.63,2.27-1.38,2.27-2.21S31.8,20,29.44,19.34c-5.21-1.41-10.18-2.93-14.77-4.51C11,13.56,9,11.75,8.76,9.45S10.27,5.11,14,3.63A29,29,0,0,1,24.67,1.72c4.68,0,8.38.55,11,1.65C39.16,4.86,40.82,7,40.58,9.83l-.07.81h-9.2l.32-1.13C31.74,9.1,32,8,29.64,7a13,13,0,0,0-5-.85,13,13,0,0,0-5,.85c-.84.36-2.26,1.09-2.26,2,0,.18.18,1.15,3.79,2.46a123.63,123.63,0,0,0,13,3.94h0c5.31,1.26,7.89,3.19,7.89,5.89s-1.77,4.64-5.24,6.11C33.89,28.64,29.66,29.28,24.35,29.28ZM8.66,21.22v.43c0,1.53,1.5,3,4.46,4.2,2.59,1.09,6.37,1.64,11.23,1.64,5.07,0,9.06-.59,11.86-1.78s4.15-2.63,4.15-4.46c0-2.15-3.54-3.44-6.51-4.15h0a125.6,125.6,0,0,1-13.23-4c-3.4-1.22-5-2.54-5-4.14S16.77,6.3,19,5.36a14.41,14.41,0,0,1,5.67-1,14.4,14.4,0,0,1,5.66,1c2.38,1,3.1,2.32,3.16,3.49h5.29C38.58,7.28,37.32,6,35,5S29.11,3.51,24.67,3.51a27.28,27.28,0,0,0-10,1.78c-2.9,1.15-4.29,2.49-4.13,4s1.75,2.86,4.72,3.87c4.55,1.58,9.48,3.08,14.65,4.48,1.24.34,5,1.37,5,4,0,1.62-1.13,2.92-3.36,3.86a20.9,20.9,0,0,1-7.86,1.13,17,17,0,0,1-6.61-1.13c-2.52-1.06-3.05-2.76-3.05-4v-.3Z"/><path class="cls-2" d="M68.74,29.28h-9V6H47.55V1.72h34V6H68.74Zm-7.19-1.79H67V4.23H79.78V3.51H49.34v.72H61.55Z"/><path class="cls-2" d="M103.17,29.28a28.85,28.85,0,0,1-11-1.78c-4.93-2.09-7.43-6.14-7.43-12.07s2.5-9.84,7.43-11.92a28.64,28.64,0,0,1,11-1.79A27.93,27.93,0,0,1,113.85,3.5c4.93,2.09,7.43,6.1,7.43,11.93s-2.5,10-7.43,12.07A27.89,27.89,0,0,1,103.17,29.28Zm0-25.77A27,27,0,0,0,92.88,5.15c-4.26,1.8-6.34,5.17-6.34,10.28s2.08,8.62,6.34,10.42a27,27,0,0,0,10.29,1.64,26.07,26.07,0,0,0,10-1.64c4.26-1.81,6.34-5.21,6.34-10.42S117.41,7,113.15,5.15A26.07,26.07,0,0,0,103.17,3.51Zm0,23.26a16.81,16.81,0,0,1-6.6-1.26C93.5,24.22,92,20.83,92,15.43s1.55-8.65,4.62-9.94a16.77,16.77,0,0,1,6.6-1.26,16,16,0,0,1,6.3,1.26c3.06,1.29,4.61,4.64,4.61,9.94s-1.55,8.79-4.61,10.08A16,16,0,0,1,103.17,26.77Zm0-20.75a15,15,0,0,0-5.91,1.12c-2.33,1-3.52,3.77-3.52,8.29s1.19,7.45,3.52,8.43A15,15,0,0,0,103.17,25a14.18,14.18,0,0,0,5.6-1.12c2.34-1,3.52-3.82,3.52-8.43s-1.18-7.31-3.52-8.29A14.18,14.18,0,0,0,103.17,6Z"/><path class="cls-2" d="M167.9,29.28H158L147.32,17.39h-7.47V29.28h-9V1.72H147.4A34.32,34.32,0,0,1,160.58,3.9h0c3.06,1.3,4.62,3.22,4.62,5.72,0,2.31-1.55,4.18-4.6,5.57a21.31,21.31,0,0,1-4.25,1.49Zm-9.14-1.79h5.07l-11-12,1.69-.24a18.72,18.72,0,0,0,5.37-1.64c2.4-1.09,3.56-2.38,3.56-4,0-1.74-1.16-3.07-3.53-4.07h0a32.47,32.47,0,0,0-12.48-2H132.65v24h5.41V15.6h10.06ZM148,14.87h-10V4.23h7.78a23.29,23.29,0,0,1,8.8,1.39c2.23.94,3.36,2.29,3.36,4,0,1.23-.53,2.93-3.05,4h0A17.69,17.69,0,0,1,148,14.87Zm-8.18-1.79H148A16,16,0,0,0,154.25,12h0c1.76-.75,2-1.7,2-2.35,0-.35,0-1.39-2.27-2.35A21.46,21.46,0,0,0,145.84,6h-6Z"/><path class="cls-2" d="M192.42,29.28h-9V17L167.38,1.72h9.8L187.93,12,198.68,1.72h9.79L192.42,17Zm-7.2-1.79h5.41V16.24L204,3.51h-4.61L188.44,14h-1L176.46,3.51h-4.6l13.36,12.73Z"/></g><g class="cls-3"><path class="cls-4" d="M29.15,15.71q7.68.51,7.68,1.47c0,.65-1.67,1.16-5,1.55a120.54,120.54,0,0,1-13,.54,116.59,116.59,0,0,1-12.36-.5Q1.1,18.16,1.1,17.3v-.39H8.78v.35q0,.61,2.67.93a61.28,61.28,0,0,0,6.68.31,77.94,77.94,0,0,0,8-.31c2-.23,3-.53,3-.89s-1.56-.7-4.67-.93q-8.35-.62-15.7-1.31c-3.56-.34-5.46-.79-5.68-1.36s1.45-1,5-1.43a103.42,103.42,0,0,1,11-.54,105.5,105.5,0,0,1,11.36.46c3.34.39,4.89.93,4.67,1.63H27.48c.45-.44-.45-.79-2.67-1.05a50.59,50.59,0,0,0-5.68-.27,50.4,50.4,0,0,0-5.67.27c-2,.24-3,.51-3,.82s1.56.65,4.68,1Q22.14,15.26,29.15,15.71Z"/><path class="cls-4" d="M57.54,19.27V12.46h-13v-.73h34.4v.73H65.22v6.81Z"/><path class="cls-4" d="M121.28,15.48q0,2.43-7.35,3.29a100.15,100.15,0,0,1-11,.5,104.1,104.1,0,0,1-11.35-.5q-7.35-.86-7.35-3.29t7.35-3.25a104.1,104.1,0,0,1,11.35-.5,100.15,100.15,0,0,1,11,.5Q121.28,13.09,121.28,15.48Zm-29.39,0q0,2.2,4.35,2.71a58.62,58.62,0,0,0,6.67.35,55.65,55.65,0,0,0,6.35-.35q4.33-.51,4.34-2.71t-4.34-2.67a55.65,55.65,0,0,0-6.35-.35,58.62,58.62,0,0,0-6.67.35Q91.89,13.32,91.89,15.48Z"/><path class="cls-4" d="M163.81,12.35c2.89.33,4.34.81,4.34,1.43s-1.45,1-4.34,1.39c-2,.26-4,.43-6,.5l12,3.6h-8l-11.36-3.48H141.1v3.48h-7.68V11.73h16.7A123.81,123.81,0,0,1,163.81,12.35Zm-6,2.36q2.67-.32,2.67-.93c0-.39-1-.7-3-.93a81.54,81.54,0,0,0-9-.39H141.1v2.6h9.69A62.15,62.15,0,0,0,157.8,14.71Z"/><path class="cls-4" d="M181.51,11.73l11.69,3h.33l11.69-3h7.68l-15.7,4.1v3.44h-7.68V15.83l-15.69-4.1Z"/></g><rect class="cls-5" width="214" height="31"/></g></g></svg>