<svg xmlns="http://www.w3.org/2000/svg" viewBox="0 0 62 13"><defs><style>.cls-1{fill:none;opacity:0.12;}.cls-2{fill-rule:evenodd;}</style></defs><title>アートボード 31</title><g id="comon"><g id="見出し"><rect class="cls-1" width="62" height="13"/><path class="cls-2" d="M2.7,3.63l-2.3,0v.74s0,.11,0,.16l2.36,0a.35.35,0,0,0,0-.16C2.73,4.19,2.71,3.91,2.7,3.63Z"/><path class="cls-2" d="M22.92,7.56h-.75V7.05L19,7.08v.44l1.54,0,0,2.37L19.07,10v.75H18.2V10a2.89,2.89,0,0,1-.79,0V9.2a2.54,2.54,0,0,1-.79,0V8.42h-.71v.75h-.83l0,1.54a2.92,2.92,0,0,1,.8,0v.75h2.38v.75h1.5v-.75l1.63,0v-.79h.79V9.87H23Z"/><rect x="13.86" y="3.43" width="0.05" height="3.92" transform="translate(8.43 19.25) rotate(-89.74)"/><rect x="25.02" y="8.08" width="0.81" height="2.34" transform="translate(16 34.6) rotate(-89.59)"/><path class="cls-2" d="M25.56,3.7h-.75l0,4.23,2.34,0,0-2.9H25.58C25.58,4.58,25.57,4.14,25.56,3.7Z"/><rect x="11.28" y="2.78" width="2.34" height="0.91"/><path class="cls-2" d="M27.9,3.63h-.75c0-.53,0-1.06,0-1.59a2.86,2.86,0,0,1-.79,0V1.26l-1.58,0V.47H21.64v.75h-.83V2H20v.79h-.79V4.44h-.75c0,.19,0,.39,0,.59h2.34V3.57h.75a2.84,2.84,0,0,1,0-.79h.75V2H24v.75a2.86,2.86,0,0,1,.79,0v.75h.75V3.7h1.58l0,1.33h.76Z"/><path class="cls-2" d="M35.26,1.24h-.17V1H32v.22h0v0h-.75V2.71h2.33V2h1.71Z"/><path class="cls-2" d="M35.76,10V9.7H34.18v1H35v.79h1.58c0-.51,0-1,0-1.54Z"/><path class="cls-2" d="M45.06,6.74v.75h.09l0-2.29h-1a2.54,2.54,0,0,1-.79,0V4.43l-2.31,0,.06,3.38,2.29,0v-1Z"/><path class="cls-2" d="M30.15,8.68l0,2.81,1.54,0a3.54,3.54,0,0,1,.75,0V8.67Z"/><path class="cls-2" d="M44.56,8.78v.33H45v.58h1.58c0-.31,0-.61,0-.91Z"/><path class="cls-2" d="M51.1,3.6h-.79v.86h.3v.26l1.28,0V4.36h.75c0-.45,0-.9,0-1.35L51.11,3Z"/><polygon class="cls-2" points="53.1 6.75 53.89 6.76 53.84 9.8 55.43 9.83 55.47 6.79 56.27 6.8 56.27 6.46 53.1 6.41 53.1 6.75"/><path class="cls-2" d="M46.71.59h.72V.48h-.72Z"/><rect x="60.01" y="10.67" width="1.58" height="0.85" transform="translate(-0.15 0.85) rotate(-0.8)"/><path class="cls-2" d="M50.3,4.45h-.45c0-.48,0-1,0-1.44L47.49,3c0,.46,0,.91,0,1.36h.75v.36l2.33,0v0h-.3Z"/><path class="cls-2" d="M43.41.48h-1.5V.59h1.51Z"/></g></g></svg>