<svg xmlns="http://www.w3.org/2000/svg" viewBox="0 0 62 16"><defs><style>.cls-1{fill:none;opacity:0.12;}.cls-2{fill:#fff;fill-rule:evenodd;}</style></defs><title>アートボード 115</title><g id="comon"><g id="共通装飾品"><rect class="cls-1" width="62" height="16"/><path class="cls-2" d="M13.49.82,13.44,5h-1c0,1.38,0,2.76,0,4.13h-1c0,.69,0,1.38-.05,2.07h-1L10.28,7h-1c0-1.38,0-2.76-.05-4.13h-1V.77H4.14V14.2a4.34,4.34,0,0,1,.05,1h2a5,5,0,0,1,0-1V3.82h1c0,1.37,0,2.75,0,4.13h1l.05,4.13h1l.06,3.1h3l.05-2.07h1L13.44,9h1c0-1.38,0-2.75.05-4.13h1V14.2a4.34,4.34,0,0,1,.05,1h2a3.41,3.41,0,0,1,.05-1h1V.82l-4.08,0A4.34,4.34,0,0,1,13.49.82Z"/><path class="cls-2" d="M32,6c0-1,0-2.07-.05-3.1H31V1.8H29.92v-1a4.43,4.43,0,0,1-1,0H23.77v1h-1v1h-1V3.92h-1c0,1.45,0,2.89,0,4.34v1.81a4.3,4.3,0,0,1,0,1h1v2.12h1v1h2.12v1a4.3,4.3,0,0,1,1,.05l3.05-.05v-1l2.07,0c0-.67,0-1.35.05-2h1V10h1V6ZM30,11.15H29v1h-.06v0H28v1H24.8v-1h-1q0-3.61-.05-7.23a5.29,5.29,0,0,0,.05-1.08h1v-1l3.15-.05a4.84,4.84,0,0,0,1,.05l.06,2h1Z"/><path class="cls-2" d="M45.41,12.18h-1c0-.68,0-1.37,0-2.06h-1a3.76,3.76,0,0,0,0-1.09A3.44,3.44,0,0,1,43.4,8h1a3.76,3.76,0,0,1,0-1h1c0-1.37,0-2.73.05-4.09a5,5,0,0,1-.05-1,3.43,3.43,0,0,1-1-.05v-1a4.34,4.34,0,0,1-1,0H36.17a4.43,4.43,0,0,1-1,0V14.15a3.47,3.47,0,0,1,1,0v1h2V10.89a8,8,0,0,1,0-1.91l3.1,0V11.1h1l.06,3.05a3.43,3.43,0,0,1,1,0v1h2c0-.67,0-1.34.05-2A5.12,5.12,0,0,1,45.41,12.18ZM42.42,5v1h-.06V6h-1V7H38.23a3.13,3.13,0,0,0,0-1V3.82a3.84,3.84,0,0,1,0-1l4.19.05v1h1V5Z"/><path class="cls-2" d="M51.61,12.18h-1V9h1V8H55.8l-.06-2H50.63V2.83h6.2a5,5,0,0,1,1-.05c0-.67,0-1.34,0-2h-9.3V14.2a4.3,4.3,0,0,1,.06,1h9.19c0-.67,0-1.34,0-2H51.61Z"/></g></g></svg>