<svg xmlns="http://www.w3.org/2000/svg" viewBox="0 0 231 192"><defs><style>.cls-1{fill:red;}.cls-2{fill:none;opacity:0.12;}</style></defs><title>アートボード 196</title><g id="TOP"><path class="cls-1" d="M148.48,58.05a4.36,4.36,0,1,0,4.34-4.37A4.35,4.35,0,0,0,148.48,58.05Zm5.84-3.24a3.41,3.41,0,0,1,1,.71,3.49,3.49,0,0,1,1,2.5,3.56,3.56,0,1,1-3.57-3.54A3.46,3.46,0,0,1,154.32,54.81Z"/><path class="cls-1" d="M152.92,38.14A2.85,2.85,0,0,0,150.09,41a2.91,2.91,0,0,0,.84,2,3.06,3.06,0,0,0,.82.56A2.83,2.83,0,0,0,155,43a2.78,2.78,0,0,0,.82-2,2.83,2.83,0,0,0-2.85-2.83ZM155,41a2,2,0,0,1-2,2,2,2,0,1,1,0-4.07,2,2,0,0,1,1.45.59A2,2,0,0,1,155,41Z"/><path class="cls-1" d="M226.2,3.75c-3.62-1.6-19.79-5.2-37.08-1.93-18.08,3.41-27.57,11-29.71,13.59-1.76,2.16-2.57,4.42-2.24,6.18a4.32,4.32,0,0,0,2.31,3,5.29,5.29,0,0,1,2.83,3.29,5,5,0,0,1-1,3.94c-1.66,2.42-6.42,4.56-7.3,4.94a12.5,12.5,0,0,0-1.85-.12,10.05,10.05,0,0,0-5.52,1.44c-.34-.53-.67-1-.95-1.55-3-5.36-3.85-6.08-5.67-6.07-1.06,0-2.28,0-2.92-.06l0-6.71-63.43.2,0-7L8.87,17H8.64l-.11.2a14.82,14.82,0,0,0-1.66,5,51.26,51.26,0,0,0-.18,9.31c-.68.74-3.93,4.68-5.26,13.57-1.55,10.31.82,16.65.92,16.91l.1.26,67.8-.21v.82l66.4-.2c.91,1,4,4.38,5.56,5.08a1.75,1.75,0,0,0,.37.12c.87.12,9.42.06,19.65,0l7.78-.06c5.67,0,8.92-1.06,9.15-2.93a3.73,3.73,0,0,0,0-1.24,16.91,16.91,0,0,1,3.35.78A16.45,16.45,0,0,1,185.2,66l-.32.21.94.18s1.4.68-.07,6.46l0,.13c-1.62,6.4-2.89,11.45-8.6,12.18-2.82.36-7.33.56-11.7.75-4.86.22-9.45.42-11.07.83a7.19,7.19,0,0,0-4.43,3.35c-1.62,2.73-1.78,6.63-.5,11.61,3.39,13,3.63,24.15.71,33-1,3.1-2.12,6.23-3.19,9.25-2.68,7.57-5,14.1-5,17.37a9.82,9.82,0,0,0,5.6,9.1,12.06,12.06,0,0,0,4.4,1c3.06.16,6.93-.52,10.66-1.18,4.62-.82,9.39-1.67,12.76-1,6.21,1.29,19.08,6.84,21.88,8.69,3.05,2,6.44.21,8.4-2a19.67,19.67,0,0,0,1.55-2,84.42,84.42,0,0,1-4,11.14c-2.57,5.54-4.51,5.9-8,5.39-3.17-.47-60.05-12-64.37-13.66a8.07,8.07,0,0,1-4.56-4.25,4.89,4.89,0,0,1-.12-3.85,18.4,18.4,0,0,1,1.38-2.46c1.56-2.52,4.16-6.72,7.93-17.24,5.44-15.2,5.83-29.23,4.51-36.63a18.18,18.18,0,0,0-7.43-11.66,13.17,13.17,0,0,1-1-.88,7.21,7.21,0,0,0-5.55-2.4l-10.43,0,0-.05-.1.05-31.7.08c-.2-.42-.42-.85-.68-1.32a36.24,36.24,0,0,1-1.92-4.08C79.61,88.47,78.82,79,78.81,76.41c0-1.49-1.52-3.11-3.31-3.53s-3.44.45-4.45,2.44c-2.46,4.83-.7,17.69.79,20.41a19.61,19.61,0,0,1,.94,1.91l-52.28.12h-.7c-2.35,0-5.27,0-6.48-1.31a8.82,8.82,0,0,1-1.89-4.3L54.21,92c2.88,0,4.47-.25,5.33-.81s1-1.51,1-2.64A5.38,5.38,0,0,0,60,85.66c-.59-.9-1.7-1.32-3.51-1.31l-47.14.14a32.63,32.63,0,0,1-1.89-3.94C5.67,75.9,2.9,64.15,2.87,64l-.78.18c0,.12,2.82,11.93,4.65,16.63a31.63,31.63,0,0,0,2.08,4.3v.15H8.9c.08.13.15.28.23.4.95,1.69,1.64,2.92,1.46,4A9.9,9.9,0,0,0,12.72,97a3.68,3.68,0,0,0,1.21.87c1.62.74,3.93.72,5.88.7h.7l52.59-.12A31.66,31.66,0,0,1,74.4,104c.64,3.67,8.54,21.55,25,34.19a138.65,138.65,0,0,0,24.42,15.38c3.57,1.65,6.35,2.53,8,2.57a65.38,65.38,0,0,1-5,9.78,21.14,21.14,0,0,0-1.44,2.56,5.71,5.71,0,0,0,.12,4.47,8.74,8.74,0,0,0,4.45,4.45l.56.25c4.34,1.68,61.37,13.23,64.54,13.7,4,.58,6.22-.12,8.88-5.84,2.26-4.87,6.84-18,8.9-34.81.24-1.11.31-1.7.32-1.77H213a132.46,132.46,0,0,0,.61-22.56C212,100,206.57,89.66,202.57,82.14c-.35-.66-.69-1.3-1-1.93a32.19,32.19,0,0,0-9.33-11.34,14,14,0,0,0-3.5-3.25,3.09,3.09,0,0,0-2.78-.1,19.32,19.32,0,0,0-3.16-1.81,21.34,21.34,0,0,0-4.31-.94A35.61,35.61,0,0,1,163,55.34c-2.73-2.25-5.28-4.57-7.58-6.85a5.89,5.89,0,0,0,1.26-.94,6.31,6.31,0,0,0,2-5.37,23.33,23.33,0,0,0,4.06-1.66c1.19.2,12,2,19.08,1.52.88-.06,1.68-.15,2.41-.27v.1c.13,0,13.05,0,21.09-3.46,3.07-1.32,4.53-2.6,4.49-3.92a2.71,2.71,0,0,0-1.61-2c.67-.19,1.34-.38,2-.61,8.56-2.79,8.26-5.94,8.16-7-.08-.75-1.12-1.06-2.13-1.19,4.19-2.16,6.14-4.94,6.61-6.21a1.34,1.34,0,0,0-.11-1.2c-.55-1-2.25-1.56-3.57-1.9,5.49-1.84,6-3.31,5.77-4.52a2.05,2.05,0,0,0-.55-.93c.82.19,1.59.35,2.28.47,2.43.42,3.18-.27,3.37-.93C230.49,7,228.3,4.68,226.2,3.75ZM9.82,85.3h0l46.7-.14c2,0,2.56.53,2.83.94a4.85,4.85,0,0,1,.4,2.49c0,1.1-.09,1.61-.64,2-.72.46-2.23.67-4.9.68l-42.88.13a6.09,6.09,0,0,1,.05-1.49C11.61,88.46,10.86,87.13,9.82,85.3Zm116.11,13a6.42,6.42,0,0,1,5,2.17,12.44,12.44,0,0,0,1.1.93h0a6.4,6.4,0,0,0-3,2.12c-1.18,1.29-1.84,2.37-1.62,9.7.16,5.56-1.9,11-3.27,14.55-.39,1-.72,1.89-.94,2.6-1,3.15-2.15,3-2.93,2.84s-5.57-2.73-8.17-4.12c-1.06-.58-1.91-1-2.25-1.2a3.59,3.59,0,0,1-1.86-1.76.39.39,0,0,1,.07-.38c.7-.9,4.62-8.21,4.6-12,0-3.48-.05-11.63.3-12.95.23-.89,1.79-2,2.64-2.53Zm-11.76,0a5.11,5.11,0,0,0-2,2.31c-.33,1.26-.35,7.36-.33,13.17,0,3.53-3.84,10.69-4.44,11.46a1.21,1.21,0,0,0-.21,1,4.31,4.31,0,0,0,2.28,2.29c.35.17,1.18.62,2.24,1.19,2.87,1.55,5.56,3,7.14,3.71a7,7,0,0,0,1.28.5c1.3.21,2.77,0,3.81-3.4.21-.68.54-1.55.93-2.55,1.39-3.64,3.48-9.13,3.32-14.86-.22-7.35.46-8.1,1.41-9.13,1.31-1.43,2.44-2.09,3.26-1.9l0-.07a17,17,0,0,1,6.27,10.48c1.12,6.27,1,17.39-2.5,30-.15.22-.31.46-.47.72-1,1.59-2.17,3.4-5.64,2.85-4.17-.66-20.31-9.83-32.64-24.58C86.44,107.8,84.7,102.6,84.38,99.88A5.79,5.79,0,0,0,84,98.41ZM99.9,137.55c-16.29-12.5-24.08-30.09-24.72-33.7-.72-4.09-1.08-5.65-2.64-8.5-1.4-2.56-3.09-15.13-.78-19.67.84-1.65,2.1-2.37,3.55-2A3.46,3.46,0,0,1,78,76.41c0,2.39.75,12.07,2.31,16.1a35.44,35.44,0,0,0,2,4.17A9.2,9.2,0,0,1,83.59,100c.21,1.8.76,6.57,13.71,22.08,12.21,14.62,28.29,24.09,33.12,24.86,3,.46,4.49-.63,5.52-1.89-.39,1.26-.8,2.53-1.26,3.8-.9,2.52-1.73,4.66-2.5,6.51C128.66,155.6,115.7,149.67,99.9,137.55Zm100.95-57c.32.63.67,1.27,1,1.93,4,7.45,9.39,17.66,11,43.89a133.2,133.2,0,0,1-.79,24.07,72,72,0,0,1-4.12,12.15c-3,7-6.3,10.2-9.62,9.19a27.09,27.09,0,0,1-4.07-2.16c-3.69-2.16-9.28-5.43-15.32-7.17-4.79-1.37-10.13-.83-14.84-.35-4.32.44-8.05.82-10.48-.3h0c-4.56-2.11-3.08-6.83.88-19.42l.94-3c4.63-14.81,3.74-21.57.43-34.57-1.51-5.92-1.45-9.82.18-11.92,1.4-1.81,3.92-2,5.95-2.06,1.13,0,2.5.07,4.08.16,5.65.3,13.37.71,17.74-2.17,4.95-3.26,7.81-16,8.42-19A33.06,33.06,0,0,1,200.85,80.58ZM186.53,73c.85-3.35.92-5.72.21-6.84a.35.35,0,0,1-.05-.08,2.47,2.47,0,0,1,1.69.23,12.74,12.74,0,0,1,3.14,2.93c-.34,1.72-3.23,15.67-8.16,18.92-4.15,2.73-11.72,2.32-17.25,2-1.6-.09-3-.16-4.13-.16-2.22,0-5,.29-6.59,2.37-1.78,2.3-1.89,6.43-.32,12.6,3.27,12.85,4.15,19.53-.41,34.14l-.94,3c-4,12.71-5.66,18-.45,20.38h0c2.62,1.2,6.46.81,10.89.36,4.64-.47,9.9-1,14.53.33,6,1.71,11.49,4.95,15.15,7.09a27.24,27.24,0,0,0,4.24,2.24c2.63.8,6.6-.23,10.59-9.65,1.09-2.57,1.93-4.79,2.56-6.66a146.59,146.59,0,0,1-3.2,14.82h0a21.09,21.09,0,0,1-3,4.38c-1.75,1.94-4.73,3.58-7.36,1.84-2.84-1.88-15.87-7.5-22.16-8.82-3.51-.73-8.36.13-13.06,1-3.69.65-7.51,1.33-10.48,1.17-6.79-.35-9.23-5.25-9.24-9.33,0-3.13,2.39-9.92,4.93-17.1,1.07-3,2.18-6.16,3.2-9.27,3-9,2.73-20.24-.69-33.44-1.23-4.76-1.1-8.46.41-11a6.39,6.39,0,0,1,3.94-3c1.54-.39,6.09-.59,10.91-.8,4.38-.19,8.91-.39,11.77-.76,6.24-.8,7.64-6.35,9.27-12.77ZM7.66,22.39A15.5,15.5,0,0,1,9.1,17.83l63.73-.19,0,6.24H70.09l0,7.23-62.65.19A49.46,49.46,0,0,1,7.66,22.39ZM3,61.51c-.42-1.28-2.14-7.29-.79-16.25C3.5,36.72,6.66,32.81,7.28,32.11l62.84-.19.12,29.39Zm68,.61L70.9,24.68l65.38-.2.16,37.44ZM162.5,56a36.64,36.64,0,0,0,8,5,33.73,33.73,0,0,0,7.76,2.58c.07.09.23.4.12,1.27C178.24,65.88,176,67,170,67l-7.79.06c-7.87.06-18.64.15-19.53,0s-3.62-2.93-5.46-5l-.13-31c.65,0,1.86.06,2.91.06,1.26,0,1.94.22,5,5.66a58.52,58.52,0,0,0,9.59,11.87l0,.12,0,0C157.05,51.24,159.68,53.63,162.5,56Zm-6.38-9a5.68,5.68,0,0,1-1.28.92,66.27,66.27,0,0,1-7.76-9.17,9.27,9.27,0,0,1,5.08-1.31c2.67,0,4.63.63,5.52,3.8A5.58,5.58,0,0,1,156.12,47Zm25.64-5.74c-6,.42-14.76-.85-17.86-1.35l.07,0a21.27,21.27,0,0,0,4.92-3.62,53.49,53.49,0,0,0,16.29.58,42,42,0,0,0,4.23-.75c.56.2,1.5.68,1.46,1.23C190.81,38.16,189,40.74,181.76,41.25ZM169.22,21.86c1-4.06,9.41-9.95,25.71-13.31l.78-.15c3.74.45,8.86,1.75,8.77,3.32-.17,2.85-5.43,5.6-16.07,8.43a72.44,72.44,0,0,1-19.28,2.75A3.54,3.54,0,0,1,169.22,21.86Zm19.39-.94c2.52-.67,4.72-1.33,6.65-2v0c1.48.24,5.49,1.11,6.26,2.34a.55.55,0,0,1,.08.49c-.46,1.53-3.73,4-8.94,5.76l-.14,0,0,.09a37.68,37.68,0,0,1-5.85,1.43,71.79,71.79,0,0,1-14.25,1c.49-2.54-.72-3.74-1.79-4.8a5.46,5.46,0,0,1-1.24-1.55A74,74,0,0,0,188.61,20.92Zm-16.44,9.91a71.12,71.12,0,0,0,14.59-1,38.73,38.73,0,0,0,5.91-1.45c1.92.53,4.32,1.58,4.23,2.5-.11,1.27-2.73,4-11.82,5.14a53.12,53.12,0,0,1-15.53-.47A12,12,0,0,0,172.17,30.83ZM209,34.52c0,.53-.48,1.64-4,3.16C199.57,40,191.86,40.74,187.52,41c3-1.09,4.08-2.67,4.15-3.61a1.82,1.82,0,0,0-1-1.59,20.51,20.51,0,0,0,3.62-1.33,54.45,54.45,0,0,0,13-1.72l-.06.15S209,33.52,209,34.52Zm5.77-10.14c1.57,0,2.78.33,2.8.58.09.87.34,3.54-7.61,6.13a54.34,54.34,0,0,1-14.27,2.52,4,4,0,0,0,2-2.65c.13-1.44-2.14-2.46-3.76-3,.76-.29,1.47-.59,2.13-.89.64.09,3.73.4,12.21-.9a26.92,26.92,0,0,0,6.49-1.8Zm7.29-7.72a.57.57,0,0,1,0,.52c-.66,1.78-4.45,6.73-13.95,8.19a65,65,0,0,1-10.66,1c2.8-1.51,4.51-3.13,4.87-4.31a1.39,1.39,0,0,0-.17-1.15c-.81-1.29-3.79-2.1-5.55-2.47.55-.2,1.06-.4,1.55-.61l0,.15c.13,0,12.68-1.19,19.42-3.12C219.18,15.11,221.55,15.8,222.06,16.66Zm-4.17-2.73-.31.09-.1,0v.05c-5.06,1.47-13.57,2.5-17.38,2.91,3.39-1.66,5.08-3.37,5.18-5.19.13-2.13-4.16-3.27-7.14-3.81a59.79,59.79,0,0,1,24.47.56c.6.35,1.47,1,1.56,1.48S224.54,11.88,217.89,13.93Zm11.39-5.71c-.15.48-1.07.61-2.48.37-.85-.14-1.79-.35-2.88-.6-5.65-1.26-14.13-3.15-28.24-.39h0l-.88.17c-16.74,3.45-25.28,9.47-26.33,13.91-.49,2.08.57,3.13,1.59,4.13s2,2,1.56,4.1c-.72,3.61-3.41,6.72-8,9.25a25.33,25.33,0,0,1-5.05,2.23c0-.12-.05-.24-.08-.37a5.31,5.31,0,0,0-3.21-3.94c1.77-.85,5.26-2.69,6.73-4.81a5.73,5.73,0,0,0,1.11-4.57,6.08,6.08,0,0,0-3.21-3.81A3.58,3.58,0,0,1,158,21.44c-.29-1.53.46-3.54,2.08-5.53C162.12,13.35,171.42,6,189.27,2.6c17.11-3.23,33,.3,36.61,1.88C227.86,5.35,229.53,7.38,229.28,8.22Z"/><path class="cls-1" d="M169.6,108.61a17.49,17.49,0,1,0,12.33-5.14A17.34,17.34,0,0,0,169.6,108.61ZM189,105.79a16.81,16.81,0,0,1,4.76,3.32,16.52,16.52,0,1,1-4.76-3.32Z"/><path class="cls-1" d="M193.62,136.84a4.7,4.7,0,0,0-2,9,4.71,4.71,0,0,0,5.31-1,4.71,4.71,0,0,0-3.36-8Zm2.79,7.46a3.85,3.85,0,0,1-2.76,1.15,3.91,3.91,0,0,1-3.92-3.89,3.9,3.9,0,0,1,5.54-3.56,4.07,4.07,0,0,1,1.12.77,3.93,3.93,0,0,1,1.16,2.76A3.88,3.88,0,0,1,196.41,144.3Z"/><path class="cls-1" d="M176.48,124.67c.77.85,1.57,1.72,2.26,2.58a20.38,20.38,0,0,1,2.93,5.17.41.41,0,0,0,.21.22.33.33,0,0,0,.17,0,.41.41,0,0,0,.38-.27,20,20,0,0,1,2.87-5.18c.68-.86,1.47-1.74,2.24-2.59,1.89-2.11,3.84-4.28,4.39-6.47a6,6,0,0,0-1.65-6.21,4.59,4.59,0,0,0-5-.58,7,7,0,0,0-3.33,3.43,7,7,0,0,0-3.36-3.41,4.6,4.6,0,0,0-5,.61,5.93,5.93,0,0,0-1.6,6.22C172.6,120.42,174.57,122.58,176.48,124.67Zm-2.34-12a3.85,3.85,0,0,1,4.14-.5l0,0A6.69,6.69,0,0,1,181.6,116a.39.39,0,0,0,.38.29.41.41,0,0,0,.39-.3,6.48,6.48,0,0,1,3.26-3.92,3.85,3.85,0,0,1,4.14.47,5.18,5.18,0,0,1,1.39,5.4c-.51,2-2.39,4.1-4.22,6.13-.77.86-1.57,1.75-2.27,2.63a20.7,20.7,0,0,0-2.63,4.48,20.59,20.59,0,0,0-2.68-4.46c-.7-.88-1.51-1.76-2.29-2.62-1.84-2-3.75-4.11-4.27-6.1A5.17,5.17,0,0,1,174.14,112.62Z"/><rect class="cls-2" width="231" height="192"/></g></svg>