<svg xmlns="http://www.w3.org/2000/svg" viewBox="0 0 214 31"><defs><style>.cls-1{fill:none;opacity:0.15;}.cls-2{fill:red;}</style></defs><title>アートボード 147</title><g id="comon"><g id="見出し"><rect class="cls-1" width="214" height="31"/><path class="cls-2" d="M46.68,22h1v1.89H43.76V22h1V9h-1V7.12h3.87V9h-1Z"/><path class="cls-2" d="M60.24,7.12V23.88H57.83L53.36,11.33h-.08V23.88h-2V7.12h2.41l4.47,12.55h.08V7.12Z"/><path class="cls-2" d="M66.18,23.88V8.75H62.83V7.12h8.85V8.75H68.16V23.88Z"/><path class="cls-2" d="M82.09,8.5a4.31,4.31,0,0,1,1.12,3.18,4.38,4.38,0,0,1-1.12,3.09,3.89,3.89,0,0,1-1.55,1.12l3.1,8H81.57l-2.92-7.74H76.24v7.74h-2V7.12h4.29A4.77,4.77,0,0,1,82.09,8.5Zm-1.55,5.24a2.8,2.8,0,0,0,.69-2.06,2.83,2.83,0,0,0-.77-2.07,3.16,3.16,0,0,0-2.32-.86h-1.9v5.76h2.5A2.48,2.48,0,0,0,80.54,13.74Z"/><path class="cls-2" d="M94.9,15.46q0,5.41-1.89,7.3a3.81,3.81,0,0,1-2.83,1.12,4,4,0,0,1-2.93-1.12q-1.89-1.89-1.89-7.3t1.89-7.22a4,4,0,0,1,2.93-1.12A3.81,3.81,0,0,1,93,8.24Q94.9,10.13,94.9,15.46Zm-7.56,0c0,3.26.37,5.27,1.12,6a2.37,2.37,0,0,0,1.72.78,2.3,2.3,0,0,0,1.63-.78c.74-.74,1.12-2.75,1.12-6s-.38-5.19-1.12-5.93a2.3,2.3,0,0,0-1.63-.78,2.37,2.37,0,0,0-1.72.78Q87.34,10.64,87.34,15.46Z"/><path class="cls-2" d="M104.28,8.67q2,2,2,6.87t-1.81,6.62a5.9,5.9,0,0,1-4.38,1.72H97.15V7.12h2.92A5.69,5.69,0,0,1,104.28,8.67Zm-4.21,13.58A3.76,3.76,0,0,0,102.82,21q1.29-1.29,1.29-5.5t-1.38-5.67a3.64,3.64,0,0,0-2.66-1.12h-.95v13.5Z"/><path class="cls-2" d="M108.59,7.12h2V19.41a2.68,2.68,0,0,0,.61,2,2.44,2.44,0,0,0,1.8.6h.09a2.31,2.31,0,0,0,1.71-.6,2.68,2.68,0,0,0,.69-2V7.12h2V19.41a4.75,4.75,0,0,1-1.29,3.52,4.25,4.25,0,0,1-3.09.95H113a4.25,4.25,0,0,1-3.09-.95,4.75,4.75,0,0,1-1.29-3.52Z"/><path class="cls-2" d="M127.24,22.68a4,4,0,0,1-5.68,0c-1.43-1.44-2.14-3.67-2.14-6.71q0-5.33,2.32-7.65a3.77,3.77,0,0,1,2.75-1.2,3.48,3.48,0,0,1,2.57,1A6.3,6.3,0,0,1,128.78,13h-1.89c-.06-1.83-.4-3.06-1-3.69a1.86,1.86,0,0,0-1.37-.52,1.91,1.91,0,0,0-1.38.61q-1.73,1.71-1.72,6.44,0,4.13,1.46,5.59a2.14,2.14,0,0,0,1.55.68,2,2,0,0,0,1.46-.68c.57-.58.89-1.89,1-4h2.06C128.7,20,128.15,21.76,127.24,22.68Z"/><path class="cls-2" d="M133.94,23.88V8.75h-3.35V7.12h8.85V8.75h-3.52V23.88Z"/><path class="cls-2" d="M145.68,22h.95v1.89h-3.87V22h1V9h-1V7.12h3.87V9h-.95Z"/><path class="cls-2" d="M158.7,15.46q0,5.41-1.89,7.3A3.81,3.81,0,0,1,154,23.88a3.91,3.91,0,0,1-2.92-1.12q-1.91-1.89-1.9-7.3t1.9-7.22A3.91,3.91,0,0,1,154,7.12a3.81,3.81,0,0,1,2.83,1.12Q158.7,10.13,158.7,15.46Zm-7.56,0c0,3.26.37,5.27,1.12,6a2.37,2.37,0,0,0,1.72.78,2.3,2.3,0,0,0,1.63-.78c.74-.74,1.12-2.75,1.12-6s-.38-5.19-1.12-5.93A2.3,2.3,0,0,0,154,8.75a2.37,2.37,0,0,0-1.72.78Q151.14,10.64,151.14,15.46Z"/><path class="cls-2" d="M170.24,7.12V23.88h-2.41l-4.47-12.55h-.08V23.88h-2V7.12h2.41l4.47,12.55h.08V7.12Z"/></g></g></svg>