<svg xmlns="http://www.w3.org/2000/svg" viewBox="0 0 214 31"><defs><style>.cls-1{fill:none;opacity:0.15;}.cls-2{fill:red;}</style></defs><title>アートボード 149</title><g id="comon"><g id="見出し"><rect class="cls-1" width="214" height="31"/><polygon class="cls-2" points="55.51 15.53 55.5 11.24 53.52 11.25 53.53 16.23 54.9 16.23 54.64 15.53 55.51 15.53"/><rect class="cls-2" x="41.57" y="17.25" width="1.98" height="0.27" transform="translate(-0.18 0.45) rotate(-0.6)"/><polygon class="cls-2" points="36.44 9.02 37.39 9.02 37.39 10.39 39.36 10.39 39.37 9.03 40.31 9.03 40.31 7.14 36.45 7.13 36.44 9.02"/><polygon class="cls-2" points="60.03 15.51 60.06 20.7 58.72 20.7 58.72 20.72 60.69 20.7 60.62 15.5 60.03 15.51"/><polygon class="cls-2" points="46.41 10.41 46.41 11.22 50.27 11.22 49.99 10.41 46.41 10.41"/><rect class="cls-2" x="42.81" y="22.38" width="1.98" height="1.51"/><polygon class="cls-2" points="43.91 7.14 41.5 7.12 41.47 9.48 44.72 9.52 43.91 7.14"/><rect class="cls-2" x="67.12" y="7.33" width="2.37" height="1.98" transform="translate(59.72 76.59) rotate(-89.78)"/><polygon class="cls-2" points="65.23 22.39 65.78 23.9 68.18 23.88 68.17 22.37 65.23 22.39"/><rect class="cls-2" x="53.98" y="9.83" width="0.81" height="1.98" transform="translate(42.91 65.06) rotate(-89.31)"/><polygon class="cls-2" points="60.03 15.51 60.03 15.5 58.06 15.51 58.08 19.68 57.99 19.68 56.49 15.52 55.51 15.53 55.51 16.23 54.9 16.23 56.52 20.71 58.72 20.7 58.65 15.53 60.03 15.51"/><rect class="cls-2" x="73.95" y="16.58" width="0.77" height="1.72" transform="translate(-0.18 0.77) rotate(-0.59)"/><rect class="cls-2" x="56.56" y="13.15" width="0.77" height="1.02" transform="translate(-0.23 0.98) rotate(-0.98)"/><rect class="cls-2" x="73.3" y="20.01" width="0.77" height="3.38" transform="translate(-0.28 0.96) rotate(-0.74)"/><polygon class="cls-2" points="57.82 13.15 57.84 14.06 58.05 14.06 57.97 9.82 57.77 9.82 57.82 12.88 57.82 13.15"/><polygon class="cls-2" points="73.48 8.91 73.27 8.91 73.27 8.91 73.48 8.92 73.48 8.91"/><polygon class="cls-2" points="65.97 7.18 60.84 7.09 60.82 8.72 64.17 8.78 64.1 12.89 64.87 12.9 64.94 8.94 65.94 8.96 65.97 7.18"/><rect class="cls-2" x="80.74" y="22.65" width="0.51" height="1.98" transform="translate(56.05 104.24) rotate(-89.07)"/><path class="cls-2" d="M81.36,16.82v-.3h-2v5.2h2v-3c-.09-.59-.16-1.21-.2-1.91Z"/><rect class="cls-2" x="79.48" y="10.83" width="0.81" height="1.98" transform="translate(67.87 91.67) rotate(-89.86)"/><path class="cls-2" d="M77.8,10.5h2.06a3.77,3.77,0,0,0-1-2,4.82,4.82,0,0,0-3.53-1.37H71v3.37h2V8.77h1.9a3.16,3.16,0,0,1,2.32.85A2.57,2.57,0,0,1,77.8,10.5Z"/><polygon class="cls-2" points="76.08 23.38 76.28 23.89 78.34 23.89 78.14 23.38 76.08 23.38"/><path class="cls-2" d="M83.3,11.42a2.23,2.23,0,0,1,0,.27,4.39,4.39,0,0,1,0,.53h2a4.73,4.73,0,0,0,0-.53,2.64,2.64,0,0,0,0-.28Z"/><polygon class="cls-2" points="85.36 16.54 87.39 21.71 89.43 21.68 87.35 16.52 85.36 16.54"/><path class="cls-2" d="M96,10a5.27,5.27,0,0,0-.31-.63V10Z"/><path class="cls-2" d="M95.18,8.55c-.08-.09-.14-.21-.23-.3a3.85,3.85,0,0,0-2.83-1.12,4,4,0,0,0-2.93,1.12A5.16,5.16,0,0,0,88.12,10h2a1.74,1.74,0,0,1,.3-.42,2.37,2.37,0,0,1,1.72-.77,2.28,2.28,0,0,1,1.61.75v-1Z"/><polygon class="cls-2" points="92.5 15.9 94.48 15.93 94.48 15.93 92.5 15.9 92.5 15.9"/><path class="cls-2" d="M81.36,16.82v1.91a10.38,10.38,0,0,0,.6,2.33h2a10.16,10.16,0,0,1-.79-4.24Z"/><polygon class="cls-2" points="94.69 15.9 96.67 15.93 96.67 15.93 94.69 15.9 94.69 15.9"/><path class="cls-2" d="M98.17,21.07l2,0a13.45,13.45,0,0,0,.75-4.24l-2,0A10.13,10.13,0,0,1,98.17,21.07Z"/><rect class="cls-2" x="96.61" y="13.1" width="0.91" height="1.98" transform="translate(82.18 111.04) rotate(-89.53)"/><path class="cls-2" d="M105.81,13.62c0,.29,0,.59,0,.91l2.14,0c0-.32,0-.62,0-.92Z"/><path class="cls-2" d="M103.41,7.14l-2.93,0v.49l5.53.1A6.58,6.58,0,0,0,103.41,7.14Z"/><path class="cls-2" d="M102.57,12.43a7,7,0,0,0-1.72-3.76l-.17-.14-5.5,0a5,5,0,0,1,.52.78V8.78h1a3.67,3.67,0,0,1,2.67,1.11,5.12,5.12,0,0,1,1.19,2.89H102v-.34Z"/><path class="cls-2" d="M93.75,9.54l0,0v3.27h2V10H94.05A3.05,3.05,0,0,0,93.75,9.54Z"/><path class="cls-2" d="M102.57,12.43c0,.11.05.21.07.33H102l-.08,6.65c0,.08,0,.14,0,.22l2,0c0-.07,0-.14,0-.22l.08-7Z"/><path class="cls-2" d="M102.09,23.89h.09l.32,0h-.41Z"/><polygon class="cls-2" points="109.21 7.28 108.41 7.28 109.21 7.3 109.21 7.28"/><polygon class="cls-2" points="107.53 7.29 107.23 7.29 107.24 8.2 108.4 8.19 107.52 8.18 107.53 7.29"/><polygon class="cls-2" points="109.22 8.18 108.4 8.19 109.5 8.21 109.51 7.3 109.21 7.3 109.22 8.18"/><polygon class="cls-2" points="107.54 7.27 107.53 7.29 108.41 7.28 107.54 7.27"/><path class="cls-2" d="M124.08,12.44l0,7a1.64,1.64,0,0,1,0,.22l2,0c0-.07,0-.14,0-.21l0-7Z"/><path class="cls-2" d="M126.43,16h0c0,.28,0,.54,0,.81l2,0q0-.39,0-.81Z"/><path class="cls-2" d="M132.12,21.12h.08V21C132.17,21,132.15,21.08,132.12,21.12Z"/><path class="cls-2" d="M132.37,20.62l1.8,0v.54h0a8,8,0,0,0,.29-.9h-2C132.47,20.36,132.42,20.49,132.37,20.62Z"/><path class="cls-2" d="M118.11,20.22h-2c.12.32.25.62.39.91h2.18A4,4,0,0,1,118.11,20.22Z"/><path class="cls-2" d="M115,23.89a3.85,3.85,0,0,0,1.32-.22l-2.63,0A4.06,4.06,0,0,0,115,23.89Z"/><path class="cls-2" d="M121.75,21.93l0,.05,2.83,0-.15-.05Z"/><path class="cls-2" d="M118.63,22l2.82,0,0,0-2.72,0Z"/><polygon class="cls-2" points="132.23 23.24 134.21 23.21 134.18 21.13 132.2 21.12 132.23 23.24"/><path class="cls-2" d="M132.2,20.62V21a2.85,2.85,0,0,0,.17-.35Z"/><rect class="cls-2" x="136.81" y="3.03" width="0.65" height="8.85" transform="translate(127.88 144.49) rotate(-89.25)"/><rect class="cls-2" x="144.73" y="20.22" width="1.98" height="0.91" transform="translate(-0.19 1.42) rotate(-0.56)"/><polygon class="cls-2" points="150.77 23.68 150.28 23.69 150.28 23.93 152.37 23.89 150.77 23.89 150.77 23.68"/><rect class="cls-2" x="152.75" y="23.63" width="1.4" height="0.24" transform="translate(-0.39 2.68) rotate(-1)"/><rect class="cls-2" x="146.66" y="21.94" width="1.98" height="0.05" transform="translate(-0.2 1.37) rotate(-0.53)"/><rect class="cls-2" x="134.92" y="15.98" width="1.98" height="0.81" transform="translate(-0.13 1.14) rotate(-0.48)"/><path class="cls-2" d="M152.15,9.85l-2,0a8.88,8.88,0,0,0-.34,1l1.91,0A4,4,0,0,1,152.15,9.85Z"/><path class="cls-2" d="M156.3,16.73h-2a15.5,15.5,0,0,0,.48,3.38h1.9A15.12,15.12,0,0,1,156.3,16.73Z"/><path class="cls-2" d="M151.23,16.74h-2a15.72,15.72,0,0,1-.43,3.38h1.9A16.13,16.13,0,0,0,151.23,16.74Z"/><path class="cls-2" d="M148,10.9a8.71,8.71,0,0,0-.34-1l-2,0a3.79,3.79,0,0,1,.41,1Z"/><path class="cls-2" d="M153.6,9.54a2.36,2.36,0,0,1,1.72-.77,2.29,2.29,0,0,1,1.63.77l.05.06h2.06a4.63,4.63,0,0,0-.91-1.35,3.85,3.85,0,0,0-2.83-1.12,4,4,0,0,0-2.93,1.12,4.91,4.91,0,0,0-.91,1.35h2.07Z"/><polygon class="cls-2" points="163.65 7.13 163.65 7.46 166.18 7.47 166.06 7.14 163.65 7.13"/><rect class="cls-2" x="176.4" y="6.31" width="0.33" height="1.98" transform="translate(168.46 183.83) rotate(-89.74)"/><polygon class="cls-2" points="166.38 9.11 166.33 14.31 168.31 14.32 168.34 11.34 168.42 11.34 169.46 14.33 171.3 14.35 169.49 9.13 166.38 9.11"/><rect class="cls-2" x="161.66" y="9.13" width="1.98" height="5.2" transform="translate(-0.09 1.36) rotate(-0.48)"/><polygon class="cls-2" points="152.75 22.91 150.77 22.91 150.77 23.68 152.75 23.65 152.75 22.91"/><polygon class="cls-2" points="152.75 23.89 152.75 23.88 152.37 23.89 152.75 23.89"/><polygon class="cls-2" points="157.47 23.89 159.88 23.89 159.88 22.91 157.12 22.91 157.47 23.89"/><rect class="cls-2" x="156.49" y="20.61" width="0.81" height="1.98" transform="translate(132.7 178.11) rotate(-89.05)"/><polygon class="cls-2" points="171.85 22 174.93 22 174.93 21.2 171.56 21.19 171.85 22"/></g></g></svg>