<svg xmlns="http://www.w3.org/2000/svg" viewBox="0 0 62 16"><defs><style>.cls-1{fill:none;opacity:0.12;}.cls-2,.cls-3{fill:#fff;}.cls-2{fill-rule:evenodd;}</style></defs><title>アートボード 116</title><g id="comon"><g id="共通装飾品"><rect class="cls-1" width="62" height="16"/><polygon class="cls-2" points="4.14 5.11 4.14 6.02 4.14 7.39 6.2 7.39 6.2 6.02 6.2 5.11 6.2 4.21 4.14 4.21 4.14 5.11"/><path class="cls-2" d="M10.29,7.39V7h-1c0-.33,0-.67,0-1h0V5.11h0v-.9h-2c0,1.25,0,2.49,0,3.74V7.39Z"/><path class="cls-2" d="M10.75,12.62V11.15h-.41c0-1,0-1.91,0-2.86h-2c0,1.26,0,2.53.05,3.79h1l.06,3.1h3c0-.69,0-1.38.05-2.06h1L13.44,9c0,1.22,0,2.43,0,3.64Z"/><path class="cls-2" d="M20.7,5.35l0-1.43c0,1.45,0,2.89,0,4.34V7.8h.57V5.35Z"/><path class="cls-2" d="M20.67,8.78v1.29a.11.11,0,0,0,0,0h.56v.93h.46V12.8h3.1v-.67h-1V12h0c0-.61,0-1.23,0-1.84h0V8.78h0v0h-2.5V8.53h-.57Z"/><path class="cls-2" d="M37.77.77h-1.6a4.43,4.43,0,0,1-1,0V2.11h2.59Z"/><path class="cls-2" d="M45.41,12.19h-1c0-.69,0-1.38,0-2.07h-1a3.67,3.67,0,0,0,0-1.08,5.75,5.75,0,0,1,0-.83H38.94V7h-.71a3.06,3.06,0,0,0,0-1V3.82c0-.14,0-.3,0-.45s0-.18,0-.27a1.59,1.59,0,0,1,0-.26h-.45V3H35.18V6h2.59V8.29H35.18v5.86a3.84,3.84,0,0,1,1,0v1h2V10.89a8,8,0,0,1,0-1.91l3.1.06V11.1h1l.06,3.05a3.66,3.66,0,0,1,1,0h0v.31h2c0,.22,0,.45,0,.67,0-.67,0-1.34.05-2A5,5,0,0,1,45.41,12.19Z"/><path class="cls-2" d="M56.83,2.84a4.3,4.3,0,0,1,1-.06V2.47H53.43v.37Z"/><rect class="cls-3" x="48.94" y="1.6" width="4.49" height="0.87"/><path class="cls-2" d="M57.86.77H53.43V1.6h4.41C57.85,1.32,57.86,1.05,57.86.77Z"/><rect class="cls-3" x="48.56" y="0.77" width="0.37" height="0.83"/><path class="cls-2" d="M4.14,8.79H4.9v3.83H4.14V14.2a5,5,0,0,1,.05,1h2a5,5,0,0,1,0-1V8.29H4.14Z"/><path class="cls-2" d="M13.45,4l0-1.44h1.77V.78h-.77a4.34,4.34,0,0,1-1,0c0,1.38,0,2.76-.05,4.13h-1v.16h0c0,.3,0,.6,0,.91h0c0,.43,0,.86,0,1.29v.08h0v.9h2V9l.05-4.13h1V7.39h3.05V4.21H15.24V2.84H13.46Z"/><rect class="cls-3" x="15.24" y="2.53" width="3.31" height="0.31"/><path class="cls-2" d="M15.5,12.62V14.2a4.34,4.34,0,0,1,.05,1h2a3.43,3.43,0,0,1,.05-1h1V8.29H15.5Z"/><rect class="cls-3" x="4.14" y="2.53" width="4.13" height="0.31"/><path class="cls-2" d="M32,2.89H31V1.8H29.92v-1h-.74l-.25,0H23.77v1h-1v1h-1V3.92h-.46V5.35h2.48c0,.81,0,1.63,0,2.45h-2.5v.73h2.5c0-1.21,0-2.42,0-3.63a5.29,5.29,0,0,0,.05-1.08h1v-1l2.63,0h.52a4.23,4.23,0,0,0,1,.06l.06,2h1v.5h1.8V7.8H30v.73H31.9v.89H30v1.73H29v1h-.06v.06H28v.41h3v-.47h1V10h1V6H32C32,5,32,3.92,32,2.89Z"/><path class="cls-2" d="M28,13.17h-.54v2l1.47,0v-1h.61V12.8H28Z"/><path class="cls-2" d="M26.06,15.23l1.32,0v-2H26.06Z"/><path class="cls-2" d="M45.41,1.85a3.43,3.43,0,0,1-1-.05v-1a5.69,5.69,0,0,1-1,0V2.84h-1v1h1V5h-1v1h-.06V6h-1V6h2V8h1a3.76,3.76,0,0,1,0-1h1c0-.57,0-1.14,0-1.71h0l0-2.37A5.12,5.12,0,0,1,45.41,1.85Z"/><rect class="cls-3" x="35.18" y="2.53" width="2.59" height="0.31"/><path class="cls-2" d="M55.76,6.53H53.43V6h-2.8V3.35H48.56V7.42h7.22Z"/><path class="cls-2" d="M51.61,13.17v-1h-1V10H48.56V14.2a4.3,4.3,0,0,1,.06,1h.32V13.57h4.49v1.61h4.38c0-.67,0-1.34,0-2H51.61Z"/></g></g></svg>