<svg xmlns="http://www.w3.org/2000/svg" viewBox="0 0 214 31"><defs><style>.cls-1{opacity:0.35;}.cls-2{fill:#fff;}.cls-3{opacity:0.45;}.cls-4{fill:red;}.cls-5{fill:none;opacity:0.15;}</style></defs><title>アートボード 128</title><g id="comon"><g id="見出し"><rect x="6.77" y="2.61" width="198.43" height="26.17"/><g class="cls-1"><path class="cls-2" d="M7.73,19.39H9.28v1.14H2.92V19.39H4.48V11.61H2.92V10.47H9.28v1.14H7.73Z"/><path class="cls-2" d="M30,10.47V20.53h-4L18.73,13h-.14v7.53H15.33V10.47h4L26.65,18h.14V10.47Z"/><path class="cls-2" d="M39.82,20.53V11.45H34.3v-1H48.87v1h-5.8v9.08Z"/><path class="cls-2" d="M66,11.3c1.22.44,1.84,1.08,1.84,1.91s-.62,1.37-1.84,1.85a9.63,9.63,0,0,1-2.55.67l5.1,4.8h-3.4l-4.81-4.64h-4v4.64H53.13V10.47H60.2A17.17,17.17,0,0,1,66,11.3Zm-2.55,3.14q1.14-.4,1.14-1.23c0-.52-.43-.93-1.28-1.24a11.25,11.25,0,0,0-3.82-.52H56.38v3.46h4.1A8.57,8.57,0,0,0,63.45,14.44Z"/><path class="cls-2" d="M87.09,15.47A4.32,4.32,0,0,1,84,19.86a14,14,0,0,1-4.67.67,14.52,14.52,0,0,1-4.81-.67,4.32,4.32,0,0,1-3.11-4.39,4.28,4.28,0,0,1,3.11-4.33,14.52,14.52,0,0,1,4.81-.67,14,14,0,0,1,4.67.67A4.28,4.28,0,0,1,87.09,15.47Zm-12.45,0c0,2,.62,3.17,1.84,3.61a8.19,8.19,0,0,0,2.83.47A7.81,7.81,0,0,0,82,19.08c1.22-.44,1.84-1.65,1.84-3.61s-.62-3.11-1.84-3.55a7.81,7.81,0,0,0-2.69-.47,8.19,8.19,0,0,0-2.83.47C75.26,12.36,74.64,13.55,74.64,15.47Z"/><path class="cls-2" d="M102.52,11.4q3.26,1.18,3.26,4.13a4,4,0,0,1-3,4,21.58,21.58,0,0,1-7.22,1h-4.8V10.47h4.8A20.74,20.74,0,0,1,102.52,11.4Zm-6.93,8.15a13.21,13.21,0,0,0,4.53-.72,3.16,3.16,0,0,0,2.12-3.3A3.28,3.28,0,0,0,100,12.12a13,13,0,0,0-4.39-.67H94v8.1Z"/><path class="cls-2" d="M109.61,10.47h3.26v7.38c0,.55.33.94,1,1.18a9.14,9.14,0,0,0,3,.36H117A8.68,8.68,0,0,0,119.8,19c.75-.27,1.13-.67,1.13-1.18V10.47h3.25v7.38c0,.89-.71,1.59-2.12,2.11a16.24,16.24,0,0,1-5.09.57h-.14a16.27,16.27,0,0,1-5.1-.57c-1.41-.52-2.12-1.22-2.12-2.11Z"/><path class="cls-2" d="M140.3,19.81a15.47,15.47,0,0,1-9.33,0q-3.54-1.29-3.54-4c0-2.13,1.28-3.66,3.82-4.59a13.21,13.21,0,0,1,4.53-.72A12.71,12.71,0,0,1,140,11q3,1.08,2.83,2.94h-3.11a2.42,2.42,0,0,0-1.7-2.22,6.9,6.9,0,0,0-2.26-.31,6.54,6.54,0,0,0-2.26.36,3.85,3.85,0,0,0-2.83,3.87,3.3,3.3,0,0,0,2.4,3.35,7.26,7.26,0,0,0,2.55.41A6.8,6.8,0,0,0,138,19a2.46,2.46,0,0,0,1.56-2.37H143A3.91,3.91,0,0,1,140.3,19.81Z"/><path class="cls-2" d="M151.34,20.53V11.45h-5.52v-1h14.57v1h-5.8v9.08Z"/><path class="cls-2" d="M170.66,19.39h1.56v1.14h-6.37V19.39h1.56V11.61h-1.56V10.47h6.37v1.14h-1.56Z"/><path class="cls-2" d="M192.09,15.47A4.31,4.31,0,0,1,189,19.86a13.93,13.93,0,0,1-4.66.67,14.48,14.48,0,0,1-4.81-.67,4.32,4.32,0,0,1-3.12-4.39,4.28,4.28,0,0,1,3.12-4.33,14.48,14.48,0,0,1,4.81-.67,13.93,13.93,0,0,1,4.66.67A4.27,4.27,0,0,1,192.09,15.47Zm-12.44,0c0,2,.61,3.17,1.84,3.61a8.19,8.19,0,0,0,2.83.47,7.75,7.75,0,0,0,2.68-.47c1.23-.44,1.84-1.65,1.84-3.61s-.61-3.11-1.84-3.55a7.75,7.75,0,0,0-2.68-.47,8.19,8.19,0,0,0-2.83.47C180.26,12.36,179.65,13.55,179.65,15.47Z"/><path class="cls-2" d="M211.08,10.47V20.53h-4L199.77,13h-.15v7.53h-3.25V10.47h4L207.69,18h.14V10.47Z"/></g><g class="cls-3"><path class="cls-4" d="M15.2,30.18h-7V26H9.65V5H8.18V.82h7V5H13.73V26H15.2Zm-6-1h5V27H12.73V4H14.2V1.82h-5V4h1.47V27H9.18Z"/><path class="cls-4" d="M34.8,30.18H30.2L24,11.17v19H19.91V.82h4.6l6.22,19V.82H34.8Zm-3.88-1H33.8V1.82H31.73V23.05h-1L23.79,1.82H20.91V29.18H23V8h1Z"/><path class="cls-4" d="M47.11,30.18H43V4.58H37.83V.82H52.59V4.58H47.11Zm-3.07-1h2.07V3.58h5.48V1.82H38.83V3.58H44Z"/><path class="cls-4" d="M71.38,30.18H67.11L62.57,17.09H59.69V30.18H55.61V.82h7.18a7.64,7.64,0,0,1,5.85,2.49h0A8.17,8.17,0,0,1,70.51,9a8.34,8.34,0,0,1-1.86,5.56,7,7,0,0,1-2.16,1.84Zm-3.55-1H70L65.23,15.85l.47-.17A5.31,5.31,0,0,0,67.88,14,7.35,7.35,0,0,0,69.51,9,7.22,7.22,0,0,0,67.9,4h0a6.59,6.59,0,0,0-5.11-2.16H56.61V29.18h2.08V16.09h4.59ZM63.06,14.33H58.69V3.58h3.43a5.18,5.18,0,0,1,4,1.62A5.43,5.43,0,0,1,67.43,9a5.5,5.5,0,0,1-1.2,3.83h0A4.2,4.2,0,0,1,63.06,14.33Zm-3.37-1h3.37a3.21,3.21,0,0,0,2.44-1.15A4.58,4.58,0,0,0,66.43,9a4.47,4.47,0,0,0-1.07-3.16,4.15,4.15,0,0,0-3.24-1.29H59.69Z"/><path class="cls-4" d="M80.85,30.18a6.41,6.41,0,0,1-4.92-2.05c-2.06-2.25-3.07-6.4-3.07-12.7s1-10.31,3.07-12.56A6.42,6.42,0,0,1,80.85.82a6.23,6.23,0,0,1,4.77,2.05c2.07,2.25,3.07,6.36,3.07,12.56s-1,10.45-3.07,12.7A6.23,6.23,0,0,1,80.85,30.18Zm0-28.36a5.35,5.35,0,0,0-4.18,1.73c-1.86,2-2.81,6-2.81,11.88s1,10,2.81,12a5.33,5.33,0,0,0,4.18,1.73,5.18,5.18,0,0,0,4-1.73c1.86-2,2.8-6.07,2.8-12s-.94-9.85-2.8-11.88A5.2,5.2,0,0,0,80.85,1.82Zm0,25.6a4.06,4.06,0,0,1-3-1.47c-1.26-1.37-1.87-4.81-1.87-10.52s.61-9,1.87-10.38a3.75,3.75,0,0,1,5.94,0C85,6.42,85.62,9.82,85.62,15.43S85,24.58,83.75,26A4,4,0,0,1,80.85,27.42Zm0-22.84a3.08,3.08,0,0,0-2.31,1.15c-.73.8-1.6,3.13-1.6,9.7s.87,9,1.6,9.84a3.08,3.08,0,0,0,2.31,1.15A3,3,0,0,0,83,25.27c.73-.8,1.6-3.15,1.6-9.84s-.87-8.9-1.6-9.7A3,3,0,0,0,80.85,4.58Z"/><path class="cls-4" d="M96.23,30.18h-5V.82h5a8.94,8.94,0,0,1,6.91,2.78h0c2.13,2.31,3.21,6.34,3.21,12s-1,9.39-2.94,11.54A9.35,9.35,0,0,1,96.23,30.18Zm-4-1h4a8.28,8.28,0,0,0,6.44-2.75c1.78-1.93,2.68-5.58,2.68-10.86s-1-9.17-2.95-11.3h0a8,8,0,0,0-6.17-2.45h-4Zm4-1.76h-2V3.58h2a6,6,0,0,1,4.51,2.05c1.52,1.67,2.27,4.92,2.27,9.94s-.7,8.09-2.14,9.65A6.17,6.17,0,0,1,96.23,27.42Zm-1-1h1a5.15,5.15,0,0,0,3.9-1.88c1.25-1.35,1.88-4.37,1.88-9s-.68-7.81-2-9.26a4.94,4.94,0,0,0-3.77-1.73h-1Z"/><path class="cls-4" d="M116.42,30.18h-.14c-2.36,0-4.1-.59-5.18-1.76a9,9,0,0,1-2.13-6.3V.82H113v21.3a4.49,4.49,0,0,0,.8,3,3.16,3.16,0,0,0,2.44.85h.14a3,3,0,0,0,2.3-.85,4.34,4.34,0,0,0,.94-3V.82h4.07v21.3a9,9,0,0,1-2.14,6.3C120.52,29.59,118.78,30.18,116.42,30.18ZM110,1.82v20.3a8,8,0,0,0,1.87,5.62c.88,1,2.37,1.44,4.44,1.44h.14c2.07,0,3.56-.48,4.44-1.44a8,8,0,0,0,1.87-5.62V1.82h-2.07v20.3a5.29,5.29,0,0,1-1.2,3.68,3.93,3.93,0,0,1-3,1.18h-.14a4.08,4.08,0,0,1-3.17-1.18A5.26,5.26,0,0,1,112,22.12V1.82Z"/><path class="cls-4" d="M134.05,30.18a6.31,6.31,0,0,1-4.78-2.2c-2.3-2.5-3.47-6.43-3.47-11.68,0-6.11,1.26-10.58,3.74-13.28a6.17,6.17,0,0,1,4.64-2.2,5.67,5.67,0,0,1,4.38,1.76c1.95,2.12,2.9,5,2.8,8.64v.49h-3.91v-.49c-.09-3-.59-5-1.48-5.93a2.25,2.25,0,0,0-1.77-.71,2.3,2.3,0,0,0-1.76.86c-1.69,1.83-2.55,5.39-2.55,10.57,0,4.5.72,7.57,2.14,9.12a2.73,2.73,0,0,0,2,1,2.61,2.61,0,0,0,1.9-1c.56-.6,1.24-2.2,1.34-6.37v-.49h4.23l0,.53c-.28,4.53-1.15,7.53-2.67,9.18A6.31,6.31,0,0,1,134.05,30.18Zm.13-28.36a5.14,5.14,0,0,0-3.9,1.87C128,6.2,126.8,10.45,126.8,16.3c0,5,1.08,8.69,3.21,11a5.3,5.3,0,0,0,8.08,0h0c1.28-1.4,2.08-4.1,2.37-8h-2.18c-.13,3.37-.65,5.51-1.59,6.53a3.42,3.42,0,0,1-5.41,0c-1.62-1.76-2.41-5-2.41-9.79,0-5.52.92-9.19,2.81-11.25a3.33,3.33,0,0,1,2.5-1.18,3.24,3.24,0,0,1,2.51,1c1,1.11,1.58,3.1,1.72,6.09h2a10.63,10.63,0,0,0-2.55-7.45A4.65,4.65,0,0,0,134.18,1.82Z"/><path class="cls-4" d="M152.45,30.18h-4.07V4.58h-5.21V.82h14.76V4.58h-5.48Zm-3.07-1h2.07V3.58h5.48V1.82H144.17V3.58h5.21Z"/><path class="cls-4" d="M169.11,30.18h-7V26h1.46V5H162.1V.82h7V5h-1.47V26h1.47Zm-6-1h5V27h-1.47V4h1.47V1.82h-5V4h1.46V27H163.1Z"/><path class="cls-4" d="M180,30.18a6.38,6.38,0,0,1-4.91-2.05c-2.06-2.25-3.07-6.4-3.07-12.7s1-10.31,3.07-12.56A6.4,6.4,0,0,1,180,.82a6.24,6.24,0,0,1,4.78,2.05c2.07,2.25,3.07,6.36,3.07,12.56s-1,10.45-3.07,12.7A6.24,6.24,0,0,1,180,30.18Zm0-28.36a5.33,5.33,0,0,0-4.17,1.73c-1.86,2-2.81,6-2.81,11.88s.95,10,2.81,12A5.33,5.33,0,0,0,180,29.18a5.17,5.17,0,0,0,4-1.73c1.87-2,2.81-6.07,2.81-12s-.94-9.85-2.81-11.88A5.18,5.18,0,0,0,180,1.82Zm0,25.6A4.1,4.1,0,0,1,177,26c-1.25-1.37-1.87-4.81-1.87-10.52s.62-9,1.87-10.38a3.76,3.76,0,0,1,5.95,0c1.26,1.37,1.87,4.77,1.87,10.38s-.61,9.15-1.87,10.52A4,4,0,0,1,180,27.42Zm0-22.84a3.08,3.08,0,0,0-2.3,1.15c-.73.8-1.61,3.13-1.61,9.7s.88,9,1.61,9.84a3.08,3.08,0,0,0,2.3,1.15,3,3,0,0,0,2.17-1.15c.74-.8,1.61-3.15,1.61-9.84s-.87-8.9-1.61-9.7A3,3,0,0,0,180,4.58Z"/><path class="cls-4" d="M205.82,30.18h-4.61l-6.21-19v19h-4.08V.82h4.61l6.21,19V.82h4.08Zm-3.88-1h2.88V1.82h-2.08V23.05h-1L194.8,1.82h-2.88V29.18H194V8h1Z"/></g><rect class="cls-5" width="214" height="31"/></g></g></svg>