<svg xmlns="http://www.w3.org/2000/svg" viewBox="0 0 217 31"><defs><style>.cls-1{fill:none;opacity:0.15;}.cls-2{fill:red;}</style></defs><title>アートボード 197</title><g id="TOP"><rect class="cls-1" width="217" height="31"/><path class="cls-2" d="M48.34,22.25v1.63H39.58V22.5a37.87,37.87,0,0,1,4.89-7,6,6,0,0,0,1.64-4,3,3,0,0,0-.78-2.23A1.86,1.86,0,0,0,44,8.75a2,2,0,0,0-1.38.69c-.51.52-.77,1.58-.77,3.18H39.92a6.41,6.41,0,0,1,1.46-4.47,4.06,4.06,0,0,1,5.5.09,4.53,4.53,0,0,1,1.2,3.35,8,8,0,0,1-2.32,5.16,40.32,40.32,0,0,0-4.12,5.5Z"/><path class="cls-2" d="M52.74,8.32a3.55,3.55,0,0,1,5.32,0q2.07,2.07,2.07,7.14t-2.07,7.22a3.55,3.55,0,0,1-5.32,0q-2.07-2.07-2.07-7.22T52.74,8.32Zm3.78.95a1.47,1.47,0,0,0-2.24,0Q52.65,11,52.65,15.46q0,4.63,1.63,6.27a1.47,1.47,0,0,0,2.24,0c1.08-1.09,1.63-3.18,1.63-6.27S57.6,10.36,56.52,9.27Z"/><path class="cls-2" d="M65.27,23.88V10.56H62.69v-1c2,0,3.18-.8,3.53-2.41h1V23.88Z"/><path class="cls-2" d="M79.17,16.14a4.13,4.13,0,0,1,1.38,2.93,5,5,0,0,1-1.38,3.69,4.82,4.82,0,0,1-6.18,0,5,5,0,0,1-1.38-3.69A4.13,4.13,0,0,1,73,16.14a3.4,3.4,0,0,1,1.37-.85,3.33,3.33,0,0,1-1.12-.69A3.89,3.89,0,0,1,72,11.76v-.08a4.64,4.64,0,0,1,1.29-3.44,3.94,3.94,0,0,1,5.5,0,4.64,4.64,0,0,1,1.29,3.44v.08a3.89,3.89,0,0,1-1.2,2.84,3.33,3.33,0,0,1-1.12.69A3.47,3.47,0,0,1,79.17,16.14Zm-4.72.61a3.09,3.09,0,0,0-.86,2.32,3.46,3.46,0,0,0,.86,2.57,2.27,2.27,0,0,0,3.26,0,3.5,3.5,0,0,0,.86-2.57,3.13,3.13,0,0,0-.86-2.32,2.27,2.27,0,0,0-3.26,0Zm.17-7.48a3.35,3.35,0,0,0-.69,2.41v.08A3.08,3.08,0,0,0,74.62,14a2.08,2.08,0,0,0,2.92,0,3.08,3.08,0,0,0,.69-2.24v-.08a3.35,3.35,0,0,0-.69-2.41,2.08,2.08,0,0,0-2.92,0Z"/><path class="cls-2" d="M86.77,22v1.89h-2V22Z"/><path class="cls-2" d="M94.09,8.32a3.56,3.56,0,0,1,5.33,0q2.07,2.07,2.07,7.14t-2.07,7.22a3.56,3.56,0,0,1-5.33,0Q92,20.61,92,15.46T94.09,8.32Zm3.79.95a1.47,1.47,0,0,0-2.24,0Q94,11,94,15.46q0,4.63,1.63,6.27a1.47,1.47,0,0,0,2.24,0c1.08-1.09,1.63-3.18,1.63-6.27S99,10.36,97.88,9.27Z"/><path class="cls-2" d="M109.23,23.88V19.93h-5.76V18.29l5.76-11.17h2V18.29H113v1.64h-1.8v3.95Zm0-5.59V10.73l-3.87,7.56Z"/><path class="cls-2" d="M129.73,15.46q0,5.41-1.89,7.3A3.81,3.81,0,0,1,125,23.88a4,4,0,0,1-2.93-1.12q-1.89-1.89-1.89-7.3t1.89-7.22A4,4,0,0,1,125,7.12a3.81,3.81,0,0,1,2.83,1.12Q129.73,10.13,129.73,15.46Zm-7.56,0c0,3.26.37,5.27,1.12,6a2.35,2.35,0,0,0,1.72.78,2.3,2.3,0,0,0,1.63-.78c.74-.74,1.12-2.75,1.12-6s-.38-5.19-1.12-5.93A2.3,2.3,0,0,0,125,8.75a2.35,2.35,0,0,0-1.72.78Q122.17,10.64,122.17,15.46Z"/><path class="cls-2" d="M142.15,7.12V23.88h-2.41l-4.47-12.55h-.08V23.88h-2V7.12h2.41l4.47,12.55h.08V7.12Z"/><path class="cls-2" d="M147.43,23.88h-2.06l4.3-16.76h1.71l4.3,16.76h-2.06l-1.2-4.9h-3.79Zm3.18-12.2h-.17l-1.38,5.67H152Z"/><path class="cls-2" d="M162.47,22h.95v1.89h-3.87V22h.94V9h-.94V7.12h3.87V9h-.95Z"/><path class="cls-2" d="M175.88,8.5A4.3,4.3,0,0,1,177,11.68a4.37,4.37,0,0,1-1.11,3.09,3.89,3.89,0,0,1-1.55,1.12l3.09,8h-2.06l-2.92-7.74H170v7.74h-2V7.12h4.29A4.79,4.79,0,0,1,175.88,8.5Zm-1.55,5.24a2.8,2.8,0,0,0,.69-2.06,2.8,2.8,0,0,0-.78-2.07,3.13,3.13,0,0,0-2.32-.86H170v5.76h2.5A2.5,2.5,0,0,0,174.33,13.74Z"/></g></svg>