<svg xmlns="http://www.w3.org/2000/svg" viewBox="0 0 214 31"><defs><style>.cls-1{fill:none;opacity:0.15;}.cls-2{fill:red;}</style></defs><title>アートボード 148</title><g id="comon"><g id="見出し"><rect class="cls-1" width="214" height="31"/><rect class="cls-2" x="46.61" y="11.27" width="0.07" height="1.2"/><polygon class="cls-2" points="46.68 20.03 44.71 20.03 44.71 21.99 43.76 21.99 43.76 23.88 47.63 23.88 47.63 21.99 46.68 21.99 46.68 20.03"/><rect class="cls-2" x="44.71" y="10.67" width="1.91" height="0.6"/><polygon class="cls-2" points="44.71 14.74 46.68 14.74 46.68 13.39 46.61 13.39 46.61 12.47 44.71 12.47 44.71 14.74"/><rect class="cls-2" x="44.71" y="17.02" width="1.98" height="1.87"/><polygon class="cls-2" points="53.71 7.12 54.67 9.81 51.3 9.81 51.3 11.27 55.19 11.27 53.71 7.12"/><rect class="cls-2" x="51.3" y="18.51" width="1.98" height="0.39"/><rect class="cls-2" x="51.3" y="13.39" width="1.98" height="3.64"/><polygon class="cls-2" points="55.73 12.8 55.73 13.39 55.94 13.39 55.73 12.8"/><rect class="cls-2" x="51.3" y="20.03" width="1.98" height="3.85"/><rect class="cls-2" x="58.26" y="13.39" width="1.98" height="1.74"/><polygon class="cls-2" points="54.1 13.39 55.39 17.02 55.73 17.02 55.73 13.39 54.1 13.39"/><polygon class="cls-2" points="57.57 18.5 57.27 18.5 57.27 18.89 56.06 18.89 55.92 18.5 57.83 23.88 60.24 23.88 60.24 20.49 57.57 20.49 57.57 18.5"/><rect class="cls-2" x="66.83" y="13.49" width="1.33" height="0.63"/><rect class="cls-2" x="66.18" y="13.39" width="0.65" height="0.1"/><rect class="cls-2" x="66.99" y="17.81" width="1.16" height="0.7"/><path class="cls-2" d="M80.73,13.49l0,0a2.78,2.78,0,0,1-.21.27,3,3,0,0,1-.49.39h2.51a4.73,4.73,0,0,0,.31-.64Z"/><path class="cls-2" d="M83.08,12.79l0,.05h0A.09.09,0,0,1,83.08,12.79Z"/><path class="cls-2" d="M83.15,12.36s0,.05,0,.07h0S83.15,12.39,83.15,12.36Z"/><rect class="cls-2" x="74.27" y="13.49" width="1.98" height="0.63"/><polygon class="cls-2" points="79.28 17.8 78.65 16.14 79.54 18.5 81.45 18.5 81.45 20.49 82.32 20.49 83.25 22.88 81.45 22.88 81.45 23.55 81.24 22.99 81.57 23.88 83.64 23.88 81.28 17.8 79.28 17.8"/><rect class="cls-2" x="74.27" y="17.81" width="1.98" height="0.7"/><path class="cls-2" d="M87.4,22.88a4,4,0,0,0,2.78,1A3.81,3.81,0,0,0,93,22.76a.81.81,0,0,1-.14.12Z"/><path class="cls-2" d="M92.36,20.49h1.9a13.27,13.27,0,0,0,.52-2.68H92.85A11,11,0,0,1,92.36,20.49Z"/><path class="cls-2" d="M94.28,20.49h0c-.07.22-.14.45-.22.65C94.12,20.94,94.2,20.72,94.28,20.49Z"/><path class="cls-2" d="M94.89,14.89h0v.17h-2v.06h2c0,.12,0,.22,0,.34C94.9,15.26,94.89,15.08,94.89,14.89Z"/><path class="cls-2" d="M94.86,14.13h-2c0-.14,0-.26,0-.39h0c0,.36,0,.75,0,1.15h2C94.88,14.63,94.88,14.37,94.86,14.13Z"/><path class="cls-2" d="M85.51,12.84h0a1,1,0,0,0,0-.17C85.53,12.73,85.51,12.78,85.51,12.84Z"/><path class="cls-2" d="M87.42,17.81H85.48A13.45,13.45,0,0,0,86,20.49h1.92A10.55,10.55,0,0,1,87.42,17.81Z"/><path class="cls-2" d="M87.37,14c0-.41,0-.8.08-1.16H85.51l-.06.65h2Z"/><path class="cls-2" d="M85.45,13.49c0,.06,0,.12,0,.18s0-.12,0-.18Z"/><path class="cls-2" d="M92,9.78a1.22,1.22,0,0,1,.12.19L92,9.81h0Z"/><path class="cls-2" d="M94,9.84c0-.09-.08-.19-.13-.28C94,9.65,94,9.75,94,9.84Z"/><path class="cls-2" d="M94.54,11.47q-.09-.41-.21-.78c.08.25.14.51.2.78Z"/><path class="cls-2" d="M93.9,9.56a5.91,5.91,0,0,0-.36-.66A5.91,5.91,0,0,1,93.9,9.56Z"/><path class="cls-2" d="M92.45,10.77a10.7,10.7,0,0,1,.36,2.07h2c-.06-.49-.14-.94-.23-1.37h-1.9C92.57,11.22,92.51,11,92.45,10.77Z"/><path class="cls-2" d="M94.22,10.35c-.06-.17-.12-.34-.19-.51C94.1,10,94.16,10.18,94.22,10.35Z"/><path class="cls-2" d="M94.33,10.69a3.38,3.38,0,0,0-.11-.34A3.38,3.38,0,0,1,94.33,10.69Z"/><path class="cls-2" d="M97.15,23.88h2.92c.25,0,.48,0,.72-.06v-.94H97.15Z"/><path class="cls-2" d="M100.79,22.88h1.62V21.39a3.69,3.69,0,0,1-1.62.78Z"/><path class="cls-2" d="M104,13.74h0c0,.28,0,.56.06.86h1v-.86Z"/><path class="cls-2" d="M106.15,13.55c0,.07,0,.13,0,.19h0A1.37,1.37,0,0,0,106.15,13.55Z"/><path class="cls-2" d="M106.07,12.84v0h0Z"/><path class="cls-2" d="M106.23,14.6h0c0,.1,0,.19,0,.29A2.71,2.71,0,0,0,106.23,14.6Z"/><path class="cls-2" d="M106.23,14.89c0,.22,0,.42,0,.65,0-.22,0-.44,0-.65Z"/><path class="cls-2" d="M100.07,7.12H98.29v4.35h.83V8.75h.95a3.64,3.64,0,0,1,2.66,1.12,4.17,4.17,0,0,1,.93,1.76.94.94,0,0,1,0-.16h2.16a6.15,6.15,0,0,0-1.5-2.8A5.69,5.69,0,0,0,100.07,7.12Z"/><path class="cls-2" d="M106.06,12.79v.05h0A.09.09,0,0,1,106.06,12.79Z"/><rect class="cls-2" x="97.15" y="11.47" width="1.14" height="1.36"/><polygon class="cls-2" points="97.15 14.13 97.15 14.89 99.13 14.89 99.13 13.74 98.29 13.74 98.29 14.13 97.15 14.13"/><rect class="cls-2" x="97.15" y="17.81" width="1.75" height="2.68"/><rect class="cls-2" x="115.46" y="7.12" width="1.98" height="2.02"/><path class="cls-2" d="M114.93,23.63a6,6,0,0,1-1.8.24A6,6,0,0,0,114.93,23.63Z"/><rect class="cls-2" x="115.46" y="13.74" width="1.98" height="0.86"/><rect class="cls-2" x="108.59" y="7.12" width="1.98" height="4.35"/><path class="cls-2" d="M113,23.88h0Z"/><path class="cls-2" d="M112.9,23.87Z"/><path class="cls-2" d="M112.87,23.87a5.83,5.83,0,0,1-1.77-.24A5.78,5.78,0,0,0,112.87,23.87Z"/><path class="cls-2" d="M125.94,23.57a3.72,3.72,0,0,1-1.5.3A3.72,3.72,0,0,0,125.94,23.57Z"/><path class="cls-2" d="M124.34,23.87a3.66,3.66,0,0,1-1.48-.3A3.66,3.66,0,0,0,124.34,23.87Z"/><path class="cls-2" d="M124.4,23.88h0Z"/><path class="cls-2" d="M124.36,23.87Z"/><path class="cls-2" d="M120,11.63a.24.24,0,0,0,0-.08c0-.12.07-.26.11-.39C120,11.31,120,11.47,120,11.63Z"/><path class="cls-2" d="M119.71,12.63l-.12.67c0-.15.06-.28.08-.42A2.17,2.17,0,0,0,119.71,12.63Z"/><path class="cls-2" d="M119.59,13.3l0,.33c0-.11,0-.22,0-.33Z"/><path class="cls-2" d="M119.46,14.6c0,.3,0,.62,0,.94,0-.33,0-.63.06-.94Z"/><path class="cls-2" d="M121.49,13.74h-1.95c0,.27,0,.58-.05.86h1.93C121.44,14.3,121.46,14,121.49,13.74Z"/><path class="cls-2" d="M119.43,15.54v0h0Z"/><path class="cls-2" d="M119.77,12.32a1,1,0,0,1,0-.18s0-.07,0-.11S119.79,12.22,119.77,12.32Z"/><path class="cls-2" d="M119.54,13.74h0s0-.07,0-.11A.43.43,0,0,0,119.54,13.74Z"/><path class="cls-2" d="M123.37,9.14h0a1.64,1.64,0,0,0-.25.22A1.32,1.32,0,0,1,123.37,9.14Z"/><path class="cls-2" d="M127.9,9.14a5.36,5.36,0,0,0-.38-.55,5.54,5.54,0,0,1,.33.51l0,0Z"/><path class="cls-2" d="M125.7,9.14l.16.13a5.06,5.06,0,0,1,1,3.16V9.14Z"/><path class="cls-2" d="M121.07,9.14h0c.09-.12.16-.24.25-.35C121.26,8.91,121.16,9,121.07,9.14Z"/><path class="cls-2" d="M122.07,8.42h-.42l-.17.22h.59Z"/><rect class="cls-2" x="133.94" y="10.87" width="1.98" height="0.22"/><rect class="cls-2" x="133.94" y="22.47" width="1.98" height="1.02"/><rect class="cls-2" x="142.76" y="23.49" width="3.87" height="0.39"/><rect class="cls-2" x="143.71" y="9.14" width="1.98" height="1.95"/><path class="cls-2" d="M156.72,15h0c0-.41,0-.79,0-1.15C156.7,14.22,156.72,14.6,156.72,15Z"/><path class="cls-2" d="M158.25,11.09a7.9,7.9,0,0,0-.36-1.13,11.62,11.62,0,0,1,.36,1.13Z"/><path class="cls-2" d="M156.34,11.09a14.11,14.11,0,0,1,.27,1.68c0-.28-.06-.54-.1-.78h1.92c-.06-.31-.11-.62-.18-.9Z"/><path class="cls-2" d="M152.26,9.53A2.37,2.37,0,0,1,154,8.75a2,2,0,0,1,.92.25h2.5a6.59,6.59,0,0,1,.47.92,5,5,0,0,0-1.06-1.68A3.81,3.81,0,0,0,154,7.12a4.07,4.07,0,0,0-2.42.71,4.54,4.54,0,0,1,.53-.3V9.14h-1.7a7.48,7.48,0,0,0-.78,1.95h1.92A3.28,3.28,0,0,1,152.26,9.53Z"/><path class="cls-2" d="M158.36,19.36h0l0,.12A.42.42,0,0,0,158.36,19.36Z"/><path class="cls-2" d="M156.69,17h0a17,17,0,0,1-.24,2.32h1.91a16.49,16.49,0,0,0,.29-2.32Z"/><path class="cls-2" d="M154,23.88a4.9,4.9,0,0,1-1-.1A4.9,4.9,0,0,0,154,23.88Z"/><path class="cls-2" d="M157.67,21.52l.06-.14c0,.05,0,.09-.07.14Z"/><path class="cls-2" d="M152.13,23.49a4.5,4.5,0,0,0,.83.28A4.5,4.5,0,0,1,152.13,23.49Z"/><polygon class="cls-2" points="152.13 23.49 152.13 23.49 152.13 23.49 152.13 23.49"/><path class="cls-2" d="M154,22.25a2.37,2.37,0,0,1-1.72-.78,4,4,0,0,1-.85-2.11h-1.22V17h-1c.16,2.74.77,4.66,1.84,5.72a3.39,3.39,0,0,0,1.07.73h3.2v.17a3.55,3.55,0,0,0,1.48-.9,4.6,4.6,0,0,0,.85-1.24h-2.11A2.25,2.25,0,0,1,154,22.25Z"/><path class="cls-2" d="M149.28,13.07s0-.06,0-.1h0S149.28,13,149.28,13.07Z"/><path class="cls-2" d="M149.61,11.09q-.11.42-.18.9h0Q149.51,11.51,149.61,11.09Z"/><path class="cls-2" d="M151.15,15h0c0,.15,0,.29,0,.45C151.14,15.3,151.15,15.16,151.15,15Z"/><path class="cls-2" d="M151.14,15.55h-.95V17h1C151.16,16.57,151.14,16.08,151.14,15.55Z"/><rect class="cls-2" x="168.26" y="11.09" width="1.98" height="3.92"/><rect class="cls-2" x="161.3" y="7.12" width="1.16" height="1.88"/><polygon class="cls-2" points="164.73 10 163.71 7.12 164.38 9 162.46 9 162.46 10 164.73 10"/><rect class="cls-2" x="170.09" y="21.52" width="0.15" height="2.36"/><rect class="cls-2" x="161.3" y="17.04" width="1.98" height="2.32"/><polygon class="cls-2" points="164.79 10.15 165.12 11.09 161.3 11.09 161.3 11.99 163.28 11.99 163.28 11.33 163.37 11.33 164.36 14.12 163.6 11.99 164.52 11.99 164.52 14.57 164.67 15.01 166.52 15.01 164.79 10.15"/><rect class="cls-2" x="168.26" y="9" width="1.98" height="1"/><rect class="cls-2" x="161.3" y="21.52" width="1.98" height="2.36"/><polygon class="cls-2" points="164.86 15.53 166.15 19.16 165 15.92 164.86 15.53"/><path class="cls-2" d="M87.45,12.83a10.63,10.63,0,0,1,.37-2.07A10.63,10.63,0,0,0,87.45,12.83Z"/><path class="cls-2" d="M88.14,10a1.79,1.79,0,0,1,.32-.45A1.79,1.79,0,0,0,88.14,10Z"/><path class="cls-2" d="M104.45,22.16a5.26,5.26,0,0,1-.83.68A5.88,5.88,0,0,0,104.45,22.16Z"/><path class="cls-2" d="M151.41,19.36c0-.31-.1-.65-.14-1C151.31,18.71,151.36,19.05,151.41,19.36Z"/><path class="cls-2" d="M156.45,19.36a5.5,5.5,0,0,1-.55,1.73A5.5,5.5,0,0,0,156.45,19.36Z"/><polygon class="cls-2" points="44.71 9.81 46.61 9.81 46.61 7.12 43.76 7.12 43.76 9.01 44.71 9.01 44.71 9.81"/><rect class="cls-2" x="46.61" y="9.81" width="0.07" height="0.86"/><rect class="cls-2" x="58.26" y="17.02" width="1.98" height="1.48"/><polygon class="cls-2" points="57.27 17.13 57.76 18.5 57.23 17.02 55.73 17.02 55.73 17.98 55.92 18.5 57.27 18.5 57.27 17.13"/><polygon class="cls-2" points="57.57 18.5 57.76 18.5 57.57 17.97 57.57 18.5"/><rect class="cls-2" x="66.99" y="20.49" width="1.16" height="2.39"/><rect class="cls-2" x="66.18" y="18.51" width="0.81" height="1.98"/><polygon class="cls-2" points="66.83 13.39 68.16 13.39 68.16 8.75 69.86 8.75 69.86 7.12 66.83 7.12 66.83 13.39"/><rect class="cls-2" x="66.99" y="15.06" width="1.16" height="0.06"/><polygon class="cls-2" points="66.18 16.32 66.18 17.8 66.99 17.8 66.99 15.12 66.18 15.12 66.18 16.32"/><path class="cls-2" d="M82.93,13.32l-.06.17h0C82.9,13.44,82.91,13.38,82.93,13.32Z"/><path class="cls-2" d="M83.06,12.84h0v0Z"/><path class="cls-2" d="M80.46,9.61a2.83,2.83,0,0,1,.77,2.07A3.51,3.51,0,0,1,81,13c0-.06.06-.11.08-.18h2c0-.14.06-.27.08-.41a6,6,0,0,0,.07-.75A4.31,4.31,0,0,0,82.09,8.5a4.77,4.77,0,0,0-3.53-1.38H77.27V8.75h.87A3.16,3.16,0,0,1,80.46,9.61Z"/><rect class="cls-2" x="74.27" y="20.49" width="1.98" height="2.39"/><path class="cls-2" d="M82.58,14.13h0a.21.21,0,0,1,0,.06Z"/><path class="cls-2" d="M81.74,15.12h0a4.17,4.17,0,0,1-.54.44A5,5,0,0,0,81.74,15.12Z"/><path class="cls-2" d="M81.8,15.06H74.27v.06h7.46Z"/><polygon class="cls-2" points="81.75 15.12 81.74 15.12 81.74 15.12 81.75 15.12"/><polygon class="cls-2" points="81.45 22.88 81.45 20.49 80.29 20.49 81.24 22.99 81.19 22.88 81.45 22.88"/><path class="cls-2" d="M85.4,14.13h0l0-.46Z"/><path class="cls-2" d="M92.92,14.89v.17h0v-.17Z"/><path class="cls-2" d="M94.8,17.81c0-.13,0-.27,0-.4,0,.14,0,.26,0,.4Z"/><path class="cls-2" d="M92.92,15.08c0,.13,0,.25,0,.38,0-.12,0-.22,0-.34h0Z"/><path class="cls-2" d="M92.84,17.81h0c0-.33,0-.67.05-1C92.89,17.14,92.87,17.48,92.84,17.81Z"/><path class="cls-2" d="M94.82,13.49H92.87c0,.08,0,.17,0,.25h2C94.83,13.66,94.83,13.58,94.82,13.49Z"/><path class="cls-2" d="M94.84,13.74c0,.13,0,.26,0,.39h0Z"/><path class="cls-2" d="M85.47,17.81h0c0-.18,0-.37,0-.55C85.45,17.44,85.46,17.63,85.47,17.81Z"/><path class="cls-2" d="M87.37,16.78c0,.36,0,.7,0,1h0C87.4,17.48,87.38,17.14,87.37,16.78Z"/><path class="cls-2" d="M87.35,15.12v0c0,.13,0,.25,0,.38,0-.49,0-.94,0-1.36v0h-2c0,.24,0,.5,0,.76h2v.17h-2v-.17h0c0,.19,0,.37,0,.57,0-.12,0-.22,0-.34Z"/><path class="cls-2" d="M91.81,9.53a1.64,1.64,0,0,1,.19.25h0l0,0V7.55a4.1,4.1,0,0,0-1.85-.43,5.33,5.33,0,0,0-.82.07V8.92a2.08,2.08,0,0,1,.82-.17A2.3,2.3,0,0,1,91.81,9.53Z"/><rect class="cls-2" x="97.15" y="13.49" width="1.14" height="0.25"/><polygon class="cls-2" points="99.13 15.06 97.15 15.06 97.15 15.12 98.9 15.12 98.9 17.8 99.13 17.8 99.13 15.06"/><rect class="cls-2" x="98.29" y="12.84" width="0.83" height="0.66"/><polygon class="cls-2" points="106.24 14.89 106.24 14.88 106.24 14.89 106.24 14.89"/><path class="cls-2" d="M106.07,12.87v0h-2.13a1.89,1.89,0,0,0-.05-.23c.05.28.1.57.13.88h1.11v.25h1C106.14,13.45,106.11,13.15,106.07,12.87Z"/><path class="cls-2" d="M106.22,14.54v.06h0Z"/><path class="cls-2" d="M105.78,11.47c.11.41.2.85.28,1.32a11.82,11.82,0,0,0-.27-1.32Z"/><path class="cls-2" d="M105.12,14.6v.29h1.11a2.71,2.71,0,0,0,0-.29Z"/><path class="cls-2" d="M106.17,13.74h0c0,.09,0,.17,0,.26A2.28,2.28,0,0,0,106.17,13.74Z"/><path class="cls-2" d="M104.11,15.54a21.63,21.63,0,0,1-.12,2.27h1.13V14.89h-1C104.1,15.1,104.11,15.31,104.11,15.54Z"/><rect class="cls-2" x="115.46" y="11.47" width="1.98" height="1.02"/><rect class="cls-2" x="108.59" y="12.84" width="1.98" height="0.91"/><rect class="cls-2" x="108.59" y="14.6" width="1.98" height="0.29"/><path class="cls-2" d="M114.77,21.39a2.31,2.31,0,0,1-1.71.6H113a2.44,2.44,0,0,1-1.8-.6,2.68,2.68,0,0,1-.61-2V16.64h-.29v6.59a3,3,0,0,0,.65.33h4.19a3,3,0,0,0,1-.63,4.12,4.12,0,0,0,1-1.63h-2.3Z"/><rect class="cls-2" x="115.46" y="14.89" width="1.98" height="1.75"/><path class="cls-2" d="M121.39,15.8c0-.08,0-.16,0-.24h-2c0,.14,0,.27,0,.41a15,15,0,0,0,.14,2.19h2A16.63,16.63,0,0,1,121.39,15.8Z"/><path class="cls-2" d="M119.43,15.56c0,.14,0,.27,0,.41,0-.14,0-.27,0-.41Z"/><path class="cls-2" d="M121.56,22.68c.1.09.2.16.3.24h5.08c.1-.08.2-.15.3-.24a4.57,4.57,0,0,0,.38-.47h-6.47C121.28,22.37,121.42,22.53,121.56,22.68Z"/><path class="cls-2" d="M126.77,18.16h2c0-.24,0-.47.07-.73h-2.06C126.8,17.69,126.79,17.93,126.77,18.16Z"/><path class="cls-2" d="M122.07,9.14h1.29a1.88,1.88,0,0,1,1-.37V8.64h-2.26Z"/><path class="cls-2" d="M121.55,13.3A10,10,0,0,1,122.1,11l0,.07V9.14h-1A8.28,8.28,0,0,0,120,11.55l-.15.59c-.06.24-.1.49-.15.74l-.06.42Z"/><polygon class="cls-2" points="119.59 13.3 119.59 13.3 119.59 13.29 119.59 13.3"/><path class="cls-2" d="M121.46,8.64s-.07.11-.11.15l.13-.15Z"/><path class="cls-2" d="M121.65,8.42h0l.09-.1Z"/><path class="cls-2" d="M122.07,8.42h2.26V7.14a3.77,3.77,0,0,0-2.59,1.18c.1-.1.22-.19.33-.28Z"/><path class="cls-2" d="M126.85,8.64v.5h1l0,0a6.32,6.32,0,0,0-.47-.68h-3v.22Z"/><path class="cls-2" d="M128.05,9.42a2.68,2.68,0,0,0-.18-.28h0A2.68,2.68,0,0,1,128.05,9.42Z"/><polygon class="cls-2" points="133.94 16.32 133.94 17.04 135.92 17.04 135.92 15.41 133.94 15.41 133.94 16.32"/><polygon class="cls-2" points="130.59 8.75 133.94 8.75 133.94 9.14 135.92 9.14 135.92 8.75 139.44 8.75 139.44 7.12 130.59 7.12 130.59 8.75"/><rect class="cls-2" x="143.71" y="11.99" width="1.98" height="5.05"/><path class="cls-2" d="M151.14,15.55v0Z"/><path class="cls-2" d="M149.42,12c0,.31-.09.64-.13,1,0-.34.08-.67.14-1Z"/><path class="cls-2" d="M151.15,15a20.87,20.87,0,0,1,.21-3h-1.93c-.06.31-.1.64-.14,1a23.6,23.6,0,0,0-.13,2.49s0,.06,0,.09h1V15Z"/><path class="cls-2" d="M158.66,13.92c0,.35,0,.72,0,1.09h0C158.68,14.64,158.68,14.27,158.66,13.92Z"/><path class="cls-2" d="M158.69,15c0,.15,0,.29,0,.45,0-.16,0-.3,0-.45Z"/><path class="cls-2" d="M158.44,12h0l.06.29C158.47,12.19,158.46,12.08,158.44,12Z"/><path class="cls-2" d="M156.72,15c0,.15,0,.29,0,.45v.09h2v-.09c0-.16,0-.3,0-.45Z"/><rect class="cls-2" x="168.26" y="7.12" width="1.98" height="1.4"/><rect class="cls-2" x="161.3" y="15.01" width="1.98" height="0.54"/><rect class="cls-2" x="168.26" y="15.55" width="1.98" height="1.49"/><polygon class="cls-2" points="167.24 17.04 166.99 16.33 168.18 19.67 166.71 15.55 164.87 15.55 165 15.92 165.4 17.04 167.24 17.04"/><polygon class="cls-2" points="166.58 20.36 166.22 19.36 166.22 19.36 166.58 20.36"/><polygon class="cls-2" points="168.26 19.67 168.18 19.67 168.07 19.36 166.22 19.36 166.99 21.52 170.09 21.52 170.09 20.56 170.24 20.56 170.24 19.36 168.26 19.36 168.26 19.67"/><polygon class="cls-2" points="166.22 19.36 166.22 19.36 166.15 19.16 166.22 19.36"/></g></g></svg>