<svg xmlns="http://www.w3.org/2000/svg" viewBox="0 0 217 31"><defs><style>.cls-1{fill:none;opacity:0.15;}.cls-2{fill:red;}</style></defs><title>アートボード 199</title><g id="TOP"><rect class="cls-1" width="217" height="31"/><path class="cls-2" d="M48.5,8.24a4.07,4.07,0,0,0-5.5-.1c-.06.07-.1.15-.16.22h5.77Z"/><path class="cls-2" d="M51.43,9.64l2.13,0a3.86,3.86,0,0,0-.58-1l-6.19,0a4.76,4.76,0,0,0-.54,1l2,0a1.91,1.91,0,0,1,.15-.21,2,2,0,0,1,1.37-.7,1.86,1.86,0,0,1,1.38.51A1.91,1.91,0,0,1,51.43,9.64Z"/><path class="cls-2" d="M54.78,13.77a6.42,6.42,0,0,0,.41-1.72h-2a5.09,5.09,0,0,1-.48,1.72Z"/><path class="cls-2" d="M35.55,22.26c.5-.83,1.06-1.67,1.69-2.52H35.13c-.59.92-1.14,1.84-1.64,2.79v1.37l8.77-.08,0-1.63Z"/><path class="cls-2" d="M39,12.05l-1.86,0a5.09,5.09,0,0,0,0,.56l1.89,0C38.94,12.4,39,12.23,39,12.05Z"/><path class="cls-2" d="M50.66,18.88h2.2c.55-.7,1.13-1.41,1.76-2.13a14.44,14.44,0,0,0,1-1.25H53.29A39.54,39.54,0,0,0,50.66,18.88Z"/><path class="cls-2" d="M67,21.25h2.14a6.92,6.92,0,0,0,.39-.91h-2A6.5,6.5,0,0,1,67,21.25Z"/><path class="cls-2" d="M62.19,10.13a5.92,5.92,0,0,0-1.14-1.78A3.69,3.69,0,0,0,58.4,7.12a3.64,3.64,0,0,0-2.68,1.17A5.78,5.78,0,0,0,54.54,10l2.12,0a3.94,3.94,0,0,1,.6-.82,1.52,1.52,0,0,1,1.12-.5,1.54,1.54,0,0,1,1.11.53,3.76,3.76,0,0,1,.6.83Z"/><path class="cls-2" d="M61.38,20.34a7.53,7.53,0,0,0,.38.91H63.9a4.86,4.86,0,0,1-.48-.91Z"/><rect class="cls-2" x="59.54" y="21.22" width="1.48" height="2.66" transform="translate(-0.15 0.41) rotate(-0.39)"/><rect class="cls-2" x="62.56" y="14.12" width="1.02" height="1.48" transform="translate(47.13 77.67) rotate(-89.02)"/><path class="cls-2" d="M69.61,9.07h1V8.34l1.48,0,0-1.22-1,0A2.71,2.71,0,0,1,69.61,9.07Z"/><rect class="cls-2" x="64.8" y="10.06" width="1.48" height="4.03" transform="translate(-0.02 0.14) rotate(-0.12)"/><path class="cls-2" d="M83.13,11.38H85a5.1,5.1,0,0,1,.12-1H83.27A5.46,5.46,0,0,0,83.13,11.38Z"/><polygon class="cls-2" points="75.03 20.59 75.99 20.6 75.04 20.58 75.03 20.59"/><polygon class="cls-2" points="76.71 17.22 76.02 17.22 76.71 17.23 76.71 17.22"/><path class="cls-2" d="M74.8,17.21a3.42,3.42,0,0,1,.23.47,5.21,5.21,0,0,1,.24-.47Z"/><path class="cls-2" d="M76.68,19.07a4.47,4.47,0,0,0,.2,1.53H77a6.73,6.73,0,0,0,.21-1.53,3.54,3.54,0,0,0-.3-1.38A3.54,3.54,0,0,0,76.68,19.07Z"/><polygon class="cls-2" points="75.28 17.2 75.27 17.21 76.02 17.22 75.28 17.2"/><path class="cls-2" d="M77.19,17.24h-.48a5.06,5.06,0,0,1,.24.46A2,2,0,0,1,77.19,17.24Z"/><path class="cls-2" d="M75,17.68a2.78,2.78,0,0,0-.16.4l0,2.33c0,.06,0,.11,0,.17H75a4.63,4.63,0,0,0,.23-1.52A3.7,3.7,0,0,0,75,17.68Z"/><polygon class="cls-2" points="76.88 20.61 76.88 20.6 75.99 20.6 76.88 20.61"/><path class="cls-2" d="M70,10.37a5.59,5.59,0,0,1,.14,1l1.88,0a5.34,5.34,0,0,0-.15-1Z"/><path class="cls-2" d="M85.11,10.09a4.28,4.28,0,0,0-1.06-1.85,3.95,3.95,0,0,0-5.5,0,4.22,4.22,0,0,0-1.06,1.85h1.88a2.16,2.16,0,0,1,.47-.82,2.06,2.06,0,0,1,2.92,0,2,2,0,0,1,.46.82Z"/><path class="cls-2" d="M103.69,9.27a1.53,1.53,0,0,1,1.12-.52,1.55,1.55,0,0,1,1.11.51l.07.08h2.26a5.73,5.73,0,0,0-.78-1,3.57,3.57,0,0,0-5.33,0,5.42,5.42,0,0,0-.77,1h2.26Z"/><path class="cls-2" d="M102.58,15.35h-1.25v1h1.27c0-.3,0-.6,0-.92C102.57,15.41,102.58,15.38,102.58,15.35Z"/><path class="cls-2" d="M107.44,16.39c0-.3,0-.6,0-.92v-.1l-2,0v.1c0,.32,0,.62,0,.92Z"/><path class="cls-2" d="M106.12,22.24l-.22,0h-2.84c.13.16.26.32.39.46a3.57,3.57,0,0,0,5.33,0,4.31,4.31,0,0,0,.39-.46h-2.83Z"/><path class="cls-2" d="M103.41,15.1l1.25,0a13.26,13.26,0,0,1,.54-4l-1.84,0Z"/><path class="cls-2" d="M94.21,11.05a13.12,13.12,0,0,1,.57,4h2a15.06,15.06,0,0,0-.52-4Z"/><rect class="cls-2" x="91.34" y="21.98" width="1.98" height="0.38" transform="translate(-0.09 0.37) rotate(-0.23)"/><rect class="cls-2" x="94.69" y="22.15" width="1.02" height="1.98" transform="translate(70.49 117.95) rotate(-89.06)"/><path class="cls-2" d="M113.28,9.89V7.13h-2l-2.6,5h1.87l.71-1.36v1.36h2v-.7h-.46A8.5,8.5,0,0,1,113.28,9.89Z"/><rect class="cls-2" x="118.77" y="21.81" width="0.91" height="1.98" transform="translate(96.28 141.99) rotate(-89.93)"/><path class="cls-2" d="M135.36,15.45c0-.14,0-.26,0-.39h-.52l.51,1.38C135.35,16.11,135.36,15.79,135.36,15.45Z"/><path class="cls-2" d="M133.36,16.78h.25l-.24-.65C133.37,16.34,133.37,16.57,133.36,16.78Z"/><path class="cls-2" d="M117.19,7.12a3.92,3.92,0,0,0-2.91,1.14,4.85,4.85,0,0,0-1,1.63V11.4h1.45a3.78,3.78,0,0,1,.77-1.85,2.36,2.36,0,0,1,1.71-.79,2.3,2.3,0,0,1,1.65.75,3.91,3.91,0,0,1,.81,1.83l1.91,0A6.44,6.44,0,0,0,120,8.2,3.86,3.86,0,0,0,117.19,7.12Z"/><path class="cls-2" d="M139.45,11.64h-1v1h1.12C139.56,12.3,139.51,12,139.45,11.64Z"/><path class="cls-2" d="M127.8,18.5v0l-1.93,0a5.28,5.28,0,0,1-.94,3,3.74,3.74,0,0,1-.5.41l2.37,0a8.3,8.3,0,0,0,.86-2.5c-.06-.28-.12-.56-.16-.87Z"/><path class="cls-2" d="M114.38,15.06h-2c0,.13,0,.25,0,.39,0,.46,0,.9,0,1.33h2c0-.42,0-.85,0-1.33C114.37,15.32,114.38,15.2,114.38,15.06Z"/><path class="cls-2" d="M123.75,22.72a4,4,0,0,0,2.91,1.15,3.79,3.79,0,0,0,2.85-1.08s0,0,0,0l-5.8-.08Z"/><path class="cls-2" d="M129.08,11.62q-.11.48-.18,1h.65v-1Z"/><path class="cls-2" d="M129.65,19.74a11.43,11.43,0,0,1-.22-1.25H127.8c0,.3-.09.59-.14.87a7.84,7.84,0,0,0,.89,2.5h2.38a3.22,3.22,0,0,1-.52-.41,2.61,2.61,0,0,1-.54-1h-.21Z"/><path class="cls-2" d="M137.54,11.62h.94v-.74l-2,0,.12,8.71h-.09l-1.18-3.19c0,.11,0,.23,0,.34h-1.72L135,20.43l3.62-.05-.1-7.73h-.82C137.63,12.28,137.59,11.93,137.54,11.62Z"/><path class="cls-2" d="M133.38,15.06h1.45L133.31,11l-3.78,0v.61l1.45,0c-.06.3-.11.65-.15,1h-1.29l.1,7.09a4.58,4.58,0,0,0,.22.76l1.76,0-.12-9.11h.09l1.77,4.77c0-.23,0-.44,0-.68Z"/><polygon class="cls-2" points="147.88 13.05 145.92 13.06 144.92 17.09 146.93 17.08 147.88 13.05"/><polygon class="cls-2" points="146.83 7.88 144.73 7.84 143.78 11.31 147.66 11.37 146.83 7.88"/><polygon class="cls-2" points="145.75 17.35 145.49 18.37 152.98 18.38 152.72 17.36 145.75 17.35"/><polygon class="cls-2" points="149.99 13.06 150.97 17.09 152.99 17.08 151.95 13.06 149.99 13.06"/><rect class="cls-2" x="163.04" y="12" width="1.98" height="5.19"/><polygon class="cls-2" points="158.89 21.98 158.86 18.86 156.88 18.87 156.91 21.99 155.97 22 155.97 22.36 159.84 22.32 159.83 21.97 158.89 21.98"/><rect class="cls-2" x="170.75" y="5.48" width="0.59" height="3.87" transform="translate(161.11 178.32) rotate(-89.16)"/><rect class="cls-2" x="177.02" y="22.09" width="1.98" height="1.79"/><path class="cls-2" d="M183,8.52l-.16-.13-7.66-.07v.91l2,0V8.73l1.89,0a3.26,3.26,0,0,1,1.89.53l2.62,0A3.42,3.42,0,0,0,183,8.52Z"/><polygon class="cls-2" points="171.48 22.1 172.16 23.88 174.22 23.87 173.52 22.09 171.48 22.1"/></g></svg>