<svg xmlns="http://www.w3.org/2000/svg" viewBox="0 0 62 16"><defs><style>.cls-1{fill:none;opacity:0.12;}.cls-2,.cls-3{fill:#fff;}.cls-2{fill-rule:evenodd;}</style></defs><title>アートボード 117</title><g id="comon"><g id="共通装飾品"><rect class="cls-1" width="62" height="16"/><path class="cls-2" d="M17.53,14.17V12h-3v2.25a5,5,0,0,1,0,1h2a3.76,3.76,0,0,1,.05-1Z"/><path class="cls-2" d="M2.28,12,.22,12l0,2.24a3.94,3.94,0,0,1,0,1l2,0a5,5,0,0,1,.07-1Z"/><path class="cls-2" d="M11.89.86c0,1.37,0,2.75,0,4.13h-1v.13h2V4.88h1v.24l3,0L17,.82,12.87.8A4.91,4.91,0,0,1,11.89.86Z"/><path class="cls-2" d="M1.05.83l.06,4.32,2.07,0,0-1.28h1c0,.42,0,.85,0,1.27l2,0c0-.74,0-1.47-.07-2.2h-1l0-2.12Z"/><path class="cls-2" d="M19.74,12.1c0,1,0,2.07.05,3.1h3c0-.69,0-1.38.05-2.07h1c0-.38,0-.77,0-1.16H18.76v.13Z"/><polygon class="cls-2" points="7.3 11.07 9.33 11.06 9.33 11.06 7.3 11.07 7.3 11.07"/><polygon class="cls-2" points="21.75 11.08 21.75 11.08 23.79 11.05 23.79 11.05 21.75 11.08"/><rect class="cls-3" x="11.29" y="11.06" width="3.05" transform="translate(-0.17 0.2) rotate(-0.87)"/><rect class="cls-3" x="12.23" y="11.06" width="2.07"/><path class="cls-2" d="M29.78,2.89l3.15-.1a4.89,4.89,0,0,0,1,0v.09l3-.05v0l-1,0V2.06l-8.27.14v.72l-1,0V3l3.05,0Z"/><path class="cls-2" d="M21.63,6.37h-3v.91l3.05,0C21.64,7,21.63,6.67,21.63,6.37Z"/><path class="cls-2" d="M31.38,11h1l0,2.12h1v1l2.12,0v1a4.3,4.3,0,0,1,1,.06l3,0v-1l2.06,0c0-.67.05-1.35.07-2h1l0-2.12h1V9.85l-3,0v1.36h-1v1h-.05v.05h-1v1l-3.15,0v-1h-1V9.78l-3.09,0V10A4.43,4.43,0,0,1,31.38,11Z"/><rect class="cls-3" x="40.49" y="8.09" width="3.05" height="0.05" transform="translate(-0.11 0.57) rotate(-0.77)"/><path class="cls-2" d="M18.47,8.1l-3.06,0v.05h3.06Z"/><rect class="cls-3" x="34.08" y="6.37" width="3.05" height="0.91" transform="translate(-0.06 0.3) rotate(-0.48)"/><path class="cls-2" d="M39.05,12.86h3V10.91A7.49,7.49,0,0,1,42.1,9l3.1.05v2.07h1l0,1.74h3c0-.21,0-.45,0-.65h-1l-.06-2.07h-1a3.44,3.44,0,0,0,0-1.09,4.17,4.17,0,0,1,0-1.08h1a2.91,2.91,0,0,1,0-.3H39.05Z"/><rect class="cls-3" x="41.87" y="13.88" width="0.67" height="1.96" transform="translate(26.8 56.88) rotate(-89.26)"/><path class="cls-2" d="M42.68.82,35.45.75a4.34,4.34,0,0,1-1,.05v.81l9.19.09V.88A4.3,4.3,0,0,1,42.68.82Z"/><path class="cls-2" d="M47,15.19l2,0,0-.68-2,0Z"/><path class="cls-2" d="M53.56,2.54l-10.24,0V3.4l3,0a2,2,0,0,1,.06-.57l4.18,0v.52H53.6V2.83A2,2,0,0,1,53.56,2.54Z"/><path class="cls-2" d="M57.63,12.31v-.1h-1V9h1V8h4.19c0-.55,0-1.11,0-1.66H54.58v6Z"/></g></g></svg>