<svg xmlns="http://www.w3.org/2000/svg" viewBox="0 0 217 31"><defs><style>.cls-1{fill:none;opacity:0.15;}.cls-2{fill:red;}</style></defs><title>アートボード 198</title><g id="TOP"><rect class="cls-1" width="217" height="31"/><rect class="cls-2" x="39.58" y="22.58" width="8.77" height="0.48"/><path class="cls-2" d="M43.62,19.36c.14-.17.29-.35.42-.53l-.12.16H42.39v-.9c-.31.42-.62.84-.91,1.27Z"/><path class="cls-2" d="M42.44,18l.32-.43h0Z"/><path class="cls-2" d="M46,16.45h0c-.08.1-.15.2-.24.3C45.85,16.65,45.92,16.55,46,16.45Z"/><path class="cls-2" d="M42.76,17.59l.28-.36-.29.36Z"/><path class="cls-2" d="M40.36,10a6,6,0,0,0-.18.64h0A6,6,0,0,1,40.36,10Z"/><path class="cls-2" d="M40.11,11c0,.17-.07.34-.09.52,0-.17.06-.33.09-.5Z"/><path class="cls-2" d="M42,10.61c0-.09.06-.15.08-.24h0V9.77H40.55v.84Z"/><path class="cls-2" d="M40.55,9.49c0,.1-.09.18-.13.28h.13Z"/><path class="cls-2" d="M40.55,9.46v0l.12-.27Z"/><path class="cls-2" d="M40.9,8.79a3.82,3.82,0,0,1,.48-.64A3.45,3.45,0,0,0,40.9,8.79Z"/><path class="cls-2" d="M40.67,9.22c.08-.15.15-.3.23-.43A4.34,4.34,0,0,0,40.67,9.22Z"/><path class="cls-2" d="M47.61,13.85a.42.42,0,0,0,0-.1.47.47,0,0,1,0,.1Z"/><path class="cls-2" d="M47.69,13.62a5.69,5.69,0,0,0,.36-1.73h-2a5.53,5.53,0,0,1-.54,1.94c0-.07.08-.14.11-.21Z"/><path class="cls-2" d="M48.08,11.59c0,.1,0,.2,0,.3h0C48.07,11.79,48.08,11.69,48.08,11.59Z"/><path class="cls-2" d="M44.65,15.23l-.18.23.18-.23Z"/><path class="cls-2" d="M59,21.4h0c-.11.2-.23.39-.35.57C58.76,21.79,58.88,21.6,59,21.4Z"/><path class="cls-2" d="M60.11,15.89h-.68V15h-.51v.3h-.78a1.21,1.21,0,0,1,0,.19c0,2.81-.46,4.78-1.35,5.94H59a12.84,12.84,0,0,0,1.14-5.94C60.13,15.61,60.12,15.74,60.11,15.89Z"/><path class="cls-2" d="M59.43,13.77V15h.68a17,17,0,0,0-.23-2.61c.08.44.13.91.17,1.41Z"/><path class="cls-2" d="M60.11,15h0c0,.17,0,.32,0,.49C60.13,15.29,60.12,15.14,60.11,15Z"/><path class="cls-2" d="M59.43,10.63v1.68h.44A10.81,10.81,0,0,0,59.43,10.63Z"/><path class="cls-2" d="M50.67,15.46a12.84,12.84,0,0,0,1.14,5.94H54c.09.11.18.23.28.33q-1.64-1.64-1.63-6.27v-.19h-2C50.68,15.34,50.67,15.39,50.67,15.46Z"/><path class="cls-2" d="M52.16,22c-.12-.18-.24-.37-.35-.57h0C51.92,21.6,52,21.79,52.16,22Z"/><path class="cls-2" d="M50.74,13.88c0,.14,0,.27,0,.42l0-.42Z"/><rect class="cls-2" x="58.92" y="12.31" width="0.5" height="1.46"/><path class="cls-2" d="M50.78,13.38l0,.39h0Z"/><path class="cls-2" d="M52.74,22.68l0,0H56.5v1a4.44,4.44,0,0,1-.52.15,3.9,3.9,0,0,0,2.08-1.14l.13-.15H52.61Z"/><path class="cls-2" d="M58.92,9.48a3.62,3.62,0,0,0-.2-.33c.05.09.1.19.16.28s0,.05,0,.08Z"/><path class="cls-2" d="M58.55,8.91a4.65,4.65,0,0,0-.49-.59,3.55,3.55,0,0,0-5.32,0,4.65,4.65,0,0,0-.49.59h2.52l-.06,0a1.29,1.29,0,0,1,1.38,0l-.07,0Z"/><polygon class="cls-2" points="52.21 8.95 52.21 8.95 52.21 8.95 52.21 8.95"/><polygon class="cls-2" points="58.59 8.95 58.58 8.95 58.59 8.95 58.59 8.95"/><path class="cls-2" d="M54,23.59a4.54,4.54,0,0,1-1.25-.88A4.54,4.54,0,0,0,54,23.59Z"/><path class="cls-2" d="M51.65,9.93a.59.59,0,0,0,0-.08h0A.59.59,0,0,1,51.65,9.93Z"/><rect class="cls-2" x="65.27" y="17.56" width="1.98" height="1.62"/><path class="cls-2" d="M78.46,15.6h0l.17.1Z"/><path class="cls-2" d="M74.45,16.75a2.27,2.27,0,0,1,3.26,0,2.64,2.64,0,0,1,.55.81h.2V15.89H73.31a2.72,2.72,0,0,0-.32.25,5.26,5.26,0,0,0-1,1.42h2A2.64,2.64,0,0,1,74.45,16.75Z"/><path class="cls-2" d="M77.83,13.61a2.67,2.67,0,0,0,.21-.48h0A2.67,2.67,0,0,1,77.83,13.61Z"/><path class="cls-2" d="M78.39,15.57a.18.18,0,0,1,.07,0h0Z"/><path class="cls-2" d="M74.12,13.13h0a2.11,2.11,0,0,0,.21.48A2.11,2.11,0,0,1,74.12,13.13Z"/><polygon class="cls-2" points="72.93 22.69 72.92 22.69 72.92 22.69 72.93 22.69"/><path class="cls-2" d="M79.81,21.94a4.84,4.84,0,0,0,.34-.73h-.34Z"/><path class="cls-2" d="M80.18,21.21c0-.1,0-.21.08-.31,0,.11-.07.2-.11.31Z"/><path class="cls-2" d="M79.81,19.19v1.29h.57a6.5,6.5,0,0,0,.16-1.29Z"/><path class="cls-2" d="M74.11,21.21h0a2.38,2.38,0,0,0,.34.43A2.38,2.38,0,0,1,74.11,21.21Z"/><path class="cls-2" d="M80.38,20.48h0c0,.15-.08.28-.12.42C80.3,20.76,80.35,20.63,80.38,20.48Z"/><path class="cls-2" d="M73.27,23a4.32,4.32,0,0,0,2.81.89,4.14,4.14,0,0,0,3.09-1.12,3.11,3.11,0,0,1-.28.23Z"/><rect class="cls-2" x="84.79" y="21.99" width="1.98" height="1"/><path class="cls-2" d="M100.44,21.21h0l0,.06Z"/><path class="cls-2" d="M98.3,21.21h2.13a5.34,5.34,0,0,0,.31-.73h-2A4.59,4.59,0,0,1,98.3,21.21Z"/><path class="cls-2" d="M100.75,20.48a.56.56,0,0,0,0-.12l-.05.12Z"/><path class="cls-2" d="M101.35,13.07v.06h0S101.35,13.09,101.35,13.07Z"/><path class="cls-2" d="M92.16,13.13h0a.13.13,0,0,0,0-.06S92.16,13.11,92.16,13.13Z"/><path class="cls-2" d="M99.06,23l-.1.06a2.11,2.11,0,0,1-.23.19,4.46,4.46,0,0,0,.69-.56A3.68,3.68,0,0,1,99,23Z"/><path class="cls-2" d="M93.08,21.21h0c0-.1-.11-.18-.15-.28C93,21,93,21.12,93.08,21.21Z"/><path class="cls-2" d="M98,21.59a1.71,1.71,0,0,1-.11.14,1.47,1.47,0,0,1-2.24,0,3.67,3.67,0,0,1-.42-.52H93.11a5.55,5.55,0,0,0,1,1.47l.37.31H98v-1.4Z"/><path class="cls-2" d="M98.71,23.26l-.12.06,0,0Z"/><path class="cls-2" d="M94.38,19.18h-2a10.34,10.34,0,0,0,.39,1.29h2A7.6,7.6,0,0,1,94.38,19.18Z"/><path class="cls-2" d="M92.77,20.48a3.57,3.57,0,0,0,.19.45,3.52,3.52,0,0,1-.18-.45Z"/><rect class="cls-2" x="109.58" y="22.86" width="1.63" height="0.13"/><rect class="cls-2" x="109.23" y="20.48" width="1.98" height="0.72"/><polygon class="cls-2" points="106.13 13.13 108 13.13 106.69 15.69 106.65 15.77 109.23 10.73 109.23 13.13 111.21 13.13 111.21 7.12 109.23 7.12 106.13 13.13"/><path class="cls-2" d="M121.5,22l0,.07v0Z"/><path class="cls-2" d="M129.7,14.19a.49.49,0,0,0,0,.12c0-.19,0-.37,0-.55l0-.47c0-.09,0-.17,0-.26h-1.94c0,.34,0,.71.07,1.1v0c0,.05,0,.1,0,.15s0-.08,0-.13q0,.59,0,1.26c0,.27,0,.53,0,.78h2c0,.16,0,.32,0,.47,0-.15,0-.31,0-.47s0-.51,0-.78,0-.78,0-1.15A.49.49,0,0,1,129.7,14.19Z"/><path class="cls-2" d="M126.09,23.74h0l-.46.1Z"/><path class="cls-2" d="M128.77,21.36v0a.59.59,0,0,1,0,.08A.54.54,0,0,0,128.77,21.36Z"/><path class="cls-2" d="M127,20.85c0,.07-.07.13-.1.2l0,0Z"/><path class="cls-2" d="M129,20.93l-.06.13h0Z"/><path class="cls-2" d="M126.92,9.91a4.33,4.33,0,0,1,.45,1.17A4.33,4.33,0,0,0,126.92,9.91Z"/><path class="cls-2" d="M122.45,11.59a5,5,0,0,1,.56-1.7A5,5,0,0,0,122.45,11.59Z"/><rect class="cls-2" x="140.17" y="13.03" width="1.98" height="4.07"/><polygon class="cls-2" points="133.21 16.24 133.21 17.1 135.19 17.1 135.19 13.03 134.89 13.03 134.89 16.24 133.21 16.24"/><polygon class="cls-2" points="139.17 17.1 139.74 18.69 137.72 13.03 135.88 13.03 137.89 18.69 137.33 17.1 139.17 17.1"/><rect class="cls-2" x="133.21" y="7.12" width="1.68" height="4.46"/><polygon class="cls-2" points="145.37 23.88 145.5 23.35 145.5 23.88 147.43 23.88 148.5 19.54 146.48 19.54 145.37 23.88"/><polygon class="cls-2" points="152.54 11.64 148.51 11.64 148.01 13.59 149.97 13.59 150.44 11.68 150.61 11.68 151.08 13.59 153.04 13.59 152.54 11.64"/><polygon class="cls-2" points="152.55 19.54 153.62 23.88 155.68 23.88 154.57 19.54 152.55 19.54"/><rect class="cls-2" x="160.49" y="11.64" width="1.98" height="1.95"/><rect class="cls-2" x="159.55" y="21.99" width="0.48" height="1.89"/><rect class="cls-2" x="160.49" y="19.54" width="1.98" height="2.1"/><path class="cls-2" d="M176.9,12.5c0-.13,0-.26.06-.39h-1.68v.39Z"/><path class="cls-2" d="M174.33,15.89a4.18,4.18,0,0,0,2.27-2.3h-2.15l-.12.15a2.5,2.5,0,0,1-1.8.77H170v-.92h-2V16.2h2v-.06h2.41l.08.22h2Z"/><path class="cls-2" d="M176.68,13.41a1,1,0,0,1-.08.18h0Z"/><rect class="cls-2" x="168.06" y="10.51" width="1.98" height="0.99"/><path class="cls-2" d="M174.92,12.53a3.07,3.07,0,0,0,.07-.42h0A3.07,3.07,0,0,1,174.92,12.53Z"/><rect class="cls-2" x="168.06" y="16.36" width="1.98" height="1.15"/><rect class="cls-2" x="168.06" y="19.54" width="1.98" height="2.1"/><polygon class="cls-2" points="177.42 23.88 176.56 21.64 174.51 21.64 175.36 23.88 174.6 21.86 176.64 21.86 177.42 23.88"/><polygon class="cls-2" points="175.53 18.99 174.96 17.51 172.95 17.51 173.72 19.54 175.74 19.54 176.56 21.64 176.56 21.64 175.53 18.99"/><path class="cls-2" d="M174.73,10.32a1.11,1.11,0,0,1,.09.19h.46V8.09h-.55Z"/><path class="cls-2" d="M175.38,8.09a.87.87,0,0,1-.1-.08v.08Z"/><path class="cls-2" d="M175.38,8.09h0a3.74,3.74,0,0,1,.5.41A4.72,4.72,0,0,0,175.38,8.09Z"/><path class="cls-2" d="M176.91,10.71v.07l0,.15Z"/><path class="cls-2" d="M176.88,10.51h0v0Z"/><path class="cls-2" d="M57.88,12.27a14.44,14.44,0,0,1,.2,1.61h0a14.06,14.06,0,0,0-.19-1.57Z"/><path class="cls-2" d="M52.67,14.85h0c0,.14,0,.28,0,.42C52.65,15.13,52.66,15,52.67,14.85Z"/><path class="cls-2" d="M52.72,13.88h0a12.35,12.35,0,0,1,.21-1.61v0A14.06,14.06,0,0,0,52.72,13.88Z"/><path class="cls-2" d="M98.7,20.48a8.5,8.5,0,0,0,.6-2.12A8.5,8.5,0,0,1,98.7,20.48Z"/><path class="cls-2" d="M94.38,19.18a14.33,14.33,0,0,1-.28-1.68A14,14,0,0,0,94.38,19.18Z"/><path class="cls-2" d="M122.52,19.7h0c0,.1,0,.21.07.31h0A3,3,0,0,1,122.52,19.7Z"/><path class="cls-2" d="M47.7,13.62h0a.65.65,0,0,1,0,.13A.69.69,0,0,0,47.7,13.62Z"/><path class="cls-2" d="M46,16.45a9.69,9.69,0,0,0,1.6-2.6H45.53v0a7.44,7.44,0,0,1-.89,1.4v1.22Z"/><path class="cls-2" d="M42.39,18.09l0-.07,0,.06Z"/><path class="cls-2" d="M42.76,17.59h1.89V16.45h-1l-.42.51-.49.63Z"/><path class="cls-2" d="M43.65,16.45h0c.26-.33.52-.67.8-1Z"/><path class="cls-2" d="M43.65,16.45l-.61.78.21-.27Z"/><path class="cls-2" d="M41.81,12.62c0-.27,0-.49,0-.73H40.55v.73Z"/><path class="cls-2" d="M40.55,11.89V10.61h-.37v0h0v0h0c0,.11,0,.23-.06.34,0,.29-.1.58-.13.9,0-.13,0-.27,0-.4a9.89,9.89,0,0,0-.1,1.13c0-.26,0-.49.06-.73Z"/><path class="cls-2" d="M40.41,9.77c0,.06,0,.13,0,.2l.06-.2Z"/><path class="cls-2" d="M46.07,11.89h0c0-.13,0-.26,0-.39C46.11,11.63,46.08,11.76,46.07,11.89Z"/><path class="cls-2" d="M59.87,12.31h0v0S59.87,12.33,59.87,12.31Z"/><path class="cls-2" d="M50.74,13.77v0Z"/><path class="cls-2" d="M50.75,13.77a.45.45,0,0,0,0,.11c0,.33,0,.66-.05,1,0-.2,0-.4,0-.59,0,.2,0,.41,0,.61V15h0c0,.1,0,.2,0,.3h0c0-.1,0-.2,0-.3h2s0-.07,0-.12c0-.33,0-.66,0-1v-.11Z"/><path class="cls-2" d="M52.24,8.91l0,0s0,0,0,0Z"/><path class="cls-2" d="M54.7,9H52.21c-.11.16-.22.33-.32.51.1-.18.21-.35.32-.51a4.52,4.52,0,0,0-.32.52h0c-.07.12-.13.25-.2.38a9,9,0,0,0-.76,2.46h2v0c0-.24.1-.46.16-.67a5.65,5.65,0,0,0-.15.65,6,6,0,0,1,1.35-3A1.78,1.78,0,0,1,54.71,9Z"/><path class="cls-2" d="M58.56,8.91h0l0,0Z"/><path class="cls-2" d="M59.1,9.84a2.68,2.68,0,0,0-.18-.33h0A2.68,2.68,0,0,1,59.1,9.84Z"/><path class="cls-2" d="M59.4,10.54l0,.09v0Z"/><path class="cls-2" d="M57.89,12.3h1V9.51s0,0,0-.08-.19-.33-.29-.48h-2.5a2,2,0,0,1,.43.32,5.71,5.71,0,0,1,1.36,3c-.05-.24-.1-.48-.16-.7C57.78,11.8,57.84,12.05,57.89,12.3Z"/><path class="cls-2" d="M58.08,13.77v.1c0,.31,0,.64.05,1,0,.14,0,.27,0,.42,0-.14,0-.28,0-.42,0,.05,0,.08,0,.12h.78v-1.2Z"/><path class="cls-2" d="M62.69,9.53v1h2.58v1.75h2V8.91H65.1A4.15,4.15,0,0,1,62.69,9.53Z"/><rect class="cls-2" x="65.27" y="21.4" width="1.98" height="1.13"/><rect class="cls-2" x="65.27" y="13.77" width="1.98" height="2.12"/><path class="cls-2" d="M72.29,13.13h1.83a4.53,4.53,0,0,1-.19-1.37v-.08a3.35,3.35,0,0,1,.69-2.41,2.08,2.08,0,0,1,2.92,0,3.35,3.35,0,0,1,.69,2.41v.08A4.53,4.53,0,0,1,78,13.13h.42V7.94A2.63,2.63,0,0,0,78,7.61h0a3.75,3.75,0,0,0-1.89-.49,3.71,3.71,0,0,0-2.75,1.12A4.64,4.64,0,0,0,72,11.68v.08a3.46,3.46,0,0,0,.13.92A3.31,3.31,0,0,0,72.29,13.13Z"/><path class="cls-2" d="M72.19,12.81s0-.09,0-.13a1.66,1.66,0,0,1-.06-.21A3.38,3.38,0,0,0,72.19,12.81Z"/><path class="cls-2" d="M78.46,15.62v.27h.39A2.7,2.7,0,0,0,78.46,15.62Z"/><path class="cls-2" d="M78.92,14.6a4.74,4.74,0,0,0,.57-.72,3.63,3.63,0,0,0,.28-.51,3.63,3.63,0,0,1-.28.51,3.46,3.46,0,0,0,.36-.72,1.8,1.8,0,0,1-.08.21l.08-.21,0,0h0v0h-1.4V15A3.27,3.27,0,0,0,78.92,14.6Z"/><path class="cls-2" d="M79.88,13.09l0,0h0Z"/><path class="cls-2" d="M72.93,21.21H72c.07.16.15.32.23.47v0a4.84,4.84,0,0,0,.71,1,4.29,4.29,0,0,1-.55-.72,4.29,4.29,0,0,0,.55.72h0Z"/><path class="cls-2" d="M78.38,20.48h0a2.86,2.86,0,0,1-.33.73h1.76v-.73Z"/><path class="cls-2" d="M78.29,17.62a3.64,3.64,0,0,1,.28,1.45s0,.07,0,.12h1.25V17.62Z"/><path class="cls-2" d="M73.6,19.19a4.26,4.26,0,0,0,0,.63,5.78,5.78,0,0,1,0-.75,3.64,3.64,0,0,1,.28-1.45H71.93a4.83,4.83,0,0,0-.24.7,3.72,3.72,0,0,0-.08.74s0,.07,0,.12Z"/><path class="cls-2" d="M73.78,20.48h-.85v.73h1.18A2.86,2.86,0,0,1,73.78,20.48Z"/><polygon class="cls-2" points="71.93 17.62 71.93 17.63 71.93 17.62 71.93 17.62"/><path class="cls-2" d="M79.81,22h0l0,0Z"/><path class="cls-2" d="M72,21.21a3.81,3.81,0,0,0,.23.45,4.66,4.66,0,0,1-.22-.45Z"/><path class="cls-2" d="M71.94,21.1s0,.07,0,.11h0A.54.54,0,0,0,71.94,21.1Z"/><path class="cls-2" d="M80.21,17.57h-.4v.05h.42Z"/><path class="cls-2" d="M94.11,17.57h-2v.05h2Z"/><path class="cls-2" d="M94,15.34a21.53,21.53,0,0,1,.14-2.25v0h-2A18.89,18.89,0,0,0,92,15.34Z"/><path class="cls-2" d="M93.47,9.11a5.55,5.55,0,0,1,.62-.79A5.55,5.55,0,0,0,93.47,9.11Z"/><path class="cls-2" d="M99.37,13.13h0v0a21.16,21.16,0,0,1,.14,2.24h2a18.79,18.79,0,0,0-.13-2.21Z"/><path class="cls-2" d="M99.4,17.62h2v-.05h-2Z"/><path class="cls-2" d="M97.9,23.67l.09,0h0Z"/><path class="cls-2" d="M98,23.63h0Z"/><path class="cls-2" d="M98,23.61h0Z"/><path class="cls-2" d="M98,23v.64h0a5.21,5.21,0,0,0,.57-.3,3.18,3.18,0,0,0,.37-.27L99,23Z"/><rect class="cls-2" x="109.23" y="22.99" width="0.34" height="0.89"/><polygon class="cls-2" points="105 15.34 104.85 15.62 104.85 16.24 106.41 16.24 106.69 15.69 106.88 15.34 105 15.34"/><rect class="cls-2" x="111.71" y="18.29" width="1.3" height="1.63"/><rect class="cls-2" x="109.23" y="17.57" width="1.98" height="0.06"/><rect class="cls-2" x="109.23" y="15.34" width="1.98" height="0.91"/><polygon class="cls-2" points="103.85 17.57 103.82 17.62 105.71 17.62 105.72 17.59 105.72 17.6 106.41 16.24 106.41 16.24 105.74 17.57 103.85 17.57"/><path class="cls-2" d="M122.54,19.79a.19.19,0,0,1,0-.08l-.06-.23C122.49,19.59,122.51,19.69,122.54,19.79Z"/><path class="cls-2" d="M122.57,20c0,.06,0,.13.05.18s0-.08,0-.12S122.58,20,122.57,20Z"/><path class="cls-2" d="M122.4,19.1a19.78,19.78,0,0,1-.19-2c0,.11,0,.22,0,.32,0-.1,0-.21,0-.32h-2v0h0c0,.07,0,.13,0,.19s0-.12,0-.19c0,.11,0,.2,0,.3s0-.07,0-.11a.41.41,0,0,1,0,.11c0,.4.08.78.13,1.14,0,.05,0,.11,0,.15s0-.1,0-.15a.77.77,0,0,0,0,.15h1.92C122.36,18.84,122.38,19,122.4,19.1Z"/><path class="cls-2" d="M122.34,18.69q.06.42.12.78s0-.07,0-.11h0c0-.09,0-.18,0-.27v0C122.38,19,122.36,18.84,122.34,18.69Z"/><path class="cls-2" d="M122.59,20s0,.09,0,.12a.66.66,0,0,0,0,.15A2.76,2.76,0,0,1,122.59,20Z"/><path class="cls-2" d="M126.88,21.16h0l0-.1Z"/><path class="cls-2" d="M121.32,21.71l.18.3s0,0,0,0S121.37,21.8,121.32,21.71Z"/><path class="cls-2" d="M128.14,22.42l.11-.14-.07.08A.21.21,0,0,0,128.14,22.42Z"/><path class="cls-2" d="M127.66,13.07v0c0-.51-.1-1-.17-1.39C127.56,12.06,127.62,12.54,127.66,13.07Z"/><polygon class="cls-2" points="140.17 19.67 140.09 19.67 139.74 18.69 137.89 18.69 138.66 20.85 142.15 20.85 142.15 18.69 140.17 18.69 140.17 19.67"/><polygon class="cls-2" points="139.74 23.88 138.92 21.57 139.38 22.86 142.15 22.86 142.15 21.14 138.77 21.14 139.74 23.88"/><rect class="cls-2" x="133.21" y="18.69" width="1.98" height="2.15"/><rect class="cls-2" x="133.21" y="21.15" width="1.98" height="1.71"/><rect class="cls-2" x="140.17" y="11.59" width="1.98" height="0.05"/><rect class="cls-2" x="133.21" y="11.64" width="1.68" height="1.39"/><polygon class="cls-2" points="135.62 7.12 137.21 11.59 135.36 11.59 135.38 11.64 137.23 11.64 135.62 7.12"/><rect class="cls-2" x="134.89" y="11.59" width="0.3" height="0.05"/><polygon class="cls-2" points="147.16 16.91 149.17 16.91 149.34 16.2 147.34 16.2 147.16 16.91"/><polygon class="cls-2" points="153.71 16.2 151.71 16.2 151.88 16.91 153.89 16.91 153.71 16.2"/><rect class="cls-2" x="160.49" y="16.2" width="1.98" height="0.16"/><polygon class="cls-2" points="159.55 9.01 160.49 9.01 160.49 10.51 162.47 10.51 162.47 9.01 163.42 9.01 163.42 8.09 159.55 8.09 159.55 9.01"/><path class="cls-2" d="M129.37,11.59h-1.89a.11.11,0,0,0,0,.05h1.89Z"/><path class="cls-2" d="M129.63,17.7c0-.16,0-.33,0-.49h0C129.66,17.37,129.65,17.54,129.63,17.7Z"/><path class="cls-2" d="M129.67,13.73v0c0,.14,0,.28,0,.43Z"/><path class="cls-2" d="M129.62,13a2.11,2.11,0,0,0,0,.25h0A2.46,2.46,0,0,1,129.62,13Z"/><path class="cls-2" d="M129.51,18.69h0s0,.06,0,.09a.64.64,0,0,0,0-.07Z"/><path class="cls-2" d="M129.55,12.58c0,.14,0,.3,0,.45h0C129.6,12.87,129.57,12.73,129.55,12.58Z"/><path class="cls-2" d="M128.6,21.71l.12-.24,0,.06Z"/><path class="cls-2" d="M122.2,16.87a1.69,1.69,0,0,0,0,.23h0C122.21,17,122.2,17,122.2,16.87Z"/><path class="cls-2" d="M122.26,13h0c0-.54.11-1,.19-1.44h-1.9c0,.2-.09.39-.13.62s-.08.53-.11.82Z"/><path class="cls-2" d="M120.21,16.24c0,.29,0,.57,0,.84,0-.27,0-.56,0-.84Z"/><path class="cls-2" d="M129,20.85c0-.07,0-.14.07-.21l-.08.21Z"/><path class="cls-2" d="M127.08,20.77l0,.08h0Z"/><path class="cls-2" d="M122.18,16.24v.26c0-.34,0-.68,0-1,0,.27,0,.53,0,.78Z"/><path class="cls-2" d="M129.51,18.69Z"/><path class="cls-2" d="M129.47,18.92a1.43,1.43,0,0,0,0-.22h0A1.55,1.55,0,0,1,129.47,18.92Z"/><path class="cls-2" d="M120.54,11.59c-.05.2-.08.4-.12.62,0-.23.09-.42.13-.62Z"/><path class="cls-2" d="M120.75,10.75c-.08.27-.14.55-.2.84h0C120.61,11.3,120.68,11,120.75,10.75Z"/><path class="cls-2" d="M120.75,10.75c.08-.28.17-.57.27-.82A7.89,7.89,0,0,0,120.75,10.75Z"/><path class="cls-2" d="M121.68,22.28a1.37,1.37,0,0,1-.13-.2h0Z"/><path class="cls-2" d="M127.72,16.88a1.55,1.55,0,0,1,0,.22h0Z"/><path class="cls-2" d="M129.17,10.76c.08.26.14.54.2.83h0C129.31,11.3,129.25,11,129.17,10.76Z"/><path class="cls-2" d="M129.17,10.76a7.36,7.36,0,0,0-.27-.83A8.09,8.09,0,0,1,129.17,10.76Z"/><path class="cls-2" d="M128.25,22.28l.12-.19h0Z"/><path class="cls-2" d="M128.37,22.08a3.33,3.33,0,0,1-.53.68,4.47,4.47,0,0,0,.34-.4l.19-.27h0l0,0Z"/><path class="cls-2" d="M127.76,15.46c0,.36,0,.7,0,1a2.26,2.26,0,0,1,0-.26h0C127.75,16,127.76,15.73,127.76,15.46Z"/><path class="cls-2" d="M120.41,18.69c.06.37.13.73.2,1.06q-.1-.46-.18-1a.17.17,0,0,1,0-.07Z"/><path class="cls-2" d="M120.78,20.36c0-.1-.06-.2-.08-.3a8.19,8.19,0,0,0,.36,1.09,8.19,8.19,0,0,1-.36-1.09.25.25,0,0,1,0-.07c-.1-.38-.18-.79-.25-1.23.07.44.15.85.25,1.23a1,1,0,0,1-.05-.18,1,1,0,0,0,.05.18h0C120.71,20.12,120.74,20.24,120.78,20.36Z"/><path class="cls-2" d="M123.44,23.62a3.77,3.77,0,0,1-1.24-.76A3.77,3.77,0,0,0,123.44,23.62Z"/><path class="cls-2" d="M126.09,21.91a2,2,0,0,1-1.08.34,2.35,2.35,0,0,1-1.72-.78,1.28,1.28,0,0,1-.24-.31h-2l0-.09.15.33a2.56,2.56,0,0,1-.11-.24,5.87,5.87,0,0,0,.43.83.56.56,0,0,0,.05.08v0a3.72,3.72,0,0,0,.53.68l.12.1h3.89v-.95Z"/><path class="cls-2" d="M127.72,17.1c0,.11,0,.22,0,.32,0-.1,0-.21,0-.32,0,.43,0,.82-.08,1.19v0c0,.36-.08.69-.13,1l-.06.27a2.47,2.47,0,0,1-.06.29l.06-.26a1.62,1.62,0,0,0,0,.19c0-.15.07-.3.1-.46v0h0c0-.14.05-.29.07-.44,0,.15,0,.3-.07.44,0-.19.06-.38.09-.59h1.93c0-.12,0-.24.05-.36,0,.12,0,.24-.05.36h0c0-.27.08-.56.11-.86a1.36,1.36,0,0,0,0,.2c0-.26.05-.54.07-.82h0a.41.41,0,0,1,0-.11h0c0-.13,0-.26,0-.39,0,.13,0,.26,0,.39Z"/><path class="cls-2" d="M129.49,18.78c-.05.36-.12.7-.19,1,0-.13.06-.28.08-.42,0,.12,0,.25-.07.37.06-.26.11-.53.16-.81v0h0A.77.77,0,0,0,129.49,18.78Z"/><path class="cls-2" d="M126.09,22.86v.87a3.54,3.54,0,0,0,1.75-1,1.09,1.09,0,0,0-.11.1Z"/><path class="cls-2" d="M127,21a.83.83,0,0,1-.07.13h2a5,5,0,0,1-.43.83,4.83,4.83,0,0,0,.26-.45s0-.09.07-.14.1-.22.14-.33l.08-.21h-1.93Z"/><path class="cls-2" d="M129.38,11.64l.09.4h0l0,.13,0-.13.06.36,0-.2h0c0-.15-.05-.29-.08-.43s0-.09,0-.13h0a.11.11,0,0,1,0-.05h0v.05Z"/><path class="cls-2" d="M122.17,15.46v-.12h-2s0,.08,0,.12c0,.28,0,.52,0,.78h2C122.17,16,122.17,15.73,122.17,15.46Z"/><path class="cls-2" d="M124,7.22a4.81,4.81,0,0,0-.65.18v2A2.68,2.68,0,0,1,124,9Z"/><rect class="cls-2" x="168.06" y="21.86" width="1.98" height="2.01"/><path class="cls-2" d="M174.73,7.68a6.16,6.16,0,0,1,.55.33h0a4.93,4.93,0,0,0-2.93-.88h-4.29v1h6.67Z"/><path class="cls-2" d="M177,11.5a5.49,5.49,0,0,0-.07-.72,2.56,2.56,0,0,0,0-.27h-1.58v1Z"/><path class="cls-2" d="M176.84,10.39a.5.5,0,0,1,0,.12h0A.53.53,0,0,0,176.84,10.39Z"/><path class="cls-2" d="M176.93,12.5h0a2.23,2.23,0,0,1-.05.36C176.88,12.74,176.91,12.62,176.93,12.5Z"/><path class="cls-2" d="M174.44,13.59h0a2.36,2.36,0,0,0,.23-.35A1.8,1.8,0,0,1,174.44,13.59Z"/><path class="cls-2" d="M175,11.68c0,.15,0,.29,0,.43h.29V11.5H175A1,1,0,0,1,175,11.68Z"/></g></svg>