<svg xmlns="http://www.w3.org/2000/svg" viewBox="0 0 217 31"><defs><style>.cls-1{opacity:0.35;}.cls-2{fill:#fff;}.cls-3{opacity:0.45;}.cls-4{fill:red;}.cls-5{fill:none;opacity:0.15;}</style></defs><title>アートボード 135</title><g id="TOP"><rect x="9.07" y="2.41" width="198.43" height="26.17"/><g class="cls-1"><path class="cls-2" d="M14.46,18.43v.71H.76v-.6a48,48,0,0,1,7.66-3.08c1.7-.55,2.55-1.13,2.55-1.73,0-.43-.4-.76-1.21-1a8.23,8.23,0,0,0-2.15-.23,8,8,0,0,0-2.15.3,1.41,1.41,0,0,0-1.21,1.4H1.3c.09-.91.85-1.56,2.28-2a16.58,16.58,0,0,1,4.3-.45,16.05,16.05,0,0,1,4.3.49c1.25.35,1.88.84,1.88,1.46S12.85,15.24,10.43,16A58.46,58.46,0,0,0,4,18.43Z"/><path class="cls-2" d="M21.33,12.33a15.43,15.43,0,0,1,4.16-.52,15.51,15.51,0,0,1,4.17.52q3.22.91,3.22,3.13t-3.22,3.16a15.51,15.51,0,0,1-4.17.52,15.43,15.43,0,0,1-4.16-.52q-3.22-.91-3.22-3.16T21.33,12.33Zm5.91.42a6.5,6.5,0,0,0-1.75-.23,6.42,6.42,0,0,0-1.74.23c-1.71.5-2.55,1.4-2.55,2.71s.84,2.27,2.55,2.74a6.42,6.42,0,0,0,1.74.23,6.5,6.5,0,0,0,1.75-.23c1.7-.47,2.55-1.39,2.55-2.74S28.94,13.22,27.24,12.75Z"/><path class="cls-2" d="M40.93,19.14V13.31h-4v-.45c3.13,0,5-.35,5.5-1H44v7.33Z"/><path class="cls-2" d="M62.66,15.76c1.43.4,2.15.83,2.15,1.28,0,.67-.72,1.21-2.15,1.61a18.63,18.63,0,0,1-4.84.49A18.63,18.63,0,0,1,53,18.65c-1.43-.4-2.14-.94-2.14-1.61,0-.45.71-.88,2.14-1.28a12.4,12.4,0,0,1,2.15-.38,9.8,9.8,0,0,1-1.74-.3c-1.26-.35-1.88-.76-1.88-1.24v0q0-.95,2-1.5a16.05,16.05,0,0,1,4.3-.49,16.05,16.05,0,0,1,4.3.49q2,.55,2,1.5v0c0,.48-.62.89-1.88,1.24a10,10,0,0,1-1.74.3A12.4,12.4,0,0,1,62.66,15.76ZM55.27,16c-.9.25-1.34.59-1.34,1s.44.87,1.34,1.13a11,11,0,0,0,5.1,0c.9-.26,1.35-.63,1.35-1.13s-.45-.77-1.35-1a11,11,0,0,0-5.1,0Zm.27-3.27q-1.08.3-1.08,1.05v0c0,.45.36.78,1.08,1a10.13,10.13,0,0,0,4.56,0c.72-.2,1.08-.53,1.08-1v0q0-.75-1.08-1.05a9.76,9.76,0,0,0-4.56,0Z"/><path class="cls-2" d="M74.53,18.32v.82H71.44v-.82Z"/><path class="cls-2" d="M86,12.33a16.94,16.94,0,0,1,8.33,0q3.22.91,3.23,3.13t-3.23,3.16a15.43,15.43,0,0,1-4.16.52A15.51,15.51,0,0,1,86,18.62q-3.23-.91-3.22-3.16T86,12.33Zm5.91.42a6.42,6.42,0,0,0-1.74-.23,6.5,6.5,0,0,0-1.75.23c-1.7.5-2.55,1.4-2.55,2.71s.85,2.27,2.55,2.74a6.5,6.5,0,0,0,1.75.23,6.42,6.42,0,0,0,1.74-.23c1.7-.47,2.56-1.39,2.56-2.74S93.59,13.22,91.89,12.75Z"/><path class="cls-2" d="M109.64,19.14V17.41h-9V16.7l9-4.89h3.09V16.7h2.82v.71h-2.82v1.73Zm0-2.44V13.39l-6,3.31Z"/><path class="cls-2" d="M141.69,15.46q0,2.37-3,3.19a16.58,16.58,0,0,1-4.43.49,17.31,17.31,0,0,1-4.57-.49q-3-.82-2.95-3.19t2.95-3.16a17.31,17.31,0,0,1,4.57-.49,16.58,16.58,0,0,1,4.43.49Q141.69,13.13,141.69,15.46Zm-11.82,0a2.39,2.39,0,0,0,1.74,2.63,9.8,9.8,0,0,0,2.69.34,9.19,9.19,0,0,0,2.55-.34,2.39,2.39,0,0,0,1.75-2.63,2.37,2.37,0,0,0-1.75-2.6,9.58,9.58,0,0,0-2.55-.34,10.2,10.2,0,0,0-2.69.34A2.37,2.37,0,0,0,129.87,15.46Z"/><path class="cls-2" d="M161.1,11.81v7.33h-3.76l-7-5.49h-.13v5.49h-3.09V11.81h3.76l7,5.49H158V11.81Z"/><path class="cls-2" d="M169.36,19.14h-3.23l6.72-7.33h2.69l6.71,7.33H179L177.15,17h-5.91Zm5-5.34h-.27l-2.15,2.48h4.57Z"/><path class="cls-2" d="M192.87,18.32h1.47v.82h-6v-.82h1.48V12.64H188.3v-.83h6v.83h-1.47Z"/><path class="cls-2" d="M213.82,12.41c1.16.33,1.75.79,1.75,1.39s-.59,1-1.75,1.36a11.4,11.4,0,0,1-2.42.48l4.84,3.5H213l-4.57-3.38h-3.76v3.38H201.6V11.81h6.71A21,21,0,0,1,213.82,12.41ZM211.4,14.7q1.08-.3,1.08-.9c0-.37-.4-.68-1.21-.9a14,14,0,0,0-3.63-.38h-2.95V15h3.89A10.27,10.27,0,0,0,211.4,14.7Z"/></g><g class="cls-3"><path class="cls-4" d="M22.09,26v2.55H9.5V26.39a59.22,59.22,0,0,1,7-11,9.78,9.78,0,0,0,2.34-6.16,5,5,0,0,0-1.11-3.49,2.57,2.57,0,0,0-2-.8,2.77,2.77,0,0,0-2,1.07q-1.11,1.21-1.11,5H10q.12-4.83,2.1-7A5.12,5.12,0,0,1,16,2.41,5.18,5.18,0,0,1,20,4.16a7.42,7.42,0,0,1,1.73,5.22q0,3.89-3.33,8A63.29,63.29,0,0,0,12.46,26Z"/><path class="cls-4" d="M28.4,4.29a4.83,4.83,0,0,1,7.65,0q3,3.21,3,11.12t-3,11.25a4.84,4.84,0,0,1-7.66,0q-3-3.21-3-11.25T28.4,4.29Zm5.43,1.47a2,2,0,0,0-3.21,0q-2.34,2.69-2.34,9.65,0,7.23,2.34,9.78a2,2,0,0,0,3.21,0q2.36-2.55,2.35-9.78C36.18,10.68,35.39,7.46,33.83,5.76Z"/><path class="cls-4" d="M46.41,28.54V7.77H42.7V6.17q4.32,0,5.06-3.76h1.49V28.54Z"/><path class="cls-4" d="M66.38,16.48a6.67,6.67,0,0,1,2,4.55,8.21,8.21,0,0,1-2,5.77,5.75,5.75,0,0,1-4.45,1.74,5.74,5.74,0,0,1-4.44-1.74,8.17,8.17,0,0,1-2-5.77,6.64,6.64,0,0,1,2-4.55,5,5,0,0,1,2-1.34,4.33,4.33,0,0,1-1.6-1.07,6.31,6.31,0,0,1-1.73-4.42V9.51A7.6,7.6,0,0,1,58,4.16a5.33,5.33,0,0,1,7.9,0,7.55,7.55,0,0,1,1.85,5.35v.14A6.3,6.3,0,0,1,66,14.07a4.45,4.45,0,0,1-1.61,1.07A5.09,5.09,0,0,1,66.38,16.48Zm-6.79.94A5.09,5.09,0,0,0,58.35,21a5.71,5.71,0,0,0,1.24,4,3.09,3.09,0,0,0,4.69,0,5.76,5.76,0,0,0,1.23-4,5.13,5.13,0,0,0-1.23-3.61,3.1,3.1,0,0,0-4.69,0Zm.24-11.66a5.55,5.55,0,0,0-1,3.75v.14a5,5,0,0,0,1,3.48,2.82,2.82,0,0,0,4.2,0,5,5,0,0,0,1-3.48V9.51a5.55,5.55,0,0,0-1-3.75,2.84,2.84,0,0,0-4.2,0Z"/><path class="cls-4" d="M77.28,25.59v2.95H74.45V25.59Z"/><path class="cls-4" d="M87.81,4.29a4.83,4.83,0,0,1,7.65,0c2,2.14,3,5.85,3,11.12s-1,9.11-3,11.25a4.83,4.83,0,0,1-7.65,0q-3-3.21-3-11.25T87.81,4.29Zm5.43,1.47a2,2,0,0,0-3.21,0q-2.34,2.69-2.34,9.65,0,7.23,2.34,9.78a2,2,0,0,0,3.21,0q2.34-2.55,2.35-9.78C95.59,10.68,94.8,7.46,93.24,5.76Z"/><path class="cls-4" d="M109.55,28.54V22.37h-8.27V19.83l8.27-17.42h2.84V19.83H115v2.54h-2.59v6.17Zm0-8.71V8L104,19.83Z"/><path class="cls-4" d="M139,15.41q0,8.43-2.72,11.39a5.3,5.3,0,0,1-4.07,1.74A5.45,5.45,0,0,1,128,26.8q-2.71-3-2.71-11.39T128,4.16a5.45,5.45,0,0,1,4.2-1.75,5.31,5.31,0,0,1,4.07,1.75Q139,7.1,139,15.41Zm-10.87,0c0,5.09.54,8.22,1.61,9.38a3.31,3.31,0,0,0,2.47,1.2,3.2,3.2,0,0,0,2.34-1.2q1.6-1.74,1.61-9.38t-1.61-9.24A3.18,3.18,0,0,0,132.21,5a3.29,3.29,0,0,0-2.47,1.21Q128.14,7.91,128.13,15.41Z"/><path class="cls-4" d="M156.83,2.41V28.54h-3.45L147,9h-.13V28.54H144V2.41h3.46L153.87,22H154V2.41Z"/><path class="cls-4" d="M164.42,28.54h-3l6.17-26.13h2.47l6.17,26.13h-3l-1.73-7.64h-5.43Zm4.57-19h-.25l-2,8.85H171Z"/><path class="cls-4" d="M186,25.59h1.36v2.95h-5.55V25.59h1.35V5.36h-1.36V2.41h5.56v3H186Z"/><path class="cls-4" d="M205.28,4.56a7.08,7.08,0,0,1,1.6,5,7.16,7.16,0,0,1-1.6,4.83,5.47,5.47,0,0,1-2.22,1.74l4.44,12.46h-3l-4.2-12.06h-3.46V28.54h-2.84V2.41h6.17A6.6,6.6,0,0,1,205.28,4.56Zm-2.22,8.17a4.65,4.65,0,0,0,1-3.22,4.54,4.54,0,0,0-1.11-3.21A4.31,4.31,0,0,0,199.6,5h-2.72v9h3.58A3.46,3.46,0,0,0,203.06,12.73Z"/></g><rect class="cls-5" width="217" height="31"/></g></svg>