<svg xmlns="http://www.w3.org/2000/svg" viewBox="0 0 75 15"><defs><style>.cls-1{fill:none;opacity:0.12;}.cls-2{fill:#fff;fill-rule:evenodd;}</style></defs><title>アートボード 112</title><g id="comon"><g id="共通装飾品"><rect class="cls-1" width="75" height="15"/><path class="cls-2" d="M16.36.8H8.48L6.8.85V2.68l3.84,0V13.24a3.31,3.31,0,0,1,1,0v.92h.87a3.28,3.28,0,0,1,0-1h.91V2.72l3.84,0V.85A3.73,3.73,0,0,1,16.36.8Z"/><path class="cls-2" d="M28.84,5.65c0-1,0-1.92-.05-2.88h-.91v-1h-1V.85A3.73,3.73,0,0,1,26,.8h-4.8v1l-1.88.05c0,.64,0,1.28,0,1.92h-.92c0,1.35,0,2.69,0,4V9.44a4.49,4.49,0,0,1,0,.92h.92v2h1v1h2v.92h3.75v-.92h1v-1h1v-1h.91c0-1,0-1.92.05-2.88h.91V5.65ZM26.92,10.4H26v1H25v.91H22.12v-1h-1q0-3.36-.05-6.72a4.55,4.55,0,0,0,.05-1h.91V2.72l2.93,0a4.82,4.82,0,0,0,1,0C26,3.35,26,4,26,4.6h.92Z"/><path class="cls-2" d="M34.6,2.72h3.84V13.28a4.49,4.49,0,0,1,0,.92h1.83a3.84,3.84,0,0,1,0-.92V2.72H44.2V.8H34.6Z"/><path class="cls-2" d="M56.63,3.73h-.91v-1h-1v-1h-1V.8H49a3.84,3.84,0,0,1-.92,0v.91h-1v1h-.92c0,.64,0,1.28,0,1.92H45.2V9.4h.92v2h1c0,.63,0,1.25,0,1.88l1.92,0v.92h3.75v-.92l1.92,0a3.28,3.28,0,0,1,0-1h.91l0-1.92h.91c0-1.12,0-2.24,0-3.36V5.6A8.19,8.19,0,0,1,56.63,3.73ZM53.84,9.44a8.7,8.7,0,0,0,0,1.92l-1.88.05v.91h-2v-.91a3.28,3.28,0,0,1-1-.05v-.91H48V4.6H49c0-.63,0-1.25,0-1.88l2.88,0a4.59,4.59,0,0,0,1,0v.92h.92l0,4.08Z"/><path class="cls-2" d="M68.15,1.81a3.28,3.28,0,0,1-1-.05V.85a3.73,3.73,0,0,1-.91,0H59.56a3.84,3.84,0,0,1-.92,0V13.24a3.31,3.31,0,0,1,1,0v.92h1.83a3.84,3.84,0,0,1,0-.92V8.44h4.75V7.52h1v-1h.91c0-1.27,0-2.53,0-3.8A3.73,3.73,0,0,1,68.15,1.81ZM66.28,5.6h-1v1H61.48V2.68l3.88,0v.92h.92Z"/></g></g></svg>