<svg xmlns="http://www.w3.org/2000/svg" viewBox="0 0 75 15"><defs><style>.cls-1{fill:none;opacity:0.12;}.cls-2,.cls-3{fill:#fff;}.cls-2{fill-rule:evenodd;}</style></defs><title>アートボード 113</title><g id="comon"><g id="共通装飾品"><rect class="cls-1" width="75" height="15"/><path class="cls-2" d="M10.64,10.77v2.47a3.31,3.31,0,0,1,1,0v.92h.87a3.28,3.28,0,0,1,0-1h.91V10.77h-.86V9.37H10.64Z"/><path class="cls-2" d="M8,2.69h0V2.33H8Z"/><path class="cls-2" d="M16.36.8H12.57V2h4.15v.69h.55V.85c-.17,0-.37,0-.55,0A1.64,1.64,0,0,1,16.36.8Z"/><rect class="cls-3" x="6.8" y="1.49" width="1.24" height="0.84"/><path class="cls-2" d="M8.07,2.33h2.09v.39h.48V7.27h1.93V5.64h.86V4.31h-.86V2H8.07Z"/><path class="cls-2" d="M10.16.8H8.48L6.8.85,8,.82v.67h2.12Z"/><path class="cls-2" d="M21.11,4.64a4.55,4.55,0,0,0,.05-1h.91V2.72l2.93,0a4.82,4.82,0,0,0,1,0C26,3.35,26,4,26,4.6h.92V7.05h1.5V5.13h.41v0h0v.55c0-1,0-1.92-.05-2.88h-.91v-1h-1V.85A3.73,3.73,0,0,1,26,.8h-4.8v1l-1.88.05.88,0V7.05h1Z"/><path class="cls-2" d="M18.28,7.05c0-1.1,0-2.21,0-3.32,0,1.35,0,2.69,0,4v-.4h1.88V7.05Z"/><path class="cls-2" d="M21.13,7.36h-1V9.63h1C21.14,8.88,21.13,8.12,21.13,7.36Z"/><path class="cls-2" d="M26.92,8.1v2h1.5v.31h-1.5v0h-.5v.14H26v.87H25v.91H22.12v-1h-1v-.82h-1v1.78h0v1h2v.92h.41v-.66h3.34v-.26h.51v-.47h.5v-.49h1v-1h.91v-1h0c0-.64,0-1.28,0-1.92h.91V8.1H28.42V7.36h-1.5Z"/><rect class="cls-3" x="28.42" y="7.05" width="1.33" height="0.31"/><path class="cls-2" d="M38.44,3.33V5.77h.66V8.15h-.66v5.13l0,.18h0a2.71,2.71,0,0,1,0,.29h0c0,.15,0,.31,0,.45h1.83v-.45h0a1.48,1.48,0,0,1,0-.21v0a1.12,1.12,0,0,1,0-.21V2.91H39.1v.42Z"/><rect class="cls-3" x="42.72" y="2.49" width="1.32" height="0.24"/><polygon class="cls-2" points="39.1 0.8 34.6 0.8 34.6 0.8 34.6 2.49 34.6 2.49 34.6 2.72 38.44 2.72 38.44 2.92 39.1 2.92 39.1 2.49 42.72 2.49 42.72 0.8 39.1 0.8"/><rect class="cls-3" x="44.04" y="0.8" width="0.15" height="1.68"/><rect class="cls-3" x="45.2" y="6.64" width="1.96" height="1.84"/><path class="cls-2" d="M49.57.81H49a3.84,3.84,0,0,1-.92,0v.91h-1v1h-.92c0,.64,0,1.28,0,1.92H45.2V6.6h2v0h.56V9H45.2v.34h2v2.44h-.07v-.41c0,.63,0,1.25,0,1.88h.6l1.32,0h0v.92h.53v-.56h1.59V12.32H49.57v-.89h0a1.92,1.92,0,0,1-.62-.06v-.91H48V4.6H49c0-.63,0-1.25,0-1.88h0l2.12,0V1.32H49.57Z"/><polygon class="cls-2" points="58.64 4.37 58.64 5.63 58.64 6.54 58.64 6.82 60.42 6.82 60.42 7.46 58.64 7.46 58.64 7.75 60.42 7.75 60.42 8.81 61.48 8.81 61.48 8.44 64.91 8.44 64.91 7.46 67.24 7.46 67.24 6.82 64.91 6.82 64.91 6.56 61.57 6.56 61.48 6.56 61.48 6.54 61.48 5.63 61.48 4.37 61.48 3.36 60.42 3.36 60.42 4.37 58.64 4.37"/><path class="cls-2" d="M68.15,1.81c-.23,0-.51,0-.73,0v.46h.73C68.14,2.12,68.15,2,68.15,1.81Z"/><polygon class="cls-2" points="10.64 7.49 10.64 8.33 12.57 8.33 12.57 9.37 13.43 9.37 13.43 8.33 13.43 7.49 13.43 7.28 12.57 7.28 12.57 7.49 10.64 7.49"/><path class="cls-2" d="M21.15,10.36v-.31h-1V9.63H18.31c0,.13,0,.28,0,.42h0v.31h.92v.18h.92v-.18Z"/><rect class="cls-3" x="51.16" y="13.64" width="1.63" height="0.55"/><path class="cls-2" d="M56.63,3.73h-.91v-1h-1v-1h-1V.81H51.16v.51h2.41V3.64h.23l0,3h0v2.8a8.7,8.7,0,0,0,0,1.92h-.23v1.89l1.14,0a3.28,3.28,0,0,1,0-1h.91l0-1.92h.91c0-1.12,0-2.24,0-3.36V5.6A8.19,8.19,0,0,1,56.63,3.73Z"/><path class="cls-2" d="M68.19,3.26V3.05h-.77V2.27H64.91V1.1H61.57V.8h-2a3.84,3.84,0,0,1-.92,0V2.27h1.78v.78h1.06V2.68l3.43,0h.45v.92h.92v.73h1.14v-1h.77v1h-.76V5.63h-2.1v.91h1.92v0h.91c0-1.06,0-2.11,0-3.16h0Z"/><path class="cls-2" d="M58.64,9.5v3.74h.52a1.4,1.4,0,0,1,.44,0v.92h.82v-.36h1a2.42,2.42,0,0,1,0-.57.52.52,0,0,0,0,.18h-1V11.27h1.06v-.62H60.42V8.81H58.64Z"/><path class="cls-2" d="M67.19.85a3.73,3.73,0,0,1-.91,0H64.91v.3h2.28Z"/><rect class="cls-3" x="58.64" y="3.05" width="1.77" height="0.31"/></g></g></svg>