<svg xmlns="http://www.w3.org/2000/svg" viewBox="0 0 75 15"><defs><style>.cls-1{fill:none;opacity:0.12;}.cls-2,.cls-3{fill:#fff;}.cls-3{fill-rule:evenodd;}</style></defs><title>アートボード 114</title><g id="comon"><g id="共通装飾品"><rect class="cls-1" width="75" height="15"/><rect class="cls-2" x="0.23" y="5.92" width="2.78" height="3.4"/><path class="cls-3" d="M13.09,14.21v-.4h-.86v.39Z"/><path class="cls-3" d="M9.11,3.12V2.74l3.84,0L13,.9a3.69,3.69,0,0,1-.91-.06L4.18.78,2.5.82V2.64l3.84.08V3.1Z"/><rect class="cls-2" x="19.65" y="3.14" width="0.59" height="2.78" transform="translate(15.4 24.48) rotate(-89.94)"/><path class="cls-3" d="M11.62,3.63h.91V3.21l-2.81,0v.5H8.79v.09l2.83,0Z"/><path class="cls-3" d="M29.12,8.31c0-1.14,0-2.27-.05-3.41l-2.8,0c0,1,0,1.9,0,2.85v.55Z"/><path class="cls-3" d="M22,8.29l2.83.05.05-2.66H24V4.92l-1.9,0Z"/><path class="cls-3" d="M20.59.79l-4.8,0v1l-1.87.06v.3l8.6-.07V1.73h-1V.83A4.39,4.39,0,0,1,20.59.79Z"/><rect class="cls-2" x="17.33" y="13.93" width="3.74" height="0.27" transform="translate(-0.15 0.21) rotate(-0.61)"/><path class="cls-3" d="M31.14,3.23v.6H34V3.24Z"/><polygon class="cls-3" points="21.97 13.26 21.96 12.78 15.24 12.84 15.25 13.32 17.22 13.3 17.22 13.35 20.96 13.31 20.96 13.27 21.97 13.26"/><rect class="cls-2" x="44.09" y="3.93" width="2.77" height="1.92" transform="translate(40.08 50.31) rotate(-89.37)"/><path class="cls-3" d="M40.71,13.3a5.08,5.08,0,0,1,.06.91l1.82,0a4.35,4.35,0,0,1,0-.91l0-3.09-1.92,0Z"/><rect class="cls-2" x="45.16" y="7.24" width="2.83" height="0.59" transform="translate(-0.12 0.78) rotate(-0.96)"/><path class="cls-3" d="M55.64,8.92v.53a8.68,8.68,0,0,0,0,1.92l-1.87.05v.9h2.82a.06.06,0,0,1,0,0h.91l.05-1.92h.91l0-1.45Z"/><path class="cls-3" d="M47.14,11.44a3.28,3.28,0,0,1-1-.06v-.91h-.91l0-1.54-2.84,0v.49h.91l0,2h1c0,.31,0,.63,0,.94l2.81,0Z"/><rect class="cls-2" x="53.14" y="0.95" width="5.71" height="0.67" transform="translate(-0.01 0.91) rotate(-0.94)"/><path class="cls-3" d="M59.27,7.22v.59l2.82,0,0-.6Z"/><path class="cls-3" d="M43.79,1.82v1h-.92l0,1.92h-.91V6.15l2.84,0V4.62h.91c0-.62,0-1.24,0-1.87l2.88-.06a4.59,4.59,0,0,0,1,0v.91h.91c0,.82,0,1.64,0,2.46h2.85v-.5a8.89,8.89,0,0,1-.06-1.88h-.91v-1h-1V1.78Z"/><path class="cls-3" d="M57.57,14.2h1.82V14.1H57.57Z"/><path class="cls-3" d="M65.22,3l2.83,0V2.71h3.89v.17l2.83,0V2.67a1.65,1.65,0,0,1-.06-.43l-9.5.12Z"/><rect class="cls-2" x="54.3" y="12.97" width="2.83" height="0.03"/><rect class="cls-2" x="64.94" y="9.08" width="2.83" height="0.53" transform="translate(-0.11 0.82) rotate(-0.71)"/><rect class="cls-2" x="58.58" y="11.85" width="2.83" height="0.59" transform="translate(-0.03 0.15) rotate(-0.15)"/><path class="cls-3" d="M70.76.78,64,.84a3.69,3.69,0,0,1-.91.06v.89l8.55-.09V.82A4.49,4.49,0,0,1,70.76.78Z"/></g></g></svg>