<svg xmlns="http://www.w3.org/2000/svg" viewBox="0 0 72 13"><defs><style>.cls-1{fill:none;opacity:0.12;}.cls-2{fill-rule:evenodd;}</style></defs><title>アートボード 97</title><g id="comon"><g id="見出し"><rect class="cls-1" width="72" height="13"/><path class="cls-2" d="M12.58.85h-7v.76s0,0,0,0H4.74v.71a2.86,2.86,0,0,1,.79,0v.75H7.11a2.84,2.84,0,0,1,.79,0v8.67l2.34,0V3.15h2.34V2.4h.83V1.61h-.83Z"/><path class="cls-2" d="M26,.85h-1.5v.76h0v0h-.76c0,1.58,0,3.16,0,4.75H23V7.94h0V8h-.79l0-4.75h-.75c0-.79,0-1.58,0-2.38H19l0,1.59H18.2c0,1.58,0,3.17,0,4.75h-.75V8h-.83c0-1.85,0-3.69,0-5.54h-.76l0-1.59h-1.5a3.64,3.64,0,0,1,0,.76c0,1,0,2.08,0,3.12H15l0,4h.75V11.9l3.13,0c0-1.58,0-3.17,0-4.75h.75l0-3.17h.8v4a3.58,3.58,0,0,1,0,.75h.75V11.9H23.7v-.83h.76a3,3,0,0,1,0-.75V7.11h.75a3.5,3.5,0,0,1,0-.75V3.15H26l0-1.54A3.64,3.64,0,0,1,26,.85Z"/><path class="cls-2" d="M29.21.85H27.7a3.06,3.06,0,0,1,0,.76V11.9h1.59V1.61A3.64,3.64,0,0,1,29.21.85Z"/><path class="cls-2" d="M39.5.85H31.66v.76h0v0h-.75v.71a2.84,2.84,0,0,1,.79,0v.75H34v8.71l2.34,0V3.15H39.5l0-1.54A3.64,3.64,0,0,1,39.5.85Z"/><path class="cls-2" d="M48.22,1.61V.85H40.38c0,.52,0,1,0,1.55a3.5,3.5,0,0,1,0,.75H43.5V11.9l2.34,0V3.15h2.38a2.52,2.52,0,0,1,0-.79H49V1.65A2.84,2.84,0,0,1,48.22,1.61Z"/><path class="cls-2" d="M52.22,10.36V7.15h4V5.57h-4V3.15h4.71a2.86,2.86,0,0,1,0-.79h.75V1.65a2.86,2.86,0,0,1-.79,0V.85H50.67a3.64,3.64,0,0,1,0,.76V11.9h7.13l0-1.54Z"/><path class="cls-2" d="M66.47,11.11V9.53h-.79V7.94h-.79V7.11h.75V6.36h.83V5.53h.75V3.23h-.75c0-.53,0-1.06,0-1.58l-2.37,0V.85H59.38a3.06,3.06,0,0,1,0,.76V11.9h1.59V7.15H63.3l0,1.54h.76l0,1.59h.75V11.9h2.37v-.79Zm-4.75-5.5a3.32,3.32,0,0,0-.79,0V3.15h.75V2.4h2.46v.75h.75c0,.54,0,1.08,0,1.62a3.4,3.4,0,0,0,0,.8Z"/></g></g></svg>