<svg xmlns="http://www.w3.org/2000/svg" viewBox="0 0 72 13"><defs><style>.cls-1{fill:none;opacity:0.12;}.cls-2{fill-rule:evenodd;}</style></defs><title>アートボード 99</title><g id="comon"><g id="見出し"><rect class="cls-1" width="72" height="13"/><path class="cls-2" d="M11.16,4.25h-.8v0h-1v.8h2.33V4.27h-.53Z"/><rect x="-1.26" y="7.34" width="5.19" height="2.34" transform="translate(-7.19 9.8) rotate(-89.67)"/><path class="cls-2" d="M11.94,3.21c0-.79,0-1.58-.07-2.37l-2.3,0c0,.53,0,1,0,1.58H8.8v.41H9v.29H8.8c0,.39,0,.77,0,1.15h.54V4.24h1V4h.8v.31h.53v0l1,0c0-.35,0-.7,0-1Z"/><path class="cls-2" d="M19.39.85v.76h0v0H18.6V4.29h1.57V3.15h.76l0-1.54a3,3,0,0,1-.05-.75Z"/><path class="cls-2" d="M15.67,2.45h-.75c0-.53,0-1,0-1.58l-1.5,0a4.35,4.35,0,0,1-.05.75c0,.89,0,1.78,0,2.67l2.31,0C15.66,3.68,15.66,3.07,15.67,2.45Z"/><path class="cls-2" d="M16,6l1.55,0,0-.91L16,5.13C16,5.43,16,5.73,16,6Z"/><path class="cls-2" d="M2.58,5.14c0,.3,0,.61,0,.91H4.15c0-.31,0-.61,0-.92Z"/><path class="cls-2" d="M14.12,5.15l0,.91L15.7,6l0-.91Z"/><path class="cls-2" d="M18.2,5.15v.91l1.59,0,0-.91Z"/><rect x="18.73" y="10.65" width="0.46" height="1.02" transform="translate(-0.16 0.27) rotate(-0.82)"/><polygon class="cls-2" points="15.51 7.33 15.53 10.38 15.53 10.65 15.53 11.56 15.66 11.56 15.64 7.33 15.51 7.33"/><polygon class="cls-2" points="14.73 6.42 14.85 6.42 14.85 6.42 14.73 6.42 14.73 6.42"/><path class="cls-2" d="M26.37,1.16H25a2,2,0,0,1,0,.45l0,8.77h.46v-4h1Z"/><polygon class="cls-2" points="31.24 9.01 31.23 9.71 33.48 9.74 33.49 8.94 31.24 8.9 31.24 9.01"/><polygon class="cls-2" points="28.77 2.75 27.31 2.75 27.31 3.15 28.77 3.15 28.77 2.86 28.77 2.75"/><polygon class="cls-2" points="27.55 1.6 27.51 1.6 27.51 1.64 26.76 1.63 26.75 1.88 29.01 1.91 29.02 0.87 27.56 0.85 27.55 1.6"/><polygon class="cls-2" points="39.74 4.9 39.73 7.73 39.73 8 41.98 8.01 42 3.78 40.43 3.77 40.42 4.91 39.74 4.9"/><path class="cls-2" d="M3.61,2.84v.92H5.85V3.15H8.8V2.87Z"/><rect x="47.57" y="7.07" width="4.98" height="2.34" transform="translate(41.35 58.22) rotate(-89.46)"/><path class="cls-2" d="M30.44,11.77v.14l2.33-.06v-.11Z"/><path class="cls-2" d="M42.83,1.64V1.55L35,1.47l0,.88a3.62,3.62,0,0,1,0,.75l3.13,0,0,1.74,1.67,0V3.77h.68V3.16l2.38,0a2.79,2.79,0,0,1,0-.79h.75V1.69A2.82,2.82,0,0,1,42.83,1.64Z"/><path class="cls-2" d="M57.45,5.61l1.3,0v0l-2.09,0h0A3.32,3.32,0,0,1,57.45,5.61Z"/><path class="cls-2" d="M54.79,5.58l0-2.42h.3V2.92h2.34v.22h2.08a2.53,2.53,0,0,1,0-.79h.75V2l-7.09.06,0,5.19H54.8V7.16h.28V5.58Z"/><path class="cls-2" d="M53.75,10.37V8.89H52.16v3l7.13,0c0-.51,0-1,0-1.54Z"/><path class="cls-2" d="M71.85,1.69l-2.38-.07V1.26L64.8,1.2a1.28,1.28,0,0,1,0,.36v.5l7.1.09Z"/><polygon class="cls-2" points="55.07 5.58 56.66 5.57 56.66 3.15 57.41 3.15 57.41 3.14 55.07 3.16 55.07 5.58"/><path class="cls-2" d="M63,3.22H62.2V2.91H59.86v.23h.76c0,.54,0,1.08,0,1.62a3.32,3.32,0,0,0,0,.79l-1.87,0V7.13l-3.68,0v.95h1.58v-1H59c0,.32,0,.64,0,1h2.35V7.94h-.79V7.11h.75V6.35h.83V5.52H63Z"/></g></g></svg>