<svg xmlns="http://www.w3.org/2000/svg" viewBox="0 0 72 13"><defs><style>.cls-1{fill:none;opacity:0.12;}.cls-2{fill-rule:evenodd;}</style></defs><title>アートボード 98</title><g id="comon"><g id="見出し"><rect class="cls-1" width="72" height="13"/><polygon class="cls-2" points="7.9 4.11 7.9 4.69 10.24 4.69 10.24 3.84 9.37 3.84 9.37 4.11 7.9 4.11"/><rect x="10.1" y="5.79" width="0.14" height="0.68"/><path class="cls-2" d="M5.53.85v.76s0,0,0,0H4.74v.71a2.86,2.86,0,0,1,.79,0v.17H7.16V.85Z"/><path class="cls-2" d="M24.54.85v.76h0v0h-.76c0,1.58,0,3.16,0,4.75H23v.3h2.3a1.13,1.13,0,0,1,0-.34V4.57H23.72c0-.91,0-1.82,0-2.72h2.33l0,1.3c0-.51,0-1,0-1.54a3.64,3.64,0,0,1,0-.76Z"/><path class="cls-2" d="M17.41,7.42V8h-.83V7.42H15V8.47h3.91l0,3.39,0-4.75v.31Z"/><path class="cls-2" d="M20.54,6.7h1.57v.46c0-.86,0-1.72,0-2.59H20.54Z"/><path class="cls-2" d="M21.29.85h-.92v1h.94C21.3,1.52,21.29,1.18,21.29.85Z"/><path class="cls-2" d="M19.67,4.57h.07V3.94h.63V1.85h-.7Z"/><path class="cls-2" d="M19.71,6.7c0-.43,0-.86,0-1.29,0,.23,0,.47,0,.7h0V6.7Z"/><path class="cls-2" d="M23,7.94h0V8h-.79V7.42H20.54v.52a3.58,3.58,0,0,1,0,.75V8.47H24.5V7.42H23Z"/><rect x="27.66" y="10.24" width="1.58" height="1.66"/><rect x="27.66" y="3.11" width="1.58" height="3.58"/><path class="cls-2" d="M30.87,2.36h.29v-.7h-.29Z"/><rect x="34.1" y="5.11" width="2.28" height="2.13"/><polygon class="cls-2" points="31.66 3.15 34.04 3.15 34.04 3.57 36.38 3.57 36.38 3.15 38.37 3.15 38.37 2.84 31.66 2.84 31.66 3.15"/><rect x="34.04" y="7.24" width="0.06" height="0.23"/><polygon class="cls-2" points="43.71 4.24 45.84 4.24 45.84 3.15 46.3 3.15 46.3 1.79 43.71 1.79 43.71 4.24"/><rect x="43.5" y="4.24" width="0.2" height="0.83"/><path class="cls-2" d="M43.5,11.9l2.34,0V9.22H43.5Z"/><path class="cls-2" d="M40.38.85c0,.26,0,.53,0,.79h2.38v.15h1V.85Z"/><rect x="55.41" y="5.57" width="0.77" height="1.58"/><polygon class="cls-2" points="52.22 7.7 50.63 7.7 50.63 7.71 51.58 7.71 51.58 11.9 54.52 11.9 54.52 10.36 52.22 10.36 52.22 7.7"/><path class="cls-2" d="M56.93,3.15a3,3,0,0,1,0-.75H55.41v.75Z"/><rect x="64.14" y="2.79" width="0.73" height="0.36"/><path class="cls-2" d="M66.47,11.11V9.53h-.79V9.1h-.81V8.8H64.1V8.69l0,1.59h.75V11.9h2.37v-.79Z"/><path class="cls-2" d="M65.68,7.94h-.79V7.11h.75V6.36h.83V5.53h.75V5.24H64.89v.33h0V8.8h.81Z"/><path class="cls-2" d="M64.89,5.24h0v0Z"/><polygon class="cls-2" points="60.93 3.15 61.68 3.15 61.68 2.79 59.34 2.79 59.34 5.24 60.93 5.24 60.93 3.15"/><polygon class="cls-2" points="12.58 0.85 9.37 0.85 9.37 2.57 12.58 2.57 12.58 2.4 13.41 2.4 13.41 1.61 12.58 1.61 12.58 0.85"/><path class="cls-2" d="M7.16,3.15h0a2.84,2.84,0,0,1,.79,0v.65H9.37V2.57H7.16Z"/><rect x="7.9" y="6.47" width="2.2" height="1.77"/><rect x="10.1" y="8.24" width="0.14" height="2.02"/><rect x="7.9" y="10.26" width="2.2" height="0.17"/><path class="cls-2" d="M18.17,6.11h1.5V4.57H18.18Z"/><path class="cls-2" d="M16.55,4.57H16V6.11h.56Z"/><path class="cls-2" d="M19,.85c0,.33,0,.67,0,1h.7v-1Z"/><path class="cls-2" d="M38.37.85v2h1.14l0-1.23a3.64,3.64,0,0,1,0-.76Z"/><rect x="34.1" y="7.47" width="2.28" height="1.79"/><rect x="34.04" y="9.26" width="0.06" height="0.17"/><path class="cls-2" d="M34,11.86h.06V11.1H34Z"/><polygon class="cls-2" points="34.04 5.11 34.1 5.11 34.1 4.79 36.38 4.79 36.38 3.69 34.04 3.69 34.04 5.11"/><rect x="27.66" y="7.3" width="1.58" height="0.45"/><path class="cls-2" d="M27.7.85a3.06,3.06,0,0,1,0,.76v.46h1.59V1.61a3.64,3.64,0,0,1,0-.76Z"/><polygon class="cls-2" points="43.5 6.26 43.5 7.8 45.84 7.8 45.84 5.07 43.71 5.07 43.71 6.26 43.5 6.26"/><path class="cls-2" d="M40.34,2.4a3.5,3.5,0,0,1,0,.75h2.36V1.79H40.35Z"/><path class="cls-2" d="M48.36,1.64H46.3v.15H49V1.65C48.81,1.65,48.55,1.66,48.36,1.64Z"/><path class="cls-2" d="M55.41.85H50.67a3.64,3.64,0,0,1,0,.76V3.2h1.59V3.15h2.3V2.4h.89Z"/><path class="cls-2" d="M56.34,10.89v1h1.42l0-1Z"/><rect x="55.41" y="10.36" width="0.93" height="0.53"/><path class="cls-2" d="M59.35,1.57h4.71V.85H59.38A4.07,4.07,0,0,1,59.35,1.57Z"/><path class="cls-2" d="M60.93,5.57v-.1H59.34V8.8h1.59V7.15h1V5.6h-.18A3.32,3.32,0,0,0,60.93,5.57Z"/></g></g></svg>