<svg xmlns="http://www.w3.org/2000/svg" viewBox="0 0 134 82"><defs><style>.cls-1{fill:none;opacity:0.12;}.cls-2{fill:red;}</style></defs><title>アートボード 119</title><g id="comon"><g id="共通装飾品"><rect class="cls-1" width="134" height="82"/><rect class="cls-2" x="38.43" y="51.71" width="15.92" height="2.07"/><rect class="cls-2" x="68.97" y="44.09" width="5.61" height="0.8"/><rect class="cls-2" x="48.75" y="64.2" width="5.61" height="0.77"/><rect class="cls-2" x="38.43" y="42.6" height="0.13"/><polygon class="cls-2" points="48.75 70.4 55.26 67.14 54.36 67.59 54.36 66.9 48.75 66.9 48.75 70.4"/><polygon class="cls-2" points="77.42 28.03 77.42 29.69 80.06 29.69 80.06 28.03 81.61 28.03 76.22 25.34 74.58 25.34 74.58 28.03 77.42 28.03"/><polygon class="cls-2" points="55.75 66.9 59.6 64.97 54.36 64.97 54.36 66.9 55.75 66.9"/><rect class="cls-2" x="68.97" y="35.15" width="5.61" height="0.69"/><polygon class="cls-2" points="34.14 20.44 34.14 19.95 35.79 19.95 35.79 20.44 35.79 20.44 35.79 19.95 41.41 19.95 41.41 16.4 35.79 16.4 35.79 15.61 35.79 15.61 35.79 16.4 34.14 16.4 34.14 15.61 26.85 15.61 26.85 12.92 34.14 12.92 34.14 10.87 34.14 10.87 34.14 4.87 26.85 4.87 26.85 0.66 26.46 0.46 26.46 4.87 26.46 12.92 26.46 15.61 26.46 16.4 26.46 19.95 26.46 20.44 26.46 30.34 26.85 30.34 26.85 20.44 34.14 20.44"/><rect class="cls-2" x="35.79" y="51.71" width="2.64" height="2.07"/><rect class="cls-2" x="34.14" y="6.03" width="1.65" height="4.84"/><rect class="cls-2" x="67.51" y="35.15" height="0.69"/><rect class="cls-2" x="34.14" y="12.92" width="1.65" height="2.69"/><rect class="cls-2" x="35.79" y="42.73" width="2.64" height="0.74"/><rect class="cls-2" x="38.43" y="47.94" height="3.77"/><path class="cls-2" d="M35.79,5.12V6H37.6l2.12,1.06v3.78H35.79v2.05h3.93v.38h1.69v-.38H47v.38h1.45v-.38h.3V11.6l2.62,1.32H48.75v.38h-.3v.35H47V13.3H41.41v.35H35.79v2h5.62v.79H47v-.79h1.45V30.25h13.1V28h5.6v2.22h.36v2.21h0V30.25H69v2.21h5.61V30.25h2.84v-.56H74.58V28h-.15V25.34h.15v-.82l-2.46-1.23h0L69,21.71h0L67.51,21h0L54.36,14.41h0l-1-.51-5.29-2.65-1-.52h0L40.26,7.36l-.54-.27h0L34.14,4.3v.57h1.15ZM67.15,20.8v4.54h-5.6V18ZM47,10.73v.14H41.41V7.93Z"/><polygon class="cls-2" points="34.14 46.16 34.14 45.74 38.43 45.74 38.43 46.16 38.43 46.16 38.43 45.74 41.41 45.74 41.41 45.42 54.36 45.42 54.36 44.09 41.41 44.09 41.41 43.95 38.43 43.95 38.43 43.47 38.43 43.47 38.43 43.95 26.85 43.95 26.85 45.42 26.46 45.42 26.46 47.94 38.43 47.94 38.43 46.16 34.14 46.16"/><path class="cls-2" d="M35.79,42.73V42.6h0v-.42h0v.42h2.64v-.42h0v.42h3v.13h-3v.74h3v.47H47v-.47h7.36v-.74H47V42.6H61.55v.87H54.36v.62h7.19v1.65h5.6V44.09H69V36.68h8.45v-.34H69v-.49H67.51v.49h0v-.49h-.36v-.7h.36V33.8h0v1.35H69V33.8h8.45v-1H69v-.33H67.51v.33h0v-.33h-.36V30.25h-5.6v2.21H41.41V30.34h-3v-9.9H35.79v9.9h0v-9.9H34.14v9.9H26.85v8.52h8.94v2.35H26.46v2.73h.39V42.73Zm31.72-6v6.79h-.36V42.6h.36V36.68Zm-6-.83H48.45v-.7h13.1Zm-25.76,3h2.64v2.35H35.79Z"/><rect class="cls-2" x="38.43" y="53.78" height="0.63"/><path class="cls-2" d="M107.54,41l-5.69-2.85v5.7l-2.08,1H81.7V36.34H80.06v.34H77.42v8.2H74.58v1.28h-13v-.42H41.41v.42h-3v1.78h10v2.34h5.91v1.43h7.19v2.07H54.36v.62h7.19v.75H54.36V57.6H48.75V55.15h5.61V54.4H38.43v.41h0V54.4H34.14v.41H26.46V81.54l3-1.51,1.42-.71L34,77.76l.11-.06,2.09-1,.06,0,5.15-2.58,3.87-1.94H41.44V71.2H47V66.9h1.45v3.65h0V66.9h.3V65h-.3V64.2h.3V62.29h5.61V64.2h6.78L65,62.29h0l.32-.16H61.55V62h4l11.91-6h0l24.43-12.21h0ZM77.42,47.58v.69H69v-.69Zm0,.69v-.69h2.64v.69ZM47,62h1.45v.26H47ZM34.14,55.73h4.29v3.55H34.14ZM48.45,65H47V64.2h1.45Zm20.43-4.64H61.55v0H54.36v.79H48.75v-.79h5.61v0h7.19V58.57H72.38Zm8.54-4.27v-.81h0v.81l-.9.45H74.58v1l-.24.12H69V56.51h5.61V55.25h2.84v-.1h0v.1H79Z"/><polygon class="cls-2" points="81.7 28.08 81.7 29.69 84.92 29.69 81.7 28.08"/><polygon class="cls-2" points="47.14 71.2 47 71.2 47 71.27 47.14 71.2"/><rect class="cls-2" x="41.41" y="19.95" width="5.59" height="10.39"/><rect class="cls-2" x="77.42" y="33.8" width="2.63" height="2.54"/><polygon class="cls-2" points="77.42 30.25 77.42 32.79 81.7 32.79 81.7 29.69 80.06 29.69 80.06 30.25 77.42 30.25"/></g></g></svg>