<svg xmlns="http://www.w3.org/2000/svg" viewBox="0 0 134 82"><defs><style>.cls-1{fill:none;opacity:0.12;}.cls-2{fill:red;}</style></defs><title>アートボード 120</title><g id="comon"><g id="共通装飾品"><rect class="cls-1" width="134" height="82"/><rect class="cls-2" x="51.6" y="62.87" width="2.61" height="2.07" transform="translate(-0.18 0.15) rotate(-0.16)"/><rect class="cls-2" x="53.55" y="65.98" width="2.12" height="0.04" transform="matrix(0.01, -1, 1, 0.01, -12.07, 119.78)"/><polygon class="cls-2" points="59.14 70.85 66.11 70.96 66.45 70.8 66.48 68.9 59.17 68.78 59.14 70.85"/><rect class="cls-2" x="44.64" y="51.07" width="4.47" height="2.64" transform="translate(-5.79 98.97) rotate(-89.67)"/><polygon class="cls-2" points="45.62 27.68 57.35 27.84 40.11 18.94 40.01 26.82 45.63 26.89 45.62 27.68"/><polygon class="cls-2" points="49.85 62.56 49.83 60.57 46.82 60.6 46.84 62.16 44.19 62.19 44.2 62.9 44.24 62.9 44.23 62.61 49.85 62.56"/><rect class="cls-2" x="39.47" y="58.71" width="1.13" height="2.64" transform="translate(-20.42 99.42) rotate(-89.38)"/><polygon class="cls-2" points="10.48 28.26 10.48 28.26 10.47 26.93 10.47 26.93 10.48 28.26"/><rect class="cls-2" x="77.19" y="44.86" width="13.16" height="0.26" transform="translate(-0.53 1.01) rotate(-0.69)"/><polygon class="cls-2" points="65.52 24.81 65.52 24.81 65.52 25.38 62.81 25.37 62.81 25.49 78.74 25.58 78.73 26.31 91.89 26.38 91.93 18.76 91.93 18.76 91.89 25.52 65.52 25.38 65.52 24.81"/><rect class="cls-2" x="18.13" y="45.12" width="5.61" height="1.92" transform="translate(-0.1 0.04) rotate(-0.12)"/><polygon class="cls-2" points="54.93 18.69 54.93 17.99 54.93 17.99 54.93 18.69 54.93 18.69"/><polygon class="cls-2" points="80.32 44.87 80.32 43.21 75.28 43.2 75.27 42.96 60.67 43.16 60.7 45.08 53.63 45.18 53.66 47.1 40.5 47.29 40.51 47.8 38.19 47.76 38.16 49.69 43.77 49.78 43.8 48.01 60.73 47.77 60.76 49.63 75.36 49.42 75.3 44.85 80.32 44.87"/><polygon class="cls-2" points="26.31 49.77 26.31 50.2 29.32 50.18 29.39 60.61 36.69 60.56 36.62 49.7 26.31 49.77"/><rect class="cls-2" x="8.73" y="20.43" width="6.13" height="2.64" transform="translate(-10.07 33.33) rotate(-89.44)"/><polygon class="cls-2" points="35.98 30.78 36 29 36 29 35.98 30.78 35.98 30.78"/><polygon class="cls-2" points="14.14 24.84 15.02 24.83 15.03 25.44 15.03 25.44 15.02 24.83 20.48 24.79 20.43 18.67 18.78 18.68 18.78 17.98 20.43 17.97 20.41 15.28 18.76 15.29 18.68 3.28 19.45 3.29 17.82 2.45 17.81 3.27 18.15 3.27 13.99 3.3 14.14 24.84"/><rect class="cls-2" x="20.09" y="24.18" width="0.13" height="2.64" transform="translate(-5.39 45.61) rotate(-89.9)"/><polygon class="cls-2" points="28.41 28.29 33.09 28.26 33.08 26.93 37.38 26.9 37.38 26.28 34.73 26.29 34.73 25.56 31.88 25.57 31.88 25.57 31.88 25.57 31.88 25.57 28.39 25.6 28.41 28.29"/><rect class="cls-2" x="20.6" y="26.48" width="0.74" height="4.3" transform="translate(-7.89 49.28) rotate(-89.35)"/><polygon class="cls-2" points="60.49 18.52 89.57 18.86 89.58 18.5 88.92 18.16 60.5 17.82 60.49 18.52"/><rect class="cls-2" x="55.07" y="15.3" width="2.64" height="2.69" transform="translate(-0.23 0.8) rotate(-0.82)"/><rect class="cls-2" x="34.08" y="3.28" height="12.02"/><polygon class="cls-2" points="50.86 75.91 53.28 74.66 50.85 74.69 50.86 75.91"/><polygon class="cls-2" points="31.41 67.06 31.41 67.04 30.09 67.05 27.72 67.03 27.68 62.56 20.38 62.62 20.41 67.09 27.57 67.03 27.57 67.07 25.8 67.08 25.81 68.86 30.09 68.83 31.36 68.84 31.4 68.82 31.42 68.82 31.42 68.81 34.93 67.09 31.41 67.06"/><polygon class="cls-2" points="64.58 74.15 64.58 74.39 64.58 74.39 64.58 74.15 64.58 74.15"/><polygon class="cls-2" points="25.75 71.65 24.92 71.66 24.27 71.65 24.27 71.67 20.13 71.74 20.16 73.23 22.76 73.19 22.78 74.15 25.79 74.1 25.77 73.16 30.58 73.22 30.6 71.74 25.75 71.67 25.75 71.65"/><polygon class="cls-2" points="81.55 26.94 81.56 26.34 65.63 26.28 65.63 26.9 78.59 26.95 78.58 28.23 62.65 28.03 62.64 28.77 98.78 29.23 98.8 27.96 93.19 27.88 93.2 27.09 81.55 26.94"/><rect class="cls-2" x="11.8" y="70.91" width="5.61" height="0.55" transform="translate(-0.47 0.1) rotate(-0.38)"/><polygon class="cls-2" points="67.24 49.67 65.54 49.66 65.54 49.75 56.76 49.73 56.76 50.16 54.55 50.19 54.61 54.66 56.75 54.63 56.73 60.59 51.12 60.58 51.12 62.56 67.42 62.6 69.89 61.37 69.91 49.76 67.08 49.75 67.24 49.67"/><rect class="cls-2" x="79.55" y="49.67" width="5.61" height="7.88" transform="translate(-0.28 0.44) rotate(-0.3)"/><polygon class="cls-2" points="73.24 57.82 73.8 57.54 73.24 57.54 73.24 57.82"/><polygon class="cls-2" points="54.27 71.71 54.27 71.71 54.28 74.16 54.77 74.16 60.14 71.44 54.27 71.47 54.27 71.71"/><rect class="cls-2" x="20.34" y="70.91" width="6.33" height="0.55" transform="translate(-0.18 0.06) rotate(-0.15)"/><rect class="cls-2" x="86.27" y="37.21" width="1.33" height="5.61" transform="translate(46.16 126.6) rotate(-89.5)"/><rect class="cls-2" x="16.02" y="56.22" width="4.83" height="1.65" transform="matrix(0, -1, 1, 0, -38.65, 75.36)"/><rect class="cls-2" x="54.16" y="63.08" width="2.07" height="1.65" transform="matrix(0.02, -1, 1, 0.02, -9.59, 118.07)"/><rect class="cls-2" x="9.15" y="60.6" width="1.65" height="1.56" transform="translate(-0.75 0.13) rotate(-0.7)"/><polygon class="cls-2" points="20.66 47.81 16.36 47.81 16.36 50.16 18.02 50.16 18.02 49.74 20.66 49.73 20.66 47.81"/><rect class="cls-2" x="3.9" y="59.47" width="4.68" height="1.13" transform="translate(-1 0.11) rotate(-0.96)"/><polygon class="cls-2" points="52.47 67.07 50.82 67.06 50.82 64.95 46.14 64.93 46.13 68.83 52.46 68.85 52.47 67.07"/><polygon class="cls-2" points="16.15 47.06 11 47.04 12.33 47.02 12.3 45.1 9.65 45.14 9.69 47.04 5.84 47.02 5.84 47.79 16.15 47.83 16.15 47.06"/><polygon class="cls-2" points="49.13 76.85 49.81 76.86 50.46 76.53 49.13 76.53 49.13 76.85"/><polygon class="cls-2" points="48 76.86 48.01 77.22 48.05 77.2 48.04 76.86 48 76.86"/><polygon class="cls-2" points="81.29 30.53 58.56 30.29 58.55 30.98 64.09 31.04 64.09 34.55 80.02 34.55 80.02 31.21 82.67 31.24 81.29 30.53"/><polygon class="cls-2" points="47.37 44.88 47.39 43.21 58.54 43.15 58.53 41.37 52.92 41.4 52.91 40.66 49.84 40.68 49.87 38.03 47.63 38 56.04 38.04 56.05 37.29 35.83 37.2 35.82 37.95 43.16 37.98 43.13 40.71 38.31 40.74 38.32 43.26 43.1 43.23 43.08 44.87 36.32 44.81 36.31 45.07 46.63 45.16 46.63 44.9 44.73 44.89 44.73 44.85 47.37 44.88"/><polygon class="cls-2" points="89.62 60.63 90.4 60.23 89.61 60.24 89.62 60.63"/><polygon class="cls-2" points="15.23 80.37 17.71 79.16 15.24 79.13 15.23 80.37"/><rect class="cls-2" x="62.72" y="73.18" width="0.04" height="0.97" transform="matrix(1, -0.01, 0.01, 1, -0.49, 0.42)"/><rect class="cls-2" x="47.61" y="71.56" width="0.24" height="0.04" transform="translate(-24.24 118.71) rotate(-89.53)"/><polygon class="cls-2" points="15.93 74.63 15.89 74.63 15.89 74.11 9.55 74.19 9.58 76.57 15.95 76.49 15.93 74.63"/><rect class="cls-2" x="47.15" y="69.85" width="2.07" height="0.04" transform="translate(-22.32 117.13) rotate(-89.25)"/><rect class="cls-2" x="0.77" y="62.16" width="4.68" height="0.71"/><polygon class="cls-2" points="22.74 36.75 22.75 37.38 24.68 37.34 24.68 37.84 29.36 37.87 29.36 37.27 30.32 37.25 33.66 37.27 33.66 37.19 38.68 37.11 38.67 36.67 51.1 36.56 51.09 34.49 37.93 34.6 37.95 36.5 31.02 36.61 31.03 34.56 33.67 34.57 33.7 30.81 24.72 30.75 24.68 36.72 22.74 36.75"/><rect class="cls-2" x="75.06" y="31.37" width="1.36" height="14.61" transform="translate(36.25 113.99) rotate(-89.38)"/><polygon class="cls-2" points="8.89 36.62 8.9 34.55 8.9 34.55 8.89 36.62 8.89 36.62"/><polygon class="cls-2" points="45.93 18.32 45.93 18.69 46.65 18.69 45.93 18.32"/><polygon class="cls-2" points="133.22 39.21 113.01 39.37 113.02 40.71 98.41 40.83 98.42 41.56 131.21 41.3 133.23 40.27 133.22 39.21"/><polygon class="cls-2" points="72.52 10.9 68.66 10.86 68.68 8.93 58.43 3.65 58.3 15.17 81.33 15.44 72.52 10.9"/><polygon class="cls-2" points="10.08 2.47 8.44 1.63 8.43 3.27 10.08 3.29 10.08 2.47"/></g></g></svg>