<svg xmlns="http://www.w3.org/2000/svg" xmlns:xlink="http://www.w3.org/1999/xlink" viewBox="0 0 290 40"><defs><style>.cls-1,.cls-3{fill:none;}.cls-2{clip-path:url(#clip-path);}.cls-3{opacity:0.17;}.cls-4{fill:#fff;}</style><clipPath id="clip-path"><rect class="cls-1" x="-1593.94" y="-109.94" width="1280" height="1478.34"/></clipPath></defs><title>アートボード 15</title><g id="contents"><rect class="cls-3" width="290" height="40"/></g><g id="modal_comment7のコピー"><path class="cls-4" d="M28.5,16.34l-1.35-.9-1.4-1-1.4-1.11-1.81,0-1.64-.5L19,12.75,17.55,14l-1.4,1.05-1.28,1.26L14.12,18,14,19.81l0,1.87,1.1,1.52,1.14,1.36,1.33,1.24,1.72.6,1.79.91,1.65-.79L24.3,26l1.55-.6,1.31-1,1.11-.75.08,1.59L28.72,27l-.32,1.69.22,1.71.26,1.72-.76,1.68.51,1.73-.22,1.74-2,.32-1.89.13-1.79,1-1.93.06-1.91-.38-1.82.38-1.77-.47-1.89,0-1.57-1-1.58-.88-1.78-.55L7.2,34.43l-1.63-.91L4.27,32.2l-.48-1.91-1-1.51-1-1.5L1,25.61l.27-1.92L.64,22,0,20.15l.51-1.77L.29,16.55,1.54,15l.22-1.76.35-1.79L3.49,10.2,3.9,8.34l1.57-1L6.64,6,8,4.87l1.59-.76,1.34-1.19,1.69-.53,1.57-.86,1.75-.3,1.8.32,1.71-.25L21.22,1,23,1.36l1.72.56,1.75.33,2,.17,0,1.8L28.39,6,28.11,7.7l.75,1.72-.67,1.75.68,1.72-.19,1.75Z"/><path class="cls-4" d="M75.22,19.91l-.13,1.79.23,1.85-.2,1.84-.54,1.77-.91,1.62-1.14,1.44-1.31,1.26-1,1.55-1.54,1-1.25,1.34-1.75.55-1.57.84-1.67.64-1.67.71-1.8.2L57.27,39l-1.84-.57-1.79-.13L51.88,38,50,38.16l-1.66-.79-1.72-.52-1.51-1-1.63-.73-1.64-.82-1.58-1-1.08-1.52-.63-1.77L37,28.85l-.57-1.76-.39-1.8-.66-1.72.12-1.85-.15-1.81-.28-1.85.5-1.79.92-1.63.22-1.82,1-1.53.52-1.79,1-1.51,1.44-1.14,1-1.62,1.72-.75,1.72-.61,1.42-1.2,1.63-.84,1.93.22,1.64-1,1.86.36,1.78-.33,1.77.45L59,1.31l1.79.28,1.75.48,1.52,1.05,2,.1,1.48,1.1,1.24,1.37,1.46,1.08,1.08,1.45.8,1.63L73.78,11l.38,1.84.54,1.74.87,1.68-.4,1.89Zm-26.84.19L48.53,22l1,1.59,1.17,1.31,1.38,1,1.55.8,1.75.46,1.89.09,1.61-1,1.65-.91.79-1.72,1-1.62.09-1.9-.24-1.87-.86-1.66L60.42,15l-1.71-.71L57.29,13l-1.86-.3-1.89.16L52,14l-1.65.89-1,1.6-.88,1.7Z"/><path class="cls-4" d="M84.74,1.28h2l1.69.14,1.7,0,1.69.19L93.47,2l1.7-.56,1.7.41,1.52-.05.43,1.57.42,1.75.24,1.79,1.24,1.53v1.87l.37,1.76.48,1.74.38,1.75.8,1.66,0,1.86.79,1.66.46.08.23-1.7.53-1.56-.33-1.77.93-1.67.79-1.7-.25-2,1.16-1.6L107.6,7l.15-1.89,1-1.65-.18-2.31h2.2l1.92.56,1.92-.26,1.91.14,1.92-.34,1.92.42,1.73.11.39,1.6.2,1.84L123.67,7,124,8.79l.14,1.84v1.88l.07,1.85.24,1.84,1,1.71,0,1.88.45,1.8.18,1.83V25.3l.62,1.77.11,1.85.61,1.77-.19,1.91.18,1.85,1.16,1.69v2.07l-2-.17-1.82.24-1.82-.55-1.82.68-1.82-.22-1.83.13-1.89-.2,0-1.9,0-1.82-.29-1.8-.2-1.81-.3-1.8-.5-1.79.51-1.88L114,23.55l.38-1.86-.19-1.82-.87-1.71.26,0-.38,1.8-.89,1.68-.62,1.8.13,2L110.5,27l.15,2.05-1,1.7L109,32.53l-.65,1.8-.45,1.87-.2,2.25-2.21-.62-1.92.15-1.93-.24-2.13.61-.43-2-.31-1.79-.43-1.73-.58-1.7-1.06-1.55-.37-1.76L96.28,26l-.34-1.78L94.75,22.7l-.07-1.59.16-1.58-.28-1.79-1.06.16-.14,2.35.46,2.26-.73,1.67L93.43,26l-.2,1.72-.6,1.69-.13,1.74-.34,1.71.19,1.77-.48,1.7.1,1.85-1.9.15-1.82.22-1.82-.11-1.82-.65-1.82.74L81,37.57,79.18,38l.5-1.75.53-1.78.21-1.84-.54-2,.49-1.78.78-1.75.47-1.79-.34-1.93.43-1.8.72-1.75L82.15,18l.55-1.78-.19-1.9.62-1.77,0-1.88.85-1.73,0-1.88.42-1.81.61-1.8Z"/><path class="cls-4" d="M138.34,1.36l1.89-.17,1.69.86,1.69-.14,1.7-.17L147,1.37l1.7.44,1.7.2,1.91-.7-.06,2.09.51,1.72.84,1.63.57,1.72.47,1.73.08,1.84.18,1.81,1,1.6,0,1.87.49,1.74,1.1,1.51h-.22l.63-1.43.35-1.6-.14-1.73.87-1.68.28-1.85.27-1.86L160.6,8.8,161.18,7l.36-1.84.33-1.85.81-1.45,1.67-.62,1.92.5,1.91-.53,1.92-.05L172,1.11l1.92.29,2.11-.06L176,3.42l.48,1.8L177.14,7,177,8.87l.26,1.82-.09,1.89.95,1.72-.06,1.88.15,1.84.42,1.81,1,1.71.09,1.85.11,1.86.2,1.84.45,1.8.55,1.78-.53,2,.88,1.73.14,1.86,0,1.58H180l-1.82.68-1.82-.17-1.82.23-1.82-.6-1.83.6L169.09,38l-.49-1.77-.33-1.8.17-1.84-.18-1.81L168,29l.42-1.87-.76-1.77.47-1.87-.37-1.8-.38-1.8.12-1.87-.17.2-.63,1.67-.35,1.85-.29,1.9-.73,1.77-1.08,1.65-.12,2-1,1.68-.83,1.73.1,2-.43,1.87-1.21,1.36-1.68.82-1.93-.42-1.92.42-2.08-.26-.24-2-.27-1.79L151.3,33l.12-1.92-1.08-1.54-.42-1.75L149.71,26l-.42-1.75-1.06-1.56-.18-1.57-.1-1.55L147.83,18l-.64,0,0,2.27.13,2.24-.15,1.72-.64,1.69.32,1.77L146,29.36,146,31.1l-.22,1.72-.08,1.75-.36,1.71-.12,1.49-1.57-.08-1.82.36L140,37.78l-1.82.53-1.82-.42-1.83-.11-1.87.3.26-1.86.44-1.8.21-1.84-.17-1.89L134.59,29l.12-1.85.41-1.81-.29-1.91.19-1.84.82-1.74.3-1.82.45-1.8-.09-1.89.28-1.82.41-1.8,0-1.87L138,7.13l-.31-1.93.21-1.82Z"/><path class="cls-4" d="M186.68,1.72l1.59-.32L190,1.29l1.74-.11,1.74.55,1.74-.62,1.74.48,1.74-.25,1.74.43,1.74-.53,1.74.2,1.75-.29,1.74.76,1.75,0,2-.53-.55,2.24-.19,2,.17,2,.63,2-.52,1.82-1.66.33-1.85-.35-1.85.58-1.85-.16-1.86-.47-1.53.59-.42,1.39-.16,2,1.94-.14,1.69-.45,1.69.45,1.69-.26,1.7.1,1.8-.05.25,2-.81,1.89.44,1.9-.21,1.89.16,1.85-1.62.55-1.69-.24-1.69-.18-1.69.26L201.5,24l-1.63.54.23,1.72L200,27.83l1.68.08,1.91.1,1.92.51,1.91-.81,1.92.81,1.63-.15.53,1.71-.5,2,.33,2-.26,2-.05,1.78-1.53,0-1.76.52L206,37.9l-1.77.32-1.77.11-1.76-.71-1.77.62-1.77-.6-1.77.89-1.77-.18-1.77-.65-1.77-.06-1.77.26L186.6,38l-.43-1.75.67-1.82.15-1.82V30.77l-.19-1.83-.58-1.82.1-1.82.35-1.82-.13-1.83-.11-1.82.1-1.82.38-1.82-.78-1.83.05-1.82.06-1.82-.15-1.83V7.07l.39-1.83-.41-1.85Z"/><path class="cls-4" d="M217.63,1.22l2.16.83,1.8-.46,1.81-.42,1.8.73,1.81.15,1.81-.74,1.88.15.49,1.88,1.55,1.17.66,1.7L234,8l1.4,1.26,1,1.5.84,1.59.33,1.9,1.69,1.1.21,2,.79,1.63,1,1.54,1.64,1,.47.51-.55-2.09L242.63,18l-.21-1.85-.18-1.84-.38-1.84-.58-1.82L242,8.87l-.53-1.82,0-1.82,0-1.83.23-1.9h1.87l1.8.12,1.8-.4,1.79.74,1.81-.68,1.8.52,1.52.06.74,1.54-.09,1.82,0,1.82-.49,1.82-.4,1.82.51,1.82-.21,1.83.28,1.82L254.09,18l.31,1.83-.18,1.82.53,1.82-.58,1.82.14,1.82-.25,1.83.4,1.83.33,1.82L254,34.39l0,1.83.18,1.58-1.55,0-1.8.62-1.8-.78-1.8.14-1.8.52-1.8-.39-1.66-.15-1.4-1.17-.27-2-1-1.55-1.51-1.26-1-1.57-.76-1.71-.74-1.74-1.5-1.27-.84-1.67-1.12-1.51-.56-1.85-1-1.62-.08.19-.23,1.69.44,1.79.5,1.81-.42,1.86.61,1.69v1.69l-.58,1.69L230.24,33l.16,1.69.16,1.7-.16,1.5-1.61.7H227l-1.8-.61-1.8.27-1.8.22-1.8-.24L218,38l.39-1.78-.09-1.82-.57-1.82.35-1.82-.6-1.83.33-1.82.33-1.82-.24-1.82.36-1.83-.6-1.82.58-1.82-.48-1.82-.24-1.83.68-1.82.17-1.82-.11-1.83-.38-1.82L218,5.24l-.18-1.82Z"/><path class="cls-4" d="M262.24,1.9l1.55-.44,1.84,0,1.85-.32,1.84.39,1.85-.08H273l1.84.25h1.85l1.85-.27,1.84.4,1.85-.57,1.85.18,1.85,0,1.85.28,1.58.14.16,1.39L290,5l-.25,1.69-.37,1.69L289.8,10l-.55,1.7.13,1.4L287.85,13l-1.83.13-1.84.43-2.08-.8.13,2.09L282,16.65l.41,1.78.37,1.78L282.19,22l-.12,1.77.52,1.79-.2,1.78-.09,1.78.45,1.78-.2,1.78-.16,1.79.16,1.79-.15,1.81-1.9-.17-1.88.58L276.74,38l-1.88.06L273,38l-1.89.38L269,38.23l.41-2,0-1.78.24-1.78,0-1.79-.3-1.78.06-1.78V25.58l.13-1.78,0-1.78L269,20.23l.26-1.78,0-1.78.34-1.79-.51-1.68-1.69.38h-1.82l-1.83-.14-1.92.09-.36-1.8.76-1.69-.62-1.69.76-1.7L262,5l-.3-1.72Z"/></g></svg>