<svg xmlns="http://www.w3.org/2000/svg" viewBox="0 0 360 72"><path fill="none" opacity=".28" d="M0 0h360v72H0z"/><path d="M1.15 1.7l2.19.6 1.87-.66 1.87.18L9 2l1.87-.21 1.87.59 1.87-.22 1.66.09.68 1.63-.12 1.84-.93 1.82.61 1.85-.37 1.84.57 1.86-.38 1.83.27 1.85-.68 1.84.08 1.87.8.24.6-1.72.27-1.79.65-1.64 1.21-1.3.33-1.79 1.49-1.14.7-1.58 1.06-1.39.51-1.68.66-1.61.9-1.48.82-1.49 1.81.27 1.86-.21 1.86.33 1.86-.59 1.87.09 1.86-.21 1.88.39 1.87-.54 2.2.18-.93 1.91L40.82 5l-1.23 1.26-.23 1.94-1.17 1.33-1 1.45-.75 1.6-1 1.43L34 15.16l-.58 1.71-1.19 1.32-.66 1.67-.83 1.56-1.21 1.3L30.77 24l.52 1.76 1.32 1.21.39 1.82 1.57 1.05.69 1.64 1.22 1.28.8 1.58 1.07 1.39L39.63 37l.7 1.64.92 1.49 1.2 1.31 1 1.42.4 1.56-1.51.58-1.78-.12-1.78-.88-1.78.62-1.78-.28-1.78.34-1.78-.43-1.78.75-1.79-.85-1.93.64-.43-2-1.34-1.35-.77-1.69-.7-1.75-1-1.54-1.13-1.48-.5-1.85-1.19-1.45-.68-1.8-1-1.52-.78-1.72-.67.09.22 1.81.14 1.77.06 1.78.07 1.78.22 1.77-.49 1.8.43 1.77-.43 1.79.06 1.79.48 2.09-2.16-.35-1.87-.44-1.86.52L9 44.07l-1.87.14-1.87-.12-1.88.32-2.06.31-.15-2 .22-1.84L1.4 39l.08-1.85.07-1.84-.5-1.85.66-1.85-.39-1.84.08-1.85.24-1.85L1 24.23l.25-1.85-.17-1.85.81-1.85-.61-1.84.21-1.84-.17-1.85.53-1.85L1 9.44l.69-1.85-.34-1.85-.13-1.83zm61.21 42.52l-1.55.47h-1.8l-1.8-.69-1.81.07-1.8.06-1.81.41-1.79-.07-1.81.35-2-.18L47.41 43l.13-1.86.91-1.59-.16-1.95 1.36-1.43-.24-2 .64-1.69L51.17 31l.55-1.71.87-1.6.2-1.83.84-1.61.52-1.73.85-1.62.58-1.7-.26-2 1.45-1.4L57 14l.94-1.58-.16-2 .83-1.62.47-1.74.84-1.62.61-1.7.79-1.34 1.62-.61 1.88.65 1.89-.8 1.88.43h1.89l1.88-.32 1.88.25 1.89.12 1.72.14 1.09 1.32.41 1.77.93 1.65.21 1.84.51 1.68.24 1.82 1.37 1.43.51 1.73.13 1.87 1.19 1.49.21 1.84.58 1.7 1 1.56.29 1.81.52 1.73.96 1.6.75 1.64-.21 2 .76 1.65L90 36l1 1.54.3 1.81.37 1.79.88 1.61.61 1.87-1.94-.06-1.81-.39-1.8.66h-1.8L84 44.29h-1.8l-1.81.5h-1.73l-1.52-.71L76 42.86l.17-1.94-.92-1.45-1.76-.07-1.93-.07-1.93-.4-1.93.27h-1.94l-1.71.36-1 1.37.28 2zm10.7-14.81l-.91-2.1-.4-1.89.15-2-.52-1.86-.46-1.78L70.2 18l-.2-1.87-.34.18-.47 1.76-1.07 1.7.08 1.95-.74 1.78.37 2-1.2 1.68.37 1.63 1.68-.11 2 .57zm65.01-9.65l.05 1.51-.5 1.75.06 1.75.63 1.83-1.09 1.63v1.8l-.91 1.54-.41 1.71-.9 1.49-.7 1.66-1.45 1.07-1.3 1.25-1 1.64-1.81.6-1.6.83-1.53 1-1.51 1.14-1.81.38-1.73.6-1.8.37-1.85-.1-1.82-.23-1.78.16-1.82.25-1.74-.49h-1.84l-1.61-.92-1.46-1.13-1.73-.44-1.69-.64-1.49-1-1.56-.94-1.05-1.5L96.06 37l-.86-1.59-.91-1.52-1.1-1.47-.79-1.65-.47-1.77-.19-1.82.35-1.84-.53-1.78.77-1.79.21-1.77.17-1.79-.25-1.95 1.26-1.48.62-1.7.8-1.62 1.12-1.41 1-1.55 1-1.58 2-.43 1.21-1.4 1.51-1 1.69-.66 1.83-.23 1.5-1.4 1.85-.12 1.76-.55L113.4 1l1.83.59 1.73.14 1.8-.36 1.75.24 1.73.37 1.61.79 1.61.71 1.6.72 1.47.94 1.52.85 1.72.63.94 1.6 1.48 1 .62 1.7 1.41 1.69-2 .47-1.78.7-1.77.71-1.88.41-1.71.91-1.83.54-1.91.36-1.71 1.14-1.42-1.34-1.14-1.23-1.61-.52-1.68-.08-1.78-.3-1.9.27-1.39 1.35-1.16 1.39-1 1.52-1.15 1.52v1.9l-.08 1.82.53 1.85-.07 2 1.38 1.43.61 1.95 1.66 1.08 1.82.72 1.93.55 1.82-1.05 1.72-.65 1.54-1 1-1.3-1.65-.4-1.73.38-1.74-.12-1.53-.3-.24-1.44.46-1.67-.83-1.65.67-1.68-.67-1.67.13-2h2.1l1.82-.16 1.82.82 1.82-.45 1.82-.2 1.82.28 1.82.4 1.83-.11 1.82-.15h1.82l1.83-.56 1.85.15zm14.72 24.43l-1.53.56-1.81-.64-1.8.68-1.81-.79-1.8.83-1.81-.33-1.8-.43h-1.81l-2 .58.67-1.84.82-1.61.74-1.65.63-1.68.21-1.83.15-1.85.58-1.7 1.58-1.38V29.2l.59-1.69.91-1.59V24l1.33-1.44-.13-1.95.88-1.6.78-1.63.61-1.68.77-1.64.67-1.67.65-1.68.5-1.71-.24-2 1.3-1.45.47-1.75.42-1.75 1.86-.45 1.89.61 1.88-.33 1.88.56 1.89-.21 1.88-.23 1.89-.11 1.89.51 1.78-.21.88 1.46.11 1.88L170.69 7l.61 1.69-.1 1.95.49 1.74 1.31 1.41.43 1.76.67 1.67.62 1.7.8 1.63.35 1.78.68 1.68.12 1.87 1 1.56.52 1.72.13 1.87.74 1.66 1.07 1.53.53 1.72v1.92l.6 1.7.6 1.71.93 1.59.57 1.57-1.65.48-1.81-.55-1.8.53-1.8-.23-1.81.37-1.8-.79-1.81.35-1.81-.09h-1.75l-.09-1.8-1.23-1.61-.15-1.83-1.85-.47-1.93.56-1.94.28-1.93-.58h-1.94l-2.26-.22v2.2l-.08 1.89zm10.73-14.76l-1-2.11.17-2-1.11-1.72.28-2-1.2-1.63v-4l-1.25.09.2 2.11-.52 1.82-.65 1.8-.55 1.81-.45 1.85v1.94l-.06 1.53 1.7-.16 2 1zm24.06-27.22l1.69-.21 1.87-.22 1.87.59 1.87-.59h1.87l1.87.48 1.87-.54 2 .12-.47 2 .15 1.84-.29 1.83v3.69l.71 1.85-.95 1.83.69 1.86-.53 1.84-.28 1.93 1.12.17v-2l.68-1.65.86-1.53 1.46-1.16.12-1.9.73-1.56.94-1.45 1-1.43 1-1.4.85-1.5 1.05-1.4.55-1.7 1.87.38h1.86l1.86-.19 1.86.33 1.86-.7 1.86.45 1.86-.72 1.87.25 1.58.4-.36 1.49-1.41 1.17-.9 1.51-.9 1.5-.94 1.48-1.06 1.39-.89 1.52-.71 1.63-1 1.45-.78 1.59-1.13 1.35-1.13 1.37-1.09 1.35-1.13 1.69 1.7 1.29.41 1.84.92 1.49 1.04 1.41 1 1.42 1.19 1.29.62 1.7 1.28 1.24 1.24 1.27.81 1.57.57 1.74 1.65 1 .54 1.75 1 1.46 1.14 1.4-1.82.33-1.78-.33-1.73-.56-1.78.31-1.78.13-1.78.21-1.78-.25-1.79-.35-1.78.06-1.86.5-.61-1.86-1.1-1.49-.83-1.65-.93-1.6-1.12-1.48-1.14-1.47-.94-1.6-.72-1.72-1.12-1.5-.41-1.93-.92-1.6-.65-.09.38 1.84.36 1.77-.33 1.78-.2 1.79.09 1.78.62 1.77-.32 1.78.3 1.78-.24 1.79.33 2.1h-2.16l-1.87-.15-1.87.26-1.87-.61-1.86.61-1.87-.37h-1.88l-2 .13-.34-2 .55-1.84.08-1.84-.52-1.85-.1-1.84.83-1.85-.39-1.85-.39-1.83.27-1.85.27-1.85.28-1.84-.82-1.85.47-1.85.27-1.85v-1.84l.12-1.85-.17-1.85-.69-1.85.17-1.85.12-1.85.39-1.85-.34-1.86zM273 1.79l-.71 2 .49 1.8.47 1.79-.8 1.8.12 1.79-.08 1.79-.18 1.8.16 1.79.18 1.79.42 1.8-.69 1.8.45 1.8-.33 1.8.72 1.8-.72 1.86.26 1.83-.21 1.81-1.26 1.5-.4 1.73-.71 1.63-.93 1.5-1 1.57-1.5 1.05-1.63.77-1.64.67-1.67.54-1.72.36-1.54 1.31-1.8.14-1.82-.3-1.78.18-1.73-.29-1.83.38-1.59-1.05-1.73-.27-1.91.18-1.68-.69-1.27-1.55-1.78-.52-1.35-1.17-1.19-1.31-.7-1.68-.91-1.51-1.11-1.48-.46-1.76.14-1.85-.26-1.72-.29-1.78.62-1.79v-1.8l-.17-1.79.18-1.8-.42-1.79.1-1.79-.24-1.8.11-1.79-.47-1.8.23-1.79.57-1.8.07-1.8.08-1.8-.27-1.6 1.48-.41L237 2l1.7-.29 1.71.11 1.7.07 1.71.26 1.71-.55 1.71.44 1.81-.09.2 1.92-.54 1.82.7 1.82-.78 1.82.29 1.81-.13 1.82-.29 1.82.55 1.82.32 1.83-.15 1.82-.22 1.8-.45 1.83.62 1.82-.55 1.79.94 1.64v2l1.92.31 1.64.33L255 32l1.33-1.26.49-1.61.56-1.67-.28-1.77.22-1.82-.32-1.8.75-1.83-.14-1.81-.47-1.82v-1.82l.48-1.82.3-1.82-.38-1.82.4-1.82-.05-1.83-.44-1.82.25-1.61 1.46-.55 1.71.69 1.7-.84 1.71.42 1.7-.2 1.71.31 1.71-.51 1.69.16zm6.08.45l1.56-.09 1.78-.26 1.79-.32 1.78.7h1.79l1.79-.22h1.79l1.79.11 1.79.06 1.79-.57 1.78.29 1.73.74 1.87-.7 1.61 1.1 1.74.3 1.87.1 1.31 1.34 1.71.71 1.17 1.41.36 1.84.89 1.53.85 1.68-.74 1.84.48 1.86-.49 1.8-1.27 1.4-.6 1.84-1.61 1-1.52.88-.43.42 2 .61 1.66.95 1.82.88 1 1.75 1 1.72v2l.05 1.9.34 1.85-.94 1.64-.57 1.67-.73 1.7-1.19 1.44-1.66.83-1.55 1-1.79.42-1.82.13-1.68.77-1.82.06-1.8-.11-1.74.54-1.74-.56-1.74.34-1.74.44-1.74-.15-1.74-.6-1.74-.16-1.74.1-1.74.34-1.75-.11-1.75.14-2.1.32.19-2.19.24-1.84.34-1.84.07-1.85v-1.84l-.39-1.85.2-1.85.23-1.84-.45-1.85-.26-1.85.05-1.84-.23-1.85v-3.71l.4-1.84v-1.85l.24-1.85-.58-1.85.29-1.85-.06-1.85.49-1.85-.79-1.88zm15.41 16.44l1.65-.26 1.51-.65.85-1.18 1-1.37-.4-1.78-1.54-.91-1.7-.23-1.7-.12h-1.21l.54 2.11-.25 2-.56 2.28zm-1.62 15.92l2-.09 2-.32 1.84-.7 2-.59.6-2.07-.58-1.63-1.21-1.13-1.54-.64-1.66-.23-1.66.53-1.4-.3-.6 1.67.9 1.76-.78 1.74zM358.5 2.07l-.5 1.75.44 1.8.45 1.79-.26 1.8V11l-.21 1.79.12 1.8-.36 1.79.82 1.79-.24 1.8-.22 1.8-.42 1.8.57 1.8-.63 1.8.17 1.78.12 1.8-.84 1.65.33 1.94-1.29 1.42-.12 2-1.5 1.15-1.08 1.43-1.45 1-1.29 1.29-1.8.41-1.46 1.16-1.72.56-1.77.33-1.84-.32-1.78-.08-1.76.44h-1.78l-1.78-.08-1.79-.11-1.63-.68-1.84-.08-1.67-.69-1.65-.77-1-1.66-1.47-1-1.07-1.39-1.16-1.33-.68-1.63-1.23-1.44.17-1.9-1.11-1.62.55-1.86-.38-1.77.28-1.79-.27-1.8.44-1.79-.07-1.8-.84-1.74v-1.79l.29-1.8-.15-1.79L319 11l.18-1.79.53-1.8-.66-1.8.17-1.8.25-1.76 1.66.43 1.7-.87 1.7.37 1.71.14 1.71-.4 1.7.18 1.71.43 1.71-.46 2-.15.07 2.11-.68 1.82-.05 1.82.45 1.82-.42 1.81-.13 1.82.73 1.82-.71 1.82.07 1.83.31 1.82-.25 1.82.66 1.83-.08 1.82-.52 1.78.81 1.66.44 1.66 1.47.9 1.72-.1 1.6-.31 2-.19.12-2 .86-1.66-.24-1.79.14-1.82-.68-1.81v-1.83l.52-1.81-.33-1.82.73-1.82V12.9l-.68-1.75V9.33l.15-1.82.31-1.83-.2-1.82.1-1.69 1.55.11 1.7-.64 1.7.34 1.71.07 1.71-.2 1.7.58 1.71-.82 1.71.65zM2.06 61.16h2.29c2.71 0 4.26 1.51 4.26 4.41s-1.55 4.48-4.19 4.48H2.06zm2.19 7.74c1.9 0 2.92-1.12 2.92-3.33s-1-3.27-2.92-3.27h-.8v6.6zm6.08-5.49h1.13l.1 1.19a2.27 2.27 0 0 1 1.87-1.36 1.76 1.76 0 0 1 .75.14L14 64.59a1.94 1.94 0 0 0-.66-.11c-.54 0-1.18.38-1.6 1.43v4.14h-1.41zm4.73 5.83a.93.93 0 1 1 1.85 0 .93.93 0 1 1-1.85 0zm3.25-.34l.82-1a3.42 3.42 0 0 0 2.35 1c1.07 0 1.67-.5 1.67-1.25s-.6-1.06-1.42-1.43l-1.22-.53a2.56 2.56 0 0 1-1.8-2.33 2.63 2.63 0 0 1 2.9-2.36 3.79 3.79 0 0 1 2.68 1.12l-.73.9a2.78 2.78 0 0 0-1.95-.8c-.9 0-1.48.44-1.48 1.15s.7 1 1.42 1.34l1.22.52a2.48 2.48 0 0 1 1.8 2.4c0 1.42-1.18 2.58-3.11 2.58a4.42 4.42 0 0 1-3.15-1.31zM28 62.33h-2.55v-1.17H32v1.17h-2.57v7.72H28zm5.08 3.24c0-2.86 1.58-4.58 3.84-4.58s3.86 1.72 3.86 4.58-1.59 4.63-3.86 4.63-3.84-1.77-3.84-4.63zm6.27 0c0-2.09-1-3.36-2.43-3.36s-2.41 1.27-2.41 3.36 1 3.41 2.41 3.41 2.43-1.32 2.43-3.41zm3.27-4.41h1.43L47 66.38l.93 1.88H48c-.07-.92-.18-2-.18-3v-4.1h1.28v8.89h-1.43l-2.93-5.24-.92-1.81h-.06c.07.92.18 1.94.18 2.91v4.19h-1.32zm8.81 0h5.22v1.17h-3.83v2.48h3.24V66h-3.24v2.87h4v1.19h-5.39zm10.51 6.15a16.81 16.81 0 0 0-.94-1.6V71h-1.08v-4.9a11.32 11.32 0 0 1-1.54 2.81 6.43 6.43 0 0 0-.54-1 11.83 11.83 0 0 0 1.92-3.53H58v-1.09h1.92v-1.62l-1.51.24a3.63 3.63 0 0 0-.31-.91 18 18 0 0 0 3.81-1l.64.92a11.41 11.41 0 0 1-1.55.46v1.85h1.68v1.05H61v.17c.36.37 1.38 1.6 1.61 1.92zm5.62.59V71h-1.1v-2.9l-3.78.64-.17-1.07 3.95-.67v-7.08h1.1v6.89l1.31-.22.17 1zM65 66.27a10.35 10.35 0 0 0-2-1.8l.71-.65a11.47 11.47 0 0 1 2.06 1.71zm.3-3.18a10.24 10.24 0 0 0-1.86-1.75l.73-.64A9.75 9.75 0 0 1 66 62.38zm15.49 4.63h-4.73v2c0 .62-.16.93-.65 1.1a8.18 8.18 0 0 1-2.25.17 6.69 6.69 0 0 0-.46-1.09h1.92c.24 0 .3-.06.3-.24v-2h-4.68v-1h4.68v-.83h.56a9.77 9.77 0 0 0 1.36-.91h-4.56V64h5.62l.25-.06.72.55a10.83 10.83 0 0 1-2.81 2.07v.16h4.73zm-9.31-3.08h-1v-2.77h1.73a7.85 7.85 0 0 0-.94-1.38l1-.44a7.63 7.63 0 0 1 1.12 1.62l-.43.2h2.14a9.53 9.53 0 0 0-.84-1.65l1-.36a7.19 7.19 0 0 1 1 1.78l-.59.23h2A11.79 11.79 0 0 0 78.8 60l1.18.37c-.35.52-.74 1.06-1.11 1.51h1.73v2.77h-1.1v-1.79h-8zM82 64.48h6.15v1H82zm6-2.33h-5.7v-1h2.3V60h1.08v1.19H88zm-5.23 4.29h4.79V71h-1.1v-.6h-2.67v.6h-1zm.72-2a7.88 7.88 0 0 0-.49-1.9l.93-.21a7.52 7.52 0 0 1 .52 1.85zm.31 3v1.94h2.67v-1.95zm1.93-3.23a13.53 13.53 0 0 0 .6-1.93l1.06.24c-.26.68-.53 1.43-.77 1.92zM93 61.09c-.47 1.15-1 2.53-1.56 3.58a3.87 3.87 0 0 1 1.37 2.87 1.57 1.57 0 0 1-1.41 1.95 7.82 7.82 0 0 1-1 0 2.72 2.72 0 0 0-.3-1.12 6.08 6.08 0 0 0 .82 0 1 1 0 0 0 .48-.13c.24-.15.32-.46.32-.9a3.52 3.52 0 0 0-1.42-2.58c.44-.94.9-2.21 1.24-3.15h-1.87V71h-1.09V60.62h3.6zm265.42 6.48h-2v-2h2zm-6 0h-2v-2h2zm-6 0h-2v-2h2zm-6 0h-2v-2h2zm-6 0h-2v-2h2zm-6 0h-2v-2h2zm-6 0h-2v-2h2zm-6 0h-2v-2h2zm-6 0h-2v-2h2zm-6 0h-2v-2h2zm-6 0h-2v-2h2zm-6 0h-2v-2h2zm-6 0h-2v-2h2zm-6 0h-2v-2h2zm-6 0h-2v-2h2zm-6 0h-2v-2h2zm-6 0h-2v-2h2zm-6 0h-2v-2h2zm-6 0h-2v-2h2zm-6 0h-2v-2h2zm-6 0h-2v-2h2zm-6 0h-2v-2h2zm-6 0h-2v-2h2zm-6 0h-2v-2h2zm-6 0h-2v-2h2zm-6 0h-2v-2h2zm-6 0h-2v-2h2zm-6 0h-2v-2h2zm-6 0h-2v-2h2zm-6 0h-2v-2h2zm-6 0h-2v-2h2zm-6 0h-2v-2h2zm-6 0h-2v-2h2zm-6 0h-2v-2h2zm-6 0h-2v-2h2zm-6 0h-2v-2h2zm-6 0h-2v-2h2zm-6 0h-2v-2h2zm-6 0h-2v-2h2zm-6 0h-2v-2h2zm-6 0h-2v-2h2zm-6 0h-2v-2h2z" fill="#fff"/></svg>