<svg xmlns="http://www.w3.org/2000/svg" xmlns:xlink="http://www.w3.org/1999/xlink" viewBox="0 0 60 100"><defs><style>.cls-1,.cls-5{fill:none;}.cls-2{fill:#fff;}.cls-3{clip-path:url(#clip-path);}.cls-4{fill:#7ad6ec;}.cls-5{opacity:0.28;}</style><clipPath id="clip-path"><path class="cls-1" d="M96.52,97.77a27.12,27.12,0,0,1-11.39-2.14C74.57,90.85,68.75,82.79,68.75,73c0-15,12-22.72,13.34-23.55.6-.36,1.17-.68,1.7-1,3.29-1.88,6.13-3.51,6.13-9V6.18l-1.47-.4c-.26-.08-1.15-.41-1.06-1.2.07-.58.28-2.35,9.13-2.35s9,1.77,9.12,2.35c.11.87-1,1.19-1,1.2l-1.48.4V39.47c0,5.44,2.84,7.07,6.13,8.94.54.31,1.1.63,1.7,1,1.36.83,13.34,8.55,13.34,23.55,0,9.84-5.81,17.9-16.37,22.68A27.18,27.18,0,0,1,96.52,97.77Z"/></clipPath></defs><title>アートボード 2</title><g id="フラスコ100_" data-name="フラスコ100%"><path class="cls-2" d="M45.46,47.69c-4.14-2.51-6.86-3.19-6.86-8.22V7.71s2.83-.77,2.51-3.37S38.48.23,30,.23,19.2,1.78,18.89,4.34,21.4,7.71,21.4,7.71V39.47c0,5-2.72,5.71-6.86,8.22S.23,58.54.23,73c0,10.86,6.6,19.54,17.55,24.51A29.45,29.45,0,0,0,30,99.77a29.45,29.45,0,0,0,12.22-2.31c11-5,17.55-13.65,17.55-24.51C59.77,58.54,49.6,50.21,45.46,47.69Z"/><g class="cls-3"><rect class="cls-4" x="38.02" y="-14.52" width="117" height="129.04"/></g></g><g id="フラスコ100_のコピー" data-name="フラスコ100%のコピー"><rect class="cls-5" width="60" height="100"/></g></svg>