<svg xmlns="http://www.w3.org/2000/svg" viewBox="0 0 216.19 69.38"><g data-name="レイヤー 2"><path d="M6.8.55l2-.17 1.76.76 1.75-.06L14 .75l1.77-.21 1.75.71 1.76-.36L21 .33l1.78.43.89 1.61-.39 1.92.77 1.62.82 1.61-.14 1.85 1.11 1.54-.11 1.85.53 1.68.48 1.7.26 1.77.82 1.61.18 1.76.75 1.6h.16l.82-1.75.17-1.89.1-1.89.64-1.61.73-1.58.39-1.68v-1.8L32.29 9l.61-1.62.79-1.57-.2-1.81 1.17-1.47v-2l1.91.17L38.3.48 40 .34l1.73.14 1.74.59 1.77-.76 1.76.75 1.72-.15 1.44.22.77 1.38-.23 1.85.64 1.7.44 1.73.1 1.78.36 1.75.14 1.78-.06 1.82.3 1.75.38 1.75.52 1.72.46 1.73.64 1.71v1.8l-.08 1.82.21 1.8.15 1.78.72 1.69.38 1.72.61 1.71.39 1.73.12 1.8-.44 1.88 1 2h-2.13l-1.85-.71-1.85.32-1.85.53-1.85-.13-1.85-.17-1.86-.59-1.71.27-.27-1.6-.64-1.74.65-1.85-.12-1.78-.35-1.75-.35-1.76-.18-1.78-.24-1.77.31-1.8-1-1.71.16-1.81-.5-1.75.31-1.83-.62-.19-.07 2.29-.55 2.09-.52 1.73-.3 1.81-1 1.56L37.1 31l-.71 1.67-.39 1.77-.83 1.63-.62 1.7-.75 1.66-.13 1.86-.47 1.87-1.9-.43-1.79.53-1.79-.53-1.79-.21-1.72.39-.16-1.83-.54-1.78-1.33-1.55v-2l-1-1.65-.31-1.86-.38-1.83-.83-1.71-.76-1.7-.69-1.75.15-1.9-.22-1.76-.68-1.52-.55-.5v2l.27 1.73-.51 1.7-.3 1.79.33 1.85-.17 1.81-.28 1.78v1.83l-.86 1.73-.29 1.8.36 1.86-.46 1.73.18 2-2-.66-1.85.33-1.87.15-1.86-.16-1.85-.18-1.86.42L2 42.73l-1.68.12L0 41.18l.67-1.7.46-1.72.26-1.76.46-1.73.46-1.73.13-1.78.31-1.76-.09-1.82.34-1.75.49-1.73.12-1.78-.21-1.83.34-1.76.26-1.77.91-1.65-.24-1.85.93-1.65.11-1.79V7.81L6 6.06l.8-1.68-.11-1.83zM107.18 22l.21 1.81-.54 1.75-.26 1.76-.13 1.83-.87 1.61-1.24 1.37-.57 1.71-1.24 1.29-.81 1.64-1.27 1.28-1.58.95-1.2 1.44-1.77.52-1.76.41-1.5 1.06-1.65.66-1.9-.32-1.66.91-1.83-.4-1.76.31-1.76-.44-1.81.28-1.77-.21-1.75-.37-1.58-.93-1.95.08-1.56-.94-1.38-1.18-1.57-.88-1.28-1.25-1-1.45-1.82-.77-.72-1.7-.9-1.52-1.19-1.43v-1.9l-.55-1.68-.74-1.69-.16-1.8.24-1.81-.53-1.83.51-1.77.7-1.69-.12-1.9.65-1.71 1-1.54 1-1.52 1-1.54 1.27-1.2 1-1.55 1.4-1.18 1.62-.85 1.52-1 1.91-.16L75 1.33 76.67.7l1.78-.3 1.77-.4 1.85.56 1.77-.2 1.8-.36 1.76.44h1.81l1.84.11 1.5 1.22 1.87.13 1.58.97 1.35 1.24 1.31 1.2 1.83.58 1.22 1.33.82 1.64 1.4 1.14.72 1.66 1.19 1.43.21 1.85.34 1.75.77 1.68-.16 1.86zm-31.25.22l.43 1.78.18 1.83 1 1.55 1.48 1 1.36 1.14 1.6 1.08 1.9-.19 1.87.07 1.6-1 1.49-1 1.46-1.09.43-1.8.9-1.58.53-1.82-.64-1.79-.72-1.65-.26-2-1.73-.91-1.24-1.46-1.86-.36-1.83-.58-1.88.71-1.71.65-1.51 1-1.59 1.07-.24 2-.69 1.63zM154.13.85l-.62 1.59-.51 1.74-.36 1.82-1.27 1.44-.2 1.87-1.17 1.48-.63 1.69v1.95l-1 1.57-.67 1.68-1 1.54-.69 1.68v2l-1.42 1.4.06 2-1 1.55-.65 1.56-.72 1.66-.52 1.74-.1 1.91-1.32 1.43-.52 1.75-.87 1.61v1.93l-.93 1.67-2.02-.21-1.86-.09h-1.85l-1.86.56-1.85-.16-1.87-.47-1.62-.13-1.09-1.18-.36-1.8-.24-1.85-.64-1.69-.82-1.62-.7-1.67-1.24-1.45-.14-1.89-1.17-1.46-.63-1.7-.26-1.84-.69-1.68-.49-1.78-1-1.56-.36-1.8-.94-1.57-.77-1.65-.85-1.61-.56-1.73V9.16l-1.34-1.43.19-2-1-1.54-.47-1.77-.48-1.33 1.37.13 1.77-.84 1.78.2 1.78.49 1.78.18 1.68-.67 1.8.14 1.78.43 1.92-.54.3 1.93 1 1.61.18 1.85.82 1.63v1.9l.84 1.65.39 1.79.2 1.83.45 1.77.46 1.76.95 1.62.63 1.5.38 1.57.05 1.63-.16 1.64.67.16-.21-1.78.51-1.52v-1.63l.81-1.43.41-1.77.48-1.76.26-1.81.63-1.71v-1.89l1.12-1.56.57-1.73.56-1.73.07-1.87.84-1.66.37-1.72 1.71.28 1.77-.16 1.78-.29 1.78-.31 1.78.22 1.78.54 1.78-.72 1.79.19zm6.47-.02l1.65.38L164 .65l1.7.41h1.7l1.67-.06h1.7l1.71.22 1.71-.81 1.61.44-.13 1.74v1.83l-.07 1.83.4 1.87-.46 1.88.34 1.84-.12 1.83v1.83l-.24 1.84.73 1.83-.4 1.83-.29 1.83.79 1.84-.67 1.84v1.83l.38 1.84-.57 1.82.91 1.84-.11 1.84-.56 1.83.27 1.84-.14 1.85.26 2-1.92-.32-1.7-.18-1.7.2-1.71-.09-1.7.65h-1.71L164 43.3l-1.71-.3-1.54-.15.12-1.67-.69-1.84.34-1.83-.14-1.83.11-1.83.3-1.84-.33-1.83.19-1.84-.32-1.83.5-1.84.12-1.83-.89-1.84.24-1.83.26-1.84-.23-1.83.54-1.84-.67-1.83.21-1.84-.13-1.84.18-1.84.23-1.84.11-1.84zm26.14-.01l1.74.05 1.77.39L192 .6l1.8.4 1.77.15 1.78-.15 1.77-.68 1.77.21 1.77.19 1.78.1 1.77-.16L208 .4l1.77.83 1.78-.58 1.78.16 1.5.24v1.66l.68 1.92-.17 1.92.23 1.92-.57 1.93.46 2.26-2.19-.36-1.85.34-1.85.17-1.84-.34h-1.85l-1.85.1-2.08-.49.52 2.23-.56 2.23 1.95-.08 1.68-.22 1.69.28 1.69-.5 1.69.3 1.69-.15 2-.16v2.14l-.53 1.85.47 1.82-.47 1.83-.26 1.84.65 2-1.86.24-1.69-.82-1.69.89-1.68-.42-1.69.42-1.69-.21-1.8-.36-.3 2.16.7 1.8 1.61.54 1.91-.57 1.91.1 1.91.33 1.92.11 1.91-.55 2 .22-.16 2-.08 1.92v1.93l.14 1.92.31 1.92-.07 2.17-2.06-.35-1.8.49-1.8-.65-1.8.12h-1.81l-1.8.09-1.8-.19-1.8-.07h-1.8l-1.8.35-1.8-.26-1.81.52-1.8-.42-1.8-.11-1.81.33h-1.87l.12-1.89-.08-1.84-.46-1.83.94-1.83-.13-1.84.11-1.84-.59-1.83-.1-1.84.53-1.83v-1.84l.16-1.83-.38-1.84v-1.83l.11-1.84-.27-1.83.54-1.84-.61-1.83-.09-1.83-.1-1.84.09-1.84.15-1.84V2.64zM12.69 61v.52c-.14 5-.24 6.65-.63 7.17a1.07 1.07 0 0 1-.85.52 10 10 0 0 1-1.47 0 3.07 3.07 0 0 0-.32-1.06h1.26a.45.45 0 0 0 .43-.19c.27-.34.39-1.86.49-6h-1.43c-.16 3.19-.7 5.74-2.76 7.32a3.93 3.93 0 0 0-.8-.83l.21-.17c-1.72.21-3.45.39-4.73.51l-.15-1 2.51-.2v-.92H2.27V66h2.18v-.6H2.3v-3.61h2.15v-.63H2v-.82h2.45v-.68c-.73.06-1.46.1-2.14.12a3.11 3.11 0 0 0-.26-.8 35.81 35.81 0 0 0 5.15-.59l.52.84c-.63.13-1.42.25-2.25.34v.77h2.42V61h1.26v-2.56h1.07V61zm-9.48 2.25h1.24v-.73H3.21zm1.24 1.42v-.74H3.21v.74zm1 3c.74-.07 1.51-.14 2.26-.23 1-1.35 1.29-3.16 1.38-5.35H7.84v-.9H5.47v.63H7.7v3.58H5.47v.6h2.25v.81H5.47zm1.28-4.39v-.73H5.47v.73zm-1.28.68v.74h1.3v-.74zm19.27-4.91v1H20v1.18h2.32v5.36h-5.7v-5.33h2.27v-1.18h-4.74v-1zm-1.43 2.05h1.09v8.17h-1.09v-.69h-7.68v.72h-1.09v-8.2h1.09v6.42h7.68zm-5.79 2.39h1.41v-1.31H17.5zm0 2.21h1.41v-1.32H17.5zm3.79-3.52h-1.41v1.31h1.41zm0 2.2h-1.41v1.32h1.41z" fill="#fff"/><path fill="none" stroke="#fff" stroke-miterlimit="10" stroke-width="2" stroke-dasharray="2 4" d="M216.19 64.9H31.51"/></g></svg>