<svg xmlns="http://www.w3.org/2000/svg" viewBox="0 0 627.78 60.4"><defs><style>.cls-1{fill:none;stroke:#4d4d4d;stroke-miterlimit:10;stroke-width:2px;}.cls-2{fill:#4d4d4d;}</style></defs><title>アセット 2</title><g id="レイヤー_2" data-name="レイヤー 2"><g><line class="cls-1" x1="475.41" y1="14.74" x2="627.69" y2="1.42"/><line class="cls-1" x1="0.09" y1="56.33" x2="152.2" y2="43.02"/><path class="cls-2" d="M198.93,37.37l-1.53-1-1.45-1-1.52-1-1.86.15-1.76-.41-1.86.48-1.51,1.15L186,36.84l-.52,1.8-1.28,1.51.19,1.9.8,1.68.38,1.9L186.91,47l1.85.46,1.63.91,1.84-.21,1.74.19,1.41-1,1.33-1,1.86-.38,1-1.56L200,46.1l-.5,1.72.24,1.68.63,1.66-.65,1.73.19,1.69.73,1.65-.72,1.66-1.51.4-1.59,1.35-2,0-2-.18-1.84.49-1.78.42-1.77-.6-1.79-.06-1.84-.08-1.47-1.23L180.61,58,179,57.19l-1.74-.74-1.09-1.53-1.49-1.13-.49-1.89-.79-1.6-1.09-1.48L172.1,47l-.77-1.67-.26-1.79-.35-1.77.16-1.77.12-1.79,1.2-1.52,0-1.83,1.25-1.36.08-1.95,1-1.47,1.24-1.29,1.75-.72,1.15-1.32,1.12-1.49,1.68-.65,1.61-.75,1.86.06,1.64-.61,1.69-.61,1.82-.05,1.8.24,1.79.12,1.8.16,1.71.5.33,1.68.31,1.7-.09,1.74.41,1.69.32,1.69.16,1.72-.46,1.8Z"/><path class="cls-2" d="M245.56,36.79l.56,1.78-.68,1.78.27,1.85-1.1,1.58-.39,1.72-.54,1.72-1,1.51-1.35,1.2-1.21,1.28L239,52.56,237.79,54l-1.62.85-1.95.06-1.6.76-1.59,1-1.85-.07-1.77.39-1.81-.34-1.78.2-1.76-.28-1.81-.07-1.82-.17-1.61-.88L215,55.16l-1.15-1.62-1.64-.77-1-1.5-1.45-1.09-1.11-1.42-1.24-1.39-.41-1.82-.73-1.67L206.13,42l0-1.8-.68-1.78.5-1.8.43-1.75L206.08,33l.73-1.7L208,29.83l.45-1.86,1.34-1.29,1.13-1.46,1.58-1,1.28-1.35,2-.16,1.28-1.48,1.68-.74h1.88l1.68-.87,1.87.36,1.79-.16,1.83-.48,1.82.27,1.72.7,1.76.39,1.59.89,1.94.16,1.26,1.44,1.63.85,1.3,1.28,1.24,1.33,1.2,1.4.2,2,1.32,1.38.42,1.78,0,1.84Zm-26.67,2.52L219.7,41l.22,1.9L221.48,44l1.18,1.59,1.9.34,1.86-.19,1.8-.33,1.84-.54,1.41-1.31.73-1.77,0-1.86.11-1.74.37-2-1-1.67-1.59-1.05-1.27-1.34L227,31.74l-1.85-.49-1.81.62-1.73.77-1.19,1.46-.64,1.71-.73,1.66Z"/><path class="cls-2" d="M253.37,17.59l1.9-.25,1.69-.08,1.71.16,1.66-.39,1.71.2,1.68-.24,1.72.15,1.46-.21.63,1.45.81,1.61.28,1.78,1.14,1.49.14,1.85.88,1.58.62,1.68.24,1.81,1.06,1.52.35,1.78.54,1.74.38-.17-.23-1.59.81-1.57-.2-1.68.31-1.82.95-1.69-.47-2,.74-1.74.07-1.87.34-1.82,1-1.69.17-1.8,1.8-.67,2,.61,1.88-.39,1.91-.13,1.89-.3,1.89-.39,1.76.29.24,1.61,1,1.65.18,1.84,1,1.63-.35,2,1,1.63,0,1.89.79,1.69.11,1.86.58,1.75.47,1.77.42,1.78.16,1.86,1.15,1.59.72,1.71-.41,2,1.06,1.63.42,1.78.57,1.76.07,1.8-1.71.33h-1.82l-1.85-.23-1.8.23-1.81.13-1.76.82h-1.92l-.45-1.85-.21-1.8.25-1.88-.73-1.7,0-1.84-.18-1.8-1-1.65.2-1.88-.65-1.72-.6-1.74-.17-1.78-.33-.18L283,33.46l-.25,1.82-.39,1.85v1.94l-.64,1.79L281,42.64l.22,2L280,46.3l-.22,1.89-.28,1.89-.67,1.58-1.7.2-1.9.31-1.91.17-1.91.26-.49-1.72-.83-1.58-.61-1.67-.92-1.55-.31-1.79-.52-1.71L267,41l-1-1.51-.81-1.6-.08-1.6-.17-1.53-.64-1.47-.32.22-.27,2.09.61,2.19-.69,1.71-.07,1.73-.24,1.72,0,1.72.08,1.73-.11,1.72.13,1.73.4,1.74L263.35,53l-1.54.49-1.8.33-1.79.32-1.82,0-1.83-.07-1.78.53L251,54.32l.07-1.76.47-1.8-.44-1.87.48-1.8-.19-1.85.09-1.83-.06-1.84.17-1.82.48-1.81L252,36.1l.76-1.78-.5-1.87.8-1.78.07-1.83,0-1.84-.39-1.87.93-1.77-.33-1.87.17-1.83Z"/><path class="cls-2" d="M307,13.28l1.53-.56,1.74.54,1.69-.12,1.61-.94,1.72.23,1.73.33,1.67-.32,1.75-.58,1,1.65-.11,1.93,1.24,1.45.26,1.8.66,1.66.17,1.84,1.09,1.51.84,1.6L326,27l.73,1.65.35,1.75.29.11.11-1.68.14-1.62,0-1.66.86-1.71,0-1.88.79-1.72-.44-2,.29-1.83.59-1.76.47-1.8.37-1.86,2,.21,1.9-.24,1.88-.37,1.95.28,1.85-.83L342,9.74l1.73.49.66,1.46.67,1.72.28,1.82.18,1.84.72,1.71.22,1.84.78,1.69.45,1.78.07,1.87.59,1.74.22,1.84.56,1.75.53,1.75,1,1.64,0,1.9.16,1.86.81,1.68.25,1.84.81,1.69.09,1.6-1.5.59-1.86-.4-1.74.89-1.86-.4-1.79.4-1.79.39-1.91-.08-.17-1.87L339.79,43l-.15-1.8-.17-1.81-1.16-1.63.1-1.85,0-1.84-.76-1.7-.36-1.78-.3-1.79-.51-1.7-.29-.32.45,2.09-.36,1.84-.95,1.71.15,2-.26,1.88L334.34,38,334,39.87l-.38,1.85-.33,1.88L333,45.49l-.9,1.57L330.33,47l-1.85.9-1.92.17-2,0-1-1.64-.57-1.69L322.73,43l-.7-1.63-.4-1.76-1-1.53-.6-1.68-.92-1.55-1-1.53-.5-1.49-.21-1.55-.12-1.49-.11.11-.6,2,0,2.18.68,1.73-.68,1.72-.07,1.72L317.2,40l-.63,1.72.22,1.73.35,1.73L317,46.89l-.32,1.6-1.69.08-1.81.07-1.83,0-1.74.94-1.85-.39L306,49.5l-2,.48.44-2.07,0-1.83-.27-1.86,1.05-1.76-.48-1.87.74-1.78-.59-1.88-.1-1.85.28-1.81.45-1.81-.23-1.85.78-1.78L305.66,26l.71-1.79L306,22.31l.39-1.81.3-1.82-.37-1.87.37-1.82Z"/><path class="cls-2" d="M354.88,9.25l1.37-.72,1.79.53,1.66-1,1.8.59,1.74,0L364.92,8l1.7-.58,1.79.55,1.67-.82,1.76.14,1.78.45L375.3,7l1.75-.05,1.41.29.31,1.63.75,1.92-.42,2,.2,2L380,17l-2.17.1-1.83.29L374.13,17l-1.83.31-1.88-.21-2.05.37.41,1.94-.16,2.05,1.94-.86,1.72.34,1.68-.18,1.64-.57,1.69-.08,1.78.07-.09,2,.7,1.82-.26,1.91-.12,1.9.28,1.66h-1.46l-1.63.78-1.68.06-1.71-.12-1.65.52-1.67-.14.59,1.69-.5,2,2.12.06,1.86-.66,1.87-.52,2,.47,1.85-.78,2,.09.42,2-.16,2,.54,1.93-.34,2,.36,2-1.77.57-1.79-.16-1.74.34-1.77,0-1.75.22-1.74.29h-1.77l-1.79-.15-1.72.53-1.82-.54-1.74.46-1.73.51-1.81-.42-1.58.24-.65-1.58-.17-1.8-.17-1.8.37-1.85-.75-1.75-.17-1.8.72-1.88-.2-1.8-.71-1.75-.36-1.79-.24-1.79-.14-1.8.4-1.85-.7-1.76.14-1.83.34-1.85-.16-1.8-.1-1.81-1.05-1.77Z"/><path class="cls-2" d="M385.73,6.18l1.91.14,1.8-.05,1.76-.6L393,6l1.75-.68,1.84.26,1.61,0,1.11,1.15,1.52,1.11.57,1.79,1.45,1.16.82,1.62.9,1.55,1.22,1.33.83,1.61,1,1.47,1,1.49L410,21.08l1.09,1.42,1.13,1.33.51.4-.51-2.05-1.13-1.63-.13-1.88-.1-1.87,0-1.84-.54-1.77-.17-1.8-.67-1.75.73-1.88L409.77,6l.06-1.48,1.42-.32,1.76-.4,1.81.08,1.8,0,1.81,0,1.77-.37,2-.65-.57,2.13,1.07,1.72-.57,1.87.33,1.78.1,1.81.73,1.75L423,15.7l.16,1.8.62,1.76.17,1.81.09,1.8-.42,1.85v1.82l.71,1.75-.06,1.82-.1,1.83.73,1.76-.56,1.87.82,1.75,0,1.84h-1.82L421.52,39l-1.73.84L418,39.51l-1.8.07-1.73.85-1.8-.25-1.38-1.24-.62-1.84-1.17-1.44-1.26-1.37L406.88,33l-1.07-1.51-.66-1.82-1.42-1.26-.7-1.78-1.72-1.05-.56-1.9-1.22-1.43-.77,0,.68,1.88.62,1.73.09,1.84.31,1.8.48,1.64-.06,1.69.32,1.66L401,36.18l-.14,1.7v1.69l.29,1.37-1.49.25-1.78.3-1.78.2-1.83-.3-1.76.53h-1.81l-1.58.16.1-1.61-.59-1.76L388,37l-.11-1.8.72-1.88L388,31.5l-.24-1.79-.42-1.78.09-1.82-.39-1.79.64-1.87-.35-1.78-.17-1.8-.12-1.81-1-1.73.46-1.86.15-1.83-.54-1.77-.48-1.78Z"/><path class="cls-2" d="M429.64,2.53l1.74,0,1.85,0,1.8-.61,1.82-.32,1.88.3,1.79-.69,1.87.37,1.86,0,1.8-.52,1.87.2,1.84-.16,1.76-1,1.89.45,1.8-.63L457,.07l0,1.64.43,1.64L457.83,5l.28,1.66-.43,1.73,0,1.69.62,1.87-2.06-.55-1.8.35-1.8.47-1.92-.28v1.87l.67,1.72.16,1.76.05,1.77L452,20.8l-.54,1.82.05,1.77.7,1.72L452,27.89l.59,1.73-.56,1.83.47,1.73.29,1.76.05,1.66-1.77-.08-1.83.59-1.91-.19-1.86.2L443.7,38l-1.91-.23H440l-.14-1.68,0-1.78,0-1.78-.31-1.75L439.44,29l-.54-1.72-.14-1.77.05-1.77L438.49,22l-.6-1.73-.1-1.76-.23-1.76.48-1.83-.54-1.44-1.58-.33-1.78.42-1.76.52-1.93.18.32-1.84-.54-1.63L430,9.14l-.2-1.66.12-1.7-.3-1.67Z"/></g></g></svg>