<svg xmlns="http://www.w3.org/2000/svg" viewBox="0 0 197.07 69.61"><g data-name="レイヤー 2"><path d="M6.82.87l1.94.3 1.76-.41 1.75.64L14 1.25l1.76-.07 1.75-.1 1.76.2 1.76-.11 1.52.23 1 1.33-.23 1.87.45 1.71.81 1.61.52 1.68v1.82l.75 1.58.9 1.59.25 1.8.65 1.61.4 1.72.44 1.72-.29 2 .51-.46.56-1.64.36-1.86.58-1.82.79-1.52.36-1.69.09-1.76.36-1.69 1-1.52.37-1.68.54-1.64V4.37l.68-1.6.53-1.55 1.64-.05 1.73.22h1.74l1.74-.48 1.74.24 1.73-.29 1.75.59 1.73-.78 1.48.73.06 1.53.88 1.66.05 1.8.17 1.77.47 1.73.09 1.79.07 1.79 1 1.65-.21 1.88 1 1.64v3.61l.75 1.68-.44 1.89.58 1.71.42 1.73.55 1.72.35 1.7.2 1.77-.44 1.89.35 1.75.76 1.68.62 1.72v1.91l-1.94.2-1.85-.73-1.85.35-1.86.6-1.85-.14-1.85-.68-1.85.58-2-.07v-2l.09-1.8-.91-1.71.11-1.8v-1.79l-.27-1.77.26-1.82-.21-1.77-.22-1.78-.67-1.73.24-1.82-.43-1.72.5-1.92-.66.14-.73 2-.37 2.13-.17 1.87-.72 1.67-.28 1.78-.51 1.74-1.19 1.51v1.91l-1.09 1.55-.44 1.76-1 1.59-.33 1.8-.25 1.93-1.89-.2-1.79-.32-1.77.06-1.74.33-1.58-.33-1.13-1.33-.65-1.75.27-2-1.19-1.58-.72-1.81-.57-1.78.21-2-.92-1.68-.15-1.91-1.2-1.6-.37-1.8.31-1.87-.37-1.89-.85.1.05 1.81-.61 1.66-.2 1.69.45 1.86-.15 1.8v1.82l-1 1.72.67 1.88-.15 1.81-.36 1.78-.06 1.82-.12 1.82-.29 2.07-2.13-.68-1.85-.12-1.87.16-1.86.79-1.85-.06-1.86-.31-1.9.13-2-.07.49-1.91.56-1.72L.56 38l.84-1.7-.12-1.82.59-1.71.24-1.77.34-1.75.28-1.76.77-1.68V24l-.28-1.85.91-1.66v-1.8l.7-1.69.17-1.77.51-1.73-.15-1.82.16-1.78L6 8.17l.6-1.71L6 4.55l1-1.66zm92.94.22l-.21 1.79-.15 1.78.6 1.78.11 1.78-.68 1.78.6 1.77v1.79l-.34 1.78.41 1.78-.59 1.79.16 1.78-.31 1.79.61 1.79.09 1.79-.6 1.76v1.77l.17 1.85-.73 1.67-.6 1.69-.76 1.64-1.28 1.29-.92 1.59-1.83.59-1.14 1.47-1.53 1-1.86.15-1.67.56-1.74.33-1.73.42-1.84.03-1.79.13-1.76-.52-1.79.21-1.76-.22-1.66-.66H71.4l-1.67-.67-1.29-1.33-1.57-.81-1.47-1-1.4-1.12-.65-1.71-1-1.47L62 33l-.79-1.62-.73-1.7.52-1.85-.57-1.76.4-1.78-.05-1.78v-1.79l-.12-1.78v-1.78l-.27-1.78.61-1.78-.27-1.79-.3-1.81V8.21l-.14-1.78.71-1.76-.52-1.79.35-1.62 1.52-.2L64.07 1l1.7.24h1.7L69.18 1h1.7l1.71-.31 1.71.77 1.7-.35-.14 1.79.14 1.81-.22 1.81.1 1.81.52 1.8-.4 1.81-.14 1.8.47 1.81-.59 1.81.11 1.81.23 1.83-.17 1.82.5 1.81-.74 1.78 1 1.61.18 1.8 1.54 1 1.8.29 1.59-.91 1.89-.26.2-1.88v-1.72l.42-1.73-.38-1.8.86-1.81-.22-1.81-.19-1.81.11-1.8-.16-1.81-.22-1.77-.09-1.84.25-1.82V4.72L84 2.91l.2-2.06 1.9.05 1.71.42 1.7-.64 1.7.58 1.71-.2 1.7-.45 1.71.67 1.67.23zm8.81 27.22l.81.37 1.12 1.45 1.61.75 1.58.79 1.7.48 1.66.69 1.8-.62 1.71.27 1.47-.86 1.19-1.47-1-1.35-1.31-.76-1.47-.53-1.54-.29-1.53-.33h-1.76l-1.68-.43-1.48-.92-1.51-.81-1.42-1-1.12-1.31-.93-1.43-.47-1.64-.16-1.67-.31-1.64-.53-1.83.21-1.83.62-1.74.75-1.65 1.33-1.3L109 6.23l1.64-.84 1.3-1.17 1.14-1.57 1.61-.86 1.86-.2 1.7-.57 1.84.16 1.7-.74 1.79.21 1.77-.33 1.65.45 1.76.12 1.74.31 1.79.24 1.53 1 1.61.74 1 1-.34 1.8-1 1.67V9.7l-1 1.7-.65 1.82-1 1.54-1.44-.65-1.4-1.5-1.91-.49-1.88-.56-2 .58-2.23-.07-.83 1.9.82 1.66 2 .43 1.79.16 1.64 1.09h1.85l1.75.5 1.73.6 1.71.77 1 1.68.89 1.54 1.28 1.28.26 1.79.29 1.72.32 1.75-.29 1.71.43 1.87-.46 1.75-1.24 1.39-1.21 1.28-.71 1.68-1.51 1-1.27 1.25-1.56.84-1.79.28-1.62.6-1.55 1-1.81-.13-1.72.46-1.77-.21-1.9.71-1.8-.88-1.85-.23-1.79-.5-1.87-.19-1.68-.88-1.86-.28-1.94-.21-1.74-1.14.55-1.81.92-1.6.93-1.6.56-1.75.81-1.65.44-1.8zm35.52-26.92h1.37l1.71-.42 1.7.11 1.7-.05 1.71-.24h1.7l1.71.53L157.4 1l1.52.29.15 1.66-.15 1.83.67 1.83-.49 1.83.46 1.84-.28 1.83.06 1.84.23 1.83-.26 1.84-.49 1.83.63 1.84-.64 1.83v1.84l.57 1.83-.1 1.84-.45 1.83.59 1.84-.2 1.83-.11 1.87.2 1.84v1.84l-.65 1.84.73 2.09-2-.29-1.7-.26-1.71.4-1.7.32-1.71-.35-1.7-.55-1.71.8-1.71-.52-1.34-.16-.22-1.52-.51-1.83.88-1.83-.1-1.83v-1.84l-.61-1.83-.15-1.83.1-1.84-.13-1.83v-1.84l.65-1.83-.72-1.84.35-1.84-.22-1.83.73-1.83-.35-1.81-.2-1.84V10.3l-.25-1.84-.08-1.84.28-1.84.67-1.8zm52.54 16.76l-1.16-.77-1-1.51-1.43-1-1.63-.65-1.81.16-1.6-.58-1.75.81-1.74.42-1.56.9-1.41 1.16-1.54 1.32-.05 2-.67 1.81.08 2 1.5 1.44 1 1.47.76 1.93 1.84.69 1.81.52 1.87.1 2.05.37 1.85-.89 1.86-.72 1.57-1.24 1.14-1.22.32 1.64-.49 1.69.11 1.75.31 1.77-.29 1.75.07 1.75-.49 1.75.42 1.77v1.77l-1.73.87-1.85.24-1.83.35-1.83.48-1.9-.63h-1.83l-1.79.47-1.73-.54-1.65-.64-1.69-.42L177 42l-1.72-.51-1.52-.92-1.17-1.39-1.45-1-1.1-1.37-1.66-.9-.58-1.77-1.42-1.14-.74-1.64.1-1.93-1.45-1.43-.29-1.79V24.4l.12-1.8.29-1.82.5-1.77-.22-1.9 1.15-1.56.39-1.79.2-1.94 1-1.57L168.76 9 170 7.6l1-1.6 1.75-.76 1.5-1 1.3-1.38 1.56-1.06 1.89-.36 1.73-.69 1.92.24 1.77-.58h1.83L188 0l1.67 1 1.69.31 1.73.17 1.77.11 1.53.57-.23 1.84.64 1.77-.27 1.79.47 1.72.09 1.79-.61 1.8.18 1.78.11 1.78zM12.76 62.39v1H2.14v-1H5a6.62 6.62 0 0 0-.63-1.61l.73-.15H2.81v-1h4v-1H8v1h4.18v1H10l.68.15c-.28.58-.57 1.18-.82 1.61zm-8.9 1.89h7.36v5.31h-1.17v-.4H5v.42H3.86zm1.14.94v1.06h5.08v-1.06zm5.08 3v-1.08H5v1.12zm-4.56-7.59a5.62 5.62 0 0 1 .68 1.63l-.58.13h3.67l-.53-.13a11.57 11.57 0 0 0 .69-1.63zm15.41 5.7a10.64 10.64 0 0 0 4.07 2.1 5.16 5.16 0 0 0-.76.93A11.22 11.22 0 0 1 20 66.78v2.81h-1.14v-2.84a11.31 11.31 0 0 1-4.21 2.7 5.56 5.56 0 0 0-.75-.93 10.81 10.81 0 0 0 4-2.19h-3.72v-1h4.68v-.92H17.2v-4.62h1.45c.11-.39.23-.85.29-1.2l1.22.17c-.13.36-.27.72-.39 1h1.94v2.92l.54-.61a15.68 15.68 0 0 1 2.75 1.7l-.69.84a15.45 15.45 0 0 0-2.57-1.71v1.53H20v.92h4.75v1zm-3.86-3.24c-.86.54-1.82 1.1-2.6 1.56l-.55-.92c.72-.35 1.78-.95 2.85-1.54zm-.95-1.27A8.77 8.77 0 0 0 14.23 60l.76-.65a8.76 8.76 0 0 1 2 1.79zm2.11-.12h2.4v-1h-2.4zm0 1.87h2.4v-1.06h-2.4zm6.37-3.8a15.6 15.6 0 0 1-2 1.91l-.83-.54a13 13 0 0 0 1.91-2z" fill="#fff"/><path fill="none" stroke="#fff" stroke-miterlimit="10" stroke-width="2" stroke-dasharray="2 4" d="M195.16 65.21H34.89"/></g></svg>