<svg xmlns="http://www.w3.org/2000/svg" viewBox="0 0 180.46 69.48"><g data-name="レイヤー 2"><path d="M.75 1.21L2.29.94h1.84L6 1 7.81.78l1.84.53 1.84-.6 1.85-.09h2l1 1.75.82 1.63.89 1.57.75 1.66.61 1.74 1.39 1.23.57 1.8.91 1.56 1 1.53.89 1.57.74 1.68 1.61 1.15.51 1.8.84 1.62 1 1.58h.83l-.7-1.93.13-1.85-.58-1.71-.1-1.81-.18-1.79.19-1.8-.73-1.81.44-1.8.29-1.81-.79-1.81.67-1.81V2.75L28 .82l2 .51 1.78-.91 1.83.11 1.84.56 1.83-.27 1.83.18L41 .62l1.7.38-.21 1.74.2 1.84-.09 1.84.65 1.83v1.83l-.16 1.84-.3 1.83-.22 1.84-.06 1.83.69 1.84-.34 1.83.14 1.84-.12 1.83-.29 1.84.33 1.83-.19 1.84.27 1.83-.5 1.84-.12 1.84.87 1.84-.25 1.84-.26 1.84.17 2-2-.48-1.83.67-1.83-.21-1.84.13-1.83-.18L31.8 43l-1.8-.1-1.82.1-1-1.52L26.14 40l-1.25-1.4-.39-1.93-1.38-1.32-.5-1.86-1-1.58-1.58-1.2-.67-1.71-1-1.59-.61-1.81-.89-1.6-1.6-1.21-.27-2.11-.5.46v1.52l.15 1.7.14 1.69.21 1.68.64 1.69-.71 1.72.14 1.71-.23 1.71.67 1.72-.26 1.72-.25 1.7-.09 1.72L15 43l-1.74.52-1.83-.16-1.83-.48-1.8-.15-1.8.69-1.84-.31-1.84-.45-1.52.14v-1.49l-.09-1.83-.65-1.83.56-1.84L.11 34v-1.84l.42-1.83V28.5l.17-1.86-.37-1.83L.64 23l-.31-1.86-.12-1.84L0 17.46l.1-1.83.65-1.84L0 12l.91-1.84L.5 8.28l.2-1.83.3-1.84L.86 2.8zM48.68.88l1.82.44 1.77-.7 1.77.5L55.82.6l1.77-.06 1.77-.08 1.78.28 1.77-.13 1.77.49 1.77-.19 1.78-.39L70 1h1.78l1.78.4 1.78-.67L77 1l-.19 1.8.12 1.92.68 1.92-.22 1.96-.19 1.93-.1 1.91-1.83.15-1.84.25-1.85-.84-1.84.58-1.85-.16-1.89-.35-2 .22.61 2.18-.23 1.85 1.49-.32 1.68.6 1.69-.6 1.68.51 1.69-.34 1.7-.17 1.8.38.06 1.93.1 1.83-.58 1.86.6 1.83-.63 1.83.24 1.74-1.59.18-1.68-.28-1.69.5-1.68-.3-1.69.15-1.7.3-1.45-.26-.42 1.85.41 1.89 1.71.39 1.91.26 1.91-.72 1.91-.16 1.91.82 1.92-.89 2 .44.43 2-.2 1.92-.41 1.92-.27 1.92.77 1.89-.63 1.78-1.6.49-1.77-.14-1.84-.35-1.8-.12-1.8.56-1.8-.18-1.8-.2-1.8-.06h-1.8l-1.8.14-1.8.31-1.76.05-1.85-.5-1.81.5-1.81-.65-1.7.16.09-1.73-.08-1.83.16-1.8.08-1.84v-1.83l-.35-1.84.27-1.83-.52-1.83.42-1.84.1-1.83-.33-1.81v-1.83l.15-1.84-.08-1.84-.47-1.83.95-1.84L49 12l.11-1.84-.59-1.84-.1-1.83.58-1.88V2.76zm47.94.22l.82 1.56v1.88l.2 1.83 1 1.67-.43 2 .47 1.78 1 1.67.43 1.78.15 1.85.11 1.86 1 1.67.23 1.83.56 1.77-.09 1.91h.41l-.19-2 .84-1.88.16-2 .14-2 .92-1.62-.14-1.89.45-1.74 1-1.59.63-1.69.29-1.79.3-1.77.68-1.69-.29-1.94.61-2 2 .49 1.68-.27 1.68-.22 1.68.24 1.68.2 1.68.37 1.46-.17.86 1.49.07 1.87 1 1.67.09 1.87.09 1.87.65 1.74.06 1.88 1 1.67-.15 1.93.88 1.69.65 1.75-.25 1.95.24 1.85.54 1.83.56-.16.25-1.83v-1.9l.66-1.8v-1.94l.31-1.8.32-1.79 1-1.65-.17-1.91.88-1.67.17-1.81.84-1.68-.09-1.9.62-1.73.3-2.08 2 .66 1.77-.05 1.77-.65 1.77.64 1.78.19 1.79-.18 1.77-.63 1.78.58 1.91-.34-.9 1.71v1.88l-.75 1.64-1 1.53.07 1.92-1.2 1.49-.83 1.61-.37 1.76-.17 1.84-1 1.54-.35 1.78-.69 1.65-.51 1.72-.4 1.76-1.36 1.42-.18 1.83-.82 1.62-.46 1.74-.06 1.87-.81 1.62-.77 1.63-.35 1.78-1.36 1.42-.07 1.89-.52 1.91-2.07.1-1.91-.18-1.91-.09-1.91-.51-1.92.8-1.91-.8-1.67.11-.85-1.39.12-1.87-.69-1.7-.11-1.86-.24-1.78-.43-1.76-.88-1.65v-1.85l-.67-1.7-.49-1.75.32-1.91-1-1.65.18-2-.53.52-.16 1.28-.78 1.55-.27 1.57-.05 1.6-.39 1.66v1.77l-1.08 1.49-.56 1.62-.43 1.66-.24 1.7.13 1.8-.52 1.64-.68 1.64-.3 1.68-1.85.11-1.85-.09-1.86-.39-1.86.78h-1.87l-1.87-.06-2.11.07-.77-1.89-.23-1.82-1-1.55-.43-1.8-.68-1.65.21-2-.72-1.64-.74-1.63-1-1.57-.07-1.8-.41-1.75L88.24 23v-1.9l-.65-1.67-1-1.56-.59-1.64-.61-1.68-.23-1.81-.37-1.74-1.12-1.5-.11-1.86-.62-1.68-1.25-1.52-.47-1.74L81 1l1.61.14L84.4.63l1.76.37 1.77-.24 1.76-.25 1.77.62 1.77.08L95 1.05zM150.41 28l1 .33 1.08 1.49 1.45 1 1.8.32 1.56.79 1.69.48 1.76-.31h1.66l1.56-.62.53-1.51-.4-1.36-1.31-.83-1.61.26-1.46-.73-1.55-.22-1.66-.48-1.77-.17-1.59-.73-1.24-1.29-1.35-1-1-1.38-.93-1.36-.93-1.43-.32-1.67-.11-1.7.23-1.75.27-1.74.11-1.83 1-1.52.93-1.53 1.37-1.15.9-1.62 1.28-1.32 1.6-.89 1.72-.6 1.66-.69 1.66-.8 1.91.4 1.76-.84 1.81.68 1.76-.33L169 .22h1.8l1.49 1.35 1.8.08 1.8.26 1.28 1.41 1.21.54V5.8l-.82 1.75-1.19 1.6v2.07l-1 1.7-1 1.56-1.37-.57-1.73-.76-1.73-.75-1.73-1.11-2 .75-2.31-.3-1.46 2.06 1.42 1.91 2.23-.3 1.52 1.33 1.8.13 1.69.63 1.66.62 1.6.72 1.68.66 1.78.73.67 1.82 1.37 1.3.6 1.75.39 1.81-.08 1.84-.14 1.78-.42 1.72-.15 1.83-1.42 1.28-.38 1.85-1.55 1-1.39 1L174 41l-1.61.83-1.62.79-1.85.13-1.79.06-1.63.8h-1.78l-1.75.34-1.86-.41-1.88.14-1.83-.43-1.94.17-1.69-1-1.84-.42-1.69-.84-1.87-.32-2.09-.93 1.46-1.53.71-1.68.6-1.74.55-1.75.09-1.93 1.4-1.43zM11.1 64.71a6.84 6.84 0 0 1-1.67 2.82 6.76 6.76 0 0 0 2.29 1 3.24 3.24 0 0 0-.66.86 6.56 6.56 0 0 1-2.39-1.24 8.09 8.09 0 0 1-2.22 1.2 3 3 0 0 0-.55-.81v.85H4.84v-1.03l-3.93.42-.08-1 1.09-.1v-3.82h-1V63h10.5v.91H5.9v4.63a6.81 6.81 0 0 0 2-1 7.5 7.5 0 0 1-1.21-2l.64-.18H6.27v-.86h4.19zm-1-2.32H2.35V58.8h7.75zM3 63.86v.68h1.84v-.68zM3 66h1.84v-.7H3zm1.89 1.41v-.6H3v.78zM9 59.56H3.42v.68H9zM9 61H3.42v.69H9zm-1.35 4.4a5.26 5.26 0 0 0 1 1.51 5.44 5.44 0 0 0 1.09-1.51zm9.65 2.36c-.24-.29-.72-.77-1.16-1.19v2.85h-1.08v-2.81a8.68 8.68 0 0 1-1.79 2 4.21 4.21 0 0 0-.72-.8 8.15 8.15 0 0 0 2.3-2.52h-2v-.94h2.22v-1.1h-2.26v-.94H14a5.29 5.29 0 0 0-.42-1.55l.82-.2H13v-.93h2.1V58.5h1.08v1.14h2.1v.93h-1.49l.84.19c-.23.56-.46 1.15-.66 1.56h1.4v.94h-2.23v1.1h2.12v.94h-2.12v.21c.43.3 1.54 1.2 1.81 1.42zm-2.82-7.19a5 5 0 0 1 .52 1.57l-.69.18h2.64l-.83-.18a12.65 12.65 0 0 0 .54-1.57zm9.23 2.86h-1.26v5.94h-1.08v-5.94h-1.55v.11c0 1.77-.21 4.27-1.87 5.94a2.64 2.64 0 0 0-.79-.77c1.45-1.48 1.59-3.53 1.59-5.18v-4.15l.75.21a15.34 15.34 0 0 0 3.19-1l.9.81a18.58 18.58 0 0 1-3.77 1.09v1.91h3.89zm.84.4a15.59 15.59 0 0 0 .52-3.08l.8.1a15.36 15.36 0 0 1-.48 3.25zm3.11-1.66a15.5 15.5 0 0 0-.61-1.68v8.94H26v-11h1v2l.69-.28a10.84 10.84 0 0 1 .68 1.69zm8 .07v.83H27.9v-.83h3.29v-.69h-2.63v-.78h2.63v-.62h-2.92v-.83h2.92v-.89h1.1v.89h3v.83h-3v.62H35v.78h-2.71v.69zm-.88 6.05c0 .5-.11.79-.47.95a5.33 5.33 0 0 1-1.76.16 4.29 4.29 0 0 0-.33-1h1.28c.15 0 .22-.06.22-.2v-.65h-4v1.81h-1v-5.7h6.08zm-5-3.79v.74h4v-.74zm4 2.31v-.74h-4v.74zM40 61.56h2.1v.95h-1.17l.52.13c-.21.5-.42 1-.61 1.42h1.06v1H40v1.13h1.8v1H40v2.21h-1.1v-2.31H37v-1h1.9V65h-2v-1H38a5.21 5.21 0 0 0-.46-1.42l.49-.13h-1.32v-.95h2.19v-1h-1.76v-.94h1.76v-1.1H40v1.12h1.6v.94H40zM40 64a14.47 14.47 0 0 0 .51-1.44H38.4a5.59 5.59 0 0 1 .47 1.44l-.4.11h1.91zm7.45-.73a12 12 0 0 1-1.35 3.91 5.62 5.62 0 0 0 1.78 1.42 4.86 4.86 0 0 0-.74.89A6.69 6.69 0 0 1 45.45 68 6.77 6.77 0 0 1 44 69.45a3.66 3.66 0 0 0-.61-.65v.64h-1V59h4.77v2.27c0 .51-.1.8-.52 1a5.91 5.91 0 0 1-1.91.16 3.33 3.33 0 0 0-.34-1h1.5c.18 0 .23 0 .23-.18v-1.31h-2.74V63h3.36zm-4 5.38a5.93 5.93 0 0 0 1.43-1.44 12.21 12.21 0 0 1-1.43-3.24zm.93-4.68a10.81 10.81 0 0 0 1.07 2.31 9.27 9.27 0 0 0 .85-2.31z" fill="#fff"/><path fill="none" stroke="#fff" stroke-miterlimit="10" stroke-width="2" stroke-dasharray="2 4" d="M177.21 65.04H54.96"/></g></svg>