<svg xmlns="http://www.w3.org/2000/svg" viewBox="0 0 228.88 69.55"><g data-name="レイヤー 2"><path d="M46.58 22.23L46.26 24l.51 1.85-.17 1.81-1.26 1.51.22 2-1.16 1.43-.56 1.77-1.23 1.36-1.48 1.09-1.45 1-.89 1.75-1.86.43-1.27 1.38-1.66.71-1.8.31-1.73.4-1.62.93-1.85.09h-8.98l-1.77-.37-1.59-1-1.86-.17-1.33-1.38-1.6-.76-1.44-1L7 38.06 5.85 36.7l-1.09-1.38-1-1.41-1.2-1.35L2 30.85l-1.11-1.5-.07-1.83-.21-1.76L.09 24 0 22.23l.21-1.78.12-1.79-.11-1.87 1.4-1.47.45-1.7.86-1.54.4-1.83 1-1.54 1.57-1 1.24-1.23 1.46-1 1.23-1.34 1.54-.91L13 2.56l1.57-.9h1.86l1.6-1 1.8-.39L21.62 0h1.82l1.8.2L27 .44l1.73.48 1.65.75h1.86l1.51 1 1.59.78 1.57.83 1.43 1 1.22 1.29 1.84.67.84 1.76 1 1.49.88 1.51.7 1.62 1 1.55V17l.68 1.68.07 1.78zm-31.25.23l-.09 1.89 1.2 1.56 1 1.43.67 1.87 2 .19 1.53.94 1.8-.24h1.75L27 30l1.74-.77.67-1.86 1.47-1.23v-1.9l.26-1.75.16-1.84-.44-1.82-1.37-1.3-1.06-1.42L27 14.94l-1.72-.68-1.84-.15-1.81.32-1.63.87-1.44.95-1.56 1-.45 1.8-1.14 1.54zM51.25.83l2 .1 1.86-.26 1.89.81 1.79-.56 1.84-.21h1.84l1.85.17 1.88.1.5 1.85 1.61 1.15.23 2 .94 1.54L71 8.68l.48 1.82 1.2 1.38.69 1.7.81 1.62 1 1.53L76.47 18l.58 1.76 1.19 1.41 1 1.51.36 2 .61-.37.24-1.75-1.15-1.63-.09-1.82.43-1.87-.08-1.79-.32-1.79v-1.8l-.46-1.8.67-1.81.15-1.81V4.63l-.19-1.81-.49-2h2.05l1.83.35L84.59 1l1.84-.09 1.83.1 1.83.38 1.84-.78L94 .76v2.08l.15 1.84v1.83l-.39 1.83.41 1.83-.11 1.83.09 1.83-.84 1.83.13 1.84.16 1.83.4 1.85-.46 1.82-.2 1.83.77 1.84-.65 1.83.05 1.84.41 1.83L94 34v1.84l-.38 1.83-.29 1.84.56 1.85-.36 1.64-1.59-.08-1.83.7-1.83-.13-1.84-.44-1.83-.05-1.83.53-1.84-.37-1.94.21-1.23-1.51-.41-1.86-.91-1.62-1.09-1.51-1.13-1.48-.56-1.82-1.56-1.22-.54-1.84-1.41-1.31-1-1.56-1-1.54-.72-1.73-1.08-1.52-.57-1.87-.58.12.67 1.62-.17 1.75.17 1.69-.25 1.72.71 1.67-.36 1.72-.15 1.71.13 1.71.68 1.71-.21 1.72-.19 1.71-.11 1.72.12 1.82-1.93.29-1.83-.83-1.83.57-1.83-.15-1.83-.4-1.89.15-1.84.68-2-.24-.31-2 .6-1.83-.56-1.88.5-1.83-.33-1.83-.17-1.84.33-1.83v-1.83l-.1-1.84.58-1.83-.6-1.84.63-1.84-.2-1.83-.22-1.84.28-1.83-.5-1.84.3-1.83-.15-1.84L51 8.37l.16-1.83.52-1.84-.48-1.84zm79.07 42.03h-1.5l-1.81.63-1.8.06-1.8-.24-1.8-.27-1.81.63-1.8-.17-1.81.18-1.79-.47.61-1.65.18-1.82 1.13-1.5.41-1.75.27-1.79 1.06-1.52v-1.89l.58-1.69 1.14-1.49.76-1.63.44-1.74.44-1.74.81-1.61-.13-1.94.58-1.69 1.16-1.49.33-1.77.38-1.77.81-1.61.78-1.62.94-1.57.51-1.72V4.33l.92-1.58.2-2.13 2.15.25 1.89.33 1.95-.2 1.88.37 1.89-.6 1.88.58 1.89-.48 1.89-.24 1.75.63.34 1.62.71 1.65 1 1.56.52 1.72.78 1.62.25 1.81.95 1.56.71 1.65.7 1.65.09 1.88 1.18 1.48.16 1.85.83 1.6.2 1.83 1.1 1.52.42 1.75.87 1.59-.11 1.94.65 1.67 1.22 1.48v1.91l.42 1.75.76 1.64 1.2 1.48.08 1.67-1.59.3-1.8-.34-1.8.57-1.81-.16-1.8-.46-1.8.7-1.81-.57-1.81-.25-1.74.26-.86-1.57v-1.87l-.66-1.61-1.92-.14-1.93.08-1.93.21-1.93-.81-1.94.44-2.07-.16-.35 1.91.13 1.94zm10.8-14.6l-.43-2.26-1.07-1.72-.5-1.85-.22-1.92-.13-1.85-.94-1.66-.06-1.69-.77 1.58-.41 1.84v1.93l-1 1.71-.21 1.88-.1 1.92-.84 1.9 2.19-.55h2.09zM166.3 1.23l1.46.25 1.71-.74 1.7.13 1.7.54 1.71-.74 1.7.29 1.71.4L179.7.8h2v2.04l-.7 1.84.91 1.83-.81 1.83-.14 1.83L181 12l.89 1.83-1 1.83.27 1.84-.16 1.84V23l.31 1.83.58 1.84-.67 1.83.52 1.84-.05 1.83v1.84l-.19 1.84v1.83l-.12 1.84.4 1.85-.66 1.63-1.41.56L178 43l-1.7-.18-1.7.85-1.71-.09-1.7.06-1.71-.49-1.71-.4-1.73.49.2-1.85-.24-1.82.36-1.84-.36-1.83.18-1.83-.53-1.84.58-1.83-.15-1.83.26-1.84-.34-1.83-.33-1.84.83-1.84v-1.83l-.08-1.84-.14-1.83-.62-1.84.78-1.83-.14-1.84-.52-1.84.4-1.83.18-1.84-.63-1.87zm23.13.13l1.5.11 1.85-.47 1.85-.13 1.85-.31 1.85.9 1.86-.14L202 1.2l1.9-.5 1.86.22 1.86.55 1.86-.57 1.81.56 1.82.28 1.77.51 1.7.65 1.8.49 1.58 1 1.43 1.19 1 1.53 1.21 1.39 1.19 1.5.1 1.94.5 1.82-.28 1.88-.18 1.86-.53 1.76-.05 1.93-.94 1.64-1.11 1.62-1.8.76-1.66.89-1.72.63-.18.28 1.41 1.17 1.38 1.2.69 1.74 1.49 1.21.87 1.62 1 1.55.79 1.67.82 1.66 1.26 1.37 1.41 1.27.83 1.77L227 43l-1.77.42-1.77-.56h-1.76l-1.77.08-1.77.21-1.77.52-1.77-.82-1.78.26-1.56-.18-1.06-1.35-1.15-1.58-.33-2-.74-1.67-1.3-1.47-.7-1.78-.76-1.74-1.22-1.46.19-.17-.15 1.66.16 1.69-.15 1.69-.17 1.7.57 1.69-.45 1.7.06 1.69-.08 1.64-1.82.35h-1.87l-1.84-.52h-1.88l-1.87-.24h-1.88l-1.88.3h-1.77l.05-1.72.14-1.83v-1.84l-.44-1.83.26-1.83v-1.84l.33-1.83-.54-1.83-.26-1.84.07-1.83.22-1.84v-1.84l-.31-1.83.76-1.84-.62-1.83.75-1.84-.38-1.83-.3-1.84-.25-1.84 1-1.83-.46-1.84-.41-1.89zM203.66 20l1.49.2 1.77-.55 1.64-.6.89-1.31 1.21-1.53-.47-1.87-1.37-1.34H207l-1.73-.31-1.55-.35.53 2-.39 1.79v1.77zM11.77 61.73a13.73 13.73 0 0 1-1.47 4.62 5.8 5.8 0 0 0 2.44 2.17 4.12 4.12 0 0 0-.76 1 6.52 6.52 0 0 1-2.37-2.12 7.73 7.73 0 0 1-2.77 2.19 4.57 4.57 0 0 0-.62-1A6.72 6.72 0 0 0 9 66.35a14.12 14.12 0 0 1-1-2.88 7.19 7.19 0 0 1-.63 1.07 9.07 9.07 0 0 0-.88-.68C6.38 67.33 6.3 68.62 6 69a1 1 0 0 1-.76.45 8.52 8.52 0 0 1-1.28 0 2.65 2.65 0 0 0-.29-1h1a.36.36 0 0 0 .35-.17c.19-.25.28-1.37.33-4.47H4a7.71 7.71 0 0 1-1.78 5.63 4.8 4.8 0 0 0-.82-.72A6.93 6.93 0 0 0 3 63.83v-2.4H1.69v-1h2.05v-1.9h1.1v1.86h2.1v1H4v1.41h2.48v.85a12 12 0 0 0 1.82-5.18l1.14.18c-.12.69-.26 1.36-.43 2h3.66v1zm-3.14.15a15.55 15.55 0 0 0 1 3.36 12.32 12.32 0 0 0 1-3.51h-2zM16.37 67a3.26 3.26 0 0 0 2.83 1.26c1.34 0 4 0 5.5-.08a5.08 5.08 0 0 0-.38 1.14c-1.35.06-3.76.08-5.13 0a4.1 4.1 0 0 1-3.31-1.38c-.56.49-1.14 1-1.76 1.49l-.58-1.15A17.67 17.67 0 0 0 15.28 67v-2.8h-1.53v-1h2.62zm-.55-5.6a8.93 8.93 0 0 0-2-1.89l.83-.68a9.33 9.33 0 0 1 2 1.84zm5.66 2.77a4.24 4.24 0 0 0 3 2.68 4 4 0 0 0-.72.93 4.88 4.88 0 0 1-3-2.77 5.49 5.49 0 0 1-3 2.74 3.44 3.44 0 0 0-.76-.85c2-.76 2.66-1.81 2.89-2.77H17v-1h3v-1.42h-2.64v-1h1.36a6.6 6.6 0 0 0-1-1.76l.95-.4a6.58 6.58 0 0 1 1.07 1.87l-.66.29h3l-.68-.24a10.48 10.48 0 0 0 1.05-2l1.14.36a19.38 19.38 0 0 1-1.21 1.83h1.74v1h-3v1.43h3.33v1zm9.64-1.54A1.4 1.4 0 1 1 29.73 64a1.39 1.39 0 0 1 1.39-1.37zM37.78 59h5.38v1H41.6v1.2h1.3v8.15H42v-.62h-3.08v.79h-.87v-8.36h1.4V60h-1.67zm1.14 7H42v-1h-.62c-.49 0-.63-.14-.63-.77v-2.14h-.57V63a3.11 3.11 0 0 1-.81 2.28 3.39 3.39 0 0 0-.45-.4 2.45 2.45 0 0 0 .7-1.89v-.94h-.7zM42 67.8v-1h-3.08v1zM40.82 60h-.6v1.2h.6zM42 62.09h-.69v2.1c0 .16 0 .18.13.18h.5a.13.13 0 0 1 .06 0zm5 6.26c.49 0 .58-.3.65-2a3.21 3.21 0 0 0 1 .47c-.12 2-.42 2.53-1.57 2.53h-1.81c-1.19 0-1.56-.33-1.56-1.59v-5.02h3.46v-2.6h-3.5v-1.07h4.58v5.52h-1.08v-.79h-2.36v4c0 .47.1.55.6.55zm6.4-9.47a19.53 19.53 0 0 1-1.17 2.39v8.22h-1.06v-6.62A11.89 11.89 0 0 1 50 64.26a10.45 10.45 0 0 0-.61-1.12 13 13 0 0 0 3-4.6zm7.25 1.82v.93H53v-.93zm-6.87 5h6.13v3.75h-1.12V69h-3.95v.52h-1.06zm6-2.45h-5.86v-.9h5.85zm-5.85.78h5.82V65h-5.83zm5.64-4.13h-5.48V59h5.47zm-4.73 6.7v1.5h3.95v-1.5zm6.63-2.68a17.17 17.17 0 0 0 .53-3.09l.8.11a16.77 16.77 0 0 1-.48 3.25zm3.11-1.66a15.5 15.5 0 0 0-.58-1.68v8.94h-1v-11h1v2l.69-.28a10.72 10.72 0 0 1 .67 1.69zm8 .07v.83h-7.76v-.83h3.28v-.69h-2.62v-.78h2.62v-.63h-2.91v-.82h2.91v-.89h1.11v.89h3v.82h-3v.63h2.72v.78h-2.72v.69zm-.89 6c0 .5-.1.79-.46.94a5.08 5.08 0 0 1-1.77.17 4 4 0 0 0-.32-1h1.28c.15 0 .22-.06.22-.21v-.64h-4v1.81h-1v-5.65h6zm-5-3.79v.74h4v-.74zm4 2.31v-.74h-4v.74zm6.18-5.2H79v1h-1.15l.51.13c-.2.5-.42 1-.61 1.41h1.07v1h-1.95v1.13h1.79v1h-1.79v2.31h-1.05v-2.45h-1.88v-1h1.88V65.1h-2v-1h1a5.6 5.6 0 0 0-.45-1.41l.49-.13h-1.23v-1h2.19v-1h-1.76v-.94h1.76v-1.08h1.05v1.13h1.65v.94h-1.65zm0 2.39a14.41 14.41 0 0 0 .5-1.44h-2.05a6 6 0 0 1 .47 1.4l-.4.1h1.91zm7.45-.74A11.7 11.7 0 0 1 83 67.21a5.8 5.8 0 0 0 1.79 1.43 4.6 4.6 0 0 0-.75.89 6.49 6.49 0 0 1-1.65-1.42 6.59 6.59 0 0 1-1.46 1.43 4.1 4.1 0 0 0-.61-.65v.64h-1V59.05h4.77v2.26c0 .52-.11.81-.53 1a5.81 5.81 0 0 1-1.9.16 3.33 3.33 0 0 0-.34-1h1.5c.18 0 .23 0 .23-.18V60H80.3v3.1h3.17l.18-.05zm-4 5.39a6.07 6.07 0 0 0 1.42-1.44A12.2 12.2 0 0 1 80.3 64zm.91-4.69a10.35 10.35 0 0 0 1.07 2.31 9.68 9.68 0 0 0 .85-2.31z" fill="#fff"/><path fill="none" stroke="#fff" stroke-miterlimit="10" stroke-width="2" stroke-dasharray="2 4" d="M227.13 65.13H97.88"/></g></svg>