<svg xmlns="http://www.w3.org/2000/svg" viewBox="0 0 35.71 65.66"><defs><style>.cls-1{fill:#fff}</style></defs><g id="レイヤー_2" data-name="レイヤー 2"><g id="スクロール"><path class="cls-1" d="M17.86 4a13.87 13.87 0 0 1 13.85 13.86v30A13.86 13.86 0 0 1 4 47.81V17.86A13.88 13.88 0 0 1 17.86 4m0-4A17.85 17.85 0 0 0 0 17.86v30a17.86 17.86 0 0 0 35.71 0v-30A17.85 17.85 0 0 0 17.86 0z"/><path class="cls-1" d="M17.86 10.68a2.59 2.59 0 0 0-2.58 2.58v8.63a2.58 2.58 0 0 0 5.15 0v-8.63a2.58 2.58 0 0 0-2.57-2.58z"/></g></g></svg>