<svg xmlns="http://www.w3.org/2000/svg" viewBox="0 0 353.54 116.22"><defs><style>.cls-2{fill:#f6821e}</style></defs><g id="小川_杠" data-name="小川 杠"><path d="M112.55 23.74c-2.86 12.85-7.31 28.81-14 38.13a68.56 68.56 0 0 0-12-6.38c6.38-8.4 10.5-23.27 12.1-34.11zm21.5-21.34v63.84c0 7.06-1.51 10.33-5.79 12.35s-10.5 2.35-18.82 2.27a50 50 0 0 0-4.87-12.69c5.21.34 11.59.34 13.44.25s2.6-.58 2.6-2.27V2.4zm18.74 18c6.63 11.92 13.44 27.21 15.53 38l-13.43 5.29c-1.6-10.33-7.73-26.29-14.12-38.8zM194 5.26v29.4c0 16.54-1.18 34.27-12.6 47.2A54.41 54.41 0 0 0 170.76 73c9.49-10.67 10.59-24.78 10.59-38.39V5.26zM219.06 9v63.46h-12.51V9zm24.61-3.78v75.6h-12.93V5.17zm60.06 49.34c-1.34-2.68-3.36-6-5.37-9.32v35.87H286V56.24a62.39 62.39 0 0 1-6.13 10.84c-1.18-3.61-4-8.32-6-11.34C279 48.6 283.49 38 286 28.86v-.92h-11V16.68h11V1.31h12.35v15.37h10v11.26h-10v1.84c2.85 2.78 10 10.92 11.5 12.69zM353.54 64v12.23h-48.8V64h19.41V20h-14.62V7.78h41.66V20H337.5v44zm-230.28 48.62a3.3 3.3 0 0 0 2.7-1.33v2a3.83 3.83 0 0 1-2.7.93 4.56 4.56 0 1 1 0-9.12 3.87 3.87 0 0 1 2.7.92v2a3.31 3.31 0 0 0-2.7-1.34 3 3 0 0 0 0 6zm5.88-7.17v3.24h4v-3.24h1.68v8.4h-1.72v-3.66h-4v3.66h-1.68v-8.4zm15.36 8.4h-1.8l-1-2h-3.48l-1 2h-1.8l4.5-9zm-5.57-3.48h2.14L140 108.1zm9.47-4.92c1.86 0 3 1 3 2.7a2.49 2.49 0 0 1-1.8 2.52l2.19 3.18h-2l-2.05-3h-.65v3h-1.68v-8.4zm-1.26 3.9h1.26c.83 0 1.35-.41 1.35-1.2s-.52-1.2-1.35-1.2h-1.26zm14.46 4.5h-1.8l-1-2h-3.48l-1 2h-1.8l4.5-9zm-5.6-3.48h2.14l-1.07-2.27zm10.22 2.25a3.3 3.3 0 0 0 2.7-1.33v2a3.83 3.83 0 0 1-2.7.93 4.56 4.56 0 1 1 0-9.12 3.87 3.87 0 0 1 2.7.92v2a3.31 3.31 0 0 0-2.7-1.34 3 3 0 0 0 0 6zm4.2-7.17h6V107h-2.16v6.9h-1.68V107h-2.16zm9.24 6.9h3.78v1.5H178v-8.4h5.46V107h-3.78v1.86h3.54v1.44h-3.54zm8.22-6.9c1.86 0 3 1 3 2.7a2.49 2.49 0 0 1-1.8 2.52l2.19 3.18h-2l-2-3h-.65v3h-1.68v-8.4zm-1.26 3.9h1.26c.83 0 1.35-.41 1.35-1.2s-.52-1.2-1.35-1.2h-1.26zm15.18-3.9h1.8l-4.5 9-4.5-9h1.8l2.7 5.75zm6.6-.36a4.56 4.56 0 1 1-4.68 4.56 4.52 4.52 0 0 1 4.68-4.56zm0 7.58a2.88 2.88 0 0 0 3-3 3 3 0 1 0-5.92 0 2.88 2.88 0 0 0 2.92 3zm7.68-7.22v8.4h-1.68v-8.4zm6.18 7.17a3.31 3.31 0 0 0 2.7-1.33v2a3.83 3.83 0 0 1-2.7.93 4.56 4.56 0 1 1 0-9.12 3.87 3.87 0 0 1 2.7.92v2a3.32 3.32 0 0 0-2.7-1.34 3 3 0 0 0 0 6zm6.12-.27h3.78v1.5h-5.46v-8.4h5.46V107h-3.78v1.86h3.54v1.44h-3.54zm73.43-5.76v1.26h3.77v4.05c0 .69-.14 1.09-.63 1.31a5.62 5.62 0 0 1-2.12.24 5.16 5.16 0 0 0-.48-1.4h1.5c.2 0 .25-.06.25-.19v-2.64h-2.29v5.66h-1.49v-5.66h-2.1v4.21h-1.44v-5.6h3.54v-1.26h-4.67v-1.37h4.66v-1.56h1.52v1.56h4.76v1.39zm14.06-.18a16.25 16.25 0 0 1-2.26 4.4 11.94 11.94 0 0 1-4.54 3.48l-1.37-1.4a10.55 10.55 0 0 0 4.56-3.12 12.29 12.29 0 0 0 2.27-5.18l1.87.48a12.35 12.35 0 0 0-.53 1.34zm3.18 2.78a7.82 7.82 0 0 0-1.83-1.18L318 107a7.38 7.38 0 0 1 1.88 1.08zm.88 1.72c-.37 1.3-.84 2.71-1.28 3.88l-1.32-.68a36.71 36.71 0 0 0 1.41-3.91zm5.05 1.47l1.13.6a8.35 8.35 0 0 1-1.76 1.93 8.49 8.49 0 0 0-1-.73 5.62 5.62 0 0 0 1.62-1.8h-.45v-6.21h1l.12-.86h-1.32v.91h-1.47v.78h1.41v3.39h-1.46v.44c.46.29 1.29.87 1.48 1l-.66 1.27a12.32 12.32 0 0 0-.82-1v2.74h-1.28v-2.77a9.17 9.17 0 0 1-1.34 2.13 9.13 9.13 0 0 0-.61-1.4 8.5 8.5 0 0 0 1.69-2.45h-1.06V107h1.3v-.79H320v-1l-.64.87a7.63 7.63 0 0 0-1.85-1.23l.81-1a7.48 7.48 0 0 1 1.88 1.12l-.05.07h1.31v-1.23h1.28V105h1.32v-.91h4.33v1.23H327l-.3.86h1.37v6.21zm-3.8-3.1h.52v-1.14h-.52zm2-1.14h-.55v1.14h.55zm3.7-.88h-1.24v.66h1.24zm0 1.68h-1.24v.67h1.24zm0 1.69h-1.24v.67h1.24zm.49 1.78a8.89 8.89 0 0 1 1.19 2l-1.15.53a9.75 9.75 0 0 0-1.13-2zm7.51-6.58v.65c-.11 5.11-.2 7-.57 7.5a1.23 1.23 0 0 1-.92.61 7.16 7.16 0 0 1-1.45 0 3.57 3.57 0 0 0-.41-1.43c.48 0 .91.05 1.14.05a.44.44 0 0 0 .41-.22c.23-.32.32-1.81.39-5.81h-1.21c-.12 3.2-.54 5.88-2.08 7.66a3.71 3.71 0 0 0-1.05-1c1.35-1.53 1.67-3.82 1.75-6.62h-1.39v-1.4h1.41v-2h1.4v2zm5-.78v9.5h-1.42v-.74h-1.55v.83h-1.38v-9.59zm-1.42 7.38v-6h-1.55v6zm8.48-8.14v.72c0 6.2 0 8.34-.37 8.94a1.29 1.29 0 0 1-.9.7 5.84 5.84 0 0 1-1.44.07 4.12 4.12 0 0 0-.44-1.52h1.07a.38.38 0 0 0 .37-.25 6.25 6.25 0 0 0 .22-2H344a8.81 8.81 0 0 1-1.64 4 7.5 7.5 0 0 0-1.16-1.06 6.34 6.34 0 0 0 1.37-2.89h-1.12v-1.26h1.34c.06-.45.1-.91.14-1.4h-1.34V107H343v-1.44h-1.56v-1.29zm-1.48 5.39v-1.4h-1.19c0 .49-.09 1-.13 1.4zm-1.08-4.1v1.44h1.14v-1.44zm8.09-.73c-.47 1.13-1 2.47-1.56 3.53a3.65 3.65 0 0 1 1.35 2.77 2 2 0 0 1-.7 1.75 2.29 2.29 0 0 1-.88.3 10.4 10.4 0 0 1-1.14 0 3.41 3.41 0 0 0-.39-1.34 4.38 4.38 0 0 0 .87 0 1.38 1.38 0 0 0 .55-.1c.25-.14.34-.4.34-.8a3.3 3.3 0 0 0-1.4-2.44c.39-.87.82-2 1.15-3H349v9.29h-1.36v-10.56h3.77zm-63.01 6.54h-2v-2h2zm-6 0h-2v-2h2zm-6 0h-2v-2h2zm-6 0h-2v-2h2zm-6 0h-2v-2h2zm-6 0h-2v-2h2zm-6 0h-2v-2h2zm-6 0h-2v-2h2zm-6 0h-2v-2h2z" fill="#fff"/><path class="cls-2" d="M225.93 71.68h-10.21l-5.1 8.84 5.1 8.84h10.21l5.1-8.84-5.1-8.84z"/><path d="M219.7 80.41a9.2 9.2 0 0 1 2.47-.37c1.76 0 3.1.95 3.1 2.47s-.82 2.4-2.57 2.82a8.72 8.72 0 0 1-1.5.17l-.43-1.2a7.48 7.48 0 0 0 1.43-.09c1-.18 1.87-.7 1.87-1.71s-.83-1.42-1.91-1.42a8.1 8.1 0 0 0-2.44.4c0 1 .05 2 .05 2.44 0 1.26-.47 1.62-1.16 1.62-1 0-2.62-.93-2.62-2.08s1.22-2 2.62-2.67v-2.05a7.54 7.54 0 0 1-.78 0 15.54 15.54 0 0 1-1.56-.06v-1.15a12.31 12.31 0 0 0 1.57.09h.81v-1.19a6.71 6.71 0 0 0-.08-.93h1.3c0 .23-.06.62-.07.91s0 .67-.05 1.09a14.05 14.05 0 0 0 2.34-.46v1.18a23.29 23.29 0 0 1-2.39.4v1.36zm-1 3.32v-1.82c-.86.42-1.46 1-1.46 1.5s.7.87 1.1.87.33-.15.33-.55zm4.77-6.91a22.15 22.15 0 0 1 2.81 1.71l-.59 1a16.85 16.85 0 0 0-2.74-1.75z"/><path class="cls-2" d="M246.34 71.68h-10.21l-5.1 8.84 5.1 8.84h10.21l5.1-8.84-5.1-8.84z"/><path d="M240.59 75.83c-.06.25-.13.55-.18.82s-.17.93-.28 1.47c.48 0 .92-.06 1.19-.06 1.14 0 2 .48 2 2.13a11.72 11.72 0 0 1-.67 4.31 1.8 1.8 0 0 1-1.84 1 6.25 6.25 0 0 1-1.41-.18l-.21-1.24a6.65 6.65 0 0 0 1.46.25 1 1 0 0 0 1-.57 9.52 9.52 0 0 0 .52-3.46c0-1-.45-1.19-1.21-1.19-.24 0-.63 0-1.08.06a24.41 24.41 0 0 1-2.44 6.37l-1.24-.49a18.33 18.33 0 0 0 2.46-5.75l-1.3.15c-.31 0-.84.1-1.17.16l-.12-1.29h1.15c.41 0 1-.06 1.68-.12a14 14 0 0 0 .29-2.54zm4.27 1.55a22.71 22.71 0 0 1 2 4l-1.19.57a14 14 0 0 0-2.08-4.37l1.12-.49.19.26a12.6 12.6 0 0 0-1-1.65l.78-.32a17 17 0 0 1 1 1.65zm1.39-.52a10.55 10.55 0 0 0-1-1.65l.78-.33a16 16 0 0 1 1 1.65z"/><path class="cls-2" d="M266.75 71.68h-10.21l-5.1 8.84 5.1 8.84h10.21l5.1-8.84-5.1-8.84z"/><path d="M260.68 77.82c-.16.22-.38.55-.57.85v.59a5.83 5.83 0 0 1 3.64-1.37A3.06 3.06 0 0 1 266.9 81c0 2.4-1.63 3.73-4.39 4.27l-.51-1.16c2-.3 3.7-1.19 3.7-3.16a2 2 0 0 0-2.14-2A5.24 5.24 0 0 0 260 80.6v4.23c0 .21.05.56.08.8h-1.3v-3.88c-.55.81-1.24 1.84-1.75 2.53l-.74-1c.66-.81 1.95-2.53 2.59-3.49l.06-1-2.24.3-.12-1.22h.88c.33 0 1-.1 1.56-.18 0-.52.06-.9.06-1a5.27 5.27 0 0 0-.06-1h1.41c-.06.3-.16.94-.24 1.71z"/><path class="cls-2" d="M287.16 71.68h-10.21l-5.1 8.84 5.1 8.84h10.21l5.1-8.84-5.1-8.84z"/><path d="M283.23 75.59c.07.37.15.91.22 1.56a3.27 3.27 0 0 1 3.55 3.27 3.37 3.37 0 0 1-3.73 3.52 1.83 1.83 0 0 1-.33 0 4.9 4.9 0 0 1-1.66 2l-1.12-.67a4.13 4.13 0 0 0 1.61-1.6 3.72 3.72 0 0 1-1.85-1.78l.7-.85a3 3 0 0 0 1.57 1.59 9.11 9.11 0 0 0 .32-2.59c0-.6 0-1.18-.07-1.72a4.78 4.78 0 0 0-3.48 3.59 2.53 2.53 0 0 0-.07.68 9.48 9.48 0 0 0 .14 1.14l-1.05.14a12 12 0 0 1-.41-3.17 33.39 33.39 0 0 1 .31-3.57 3.47 3.47 0 0 0 0-.63l1.29.11c-.07.21-.13.44-.19.63a14.39 14.39 0 0 0-.31 3 5.24 5.24 0 0 1 3.66-3c0-.35-.09-.64-.14-.87s-.13-.58-.2-.78zm2.57 4.87a2.16 2.16 0 0 0-2.25-2.27c.05.58.07 1.2.07 1.81a11.06 11.06 0 0 1-.3 2.79 2.27 2.27 0 0 0 2.48-2.33z"/><path class="cls-2" d="M307.56 71.68h-10.2l-5.1 8.84 5.1 8.84h10.2l5.11-8.84-5.11-8.84z"/><path d="M305.6 77.21h1.8v1.11c-.7 0-1.82-.06-3.56-.06v1.86a2.88 2.88 0 0 1 .42 1.59c0 1.58-.84 3.45-3.65 4.27l-1-1a4.58 4.58 0 0 0 3.05-1.73 1.89 1.89 0 0 1-.81.17 2 2 0 0 1-2-2.08A2.15 2.15 0 0 1 302 79.2a2.25 2.25 0 0 1 .64.08v-1c-1.8 0-3.73.09-5.22.2v-1.16c1.34 0 3.54-.08 5.23-.1a13.89 13.89 0 0 0-.12-1.47h1.38c0 .16-.06.69-.07.86a5.08 5.08 0 0 0 0 .6h1.76a15.89 15.89 0 0 0-.87-1.45l.82-.34a15 15 0 0 1 .86 1.43zm-3.6 5.16c.61 0 1.07-.48.91-1.61a1 1 0 0 0-.91-.55 1.06 1.06 0 0 0-1.08 1.1 1 1 0 0 0 1.08 1.06zm5.09-5.5a10.74 10.74 0 0 0-.86-1.44l.8-.33c.29.42.65 1 .89 1.41z"/><path class="cls-2" d="M327.98 71.68h-10.21l-5.1 8.84 5.1 8.84h10.21l5.1-8.84-5.1-8.84z"/><path d="M321.35 75.64a19.68 19.68 0 0 0-.52 2.94 3.83 3.83 0 0 1 3.1-2.37c1.61 0 2.81 1.6 2.81 4.15 0 3.31-2.07 4.84-5.09 5.39l-.72-1.08c2.6-.41 4.54-1.37 4.54-4.31 0-1.84-.61-3.06-1.75-3.06-1.44 0-2.76 2.14-2.85 3.7a5.36 5.36 0 0 0 0 1.37l-1.16.08a14.38 14.38 0 0 1-.14-1.92 30.13 30.13 0 0 1 .36-3.82c0-.4.08-.81.09-1.12z"/><path class="cls-2" d="M348.38 71.68h-10.2l-5.1 8.84 5.1 8.84h10.2l5.11-8.84-5.11-8.84z"/><path d="M340.52 76c-.08.21-.19.7-.24.91a30.52 30.52 0 0 0-.57 4.71 8.7 8.7 0 0 0 .08 1.24c.17-.49.42-1.06.6-1.5l.61.48c-.31.89-.72 2.1-.85 2.71a2.62 2.62 0 0 0-.06.54v.45l-1.05.07a14.13 14.13 0 0 1-.47-3.77 34.64 34.64 0 0 1 .53-5c0-.3.08-.67.09-1zm7.55 8.78a10.79 10.79 0 0 0-1.65-1.29c0 1.11-.53 2-2.18 2s-2.54-.67-2.54-1.81.94-1.91 2.53-1.91a5.92 5.92 0 0 1 1 .08c0-.83-.09-1.85-.11-2.77h-1c-.68 0-1.33 0-2-.07v-1.07c.69.06 1.35.1 2.05.1h1v-1.39a4 4 0 0 0-.08-.75h1.36a6 6 0 0 0-.07.73v1.34a18.47 18.47 0 0 0 2-.26v1.16c-.61.1-1.28.17-2 .22 0 1.18.1 2.25.13 3.16a7.88 7.88 0 0 1 2.33 1.55zm-2.84-1.84a4.06 4.06 0 0 0-1.1-.16c-.79 0-1.33.35-1.33.84s.53.83 1.28.83 1.15-.45 1.15-1.19z"/></g><path fill="none" opacity=".17" d="M0 0h353.54v116.22H0z" id="獅子王_司" data-name="獅子王 司"/></svg>