<svg xmlns="http://www.w3.org/2000/svg" viewBox="0 0 455 116.2"><path fill="none" d="M0 0h455v116.2H0z"/><path d="M61.5 28c-.3.8-.8 2.4-1.4 3.9C69.5 35.3 76 42.8 76 52.7c0 11.7-6.5 23.7-27.5 26.8L41.9 69c16.6-1.8 21.6-10.2 21.6-16.9 0-4.3-2.3-8-6.8-10.1-4.5 10.9-10.9 19.2-16.9 24.2.6 2 1.2 4 1.8 5.9L30 75.5c-.3-.8-.6-1.8-.9-2.8-3.8 1.8-8 2.8-12.2 2.8-6.5 0-12-3.9-12-13.1 0-10.7 8.6-22 20.2-27.6.2-3.1.4-6.3.8-9.3h-1.4c-4.9 0-11.3-.4-15.5-.6l-.3-11.6c5.4.7 10.8 1.1 16.2 1.2h2l.3-3.4c.2-1.8.3-3.7.2-5.5l13 .3c-.6 1.9-.9 3.4-1.3 4.9-.2 1.1-.5 2.3-.7 3.4C47.7 14 57 12.8 66 10.6l.1 11.5c-9.7 1.6-19.5 2.6-29.3 2.9l-.5 6.1c3.8-.8 7.7-1.3 11.6-1.3h.5c.3-1.6.5-3.1.7-4.7L61.5 28zm-35 33.3c-.8-4.8-1.3-9.6-1.5-14.4-5.1 3.9-8.3 9.2-8.3 12.8 0 2.3.8 3.5 3.3 3.5 2.3-.1 4.5-.8 6.5-1.9zm18.8-21.2c-3.1.2-6.2.7-9.2 1.5.1 3.8.3 7.6.8 11.4 3.5-3.8 6.4-8.1 8.4-12.9zM149.6 25c-3.9 1.1-8.4 2.3-13.3 3.3 3.1 6.7 6.8 13.8 10.5 20.2l-7 7.6c-5-1-13.3-2.4-19.9-3.3l1.1-10.3c2.6.2 6.4.6 8.7.7-1.8-3.6-4-8-6.2-12.7-11.6 1-23.3 1-35-.1l-.4-12.9c10 1.4 20 1.7 30.1 1l-1.2-2.8c-1.2-3-2.7-5.8-4.4-8.5l14.2-2.8c1.3 4.1 2.8 8.2 4.4 12.2 5.4-1 10.8-2.4 16-4.2l2.4 12.6zM105 47c-.9 2.5-2.3 7.2-2.3 9.7 0 5.4 2 9.2 13.4 9.2 7.8.1 15.5-.7 23.1-2.4l-.2 13.2c-7.5 1.4-15.2 2.1-22.8 2.1-17.4 0-26.6-6.4-26.6-18.6 0-3.7 1.1-9.3 2.3-14.2l13.1 1zm118.4-9.9c-4 1.3-8 2.3-12.1 3.1 1.9 4 4.1 8.6 6.6 13.2L212 61c-4.9-1-13.5-2.3-19.2-3l1.1-9.6c2.9.2 5.8.5 7.9.7-1.1-2.4-2-4.7-2.9-6.7-12 1.1-24.1 1.3-36.2.4l-.5-11.5c10.7 1.1 21.5 1.2 32.2.3l-.5-1.3-2.2-5c-9.4.6-18.8.5-28.2-.4l-.7-11.4c7.9.9 15.9 1.3 23.9 1.1-1.1-2.3-2.4-4.5-3.8-6.6l14.4-2.7c.5 2.3 1.3 5 2.3 7.9 4.1-.6 8.1-1.6 12-2.9l2.1 11.2c-3.2 1-6.6 1.8-9.9 2.4.5 1.3 1.1 2.5 1.6 3.7l1 2.4c5-.9 9.9-2.3 14.7-4l2.3 11.1zm-46 14.6c-1.1 2.5-1.7 5.2-1.9 7.9 0 4.4 2.9 7.7 13.1 7.7 7.7 0 15.3-.6 22.8-1.8l-.4 12.8c-7.3 1.1-14.6 1.7-22 1.7-16 0-26-5.4-26-17.6.1-4 .8-7.9 2-11.7l12.4 1zm41.3-47.2c2.4 3.6 4.6 7.4 6.6 11.3l-7.5 3.2c-1.7-4-3.9-7.9-6.4-11.5l7.3-3zm9.5-4c2.2 3 5.3 7.9 7 10.9l-7.4 3.5c-1.9-3.9-4.2-7.7-6.8-11.2l7.2-3.2zM255 6c-1.3 4.6-2.3 9.3-3 14 4.3-5.2 10.8-10.3 19.4-10.3 11.9 0 21.5 11.4 21.5 30.2 0 23.8-14.4 35.5-37.2 39.7L248 67.9c18.8-2.9 31.1-8.3 31.1-28 0-12.6-4.2-18.5-10.1-18.5-9.5 0-17.6 14.6-17.6 25.5 0 2.7.2 5.3.5 8l-12.4.8c-.7-4.7-1.1-9.4-1.1-14.2.1-8.9.9-17.8 2.2-26.6.4-3.2.6-6.4.7-9.6L255 6zm109.9 15.9c3.1 0 6.2-.2 9.2-.7v13.9c-3.5-.3-7.3-.3-9.2-.3h-10.4c-1.6 21.4-9.9 36.9-25.5 46.6l-13.7-9.2c3.1-1.2 6-2.9 8.6-5 9.1-7.1 15-17 16.5-32.4h-15.6c-3.6 6.5-8.1 12.4-13.4 17.5l-12.8-7.8c6-4.5 11-11.5 14.4-16.9 2.1-3.6 3.7-7.4 5-11.3 1.1-3.1 1.8-6.4 2-9.7l15.7 3.1c-1.1 2.3-2.4 5.6-3.1 7.4-.5 1.4-1.2 3-1.9 4.8h34.2zm-4.3-1.9c-1.9-4-4.1-7.9-6.5-11.7l7.9-3.2c2.1 3.1 5 8.6 6.5 11.5l-7.9 3.4zm10.5-4.1c-1.9-4-4.1-7.9-6.6-11.6l7.9-3.2c2.4 3.7 4.7 7.5 6.7 11.4l-8 3.4zM414 54.2c15.1-8.7 26.5-21.8 32.1-33.6L454 35c-6.7 11.9-18.6 23.6-32.7 31.8-9.3 5.5-19.5 9.2-30.1 11.1l-8.7-13.4c12.4-1.7 23.3-5.5 31.5-10.3zm2.9-27.4l-10.4 10.7c-6.5-6.7-13.6-12.9-21.1-18.4L395 8.7c5.8 3.9 16.8 12.7 21.9 18.1zm-183.3 86.7c1.1 0 2.1-.5 2.7-1.3v2c-.8.6-1.7 1-2.7.9-2.5.1-4.7-1.8-4.8-4.3s1.8-4.7 4.3-4.8h.4c1-.1 2 .3 2.7.9v2c-.6-.8-1.6-1.3-2.7-1.3-1.7 0-3 1.3-3 3s1.4 2.9 3.1 2.9zm5.9-7.2v3.2h4v-3.2h1.7v8.4h-1.7V111h-4v3.7h-1.7v-8.4h1.7zm15.3 8.4H253l-1-2h-3.4l-1 2h-1.8l4.5-9 4.5 9zm-5.5-3.5h2.1l-1.1-2.2-1 2.2zm9.4-4.9c1.9 0 3 1 3 2.7.1 1.2-.7 2.2-1.8 2.5l2.2 3.2h-2l-2-3h-.6v3h-1.6v-8.4h2.8zm-1.2 3.9h1.3c.8 0 1.4-.4 1.4-1.2s-.5-1.2-1.4-1.2h-1.3v2.4zm14.4 4.5h-1.8l-1-2h-3.4l-1 2h-1.8l4.5-9 4.5 9zm-5.5-3.5h2.1l-1.1-2.2-1 2.2zm10.2 2.3c1.1 0 2.1-.5 2.7-1.3v2c-.8.6-1.7 1-2.7.9-2.5.1-4.7-1.8-4.8-4.3-.1-2.5 1.8-4.7 4.3-4.8h.4c1-.1 2 .3 2.7.9v2c-.6-.8-1.6-1.3-2.7-1.3-1.7 0-3 1.3-3 3s1.4 2.9 3.1 2.9zm4.2-7.2h6v1.5h-2.2v6.9h-1.7v-6.9h-2.2v-1.5zm9.2 6.9h3.8v1.5h-5.5v-8.4h5.5v1.5H290v1.9h3.5v1.4H290v2.1zm8.2-6.9c1.9 0 3 1 3 2.7.1 1.2-.7 2.2-1.8 2.5l2.2 3.2h-2l-2-3h-.6v3h-1.7v-8.4h2.9zm-1.2 3.9h1.3c.8 0 1.4-.4 1.4-1.2s-.5-1.2-1.4-1.2H297v2.4zm15.1-3.9h1.8l-4.5 9-4.5-9h1.8l2.7 5.7 2.7-5.7zm6.6-.4c2.5.1 4.5 2.2 4.4 4.7s-2.2 4.5-4.7 4.4c-2.5-.1-4.4-2.1-4.4-4.6 0-2.5 2-4.5 4.5-4.6.1.1.2.1.2.1zm0 7.6c1.6.1 2.9-1.2 3-2.8v-.2c.3-1.6-.8-3.2-2.5-3.4s-3.2.8-3.4 2.5c-.1.3-.1.7 0 1-.1 1.6 1.2 2.9 2.8 3 0-.1.1-.1.1-.1zm7.7-7.2v8.4h-1.7v-8.4h1.7zm6.2 7.2c1.1 0 2.1-.5 2.7-1.3v2c-.8.6-1.7 1-2.7.9-2.5.1-4.7-1.8-4.8-4.3-.1-2.5 1.8-4.7 4.3-4.8h.4c1-.1 2 .3 2.7.9v2c-.6-.8-1.6-1.3-2.7-1.3-1.7 0-3 1.3-3 3s1.4 2.9 3.1 2.9zm6.1-.3h3.8v1.5H337v-8.4h5.5v1.5h-3.8v1.9h3.5v1.4h-3.5v2.1zm69.3-2.9c-.5-.3-1.5-.9-2.2-1.3l.8-1.1c.7.3 1.7.8 2.2 1.2l-.8 1.2zm-2 4.3c.8-1.2 1.6-2.5 2.3-3.8l1 1c-.6 1.2-1.4 2.6-2.1 3.8l-1.2-1zm11-8h-.9v7.3c0 .9-.2 1.3-.8 1.5-.9.2-1.9.3-2.8.2-.1-.5-.3-1-.5-1.5 1 .1 2 .1 2.3.1s.4-.1.4-.4v-7.3h-5.5v-.5l-.8 1.1c-.5-.4-1.5-1-2.2-1.4l.8-1c.7.3 1.7.9 2.2 1.2v-.7h7.8v1.4zm-6 5.7v.8h-1.3v-5.2h4v4.4H411zm0-3.1v1.8h1.4v-1.9l-1.4.1zm14.4-2.6v1.3h3v7.8h-1.5v-.7h-7v.7h-1.4v-7.8h2.8v-1.3H418v-1.4h10.7v1.4h-3.3zm1.5 7.1V112c-.2.1-.4.1-.6.1h-1c-1.2 0-1.4-.4-1.4-1.6v-1.4h-1.2v.1c.1 1.4-.7 2.8-2 3.4-.2-.3-.5-.5-.8-.8v1.7l7 .2zm-7-4.5v2.5c.9-.4 1.5-1.4 1.5-2.4v-.1h-1.5zm4-2.6h-1.2v1.3h1.2v-1.3zm3 2.6h-1.6v1.4c0 .3 0 .3.3.3h.6c.2 0 .2-.1.3-.6.2.1.3.2.5.3l-.1-1.4zm8.6-.3c-.1 1.5-.3 3-.9 4.4.9.8 2 1.1 3.2 1h3.4c-.2.4-.4.8-.4 1.3h-3c-1.3.1-2.7-.3-3.7-1.1-.3.5-.7.9-1.1 1.3-.2-.4-.4-.7-.7-1v1h-1.2v-6.2c-.2.3-.5.7-.7 1-.2-.5-.4-1.1-.6-1.6 1-1.3 1.7-2.8 2.1-4.3l1.2.4-.2.5h1.6l.9.2c-.3.9-.8 2-1.2 3.1h1.3zm-3.3 5.7c.4-.3.8-.7 1-1.2-.4-.8-.7-1.6-.9-2.5l1.1-.3c.1.5.2.9.4 1.4.2-.7.3-1.4.4-2.1h-.6l-.2.5-1.2-.3c.5-1 1-2.4 1.4-3.4h-1v-.7c-.1.4-.3.8-.5 1.2l.1 7.4zm5-8h-1.5v-1h1.5v-.9h1.3v.9h2v1.6h.6v1h-.6v1.6h-2v.6h2.1v1h-2.1v.6h2.4v1h-2.4v1.1h-1.3V113h-1.9v-1h1.9v-.6h-1.6v-1h1.6v-.6h-1.5v-1h1.5v-.6h-2.3v-1h2.3v-.6zm1.3 0v.5h.8v-.5h-.8zm.8 1.5h-.8v.6h.8v-.6zm13.6 1.3v1.2H442v-1.2h2.9c.1-.3.2-.7.3-1.1h-1.8v-1.2h2.1c.1-.3.1-.6.2-1h-2.8v-1.2h9.2v1.2h-5l-.2 1h2.8l1 .1c0 .8-.1 1.6-.1 2.3l2.3-.1zm-9.4 2.1h8v4.3H450v-.5h-5.2v.5h-1.4l.1-4.3zm1.4 1.2v1.4h5.1v-1.4h-5.1zm1.8-4.4c-.1.4-.2.8-.2 1.1h2.9c0-.4.1-.7.1-1.1h-2.8z" fill="#fff"/><path fill="none" stroke="#fff" stroke-width="2" stroke-miterlimit="10" stroke-dasharray="2,4" d="M399.8 111.2h-50.2"/></svg>