<svg version="1.1" id="レイヤー_1" xmlns="http://www.w3.org/2000/svg" x="0" y="0" viewBox="0 0 353 116" xml:space="preserve"><style>.st3{fill:#f6821e}</style><path fill="none" d="M0 0h353v116H0z" id="金狼"/><g id="銀狼"><path d="M268 53.1c-3.5 2.6-7.2 5-10.9 7.1 2.9 4.7 7.1 8.5 12.1 10.8-3.1 3-5.7 6.4-7.8 10.2-6.6-3.6-11.9-9.3-15-16.2l1 9.4c-8.2 2-17.2 4-24.5 5.6l-1.4-5.3c-10.2 1.8-21.1 3.5-29.5 4.9l-2.4-10.9c3.4-.4 7.6-.9 12-1.5v-4l-7.9 2.3c-.5-4.8-1.3-9.5-2.6-14.1l7.7-2c1.2 3.8 2.1 7.7 2.8 11.7V47H191V36.7h10.6v-4.6h-7.3v-3l-.1.1c-2-3.1-4.5-5.9-7.4-8.2 6.5-5.3 11.7-12.1 15-19.8h9.7c4.7 3.9 10.8 9.5 14 13.9v-11h39.1v39.2h-13.9c.6 2.6 1.3 5.2 2.1 7.7 2.5-1.9 4.8-4 7-6.2l8.2 8.3zM216.2 22c-2.4-3.4-5-6.6-7.9-9.5-2.1 3.3-4.4 6.5-7 9.5h14.9zm-4.1 43.7l10.8-1.6.2 3.4 2.5-.4V16.5l-4.8 5.8v9.8h-8.7v4.6h10.3V47h-10.3v14.4c1.1-4.2 1.9-8.5 2.4-12.8l9 2.1c-1.7 4.9-3.2 10.1-4.4 13.4l-7-1.9v3.5zm24.9-51v3.9h16v-3.8l-16-.1zm16 17.9v-3.8h-16v3.9l16-.1zm-16 32.3c2.8-.5 5.6-1.1 8.5-1.7-2.6-6.4-4.5-13.1-5.6-19.9H237v21.6zm66-57.6c-2.4 4.2-5 8.2-7.9 12 4 8.8 4.7 18.1 4.7 28 0 11.6-.9 23.2-5 28.8-1.4 1.8-3.4 3.2-5.7 3.8-3.5 1-7.3 1.1-11.7.9 0-4.1-1.1-8.1-3.2-11.7 3 .3 6 .3 9.1.1 1.1-.1 2.1-.7 2.7-1.6 1.4-1.8 2.1-8 2.3-15.8-2.7 3.2-5.6 6.2-8.8 8.9-2.3-3.4-5-6.4-8.1-9 5.8-3.6 12.3-10.4 16.3-16.8-.2-2-.6-3.9-1.1-5.8-2.2 2.1-4.5 4.1-6.9 6-2.5-3-5.3-5.7-8.4-8.1 3.8-2.7 7.2-5.8 10.2-9.3-2.6-3.8-5.8-7.2-9.5-10.1l8.5-6.6c2.8 2.3 5.5 4.8 7.8 7.6 1.4-2.3 2.8-4.5 3.9-6.7L303 7.3zm48.4 49.2c-3.5 2.6-7.1 4.9-10.8 7 3.5 3.3 7.8 5.7 12.4 7.1-3.1 3.1-5.7 6.6-7.7 10.5-7.4-2.8-13.7-8-17.8-14.8l.7 8.7c-9.1 1.6-18.9 3.2-26.8 4.4L299 67.8c1.7-.2 3.6-.4 5.6-.7V9.8h15V1.2h12.6v8.6h15.2v38.6h-15.7c.7 2.4 1.7 4.8 2.9 7 3.2-2.1 6.3-4.4 9.2-6.9l7.6 8zm-35.1-36.3V24h19.2v-3.8h-19.2zM335.5 38v-4h-19.2v4h19.2zm-9.4 26c-2.5-5-4.4-10.3-5.7-15.7h-4.1v17.2l9.8-1.5zm-189 48.5c1.1 0 2.1-.5 2.7-1.3v2c-.8.6-1.7 1-2.7.9-2.5.1-4.7-1.8-4.8-4.3s1.8-4.7 4.3-4.8h.4c1-.1 2 .3 2.7.9v2c-.6-.8-1.6-1.3-2.7-1.3-1.7 0-3 1.3-3 3s1.5 3 3.1 2.9zm5.9-7.2v3.2h4v-3.2h1.7v8.4H147V110h-4v3.7h-1.7v-8.4h1.7zm15.4 8.4h-1.8l-1-2h-3.5l-1 2h-1.8l4.5-9 4.6 9zm-5.6-3.4h2.1l-1.1-2.3-1 2.3zm9.5-5c1.9 0 3 1 3 2.7.1 1.2-.7 2.2-1.8 2.5l2.2 3.2h-2l-2-3h-.7v3h-1.7v-8.4h3zm-1.3 3.9h1.3c.8 0 1.4-.4 1.4-1.2s-.5-1.2-1.4-1.2H161v2.4zm14.5 4.5h-1.8l-1-2h-3.5l-1 2h-1.8l4.5-9 4.6 9zm-5.6-3.4h2.1l-1-2.3-1.1 2.3zm10.2 2.2c1.1 0 2.1-.5 2.7-1.3v2c-.8.6-1.7 1-2.7.9-2.5.1-4.7-1.8-4.8-4.3s1.8-4.7 4.3-4.8h.4c1-.1 2 .3 2.7.9v2c-.6-.8-1.6-1.3-2.7-1.3-1.7 0-3 1.3-3 3s1.4 3 3.1 2.9zm4.2-7.2h6v1.5h-2.2v6.9h-1.7v-6.9h-2.2v-1.5zm9.2 6.9h3.8v1.5h-5.5v-8.4h5.5v1.5h-3.8v1.9h3.5v1.4h-3.5v2.1zm8.2-6.9c1.9 0 3 1 3 2.7.1 1.2-.7 2.2-1.8 2.5l2.2 3.2h-2l-2.1-3h-.6v3h-1.6v-8.4h2.9zm-1.2 3.9h1.3c.8 0 1.4-.4 1.4-1.2s-.5-1.2-1.4-1.2h-1.3v2.4zm15.2-3.9h1.8l-4.5 9-4.5-9h1.8l2.7 5.7 2.7-5.7zm6.6-.3c2.5.1 4.5 2.2 4.4 4.7-.1 2.5-2.2 4.5-4.7 4.4-2.5-.1-4.4-2.1-4.4-4.6 0-2.5 2-4.5 4.5-4.6 0 .1.1.1.2.1zm0 7.6c1.6.1 2.9-1.2 3-2.8v-.2c.1-1.6-1.1-2.9-2.7-3h-.3c-1.7 0-3 1.3-3 3s1.3 3 3 3zm7.6-7.3v8.4h-1.7v-8.4h1.7zm6.2 7.2c1.1 0 2.1-.5 2.7-1.3v2c-.8.6-1.7 1-2.7.9-2.5.1-4.7-1.8-4.8-4.3s1.8-4.7 4.3-4.8h.4c1-.1 2 .3 2.7.9v2c-.6-.8-1.6-1.3-2.7-1.3-1.7 0-3 1.3-3 3s1.5 3 3.1 2.9zm6.1-.3h3.8v1.5h-5.5v-8.4h5.5v1.5h-3.8v1.9h3.5v1.4h-3.5v2.1zm70.6-4.1c.4.4 1.5 1.7 1.8 2l-.9 1.2c-.2-.4-.6-.9-.9-1.5v4.9h-1.4V110c-.3 1-.8 1.9-1.5 2.7-.2-.5-.4-.9-.7-1.4.9-1.2 1.6-2.5 2-4h-1.7V106h1.8v-2.5h1.4v2.5h1.6v1.3h-1.6l.1.8zm7.8-.7h-1.2v5.6c0 .8-.2 1.2-.7 1.5-.8.2-1.5.3-2.3.3-.1-.5-.3-1-.5-1.5h1.8c.3 0 .3-.1.3-.3v-5.6h-3.2V106h3.2v-2.4h1.5v2.4h1.2v1.4zm-4.5 4.3c-.3-1-.8-2-1.4-2.8l1.2-.6c.6.8 1.1 1.8 1.5 2.8l-1.3.6zm7.1-2.6c-.6-.5-1.2-.9-1.8-1.2l.8-1c.7.3 1.3.6 1.9 1.1l-.9 1.1zm.8 1.7c-.4 1.3-.8 2.7-1.3 3.9l-1.3-.7c.5-1.3 1-2.6 1.4-3.9l1.2.7zm5 1.5l1.1.6c-.5.7-1.1 1.4-1.8 1.9-.3-.3-.6-.5-1-.7.8-.5 1.3-1.1 1.7-1.8h-.5v-6.2h1c0-.3.1-.6.1-.9h-1.3v.9h-1.5v.8h1.4v3.4h-1.4v.4c.5.3 1.3.9 1.5 1l-.7 1.3c-.3-.3-.5-.7-.8-1v2.7h-1.3V112c-.4.8-.8 1.5-1.3 2.1-.2-.5-.4-1-.6-1.4.7-.7 1.3-1.5 1.7-2.4h-1.1v-3.4h1.3v-.8H324v-1l-.6.9c-.6-.5-1.2-.9-1.9-1.2l.8-1c.7.3 1.3.7 1.9 1.1v.1h1.3v-1.2h1.3v1.2h1.3v-1h4.3v1.2H331l-.3.9h1.4v6.2H329zm-3.8-3.1h.5V108h-.5v1.2zm2-1.2h-.5v1.1h.5V108zm3.8-.8h-1.2v.7h1.3l-.1-.7zm0 1.6h-1.2v.7h1.3l-.1-.7zm0 1.7h-1.2v.7h1.3l-.1-.7zm.4 1.8c.5.6.9 1.3 1.2 2l-1.1.5c-.3-.7-.7-1.4-1.1-2l1-.5zm8.6-3.2c-.6 1.1-1.5 2-2.4 2.8-.4-.3-.8-.6-1.3-.9.9-.6 1.7-1.4 2.2-2.4l1.5.5zm1-.6h-4.7v-1.3h1.6v-2.7h1.5v2.7h1.6v-3.5h1.5v1.1h3.5v1.3h-3.5v1.1h4.6v1.3h-4.6v2.2c0 .7-.1 1-.6 1.2-.7.2-1.3.2-2 .2-.1-.4-.2-.9-.4-1.3h1.4c.2 0 .2 0 .2-.2l-.1-2.1zm4.9 3.4c-.2-.4-.4-.7-.7-1-1.2 2.6-3.5 3.5-7.3 4-.1-.5-.4-1-.7-1.4 3.4-.2 5.6-1 6.6-3.2l1.1.3c-.4-.5-.9-.9-1.3-1.3l1.2-.7c.9.7 1.7 1.6 2.4 2.5l-1.3.8z" fill="#fff"/><path fill="none" stroke="#fff" stroke-width="2" stroke-miterlimit="10" stroke-dasharray="2,4" d="M303.3 110.3h-50.1"/><path class="st3" d="M285 71.6h-10.2l-5.1 8.8 5.1 8.8H285l5.1-8.8z"/><path d="M280.6 81.1c1.2-.2 2.2-.4 2.8-.5s.9-.2 1.1-.3l.2 1.3c-.3 0-.7.1-1.2.2l-2.8.4c.2 1.1.4 2 .5 2.3s.2.8.3 1.1l-1.4.2c-.1-.4-.1-.8-.2-1.2s-.2-1.2-.4-2.3l-3.1.5c-.5.1-.9.2-1.1.2l-.3-1.3c.3 0 .8-.1 1.1-.1.6-.1 1.8-.3 3.1-.5l-.4-2.2-2.5.4c-.3.1-.7.1-1 .2l-.2-1.3c.4 0 .7 0 1-.1.4 0 1.4-.2 2.5-.4-.1-.6-.2-1-.2-1.2-.1-.3-.1-.6-.2-.9l1.3-.2c0 .2.1.6.1.9s.1.6.2 1.2l2.6-.4.8-.2c-.3-.5-.6-1.1-.9-1.6l.8-.3c.4.5.7 1.1 1 1.7l-.6.3.2 1.2c-.2 0-.6.1-1 .1l-2.6.4.5 2.4zm4.1-4.4c-.3-.6-.6-1.1-1-1.7l.8-.3c.4.5.7 1.1 1 1.6l-.8.4z"/><path class="st3" d="M305.4 71.6h-10.2l-5.1 8.8 5.1 8.8h10.2l5.1-8.8z"/><path d="M300.6 82.4c1.8-1.1 3.2-2.7 4.2-4.5l.7 1.3c-1 1.8-2.5 3.3-4.2 4.3-1.4.9-3 1.5-4.6 1.8l-.8-1.2c1.7-.2 3.3-.8 4.7-1.7zm-.4-3.8l-1 1c-.9-.9-1.9-1.8-3-2.5l.9-.9c1.1.7 2.1 1.5 3.1 2.4z"/><path class="st3" d="M325.8 71.6h-10.2l-5.1 8.8 5.1 8.8h10.2l5.1-8.8z"/><path d="M325.1 83.6v1.5h-1.3v-.7h-6.2v.7h-1.3v-8.4h8.7v1l.1 5.9zm-7.5-5.7v5.4h6.2v-5.4h-6.2z"/><path class="st3" d="M346.2 71.6H336l-5.1 8.8 5.1 8.8h10.2l5.2-8.8z"/><path d="M336.3 79.7c.4 0 1.1.1 1.8.1h6.5c.5 0 .9 0 1.4-.1v1.5h-9.6v-1.5z"/></g></svg>