<svg xmlns="http://www.w3.org/2000/svg" viewBox="0 0 353 116"><path fill="none" d="M0 0h353v116H0z"/><path d="M189.87 21.9a38.91 38.91 0 0 0-.59 4.62c-.33 9.66-1.43 32.59-4.95 41.41-1.85 4.62-5.38 7.22-11.76 7.22-5.21 0-10.25-.42-14.2-.75l-1.6-13.61a66.49 66.49 0 0 0 11.43 1.26c2.85 0 3.78-1 4.62-3.11 2-4.62 3.19-19.23 3.19-28.39h-16.38c-3 21.25-10.67 34.61-26.21 45.78l-11.84-9.58A52.6 52.6 0 0 0 134 57.43c7.31-7.56 10.84-16.3 12.35-26.88h-9.49c-2.61 0-8 .08-11.85.42V17.7c3.87.42 8.65.67 11.85.67h10.5c.08-2.18.08-4.37.08-6.64a70.64 70.64 0 0 0-.67-8.14h14.95c-.25 2-.5 5.88-.59 7.89-.08 2.35-.17 4.71-.33 6.89h13.44a41.5 41.5 0 0 0 7-.67zm53.01 25.03a69.2 69.2 0 0 0 12.51-15.37L233 36v20.67c0 5 1.09 6.72 9.83 6.72a144.35 144.35 0 0 0 26.71-2.94l-.42 13.78a217.09 217.09 0 0 1-25.87 1.85c-21.08 0-23.77-4.87-23.77-15.79V38.78c-7 1.43-13.11 2.69-16.72 3.53L200.29 29c4-.51 11.17-1.68 19.15-3.11V15.35a86.49 86.49 0 0 0-.76-10.76h15.12a84.84 84.84 0 0 0-.8 10.76v8.06c10.92-2 21.17-4.12 25-5a29.16 29.16 0 0 0 6.81-2.27l9.83 7.65c-.84 1.34-2.27 3.52-3.11 5.2-3.62 7.01-11.86 19.11-17.48 24.49zM353 48.36c-2.52.16-6.38.84-9.58 1.34-3.69.59-9.91 1.6-16.8 2.69 1.18 6.13 2.19 11.34 2.78 14.19.58 2.52 1.42 5.63 2.18 8.57L317 77.67c-.42-3.27-.58-6.3-1.09-8.82s-1.43-7.89-2.6-14.28c-8 1.35-15.21 2.61-18.65 3.28-3.78.67-7 1.26-8.9 1.76l-2.86-13.44c2.35-.08 6.55-.59 9.41-1 3.69-.59 10.83-1.68 18.73-2.94l-2.18-11.51c-7 1.09-13 2.1-15.29 2.52-3 .59-5.38 1.17-8.23 1.93l-2.69-13.86c2.94-.17 5.63-.34 8.23-.67s8.74-1.18 15.62-2.27l-1.34-7c-.59-2.52-1.18-4.62-1.85-6.72l14.37-2.27c.25 1.68.5 4.79.92 6.89.17 1.26.67 3.78 1.26 7.05 6.47-1 12.18-2 14.87-2.52s6.55-1.34 8.9-2L346 25.09c-2.19.17-6 .76-8.74 1.09l-15.2 2.44 2.18 11.5c7-1.17 13.27-2.26 16.8-2.93 3.28-.68 6.81-1.52 9.24-2.19zm-200.8 62.93a3.33 3.33 0 0 0 2.7-1.33v2a3.85 3.85 0 0 1-2.7.92 4.56 4.56 0 1 1 0-9.11 3.81 3.81 0 0 1 2.7.92v2a3.33 3.33 0 0 0-2.7-1.33 3 3 0 0 0 0 6zm5.88-7.17v3.23h4v-3.23h1.68v8.39H162v-3.66h-4v3.66h-1.6v-8.39zm15.36 8.39h-1.8l-1-2h-3.44l-1 2h-1.8l4.5-9zm-5.56-3.51H170l-1.07-2.26zm9.46-4.88c1.86 0 3 1 3 2.69a2.49 2.49 0 0 1-1.8 2.52l2.18 3.18h-2l-2.05-3h-.65v3h-1.62v-8.39zm-1.26 3.88h1.26c.83 0 1.36-.4 1.36-1.2s-.53-1.19-1.36-1.19h-1.26zm14.46 4.51h-1.8l-1-2h-3.44l-1 2h-1.8l4.5-9zM185 109h2.13l-1.13-2.23zm10.16 2.29a3.33 3.33 0 0 0 2.7-1.33v2a3.85 3.85 0 0 1-2.7.92 4.56 4.56 0 1 1 0-9.11 3.81 3.81 0 0 1 2.7.92v2a3.33 3.33 0 0 0-2.7-1.33 3 3 0 0 0 0 6zm4.2-7.17h6v1.5h-2.16v6.89h-1.68v-6.89h-2.16zm9.24 6.88h3.78v1.5h-5.46v-8.39h5.46v1.5h-3.78v1.85h3.54v1.44h-3.54zm8.22-6.88c1.86 0 3 1 3 2.69a2.49 2.49 0 0 1-1.8 2.52l2.18 3.18h-2l-2-3h-.65v3h-1.68v-8.39zm-1.26 3.88h1.26c.83 0 1.36-.4 1.36-1.2s-.53-1.19-1.36-1.19h-1.26zm15.18-3.88h1.8l-4.5 9-4.5-9h1.8l2.7 5.74zm6.6-.36a4.56 4.56 0 1 1-4.68 4.55 4.52 4.52 0 0 1 4.68-4.55zm0 7.58a2.88 2.88 0 0 0 3-3 2.85 2.85 0 0 0-3-3 3 3 0 0 0 0 6zm7.66-7.22v8.39h-1.68v-8.39zm6.2 7.17a3.33 3.33 0 0 0 2.7-1.33v2a3.87 3.87 0 0 1-2.7.92 4.56 4.56 0 1 1 0-9.11 3.83 3.83 0 0 1 2.7.92v2a3.33 3.33 0 0 0-2.7-1.33 3 3 0 0 0 0 6zm6.12-.29h3.78v1.5h-5.46v-8.39h5.46v1.5h-3.78v1.85h3.54v1.44h-3.54zm76.61-2a6.81 6.81 0 0 1-2.34 2.46 17.18 17.18 0 0 0 4.14.76 5.6 5.6 0 0 0-.85 1.3 14.59 14.59 0 0 1-4.81-1.23 18 18 0 0 1-4.79 1.27 4.88 4.88 0 0 0-.61-1.26 17.59 17.59 0 0 0 4-.85 7.1 7.1 0 0 1-1.43-1.36 11.34 11.34 0 0 1-1.67.89 4.17 4.17 0 0 0-1-1 8.26 8.26 0 0 0 3.33-2.13h-3.32v-1.18h4.68v-.62h-3.37v-1.11h3.37v-.58h-4.11v-1.18h4.11v-.83h1.41v.83h4.18v1.18h-4.18v.58h3.49v1.11h-3.49v.62h4.78v1.18h-5.72c-.2.24-.4.46-.6.69h3.55l.25-.06zm-5.37.66a5.66 5.66 0 0 0 1.54 1.18 6.1 6.1 0 0 0 1.62-1.18zm14.12-7.03v.68c.1 1.66.7 6.83 5.17 8.93a4.58 4.58 0 0 0-1.1 1.21 9.55 9.55 0 0 1-4.73-6 10.25 10.25 0 0 1-4.44 6 4.83 4.83 0 0 0-1.19-1.14c4.78-2.65 4.61-8.1 4.7-9.68z" fill="#fff"/><path stroke="#fff" stroke-miterlimit="10" stroke-width="2" stroke-dasharray="2 4" fill="none" d="M318.41 109.06h-50.16"/></svg>