<svg xmlns="http://www.w3.org/2000/svg" viewBox="0 0 353 165"><defs><style>.cls-1{fill:#fff}</style></defs><g id="ダリヤ_ニキーチナ" data-name="ダリヤ・ニキーチナ"><path class="cls-1" d="M199.13 17.61l5.43 3.39a32 32 0 0 0-2.38 5 70.51 70.51 0 0 1-8.11 15.8c2.25 1.47 4.27 2.81 5.79 3.91l-6.71 8.72c-1.46-1.28-3.48-2.8-5.67-4.39a57.2 57.2 0 0 1-21.66 14.58l-8.6-7.44c10.74-3.36 17.2-8 22-12.81-3.72-2.44-7.38-4.7-10.25-6.35l6.29-7.07c3 1.58 6.71 3.6 10.37 5.73 2.56-3.78 4.76-8.11 5.49-11.16H175.4a76.16 76.16 0 0 1-16 15.61l-8-6.16a57.76 57.76 0 0 0 19.34-19.7 32.16 32.16 0 0 0 3.2-7.27l10.67 3.29c-1.34 1.89-2.74 4.27-3.66 5.86h10.13a25.16 25.16 0 0 0 4.88-.49 56.4 56.4 0 0 0-3.72-6.66L198 7.72c1.53 2.26 3.66 6.23 4.76 8.36zm6.35-12.81a86.13 86.13 0 0 1 4.81 8.29l-5.73 2.44a67.91 67.91 0 0 0-4.82-8.42zm21.59 6.2c-.12 1.52-.25 2.62-.25 4.82v20.7c0 1.52.13 4.09.25 5.67h-11c.06-1.22.3-3.84.3-5.73V15.78a47.83 47.83 0 0 0-.24-4.82zm28-.55c-.12 1.83-.24 3.9-.24 6.59V30.3c0 12.26-2.87 18.36-7.51 23.24-4.09 4.27-10.49 7.38-14.94 8.78l-7.75-8.17c6.34-1.4 11.35-3.66 15-7.44 4.08-4.34 4.94-8.67 4.94-17.09V17a48.8 48.8 0 0 0-.43-6.59zm38.37 27.9a56 56 0 0 0 10.43-12.57c-1.89.31-8.42 1.65-15.74 3.11 2.75 10 5.73 20.93 7 25.26.42 1.34 1.52 4.7 2.13 6.28L286.3 63c-.37-1.83-.85-4.51-1.53-6.83-1.15-4-4-15.13-6.71-25.13-5.73 1.22-10.79 2.32-13.05 2.87L262.45 24c2.5-.24 4.82-.49 7.32-.85.91-.19 3.05-.55 5.91-1-.67-2.44-1.22-4.51-1.7-6a26.86 26.86 0 0 0-2.2-5.79l10.8-2.44a50.46 50.46 0 0 0 1.28 5.85c.49 1.77 1.16 4 1.83 6.53 8.78-1.65 18.42-3.54 21.6-4.27a18.16 18.16 0 0 0 4.14-1.28l6.78 4.94C315.4 25.9 308 36.88 303 42.8zm40.93-11.71a8.54 8.54 0 1 1-8.54 8.54 8.56 8.56 0 0 1 8.54-8.54zM66.09 109.61c2.56.18 5.85.43 8.35.43h34.17c2.19 0 5.12-.19 7.38-.43v11.28c-2.38-.24-5.49-.42-7.38-.42H74.44c-2.5 0-5.91.18-8.35.42zM71.15 80a71.23 71.23 0 0 0 7.81.43h24.77a59.84 59.84 0 0 0 7.19-.43v10.7c-1.83-.06-5-.25-7.19-.25H79c-2.44 0-5.67.12-7.87.25zm104.92 25.4c-1.83.12-4.63.61-6.95 1l-12.2 2c.85 4.45 1.58 8.23 2 10.31.43 1.83 1 4.08 1.59 6.22l-10.62 1.83c-.3-2.38-.42-4.58-.79-6.41s-1-5.73-1.89-10.37c-5.8 1-11 1.89-13.54 2.38-2.75.49-5.07.92-6.47 1.28l-2.08-9.76c1.71-.06 4.76-.42 6.84-.73 2.68-.43 7.87-1.22 13.6-2.13L144 92.59c-5.07.79-9.46 1.52-11.11 1.83-2.19.42-3.9.85-6 1.4l-2-10.06c2.14-.13 4.09-.25 6-.49s6.35-.86 11.35-1.65l-1-5.06a60.92 60.92 0 0 0-1.34-4.88L150.39 72c.18 1.22.37 3.48.67 5 .12.92.49 2.75.92 5.13 4.69-.74 8.84-1.47 10.8-1.83s4.75-1 6.46-1.47L171 88.5c-1.59.12-4.39.55-6.34.79l-11 1.77 1.59 8.36c5.06-.85 9.64-1.65 12.2-2.13 2.38-.49 4.94-1.1 6.71-1.59zm5.19-12.32c2.44.18 7.56.42 10.55.42h32.39c2.75 0 5.74-.3 7.51-.42v11.65c-1.59-.06-5-.37-7.51-.37h-32.39c-3.48 0-8.05.18-10.55.37zM285 92.77c1.28 0 4.52-.24 5.92-.36v9.45c-1.83-.12-4-.24-5.74-.24h-15.05c-1.15 9.7-5.55 18.66-15.61 24.83l-9.46-6.35c9-4.09 13.73-10.37 15.19-18.48h-16c-1.83 0-4.21.12-5.86.24v-9.45c1.83.18 3.85.36 5.8.36h16.47v-7.26c-5.67.43-11.65.67-15.5.73l-2.31-8.48c4.69.06 14.21.06 21-1 6.47-1 12.08-2.26 15.19-3.78l6 8.11c-2.5.61-4.33 1.1-5.43 1.34-2.86.73-6 1.34-9.21 1.83v8.48zm56.08-5.67a63.54 63.54 0 0 0 7.44-.43V96.8c-1.46-.12-4.75-.31-7.5-.31H328.7c-.55 11.65-4.15 21.78-17.63 30l-9.21-6.84c12.08-5.43 15.8-13.85 16.53-23.12h-14.28c-2.86 0-5.43.19-7.68.37V86.61a69.14 69.14 0 0 0 7.44.49h14.64v-5.86a31.65 31.65 0 0 0-.91-7.75h11.71a50.71 50.71 0 0 0-.55 7.81v5.8zm-34.96 62.69v10.28h-1.49v-.73h-7.09v.73h-1.43v-10.28zm-8.58 1.38v2.64h2.76v-2.64zm0 6.73h2.76v-2.66h-2.76zm7.09-6.73h-2.88v2.64h2.88zm0 6.73v-2.66h-2.88v2.66zm13.37-6.82v6h-1.49v-.6h-2.72v3.74h-1.51v-3.74h-2.7v.66h-1.43v-6h4.13V149h1.51v2.08zm-5.72 4v-2.58h-2.7v2.58zm4.23 0v-2.58h-2.72v2.58zm7.14 2.73c-1.32.46-2.76.92-3.91 1.29l-.32-1.45 1.46-.4v-2.81h-1.21v-1.31h1.21V151h-1.32v-1.33h4V151h-1.28v2.11h1.08v1.31h-1.08v2.39l1.17-.37zm7.13.73v1.29h-7.72v-1.29h3.31v-1.14h-2.48v-1.29h2.48v-1H324v-5.57h6.26v5.57h-2.41v1h2.54v1.29h-2.54v1.14zm-5.52-6.83h1.23v-1h-1.23zm0 2.16h1.23v-1h-1.23zm3.62-3.15h-1.19v1h1.19zm0 2.12h-1.19v1h1.19zm2.59 6.16a4.12 4.12 0 0 0 1.53-2.3l1.25.46a4.94 4.94 0 0 1-1.61 2.73zm4.88-7.87h-4.3v-1.24h4.3V149h1.39v.86h4.34v1.24h-4.34v.59h3.55V156h-4.17a6.68 6.68 0 0 1 1.43 1.1l-1 .9a8 8 0 0 0-2-1.55l.53-.45h-3.19v-4.3h3.47zm-2.14 2.26h2.14v-.63h-2.14zm0 1.59h2.14v-.61h-2.14zm4 3.78c.43 0 .51-.13.56-1a3.78 3.78 0 0 0 1.26.5c-.15 1.46-.56 1.8-1.69 1.8h-1.86c-1.51 0-1.87-.38-1.87-1.59v-1.56H336v1.52c0 .32.09.37.62.37zm-.48-6v.63h2.16v-.63zm2.16 1.61h-2.16v.63h2.16zm.71 2.18a8.86 8.86 0 0 1 2.11 2.54l-1.28.69a8.76 8.76 0 0 0-2-2.58z"/><path fill="none" stroke="#fff" stroke-miterlimit="10" stroke-width="2" stroke-dasharray="2 4" d="M289.47 155.7h-50.16"/><path class="cls-1" d="M122.08 157.94a3.33 3.33 0 0 0 2.7-1.33v2a3.87 3.87 0 0 1-2.7.92 4.56 4.56 0 1 1 0-9.11 3.83 3.83 0 0 1 2.7.92v2a3.33 3.33 0 0 0-2.7-1.33 3 3 0 0 0 0 5.95zm5.92-7.17V154h4v-3.23h1.68v8.39H132v-3.66h-4v3.66h-1.68v-8.39zm15.32 8.39h-1.8l-1-2h-3.48l-1 2h-1.8l4.5-9zm-5.57-3.48h2.14l-1.07-2.26zm9.47-4.91c1.86 0 3 1 3 2.69a2.5 2.5 0 0 1-1.8 2.52l2.18 3.18h-2l-2-3h-.6v3h-1.68v-8.39zm-1.22 3.89h1.26c.83 0 1.36-.4 1.36-1.2s-.53-1.2-1.36-1.2H146zm14.42 4.5h-1.8l-1-2h-3.48l-1 2h-1.8l4.5-9zm-5.57-3.48H157l-1.07-2.26zm10.15 2.26a3.33 3.33 0 0 0 2.7-1.33v2a3.87 3.87 0 0 1-2.7.92 4.56 4.56 0 1 1 0-9.11 3.83 3.83 0 0 1 2.7.92v2A3.33 3.33 0 0 0 165 152a3 3 0 0 0 0 5.95zm4.24-7.17h6v1.49h-2.16v6.9h-1.68v-6.9h-2.16zm9.24 6.89h3.78v1.5h-5.46v-8.39h5.46v1.49h-3.78v1.86H182v1.44h-3.54zm8.22-6.89c1.86 0 3 1 3 2.69a2.5 2.5 0 0 1-1.8 2.52l2.18 3.18h-2l-2-3h-.65v3h-1.68v-8.39zm-1.26 3.89h1.26c.83 0 1.36-.4 1.36-1.2s-.53-1.2-1.36-1.2h-1.26zm15.18-3.89h1.8l-4.5 9-4.5-9h1.8l2.7 5.74zm6.6-.36a4.56 4.56 0 1 1-4.68 4.55 4.52 4.52 0 0 1 4.68-4.55zm0 7.58a2.88 2.88 0 0 0 3-3 2.85 2.85 0 0 0-3-3 3 3 0 0 0 0 6.05zm7.68-7.22v8.39h-1.68v-8.39zm6.18 7.17a3.33 3.33 0 0 0 2.7-1.33v2a3.87 3.87 0 0 1-2.7.92 4.56 4.56 0 1 1 0-9.11 3.83 3.83 0 0 1 2.7.92v2a3.33 3.33 0 0 0-2.7-1.33 3 3 0 0 0 0 5.95zm6.12-.28h3.8v1.5h-5.46v-8.39H231v1.49h-3.8v1.86h3.54v1.44h-3.54z"/></g></svg>