<svg xmlns="http://www.w3.org/2000/svg" viewBox="0 0 353 160"><path d="M120 5.9c-.1 1.5-.2 2.6-.2 4.8v20.7c0 1.5.1 4.1.2 5.7h-11c.1-1.2.3-3.8.3-5.7V10.7c0-1.6-.1-3.2-.2-4.8H120zm28-.6c-.1 1.8-.2 3.9-.2 6.6v13.3c0 12.3-2.9 18.4-7.5 23.2-4.1 4.3-10.5 7.4-15 8.8l-7.8-8.2c6.3-1.4 11.4-3.7 15-7.4 4.1-4.3 4.9-8.7 4.9-17.1V11.9c0-2.2-.1-4.4-.4-6.6h11zm24.5.6c-.1 1.5-.2 2.6-.2 4.8v20.7c0 1.5.1 4.1.2 5.7h-11c.1-1.2.3-3.8.3-5.7V10.7c0-1.6-.1-3.2-.2-4.8h10.9zm28-.6c-.1 1.8-.2 3.9-.2 6.6v13.3c0 12.3-2.9 18.4-7.5 23.2-4.1 4.3-10.5 7.4-14.9 8.8l-7.8-8.2c6.4-1.4 11.4-3.7 15-7.4 4.1-4.3 5-8.6 5-17.1V11.9c0-2.2-.1-4.4-.4-6.6h10.8zm63 6.7c-.7.9-2.1 2.7-2.8 3.7-3.1 5.1-8.9 12.8-14.4 16.7l-7.6-6.1c4.5-2.9 8.7-7.5 10.1-10.1h-30.1c-2.6 0-5.2.2-7.8.5V6.5c2.6.4 5.2.6 7.8.7h31.7c2.5 0 4.9-.2 7.3-.6l5.8 5.4zm-25.2 8.3c0 14.3.3 27.5-16.9 37.1l-8.6-7c2.5-.8 4.9-2.1 7-3.7 6.8-5.1 8.3-10.3 8.3-20.2 0-2-.2-4.1-.5-6.1l10.7-.1zM289.6 39c11-6.3 19.2-15.8 23.3-24.4l5.7 10.4c-4.9 8.7-13.5 17.1-23.7 23.1-6.7 4-14.1 6.7-21.8 8l-6.3-9.8c8-.9 15.7-3.4 22.8-7.3zm2.1-20l-7.6 7.8c-4.7-4.9-9.9-9.3-15.3-13.4l7-7.5C280 8.8 288 15.1 291.7 19zm42.7 2.5c4.7 0 8.5 3.8 8.5 8.5s-3.8 8.5-8.5 8.5-8.5-3.8-8.5-8.5c-.1-4.6 3.8-8.4 8.5-8.5zM60.1 76.3c-.5 1.6-1 3.2-1.3 4.8-1.1 5.9-2.6 14.9-7.5 22.6-5.1 8-13.4 14.1-23.2 17.6l-8.3-8.5c7.7-1.8 17.6-6.7 22.3-14.2 3-5.3 4.9-11.1 5.4-17.2H20.8v9c0 1.9.1 3.8.2 5.6H10.1c.2-2.1.4-3.7.4-5.6V77.7c0-1.8-.1-3.9-.3-5.7 2.1.1 5.1.2 8 .2h27.9c2.3 0 4.6-.1 6.9-.5l7.1 4.6zm39.2 35.3c0 2.9.1 7.1.6 8.8H88.2c.3-2.9.5-5.9.5-8.8V93.2c-6.4 3.2-13.1 5.8-20 7.7l-5.2-9c9.9-2.1 19.4-5.8 28-11 6.2-3.8 12.4-9.3 15.9-13.9l7.9 7.1c-4.9 4.9-10.2 9.2-16 13.1v24.4zm43.8-8.6c11-6.3 19.2-15.8 23.3-24.4l5.7 10.4c-4.9 8.7-13.5 17.1-23.7 23.1-6.7 4-14.1 6.7-21.8 8l-6.3-9.8c8-.9 15.7-3.4 22.8-7.3zm2-20l-7.6 7.8c-4.7-4.9-9.9-9.3-15.3-13.4l7-7.5c4.3 2.9 12.3 9.2 15.9 13.1zm43.4-8.6l10.8 2.2c-.6 2-1.4 5.6-1.6 7-1.3 6.1-3 12.1-5 17.9-2.3 6.3-5.3 12.3-9 17.8l-10.4-4.4c3.9-5.3 7.2-11 9.6-17.2 2.9-7.3 4.8-15.2 5.6-23.3zm15.6 2.4l9.9-3.2c2.6 4.9 6.9 14.8 9.1 20.4 2 5.2 5.2 15.2 6.9 21.5l-11 3.6c-1.6-7.4-3.6-14.7-6-21.8-2.5-7.1-5.4-13.9-8.9-20.5zm20.7-.5l-5.8 2.4c-1.4-2.9-3-5.7-4.7-8.5l5.8-2.3c1.5 2.3 3.6 6.3 4.7 8.4zm7.6-3l-5.7 2.4c-1.4-2.9-3-5.7-4.8-8.4l5.7-2.3c1.7 2.7 3.3 5.5 4.8 8.3zm4.8 14.7c2.4.2 7.6.4 10.6.4h32.4c2.7 0 5.7-.3 7.5-.4v11.6c-1.6-.1-5-.4-7.5-.4h-32.4c-3.5 0-8.1.2-10.6.4V88zm102.5-11l6.3 3.8c-1 1.6-1.8 3.3-2.4 5-2.3 7.2-5.9 14-10.5 20-5.9 7.3-13.3 12.9-24.8 17.6l-8.8-7.8c13.2-4 19.5-9.2 24.7-15 3.8-4.3 7.3-11.3 8-15.2H317c-4.4 5.6-9.6 10.5-15.4 14.6l-8.3-6.2c7.8-4.7 14.3-11.3 19-19.1 1.4-2.3 2.5-4.7 3.2-7.3l10.8 3.5c-1.4 2-2.9 4.4-3.8 6h9.8c1.9 0 3.8-.2 5.6-.7-1.2-2.5-2.5-4.9-4.1-7.2l5.7-2.3c1.5 2.3 3.7 6.2 4.8 8.4l-4.6 1.9zm7.5-13.2c1.8 2.7 3.4 5.4 4.8 8.2l-5.7 2.4c-1.4-2.9-3-5.7-4.8-8.4l5.7-2.2zm-225.1 89.1c1.1 0 2.1-.5 2.7-1.3v2c-.7.6-1.7 1-2.7.9-2.5.1-4.7-1.8-4.8-4.3-.1-2.5 1.8-4.7 4.3-4.8h.4c1 0 1.9.3 2.7.9v2c-.6-.8-1.6-1.3-2.7-1.3-1.6.2-2.8 1.7-2.6 3.4.3 1.2 1.3 2.3 2.7 2.5zm5.9-7.2v3.2h4v-3.2h1.7v8.4H132v-3.7h-4v3.7h-1.7v-8.4h1.7zm15.3 8.4h-1.8l-1-2H137l-1 2h-1.8l4.5-9 4.6 9zm-5.5-3.5h2.1l-1.1-2.3-1 2.3zm9.4-4.9c1.9 0 3 1 3 2.7.1 1.2-.7 2.2-1.8 2.5l2.2 3.2h-2l-2-3h-.6v3h-1.7v-8.4h2.9zm-1.2 3.9h1.3c.8 0 1.4-.4 1.4-1.2s-.5-1.2-1.4-1.2H146v2.4zm14.4 4.5h-1.8l-1-2h-3.5l-1 2h-1.8l4.5-9 4.6 9zm-5.6-3.5h2.2l-1.1-2.3-1.1 2.3zm10.2 2.3c1.1 0 2.1-.5 2.7-1.3v2c-.7.6-1.7 1-2.7.9-2.5.1-4.7-1.8-4.8-4.3s1.8-4.7 4.3-4.8h.4c1 0 1.9.3 2.7.9v2c-.6-.8-1.6-1.3-2.7-1.3-1.6.2-2.8 1.7-2.6 3.4.3 1.2 1.3 2.3 2.7 2.5zm4.2-7.2h6v1.5H173v6.9h-1.7v-6.9h-2.2l.1-1.5zm9.3 6.9h3.8v1.5h-5.5v-8.4h5.5v1.5h-3.8v1.8h3.5v1.4h-3.5v2.2zm8.2-6.9c1.9 0 3 1 3 2.7.1 1.2-.7 2.2-1.8 2.5l2.2 3.2h-2l-2-3h-.6v3h-1.7v-8.4h2.9zm-1.3 3.9h1.3c.8 0 1.4-.4 1.4-1.2s-.5-1.2-1.4-1.2h-1.3v2.4zm15.2-3.9h1.8l-4.5 9-4.5-9h1.8l2.7 5.8 2.7-5.8zm6.6-.4c2.5.1 4.5 2.2 4.4 4.7-.1 2.5-2.2 4.5-4.7 4.4-2.5-.1-4.4-2.1-4.4-4.6 0-2.5 2-4.5 4.5-4.6.1.1.2.1.2.1zm0 7.6c1.6.1 2.9-1.2 3-2.8v-.2c.1-1.6-1.1-2.9-2.7-3h-.3c-1.7 0-3 1.3-3 3s1.4 3 3 3zm7.7-7.2v8.4h-1.7v-8.4h1.7zm6.2 7.2c1.1 0 2.1-.5 2.7-1.3v2c-.7.6-1.7 1-2.7.9-2.5.1-4.7-1.8-4.8-4.3s1.8-4.7 4.3-4.8h.4c1 0 1.9.3 2.7.9v2c-.6-.8-1.6-1.3-2.7-1.3-1.6.2-2.8 1.7-2.6 3.4.3 1.2 1.3 2.3 2.7 2.5zm6.1-.3h3.8v1.5h-5.5v-8.4h5.5v1.5h-3.8v1.8h3.5v1.4h-3.5v2.2zm87-7.4h1.8v7.4h3.6v1.5h-5.4v-8.9zm6.4 11.4l.3-1.4c.2 0 .3.1.5.1.6 0 1.1-.4 1.3-1l.1-.4-2.6-6.6h1.8l1.1 3.1c.2.6.4 1.2.6 1.9h.1c.2-.6.3-1.3.5-1.9l.9-3.1h1.7l-2.4 6.9c-.6 1.6-1.3 2.5-2.8 2.5-.5.1-.8 0-1.1-.1zm7.2-9.2h1.4l.1.9c.6-.6 1.3-1 2.2-1.1 1.5 0 2.1 1 2.1 2.7v4.2h-1.8v-4c0-1-.3-1.4-1-1.4-.6 0-1.1.3-1.4.8v4.6h-1.8l.2-6.7zm7.7 0h1.5l.1.9c.6-.6 1.3-1 2.2-1.1 1.5 0 2.1 1 2.1 2.7v4.2h-1.8v-4c0-1-.3-1.4-1-1.4-.6 0-1.1.3-1.4.8v4.6h-1.8v-6.7z" fill="#fff"/><path fill="none" stroke="#fff" stroke-width="2" stroke-miterlimit="10" stroke-dasharray="2,4" d="M308.3 150.6h-70.2"/></svg>