<svg xmlns="http://www.w3.org/2000/svg" viewBox="0 0 353.5 116.2"><path fill="none" d="M0 0h353.5v116.2H0z"/><path d="M189.3 20.4c-1.3 2.2-2.4 4.5-3.3 6.9-2.3 7-6.8 18.1-14.5 27.5-8.1 10-18.3 17.7-34.1 24.2l-12.1-10.8c18.1-5.5 26.9-12.7 34-20.7 5.3-5.9 10-15.5 11.1-21h-20.9c-6.1 7.6-13.2 14.4-21.2 20.1l-11.4-8.5c10.7-6.5 19.7-15.5 26.1-26.3 1.9-3.1 3.4-6.5 4.5-10l14.9 4.9c-1.9 2.7-3.9 6.1-5.2 8.3h13.5c2.8 0 5.6-.3 8.3-1.1l10.3 6.5zm76.2 41.5c0 3.6.2 12.5.2 12.5h-14.1l.2-4.4h-37.5v4.4h-14s.2-8.1.2-12.7V20.9c0-2.7 0-6.6-.2-9.1 3.4.1 7.2.2 9.7.2h46.9c2.3 0 5.5 0 8.8-.1-.2 2.8-.2 6.2-.2 9.1v40.9zm-51.3-37v32h37.6v-32h-37.6zm124.6 51.8c-1-2.8-2.3-6-3.7-9.3-13.9 1.7-38 4.1-48.1 5.2-2.1.2-5.6.8-8.4 1.1l-2.4-14.9c3 0 7.1 0 10-.1l1.3-.1c4.9-12.6 11.4-33.7 13.9-42.7 1-3.5 1.7-7 2.2-10.6l16.1 3.3c-1.3 2.8-2.6 6.4-4 10.2-2.9 8.3-9 27.5-13 38.6 9-.8 19-2 26.7-2.9-2.3-5-4.9-9.7-8-14.2l12.8-5.2c6 9.3 14.3 25.6 18.3 35.4l-13.7 6.2zM138.7 112c1.1 0 2.1-.5 2.7-1.3v2c-.7.6-1.7 1-2.7.9-2.5.1-4.7-1.8-4.8-4.3s1.8-4.7 4.3-4.8h.4c1-.1 2 .3 2.7.9v2c-.6-.9-1.6-1.3-2.7-1.3-1.7 0-3 1.3-3 3s1.5 3 3.1 2.9zm5.9-7.1v3.2h4v-3.2h1.7v8.4h-1.7v-3.7h-4v3.7H143v-8.4h1.6zm15.4 8.3h-1.8l-1-2h-3.5l-1 2H151l4.5-9 4.5 9zm-5.6-3.4h2.1l-1.1-2.3-1 2.3zm9.5-4.9c1.9 0 3 1 3 2.7.1 1.2-.7 2.2-1.8 2.5l2.2 3.2h-2l-2-3h-.6v3H161v-8.4h2.9zm-1.3 3.9h1.2c.8 0 1.4-.4 1.4-1.2s-.5-1.2-1.4-1.2h-1.2v2.4zm14.5 4.4h-1.8l-1-2h-3.5l-1 2H168l4.5-9 4.6 9zm-5.6-3.4h2.1l-1.1-2.3-1 2.3zm10.2 2.2c1.1 0 2.1-.5 2.7-1.3v2c-.7.6-1.7 1-2.7.9-2.5.1-4.7-1.8-4.8-4.3s1.8-4.7 4.3-4.8h.4c1-.1 2 .3 2.7.9v2c-.6-.8-1.6-1.3-2.7-1.3-1.7 0-3 1.3-3 3s1.4 3 3.1 2.9zm4.2-7.1h6v1.5h-2.2v6.9H188v-6.9h-2.2l.1-1.5zm9.2 6.9h3.8v1.5h-5.4v-8.4h5.4v1.5h-3.8v1.8h3.5v1.4h-3.5v2.2zm8.3-6.9c1.9 0 3 1 3 2.7.1 1.2-.7 2.2-1.8 2.5l2.2 3.2h-2l-2.1-3h-.7v3h-1.7v-8.4h3.1zm-1.3 3.9h1.2c.8 0 1.4-.4 1.4-1.2s-.5-1.2-1.4-1.2h-1.2v2.4zm15.2-3.9h1.8l-4.5 9-4.5-9h1.8l2.7 5.7 2.7-5.7zm6.6-.4c2.5.1 4.5 2.2 4.4 4.7-.1 2.5-2.2 4.5-4.7 4.4-2.5-.1-4.5-2.1-4.4-4.6 0-2.5 2-4.5 4.5-4.6.1.1.1.1.2.1zm0 7.6c1.6.1 2.9-1.2 3-2.8v-.2c.1-1.6-1.1-2.9-2.7-3h-.3c-1.7 0-3 1.3-3 3s1.3 3 3 3zm7.7-7.2v8.4h-1.7v-8.4h1.7zm6.1 7.1c1.1 0 2.1-.5 2.7-1.3v2c-.7.6-1.7 1-2.7.9-2.5.1-4.7-1.8-4.8-4.3s1.8-4.7 4.3-4.8h.4c1-.1 2 .3 2.7.9v2c-.6-.8-1.6-1.3-2.7-1.3-1.7 0-3 1.3-3 3s1.5 3 3.1 2.9zm6.2-.2h3.8v1.5h-5.4v-8.4h5.4v1.5h-3.8v1.8h3.5v1.4h-3.5v2.2zm73.8-5c-.1.6-.3 1.2-.5 1.8h4.8v1.3h-2.1v2.7h2.3v1.3h-6.4v-1.3h2.6v-2.7h-1.6v-.3c-.5 1.3-1.2 2.6-2.1 3.6l-.9-.9v2h-1.4V108c-.3.4-.6.8-1 1.1-.2-.5-.5-1-.7-1.4 1.3-1.3 2.3-2.8 2.9-4.5l1.3.4c-.3.8-.7 1.6-1.1 2.3v6c1.2-1.5 2-3.2 2.3-5h-1.8v-1.3h2.1c.1-.7.2-1.4.3-2.2l1.5.2c-.1.7-.2 1.4-.3 2h4.2v1.3l-4.4-.1zm15.3 2.6c.4.4.9.6 1.4.8-.3.3-.5.6-.7 1l-.6-.3c-.2.3-.5.6-.8.8l-.8-.4c.2-.3.6-.8.8-1.1-.2-.2-.4-.5-.6-.8h-1.9c-.2.3-.5.6-.8.9.3.3.5.6.7.9l-.9.5c-.1-.3-.3-.6-.5-.8l-.6.3c-.2-.3-.4-.5-.6-.7v2.4c0 .6-.1.9-.4 1.1-.5.2-.9.3-1.4.2-.1-.4-.2-.8-.3-1.1h.8c.1 0 .2 0 .2-.2V111h-1c-.1 1.1-.4 2.2-.9 3.2-.3-.3-.6-.5-1-.6.7-1.4.9-3 .8-4.6v-3.3h3.3v4.4c.4-.2.8-.5 1.2-.8h-.9v-1h1.7l.3-.6h-1.7v-.9h.6c-.1-.3-.2-.6-.4-.9l1-.3c.2.3.4.7.5 1.1l-.2.1h.5c.1-.4.2-.8.2-1.2l1.2.1c-.1.4-.1.8-.2 1.2h.8l.4-1.2 1.2.3c-.2.3-.4.7-.5.9h1v.9H332l.3.6h1.7v1h-1zm-7.1-4.5h-2.6v-1.2h2.6v-.7h1.4v.7h2.5v-.7h1.4v.7h2.7v1.2h-2.7v.7h-1.4v-.7h-2.5v.7h-1.4v-.7zm-.1 5.1v-1h-.9v1h.9zm-.9-3v1h.9v-1h-.9zm4.9 5.7c-.7.4-1.5.8-2.1 1.1l-.5-1c.6-.2 1.5-.6 2.4-1l.2.9zm1.7-1c.8.4 1.6.9 2.4 1.4l-.8.8c-.6-.5-1.3-.9-2-1.3v.6c0 .5-.1.8-.4.9-.5.2-.9.2-1.4.2-.1-.3-.2-.7-.3-1h.8c.1 0 .1 0 .1-.2v-3.3h1.2v2.3l.4-.4zm-.4-3.2c-.1-.2-.2-.4-.2-.6h-.4l-.3.6h.9zm15.9 4.3c.4 0 .5-.3.5-2 .4.3.8.5 1.3.6-.1 2.2-.5 2.8-1.7 2.8h-1.4c-1.4 0-1.7-.4-1.7-1.9v-3.7h-1.8c-.2 2.5-.8 4.6-3.6 5.7-.2-.4-.5-.8-.9-1.2 2.5-.9 2.8-2.6 3-4.6H338v-1.4h10.7v1.4h-3.2v3.7c0 .5.1.5.5.5l1 .1zm.6-7.5H339v-1.4h8.5v1.4z" fill="#fff"/><path fill="none" stroke="#fff" stroke-width="2" stroke-miterlimit="10" stroke-dasharray="2,4" d="M305 109.8h-50.2"/></svg>