<svg xmlns="http://www.w3.org/2000/svg" viewBox="0 0 353.5 116.2"><path fill="none" d="M0 0h353.5v116.2H0z"/><path d="M172.6 75l.1-4.2h-36.9c-3.2 0-8.5.3-11.5.6V56.8c3.3.2 7.1.5 11.1.5h37.4V25.4h-36.4c-3.8 0-8.5.2-11.1.3V11.6c3.4.3 8.1.6 11.1.6h42.8c2.7 0 6.7-.2 8-.2-.1 2-.3 5.7-.3 8.5v43.6c0 2.9.2 7.7.4 10.9h-14.7zm46.7-63.2l14.9 3.1c-.8 2.7-1.9 7.7-2.3 9.6-1.8 8.4-4.1 16.6-6.9 24.7-3.1 8.6-7.2 16.9-12.3 24.5l-14.4-6c5.4-7.3 9.8-15.2 13.2-23.6 4.1-10.3 6.7-21.2 7.8-32.3zm21.5 3.2l13.6-4.4C258 17.4 264 31 267 38.7c2.8 7.2 7.2 20.9 9.6 29.6l-15.2 5c-2.2-10.2-5-20.3-8.4-30.1-3.4-9.6-7.5-19.1-12.2-28.2zm111.7 5.4c-1.3 2.2-2.4 4.5-3.3 6.9-2.3 7-6.8 18.1-14.5 27.5-8.1 10-18.3 17.7-34.1 24.2l-12.1-10.8c18.1-5.5 26.9-12.7 34-20.7 5.3-5.9 10-15.5 11.1-21h-20.9c-6.1 7.7-13.2 14.4-21.2 20.1l-11.4-8.5c10.7-6.5 19.7-15.5 26.1-26.3 1.9-3.1 3.4-6.5 4.5-10l14.9 4.9c-1.9 2.7-4 6.1-5.2 8.3h13.5c2.8 0 5.6-.3 8.3-1.1l10.3 6.5zM128.3 112c1.1 0 2.1-.5 2.7-1.3v2c-.7.6-1.7 1-2.7.9-2.5 0-4.6-2-4.6-4.6 0-2.5 2-4.6 4.6-4.6 1-.1 2 .3 2.7.9v2c-.6-.9-1.6-1.3-2.7-1.3-1.6.2-2.8 1.8-2.5 3.4.2 1.4 1.2 2.4 2.5 2.6zm5.9-7.1v3.2h4v-3.2h1.7v8.4h-1.7v-3.7h-4v3.7h-1.7v-8.4h1.7zm15.4 8.4h-1.8l-1-2h-3.5l-1 2h-1.8l4.5-9 4.6 9zm-5.6-3.5h2.1l-1.1-2.3-1 2.3zm9.5-4.9c1.9 0 3 1 3 2.7.1 1.2-.7 2.2-1.8 2.5l2.2 3.2h-2l-2-3h-.6v3h-1.7v-8.4h2.9zm-1.3 3.9h1.3c.8 0 1.4-.4 1.4-1.2s-.5-1.2-1.4-1.2h-1.3v2.4zm14.5 4.5h-1.8l-1-2h-3.5l-1 2h-1.8l4.5-9 4.6 9zm-5.6-3.5h2.1l-1.1-2.3-1 2.3zm10.2 2.2c1.1 0 2.1-.5 2.7-1.3v2c-.7.6-1.7 1-2.7.9-2.5 0-4.6-2-4.6-4.6 0-2.5 2-4.6 4.6-4.6 1-.1 2 .3 2.7.9v2c-.6-.9-1.6-1.3-2.7-1.3-1.6.2-2.8 1.8-2.5 3.4.1 1.4 1.2 2.4 2.5 2.6zm4.2-7.1h6v1.5h-2.2v6.9h-1.7v-6.9h-2.2v-1.5zm9.2 6.9h3.8v1.5H183v-8.4h5.5v1.5h-3.8v1.9h3.5v1.4h-3.5v2.1zm8.3-6.9c1.9 0 3 1 3 2.7.1 1.2-.7 2.2-1.8 2.5l2.2 3.2h-2l-2-3h-.6v3H190v-8.4h3zm-1.3 3.9h1.3c.8 0 1.4-.4 1.4-1.2s-.5-1.2-1.4-1.2h-1.3v2.4zm15.2-3.9h1.8l-4.5 9-4.5-9h1.8l2.7 5.8 2.7-5.8zm6.6-.4c2.5.1 4.5 2.2 4.4 4.7s-2.2 4.5-4.7 4.4c-2.5-.1-4.4-2.1-4.4-4.6 0-2.5 2-4.5 4.5-4.6 0 .1.1.1.2.1zm0 7.6c1.7 0 3-1.3 3-3s-1.3-3-3-3-3 1.3-3 3c-.1 1.6 1.2 2.9 2.7 3h.3zm7.6-7.2v8.4h-1.7v-8.4h1.7zm6.2 7.1c1.1 0 2.1-.5 2.7-1.3v2c-.7.6-1.7 1-2.7.9-2.5 0-4.6-2-4.6-4.6 0-2.5 2-4.6 4.6-4.6 1 0 2 .3 2.7.9v2c-.6-.9-1.6-1.3-2.7-1.3-1.6.2-2.8 1.8-2.5 3.4.2 1.4 1.2 2.4 2.5 2.6zm6.1-.2h3.8v1.5h-5.5v-8.4h5.5v1.5h-3.8v1.9h3.6v1.4h-3.5l-.1 2.1zm69.4-2.9c-.5-.4-1.5-.9-2.2-1.3l.8-1c.7.3 1.8.8 2.3 1.2l-.9 1.1zm-1.8 4.3c.8-1.2 1.6-2.5 2.3-3.8l1 .9c-.6 1.3-1.4 2.6-2.1 3.8l-1.2-.9zm2.3-7.6c-.7-.5-1.4-.9-2.1-1.3l.8-1c.7.3 1.7.9 2.2 1.2l-.9 1.1zm8-2v.6c-.1 2.6-.2 3.7-.5 4.1-.2.3-.6.5-1 .5h-1.6c0-.5-.2-.9-.4-1.3.6 0 1.1.1 1.4.1.2 0 .3 0 .4-.1.3-.8.4-1.6.3-2.5h-2c-.1 1.9-1.4 3.6-3.2 4.3-.2-.4-.5-.8-.8-1.1 1.4-.4 2.5-1.7 2.6-3.2h-1.9v-1.3l6.7-.1zm-6.4 5.7h6.2v5h-1.4v-.5h-3.4v.5h-1.4v-5zm1.3 1.3v1.9h3.4v-1.9h-3.4zm9.5-.1c0 .2-.1.3-.1.5h6.6v3.3h-1.4v-.3h-3.9v.3h-1.4v-2.8c-.3 1.1-.9 2-1.7 2.7-.3-.4-.7-.7-1.1-1 1.3-1.2 1.9-2.9 1.8-4.7V107c-.4.2-.8.4-1.1.6-.2-.4-.5-.8-.8-1.2 1.9-.7 3.6-1.9 4.9-3.4h1.4c1.4 1.5 3.1 2.7 5.1 3.3l-.9 1.2-1.2-.6v3.5l-6.2.1zm.3-4.4c-.5.3-.9.6-1.4.9h7.1l-1.5-.9v.5H316v-.5zm4.4 3.5v-.5h-4.5v.5h4.5zm-4.5-1.3h4.5v-.4h-4.5v.4zm3.6-2.8c-.5-.4-.9-.8-1.4-1.2-.4.4-.8.9-1.3 1.2h2.7zm-2.6 6.5v.9h3.9v-.9h-3.9zm16.7-1.3c-.5.7-1.1 1.4-1.9 1.8 1.3.3 2.6.5 3.9.5-.3.4-.6.8-.8 1.3-1.6-.1-3.2-.4-4.7-1-1.5.5-3 .9-4.6 1-.2-.4-.4-.8-.7-1.2 1.3-.1 2.6-.3 3.9-.6-.4-.2-.8-.5-1.1-.8-.5.3-1.1.5-1.6.8-.3-.3-.6-.7-1-.9 1.4-.4 2.6-1.1 3.6-2-.5-.1-.7-.5-.7-1.2v-.8h1.3v.8c0 .3.1.3.5.3h1.3c.3 0 .4-.1.4-.6.3.2.7.3 1.1.4-.1.9-.5 1.2-1.4 1.2H330h.1c-.1.2-.3.4-.5.5h3l1 .5zm-7.2-2.6H325v-2.2h2.1c-.2-.4-.4-.7-.6-1l.1-.1h-1c0-.3-.1-.7-.3-1 2.8 0 5.6-.2 8.4-.7l1 .9-1.5.3 1.1.3c-.3.4-.6.9-.9 1.2h1.9v2.3h-1.2c.3.3.5.5.8.9l-1 .8c-.5-.7-1.1-1.4-1.8-1.9l1-.7c.3.2.6.5.9.7v-1h-3.3c.3.1.6.3.8.5l-.7.8c-.5-.4-1.1-.8-1.7-1l.3-.3h-2.9l-.1 1.2zm-1 1.1c.7-.4 1.2-1 1.5-1.7l1.1.4c-.3.8-.9 1.5-1.6 2l-1-.7zm4.3-3.3c-.1-.4-.3-.8-.5-1.2l-1.2.1c.2.3.4.6.5 1l-.4.2 1.6-.1zm-1 5.2c.5.4 1 .7 1.5.9.5-.2 1-.5 1.4-.9h-2.9zm3.3-5.2c.3-.5.6-1 .8-1.5-.7.1-1.5.2-2.3.2.2.3.4.6.5 1l-.6.2 1.6.1zm11.7 5.6c.8.9 2.2 1.4 4.2 1.5-.3.4-.6.8-.9 1.3-2.5-.3-3.9-1.1-4.9-2.6-.6 1.3-2 2.1-4.9 2.6-.2-.5-.4-.9-.7-1.3 2.3-.3 3.4-.8 4-1.5h-3.8v-1.2h4.4c0-.2.1-.5.1-.7h-4.4v-1.3h4.6v-.6h-3.5v-1.2h3.5v-.6h-4.1v-1.3h2.1c-.2-.4-.4-.7-.6-1l1.3-.5c.4.4.7.9.9 1.4l-.3.1h3l-.3-.1c.3-.4.6-.9.8-1.4l1.5.4c-.3.4-.6.8-.8 1.1h2.2v1.3H343v.6h3.7v1.2H343v.6h4.6v1.3h-4.8c0 .2-.1.5-.1.7h5v1.2h-4z" fill="#fff"/><path fill="none" stroke="#fff" stroke-width="2" stroke-miterlimit="10" stroke-dasharray="2,4" d="M294.5 109.8h-50.1"/></svg>