<svg xmlns="http://www.w3.org/2000/svg" viewBox="0 0 110.19 41.44"><defs><style>.cls-1{fill:#fff;}.cls-2{fill:none;stroke:#fff;stroke-miterlimit:10;stroke-width:2px;stroke-dasharray:2 4;}</style></defs><title>アセット 1</title><g id="レイヤー_2" data-name="レイヤー 2"><g id="MOVIE-modal"><path class="cls-1" d="M19,10.64,17.47,9.51l-1.68-1-1.9-.72-1.67,1.1-1.45.89-1,1.39-.2,1.71.37,1.64.71,1.66,1.72.61,1.67.5L15.76,17l2.07,0,.9-1.47.09,1.7L19.14,19l-.49,1.79-.24,1.8.71,1.9-1.91.08-1.53.32-1.54.56-1.6.18-1.78-.1-1.65-.73-1.52-.85L5.8,23.61,4.7,22.17,3.47,21l-1.6-1-.74-1.65-.19-1.8-.29-1.7L0,13.14l.49-1.79L.63,9.52,1,7.7,2.44,6.39,3.55,5,4.69,3.64,6,2.41,7.8,2,9.24.69l1.88.1L12.9.15l2,.06,2,.26,2,.94.19,1.88-.43,1.84L18.94,7l.44,1.83Z"/><path class="cls-1" d="M22.48.87l1.74.21L26,.93,27.72.36l1.76.23,1.8.21.29,1.87-.81,1.82.56,1.81.21,1.82,0,1.82-.17,1.82-.09,1.82-.51,1.83L31.49,17l1.58.7,1.84,0L36.75,17l1.65.42.26,1.75L38.4,21.1,38.26,23l.14,1.76-1.59.43-1.8-.4-1.78.32-1.79.11-1.8-.7-1.79.6-1.79-.58-1.8.88-2-.27.56-2.07.06-1.85-.26-1.86,0-1.85-.47-1.85.68-1.85L22.92,12V10.15l-.19-1.86-.58-1.85.1-1.86.35-1.87Z"/><path class="cls-1" d="M68,13l.12,1.91-1,1.69-.8,1.63-.79,1.61-.87,1.66-1.45,1.17-1.47,1.16-1.85.42-1.67.89-1.83.43-1.89.2-1.84-.64-2,.29-1.67-1-1.8-.55L45.83,22.5l-1.75-.84-1-1.59-1.19-1.51,0-2-.42-1.76L40.72,13l.76-1.82L42,9.44l.49-1.74.38-1.93,1.63-1.08,1.1-1.54,1.74-.73L48.83,1.1,50.69.68,52.6.81,54.43,0l1.85.67L58,1.25l1.82.32L61.74,2l1.32,1.4,1.56,1.05,1.1,1.52,1,1.58.86,1.7-.4,2Zm-17.85.13.51,1.64L51,16.6l1.52,1.22,1.93.23,1.75-.69,1.54-.92.76-1.61.66-1.72-.66-1.73-1-1.42L56.07,9.1l-1.64-.85-1.61.92-1.67.59-.71,1.64Z"/><path class="cls-1" d="M72.73,16.42l.61-.05L74.67,18l1.91.67,2,.56,1.38-.69.42-1-1.44-1.72-1.76-.36L75.31,15l-1.76-.74-1.89-.9-.24-2.09L71,9.4l-.35-1.76.88-1.53,1-1.35.66-1.69L75,2.68l1.4-.84L77.81.69l1.7-.4,1.74.12,2,.4L85.33.59l1.89.82,2.12,1.17L88.27,4.11l-.6,1.54-.2,1.69L86.38,8.62,85,7.82l-1.79-.35-1.73-.72L80,8.21,81.41,9l1.85,1,1.57.65,1.59.55,1.44.89.83,1.48L90,14.94l.19,1.81-.8,1.86L89,20.49l-.92,1.74-1.6,1.13-1.75.78-1.86.3-1.79.45-1.84.7-1.91-.45-2,.3-1.82-.77-1.72-.92-1.89-.6,1-1.58L71,19.64l1.21-1.48Z"/><path class="cls-1" d="M93,.57,95,.52l1.81.22,1.79,0,1.81-.31,1.8.76,1.8-.62,1.8.76L107.66.9l2-.23L110,2.5l-1,1.64.46,1.65.28,2-2.11-.62L105.78,7l-1.85.74-1.75-.18L101.75,10l2-.58,1.69.29,1.69.4L109,9.62l.17,2.22-.08,2.09-.58,1.82-1.35.75-1.69-.81-1.69-.14-2,.23.71,2.31,1.54.79,1.91-.27,1.91.18,1.63-.07L109.3,20l.31,1.65.58,1.65-.61,1.49-1.68.47-1.83-.05-1.83,0-1.83-.19-1.83,0-1.83-.12-1.83.4-1.84-.74-2,.6.43-2.07.18-1.85-.85-1.86.09-1.85-.06-1.85.49-1.85.4-1.86-.5-1.85.21-1.86-.28-1.85.35-1.86-.31-1.86Z"/><path class="cls-1" d="M49.22,33.68c-.3.18-.63.36-1,.55a39,39,0,0,0-3.48,1.88c-1,.69-1.71,1.43-1.71,2.29s.87,1.47,2.65,1.47a19.16,19.16,0,0,0,3.84-.41V40.8a22.11,22.11,0,0,1-3.78.3c-2.29,0-4-.67-4-2.56a3.92,3.92,0,0,1,2-3.1c-.54-1-1.14-2.34-1.69-3.61l1.19-.48a27.21,27.21,0,0,0,1.54,3.42c1-.62,2.22-1.21,2.83-1.56a6.15,6.15,0,0,0,1-.62Z"/><path class="cls-1" d="M53.87,31.44c-.06.43-.11.93-.13,1.35-.05,1.32-.15,4.06-.15,5.71,0,1.25.79,1.68,1.81,1.68a4.85,4.85,0,0,0,4.18-2.45l.85,1.05a6.07,6.07,0,0,1-5,2.66c-1.81,0-3-.78-3-2.75,0-1.69.12-4.75.12-5.9a7.16,7.16,0,0,0-.13-1.37Zm4.35,2.86-.86.37a13.63,13.63,0,0,0-1.12-1.94l.84-.36A16.35,16.35,0,0,1,58.22,34.3Zm1.62-.68L59,34a13.49,13.49,0,0,0-1.15-1.9l.83-.38A19.36,19.36,0,0,1,59.84,33.62Z"/><path class="cls-1" d="M69.59,32.47c-.24.15-.52.33-.74.49-.61.43-2,1.69-2.89,2.39a4.35,4.35,0,0,1,1.41-.21c2,0,3.46,1.23,3.46,2.88,0,1.91-1.52,3.26-4.18,3.26-1.65,0-2.75-.74-2.75-1.81a1.84,1.84,0,0,1,2-1.69,2.38,2.38,0,0,1,2.49,2.09A1.94,1.94,0,0,0,69.61,38c0-1.12-1.13-1.91-2.58-1.91-1.89,0-3,.89-4.42,2.38l-.88-.89L64.84,35c.66-.55,2-1.69,2.62-2.21-.62,0-2.65.11-3.27.15-.3,0-.61,0-.88.08l0-1.23c.3,0,.66.06.94.06.63,0,3.32-.08,4-.14a3.43,3.43,0,0,0,.76-.12Zm-2.32,7.69a1.43,1.43,0,0,0-1.4-1.46c-.49,0-.85.29-.85.66,0,.52.61.84,1.41.84A7.39,7.39,0,0,0,67.27,40.16Z"/><line class="cls-2" x1="33.19" y1="36.8" x2="5.09" y2="36.8"/><line class="cls-2" x1="105.77" y1="36.8" x2="77.67" y2="36.8"/></g></g></svg>