<svg xmlns="http://www.w3.org/2000/svg" viewBox="0 0 353.5 116.2"><path fill="none" d="M0 0h353.5v116.2H0z"/><path d="M207.8 66.6c7.6-5.3 11.9-13.2 14.1-19.8 2.4-6.9 2.4-22.4 2.4-32.8.1-2.9-.2-5.8-.9-8.6h14.9c-.4 2.8-.6 5.6-.7 8.5 0 10.3-.2 27.9-2.4 36.4-2.5 9.5-7.7 18.1-15 24.7l-12.4-8.4zm39.2 1.6c.5-2.3.8-4.6.8-7V13.1c0-2.6-.3-5.2-.8-7.8h15.1c-.4 2.6-.7 5.3-.7 7.9v41.3c6.3-2.6 13.4-8.7 18.6-16l7.8 11.3c-6.8 8.7-19.1 18-28.4 22.8-1.4.8-2.7 1.7-4 2.8l-8.4-7.2zm67-63.3c-.2 2.1-.3 3.6-.3 6.6v28.6c0 2.1.2 5.6.3 7.8h-15.1c.1-1.7.4-5.3.4-7.9V11.5c0-2.2-.1-4.4-.3-6.6h15zm38.6-.8c-.2 2.5-.3 5.4-.3 9.1v18.3c0 16.9-3.9 25.3-10.3 32-5.6 5.9-14.5 10.2-20.6 12.1l-10.7-11.3c8.7-1.9 15.6-5 20.7-10.2 5.6-6 6.8-11.9 6.8-23.5V13.2c0-3-.2-6.1-.6-9.1h15zM132 109.8c1.1 0 2.1-.5 2.7-1.3v2c-.7.6-1.7 1-2.7.9-2.5 0-4.6-2-4.6-4.6 0-2.5 2-4.6 4.6-4.6 1-.1 1.9.3 2.7.9v2c-.6-.9-1.6-1.3-2.7-1.3-1.6.2-2.8 1.8-2.5 3.4.1 1.3 1.2 2.4 2.5 2.6zm5.9-7.2v3.2h3.9v-3.2h1.7v8.4h-1.7v-3.7h-3.9v3.7h-1.7v-8.4h1.7zm15.3 8.4h-1.8l-1-2H147l-1 2h-1.8l4.5-9 4.5 9zm-5.5-3.5h2.1l-1.1-2.3-1 2.3zm9.4-4.9c1.9 0 3 1 3 2.7.1 1.2-.7 2.2-1.8 2.5l2.2 3.2h-2l-2.1-3h-.6v3h-1.7v-8.4h3zm-1.2 3.9h1.3c.8 0 1.4-.4 1.4-1.2s-.5-1.2-1.4-1.2h-1.3v2.4zm14.4 4.5h-1.8l-1-2H164l-1 2h-1.8l4.5-9 4.6 9zm-5.5-3.5h2.1l-1.1-2.3-1 2.3zm10.1 2.3c1.1 0 2.1-.5 2.7-1.3v2c-.7.6-1.7 1-2.7.9-2.5 0-4.6-2-4.6-4.6 0-2.5 2-4.6 4.6-4.6 1-.1 2 .3 2.7.9v2c-.6-.9-1.6-1.3-2.7-1.3-1.6.2-2.8 1.8-2.5 3.4.2 1.3 1.2 2.4 2.5 2.6zm4.2-7.2h6v1.5H183v6.9h-1.7v-6.9h-2.2v-1.5zm9.3 6.9h3.8v1.5h-5.5v-8.4h5.4v1.5h-3.8v1.9h3.5v1.4h-3.5l.1 2.1zm8.2-6.9c1.9 0 3 1 3 2.7.1 1.2-.7 2.2-1.8 2.5l2.2 3.2h-2l-2-3h-.6v3h-1.7v-8.4h2.9zm-1.3 3.9h1.2c.8 0 1.4-.4 1.4-1.2s-.5-1.2-1.4-1.2h-1.2v2.4zm15.2-3.9h1.8l-4.5 9-4.5-9h1.8l2.7 5.8 2.7-5.8zm6.6-.4c2.5.1 4.5 2.2 4.4 4.7-.1 2.5-2.2 4.5-4.7 4.4-2.5-.1-4.4-2.1-4.4-4.6 0-2.5 2-4.5 4.5-4.6.1.1.1.1.2.1zm0 7.6c1.7 0 3-1.3 3-3s-1.3-3-3-3-3 1.3-3 3c-.1 1.6 1.2 2.9 2.8 3h.2zm7.7-7.2v8.4h-1.7v-8.4h1.7zm6.2 7.2c1.1 0 2.1-.5 2.7-1.3v2c-.7.6-1.7 1-2.7.9-2.5 0-4.6-2-4.6-4.6 0-2.5 2-4.6 4.6-4.6 1-.1 2 .3 2.7.9v2c-.6-.9-1.6-1.3-2.7-1.3-1.6.2-2.8 1.8-2.5 3.4.1 1.3 1.2 2.4 2.5 2.6zm6.1-.3h3.8v1.5h-5.4v-8.4h5.4v1.5h-3.8v1.9h3.5v1.4h-3.5v2.1zm78.2.5v1.4h-10.9V110h4.3v-9h1.5v3.4h4.2v1.4h-4.2v4.1h5.1zm11.5-8.4v10.3h-1.5v-.7h-7.1v.7h-1.4v-10.3h10zm-8.6 1.4v2.6h2.8V103h-2.8zm0 6.7h2.8V107h-2.8v2.7zm7.1-6.7h-2.9v2.6h2.9V103zm0 6.7V107h-2.9v2.7h2.9zm12.6 1.2c.3 0 .4-.2.5-1 .3.2.7.3 1.1.4-.1 1.2-.5 1.6-1.5 1.6h-1.6c-1.3 0-1.6-.3-1.6-1.4v-1.9h-2.6v.5h2.2v.9h-2.2v.6l2.3-.2v1l-4.4.4-.1-1 .9-.1v-2.2h-.5c-.1 1.3-.5 2.5-1.2 3.5-.3-.3-.7-.6-1-.9.8-1.3 1.1-2.7 1-4.2v-2h4.1v-.3h-1v-1.4h-2v1.4H329v-2.2h4.5v1.9h.8v-1.9h4.5v2.2h-1.3v-1.4h-1.2c.4.2.7.5 1 .9l-.7.7c-.3-.4-.7-.7-1.1-1l.6-.6h-.8v1.4h-1.1v.3h4.6v1H336v.4h2.8v2.3H336v.7c.8-.1 1.5-.3 2.3-.6l.8.8c-1 .3-2.1.5-3.1.7v.3c0 .3.1.4.5.4h1.4zm-4.3-8.8h-4.9v-.9h4.9v.9zm-2.3 2.6c-.3-.4-.6-.7-1-1l.7-.6c.4.2.7.5 1 .9l-.7.7zm-.8 2.5v.5h1.5v-.5h-1.5zm0-1.3v.4h1.5v-.4h-1.5zm4.2 0h-1.5v.4h1.5v-.4zm0 1.3h-1.5v.5h1.5v-.5zm4.4-5.1h-5v-.9h5v.9zm-3.1 5.1v.5h1.5v-.5H336zm12.2-3.7c.9 1 2.1 1.8 3.4 2.3-.4.4-.7.7-1 1.2-.9-.4-1.7-.9-2.4-1.6v.8h-4.8v-.8c-.7.6-1.5 1.2-2.4 1.6-.3-.4-.6-.8-1-1.1 1.3-.5 2.4-1.4 3.3-2.4h-2.7v-1.3h3.5c.2-.4.4-.9.5-1.4l1.6.2c-.1.4-.3.8-.5 1.2h5.3v1.3h-2.8zm-4.3 5.7c-.6 1-1.4 1.8-2.3 2.5-.4-.3-.7-.6-1.1-.9.8-.5 1.5-1.2 2.1-2l1.3.4zm2.7-.8v2.3c0 .6-.2 1-.6 1.2-.6.2-1.3.3-2 .2-.1-.4-.3-.8-.5-1.2h1.4c.2 0 .2 0 .2-.2v-2.2h-3.6v-1.2h8.6v1.2h-3.5zm-1.6-4.9c-.3.5-.7 1-1.2 1.5h4l-1.2-1.5H345zm3.6 5.3c.8.7 1.6 1.4 2.2 2.2l-1.2.7c-.6-.8-1.4-1.6-2.1-2.3l1.1-.6z" fill="#fff"/><path fill="none" stroke="#fff" stroke-width="2" stroke-miterlimit="10" stroke-dasharray="2,4" d="M298.2 107.5H248"/></svg>