<svg version="1.1" id="レイヤー_1" xmlns="http://www.w3.org/2000/svg" x="0" y="0" viewBox="0 0 353.5 116.2" xml:space="preserve"><style>.st1{fill:#f6821e}</style><g id="獅子王_司"><path d="M27.7 6.9c-1.9 3.9-4.1 7.6-6.5 11.2 3.3 9 3.8 18.2 3.8 28.6 0 11.4-.6 23.8-4.2 29.2-1.2 1.6-2.9 2.7-4.8 3.2-2.9.7-5.8.9-8.7.8 0-3.8-.9-7.5-2.5-10.9 1.8.2 3.6.2 5.5 0 .9 0 1.7-.4 2.2-1.2 1.1-1.4 1.6-7.1 1.8-14-1.6 2.5-3.4 4.9-5.5 7.1-1.7-3.4-3.9-6.6-6.5-9.5 4.4-3.7 9-10.6 11.5-16.9-.1-2.1-.4-4.2-.8-6.2-1.2 1.2-2.3 2.4-3.5 3.4-2.2-2.8-4.8-5.3-7.7-7.4C4.5 22 7 19.4 9.2 16.5c-1.8-3.4-3.7-6.5-6-9.3l8.1-5.6c1.5 1.7 2.9 3.6 4.1 5.5 1.1-1.8 2-3.6 2.9-5.5l9.4 5.3zm8.1 37.5h12.3v29.8H35.8v5.6h-9.5V12.1h3.8C31 8.6 31.7 5 32.2 1.4L43 3.2c-1 3-1.9 6.1-3 8.9h7.7v28.2H35.8v4.1zm2.5-22.1h-2.4v7.9h2.4v-7.9zm-2.5 32.2V64h2.9v-9.5h-2.9zm34.5-39.6v7.7h11.2v37.5c0 3.4-.5 6.1-2.5 7.7s-4.1 1.9-7 1.9c-.3-2.1-.9-4.1-1.7-6v17.1h-9.6v-48h-2.2V70h-8.6V22.6h10.8v-7.7H49.3V4.6h33.4v10.2H70.3zm0 17.9v27.9h1.5c.5 0 .7-.2.7-.8v-27l-2.2-.1zm96 17h-32.7v17.5c0 6.6-1.4 9.8-6 11.8s-10.6 2.3-18.1 2.2c-1.1-4.4-2.9-8.7-5.2-12.6 5.4.2 12 .2 13.9.2s2.4-.4 2.4-1.8V49.8H88V37.5h32.8V24.2h5.9c3.1-1.9 6-4 8.8-6.3H96.9v-12h51.2l2.8-.7 9.3 7c-7.9 8.2-16.8 15.4-26.5 21.5v3.8h32.7v12.3zm83.6 15.5v12h-77.2v-12h31.9V46.4h-23.8v-12h23.8V17.9h-27.9v-12h68.9v12h-28.1v16.5h24.6v12h-24.6v18.9h32.4zm99.2 1c0 6.6-1.1 10.2-5 12.3s-9.2 2.4-17 2.3c-.6-4.6-1.9-9-3.9-13.2 3.7.3 7.4.4 11.2.2 1.5 0 2.1-.4 2.1-1.9V17.6h-58V6h70.6v60.3zm-20.4-33.8h-49.2V21.9h49.2v10.6zm-33.5 34.1v6.1h-11.9V37.2h41.8v29.5h-29.9zm0-19v8.7h17.9v-8.6l-17.9-.1zm-165.9 64.9c1.1 0 2.1-.5 2.7-1.3v2c-.7.6-1.7 1-2.7.9-2.5.1-4.7-1.8-4.8-4.3-.1-2.5 1.8-4.7 4.3-4.8h.4c1-.1 1.9.3 2.7.9v2c-.6-.8-1.6-1.3-2.7-1.3-1.7 0-3 1.3-3 3s1.5 3 3.1 2.9zm5.9-7.2v3.2h4v-3.2h1.7v8.4h-1.7V110h-4v3.7h-1.7v-8.4h1.7zm15.4 8.4h-1.8l-.9-2h-3.5l-1 2h-1.8l4.5-9 4.5 9zm-5.6-3.5h2.1L146 108l-1 2.2zm9.5-4.9c1.9 0 3 1 3 2.7.1 1.2-.7 2.2-1.8 2.5l2.2 3.2h-2l-2.1-3h-.6v3h-1.7v-8.4h3zm-1.3 3.9h1.3c.8 0 1.4-.4 1.4-1.2s-.5-1.2-1.4-1.2h-1.3v2.4zm14.4 4.5h-1.8l-.9-2h-3.5l-1 2h-1.8l4.5-9 4.5 9zm-5.5-3.5h2.1l-1.1-2.2-1 2.2zm10.2 2.3c1.1 0 2.1-.5 2.7-1.3v2c-.7.6-1.7 1-2.7.9-2.5.1-4.7-1.8-4.8-4.3s1.8-4.7 4.3-4.8h.4c1-.1 1.9.3 2.7.9v2c-.6-.8-1.6-1.3-2.7-1.3-1.7 0-3 1.3-3 3s1.4 3 3.1 2.9zm4.2-7.2h6v1.5h-2.2v6.9h-1.7v-6.9h-2.2v-1.5zm9.2 6.9h3.8v1.5H184v-8.4h5.4v1.5h-3.8v1.8h3.5v1.4h-3.5l.1 2.2zm8.2-6.9c1.9 0 3 1 3 2.7.1 1.2-.7 2.2-1.8 2.5l2.2 3.2h-2l-2.1-3h-.6v3H191v-8.4h2.9zm-1.2 3.9h1.3c.8 0 1.4-.4 1.4-1.2s-.5-1.2-1.4-1.2h-1.3v2.4zm15.2-3.9h1.8l-4.5 9-4.5-9h1.8l2.7 5.7 2.7-5.7zm6.5-.3c2.5.1 4.5 2.2 4.4 4.7-.1 2.5-2.2 4.5-4.7 4.4-2.5-.1-4.5-2.1-4.4-4.6 0-2.5 2-4.5 4.5-4.6.1.1.2.1.2.1zm0 7.6c1.6.1 2.9-1.2 3-2.8v-.2c.1-1.6-1.1-2.9-2.7-3h-.3c-1.7 0-3 1.3-3 3s1.4 3 3 3zm7.7-7.3v8.4h-1.7v-8.4h1.7zm6.2 7.2c1.1 0 2.1-.5 2.7-1.3v2c-.7.6-1.7 1-2.7.9-2.5.1-4.7-1.8-4.8-4.3s1.8-4.7 4.3-4.8h.4c1-.1 2 .3 2.7.9v2c-.6-.9-1.6-1.3-2.7-1.3-1.7 0-3 1.3-3 3s1.5 3 3.1 2.9zm6.1-.3h3.8v1.5h-5.4v-8.4h5.4v1.5h-3.8v1.8h3.6v1.4h-3.5l-.1 2.2zm77.7-6.5v6h-1.5v-.7h-2.7v3.8h-1.5V111h-2.7v.7h-1.4v-6h4.1v-2.1h1.5v2.1h4.2zm-5.7 4v-2.6h-2.7v2.6h2.7zm4.2 0v-2.6h-2.7v2.6h2.7zm6.4-1.6c.4.4 1.5 1.7 1.8 2l-.9 1.2c-.2-.4-.5-.9-.9-1.5v4.9h-1.4V110c-.3 1-.8 1.9-1.5 2.7-.2-.5-.4-.9-.7-1.4.9-1.2 1.6-2.5 2-4h-1.7V106h1.8v-2.5h1.4v2.5h1.6v1.3H317v.8zm7.9-.7h-1.2v5.6c0 .8-.2 1.2-.7 1.5-.7.3-1.5.4-2.3.3-.1-.5-.3-1-.5-1.5h1.8c.3 0 .3-.1.3-.3v-5.6h-3.2V106h3.2v-2.4h1.5v2.4h1.2l-.1 1.4zm-4.5 4.3c-.3-1-.8-2-1.4-2.8l1.2-.6c.6.8 1.1 1.8 1.5 2.8l-1.3.6zm6.6-4.4c-.3.3-.5.5-.8.7-.2-.4-.5-.8-.9-1.2 1.2-.9 2.1-2 2.8-3.3l1.2.4c-.3.6-.7 1.2-1 1.7v4.8H327v-3.1zm-1.4 6.3c.8-.6 1.3-1.5 1.6-2.5l1.3.4c-.2 1.1-.8 2.1-1.6 2.8l-1.3-.7zm10.2-7.5c-.3.9-.7 1.7-1.3 2.4.7.5 1.5.9 2.4 1.1-.4.4-.7.8-.9 1.2-.9-.3-1.8-.8-2.5-1.4-.6.5-1.3.9-2.1 1.2.4.2.8.5 1.1.8l-.9 1c-.4-.4-.9-.7-1.5-1v1.6c0 .3.1.4.6.4h1.5c.4 0 .5-.2.6-1.2.4.2.8.4 1.2.5-.1 1.6-.5 2-1.7 2h-1.8c-1.5 0-1.8-.4-1.8-1.6v-1.7h1.2c-.2-.1-.4-.2-.5-.2l.9-.9c.3.1.7.3 1 .4-.2-.4-.5-.7-.8-1 .8-.2 1.5-.5 2.1-1l-.9-1.5c-.2.3-.4.5-.7.7-.1-.2-.4-.4-.6-.6v2.7h-1.3v-4.9h1.3v1.3c.8-.8 1.4-1.8 1.8-2.8l1.4.4c-.1.3-.3.6-.4.9h3.5v1.2h-.9zm-3.2 0c.2.5.5 1 .9 1.5.3-.5.6-1 .8-1.5h-1.7zm2 4.8c.9.8 1.6 1.6 2.2 2.6l-1.3.8c-.5-1-1.2-1.9-2.1-2.7l1.2-.7zm14.1-2.6v1.5h-11v-1.5h11zm-79.2 3v-2h2v2h-2zm-4 0h-2v-2h2v2zm-6 0h-2v-2h2v2zm-6 0h-2v-2h2v2zm-6 0h-2v-2h2v2zm48 0h-2v-2h2v2zm-6 0h-2v-2h2v2zm-6 0h-2v-2h2v2zm-6 0h-2v-2h2v2z" fill="#fff"/><path class="st1" d="M226 71.6h-10.2l-5.1 8.8 5.1 8.8H226l5.1-8.8z"/><path d="M219.1 75.6c-.1.5-.1.9-.1 1.4 0 1.3-.1 4-.1 5.7 0 1.2.8 1.7 1.8 1.7 1.7 0 3.3-.9 4.2-2.4l.9 1c-1.1 1.7-3 2.7-5 2.7-1.8 0-3-.8-3-2.8 0-1.7.1-4.8.1-5.9 0-.5 0-.9-.1-1.4h1.3z"/><path class="st1" d="M246.4 71.6h-10.2l-5.1 8.8 5.1 8.8h10.2l5.1-8.8z"/><path d="M239.5 75.6c-.1.4-.1.9-.1 1.4 0 1.3-.1 4-.1 5.7 0 1.2.8 1.7 1.8 1.7 1.7 0 3.3-.9 4.2-2.4l.9 1c-1.1 1.7-3 2.7-5 2.7-1.8 0-3-.8-3-2.8 0-1.7.1-4.8.1-5.9 0-.5 0-.9-.1-1.4h1.3z"/><path class="st1" d="M266.8 71.6h-10.2l-5.1 8.8 5.1 8.8h10.2l5.1-8.8z"/><path d="M260.6 80.3c.8-.2 1.6-.4 2.5-.4 1.8 0 3.1.9 3.1 2.5s-.8 2.4-2.6 2.8c-.5.1-1 .2-1.5.2l-.4-1.2c.5 0 .9 0 1.4-.1 1-.2 1.9-.7 1.9-1.7s-.9-1.4-2-1.4c-.8 0-1.7.1-2.4.4v2.4c0 1.3-.5 1.6-1.2 1.6-1 0-2.6-.9-2.6-2.1s1.2-2 2.6-2.7v-1.9h-.8c-.5 0-1.1 0-1.6-.1v-1.2c.5.1 1.1.1 1.6.1h.8v-1.2c0-.3 0-.6-.1-.9h1.3c0 .2-.1.6-.1.9v1.1c.8-.1 1.6-.2 2.4-.4v1.2c-.8.2-1.6.3-2.4.4V80l.1.3zm-1 3.3v-1.8c-.9.4-1.5 1-1.5 1.5s.7.9 1.1.9c.2 0 .3-.2.4-.6zm4.7-6.9c1 .5 1.9 1.1 2.8 1.7l-.6 1c-.9-.7-1.8-1.2-2.8-1.8l.6-.9z"/><path class="st1" d="M287.2 71.6H277l-5.1 8.8 5.1 8.8h10.2l5.1-8.8z"/><path d="M282.8 79.5c-1.1 0-2.1.2-3.2.6-.4.1-.7.2-1.1.4l-.4-1.4c.4 0 .8-.1 1.2-.2 1.2-.3 2.4-.5 3.6-.6 1.5-.2 2.9.9 3.1 2.4v.4c0 2.6-2.3 4.1-5.5 4.5l-.7-1.2c2.9-.4 4.9-1.4 4.9-3.4-.1-.9-.8-1.5-1.9-1.5zm2.2-3.4l-.2 1.2c-1.3-.1-3.8-.3-5.2-.6l.2-1.1c1.7.2 3.5.4 5.2.5z"/><path class="st1" d="M307.6 71.6h-10.2l-5.1 8.8 5.1 8.8h10.2l5.1-8.8z"/><path d="M298.7 78.3c1.6-.6 3.3-1 5.1-1.2 2 0 3.7 1.2 3.7 3.3 0 2.8-2.7 4.3-6.6 4.5l-.5-1.3c3.1-.1 5.8-1 5.8-3.3 0-1.2-.9-2.1-2.1-2.1h-.3c-1.9 0-4.8 1.3-5.9 1.7l-.5-1.3c.4 0 .9-.2 1.3-.3z"/><path class="st1" d="M328 71.6h-10.2l-5.1 8.8 5.1 8.8H328l5.1-8.8z"/><path d="M322.3 75.7c-.1.2-.1.6-.2.8s-.2.9-.3 1.5c.5 0 .9-.1 1.2-.1 1.1 0 2 .5 2 2.1.1 1.5-.2 2.9-.7 4.3-.3.7-1.1 1.1-1.8 1-.5 0-.9-.1-1.4-.2l-.2-1.2c.5.1 1 .2 1.5.2.4.1.8-.2 1-.6.4-1.1.6-2.3.5-3.5 0-1-.5-1.2-1.2-1.2-.2 0-.6 0-1.1.1-.5 2.2-1.3 4.4-2.5 6.4l-1.2-.5c1.1-1.8 2-3.7 2.5-5.7l-1.3.1c-.3 0-.9.1-1.2.2l-.1-1.3h1.1c.4 0 1-.1 1.7-.1.2-.8.3-1.7.3-2.5l1.4.2zm4.1 1.1c.9 1.4 1.6 2.8 2.1 4.3l-1.2.6c-.4-1.6-1.1-3.1-2.1-4.4l1.2-.5z"/><path class="st1" d="M348.4 71.6h-10.2l-5.1 8.8 5.1 8.8h10.2l5.1-8.8z"/><path d="M347.8 77.9c-.7.2-1.4.3-2.1.5.4 1 1 2.2 1.6 3.2l-.7.7c-.6-.1-1.7-.3-2.6-.4l.1-1 1.6.2c-.3-.7-.8-1.7-1.2-2.5-1.7.2-3.3.2-5 0v-1.2c1.5.2 3.1.2 4.6.1l-.3-.7c-.1-.4-.3-.7-.5-1.1l1.3-.2c.2.7.5 1.3.7 1.9.8-.1 1.6-.3 2.4-.6l.1 1.1zm-6.6 3.4c-.2.5-.3 1-.3 1.5 0 1 .6 1.6 2.3 1.6 1.1 0 2.1-.1 3.2-.3v1.2c-1 .2-2.1.3-3.2.3-2.3 0-3.5-.9-3.5-2.5 0-.6.1-1.3.3-1.9l1.2.1z"/><path fill="none" d="M0 0h353.5v116.2H0z"/></g></svg>