<svg xmlns="http://www.w3.org/2000/svg" viewBox="0 0 353.54 116.22"><defs><style>.cls-2{fill:#f6821e}</style></defs><g id="千空"><path d="M269.1 45.88h-32.43V81h-13.18V45.88H191.9V34h31.59V19c-8 .92-16.05 1.59-23.69 2.1a39.49 39.49 0 0 0-3.28-10.84c20.08-1.43 41.83-4.37 55.86-8.57L261.62 12a216.25 216.25 0 0 1-25 5.2V34h32.48zm42.5-26.71c-1.59 13.52-5.79 22.6-28.31 27.38a32.83 32.83 0 0 0-6.46-10.33c18.64-3 20.91-8.31 22.09-17h-8.82v9.16h-12V8.17h29.73V1.28h12.6v6.89h30.49V27h-12.69v-7.83h-8.82v11.51c0 2.43.42 2.69 2.69 2.69h5.63c1.93 0 2.35-.84 2.68-5.72 2.27 1.68 7.23 3.45 10.42 4.12-1.26 9.32-4.37 11.84-11.84 11.84h-8.82c-10.59 0-12.86-3.19-12.86-12.85V19.17zM351.25 68v11H277.5V68h30.32V57.81H286.4V47h57.88v10.81h-23.86V68zm-218.93 44.68a3.31 3.31 0 0 0 2.69-1.33v2a3.83 3.83 0 0 1-2.69.92 4.56 4.56 0 1 1 0-9.11 3.78 3.78 0 0 1 2.69.92v2a3.31 3.31 0 0 0-2.69-1.33 3 3 0 0 0 0 6zm5.88-7.18v3.24h4v-3.24h1.67v8.4h-1.67v-3.66h-4v3.66h-1.68v-8.4zm15.35 8.4h-1.79l-1-2h-3.48l-1 2h-1.8l4.5-9zm-5.55-3.48h2.13l-1.06-2.27zm9.46-4.92c1.86 0 3 1 3 2.7a2.49 2.49 0 0 1-1.8 2.52l2.19 3.18h-2l-2.05-3h-.65v3h-1.68v-8.4zm-1.26 3.9h1.26c.82 0 1.35-.41 1.35-1.2s-.53-1.2-1.35-1.2h-1.26zm14.45 4.5h-1.79l-1-2h-3.48l-1 2h-1.8l4.5-9zm-5.56-3.48h2.13l-1.06-2.27zm10.19 2.26a3.31 3.31 0 0 0 2.69-1.33v2a3.85 3.85 0 0 1-2.69.92 4.56 4.56 0 1 1 0-9.11 3.8 3.8 0 0 1 2.69.92v2a3.31 3.31 0 0 0-2.69-1.33 3 3 0 0 0 0 6zm4.2-7.18h6v1.5h-2.16v6.9h-1.68V107h-2.16zm9.24 6.9h3.77v1.5H187v-8.4h5.45v1.5h-3.77v1.86h3.54v1.44h-3.54zm8.22-6.9c1.86 0 3 1 3 2.7a2.49 2.49 0 0 1-1.8 2.52l2.18 3.18h-2l-2-3h-.65v3H194v-8.4zm-1.26 3.9h1.26c.82 0 1.35-.41 1.35-1.2s-.53-1.2-1.35-1.2h-1.26zm15.17-3.9h1.8l-4.49 9-4.5-9h1.8l2.7 5.75zm6.6-.35a4.56 4.56 0 1 1-4.67 4.55 4.52 4.52 0 0 1 4.67-4.55zm0 7.57a3 3 0 1 0-3-3 2.88 2.88 0 0 0 3 3zm7.69-7.22v8.4h-1.68v-8.4zm6.18 7.18a3.31 3.31 0 0 0 2.69-1.33v2a3.85 3.85 0 0 1-2.69.92 4.56 4.56 0 1 1 0-9.11 3.8 3.8 0 0 1 2.69.92v2a3.31 3.31 0 0 0-2.69-1.33 3 3 0 0 0 0 6zm6.12-.28h3.77v1.5h-5.45v-8.4h5.45v1.5h-3.77v1.86H241v1.44h-3.53zm70.47-5.48a15.09 15.09 0 0 1-2.05 5.34 12.54 12.54 0 0 0-1.39-.75 11.57 11.57 0 0 0 1.81-4.87zm3.06-3v9.25c0 .87-.2 1.27-.73 1.5a7.54 7.54 0 0 1-2.54.27 6.62 6.62 0 0 0-.57-1.49h1.94c.27 0 .36-.09.36-.31v-9.25zm2.71 2.6a21.19 21.19 0 0 1 2.26 5.38l-1.56.61a20.56 20.56 0 0 0-2.1-5.46zm7.32 4.53a16.08 16.08 0 0 0-.93-1.5v5.38h-1.39v-4.8a10.4 10.4 0 0 1-1.53 2.79 7.46 7.46 0 0 0-.7-1.38 10.86 10.86 0 0 0 2-4h-1.69v-1.35h1.9v-2.48h1.39v2.48h1.57v1.35h-1.57v.19c.36.36 1.54 1.71 1.82 2zm4.7-3.48a12.5 12.5 0 0 0 2.2 4.3 5.64 5.64 0 0 0-1.07 1.11 11.55 11.55 0 0 1-1.41-2.86v4.81H324v-4.86a10.84 10.84 0 0 1-2.07 3.22 6.3 6.3 0 0 0-.8-1.31 11.26 11.26 0 0 0 2.64-4.41H322v-1.35h2v-2.48h1.44v2.48h2.11v1.35zm7.69 1.09c-.34.45-.68 1-1 1.33l.56.72-.78 1c-.18-.35-.48-.84-.79-1.32v4.55h-1.31v-3.85a9.25 9.25 0 0 1-1 1 5 5 0 0 0-.66-1.29 10 10 0 0 0 2.68-3.64h-2.36v-1.27h1.34v-2.09h1.31v2.14h.58l.74.45a15.52 15.52 0 0 1-1.14 2.61l.3.36a8.75 8.75 0 0 0 .69-1.24zm3.45-2.34a10.82 10.82 0 0 0 3.12 3.75 10.06 10.06 0 0 0-.78 1.31 3.59 3.59 0 0 1-.38-.32v3.84h-1.39v-.36h-2.31v.4h-1.31v-3.89l-.44.36a6 6 0 0 0-.74-1.22 10.67 10.67 0 0 0 2.93-3.87zm-1.11-2a9.85 9.85 0 0 1-1.9 3 7.4 7.4 0 0 0-1.15-.81 6.44 6.44 0 0 0 1.72-2.51zm2.16 5.84a14 14 0 0 1-1.66-2.33 11.63 11.63 0 0 1-1.57 2.33zm-.48 3.12v-1.83h-2.31v1.83zm1-6.1a12.9 12.9 0 0 0-1.67-2.77l1.18-.59a13.5 13.5 0 0 1 1.75 2.7zm2.94 2.22a5.13 5.13 0 0 0-.88-1.17 11.54 11.54 0 0 0 4.81-4.51h1.52a10.87 10.87 0 0 0 5.09 4.34 7.26 7.26 0 0 0-.94 1.31 13.15 13.15 0 0 1-4.84-4.2 12.81 12.81 0 0 1-4.76 4.23zm3.44-1.23v1.48a5.61 5.61 0 0 1-2.59 5.29 5.66 5.66 0 0 0-1.19-1 4.44 4.44 0 0 0 2.3-4.3v-1.45zm4.14-.06v6.82h-1.49v-6.82zm-50.41 3.33h-2v-2h2zm-6 0h-2v-2h2zm-6 0h-2v-2h2zm-6 0h-2v-2h2zm-6 0h-2v-2h2zm-6 0h-2v-2h2zm-6 0h-2v-2h2zm-6 0h-2v-2h2zm-6 0h-2v-2h2z" fill="#fff"/><path class="cls-2" d="M287.21 71.74h-10.2l-5.1 8.83 5.1 8.84h10.2l5.11-8.84-5.11-8.83z"/><path d="M285.29 75.91a8.07 8.07 0 0 0-.06.93v1.49c.4 0 .79-.06 1.12-.08s.72 0 1-.08v1.18h-1l-1.15.06a17.14 17.14 0 0 1-.18 2.45c-.1.56-.38.72-1 .72a13.89 13.89 0 0 1-1.65-.18v-1a7.16 7.16 0 0 0 1.14.15c.27 0 .39 0 .42-.29a13.93 13.93 0 0 0 .11-1.71c-1.14.08-2.43.21-3.54.32v2.82c0 1.22.09 1.59 2 1.59a24 24 0 0 0 3.53-.28v1.28c-.81.08-2.26.19-3.43.19-2.89 0-3.2-.65-3.25-2.6v-2.88c-.45 0-.81.08-1.07.12l-1.3.18-.12-1.29c.36 0 .85 0 1.34-.07l1.16-.11v-1.41a8.38 8.38 0 0 0-.08-1.14h1.32c0 .32-.06.66-.06 1.08v1.4l3.56-.34v-1.53a6.91 6.91 0 0 0-.08-1z"/><path class="cls-2" d="M307.62 71.74h-10.2l-5.1 8.83 5.1 8.84h10.2l5.11-8.84-5.11-8.83z"/><path d="M303 76.73c-.55.84-1.6 2.74-2.2 3.84a2.59 2.59 0 0 1 1.57-.55 1.4 1.4 0 0 1 1.44 1.5c0 .62 0 1.55.05 2.1a.76.76 0 0 0 .86.74c1.2 0 1.92-1.48 2.24-2.85l1 .81c-.62 2-1.67 3.31-3.44 3.31a1.64 1.64 0 0 1-1.84-1.55c0-.68 0-1.62-.06-2.2a.73.73 0 0 0-.79-.76c-.89 0-1.68.92-2.12 1.86a21 21 0 0 0-1 2.68l-1.32-.45a89.55 89.55 0 0 1 4.11-8.53c.15-.3.34-.63.51-1.05l1.33.54c-.1.15-.23.36-.34.56z"/><path class="cls-2" d="M328.03 71.74h-10.2l-5.1 8.83 5.1 8.84h10.2l5.1-8.84-5.1-8.83z"/><path d="M325.73 76.46c-.3.23-.67.55-.91.73-.79.67-2.44 2-3.28 2.68-.68.58-.68.74 0 1.34 1 .83 3.24 2.64 4.4 3.79l-1.08 1c-.29-.33-.62-.66-.91-1-.65-.69-2.57-2.31-3.66-3.24s-1-1.54.08-2.48c.91-.77 2.64-2.13 3.45-2.94a6.45 6.45 0 0 0 .77-.88z"/><path class="cls-2" d="M348.44 71.74h-10.2l-5.11 8.83 5.11 8.84h10.2l5.11-8.84-5.11-8.83z"/><path d="M344 79.63a10.57 10.57 0 0 0-3.17.6 9.38 9.38 0 0 0-1.06.37l-.38-1.37a9.62 9.62 0 0 0 1.18-.18 16.31 16.31 0 0 1 3.57-.56c1.78 0 3.06 1 3.06 2.77 0 2.55-2.33 4.06-5.49 4.53l-.7-1.16c2.92-.36 4.88-1.42 4.88-3.42-.02-.91-.74-1.58-1.89-1.58zm2.23-3.39l-.23 1.17c-1.34-.1-3.82-.33-5.17-.57l.17-1.14a34.28 34.28 0 0 0 5.21.54z"/></g><path fill="none" opacity=".17" d="M0 0h353.54v116.22H0z" id="獅子王_司" data-name="獅子王 司"/></svg>