<svg xmlns="http://www.w3.org/2000/svg" viewBox="0 0 445 125"><defs><style>.cls-1{fill:#fff}</style></defs><g id="コニー_リー" data-name="コニー・リー"><path class="cls-1" d="M57.65 77.1l.08-4.2H20.86c-3.19 0-8.49.25-11.51.58V59c3.28.25 7.14.51 11.09.51h37.38V27.54H21.45c-3.78 0-8.49.16-11.09.33V13.76c3.36.34 8.06.59 11.09.59h42.84c2.68 0 6.72-.17 8-.25-.09 2-.26 5.71-.26 8.48v43.6c0 2.85.17 7.64.42 10.92zM89.32 57c3.53.25 8.06.59 11.51.59h47c3 0 7-.25 10.16-.59v15.56c-3.28-.34-7.56-.59-10.16-.59h-47c-3.45 0-8.15.25-11.51.59zm7-40.82a96.34 96.34 0 0 0 10.75.58h34.11a83.22 83.22 0 0 0 9.91-.58V31c-2.52-.08-6.89-.34-9.91-.34h-34c-3.36 0-7.82.17-10.84.34zm74.48 18.08c3.36.25 10.41.58 14.53.58h44.6c3.78 0 7.9-.42 10.34-.58v16c-2.19-.08-6.89-.5-10.34-.5h-44.6c-4.79 0-11.09.25-14.53.5zm96.35-3.36a11.76 11.76 0 1 1-11.76 11.76 11.8 11.8 0 0 1 11.76-11.76zm46.2-21.59c-.17 2.1-.34 3.61-.34 6.63V44.5c0 2.1.17 5.63.34 7.82h-15.12c.08-1.68.42-5.3.42-7.9V15.94a65.53 65.53 0 0 0-.34-6.63zm38.55-.76c-.16 2.52-.33 5.38-.33 9.07v18.32c0 16.88-3.95 25.28-10.33 32-5.63 5.88-14.45 10.16-20.58 12.1L310 68.78c8.73-1.93 15.62-5 20.66-10.25 5.63-6 6.81-11.93 6.81-23.52V17.62a67.42 67.42 0 0 0-.59-9.07zm14.37 25.71c3.36.25 10.41.58 14.53.58h44.6c3.78 0 7.9-.42 10.33-.58v16c-2.18-.08-6.88-.5-10.33-.5h-44.6c-4.79 0-11.09.25-14.53.5zM396.49 113c-.46.66-.93 1.39-1.35 1.89h2.71v1.22h-10.14v-1.22h2.34a8.3 8.3 0 0 0-1-1.93l1.09-.47h-1.83v-1.22H392V110h-2.2v-.59a15.26 15.26 0 0 1-1.79 1.12 5.56 5.56 0 0 0-.89-1.15 12.86 12.86 0 0 0 4.85-4.24h1.47a12.26 12.26 0 0 0 5.12 4.09 6.37 6.37 0 0 0-.94 1.29 15.22 15.22 0 0 1-1.83-1.14v.62h-2.29v1.19h3.7v1.22h-3.7v2.4h1.31l-.78-.32a12 12 0 0 0 1.14-2.08zm-6.28-.51a8 8 0 0 1 1.11 2l-1 .42H392v-2.4zm4.72-3.66a13.15 13.15 0 0 1-2.21-2.21 12.72 12.72 0 0 1-2.12 2.21zm13.58 6.06c.4 0 .47-.32.53-2a4.06 4.06 0 0 0 1.32.6c-.15 2.14-.51 2.77-1.73 2.77h-1.44c-1.35 0-1.7-.46-1.7-1.86v-3.67h-1.8c-.22 2.49-.77 4.55-3.63 5.71a4.13 4.13 0 0 0-.89-1.16c2.49-.94 2.83-2.56 3-4.55h-2.71v-1.43h10.7v1.39H407v3.67c0 .46.08.53.47.53zm.52-7.45h-8.52v-1.38H409zm11.13 3.56v.87H422v1.25h-1.83v1.75c0 .7-.12 1.08-.6 1.28a4.57 4.57 0 0 1-2 .24 5.63 5.63 0 0 0-.47-1.38h1.4c.19 0 .23 0 .23-.21v-1.7h-3.5a11.3 11.3 0 0 1-.74 1.07l1.12-.71a10.55 10.55 0 0 1 1.44 1.67l-1.22.8a11.62 11.62 0 0 0-1.35-1.74 8.93 8.93 0 0 1-2.07 1.84 10.52 10.52 0 0 0-1.29-1.13 7.4 7.4 0 0 0 2.18-1.8h-1.7v-1.25h2.55c.14-.27.29-.57.42-.87h-3.18v-1.23H415c.07-.22.14-.45.2-.69h-2.69v-1.15h3c0-.21.09-.42.12-.64H412v-1.2h3.75c0-.29.06-.57.1-.86l1.56.13c0 .25-.06.49-.1.73h4.17v1.2h-4.35c0 .22-.07.43-.1.64h4v1.15h-4.27q-.09.36-.18.69h5.57V111zm-1.45 0h-2.49q-.17.45-.36.87h2.85zm15.56.88h-4.74v2.87c0 .83-.18 1.22-.76 1.44a7 7 0 0 1-2.5.26 6.62 6.62 0 0 0-.59-1.48h2c.25 0 .34-.06.34-.28v-2.85h-4.76v-1.43H428v-1.9h.71a14.5 14.5 0 0 0 1.71-1.19h-5.94V106H432l.32-.07 1.09.82a19 19 0 0 1-3.83 3v.77h4.74z"/><path fill="none" stroke="#fff" stroke-miterlimit="10" stroke-width="2" stroke-dasharray="2 4" d="M385.13 111.92h-58.16"/><path class="cls-1" d="M214.08 114.16a3.31 3.31 0 0 0 2.7-1.34v2a3.87 3.87 0 0 1-2.7.92 4.56 4.56 0 1 1 0-9.12 3.83 3.83 0 0 1 2.7.93v2a3.3 3.3 0 0 0-2.7-1.33 3 3 0 0 0 0 6zM220 107v3.24h4V107h1.68v8.4H224v-3.66h-4v3.66h-1.68V107zm15.32 8.38h-1.8l-1-2h-3.48l-1 2h-1.8l4.5-9zm-5.57-3.48h2.14l-1.07-2.27zm9.47-4.9c1.86 0 3 1 3 2.7a2.5 2.5 0 0 1-1.8 2.52l2.18 3.18h-2l-2-3h-.6v3h-1.68V107zm-1.26 3.9h1.26c.83 0 1.36-.41 1.36-1.2s-.53-1.2-1.36-1.2H238zm14.46 4.48h-1.8l-1-2h-3.48l-1 2h-1.8l4.5-9zm-5.57-3.48H249l-1.07-2.27zm10.15 2.26a3.31 3.31 0 0 0 2.7-1.34v2a3.87 3.87 0 0 1-2.7.92 4.56 4.56 0 1 1 0-9.12 3.83 3.83 0 0 1 2.7.93v2a3.3 3.3 0 0 0-2.7-1.33 3 3 0 0 0 0 6zm4.24-7.16h6v1.5h-2.16v6.9h-1.68v-6.9h-2.16zm9.24 6.88h3.78v1.5h-5.46V107h5.46v1.5h-3.78v1.86H274v1.44h-3.54zm8.22-6.88c1.86 0 3 1 3 2.7a2.5 2.5 0 0 1-1.8 2.52l2.18 3.18h-2l-2.05-3h-.65v3h-1.68V107zm-1.26 3.9h1.26c.83 0 1.36-.41 1.36-1.2s-.53-1.2-1.36-1.2h-1.26zm15.18-3.9h1.8l-4.5 9-4.5-9h1.8l2.7 5.75zm6.6-.38a4.56 4.56 0 1 1-4.68 4.56 4.52 4.52 0 0 1 4.68-4.56zm0 7.58a3 3 0 1 0-3-3 2.87 2.87 0 0 0 3 3zm7.68-7.2v8.4h-1.68V107zm6.18 7.16a3.31 3.31 0 0 0 2.7-1.34v2a3.87 3.87 0 0 1-2.7.92 4.56 4.56 0 1 1 0-9.12 3.83 3.83 0 0 1 2.7.93v2a3.3 3.3 0 0 0-2.7-1.33 3 3 0 0 0 0 6zm6.12-.28h3.8v1.5h-5.46V107H323v1.5h-3.8v1.86h3.54v1.44h-3.54z"/></g></svg>