<svg xmlns="http://www.w3.org/2000/svg" viewBox="0 0 368.5 72"><path d="M34.78 19.36l-1.57-1.31-1.52-.81-1.37-1-1.63-.51-1.57-.73-1.72-.22h-1.94l-1.65 1-1.48 1.1-1.66 1-.56 1.84L17 21.33l-.43 1.91.59 1.9.34 1.95 1.11 1.66 1.94.71 1.3 1.48 1.94.15 1.83.45h2l1.86-.79 1.64-1.07 1.52-1.19 1.65-.9-.18 1.7.52 1.77-.78 1.73.22 1.76.35 1.77-.42 1.74-.17 1.76.46 1.77-.05 1.82-2 .69-1.78.62-1.93-.4-1.84.1-1.81.67-1.85-.26-1.8.37-1.67-.93h-1.78l-1.73-.36-1.6-.76-1.45-.94-1.73-.53-1.27-1.3-1.37-1.1-1.77-.76L6 36.89l-.88-1.55-.92-1.5-.6-1.67-.45-1.69-.65-1.64-.32-1.72-.59-1.71-.06-1.78.28-1.82.05-1.81-.07-1.91.57-1.78.64-1.79 1.37-1.39.47-1.86 1.59-1.12 1-1.52 1.1-1.5L9.94 6l1.8-.62 1.36-1.31 1.6-.91 1.7-.71 1.84-.26L20 1.67l1.82-.26 1.84.27 1.73.16 1.78-.29 1.66.7 1.81-.18 1.59.83 1.35.41L33.9 5l.64 1.77L34 8.54l.56 1.77-.22 1.8-.12 1.78.28 1.79-.21 1.8zM39.11 2l2-.17 1.89.06 1.84-.11 1.85.74 1.85-.15L50.37 2l1.85.27 2-.22.36 1.89-.72 1.78.56 1.77-.16 1.78-.43 1.73-.24 1.78.73 1.78-.15 1.67 1.78.41 1.88-.46 1.88.22 1.89-.4 1.92.44.15-1.81-.43-1.78.34-1.85-.41-1.78-.09-1.78.75-1.78-.06-1.78-.31-1.78 1.87-.22 1.84.71L69 2.23l1.84-.56 1.85.43 1.85-.45 1.85.87 1.82-.35.38 1.83L78 5.79l.69 1.84-.59 1.83.1 1.83v1.84L77.94 15l.38 1.83-.19 1.84.32 1.83-.11 1.84-.55 1.84L78 26l.36 1.84-.17 1.83-.26 1.84.07 1.8.54 1.84-.1 1.85-.14 1.83-.3 1.83.7 1.85-.62 1.62-1.63.54-1.85-.24-1.84.23-1.85.14-1.91-.14-1.85-.59-1.85.76-1.66-.67-.06-1.64.33-1.83-.64-1.83.56-1.86-.36-1.83-.15-1.83.19-1.84-.06-1.81-1.85-.14-1.88-.35h-1.88l-1.84.08-2 .28.12 2 .35 1.83-.24 1.83-.42 1.78-.08 1.83-.14 1.83.41 1.85.06 1.85-1.85.33-1.85.15-1.84-.17-1.85-.74-1.85.84-1.82-.15-1.85-.71-1.77.36-.52-1.75.14-1.84.16-1.83.6-1.83-.22-1.83-.19-1.84-.49-1.83.82-1.83v-1.84l-.2-1.85-.19-1.84v-1.84l-.08-1.83.52-1.84-.84-1.83.29-1.82-.34-1.83.47-1.84.35-1.84-.42-1.83V3.98zm59.18 42.54l-2-.08-1.8-.31-1.8-.07h-1.8l-1.81.46-1.8.21h-1.81l-1.81-.18-1.77-.23.88-1.55.26-1.8.97-1.6.25-1.8 1-1.55.48-1.72.56-1.7.34-1.77.71-1.65.09-1.86 1.19-1.48.65-1.66.65-1.67.08-1.84.91-1.58.49-1.72.83-1.6.4-1.79.31-1.79.3-1.79.76-1.58 1.11-1.51L95 5.4l.77-1.64.77-1.63 1.88-.26 1.88.35 1.88-.08 1.89-.35L106 2l1.88.54 1.89-.37 1.89.25 2-.44.69 1.73.32 1.79 1.09 1.51.21 1.83.26 1.81 1 1.53.8 1.61-.09 1.94 1.22 1.46.07 1.88.85 1.6.23 1.82 1 1.54.67 1.67.62 1.68.18 1.84 1.32 1.43.42 1.75.27 1.81.77 1.63.44 1.75.31 1.8 1.43 1.4.22 1.83.57 1.65-1.74.44-1.79-.6-1.8.09-1.8.41h-1.8l-1.81-.34-1.8.59-1.81-.31-1.69-.32-1-1.49L111 41l-.17-1.71H109l-1.93.11-1.93-.23-1.94.4h-1.93l-1.8-.27-.26 1.65-1.07 1.62zm9.81-15.63l-.38-1.68-.14-1.93-.38-1.88-.4-1.88-.85-1.7-.52-1.78-.22-1.59-.1-.19-.63 1.72-.7 1.77-.07 1.91-.71 1.79v1.92l-.8 1.75-.24 2.09 2.24.05 2-.26zm23.35-26.57l1.64-.11 1.85.09 1.85-.65h1.85l1.85.16 1.86.3 1.85.22 1.86.06 1.85-.69 1.86.34 1.87-.06 1.85.28 1.78.59 1.88.12 1.69.79 1.83.5L162 5.67l1.31 1.25 1.88.84.81 1.75.52 1.82.73 1.73L167 15l.76 1.83-.29 1.88-.16 1.9-.76 1.76-1.15 1.49-1.4 1.2-1.44 1.14-1.65.85-1.69.77.3.08.88 1.56 1.54 1.05.57 1.82 1 1.51 1.65 1.16.76 1.7 1 1.53.68 1.77 1 1.55 1.64 1.11.32 1.55-1.38.52-1.76-.38-1.77-.12-1.76-.07-1.77.14-1.77.6-1.77-.72-1.77.15-1.81-.28-2 .6-.75-1.94-.63-1.79-.76-1.73-.86-1.67-1.34-1.44-.7-1.77-.41-1.91-.7-1.83-.35.27-.31 1.65-.45 1.69v1.69l.17 1.7.06 1.69.65 1.7-.56 1.69.4 2-2.11.06-1.87-.43h-1.87l-1.88-.17-1.87.36-1.88-.3-1.88.3-2.05.06-.29-2 .11-1.84.64-1.83-.71-1.86.91-1.83-.42-1.84.2-1.83.24-1.83-.09-1.84-.84-1.83.2-1.84.49-1.84.18-1.83-.67-1.82.14-1.83.46-1.84-.6-1.83.26-1.84-.49-1.84.33-1.83-.35-1.84.59-1.82zM146 21h3.11l1.46-1.09 1-1 .46-1.53v-1.82l-1.03-1.5-1.76-.59-1.81.59-1.13-.37.15 1.76-.11 1.79L146 19zm44.15 23.56l-2-.35-1.8-.26-1.8.81-1.8-.68-1.81.58-1.8-.1-1.81-.34-1.81-.11-2.07.43.72-1.92L175 41l.67-1.66.56-1.69.45-1.74.29-1.78.56-1.7 1-1.53.12-1.85 1.2-1.48.48-1.72.63-1.68.51-1.71.76-1.63.66-1.67.57-1.69.25-1.8.83-1.61.1-1.86 1-1.55.67-1.65.28-1.79.56-1.71.74-1.64.51-1.74 1.9-.46 1.88.94 1.88-.17 1.88.11 1.89-.59 1.88-.1 1.89.53h1.89l1.66.09.85 1.35.61 1.68.5 1.73.85 1.59.1 1.87 1.17 1.48.68 1.66.69 1.66.52 1.71.47 1.74.57 1.7.42 1.75.27 1.81 1.13 1.5.21 1.83.6 1.69.66 1.66.57 1.71.4 1.76 1.37 1.42.15 1.85.52 1.72L219 41l.55 1.72.92 1.65-1.82-.37-1.81.35-1.8-.13h-1.8l-1.81-.22-1.8.73-1.81-.44L206 44l-2.08.7v-2.17l-.45-1.76-.78-1.58-1.84-.52-1.93.91-1.92-.1-1.93-.56-1.93.27-2-.13-.1 1.85-.82 1.66zm9.76-15.67l-.11-1.72-.19-1.92-1.23-1.67.21-2-1-1.67-.19-1.91v-1.91h-.86l.13 2-.58 1.79-.59 1.8-.5 1.82-.37 1.85-.26 1.87-.17 1.62 1.8-.13 2.06.46zm52.68-9.51l-1.91-1-1.41-.91-1-1.59-1.66-.58-1.76-.3-1.73.22-1.89-.22-1.89.44-1.19 1.63-1.78.83-1 1.65-.25 1.9-.12 1.79.23 1.8.29 1.88.85 1.76 1.77.9 1.37 1.4 1.86.59 1.94-.49h1.92l2-.08 1.85-.8 1.34-1.54 1.58-1.05.19 1.72.2 1.77-.67 1.73-.13 1.75.11 1.76.14 1.76-.51 1.74.65 1.78-.54 1.7-1.47 1-1.82.46-1.84.37-1.83-.15-1.84.27-1.87-.43L239 45l-1.83.18-1.67-.78-1.69-.53-1.5-1-1.88-.16-1.35-1.21-1.35-1.13-1.42-1-1.74-.78-1-1.51-.88-1.57-.81-1.59-.88-1.59-.87-1.59.31-1.94-.92-1.61-.05-1.79.29-1.77-.06-1.81-.46-1.91.53-1.79.3-1.85 1.22-1.51.26-1.93 1.37-1.34.79-1.7 1.07-1.54 1.54-1.08L227.67 6l1.44-1.16 1.89-.48L232.36 3h1.94l1.7-.76 1.75-.58 1.84.07 1.82-.58 1.75.35h1.76l1.79-.05 1.71.49 1.57.93 2 .25-.46 1.88-.21 1.79.77 1.76.21 1.78-.77 1.81.94 1.76-.37 1.8.46 1.72zM256 1.8l2.11.34 1.79-.25 1.79.43 1.79-.53 1.79.2 1.79-.28 1.79.75 1.79-.06 1.79-.64 1.79.64 1.79.19 1.79-.16 1.8-.64 1.79.59L283.2 2l1.8.34 1.8-.57 1.95.22-.39 1.88.7 1.71-.56 1.72-.26 1.7.24 1.71.45 1.72-.44 1.72.21 1.85-1.8-.13h-1.69l-1.7.13-1.66-.89-1.72.36-.22 1.82.15 1.8.57 1.81-.23 1.8-.19 1.81.26 1.8-.8 1.81.56 1.8.21 1.8v1.81l-.17 1.8-.1 1.81-.51 1.81.81 1.81-.81 1.81.14 1.53-1.4.52-1.7-.5-1.71.33-1.7-.26-1.7-.13-1.71.06-1.71.52-1.7-.41-1.84.27-.16-1.92.71-1.81-.61-1.8.59-1.81-.89-1.8.18-1.81.65-1.8.06-1.8-.26-1.81v-1.8l-.47-1.81.68-1.8.14-1.81v-1.84l-.19-1.81-.49-1.6-1.45.07-1.71-.27-1.68.21-1.69.19h-1.7l.38-1.72-.78-1.71.05-1.71.06-1.73-.15-1.72V5.57l.39-1.72zm37.2.56l1.53.24 1.78-.05 1.77-.89 1.77 1 1.78-.27 1.77.18h3.54l1.78-.32 1.77-.58 1.77.68 1.78-.53 1.77.05h1.78l1.78.19 1.84.06-.1 2 .4 1.92-.71 1.85.68 1.92-.52 1.93-.06 1.65-1.56.72-1.87-.11-1.85.05-1.82-.46-1.85-.4-1.85.5-2-.15.23 2.14-.3 2.18 1.88-.22 1.69.18 1.69-.53 1.68.58 1.69-.14 1.69.25 1.78-.36.36 1.9-.83 1.83v1.83l.08 1.83.13 1.83.52 2.11-2-.64-1.68.13-1.69.52-1.69-.39-1.69-.18-1.69.62-2.06-.64v2.37l.57 1.91 1.73-.13 1.91.24 1.91.27 1.91-.63 1.91.15 1.92-.18 1.89.47v1.89l.43 1.93-.57 1.92.19 1.92.31 1.93-.44 1.8-1.67.55h-1.8l-1.8-.59-1.89-.19-1.8.16-1.8.15-1.8-.24-1.8.77h-1.8l-1.8-.61-1.81.27-1.8.22-1.8-.23-1.81-.21-1.81-.37-1.56.19-.47-1.59.35-1.84-.6-1.83.33-1.83.33-1.83-.24-1.84.36-1.83-.6-1.83.58-1.84-.48-1.84-.24-1.84.67-1.84.18-1.83-.11-1.84-.38-1.83L293 15l-.18-1.83.37-1.84-.37-1.84-.11-1.83-.11-1.84.52-1.82zm33.4-.08l1.7.14 1.85.06 1.85-.32h3.7l1.86.24 1.85-.24 1.86-.47 1.86.42 1.87-.26 1.85.42 1.83.26 1.77.54 1.92-.1 1.78.59 1.85.51 1.39 1.33 1.48 1.15L360.09 8l.78 1.7.74 1.69.75 1.72-.11 1.89.65 1.83-.26 1.89-.33 1.86-.84 1.69-1.12 1.42-1.05 1.5-1.3 1.42-1.81.61-2 .36.31.45 1 1.52 1.12 1.3 1.08 1.48 1.2 1.4 1.46 1.27.34 2 1.24 1.38.82 1.66 1.36 1.3 1.33 1.32.53 1.66-1.59-.32-1.77.52-1.77-.2-1.76-.09-1.77.45-1.77-.2-1.77-.16-1.77.16-1.78-.14-1.69-.16-1.3-1.37-.43-1.81-.9-1.67-.73-1.74L344 36l-.8-1.71-.41-1.92-.88-1.7h-.89v1.76l.3 1.69-.06 1.69v1.7l-.13 1.69v1.7l.44 1.69-.23 1.64h-1.82l-1.81-.23-1.87.55-1.88.26-1.87-.08-1.88-.22h-1.88l-2.2.18.62-2.16-.62-1.84.75-1.83-.38-1.86-.3-1.83-.2-1.82 1-1.83-.46-1.83-.41-1.84.72-1.83.15-1.84-.74-1.84.14-1.83.54-1.84-.75-1.83.21-1.84.4-1.83-.56-1.84-.12-1.84.08-1.83.68-1.84L326 4zm14.67 18.66l1.25.19 1.82-.05 1.66-.8 1.22-1.28.34-1.73-.09-1.83-1.38-1.19h-1.75l-1.71-.52-.94.1-.32 1.63-.1 1.79L341 19zM13.07 66c-.27 0-.7.11-1.16.18-.62.1-1.68.26-2.79.45.21 1.07.38 2 .45 2.3s.19.77.31 1.13l-1.37.24c-.07-.42-.1-.81-.17-1.17s-.23-1.2-.43-2.31c-1.31.21-2.52.42-3.09.52s-.85.16-1.11.23l-.28-1.28c.3 0 .81-.07 1.14-.12.59-.08 1.81-.28 3.11-.48l-.42-2.21-2.52.42c-.41.07-.72.15-1 .22l-.25-1.32 1-.08c.44 0 1.44-.2 2.53-.37-.12-.59-.2-1-.24-1.19a6 6 0 0 0-.24-.87l1.34-.21c0 .22.08.6.14.86s.1.6.22 1.22c1.09-.18 2.11-.34 2.58-.44s.75-.16 1-.23l.18 1.29-1 .13-2.61.41.42 2.2L11.7 65c.45-.1.85-.18 1.12-.27zm6.6 1.06a11.68 11.68 0 0 0 1.93-2.34l-3.27.66c.47 1.69 1 3.7 1.2 4.26.06.22.21.66.29.89l-1.29.32a5.65 5.65 0 0 0-.2-.94l-1.15-4.29-2.36.5-.29-1.12c.35 0 .66-.07 1.05-.13l1.31-.24c-.14-.56-.27-1-.34-1.27a4 4 0 0 0-.32-.77l1.29-.31c0 .24.11.53.18.83l.36 1.31 3.94-.81a2.44 2.44 0 0 0 .52-.17l.77.54a17.61 17.61 0 0 1-2.57 3.61zM33.47 64a3 3 0 0 0-.17.4 8.56 8.56 0 0 1-1.77 3.37 8.83 8.83 0 0 1-4.29 2.56l-.94-1.08a8.1 8.1 0 0 0 4.2-2.16 5.65 5.65 0 0 0 1.33-2.4h-7.37v-1.24c.46 0 .92.09 1.27.09h6.14a2.31 2.31 0 0 0 .76-.11zm-7.92-3.3c.32 0 .75.06 1.14.06h4.67c.39 0 .88 0 1.18-.06v1.23h-6.99zm18.77 1.52A3.76 3.76 0 0 0 44 63a12 12 0 0 1-2.12 4 11 11 0 0 1-4.8 3.32l-1.12-1a9.63 9.63 0 0 0 4.81-3 9.11 9.11 0 0 0 1.83-3.54h-3.75a12.32 12.32 0 0 1-3 2.92l-1.1-.7a10.07 10.07 0 0 0 3.77-4 5.16 5.16 0 0 0 .48-1.09l1.39.46c-.24.36-.49.83-.62 1.07l-.17.3h2.88a2.93 2.93 0 0 0 .9-.12zM54.9 62a5 5 0 0 0-.34.74 13 13 0 0 1-1.7 3.44c.44.29.85.55 1.15.77l-.84 1.1c-.29-.24-.69-.53-1.14-.84a11.41 11.41 0 0 1-4.57 3.11l-1.09-1A10.36 10.36 0 0 0 51 66.55c-.89-.58-1.81-1.14-2.46-1.5l.79-.9c.67.35 1.59.87 2.47 1.4a9.78 9.78 0 0 0 1.41-2.91h-3.82a13.12 13.12 0 0 1-3.15 3.11l-1-.77A10.89 10.89 0 0 0 49 60.89a4.45 4.45 0 0 0 .46-1.08l1.37.43c-.23.36-.5.81-.62 1l-.14.27H53a2.86 2.86 0 0 0 .9-.13zm1.52 2.35c.39 0 1.13.07 1.78.07h6.51a12.63 12.63 0 0 0 1.34-.07v1.48h-9.63zM367 67.24h-2v-2h2zm-6 0h-2v-2h2zm-6 0h-2v-2h2zm-6 0h-2v-2h2zm-6 0h-2v-2h2zm-6 0h-2v-2h2zm-6 0h-2v-2h2zm-6 0h-2v-2h2zm-6 0h-2v-2h2zm-6 0h-2v-2h2zm-6 0h-2v-2h2zm-6 0h-2v-2h2zm-6 0h-2v-2h2zm-6 0h-2v-2h2zm-6 0h-2v-2h2zm-6 0h-2v-2h2zm-6 0h-2v-2h2zm-6 0h-2v-2h2zm-6 0h-2v-2h2zm-6 0h-2v-2h2zm-6 0h-2v-2h2zm-6 0h-2v-2h2zm-6 0h-2v-2h2zm-6 0h-2v-2h2zm-6 0h-2v-2h2zm-6 0h-2v-2h2zm-6 0h-2v-2h2zm-6 0h-2v-2h2zm-6 0h-2v-2h2zm-6 0h-2v-2h2zm-6 0h-2v-2h2zm-6 0h-2v-2h2zm-6 0h-2v-2h2zm-6 0h-2v-2h2zm-6 0h-2v-2h2zm-6 0h-2v-2h2zm-6 0h-2v-2h2zm-6 0h-2v-2h2zm-6 0h-2v-2h2zm-6 0h-2v-2h2zm-6 0h-2v-2h2zm-6 0h-2v-2h2zm-6 0h-2v-2h2zm-6 0h-2v-2h2zm-6 0h-2v-2h2zm-6 0h-2v-2h2zm-6 0h-2v-2h2zm-6 0h-2v-2h2zm-6 0h-2v-2h2z" fill="#fff"/><path fill="none" d="M0 0h368.5v72H0z" data-name="bg" opacity=".26"/></svg>