<svg xmlns="http://www.w3.org/2000/svg" viewBox="0 0 353.54 116.22"><defs><style>.cls-2{fill:#f6821e}</style></defs><g id="大木大樹"><path d="M70.8 35.66C76.26 50.87 86 63.13 101.46 69.1a52.49 52.49 0 0 0-9.07 11.59c-14.78-6.81-24-18-30.49-32.85-4.79 12.94-13.7 24.62-30.24 32.85a38.27 38.27 0 0 0-9.24-10.42C40.81 62 48.54 49.36 51.9 35.66H24.1V23h29.82c.58-7.39.5-14.78.58-21.76H68c-.09 7-.17 14.37-.84 21.76h32.2v12.66zm86.02-3.36c6.8 12.18 18.06 23.78 30.15 30.33a50.46 50.46 0 0 0-9.15 10.67c-9.92-6.47-18.65-16.13-25.62-27.22V81h-13.11V46.67c-6.89 11.09-15.54 20.58-25.62 27a68.49 68.49 0 0 0-9.15-10.5c12.26-6.63 23.1-18.39 29.65-30.91h-25.54V20.21h30.66v-19h13.11v19h30.74V32.3zm81.98 3.36c5.46 15.21 15.2 27.47 30.66 33.44a52.49 52.49 0 0 0-9.07 11.59c-14.78-6.81-24-18-30.49-32.85-4.79 12.94-13.7 24.62-30.24 32.85a38.27 38.27 0 0 0-9.24-10.42c18.39-8.27 26.12-20.91 29.48-34.61h-27.8V23h29.82c.58-7.39.5-14.78.58-21.76H236c-.09 7-.17 14.37-.84 21.76h32.25v12.66zM296 53.22c-.68-2.35-1.77-5.54-3-8.82V81h-10.5V54.82a60.29 60.29 0 0 1-4.79 11.33 60 60 0 0 0-4.7-10c4.12-6.38 7.56-17.39 9.32-26.88H275V18.19h7.47v-17H293v17h5.88v11.09H293V30c1.85 3 6.55 11.51 8.06 14.37v-12h25.44V53H301v-7.76zm33.35 11.68l.59 9.82c-10.5 1.77-21.84 3.53-30.49 5l-2.77-10.33c4.62-.59 10.5-1.35 16.88-2.19A104 104 0 0 0 317 53.3l11 2.52c-1.35 3.45-2.69 6.89-3.86 9.83zm-20.74-47.38h-9.33V8h9.33V1.22H319V8h9.83v9.49H319v3.36h8.32v9.41h-26.86v-9.38h8.15zM303 67.33A64.23 64.23 0 0 0 300.62 56l9.08-2.35a57.77 57.77 0 0 1 2.94 10.92zm7.72-22.51h5.63v-4.37h-5.65zm42.84-15h-4.45v39c0 5.12-.84 8.15-3.69 10s-6.64 2.35-11.93 2.35A44 44 0 0 0 330.11 70c2.69.17 5.46.17 6.47.17s1.34-.42 1.34-1.43V56.58l-7.06 2.52a134.4 134.4 0 0 0-3.86-22l8.65-2.69c.84 2.69 1.6 5.63 2.27 8.57v-13.2h-9V19h9V1.56h11.17V19h4.45zm-216.97 82.8a3.31 3.31 0 0 0 2.7-1.33v2a3.83 3.83 0 0 1-2.7.93 4.56 4.56 0 1 1 0-9.12 3.87 3.87 0 0 1 2.7.92v2a3.32 3.32 0 0 0-2.7-1.34 3 3 0 0 0 0 6zm5.88-7.17v3.24h4v-3.24h1.68v8.4h-1.68v-3.66h-4v3.66h-1.68v-8.4zm15.35 8.4H156l-1-2h-3.48l-1 2h-1.8l4.5-9zm-5.56-3.48h2.13l-1.06-2.27zm9.47-4.92c1.86 0 3 1 3 2.7a2.49 2.49 0 0 1-1.8 2.52l2.19 3.18h-2l-2-3h-.65v3h-1.68v-8.4zm-1.26 3.9h1.26c.82 0 1.35-.41 1.35-1.2s-.53-1.2-1.35-1.2h-1.26zm14.45 4.5h-1.79l-1-2h-3.48l-1 2h-1.8l4.5-9zm-5.56-3.48h2.13l-1.06-2.27zm10.19 2.25a3.28 3.28 0 0 0 2.69-1.33v2a3.79 3.79 0 0 1-2.69.93 4.56 4.56 0 1 1 0-9.12 3.83 3.83 0 0 1 2.69.92v2a3.29 3.29 0 0 0-2.69-1.34 3 3 0 0 0 0 6zm4.2-7.17h6V107h-2.16v6.9h-1.68V107h-2.16zm9.25 6.9h3.78v1.5h-5.46v-8.4h5.46V107H193v1.86h3.54v1.44H193zm8.21-6.9c1.86 0 3 1 3 2.7a2.49 2.49 0 0 1-1.8 2.52l2.19 3.18h-2l-2.05-3H200v3h-1.68v-8.4zm-1.26 3.9h1.26c.82 0 1.35-.41 1.35-1.2s-.53-1.2-1.35-1.2H200zm15.17-3.9h1.8l-4.49 9-4.5-9h1.8l2.7 5.75zm6.61-.36a4.56 4.56 0 1 1-4.68 4.56 4.52 4.52 0 0 1 4.68-4.56zm0 7.58a2.88 2.88 0 0 0 3-3 2.85 2.85 0 0 0-3-3 3 3 0 0 0 0 6zm7.68-7.22v8.4h-1.68v-8.4zm6.18 7.17a3.28 3.28 0 0 0 2.69-1.33v2a3.8 3.8 0 0 1-2.69.93 4.56 4.56 0 1 1 0-9.12 3.85 3.85 0 0 1 2.69.92v2a3.29 3.29 0 0 0-2.69-1.34 3 3 0 0 0 0 6zm6.12-.27h3.77v1.5H240v-8.4h5.45V107h-3.77v1.86h3.53v1.44h-3.53zm73.5-5.23v2.14h3.46v5.58h-1.56v-.51h-5.42v.56h-1.5v-5.63h3.46v-2.14H309v-1.39h4.67v-2h1.56v2h4.67v1.39zm1.9 3.5h-5.42V113h5.42zm6.62-6.33v4.13c0 2.33-.18 4.77-1.78 6.58a5.75 5.75 0 0 0-1.22-1c1.37-1.56 1.52-3.58 1.52-5.56v-4.12zm3.64.51v8.93h-1.46v-8.93zm3.7-.54v10.59h-1.51v-10.59zm5.81 1.9a8.69 8.69 0 0 1-.59 3.42l-.88-.4a8 8 0 0 0 .56-3.13zm1.94 2.29a8.75 8.75 0 0 0-.45-1.78v8.21H337v-11.19h1.36v2.23l.56-.21a9.16 9.16 0 0 1 .77 2.37zm5.92 4.27c.79.51 1.63 1.11 2.13 1.51l-1.34.68a23 23 0 0 0-2.17-1.7l.72-.49h-2.73l1.11.37a8.37 8.37 0 0 1-2.6 1.85 9.54 9.54 0 0 0-1-1 6.39 6.39 0 0 0 2.25-1.26h-2v-1.21h7.71v1.21zm-2.51-7h-2.89v-1.12h2.89v-.9h1.44v.9h2.9v1.12h-2.9v.56h2.07v4.79h-5.6v-4.79h2.09zm2.19 1.44h-3v.46h3zm0 1.29h-3v.45h3zm0 1.27h-3v.49h3zm-41.63 1.67h-2v-2h2zm-6 0h-2v-2h2zm-6 0h-2v-2h2zm-6 0h-2v-2h2zm-6 0h-2v-2h2zm-6 0h-2v-2h2zm-6 0h-2v-2h2zm-6 0h-2v-2h2zm-6 0h-2v-2h2z" fill="#fff"/><path class="cls-2" d="M225.25 71.68h-10.2l-5.1 8.84 5.1 8.84h10.2l5.11-8.84-5.11-8.84z"/><path d="M219 80.41a9.2 9.2 0 0 1 2.5-.41c1.76 0 3.09.95 3.09 2.47s-.81 2.4-2.56 2.82a8.72 8.72 0 0 1-1.5.17l-.43-1.2a7.32 7.32 0 0 0 1.42-.09c1-.18 1.87-.7 1.87-1.71s-.82-1.42-1.9-1.42a8 8 0 0 0-2.44.4v2.44c0 1.26-.47 1.62-1.16 1.62-1 0-2.62-.93-2.62-2.08s1.21-2 2.62-2.67V78.7a7.54 7.54 0 0 1-.78 0 15.54 15.54 0 0 1-1.56-.06v-1.15a12.45 12.45 0 0 0 1.58.09h.81v-1.19a6.76 6.76 0 0 0-.07-.93h1.3c0 .23-.06.62-.08.91s0 .67 0 1.09a14.05 14.05 0 0 0 2.34-.46v1.18a23.29 23.29 0 0 1-2.39.4v1.36zm-1 3.32v-1.82c-.86.42-1.46 1-1.46 1.5s.69.87 1.1.87c.21 0 .36-.15.36-.55zm4.77-6.91a22.15 22.15 0 0 1 2.81 1.71l-.59 1a17 17 0 0 0-2.75-1.75z"/><path class="cls-2" d="M245.66 71.68h-10.2l-5.1 8.84 5.1 8.84h10.2l5.11-8.84-5.11-8.84z"/><path d="M239.44 80.41a9.2 9.2 0 0 1 2.47-.37c1.76 0 3.09.95 3.09 2.47s-.81 2.4-2.56 2.82a8.72 8.72 0 0 1-1.5.17l-.43-1.2a7.32 7.32 0 0 0 1.42-.09c1-.18 1.87-.7 1.87-1.71s-.82-1.42-1.9-1.42a8 8 0 0 0-2.44.4v2.44c0 1.26-.47 1.62-1.16 1.62-1 0-2.62-.93-2.62-2.08s1.21-2 2.62-2.67v-2.05a7.54 7.54 0 0 1-.78 0 15.54 15.54 0 0 1-1.56-.06v-1.15a12.45 12.45 0 0 0 1.58.09h.81v-1.19a6.76 6.76 0 0 0-.07-.93h1.3c0 .23-.06.62-.08.91s0 .67 0 1.09a14.05 14.05 0 0 0 2.34-.46v1.18a23.29 23.29 0 0 1-2.39.4v1.36zm-1 3.32v-1.82c-.86.42-1.46 1-1.46 1.5s.69.87 1.1.87c.18 0 .33-.15.33-.55zm4.77-6.91a22.15 22.15 0 0 1 2.79 1.71l-.59 1a17 17 0 0 0-2.75-1.75z"/><path class="cls-2" d="M266.07 71.68h-10.2l-5.1 8.84 5.1 8.84h10.2l5.11-8.84-5.11-8.84z"/><path d="M265.5 79.6a13.91 13.91 0 0 1-1.94.49c.34.69.7 1.46 1 2.1l-.56.72c-.63-.12-1.67-.27-2.44-.36l.1-.92 1.4.15c-.2-.46-.43-1-.67-1.5a30.12 30.12 0 0 1-5.26.1l-.05-1.1a24 24 0 0 0 4.88 0l-.32-.75c-.1-.22-.2-.43-.28-.64a23 23 0 0 1-4.14 0l-.07-1.1a20.49 20.49 0 0 0 3.77.12l-.1-.2a7.57 7.57 0 0 0-.49-.92l1.34-.28a12.51 12.51 0 0 0 .42 1.27 14.32 14.32 0 0 0 2.32-.56l.2 1a14.43 14.43 0 0 1-2.12.5l.21.5c.1.22.23.52.39.86a12.77 12.77 0 0 0 2.16-.57zm-6.75 2.4a4.11 4.11 0 0 0-.27 1.19c0 .83.63 1.37 2.26 1.37a15.56 15.56 0 0 0 3-.26v1.2a18.25 18.25 0 0 1-2.94.24c-2.17 0-3.47-.74-3.47-2.3a5.69 5.69 0 0 1 .28-1.54z"/><path class="cls-2" d="M286.48 71.68h-10.2l-5.1 8.84 5.1 8.84h10.2l5.11-8.84-5.11-8.84z"/><path d="M282.59 78.17a21.29 21.29 0 0 1-2.39.39c-.1.52-.24 1-.37 1.55a35 35 0 0 1-1.83 5.47l-1.32-.44a26.32 26.32 0 0 0 2-5.33c.1-.36.2-.75.28-1.14h-2.36v-1.18a11.28 11.28 0 0 0 1.45.1h1.19c.06-.35.12-.66.14-.87a5.94 5.94 0 0 0 0-1.08l1.45.1c-.09.3-.18.78-.23 1l-.14.7a20.57 20.57 0 0 0 2.13-.41zm-.37 4a4.24 4.24 0 0 0-.17 1c0 .54.29 1 1.8 1a13.51 13.51 0 0 0 2.37-.24v1.21a15.74 15.74 0 0 1-2.35.17c-1.93 0-2.93-.64-2.93-1.81a8.42 8.42 0 0 1 .18-1.49zm-.47-2.93a21.4 21.4 0 0 1 2.22-.12 20.35 20.35 0 0 1 2.07.11v1.14a17.64 17.64 0 0 0-2-.14 18.14 18.14 0 0 0-2.24.12z"/><path class="cls-2" d="M306.89 71.68h-10.2l-5.1 8.84 5.1 8.84h10.2l5.11-8.84-5.11-8.84z"/><path d="M298.71 78c0 .74 0 1.75.08 2.67.18 1.87.66 3.12 1.45 3.12.6 0 1.12-1.29 1.38-2.39l1 1.12c-.75 2-1.49 2.75-2.36 2.75-1.2 0-2.3-1.15-2.63-4.29a31.26 31.26 0 0 1-.13-3.17 6.22 6.22 0 0 0-.08-1.12h1.45a9.38 9.38 0 0 0-.16 1.31zm8.29 4.93l-1.23.48a12 12 0 0 0-2.08-6l1.19-.39a12.58 12.58 0 0 1 2.12 5.91z"/><path class="cls-2" d="M327.3 71.68h-10.2l-5.1 8.84 5.1 8.84h10.2l5.1-8.84-5.1-8.84z"/><path d="M320.27 75.83c-.06.43-.11.93-.14 1.35 0 1.32-.14 4.06-.14 5.71 0 1.25.79 1.68 1.81 1.68a4.85 4.85 0 0 0 4.2-2.44l.85 1a6 6 0 0 1-5.05 2.66c-1.81 0-3-.78-3-2.74 0-1.7.12-4.75.12-5.91a7 7 0 0 0-.13-1.36zm4.35 2.87l-.86.37a13.21 13.21 0 0 0-1.12-1.95l.84-.36a18.71 18.71 0 0 1 1.14 1.94zm1.62-.69l-.85.41a13.37 13.37 0 0 0-1.15-1.89l.82-.39a18.7 18.7 0 0 1 1.18 1.86z"/><path class="cls-2" d="M347.71 71.68h-10.2l-5.1 8.84 5.1 8.84h10.2l5.1-8.84-5.1-8.84z"/><path d="M343.72 77.69c0 .27.1.67.16 1.13a2.73 2.73 0 0 1 3 2.72 2.91 2.91 0 0 1-3.16 3.06 1.56 1.56 0 0 1-.3 0 4.09 4.09 0 0 1-1.42 1.52l-1-.6a3.61 3.61 0 0 0 1.29-1.25 3.11 3.11 0 0 1-1.45-1.46l.61-.88a2.73 2.73 0 0 0 1.27 1.36 7.34 7.34 0 0 0 .26-2.12V79.9a3.76 3.76 0 0 0-2.86 2.86 1.84 1.84 0 0 0-.05.53 7.21 7.21 0 0 0 .12 1l-1 .15a10.08 10.08 0 0 1-.33-2.59 26.8 26.8 0 0 1 .25-3.11 4.89 4.89 0 0 0 0-.53l1.24.1c-.07.17-.12.38-.17.53a13.71 13.71 0 0 0-.29 2.41 4.35 4.35 0 0 1 3-2.32c0-.24-.07-.44-.11-.61s-.11-.42-.17-.6zm2 3.87a1.66 1.66 0 0 0-1.72-1.74c0 .46.06 1 .06 1.44a8.84 8.84 0 0 1-.25 2.22 1.79 1.79 0 0 0 1.92-1.92z"/></g><path fill="none" opacity=".17" d="M0 0h353.54v116.22H0z" id="獅子王_司" data-name="獅子王 司"/></svg>