<svg xmlns="http://www.w3.org/2000/svg" viewBox="0 0 353 165"><defs><style>.cls-1{fill:#fff}</style></defs><g id="ヤコフ_ニキーチン" data-name="ヤコフ・ニキーチン"><path class="cls-1" d="M180.1 36.85a56 56 0 0 0 10.43-12.56c-1.89.3-8.42 1.64-15.74 3.11 2.75 10 5.74 20.92 7 25.25.42 1.35 1.52 4.7 2.13 6.29L173 61.5c-.37-1.83-.85-4.51-1.52-6.83-1.16-4-4-15.13-6.72-25.14-5.73 1.22-10.79 2.32-13.05 2.87l-2.56-9.94c2.5-.25 4.82-.49 7.32-.86.91-.18 3-.55 5.92-1-.68-2.44-1.22-4.52-1.71-6a27 27 0 0 0-2.2-5.8l10.8-2.44a50.6 50.6 0 0 0 1.28 5.86c.49 1.77 1.16 4 1.83 6.52 8.78-1.64 18.42-3.53 21.6-4.27a18 18 0 0 0 4.14-1.28l6.78 4.94c-2.81 6.35-10.19 17.33-15.25 23.25zm67.47 21.84l.06-3h-26.78c-2.32 0-6.17.19-8.36.43v-10.6c2.38.18 5.18.36 8 .36h27.15V22.7h-26.37c-2.74 0-6.16.12-8.05.25V12.7c2.44.24 5.86.42 8.05.42h31.11c2 0 4.89-.12 5.8-.18-.06 1.46-.18 4.15-.18 6.16v31.66c0 2.08.12 5.55.3 7.93zM317 16.23a30.1 30.1 0 0 0-1.58 4.88c-1.47 5.74-4 15-9.21 22.09-5.49 7.38-14.1 13.66-24.83 17.14l-8.05-8.84c12.26-2.75 19.15-8.12 24-14.1A34.29 34.29 0 0 0 304 21.66h-26.85c-3 0-6.35.19-7.93.31V11.54c1.89.24 5.92.55 7.93.55h26.9a24.33 24.33 0 0 0 5.61-.55zm17.37 8.91a8.54 8.54 0 1 1-8.54 8.54 8.56 8.56 0 0 1 8.54-8.54zM67.06 108.11c2.56.19 5.86.43 8.36.43h34.16a73.89 73.89 0 0 0 7.38-.43v11.29c-2.38-.24-5.49-.43-7.38-.43H75.42c-2.5 0-5.92.19-8.36.43zm5.06-29.64a71.27 71.27 0 0 0 7.81.42h24.77a60.37 60.37 0 0 0 7.2-.42V89.2c-1.83-.06-5-.24-7.2-.24H80c-2.45 0-5.68.12-7.88.24zm104.93 25.43c-1.83.13-4.64.61-7 1-2.68.43-7.19 1.16-12.2 2 .86 4.46 1.59 8.24 2 10.31.42 1.83 1 4.09 1.58 6.22l-10.61 1.84c-.31-2.38-.43-4.58-.79-6.41s-1-5.74-1.9-10.37c-5.79 1-11 1.89-13.54 2.38-2.74.49-5.06.91-6.47 1.28l-2.07-9.76c1.71-.06 4.76-.43 6.83-.73 2.69-.43 7.87-1.22 13.61-2.14L145 91.09c-5.06.8-9.45 1.53-11.1 1.83-2.2.43-3.91.86-6 1.41l-1.95-10.07c2.13-.12 4.08-.24 6-.49s6.34-.85 11.34-1.64l-1-5.07c-.43-1.83-.86-3.35-1.35-4.88l10.44-1.65c.18 1.22.36 3.48.67 5 .12.91.49 2.74.91 5.12 4.7-.73 8.85-1.46 10.8-1.83s4.76-1 6.47-1.46L172 87c-1.59.12-4.4.54-6.35.79l-11 1.77 1.59 8.36c5.06-.86 9.64-1.65 12.2-2.14 2.38-.49 4.94-1.1 6.71-1.59zm5.18-12.32c2.44.18 7.57.43 10.56.43h32.39c2.74 0 5.73-.31 7.5-.43v11.65c-1.58-.06-5-.36-7.5-.36h-32.39c-3.48 0-8.06.18-10.56.36zm103.77-.3c1.28 0 4.51-.25 5.91-.37v9.46c-1.83-.13-4-.25-5.73-.25h-15.07c-1.16 9.7-5.55 18.67-15.62 24.83l-9.49-6.34c9-4.09 13.72-10.37 15.19-18.49h-16c-1.83 0-4.21.12-5.86.25v-9.46c1.83.18 3.84.37 5.79.37h16.48V84c-5.68.42-11.66.67-15.5.73l-2.32-8.48c4.7.06 14.22.06 21-1 6.46-1 12.08-2.25 15.19-3.78l6 8.11c-2.5.61-4.33 1.1-5.43 1.35-2.87.73-6 1.34-9.21 1.83v8.48zm34.1 15.31c11-6.35 19.21-15.8 23.3-24.4l5.73 10.43c-4.88 8.66-13.54 17.14-23.73 23.12a65.05 65.05 0 0 1-21.84 8.05l-6.28-9.79a62.74 62.74 0 0 0 22.82-7.41zm2.07-20l-7.57 7.75A126 126 0 0 0 299.29 81l7-7.51c4.23 2.9 12.22 9.25 15.88 13.15zM306 150.39v8.14h-1.49v-.76h-6.81v.8h-1.46v-8.16h1.46v5.89h2.6v-8.47h1.49v8.47h2.72v-5.91zm8.71.88a10.5 10.5 0 0 0 4.19 4.36 6 6 0 0 0-1.11 1.29 10.05 10.05 0 0 1-2-1.6v1.36h-2v2h-1.5v-2h-2.07v-1.26a10.41 10.41 0 0 1-1.87 1.54 6.94 6.94 0 0 0-1-1.19 10.68 10.68 0 0 0 4.13-4.5h-3.66v-1.44h4.51v-2.31h1.5v2.31h4.54v1.44zm-2.36 4v-2.61a13.94 13.94 0 0 1-1.89 2.61zm3.4 0a13.46 13.46 0 0 1-1.9-2.64v2.64zm11.98.42a8.72 8.72 0 0 0 2.95 1.66 5.6 5.6 0 0 0-.95 1.16 9 9 0 0 1-2.8-2v2.17h-1.37v-3h-1.09v3h-1.37v-2a8.74 8.74 0 0 1-2.65 1.88 5.49 5.49 0 0 0-.91-1.08 8.17 8.17 0 0 0 2.79-1.76h-1.6v-1.08h2.37v-.72h-3.39v-1.22h3.39v-.7h-2.25v-1h2.25v-.7h-3.2v-1.18h2.38a7.6 7.6 0 0 0-.94-1l1.3-.6a6.38 6.38 0 0 1 1.36 1.38l-.41.19h2.79a10.49 10.49 0 0 0 1.16-1.61l1.46.52c-.32.41-.64.78-1 1.13h2.28v1.18h-3.4v.7h2.45v1.73h1.18v1.19h-1.18v1.8zm-3.26-4.69h1.09v-.7h-1.09zm0 1.73h1.09V152h-1.09zm1.09 1.91v-.72h-1.09v.72zm1.37-2.57v.66H328V152zm1.06 1.85h-1.06v.72H328zm14.57.83h-4.71v4h-1.49v-4h-4.67v-1.45h4.67v-3.63h-4v-1.42h9.54v1.42h-4v3.63h4.71zm-8.2-4.7a11.76 11.76 0 0 1 1 2.45l-1.4.43a11.71 11.71 0 0 0-.87-2.5zm4.45 2.5a14.88 14.88 0 0 0 1-2.54l1.52.39a22.43 22.43 0 0 1-1.32 2.5z"/><path fill="none" stroke="#fff" stroke-miterlimit="10" stroke-width="2" stroke-dasharray="2 4" d="M289.47 154.21h-50.16"/><path class="cls-1" d="M122.08 156.44a3.3 3.3 0 0 0 2.7-1.33v2a3.83 3.83 0 0 1-2.7.93 4.56 4.56 0 1 1 0-9.12 3.87 3.87 0 0 1 2.7.92v2a3.31 3.31 0 0 0-2.7-1.34 3 3 0 0 0 0 5.95zm5.92-7.17v3.24h4v-3.24h1.68v8.4H132V154h-4v3.66h-1.68v-8.4zm15.32 8.4h-1.8l-1-2h-3.48l-1 2h-1.8l4.5-9zm-5.57-3.48h2.14l-1.07-2.27zm9.47-4.92c1.86 0 3 1 3 2.7a2.5 2.5 0 0 1-1.8 2.52l2.18 3.18h-2l-2-3h-.6v3h-1.68v-8.4zm-1.26 3.9h1.26c.83 0 1.36-.41 1.36-1.2s-.53-1.2-1.36-1.2H146zm14.46 4.5h-1.8l-1-2h-3.48l-1 2h-1.8l4.5-9zm-5.57-3.48H157l-1.07-2.27zm10.15 2.25a3.3 3.3 0 0 0 2.7-1.33v2a3.83 3.83 0 0 1-2.7.93 4.56 4.56 0 1 1 0-9.12 3.87 3.87 0 0 1 2.7.92v2a3.31 3.31 0 0 0-2.7-1.34 3 3 0 0 0 0 5.95zm4.24-7.17h6v1.5h-2.16v6.9h-1.68v-6.9h-2.16zm9.24 6.9h3.78v1.5h-5.46v-8.4h5.46v1.5h-3.78v1.86H182v1.44h-3.54zm8.22-6.9c1.86 0 3 1 3 2.7a2.5 2.5 0 0 1-1.8 2.52l2.18 3.18h-2l-2-3h-.65v3h-1.68v-8.4zm-1.26 3.9h1.26c.83 0 1.36-.41 1.36-1.2s-.53-1.2-1.36-1.2h-1.26zm15.18-3.9h1.8l-4.5 9-4.5-9h1.8l2.7 5.75zm6.6-.36a4.56 4.56 0 1 1-4.68 4.56 4.52 4.52 0 0 1 4.68-4.56zm0 7.58a2.88 2.88 0 0 0 3-3 2.84 2.84 0 0 0-3-3 3 3 0 0 0 0 6zm7.68-7.22v8.4h-1.68v-8.4zm6.18 7.17a3.3 3.3 0 0 0 2.7-1.33v2a3.83 3.83 0 0 1-2.7.93 4.56 4.56 0 1 1 0-9.12 3.87 3.87 0 0 1 2.7.92v2a3.31 3.31 0 0 0-2.7-1.34 3 3 0 0 0 0 5.95zm6.12-.27h3.8v1.5h-5.46v-8.4H231v1.5h-3.8v1.86h3.54v1.44h-3.54z"/></g></svg>