<svg version="1.1" id="レイヤー_1" xmlns="http://www.w3.org/2000/svg" x="0" y="0" viewBox="0 0 353 160" xml:space="preserve"><style>.st0{fill:#fff}</style><g id="シャミール_ヴォルコフ"><path class="st0" d="M58.2 27.3l-5.4 8.3c-3.7-2.6-9.9-6.6-14.2-8.9l5.4-8.2c4.8 2.7 9.6 5.7 14.2 8.8zm3.6 13.6c10.5-5.8 19.3-14.4 24.1-23.2l5.7 10.1C85.7 36.4 77 44 66.9 49.8c-6.2 3.5-15.2 6.7-20.4 7.5l-5.6-9.8c7.3-.9 14.4-3.2 20.9-6.6zm5.9-27.6l-5.5 8.2c-3.7-2.5-9.9-6.4-14.2-8.8l5.4-8.2c4.3 2.3 10.8 6.4 14.3 8.8zm55.7 26.5c3.1-3 5.9-6.4 8.2-10.1-1.4.2-6.2 1.2-11.7 2.4 2.3 8.2 4.6 16.9 5.7 20.3.3 1 1.3 4.2 1.8 5.5l-10 2.4c-.3-2-.7-3.9-1.2-5.9-1-3.5-3.2-12.4-5.4-20.4-4.7 1-8.8 2-10.8 2.4l-2.2-8.8c2-.2 3.8-.4 5.9-.7.8-.1 2.6-.4 5-.9-.5-2-1-3.7-1.4-5-.5-1.6-1.1-3.2-1.9-4.7l9.9-2.3c.2 1.6.7 3.4 1 5l1.5 5.3c7.2-1.4 14.8-2.8 17.3-3.4 1.2-.2 2.4-.6 3.5-1.1l6 4.2c-2.6 5.4-8.7 15-13 19.8l-8.2-4zm70.1 8.2l-4.1 9.3c-8.3-3.3-28.2-7.6-38-9l3.7-9.3c10.6 1.5 29.9 6 38.4 9zm-2.9-19l-3.6 9.3c-7-2.6-23-6.3-32.3-7.8l3.4-9c8.9 1.5 24.9 5 32.5 7.5zm4.3-16.8l-3.8 9.2c-6.9-2.6-24.9-6.6-33.7-7.8l3.4-8.8c8.2 1.1 26.4 4.8 34.1 7.4zm10 12.1c2.4.2 7.6.4 10.6.4h32.4c2.8 0 5.7-.3 7.5-.4V36c-1.6-.1-5-.4-7.5-.4h-32.4c-3.5 0-8 .2-10.6.4V24.3zM260.3 51c4.9-3.6 8.5-8.6 10.2-14.4 1.7-5 1.8-16.2 1.8-23.9.1-2.1-.2-4.2-.7-6.3h10.9c-.3 2-.5 4.1-.5 6.2 0 7.5-.2 20.2-1.8 26.4-1.8 6.9-5.6 13.2-10.9 18l-9-6zm28.4 1.2c.4-1.7.6-3.4.5-5.1v-35c0-1.9-.2-3.8-.5-5.7h11c-.3 1.9-.5 3.8-.5 5.7v30c4.6-1.9 9.8-6.3 13.5-11.6l5.7 8.2c-5 6.3-13.9 13.1-20.6 16.5-1 .6-2 1.2-2.9 2l-6.2-5zm45.7-30.3c4.7 0 8.5 3.8 8.5 8.5s-3.8 8.5-8.5 8.5-8.5-3.8-8.5-8.5c-.1-4.7 3.8-8.5 8.5-8.5zM110.2 78.3c1.9.1 3.8-.2 5.6-.7l6.4 3.9c-.6 1.8-1 3.6-1.3 5.5-1 5.8-2.8 11.5-5.6 16.7-5 9.6-14.7 16.2-25.3 18.9l-7.7-8.9c3.4-.6 6.8-1.6 10-2.8 4.9-2 9.1-5.2 12.3-9.3 2.9-4.1 4.3-9 5.2-14.5H81.6v7.8c0 1.7.1 3.3.2 5H71.7c.2-1.8.3-3.9.3-5.8V83.6c0-1.9-.1-3.7-.3-5.6 2.2.2 4.3.3 6.5.3H91v-4.1c0-2.1-.2-4.2-.6-6.2h11.4c-.3 2.1-.5 4.1-.5 6.2v4.1h8.9zm2.9-.8c-1.4-2.9-3-5.7-4.7-8.5l5.7-2.3c1.5 2.2 3.7 6.2 4.8 8.3l-5.8 2.5zm8.1-2.5c-1.4-2.9-3-5.7-4.8-8.4l5.7-2.3c1.8 2.7 3.4 5.4 4.8 8.3l-5.7 2.4zM169 87.9c1.8 0 3.7-.2 5.5-.4v8.9c-1.6-.1-3.7-.1-5.1-.1H163c.2 7 .4 14.4.5 20.9.1 3.5-2.6 6-6.7 6-3.2 0-6.9-.1-9.8-.3l-.5-8.4c2.2.3 4.5.4 6.7.5 1.2 0 1.6-.6 1.6-2 0-2.5 0-5.7-.1-9.3-5.4 6.1-11.8 11.1-18.9 15l-6.4-7.4c8.3-3.7 16.4-9.9 20.6-15.1h-11.1c-1.8 0-4.4.1-6.3.2v-9c2 .3 4.1.4 6.1.4h15.6l-.1-3c-.1-1.9-.3-3.8-.6-5.6h9.5c-.2 1.9-.3 3.7-.3 5.6l.1 3 6.1.1zm8.5 27.1c4.9-3.6 8.5-8.6 10.2-14.4 1.7-5 1.8-16.2 1.8-23.8.1-2.1-.2-4.2-.7-6.3h10.9c-.3 2-.5 4.1-.5 6.2 0 7.5-.2 20.2-1.8 26.4-1.8 6.9-5.6 13.2-10.9 17.9l-9-6zm28.4 1.2c.4-1.7.6-3.4.6-5.1v-35c0-1.9-.2-3.8-.6-5.7h11c-.3 1.9-.5 3.8-.5 5.7v30c4.6-1.9 9.8-6.3 13.6-11.7l5.7 8.2c-5 6.3-13.9 13.1-20.6 16.5-1 .6-2 1.2-2.9 2l-6.3-4.9zm72.2 3.3l.1-3h-26.8c-2.3 0-6.2.2-8.4.4v-10.6c2.4.2 5.2.4 8 .4h27.2V83.5h-26.4c-2.7 0-6.2.1-8.1.2V73.5c2.4.2 5.9.4 8.1.4h31.1c2 0 4.9-.1 5.8-.2-.1 1.5-.2 4.2-.2 6.2v31.7c0 2.1.1 5.6.3 7.9h-10.7zM347.5 77c-.7 1.6-1.2 3.2-1.6 4.9-1.5 5.7-4 15-9.2 22.1-5.5 7.4-14.1 13.7-24.8 17.1l-8-8.8c12.3-2.8 19.1-8.1 24-14.1 3.5-4.6 5.8-10 6.7-15.7h-26.9c-3 0-6.4.2-7.9.3V72.3c1.9.2 5.9.6 7.9.6h26.9c1.9 0 3.8-.1 5.6-.6l7.3 4.7zm-73.6 74.9c.5.3 1.4.9 1.6 1l-.8 1.1-.8-.8v2.2h-1.3V153c-.4.7-1 1.4-1.7 1.9-.2-.5-.4-.9-.6-1.3.7-.5 1.3-1.1 1.8-1.9h-1.5v-1.2h2v-1.3h1.3v1.3h1.5v1.2h-1.5v.2zm1.3-4.8c-1 1.1-2.3 2-3.7 2.5-.2-.4-.5-.8-.9-1.1 1.2-.4 2.3-1 3.2-1.8h-2.7v-1.3h4v-1.2h1.4v1.2h4.2v1.3h-2.9c1 .8 2.2 1.4 3.4 1.7-.4.3-.7.7-.9 1.2-1.5-.5-2.8-1.4-3.8-2.5v2.5h-1.4l.1-2.5zm4.5 4.7c.5.8 1.2 1.5 2 2.1-.4.3-.7.7-1 1.1-.7-.6-1.2-1.4-1.7-2.2v2.7h-1.3v-2.7c-.5.9-1.2 1.6-2 2.2-.3-.4-.5-.7-.9-1 .9-.5 1.6-1.3 2.1-2.2h-1.2v-1.2h1.9v-1.3h1.3v1.3h2.4v1.2h-1.6zm10.8-5.3c-.3 1.1-.7 2.2-1.1 3.2.8 2 2.3 3.6 4.3 4.5-.4.4-.7.8-1 1.3-1.8-.9-3.2-2.4-4.1-4.2-1.2 1.9-3 3.4-5 4.3-.3-.5-.7-.9-1.1-1.3 3-1.2 5.3-3.6 6.2-6.7h-2.5c-.6 1.3-1.5 2.4-2.6 3.4-.4-.4-.8-.7-1.3-1.1 1.7-1.4 2.9-3.4 3.5-5.5l1.6.4c-.2.5-.3 1-.5 1.4h2.4l.3-.1.9.4zm7.8-1.8c-.3.8-.7 1.6-1.1 2.4v8.4h-1.4v-6.3c-.3.4-.6.7-.9 1.1-.2-.5-.5-1-.8-1.5 1.3-1.3 2.2-2.8 2.8-4.5l1.4.4zm4.8 6.6c.7 1.1 1.7 1.9 2.8 2.6-.4.3-.7.7-1 1.1-1-.7-1.8-1.6-2.4-2.7v3.1h-1.4v-3c-.7 1-1.6 1.9-2.6 2.6-.3-.4-.6-.8-1-1.1 1.1-.6 2.1-1.5 2.9-2.6h-2.5V150h3.1v-1.1h-2.4v-4.1h6.3v4.1h-2.5v1.1h3.1v1.3h-2.4zm-3.2-3.6h3.5V146h-3.5v1.7zm10.6 4.2c-.3-.4-.6-.8-1-1.2v4.8h-1.4v-4.1c-.4.4-.9.8-1.3 1.1-.2-.5-.4-.9-.6-1.4 1.3-.8 2.4-2 3.1-3.4h-2.7v-1.3h1.5v-2.2h1.4v2.2h.5l.2-.1.8.5c-.3.8-.7 1.6-1.2 2.4.5.4 1.3 1.2 1.5 1.4l-.8 1.3zm7 .9h-2.6v2.7h-1.4v-2.7h-2.6v-1.3h2.6v-1.2h-2V149h2v-1h-2.3v-1.3h1.2c-.2-.7-.5-1.4-.9-2l1.2-.4c.4.6.8 1.3 1 2.1l-.8.4h2.6l-.7-.3c.4-.7.7-1.4.9-2.2l1.4.5c-.4.7-.8 1.4-1.1 1.9h1.4v1.3H315v1.1h2.1v1.3H315v1.2h2.6v1.2zm7.7-4.1c.6 2.4 2.3 4.3 4.5 5.4-.4.4-.8.8-1.1 1.3-2.2-1.2-3.9-3.3-4.6-5.7-.3 1.1-.7 2.1-1.4 3l1-.7c.8.7 1.6 1.4 2.2 2.2l-1.3 1c-.6-.8-1.3-1.6-2.1-2.3-.8 1.1-1.9 1.9-3.1 2.5-.3-.5-.6-.9-1.1-1.2 2.3-.9 4-3 4.4-5.5h-4v-1.5h4.2c.1-1 .1-2.1.1-3h1.5c0 .9 0 1.9-.1 3h4.9v1.5h-4zm9.5 2.4c.7 1 1.3 2 1.8 3.2l-1.3.6c-.1-.3-.2-.7-.4-1l-4.1 1-.3-1.5.8-.1v-7.7h1.8v-1.3h1.4v1.3h1.7v5.4h-3.5v2l1.7-.4c-.2-.4-.4-.7-.6-1.1l1-.4zm-2.3-4.1v.8h2.2v-.8h-2.2zm2.2 2.7v-.8h-2.2v.8h2.2zm7-4.1c-.5 1.2-1 2.5-1.5 3.5.8.7 1.3 1.7 1.3 2.8.1.7-.2 1.4-.7 1.8-.3.2-.6.3-.9.3h-1c0-.5-.2-1-.4-1.5h.8c.2 0 .4 0 .5-.1.2-.1.3-.4.3-.8-.1-1-.6-1.9-1.4-2.4.4-.8.8-2 1.1-3H338v9.1h-1.4V145h3.6l.2-.1 1.2.7z"/><path fill="none" stroke="#fff" stroke-width="2" stroke-miterlimit="10" stroke-dasharray="2,4" d="M265.3 151h-30.2"/><path class="st0" d="M122.1 153.2c1.1 0 2.1-.5 2.7-1.3v2c-.7.6-1.7 1-2.7.9-2.5 0-4.6-2-4.6-4.6 0-2.5 2-4.6 4.6-4.6 1 0 2 .3 2.7.9v2c-.6-.9-1.6-1.3-2.7-1.3-1.6.2-2.8 1.8-2.5 3.4.1 1.4 1.2 2.4 2.5 2.6zm5.9-7.2v3.2h4V146h1.7v8.4H132v-3.7h-4v3.7h-1.7V146h1.7zm15.3 8.4h-1.8l-1-2H137l-1 2h-1.8l4.5-9 4.6 9zm-5.5-3.4h2.1l-1.1-2.3-1 2.3zm9.4-5c1.9 0 3 1 3 2.7.1 1.2-.7 2.2-1.8 2.5l2.2 3.2h-2l-2-3h-.6v3h-1.7V146h2.9zm-1.2 3.9h1.3c.8 0 1.4-.4 1.4-1.2s-.5-1.2-1.4-1.2H146v2.4zm14.4 4.5h-1.8l-1-2h-3.5l-1 2h-1.8l4.5-9 4.6 9zm-5.5-3.4h2.1l-1.1-2.3-1 2.3zm10.1 2.2c1.1 0 2.1-.5 2.7-1.3v2c-.7.6-1.7 1-2.7.9-2.5 0-4.6-2-4.6-4.6s2-4.6 4.6-4.6c1 0 2 .3 2.7.9v2c-.6-.9-1.6-1.3-2.7-1.3-1.6.2-2.8 1.8-2.5 3.4.1 1.4 1.2 2.4 2.5 2.6zm4.2-7.2h6v1.5H173v6.9h-1.7v-6.9h-2.2l.1-1.5zm9.3 6.9h3.8v1.5h-5.5V146h5.5v1.5h-3.8v1.9h3.5v1.4h-3.5v2.1zm8.2-6.9c1.9 0 3 1 3 2.7.1 1.2-.7 2.2-1.8 2.5l2.2 3.2h-2l-2-3h-.6v3h-1.7V146h2.9zm-1.3 3.9h1.3c.8 0 1.4-.4 1.4-1.2s-.5-1.2-1.4-1.2h-1.3v2.4zm15.2-3.9h1.8l-4.5 9-4.5-9h1.8l2.7 5.8 2.7-5.8zm6.6-.3c2.5.1 4.5 2.2 4.4 4.7-.1 2.5-2.2 4.5-4.7 4.4-2.5-.1-4.4-2.1-4.4-4.6 0-2.5 2-4.5 4.5-4.6.1.1.2.1.2.1zm0 7.5c1.7 0 3-1.3 3-3s-1.3-3-3-3-3 1.3-3 3c-.1 1.6 1.2 2.9 2.7 3 .1.1.2.1.3 0zm7.7-7.2v8.4h-1.7V146h1.7zm6.2 7.2c1.1 0 2.1-.5 2.7-1.3v2c-.7.6-1.7 1-2.7.9-2.5 0-4.6-2-4.6-4.6s2-4.6 4.6-4.6c1 0 2 .3 2.7.9v2c-.6-.9-1.6-1.3-2.7-1.3-1.6.2-2.8 1.8-2.5 3.4.1 1.4 1.2 2.4 2.5 2.6zm6.1-.3h3.8v1.5h-5.5V146h5.5v1.5h-3.8v1.9h3.5v1.4h-3.5v2.1z"/></g></svg>