<svg xmlns="http://www.w3.org/2000/svg" viewBox="0 0 353 116"><defs><style>.cls-4{fill:#f6821e}</style></defs><path opacity=".65" fill="none" stroke="#fff" stroke-miterlimit="10" stroke-width="2" d="M361.99 1314.83V-106.1H-44.27" id="contents"/><g id="石神_百夜" data-name="石神 百夜"><path d="M232 17.11c-.75 2.77-1.51 5.46-2.26 7.9h26v55.85h-13.11V76h-34.27v4.87h-12.43V25h20.58c.42-2.52.84-5.21 1.17-7.9H188.2V5.18h74.51v11.93zm10.67 19.15h-34.31v8.65h34.27zm0 28.48v-8.82h-34.31v8.82zm105.05-35.2c-3.2 13-8.57 23.69-15.63 32A63.16 63.16 0 0 0 352 70.11 52.41 52.41 0 0 0 343.85 81a63.58 63.58 0 0 1-20.41-11 67 67 0 0 1-19.57 11 41.34 41.34 0 0 0-7.65-10.16 62.56 62.56 0 0 0 18.65-9.24 70.84 70.84 0 0 1-7.39-10.84 55.86 55.86 0 0 1-4.2 3.7 68.19 68.19 0 0 0-7.73-7.9V81h-12.26V51.72a57.48 57.48 0 0 1-4.62 4.53 78.54 78.54 0 0 0-8.91-9.57c8-6.13 15.46-16 19.91-26.29h-16.29V8.88h30.83V1.15h12.93v7.73h31.92v11.51h-29.4l6.55 1.76c-.59 1.43-1.26 2.86-1.93 4.28h13.61l2-.42zm-52.17 16c7.9-6.13 14.53-16.38 17.89-25.11h-18.73l7.48 2.26a101.8 101.8 0 0 1-6.64 12.69zm23.35-9.32c-1.34 2.18-2.77 4.2-4.28 6.21a50.42 50.42 0 0 0 8.57 11.76 48.63 48.63 0 0 0 7-10.24L322.85 50a39.8 39.8 0 0 0-6.85-7.44l7.14-5.71a40.32 40.32 0 0 1 7.23 6.8 53.6 53.6 0 0 0 3.19-7.47zM126 112.55a3.31 3.31 0 0 0 2.7-1.33v2a3.85 3.85 0 0 1-2.7.92 4.56 4.56 0 1 1 0-9.11 3.81 3.81 0 0 1 2.7.92v2a3.31 3.31 0 0 0-2.7-1.33 3 3 0 0 0 0 6zm5.92-7.17v3.23h4v-3.23h1.68v8.39h-1.68v-3.66h-4v3.66h-1.68v-8.39zm15.35 8.39h-1.8l-1-2H141l-1 2h-1.8l4.49-9zm-5.56-3.48h2.13l-1.07-2.29zm9.46-4.91c1.86 0 3 1 3 2.69a2.49 2.49 0 0 1-1.8 2.52l2.18 3.18h-2l-2.05-3h-.64v3h-1.68v-8.39zm-1.25 3.89h1.25c.83 0 1.36-.4 1.36-1.2s-.53-1.19-1.36-1.19h-1.25zm14.45 4.5h-1.8l-1-2h-3.47l-1 2h-1.8l4.49-9zm-5.56-3.48h2.13l-1.07-2.29zm10.19 2.26a3.33 3.33 0 0 0 2.7-1.33v2a3.85 3.85 0 0 1-2.7.92 4.56 4.56 0 1 1 0-9.11 3.81 3.81 0 0 1 2.7.92v2a3.33 3.33 0 0 0-2.7-1.33 3 3 0 0 0 0 6zm4.2-7.17h6v1.5H177v6.89h-1.67v-6.89h-2.13zm9.24 6.89h3.77v1.5h-5.45v-8.39h5.45v1.5h-3.77v1.85H186v1.44h-3.53zm8.21-6.89c1.86 0 3 1 3 2.69a2.49 2.49 0 0 1-1.8 2.52l2.18 3.18h-2l-2.05-3h-.64v3h-1.68v-8.39zm-1.25 3.89h1.25c.83 0 1.36-.4 1.36-1.2s-.53-1.19-1.36-1.19h-1.25zm15.17-3.89h1.8l-4.5 9-4.49-9h1.8l2.69 5.74zm6.6-.38a4.56 4.56 0 1 1-4.67 4.55 4.52 4.52 0 0 1 4.67-4.55zm0 7.58a2.89 2.89 0 0 0 3-3 2.85 2.85 0 0 0-3-3 3 3 0 0 0 0 6zm7.68-7.2v8.39h-1.67v-8.39zm6.15 7.17a3.33 3.33 0 0 0 2.7-1.33v2a3.85 3.85 0 0 1-2.7.92 4.56 4.56 0 1 1 0-9.11 3.81 3.81 0 0 1 2.7.92v2a3.33 3.33 0 0 0-2.7-1.33 3 3 0 0 0 0 6zm6.15-.28h3.78v1.5h-5.45v-8.39h5.45v1.5h-3.78v1.85h3.54v1.44h-3.54zm77.13-2.27a3.73 3.73 0 0 0 1.36.81 4.63 4.63 0 0 0-.74 1 5.07 5.07 0 0 1-.65-.35 8.57 8.57 0 0 1-.8.8l-.82-.4c.25-.29.6-.77.81-1.08a4.25 4.25 0 0 1-.6-.78H305a6.47 6.47 0 0 1-.76.9 3.18 3.18 0 0 1 .7.94l-.93.54a3.45 3.45 0 0 0-.55-.85 6.36 6.36 0 0 1-.58.35 5.9 5.9 0 0 0-.58-.74v2.42c0 .55-.09.86-.41 1.06a3 3 0 0 1-1.43.21 4 4 0 0 0-.33-1.13h.81c.11 0 .16-.05.16-.17v-1.88h-1a8.26 8.26 0 0 1-.89 3.22 4.42 4.42 0 0 0-1-.62 9.44 9.44 0 0 0 .83-4.56v-3.26h3.25v4.4a4.63 4.63 0 0 0 1.2-.85h-.94v-1h1.68a4.68 4.68 0 0 0 .3-.64h-1.73v-.93h.6a3.64 3.64 0 0 0-.37-.89l1-.3a3.35 3.35 0 0 1 .5 1.13l-.2.06h.53a9.28 9.28 0 0 0 .22-1.25l1.19.1c-.06.4-.14.79-.22 1.15h.83c.14-.35.34-.87.44-1.23l1.19.3c-.19.34-.37.66-.53.93h1v.93h-1.72c.09.22.18.43.29.64h1.8v1zm-7.12-4.5h-2.62v-1.15h2.62v-.7h1.42v.7h2.55v-.7h1.43v.7h2.66v1.15h-2.66v.67h-1.43v-.67h-2.55v.72h-1.42zm-.09 5.1v-1h-.9v1.02zm-.9-3v.95h.9v-.95zm4.92 5.67c-.72.39-1.49.78-2.15 1.12l-.53-1c.64-.22 1.54-.6 2.44-1zm1.7-1a15.69 15.69 0 0 1 2.36 1.45l-.8.79a15.84 15.84 0 0 0-2-1.33v.59c0 .53-.08.78-.43 1a3.57 3.57 0 0 1-1.43.16 4.79 4.79 0 0 0-.31-1h.82c.12 0 .15 0 .15-.15v-3.35h1.19v2.26zm-.43-3.19c-.09-.21-.16-.42-.23-.64h-.38c-.08.22-.16.43-.26.64zm11.22 1.69v2.65c0 .65-.12 1-.58 1.19a5.1 5.1 0 0 1-1.92.2 4.88 4.88 0 0 0-.39-1.25h1.27c.17 0 .23 0 .23-.18v-2.62h-2.75v-4.51h2.39c0-.28.09-.57.1-.82h-3.28v2.25c0 2-.17 5.12-1.22 7.1a5.54 5.54 0 0 0-1.26-.71c1-1.83 1.08-4.52 1.08-6.39v-3.55h10v1.3h-3.59l-.25.81h3v4.51zm-2 .77a8.94 8.94 0 0 1-2.31 2.75 9.27 9.27 0 0 0-1.18-.84 6.18 6.18 0 0 0 2.11-2.29zm-.72-3.53h4.08v-.68h-4.08zm0 1.7h4.08V109h-4.08zm4.41 1.39a13.28 13.28 0 0 1 2.22 2.34l-1.17.76a13.09 13.09 0 0 0-2.14-2.42zm13.45-5.1a6.83 6.83 0 0 1-1.19 2.16 7 7 0 0 0 2.14 1.19 5.16 5.16 0 0 0-.89 1.13 7.39 7.39 0 0 1-2.2-1.43 8.06 8.06 0 0 1-2.15 1.17 6.17 6.17 0 0 0-.83-1.13 6.65 6.65 0 0 0 2.11-1A8.82 8.82 0 0 1 329 107a5.56 5.56 0 0 1-.65.83 7.12 7.12 0 0 0-.78-.74V109h-3.38a5 5 0 0 1-1 2.4 5.15 5.15 0 0 0-1.07-.84 5.22 5.22 0 0 0 .88-3.29v-1.47h4.55v.89a7.52 7.52 0 0 0 1.54-3.08l1.28.27c-.09.32-.19.63-.31.94h3.26V106zm-4.79-.81h-5.43V104h5.43zm-3.7 5h7.41v4.58h-1.51v-.42h-4.46v.45h-1.44zm2-3.31h-1.92v.97h1.93zm-.56 4.57v1.66h4.46v-1.66zm4.12-5.48a6.68 6.68 0 0 0 .82 1.22 5.33 5.33 0 0 0 .68-1.22zm6.73 3.26a9.26 9.26 0 0 0-2.27-1.26l.78-1.09a9.91 9.91 0 0 1 2.33 1.13zm-1.87 4.48a36.05 36.05 0 0 0 2.24-3.78l1.05.95c-.61 1.25-1.35 2.62-2.06 3.78zm2.55-7.71a9 9 0 0 0-2.23-1.31l.78-1.09a9.53 9.53 0 0 1 2.3 1.21zm.29 1.54h1.16a26.24 26.24 0 0 0 1.42-3.94l1.64.35c-.46 1.17-1 2.46-1.54 3.51.89 0 1.84-.1 2.79-.16-.33-.47-.67-.94-1-1.35l1.25-.63a16.64 16.64 0 0 1 2.37 3.5l-1.32.74a10.85 10.85 0 0 0-.48-1c-2.2.17-4.48.32-6.11.44zm1 2.23h6v5H343v-.45h-3.18v.49h-1.38zm1.38 1.32V113H343v-1.89z" fill="#fff"/><path stroke-dasharray="2 4" fill="none" stroke="#fff" stroke-miterlimit="10" stroke-width="2" d="M292.24 110.32h-50.16"/><path class="cls-4" d="M283.93 71.61h-10.2l-5.1 8.83 5.1 8.84h10.2l5.11-8.84-5.11-8.83z"/><path class="cls-4" d="M304.34 71.61h-10.2l-5.1 8.83 5.1 8.84h10.2l5.1-8.84-5.1-8.83zm20.41 0h-10.2l-5.11 8.83 5.11 8.84h10.2l5.1-8.84-5.1-8.83zm20.41 0h-10.2l-5.11 8.83 5.11 8.84h10.2l5.1-8.84-5.1-8.83z"/><path d="M281.63 76.28a9.78 9.78 0 0 0 2.54 4.91l-.89.93a14.36 14.36 0 0 1-1.28-1.93c.18 2.88-1.09 5.66-4.17 5.66a3 3 0 0 1-3.19-3.2 7.63 7.63 0 0 1 2-4.83c-.53.08-1.32.2-1.77.3-.22 0-.41.08-.68.14L274 77h.64a22.18 22.18 0 0 0 3.91-.68l.36 1.06a4.77 4.77 0 0 0-.62.23 7.42 7.42 0 0 0-2.51 4.89 1.92 1.92 0 0 0 2.05 2.11c2.4 0 3.77-2.81 2.88-7.18-.09-.25-.19-.5-.27-.78zm1.11 1.26a14.16 14.16 0 0 0-.75-1.72l.73-.24c.24.48.59 1.21.77 1.7zm1.29-.45a12.27 12.27 0 0 0-.77-1.72l.71-.25c.26.47.6 1.2.81 1.7zM297 78.24c.1.2.23.44.31.61s.33.64.53 1a10.79 10.79 0 0 1 3.46-1 2.08 2.08 0 0 1 2.37 2c0 1.33-.77 2.19-2.46 2.19a4.48 4.48 0 0 1-1.49-.29v-1.09a3.67 3.67 0 0 0 1.38.33c1 0 1.39-.52 1.39-1.14 0-.46-.36-1-1.27-1a8.92 8.92 0 0 0-3 .9l.36.8c.49 1.13 1.12 3 1.45 4.07l-1.19.3a31 31 0 0 0-1.31-3.91c-.11-.26-.23-.52-.33-.78-.82.38-1.5.74-1.87.91l-.56-1.15c.4-.1.77-.23.94-.29l1-.43c-.18-.37-.35-.69-.48-.91a5.18 5.18 0 0 0-.51-.74zm2.66.84a8.85 8.85 0 0 0-1.34-1.08l.84-.62a8.84 8.84 0 0 1 1.29 1.12zm22.79-2.75c-.3.23-.67.55-.91.73-.8.67-2.44 2-3.28 2.68-.68.58-.68.74 0 1.34 1 .83 3.23 2.64 4.4 3.79l-1.08 1c-.29-.34-.63-.66-.91-1-.65-.69-2.57-2.31-3.66-3.23s-1-1.55.08-2.49c.91-.76 2.64-2.13 3.44-2.93a6.52 6.52 0 0 0 .78-.89zm14.55 0c.09.2.32.64.44.85.2.37.42.81.64 1.26a11.67 11.67 0 0 1 4.18-1.25c1.73 0 2.78 1 2.78 2.37 0 1.48-1 2.53-2.83 2.53a5.28 5.28 0 0 1-1.79-.34v-1.17a4.3 4.3 0 0 0 1.66.39c1.12 0 1.7-.62 1.7-1.46 0-.67-.53-1.24-1.58-1.24a10.28 10.28 0 0 0-3.7 1.14l.4.88c.61 1.39 1.43 3.74 1.83 5.07l-1.3.33a35.89 35.89 0 0 0-1.61-4.9l-.38-.87c-.89.44-1.68.85-2.21 1.09l-.57-1.21a9.63 9.63 0 0 0 1.07-.35l1.25-.54c-.22-.44-.42-.84-.61-1.18a8.38 8.38 0 0 0-.63-.92zm3.36 1a18.35 18.35 0 0 0-1.55-1.39l.86-.61a16.47 16.47 0 0 1 1.56 1.34z"/></g></svg>