<svg xmlns="http://www.w3.org/2000/svg" viewBox="0 0 353.5 116.2"><path fill="none" d="M0 0h353.5v116.2H0z"/><path d="M195.5 14.4c-1.3 2-2.5 4-3.5 6.1-3.5 7.8-7.7 15.2-12.7 22.2 8.2 7.2 15.8 15.1 22.9 23.4l-11.7 10.2c-6-8.3-12.7-16-20.1-23-8.8 9.2-19.8 17.6-30.8 22.9l-10.6-11c13.6-5 26.9-15.3 34.4-23.6 5.5-6.2 10-13.6 11.8-19H149c-3.8 0-8.4.5-10.8.7V8.8c3.6.4 7.2.6 10.8.7h28.1c3.4.1 6.8-.4 10.1-1.3l8.3 6.2zm62 49.5c0 4 .2 9.8.8 12.2h-16.1c.4-4 .7-8.1.7-12.2V38.7c-8.8 4.4-18 7.9-27.5 10.6L208.2 37c13.6-2.8 26.7-7.9 38.6-15.1 8.5-5.3 17.1-12.8 21.9-19.2l10.9 9.8c-6.7 6.7-14.1 12.7-22.1 18v33.4zm95-42c-.3 1.5-.5 3.1-.6 4.6-.3 9.7-1.4 32.6-5 41.4-1.9 4.6-5.4 7.2-11.8 7.2-5.2 0-10.2-.4-14.2-.8l-1.6-13.6c3.8.8 7.6 1.2 11.4 1.3 2.9 0 3.8-1 4.6-3.1 2-4.6 3.2-19.2 3.2-28.4h-16.4c-3 21.3-10.7 34.6-26.2 45.8l-11.8-9.6c4.6-2.5 8.8-5.6 12.4-9.3 7.3-7.6 10.8-16.3 12.3-26.9h-9.5c-2.6 0-8 .1-11.9.4V17.7c3.9.4 8.6.7 11.9.7H310c.1-2.2.1-4.4.1-6.6-.1-2.7-.3-5.4-.7-8.1h15c-.2 2-.5 5.9-.6 7.9-.1 2.4-.2 4.7-.3 6.9h13.4c2.3 0 4.7-.2 7-.7l8.6 4.1zm-222.2 89.4c1.1 0 2.1-.5 2.7-1.3v2c-.7.6-1.7 1-2.7.9-2.5 0-4.6-2-4.6-4.6 0-2.5 2-4.6 4.6-4.6 1 0 1.9.3 2.7.9v2c-.6-.8-1.6-1.3-2.7-1.3-1.7 0-3 1.3-3 3s1.4 3.1 3 3zm5.9-7.1v3.2h3.9v-3.2h1.7v8.4h-1.7v-3.7h-3.9v3.7h-1.7v-8.4h1.7zm15.3 8.4h-1.8l-1-2h-3.4l-1 2h-1.8l4.5-9 4.5 9zm-5.5-3.5h2.1l-1.1-2.3-1 2.3zm9.4-4.9c1.9 0 3 1 3 2.7.1 1.2-.7 2.2-1.8 2.5l2.2 3.2h-2l-2.1-3h-.6v3h-1.6v-8.4h2.9zm-1.2 3.9h1.3c.8 0 1.4-.4 1.4-1.2s-.5-1.2-1.4-1.2h-1.3v2.4zm14.4 4.5h-1.8l-1-2h-3.4l-1 2h-1.8l4.5-9 4.5 9zm-5.5-3.5h2.1l-1.1-2.3-1 2.3zm10.2 2.2c1.1 0 2.1-.5 2.7-1.3v2c-.7.6-1.7 1-2.7.9-2.5 0-4.6-2-4.6-4.6 0-2.5 2-4.6 4.6-4.6 1 0 1.9.3 2.7.9v2c-.6-.8-1.6-1.3-2.7-1.3-1.7 0-3 1.3-3 3s1.4 3.1 3 3zm4.2-7.1h6v1.5h-2.2v6.9h-1.7v-6.9h-2.2v-1.5zm9.2 6.9h3.8v1.5H185v-8.4h5.4v1.5h-3.8v1.9h3.5v1.5h-3.5v2zm8.2-6.9c1.9 0 3 1 3 2.7.1 1.2-.7 2.2-1.8 2.5l2.2 3.2h-2l-2-3h-.6v3H192v-8.4h2.9zm-1.2 3.9h1.3c.8 0 1.4-.4 1.4-1.2s-.5-1.2-1.4-1.2h-1.3v2.4zm15.1-3.9h1.8l-4.5 9-4.5-9h1.8l2.7 5.8 2.7-5.8zm6.6-.4c2.5.1 4.5 2.2 4.4 4.7-.1 2.5-2.2 4.5-4.7 4.4-2.5-.1-4.4-2.1-4.4-4.6 0-2.5 2-4.5 4.5-4.6.1.1.2.1.2.1zm0 7.6c1.6.1 2.9-1.2 3-2.8v-.2c.1-1.6-1.1-2.9-2.7-3h-.3c-1.7 0-3 1.3-3 3s1.4 3 3 3zm7.7-7.2v8.4h-1.7v-8.4h1.7zm6.2 7.1c1.1 0 2.1-.5 2.7-1.3v2c-.7.6-1.7 1-2.7.9-2.5 0-4.6-2-4.6-4.6 0-2.5 2-4.6 4.6-4.6 1-.1 2 .3 2.7.9v2c-.6-.8-1.6-1.3-2.7-1.3-1.7 0-3 1.3-3 3s1.3 3.1 3 3zm6.1-.2h3.8v1.5h-5.4v-8.4h5.4v1.5h-3.8v1.9h3.6v1.5h-3.5l-.1 2zm78-7.7v1.2h-10.5v-1.2h4.4v-1h1.5v1h4.6zm-.4 8.7c0 .7-.1 1-.6 1.3-.6.2-1.3.3-1.9.2 0-.3-.1-.7-.3-1h-3.1v.5h-1.2v-3.2h4.6v2.3h.9c.2 0 .2-.1.2-.2v-2.7h-6.8v4.2h-1.4v-5.4h9.6v4zm-1.6-7v2.6h-6.5v-2.6h6.5zm-1.4.9h-3.7v.7h3.7v-.7zm-.8 4.9h-2.1v.8h2.1v-.8zm8.2-4.1c.3.5 1.1 1.8 1.3 2.1l-.7 1c-.1-.3-.4-.9-.6-1.4v5.1h-1.3v-4.4c-.2.8-.6 1.6-1 2.3-.2-.4-.4-.9-.6-1.3.8-1.2 1.3-2.6 1.6-4h-1.3v-1.3h1.4v-2.5h1.3v2.5h1.1v1.3h-1.1l-.1.6zm6.6-1.4c.5.6 1.2 1.1 2 1.5-.3.3-.6.6-.9 1-.4-.2-.7-.4-1-.7v1.1h-4v-1.1c-.3.3-.6.5-1 .7-.2-.4-.5-.7-.9-.9.7-.4 1.4-.9 1.9-1.6h-1.4v-1.1h2c.1-.2.1-.3.2-.5h-1.8c0-.3-.1-.6-.3-.9 1.8 0 3.6-.2 5.3-.5l.8.9c-.9.2-1.8.3-2.7.4 0 .2-.1.4-.2.6h3.5v1.1H324zm1.5 6.9c0 .6-.1.9-.5 1.1-.5.2-1.1.3-1.6.2-.1-.4-.2-.7-.3-1.1h-1.3v.5h-1v-2.8h3v2.2h.3c.1 0 .2 0 .2-.2v-2.5h-4.1v3.8h-1.3v-4.9h6.7l-.1 3.7zm-3.9-6.9l-.3.6h1.8c-.1-.2-.2-.4-.4-.6h-1.1zm1.3 1.4h-1.6v.7h1.6v-.7zm-.3 4.2h-1v.7h1v-.7zm8.3-5.1h-1l1 .3-.9 1.5v5.9h-1.4v-4.1c-.3.4-.7.7-1.1 1-.4-.4-.8-.7-1.2-1 1.3-1 2.4-2.2 3.1-3.7v-1h-2.6v-1.4h2.6v-1h1.4v1h2.5v-1h1.4v1h2.6v1.4h-2.6v1.1h-1.4v-1.1h-2.5v1.1zm4.9 6.2c.5 0 .6-.3.6-1.8.4.3.8.5 1.3.6-.2 1.9-.5 2.5-1.8 2.5H334c-1.5 0-1.8-.4-1.8-1.9V106h1.4v2.4c.9-.4 1.8-.9 2.6-1.5l1.1 1.1c-1.2.7-2.4 1.3-3.7 1.8v1.9c0 .5.1.6.6.6l1.6-.2zm7.2-2.4c-.2-.4-.6-1-.9-1.5v5.4h-1.4v-4.8c-.4 1-.9 1.9-1.5 2.8-.2-.5-.4-.9-.7-1.4.9-1.2 1.6-2.5 2-4h-1.7v-1.3h1.9v-2.4h1.4v2.5h1.6v1.3H342v.2c.4.3 1.5 1.7 1.8 2l-.8 1.2zm4.7-3.5c.4 1.6 1.2 3 2.2 4.3-.4.3-.8.7-1.1 1.1-.6-.9-1.1-1.8-1.4-2.8v4.8H346v-4.9c-.5 1.2-1.2 2.3-2.1 3.2-.2-.5-.5-.9-.8-1.3 1.2-1.2 2.1-2.8 2.6-4.4H344v-1.3h2v-2.5h1.4v2.5h2.1v1.3h-1.8z" fill="#fff"/><path fill="none" stroke="#fff" stroke-width="2" stroke-miterlimit="10" stroke-dasharray="2,4" d="M296.5 109.1h-50.2"/></svg>