<svg xmlns="http://www.w3.org/2000/svg" viewBox="0 0 279.8 69.33"><g data-name="レイヤー 2"><path d="M.59.85L2.28 1h3.57L7.63.68l1.78.44L11.2.77l1.8.12h1.79l1.79.25 1.78-.77 1.77.47 1.75.4 1.86-.58 1.64 1 1.69.46 1.79.28 1.28 1.3 2 .37 1.16 1.45.44 1.83.84 1.57.2 1.77.43 1.77-.56 1.79-.65 1.67-.58 1.68-1.17 1.4-1 1.66-1.59.7-.1-.21 1.57 1 1.51 1.18L34 24.52l1.72 1.11.56 1.91.63 1.85v1.94l-.42 1.79-.07 1.88-.89 1.6-.76 1.69-1.63.94-1.49.94-1.21 1.62-1.82.44-1.83.22L25 43l-1.86-.36-1.8.74-1.73-.21-1.75.12-1.73-.17-1.74-.23-1.74-.12-1.65.09H9.26L7.47 43l-1.74.34L4 42.71l-1.75.49-1.52-.44.07-1.61-.72-1.84.31-1.83v-1.83l.41-1.83L.86 32l-.74-1.85.81-1.83-.76-1.84.38-1.84.12-1.83L.74 21l-.15-1.86L0 17.3l.71-1.83-.14-1.84.23-1.83L.13 10l.24-1.88.23-1.84.09-1.84V2.6zm15.53 16.28h1.66l1.64-.44 1.35-1.14V12l-1.64-.83-1.67-.39h-1.71l-1.36-.06.72 2.28-.44 2-.24 2.2zM14.62 33l1.84.13 2-.09 2.06-.34L22 31.24l1-1.87-.71-1.6-1.11-1.26-1.63-.51-1.65-.42-1.67.7-1.55-.42-.3 1.78.79 1.75-.67 1.74zM40.35.85L42 .67l1.72.33 1.73-.5 1.74.3 1.73-.2 1.74-.3 1.74.15 1.74.55 1.74-.51 1.79.51 1.76.37 1.86-.53 1.82.16 1.59 1.12 2-.39 1.58 1 1.8.27 1.53 1 1.3 1.31 1.23 1.3 1.86.72.65 1.81 1.5 1.15.78 1.64.41 1.79.44 1.72 1 1.62.1 1.82v5.44l-.06 1.85v1.88l-.49 1.81L79 31.43l-.39 1.88-1.51 1.21-1 1.51-1.29 1.29-1.34 1.25-1.6.88-1.62.83-1.67.72L67 42l-1.84.2-1.76.8-1.88-.23h-1.83l-1.77.23h-1.76l-1.76-.15-1.77.15-1.76.46-1.77-.94-1.77.17-1.76-.12-1.77.6-1.77.1-1.6-.46.08-1.66.16-1.84-.4-1.83v-1.83l.12-1.83-.28-1.82.53-1.83-.64-1.85v-1.84l-.1-1.84.1-1.83.09-1.81v-1.83l.19-1.84.36-1.83-.56-1.84.41-1.83V10l-.07-1.84V6.32l.22-1.84-.81-1.85zm15.13 29.54l1.07-.15 1.72.19 1.58-.81 1.67-.28 1.35-1 .91-1.34.91-1.33 1-1.48-.34-1.73.36-1.8-.15-1.84-1.4-1.32-1.2-1.18-1-1.66-2 .22-1.62-.73-1.76.33-.71-.35-.38 1.68-.29 1.79.8 1.81-.67 1.82.58 1.82-.11 1.81-.33 1.82-.11 1.82zM120.36 40l-1.43.58-1.42 1.1-1.59.8-1.92-.11-1.56 1-1.83-.31-1.68 1-1.76-.06-1.84-.7-1.81-.3-1.86-.07-1.8-.44-1.92-.22-1.37-1.44-1.43-1.13-1.33-1.2-1.29-1.28-1.42-1.33-.56-1.82v-1.9l-.24-1.85V28.5l.57-1.73 1.13-1.4.51-1.91L94 22.27l1.6-.95 1.61-.92 1.79-.62h1.83l-1.59-1-1.06-1.57-1-1.6.23-2L97 11.9v-1.79l.08-1.86 1.16-1.46 1.17-1.33.74-1.81L102 3.1l1.53-.91 1.52-1.06 1.75-.64 1.8-.39 1.86.16 1.81.21 1.8-.47 1.7.75 1.73.36 1.92-.11 1.62.84 1.35 1.26 1.39 1.09 1.66.86.79 1.67 1 1.5.77 1.71-.46 1.86-.22 1.73-.32 1.73-.58 1.69-1.42 1.19-.71 1.78-1.72.72L121.3 22l-1.47.18 1.26 1.13 1.07 1.49 1.29 1.14 1.44-.68 1.24-1.36 1-1.58 1.54-1.07 1.11-1.35.82 1.53 1.64.86.87 1.54 1 1.39 1.23 1.21 1.66.85 1.06 1.64-1.55 1-1.38.91-1.2 1.17-1.18 1.2-2 .71 1.93 1.19 1.32 1.37 1.11 1.53 1.48 1.2 1.86.81 1.27 1.43 1.7 1.63-2.24-.24-1.76.6-1.76-.43-1.76.34-1.76.17-1.77-.34h-1.76l-1.77.11-1.77-.59-1.9.57-1-2.09zM107 26.91l-1.69 1-.55 2 .57 1.61 1.08 1.66 2-.26 2.19.23 1.39-1-1.09-1.29-.9-1.75-1.3-1.4zM110.79 12l.28 2 1.54 1.17 1.14-1 1.63-.73V11.7l-.19-2h-1.92l-1.71.53zM149.28.65l1.85-.27 1.73.23 1.73.21 1.74.37 1.74-.09 1.73-.57 1.74.35 1.74-.59 1.72.33 1.79.36 1.81-.14 1.74.55 1.87-.32 1.64.93h1.86l1.79.36 1.4 1.32 1.48 1 1.55.85 1.64.8 1.25 1.3 1.31 1.25.71 1.69 1.21 1.43.82 1.62.66 1.7-.12 1.88.89 1.69-.3 1.8.3 1.79-.49 1.84.32 1.89-.55 1.8-.24 1.87-1.34 1.46-.79 1.66-.44 1.91-1.64 1.09-1.39 1.18-1.27 1.29-1.15 1.53-1.9.39-1.51 1.12-1.85.28-1.66 1-1.86.16-1.88-.27-1.83.76-1.77-.57-1.76-.25-1.76.24-1.77.45-1.77-.43-1.77.25-1.75-.13-1.77.09-1.77.2-1.77-.8-1.76.44.21-1.82-.14-1.84-.57-1.83.23-1.83.18-1.83-.26-1.78.81-1.83-.56-1.83-.21-1.84v-1.84l.18-1.83.09-1.84.51-1.83-.88-1.86.8-1.83v-1.84l-.65-1.83.5-1.84-.33-1.84.26-1.84.13-1.84-.06-1.85zm15.6 29.6l.81-.3 1.69.14 1.7-.11 1.77-.24 1.48-1 .78-1.62 1.13-1.3-.13-1.76.46-1.62.21-1.79-.63-1.65-.43-1.78-1.6-1-1.12-1.48-1.83-.17-1.74-.08-1.72-.76h-1.32l.06 2 .39 1.82-.09 1.81.19 1.82-.38 1.82.37 1.81.12 1.82.1 1.81zM234.63 1l-.18 1.51-.45 1.76-.73 1.66-.85 1.61-.62 1.7-.36 1.8-1.37 1.41-.07 1.91-1.36 1.42-.29 1.83-.35 1.79-.42 1.78-1.58 1.34-.22 1.86-.27 1.83-1.33 1.43-.8 1.63v2l-.78 1.64-1.16 1.49v2l-.92 1.59-1 1.55-.13 1.9-.67 1.89h-2l-1.85-.68-1.86.91-1.85-.81-1.86-.14-1.86.05-2.12.81.07-2.25-.91-1.59-.48-1.85-.62-1.7-.66-1.68-.95-1.58-1.19-1.47v-1.94l-1.14-1.49-.61-1.71-.69-1.68-.47-1.75-.62-1.7-.55-1.74-1-1.54v-2l-1.28-1.43-.18-1.88-.48-1.76-1.45-1.38-.57-1.72-.69-1.63-.2-1.88-.28-1.84-1.13-1.54 1.8.2 1.78-.28 1.78.34 1.78-.3 1.78.18 1.77-.53 1.79.58 1.78-.14 1.61.19.79 1.49.83 1.65-.29 2 .47 1.76.59 1.72.63 1.71 1.11 1.57-.24 2 .64 1.72 1 1.6.14 1.86.24 1.58L212 23l-.59 1.69.23 1.75.46-.33v-1.5l.46-1.56.6-1.49-.16-1.71.65-1.71.34-1.79 1-1.61.53-1.74.1-1.86 1.06-1.58.33-1.8.2-1.84 1-1.61-.21-1.92.66-2 2 .5 1.78.18 1.78-.16 1.77-.15 1.79.24 1.77-.77h1.78l1.78.61zm4.11-.54l2 .76 1.74-.13 1.77-.09L246 .44l1.74.22 1.74.56 1.71-.62 1.75.39h1.74l1.78.1 1.78.17 1.81-.13 1.78.24 1.76.36 1.67.69 1.77.35 1.85.28 1.42 1.21 1.64.79 1.2 1.4 1.22 1.3 1 1.5 1.46 1.15.89 1.57 1 1.55.19 1.85.49 1.74.28 1.78-.1 1.81.05 1.79.2 1.86-.59 1.79.2 1.92-.68 1.75-.7 1.72L277 33l-1.17 1.41-.89 1.61-.94 1.7-1.58 1-1.72.74-1.39 1.27-1.9.24-1.71.59-1.74.53-1.76.52-1.8.7-1.87-.76-1.76.26-1.77-.22-1.76.4-1.76.38-1.77-.58-1.76-.12-1.77.52-1.76-.2-1.77-.09-1.78.45-1.89-.25.11-2-.16-1.84.15-1.83.17-1.83-.57-1.83.45-1.84-.13-1.78.12-1.83-.38-1.84v-1.84l.49-1.83v-1.84l.23-1.83V17.3l-.3-1.83.06-1.84V11.8l.13-1.84V8.12l-.44-1.84.26-1.84V2.6zm16 29.67l.57.66 1.74-.23 1.68-.45 1.42-1.05 1.52-.68 1.61-.87.31-1.81.83-1.54.12-1.73v-1.81l-.34-1.79-1.06-1.51L262 16l-1.47-1-1.6-.85-1.79-.08-1.77.37-.9-.45.22 1.78-.36 1.82-.1 1.81-.23 1.83.55 1.82v1.81l.32 1.82-.38 1.81zM3.4 60.17l1.36.28c-.08.3-.19.76-.25 1a25.46 25.46 0 0 1-1 3.69 17.23 17.23 0 0 1-1.77 3.35L.39 68a16.07 16.07 0 0 0 1.86-3.29 18.14 18.14 0 0 0 1.15-4.54zm3 .27L7.65 60c.48.9 1.29 2.64 1.77 3.85s1.09 3 1.41 4.15l-1.36.44a42.74 42.74 0 0 0-1.31-4.14 33.08 33.08 0 0 0-1.74-3.86zm3.57-2a1.38 1.38 0 1 1-1.38 1.38A1.38 1.38 0 0 1 10 58.47zm0 2.12a.76.76 0 0 0 .76-.74.77.77 0 0 0-.76-.76.76.76 0 0 0-.74.76.74.74 0 0 0 .77.77zm4.37 4.11l-1.14.42a25 25 0 0 0-1.09-2.73l1.13-.36c.27.5.87 2 1.1 2.67zm6.07-2.58a7 7 0 0 0-.23.72 9.54 9.54 0 0 1-1.68 3.61 9.39 9.39 0 0 1-3.94 2.91l-1-1a8.2 8.2 0 0 0 3.93-2.53 8.39 8.39 0 0 0 1.6-4.11zM17 63.93l-1.13.41a20 20 0 0 0-1-2.64l1.13-.37c.25.5.84 2.07 1 2.6zM30.53 61a8.22 8.22 0 0 0 1.17-.08v1.3h-3.05c-.21 3.33-1.51 5.4-3.62 6.73L23.76 68a5.55 5.55 0 0 0 1-.6 6.7 6.7 0 0 0 2.55-5.27h-2.79a10 10 0 0 1-2 2.56L21.36 64a9.57 9.57 0 0 0 2.11-2.53 9 9 0 0 0 .69-1.67 5.08 5.08 0 0 0 .2-1.07l1.46.29c-.12.28-.25.65-.34.9s-.24.67-.4 1.06zm2.68 2c.38 0 1.12.07 1.77.07h6.51a13 13 0 0 0 1.35-.07v1.48h-9.61zm15.1.42l-.69 1.07C47 64 45.71 63.22 45 62.81l.69-1c.69.38 2.06 1.19 2.62 1.61zm1.21 2.82a12.17 12.17 0 0 0 4.6-4.45l.73 1.28a14.35 14.35 0 0 1-4.69 4.29 14.17 14.17 0 0 1-4 1.49l-.71-1.24a13 13 0 0 0 4.07-1.37zm.6-5.47l-.72 1c-.61-.45-1.89-1.29-2.62-1.71l.68-1c.74.42 2.09 1.31 2.66 1.71zm3.6.35l-.84.37a11.5 11.5 0 0 0-1.08-1.88l.82-.35a20.72 20.72 0 0 1 1.1 1.86zm1.64-.61l-.83.37A11.89 11.89 0 0 0 53.4 59l.83-.35a16.63 16.63 0 0 1 1.13 1.86zm.64 3.16a16.34 16.34 0 0 0 .51-3.09l.81.11a16.77 16.77 0 0 1-.48 3.25zM59.13 62a15.76 15.76 0 0 0-.62-1.68v8.94h-1v-11h1v2l.7-.27a11.78 11.78 0 0 1 .67 1.69zm8 .07v.83h-7.77v-.83h3.29v-.69H60v-.78h2.62V60h-2.88v-.82h2.91v-.89h1.1v.89h3V60h-3v.63h2.73v.78h-2.73v.69zm-.89 6c0 .5-.11.79-.47.94a5 5 0 0 1-1.76.17 4.51 4.51 0 0 0-.32-1h1.28c.16 0 .22-.06.22-.21v-.65h-4v1.82h-1V63.5h6.06zm-5-3.79v.74h4v-.74zm4 2.31v-.74h-4v.74zm6.17-5.19h2.1v1H72.4l.51.13c-.2.5-.42 1-.61 1.41h1.07v1h-2V66h1.8v1h-1.8v2.31h-1v-2.38h-1.88V66h1.88v-1.15h-2v-1h1a5.48 5.48 0 0 0-.37-1.37l.49-.13h-1.31v-1h2.19v-1h-1.76v-.93h1.76v-1.13h1v1.13h1.66v.93h-1.62zm0 2.38a13.41 13.41 0 0 0 .5-1.43h-2.04a5.48 5.48 0 0 1 .46 1.43l-.39.11h1.91zm7.45-.73A11.7 11.7 0 0 1 77.53 67a6 6 0 0 0 1.79 1.43 4.32 4.32 0 0 0-.75.89 6.49 6.49 0 0 1-1.65-1.42 6.87 6.87 0 0 1-1.47 1.43 3.35 3.35 0 0 0-.61-.65v.64h-1V58.8h4.77v2.26c0 .52-.11.81-.53 1a5.88 5.88 0 0 1-1.91.16 3.31 3.31 0 0 0-.33-1h1.5c.18 0 .23 0 .23-.18v-1.26h-2.73v3.07H78l.18-.05zm-4 5.39A6.11 6.11 0 0 0 76.27 67a12.54 12.54 0 0 1-1.43-3.24zm.94-4.68a9.66 9.66 0 0 0 1.07 2.3 9.77 9.77 0 0 0 .85-2.3z" fill="#fff"/><path fill="none" stroke="#fff" stroke-miterlimit="10" stroke-width="2" stroke-dasharray="2 4" d="M276.4 64.87H86.35"/></g></svg>